<svg xmlns="http://www.w3.org/2000/svg" xmlns:xlink="http://www.w3.org/1999/xlink" width="295" height="343" viewBox="0 0 295 343">
  <defs>
    <clipPath id="clip-path">
      <path id="path3375" d="M0-682.665H125.834v125.834H0Z" transform="translate(0 682.665)" fill="#12263f"/>
    </clipPath>
  </defs>
  <g id="Grupo_1020785" data-name="Grupo 1020785" transform="translate(-1125 -3155)">
    <path id="Trazado_755350" data-name="Trazado 755350" d="M20,0H275a20,20,0,0,1,20,20V323a20,20,0,0,1-20,20H20A20,20,0,0,1,0,323V20A20,20,0,0,1,20,0Z" transform="translate(1125 3155)" fill="#ffb338"/>
    <path id="Trazado_755351" data-name="Trazado 755351" d="M-39.665-2.391h-4.228L-44.631,0h-3.3l4.693-12.8h2.9L-35.6,0h-3.313Zm-3.489-2.382H-40.4l-1.38-4.438Zm7.972-.053a5.809,5.809,0,0,1,.976-3.56,3.211,3.211,0,0,1,2.725-1.3,2.731,2.731,0,0,1,2.145,1V-13.5h2.971V0H-29.03l-.149-1.02A2.8,2.8,0,0,1-31.5.176a3.205,3.205,0,0,1-2.689-1.3A5.993,5.993,0,0,1-35.183-4.825Zm2.962.185q0,2.531,1.477,2.531a1.458,1.458,0,0,0,1.406-.826V-6.557A1.419,1.419,0,0,0-30.727-7.4q-1.371,0-1.485,2.215ZM-20.083.176a4.889,4.889,0,0,1-3.542-1.305,4.507,4.507,0,0,1-1.354-3.4v-.246a5.84,5.84,0,0,1,.541-2.575A3.955,3.955,0,0,1-22.86-9.075,4.763,4.763,0,0,1-20.4-9.686a4.117,4.117,0,0,1,3.164,1.244,4.887,4.887,0,0,1,1.16,3.467v1.151h-5.889a2.135,2.135,0,0,0,.694,1.257,2.066,2.066,0,0,0,1.389.457,2.662,2.662,0,0,0,2.2-.984l1.354,1.6A3.784,3.784,0,0,1-17.9-.277,5.3,5.3,0,0,1-20.083.176ZM-20.417-7.4q-1.3,0-1.547,1.723h2.988v-.229a1.467,1.467,0,0,0-.36-1.1A1.434,1.434,0,0,0-20.417-7.4Zm9.554,5.291A1.317,1.317,0,0,0-9.9-2.448a1.241,1.241,0,0,0,.334-.945h2.777A3.288,3.288,0,0,1-7.906-.826a4.168,4.168,0,0,1-2.887,1,4.22,4.22,0,0,1-3.27-1.3,5.125,5.125,0,0,1-1.2-3.6v-.123A5.792,5.792,0,0,1-14.726-7.4a3.872,3.872,0,0,1,1.534-1.7,4.573,4.573,0,0,1,2.373-.593A4.116,4.116,0,0,1-7.875-8.657a3.647,3.647,0,0,1,1.09,2.786H-9.562A1.626,1.626,0,0,0-9.923-7a1.244,1.244,0,0,0-.967-.4q-1.151,0-1.345,1.468A10.357,10.357,0,0,0-12.3-4.649a4.068,4.068,0,0,0,.343,1.986A1.187,1.187,0,0,0-10.863-2.109Zm11,1.081a3.054,3.054,0,0,1-2.54,1.2,3,3,0,0,1-2.369-.91,3.826,3.826,0,0,1-.8-2.615V-9.51h2.962v6.179A1.065,1.065,0,0,0-1.433-2.109a1.548,1.548,0,0,0,1.45-.729V-9.51H3V0H.22ZM9.976,0a3.344,3.344,0,0,1-.281-.853A2.754,2.754,0,0,1,7.409.176,3.374,3.374,0,0,1,5.124-.637a2.588,2.588,0,0,1-.94-2.043A2.66,2.66,0,0,1,5.326-5.019,5.821,5.821,0,0,1,8.648-5.81h.914v-.5q0-1.316-1.134-1.316A.927.927,0,0,0,7.374-6.587H4.412A2.655,2.655,0,0,1,5.585-8.825a4.931,4.931,0,0,1,2.993-.86,4.323,4.323,0,0,1,2.874.888,3.086,3.086,0,0,1,1.081,2.435v4.21a4.311,4.311,0,0,0,.4,2V0ZM8.121-1.934a1.652,1.652,0,0,0,.918-.237,1.487,1.487,0,0,0,.523-.536V-4.228H8.7q-1.547,0-1.547,1.389a.848.848,0,0,0,.272.655A.986.986,0,0,0,8.121-1.934Zm10.072-.176a1.317,1.317,0,0,0,.967-.338,1.241,1.241,0,0,0,.334-.945h2.777A3.288,3.288,0,0,1,21.151-.826a4.168,4.168,0,0,1-2.887,1,4.22,4.22,0,0,1-3.27-1.3,5.125,5.125,0,0,1-1.2-3.6v-.123A5.792,5.792,0,0,1,14.331-7.4a3.872,3.872,0,0,1,1.534-1.7,4.573,4.573,0,0,1,2.373-.593,4.116,4.116,0,0,1,2.944,1.028,3.647,3.647,0,0,1,1.09,2.786H19.494A1.626,1.626,0,0,0,19.134-7a1.244,1.244,0,0,0-.967-.4q-1.151,0-1.345,1.468a10.357,10.357,0,0,0-.062,1.283A4.068,4.068,0,0,0,17.1-2.663,1.187,1.187,0,0,0,18.193-2.109ZM26.648,0H23.678V-9.51h2.971ZM23.5-11.971a1.334,1.334,0,0,1,.457-1.043,1.718,1.718,0,0,1,1.187-.407,1.718,1.718,0,0,1,1.187.407,1.334,1.334,0,0,1,.457,1.043,1.334,1.334,0,0,1-.457,1.043,1.718,1.718,0,0,1-1.187.407,1.718,1.718,0,0,1-1.187-.407A1.334,1.334,0,0,1,23.5-11.971Zm4.6,7.128a5.613,5.613,0,0,1,.554-2.536,3.96,3.96,0,0,1,1.591-1.709,4.791,4.791,0,0,1,2.435-.6,4.373,4.373,0,0,1,3.366,1.323,5.076,5.076,0,0,1,1.23,3.6v.105A4.925,4.925,0,0,1,36.04-1.129,4.384,4.384,0,0,1,32.7.176a4.434,4.434,0,0,1-3.261-1.217,4.761,4.761,0,0,1-1.327-3.3Zm2.962.185a3.538,3.538,0,0,0,.413,1.934,1.376,1.376,0,0,0,1.222.615q1.582,0,1.617-2.435v-.3q0-2.558-1.635-2.558-1.485,0-1.608,2.206ZM33.082-13.5h3.129l-2.443,2.76-2.417,0ZM41.3-9.51l.1,1.116a3.225,3.225,0,0,1,2.716-1.292,2.713,2.713,0,0,1,2.219.888,4.226,4.226,0,0,1,.76,2.672V0H44.121V-6a1.6,1.6,0,0,0-.29-1.059A1.342,1.342,0,0,0,42.776-7.4a1.413,1.413,0,0,0-1.292.686V0H38.522V-9.51Z" transform="translate(1273 3213)" fill="#12263f"/>
    <g id="g3369" transform="translate(1210 3268)">
      <g id="g3371" transform="translate(0 0)">
        <g id="g3373" clip-path="url(#clip-path)">
          <path id="path3379" d="M31.007-371.6H13.333v-17.673H31.007Z" transform="translate(-10.876 443.353)" fill="none" stroke="#12263f" stroke-linejoin="round" stroke-width="3"/>
          <path id="path3381" d="M591.125-371.6H573.452v-17.673h17.673Z" transform="translate(-467.749 443.353)" fill="none" stroke="#12263f" stroke-linejoin="round" stroke-width="3"/>
          <g id="g3383" transform="translate(54.08 2.458)">
            <path id="path3385" d="M-39.1,0a8.837,8.837,0,0,1,8.837,8.837A8.837,8.837,0,0,1-39.1,17.673,8.837,8.837,0,0,1-47.94,8.837,8.837,8.837,0,0,1-39.1,0Z" transform="translate(47.94)" fill="none" stroke="#12263f" stroke-linejoin="round" stroke-width="3"/>
          </g>
          <g id="g3387" transform="translate(54.08 105.703)">
            <path id="path3389" d="M-39.1,0a8.837,8.837,0,0,1,8.837,8.837A8.837,8.837,0,0,1-39.1,17.673,8.837,8.837,0,0,1-47.94,8.837,8.837,8.837,0,0,1-39.1,0Z" transform="translate(47.94)" fill="none" stroke="#12263f" stroke-linejoin="round" stroke-width="3"/>
          </g>
          <g id="g3391" transform="translate(15.576 83.536)">
            <path id="path3393" d="M-120.059-119.03a51.814,51.814,0,0,1-27.131-26.9" transform="translate(147.19 145.929)" fill="none" stroke="#12263f" stroke-linecap="round" stroke-linejoin="round" stroke-width="3"/>
          </g>
          <g id="g3395" transform="translate(12.862 83.536)">
            <path id="path3397" d="M0-41.811,2.714-51.26l9.449,2.714" transform="translate(0 51.26)" fill="none" stroke="#12263f" stroke-linecap="round" stroke-linejoin="round" stroke-width="3"/>
          </g>
          <g id="g3399" transform="translate(15.576 15.167)">
            <path id="path3401" d="M0-120.059A51.814,51.814,0,0,1,26.9-147.19" transform="translate(0 147.19)" fill="none" stroke="#12263f" stroke-linecap="round" stroke-linejoin="round" stroke-width="3"/>
          </g>
          <g id="g3403" transform="translate(33.026 12.453)">
            <path id="path3405" d="M0,0,9.449,2.714,6.734,12.163" fill="none" stroke="#12263f" stroke-linecap="round" stroke-linejoin="round" stroke-width="3"/>
          </g>
          <g id="g3407" transform="translate(83.126 15.4)">
            <path id="path3409" d="M0,0A51.815,51.815,0,0,1,27.131,26.9" fill="none" stroke="#12263f" stroke-linecap="round" stroke-linejoin="round" stroke-width="3"/>
          </g>
          <g id="g3411" transform="translate(100.809 32.85)">
            <path id="path3413" d="M-53.822,0l-2.714,9.449-9.449-2.714" transform="translate(65.985)" fill="none" stroke="#12263f" stroke-linecap="round" stroke-linejoin="round" stroke-width="3"/>
          </g>
          <g id="g3415" transform="translate(83.359 104.173)">
            <path id="path3417" d="M-48.466,0A51.6,51.6,0,0,1-59.419,6.494" transform="translate(59.419)" fill="none" stroke="#12263f" stroke-linecap="round" stroke-linejoin="round" stroke-width="3"/>
          </g>
          <g id="g3419" transform="translate(108.519 83.536)">
            <path id="path3421" d="M-7.693,0q-.8,1.875-1.739,3.672" transform="translate(9.432)" fill="none" stroke="#12263f" stroke-linecap="round" stroke-linejoin="round" stroke-width="3"/>
          </g>
          <g id="g3423" transform="translate(99.894 93.974)">
            <path id="path3425" d="M-21.751-10.876a2.458,2.458,0,0,1-2.458,2.458,2.458,2.458,0,0,1-2.458-2.458,2.458,2.458,0,0,1,2.458-2.458,2.458,2.458,0,0,1,2.458,2.458" transform="translate(26.667 13.333)" fill="#12263f"/>
          </g>
          <g id="g3427" transform="translate(83.359 101.218)">
            <path id="path3429" d="M-41.811-53.822l-9.449-2.714,2.714-9.449" transform="translate(51.26 65.985)" fill="none" stroke="#12263f" stroke-linecap="round" stroke-linejoin="round" stroke-width="3"/>
          </g>
        </g>
      </g>
    </g>
  </g>
</svg>
