<svg xmlns="http://www.w3.org/2000/svg" width="295" height="343" viewBox="0 0 295 343">
  <g id="Grupo_1020852" data-name="Grupo 1020852" transform="translate(-180 -2793)">
    <g id="Grupo_1020851" data-name="Grupo 1020851">
      <path id="Trazado_755404" data-name="Trazado 755404" d="M20,0H275a20,20,0,0,1,20,20V323a20,20,0,0,1-20,20H20A20,20,0,0,1,0,323V20A20,20,0,0,1,20,0Z" transform="translate(180 2793)" fill="#b6e1fd"/>
      <path id="Trazado_755405" data-name="Trazado 755405" d="M-29.646-12.8v8.376a4.814,4.814,0,0,1-.606,2.465,3.929,3.929,0,0,1-1.74,1.586,6.131,6.131,0,0,1-2.681.545,5.3,5.3,0,0,1-3.683-1.213,4.326,4.326,0,0,1-1.371-3.322V-12.8h3.1v8.5q.053,2.1,1.951,2.1a1.889,1.889,0,0,0,1.45-.527,2.465,2.465,0,0,0,.492-1.714V-12.8Zm10.617,8.121A5.8,5.8,0,0,1-20-1.081,3.238,3.238,0,0,1-22.72.176,2.81,2.81,0,0,1-25.058-.976L-25.181,0h-2.654V-13.5h2.962v4.755a2.711,2.711,0,0,1,2.136-.94A3.239,3.239,0,0,1-20-8.411a5.826,5.826,0,0,1,.967,3.586ZM-22-4.865a3.866,3.866,0,0,0-.365-1.952A1.229,1.229,0,0,0-23.484-7.4a1.418,1.418,0,0,0-1.389.763v3.773a1.426,1.426,0,0,0,1.406.755A1.258,1.258,0,0,0-22.14-3.127,7.309,7.309,0,0,0-22-4.865ZM-14.6,0h-2.971V-9.51H-14.6Zm-3.146-11.971a1.334,1.334,0,0,1,.457-1.043,1.718,1.718,0,0,1,1.187-.407,1.718,1.718,0,0,1,1.187.407,1.334,1.334,0,0,1,.457,1.043,1.334,1.334,0,0,1-.457,1.043,1.718,1.718,0,0,1-1.187.407,1.718,1.718,0,0,1-1.187-.407A1.334,1.334,0,0,1-17.745-11.971Zm8.991,9.861a1.317,1.317,0,0,0,.967-.338,1.241,1.241,0,0,0,.334-.945h2.777A3.288,3.288,0,0,1-5.8-.826a4.168,4.168,0,0,1-2.887,1,4.22,4.22,0,0,1-3.27-1.3,5.125,5.125,0,0,1-1.2-3.6v-.123A5.792,5.792,0,0,1-12.617-7.4a3.872,3.872,0,0,1,1.534-1.7A4.573,4.573,0,0,1-8.71-9.686,4.116,4.116,0,0,1-5.766-8.657a3.647,3.647,0,0,1,1.09,2.786H-7.453A1.626,1.626,0,0,0-7.813-7a1.244,1.244,0,0,0-.967-.4q-1.151,0-1.345,1.468a10.357,10.357,0,0,0-.062,1.283,4.068,4.068,0,0,0,.343,1.986A1.187,1.187,0,0,0-8.754-2.109Zm11,1.081A3.054,3.054,0,0,1-.3.176a3,3,0,0,1-2.369-.91,3.826,3.826,0,0,1-.8-2.615V-9.51H-.51v6.179A1.065,1.065,0,0,0,.677-2.109a1.548,1.548,0,0,0,1.45-.729V-9.51H5.106V0H2.329ZM9.853,0H6.882V-9.51H9.853ZM6.706-11.971a1.334,1.334,0,0,1,.457-1.043,1.718,1.718,0,0,1,1.187-.407,1.718,1.718,0,0,1,1.187.407,1.334,1.334,0,0,1,.457,1.043,1.334,1.334,0,0,1-.457,1.043,1.718,1.718,0,0,1-1.187.407,1.718,1.718,0,0,1-1.187-.407A1.334,1.334,0,0,1,6.706-11.971Zm4.6,7.146a5.809,5.809,0,0,1,.976-3.56A3.211,3.211,0,0,1,15-9.686a2.731,2.731,0,0,1,2.145,1V-13.5h2.971V0H17.455l-.149-1.02a2.8,2.8,0,0,1-2.32,1.2,3.205,3.205,0,0,1-2.689-1.3A5.993,5.993,0,0,1,11.3-4.825Zm2.962.185q0,2.531,1.477,2.531a1.458,1.458,0,0,0,1.406-.826V-6.557A1.419,1.419,0,0,0,15.759-7.4q-1.371,0-1.485,2.215ZM27.158,0a3.344,3.344,0,0,1-.281-.853A2.754,2.754,0,0,1,24.592.176a3.374,3.374,0,0,1-2.285-.813,2.588,2.588,0,0,1-.94-2.043,2.66,2.66,0,0,1,1.143-2.338,5.821,5.821,0,0,1,3.322-.791h.914v-.5q0-1.316-1.134-1.316a.927.927,0,0,0-1.055,1.042H21.595a2.655,2.655,0,0,1,1.173-2.239,4.931,4.931,0,0,1,2.993-.86,4.323,4.323,0,0,1,2.874.888,3.086,3.086,0,0,1,1.081,2.435v4.21a4.311,4.311,0,0,0,.4,2V0ZM25.3-1.934a1.652,1.652,0,0,0,.918-.237,1.487,1.487,0,0,0,.523-.536V-4.228h-.861q-1.547,0-1.547,1.389a.848.848,0,0,0,.272.655A.986.986,0,0,0,25.3-1.934Zm5.678-2.892a5.809,5.809,0,0,1,.976-3.56,3.211,3.211,0,0,1,2.725-1.3,2.731,2.731,0,0,1,2.145,1V-13.5H39.8V0H37.134l-.149-1.02a2.8,2.8,0,0,1-2.32,1.2,3.205,3.205,0,0,1-2.689-1.3A5.993,5.993,0,0,1,30.981-4.825Zm2.962.185q0,2.531,1.477,2.531a1.458,1.458,0,0,0,1.406-.826V-6.557A1.419,1.419,0,0,0,35.438-7.4q-1.371,0-1.485,2.215Z" transform="translate(328 2851)" fill="#12263f"/>
      <g id="browser_3771343" transform="translate(265 2925)">
        <path id="Trazado_749377" data-name="Trazado 749377" d="M123.493,100.62,106,82.461a52.987,52.987,0,0,0-8.513-68.774,1.825,1.825,0,0,0-2.447,2.705,49.4,49.4,0,0,1,12.341,17.373H83.95C81.753,20.713,77.36,10.28,71.729,4.631a49.175,49.175,0,0,1,14.67,5.5,1.825,1.825,0,0,0,1.81-3.167,53.01,53.01,0,0,0-58.9,87.829H6.364a6.288,6.288,0,0,0-6.281,6.281v17.151A6.288,6.288,0,0,0,6.364,124.5H13.7a1.825,1.825,0,0,0,0-3.648H6.364a2.637,2.637,0,0,1-2.634-2.634V101.071a2.637,2.637,0,0,1,2.634-2.634h67.9a2.637,2.637,0,0,1,2.634,2.634v17.151a2.637,2.637,0,0,1-2.634,2.634H23.417a1.825,1.825,0,0,0,0,3.648H74.262a6.288,6.288,0,0,0,6.281-6.281V102.632a52.628,52.628,0,0,0,13.722-7.64l.04,17.431a3.914,3.914,0,0,0,6.989,2.334l7.036-9.31a.237.237,0,0,1,.229-.092l11.534,1.8a3.923,3.923,0,0,0,3.4-6.536ZM108.759,37.413a49.379,49.379,0,0,1,.03,31.167H84.483A118.444,118.444,0,0,0,85.5,53a119.2,119.2,0,0,0-1-15.584ZM72.324,94.79h-20.8c-3.6-5.568-6.326-13.45-7.918-22.563H80.242C78.65,81.341,75.927,89.222,72.324,94.79ZM43.036,68.58a117.584,117.584,0,0,1,0-31.167H80.81A114.782,114.782,0,0,1,81.849,53,115.2,115.2,0,0,1,80.813,68.58ZM12.551,53a49.128,49.128,0,0,1,2.525-15.584H39.35a121.219,121.219,0,0,0,.015,31.167H15.059A49.49,49.49,0,0,1,12.551,53ZM75.624,17.525a75.036,75.036,0,0,1,4.617,16.24H43.607a75.04,75.04,0,0,1,4.617-16.24c3.748-8.819,8.742-13.878,13.7-13.878s9.952,5.058,13.7,13.878Zm-23.5-12.9C46.491,10.273,42.1,20.708,39.9,33.765H16.455A49.551,49.551,0,0,1,52.125,4.625ZM35.377,94.612A49.286,49.286,0,0,1,16.431,72.228H39.913c1.495,8.843,4.016,16.657,7.352,22.563H35.609a1.842,1.842,0,0,0-.232-.179Zm44.769,4.262a6.312,6.312,0,0,0-3.77-3.716c3.44-5.947,6.034-13.9,7.559-22.93h23.477a49.16,49.16,0,0,1-4.006,7.542l-2.488-2.582a3.931,3.931,0,0,0-6.687,2.7l.024,10.4a49.129,49.129,0,0,1-14.109,8.581Zm40.76,4.552a.207.207,0,0,1-.25.126l-11.534-1.8a3.881,3.881,0,0,0-3.7,1.5l-7.037,9.31q-.318.237-.431-.143l-.075-32.531q.094-.361.412-.166l22.575,23.433a.205.205,0,0,1,.04.275Z" transform="translate(-0.083 0)" fill="#12263f"/>
        <path id="Trazado_749378" data-name="Trazado 749378" d="M50.852,433.457l3.826-11.794a1.825,1.825,0,0,0-3.47-1.126L48.915,427.6l-2.365-5.758a1.838,1.838,0,0,0-3.374,0L40.811,427.6l-2.293-7.067a1.825,1.825,0,0,0-3.47,1.126l3.826,11.794a1.841,1.841,0,0,0,3.422.13l2.566-6.247,2.566,6.247a1.837,1.837,0,0,0,3.422-.13Z" transform="translate(-26.471 -317.35)" fill="#12263f"/>
        <path id="Trazado_749379" data-name="Trazado 749379" d="M130.342,434.717a1.826,1.826,0,0,0,1.756-1.13l2.566-6.247,2.566,6.247a1.842,1.842,0,0,0,3.422-.13l3.826-11.794a1.825,1.825,0,0,0-3.47-1.126l-2.293,7.067-2.365-5.758a1.838,1.838,0,0,0-3.374,0l-2.365,5.758-2.293-7.067a1.825,1.825,0,0,0-3.47,1.126l3.826,11.794A1.825,1.825,0,0,0,130.342,434.717Z" transform="translate(-94.435 -317.35)" fill="#12263f"/>
        <path id="Trazado_749380" data-name="Trazado 749380" d="M220.145,434.717a1.828,1.828,0,0,0,1.756-1.13l2.566-6.247,2.566,6.247a1.842,1.842,0,0,0,3.422-.13l3.826-11.794a1.825,1.825,0,0,0-3.47-1.126L228.52,427.6l-2.365-5.758a1.838,1.838,0,0,0-3.374,0l-2.365,5.758-2.293-7.067a1.825,1.825,0,0,0-3.47,1.126l3.826,11.794A1.824,1.824,0,0,0,220.145,434.717Z" transform="translate(-162.4 -317.35)" fill="#12263f"/>
      </g>
    </g>
  </g>
</svg>
