<svg xmlns="http://www.w3.org/2000/svg" width="295" height="343" viewBox="0 0 295 343">
  <g id="Grupo_1020779" data-name="Grupo 1020779" transform="translate(-495 -2793)">
    <path id="Trazado_755338" data-name="Trazado 755338" d="M20,0H275a20,20,0,0,1,20,20V323a20,20,0,0,1-20,20H20A20,20,0,0,1,0,323V20A20,20,0,0,1,20,0Z" transform="translate(495 2793)" fill="#ffb338"/>
    <path id="Trazado_755339" data-name="Trazado 755339" d="M-51.737-2.391h-4.228L-56.7,0H-60l4.693-12.8h2.9L-47.676,0H-50.99Zm-3.489-2.382h2.751l-1.38-4.438ZM-43.756,0h-2.971V-13.5h2.971Zm5.845-2.109a1.317,1.317,0,0,0,.967-.338,1.241,1.241,0,0,0,.334-.945h2.777A3.288,3.288,0,0,1-34.954-.826a4.168,4.168,0,0,1-2.887,1,4.22,4.22,0,0,1-3.27-1.3,5.125,5.125,0,0,1-1.2-3.6v-.123A5.792,5.792,0,0,1-41.774-7.4a3.872,3.872,0,0,1,1.534-1.7,4.573,4.573,0,0,1,2.373-.593,4.116,4.116,0,0,1,2.944,1.028,3.647,3.647,0,0,1,1.09,2.786h-2.777A1.626,1.626,0,0,0-36.971-7a1.244,1.244,0,0,0-.967-.4q-1.151,0-1.345,1.468a10.357,10.357,0,0,0-.062,1.283A4.068,4.068,0,0,0-39-2.663,1.187,1.187,0,0,0-37.912-2.109ZM-27.224,0a3.344,3.344,0,0,1-.281-.853A2.754,2.754,0,0,1-29.791.176a3.374,3.374,0,0,1-2.285-.813,2.588,2.588,0,0,1-.94-2.043,2.66,2.66,0,0,1,1.143-2.338,5.821,5.821,0,0,1,3.322-.791h.914v-.5q0-1.316-1.134-1.316a.927.927,0,0,0-1.055,1.042h-2.962a2.655,2.655,0,0,1,1.173-2.239,4.931,4.931,0,0,1,2.993-.86,4.323,4.323,0,0,1,2.874.888,3.086,3.086,0,0,1,1.081,2.435v4.21a4.311,4.311,0,0,0,.4,2V0Zm-1.854-1.934a1.652,1.652,0,0,0,.918-.237,1.487,1.487,0,0,0,.523-.536V-4.228H-28.5q-1.547,0-1.547,1.389a.848.848,0,0,0,.272.655A.986.986,0,0,0-29.079-1.934Zm8.771-7.576.1,1.116a3.225,3.225,0,0,1,2.716-1.292,2.713,2.713,0,0,1,2.219.888,4.226,4.226,0,0,1,.76,2.672V0h-2.971V-6a1.6,1.6,0,0,0-.29-1.059A1.342,1.342,0,0,0-18.831-7.4a1.413,1.413,0,0,0-1.292.686V0h-2.962V-9.51Zm11.452,7.4a1.317,1.317,0,0,0,.967-.338,1.241,1.241,0,0,0,.334-.945h2.777A3.288,3.288,0,0,1-5.9-.826a4.168,4.168,0,0,1-2.887,1,4.22,4.22,0,0,1-3.27-1.3,5.125,5.125,0,0,1-1.2-3.6v-.123A5.792,5.792,0,0,1-12.718-7.4a3.872,3.872,0,0,1,1.534-1.7,4.573,4.573,0,0,1,2.373-.593A4.116,4.116,0,0,1-5.867-8.657a3.647,3.647,0,0,1,1.09,2.786H-7.554A1.626,1.626,0,0,0-7.915-7a1.244,1.244,0,0,0-.967-.4q-1.151,0-1.345,1.468a10.357,10.357,0,0,0-.062,1.283,4.068,4.068,0,0,0,.343,1.986A1.187,1.187,0,0,0-8.855-2.109ZM1.077.176A4.889,4.889,0,0,1-2.465-1.129a4.507,4.507,0,0,1-1.354-3.4v-.246a5.84,5.84,0,0,1,.541-2.575A3.955,3.955,0,0,1-1.7-9.075,4.763,4.763,0,0,1,.76-9.686,4.117,4.117,0,0,1,3.924-8.442a4.887,4.887,0,0,1,1.16,3.467v1.151H-.8A2.135,2.135,0,0,0-.11-2.566a2.066,2.066,0,0,0,1.389.457,2.662,2.662,0,0,0,2.2-.984l1.354,1.6A3.784,3.784,0,0,1,3.261-.277,5.3,5.3,0,0,1,1.077.176ZM.743-7.4Q-.558-7.4-.8-5.678H2.184v-.229a1.467,1.467,0,0,0-.36-1.1A1.434,1.434,0,0,0,.743-7.4Zm9.668,2.575a6.421,6.421,0,0,1,.475-2.549,3.821,3.821,0,0,1,1.362-1.709,3.591,3.591,0,0,1,2.065-.6,2.855,2.855,0,0,1,2.32,1l.105-.826h2.689V-.36a4.009,4.009,0,0,1-.584,2.184,3.75,3.75,0,0,1-1.692,1.424,6.219,6.219,0,0,1-2.566.5,5.365,5.365,0,0,1-2.026-.4,3.657,3.657,0,0,1-1.5-1.028L12.3.58a2.716,2.716,0,0,0,2.18.976A1.764,1.764,0,0,0,16.449-.466v-.3A2.781,2.781,0,0,1,14.3.176a3.437,3.437,0,0,1-2.812-1.332A5.517,5.517,0,0,1,10.411-4.72Zm2.971.185a3.383,3.383,0,0,0,.439,1.85,1.386,1.386,0,0,0,1.23.681,1.573,1.573,0,0,0,1.4-.642v-4a1.534,1.534,0,0,0-1.38-.65,1.4,1.4,0,0,0-1.239.708A3.858,3.858,0,0,0,13.381-4.641ZM24.236,0H21.265V-13.5h2.971Zm1.45-4.843a5.613,5.613,0,0,1,.554-2.536,3.96,3.96,0,0,1,1.591-1.709,4.791,4.791,0,0,1,2.435-.6,4.373,4.373,0,0,1,3.366,1.323,5.076,5.076,0,0,1,1.23,3.6v.105a4.925,4.925,0,0,1-1.235,3.529A4.384,4.384,0,0,1,30.283.176a4.434,4.434,0,0,1-3.261-1.217,4.761,4.761,0,0,1-1.327-3.3Zm2.962.185a3.538,3.538,0,0,0,.413,1.934,1.376,1.376,0,0,0,1.222.615q1.582,0,1.617-2.435v-.3Q31.9-7.4,30.265-7.4q-1.485,0-1.608,2.206ZM45-4.676a5.8,5.8,0,0,1-.967,3.595A3.238,3.238,0,0,1,41.3.176,2.81,2.81,0,0,1,38.966-.976L38.843,0H36.189V-13.5h2.962v4.755a2.711,2.711,0,0,1,2.136-.94,3.239,3.239,0,0,1,2.742,1.274A5.826,5.826,0,0,1,45-4.825Zm-2.971-.189a3.866,3.866,0,0,0-.365-1.952A1.229,1.229,0,0,0,40.54-7.4a1.418,1.418,0,0,0-1.389.763v3.773a1.426,1.426,0,0,0,1.406.755,1.258,1.258,0,0,0,1.327-1.018A7.309,7.309,0,0,0,42.025-4.865ZM51.658,0a3.344,3.344,0,0,1-.281-.853A2.754,2.754,0,0,1,49.091.176a3.374,3.374,0,0,1-2.285-.813,2.588,2.588,0,0,1-.94-2.043,2.66,2.66,0,0,1,1.143-2.338,5.821,5.821,0,0,1,3.322-.791h.914v-.5q0-1.316-1.134-1.316a.927.927,0,0,0-1.055,1.042H46.094a2.655,2.655,0,0,1,1.173-2.239,4.931,4.931,0,0,1,2.993-.86,4.323,4.323,0,0,1,2.874.888,3.086,3.086,0,0,1,1.081,2.435v4.21a4.311,4.311,0,0,0,.4,2V0ZM49.8-1.934a1.652,1.652,0,0,0,.918-.237,1.487,1.487,0,0,0,.523-.536V-4.228h-.861q-1.547,0-1.547,1.389a.848.848,0,0,0,.272.655A.986.986,0,0,0,49.8-1.934ZM58.979,0H56.008V-13.5h2.971Z" transform="translate(643 2851)" fill="#12263f"/>
    <g id="Page-1" transform="translate(580 2924)">
      <g id="_057---Express-Online-Delivery" data-name="057---Express-Online-Delivery" transform="translate(0 0)">
        <path id="Shape" d="M17.262,48.175H13.087a2.087,2.087,0,1,1,0-4.175h4.175a2.087,2.087,0,1,1,0,4.175Z" transform="translate(82.931 45.767)" fill="#12263f"/>
        <path id="Shape-2" data-name="Shape" d="M2.087,93.8H14.676a10.424,10.424,0,0,1-4.029-6.262H7.41a5.329,5.329,0,0,1-5.323-5.323V77.1a2.087,2.087,0,0,1,4.175,0v5.114A1.165,1.165,0,0,0,7.41,83.359h3.235a10.437,10.437,0,0,1,20.456,0H60.534V42.76a5.329,5.329,0,0,1,5.323-5.323h23.9V32.323a1.165,1.165,0,0,0-1.148-1.148H38.574a2.087,2.087,0,1,1,0-4.175H88.609a5.329,5.329,0,0,1,5.323,5.323V37.9a3.722,3.722,0,0,1-3.716,3.716H83.077L89.1,54.5l4.726,1.434a5.358,5.358,0,0,1,4.277,5.218V82.211a5.329,5.329,0,0,1-5.323,5.323H89.548A10.424,10.424,0,0,1,85.519,93.8h10.5a2.087,2.087,0,1,1,0,4.175H2.087a2.087,2.087,0,1,1,0-4.175ZM20.874,79.184a6.262,6.262,0,1,0,6.262,6.262A6.262,6.262,0,0,0,20.874,79.184Zm61.5-29.223H73.058v4.175H84.329Zm7.176,33.4h3.235a1.165,1.165,0,0,0,1.148-1.148V70.835H87.669a2.087,2.087,0,0,1,0-4.175h6.262V61.149a1.252,1.252,0,0,0-1.125-1.175L87.3,58.31H72.6a3.722,3.722,0,0,1-3.715-3.715V49.5A3.722,3.722,0,0,1,72.6,45.786h7.817l-1.651-3.526a1.171,1.171,0,0,0-1.031-.649H65.856a1.165,1.165,0,0,0-1.148,1.148v40.6h4.383a10.437,10.437,0,0,1,20.456,0ZM79.32,79.184a6.262,6.262,0,1,0,6.262,6.262A6.262,6.262,0,0,0,79.32,79.184ZM69.092,87.533H62.621c-.025,0-.048-.015-.073-.015s-.048.015-.073.015H31.1A10.424,10.424,0,0,1,27.073,93.8H73.122A10.424,10.424,0,0,1,69.092,87.533Z" transform="translate(27.136 27.282)" fill="#12263f"/>
        <ellipse id="Oval" cx="2" cy="2.5" rx="2" ry="2.5" transform="translate(46 110.247)" fill="#12263f"/>
        <circle id="Oval-2" data-name="Oval" cx="2.5" cy="2.5" r="2.5" transform="translate(104 110.247)" fill="#12263f"/>
        <path id="Shape-3" data-name="Shape" d="M27.673,44.776a4.041,4.041,0,0,1,2.369-3.187l20.665-9.232a3.989,3.989,0,0,1,4.271.626,4.049,4.049,0,0,1,1.265,4.194l-5.905,21.2A4.035,4.035,0,0,1,43.9,60.445l-3.59-2.922-7.46,8.558a4.052,4.052,0,0,1-2.922,1.386h-.125a4.047,4.047,0,0,1-2.872-1.2l-2.772-2.81a4.11,4.11,0,0,1-.18-5.54l6.943-8-1.774-1.438a4.054,4.054,0,0,1-1.478-3.705ZM27.2,60.606l2.5,2.749,8.788-10.084a2.087,2.087,0,0,1,2.889-.248l5,4.047,5.79-20.792L31.781,45.239l3.446,2.795a2.087,2.087,0,0,1,.263,2.985Z" transform="translate(20.841 32.717)" fill="#12263f"/>
        <path id="Shape-4" data-name="Shape" d="M36.744,11.914a2.087,2.087,0,0,1,.4-.417,33.248,33.248,0,0,1,48.5,0,2.048,2.048,0,0,1,.4.4c.013.019.013.044.025.065a33.189,33.189,0,0,1,0,44.849c-.013.021-.013.046-.025.065a2.024,2.024,0,0,1-.5.509,33.252,33.252,0,0,1-48.387-.083,2.087,2.087,0,0,1-.417-.417c-.013-.019-.013-.044-.025-.065a33.189,33.189,0,0,1,0-44.849c.01-.017.01-.042.023-.061Zm2.192,41.159a36.456,36.456,0,0,1,8.892-3.432A69.432,69.432,0,0,1,46.3,36.49H32.275A29.087,29.087,0,0,0,38.936,53.072ZM90.513,36.49H76.486a69.6,69.6,0,0,1-1.526,13.15,36.456,36.456,0,0,1,8.9,3.442A29.087,29.087,0,0,0,90.513,36.49ZM83.856,15.734a36.455,36.455,0,0,1-8.892,3.442,69.433,69.433,0,0,1,1.526,13.15H90.517a29.088,29.088,0,0,0-6.661-16.592Zm-30.826.25a55.378,55.378,0,0,0,16.732,0C67.6,9.236,64.4,5.18,61.4,5.18S55.192,9.236,53.03,15.984Zm-.136-9.535a29.167,29.167,0,0,0-10.936,6.2,33.838,33.838,0,0,0,6.926,2.5,32.044,32.044,0,0,1,4.01-8.7ZM72.311,32.316a64.775,64.775,0,0,0-1.449-12.29,58.555,58.555,0,0,1-9.466.77,58.555,58.555,0,0,1-9.466-.77,64.775,64.775,0,0,0-1.449,12.29ZM50.481,36.49a64.774,64.774,0,0,0,1.449,12.29,59.39,59.39,0,0,1,18.932,0,64.776,64.776,0,0,0,1.449-12.29ZM73.908,15.147a33.963,33.963,0,0,0,6.926-2.5A29.167,29.167,0,0,0,69.9,6.447a32.029,32.029,0,0,1,4.01,8.7Zm0,38.512a31.966,31.966,0,0,1-4.01,8.7,29.192,29.192,0,0,0,10.938-6.2A33.905,33.905,0,0,0,73.908,53.659Zm-4.145-.835a55.315,55.315,0,0,0-16.732,0c2.163,6.746,5.36,10.8,8.366,10.8s6.2-4.056,8.366-10.806Zm-20.874.835a34.024,34.024,0,0,0-6.928,2.5,29.192,29.192,0,0,0,10.938,6.2,31.966,31.966,0,0,1-4.014-8.7ZM46.307,32.316a69.433,69.433,0,0,1,1.522-13.14,36.456,36.456,0,0,1-8.892-3.442,29.087,29.087,0,0,0-6.657,16.582Z" transform="translate(-27.998 -0.995)" fill="#12263f"/>
        <path id="Shape-5" data-name="Shape" d="M42.087,40.175a2.087,2.087,0,0,1,0-4.175H73.4a2.087,2.087,0,0,1,0,4.175Z" transform="translate(-33.738 37.068)" fill="#12263f"/>
        <path id="Shape-6" data-name="Shape" d="M44.087,46H71.223a2.087,2.087,0,0,1,0,4.175H44.087a2.087,2.087,0,1,1,0-4.175Z" transform="translate(-35.738 47.942)" fill="#12263f"/>
        <path id="Shape-7" data-name="Shape" d="M48.087,41H73.136a2.087,2.087,0,0,1,0,4.175H48.087a2.087,2.087,0,1,1,0-4.175Z" transform="translate(-46 42.505)" fill="#12263f"/>
      </g>
    </g>
  </g>
</svg>
