<svg xmlns="http://www.w3.org/2000/svg" width="295" height="343" viewBox="0 0 295 343">
  <g id="Grupo_1020854" data-name="Grupo 1020854" transform="translate(-810 -2793)">
    <path id="Trazado_755408" data-name="Trazado 755408" d="M20,0H275a20,20,0,0,1,20,20V323a20,20,0,0,1-20,20H20A20,20,0,0,1,0,323V20A20,20,0,0,1,20,0Z" transform="translate(810 2793)" fill="#b6e1fd"/>
    <path id="Trazado_755409" data-name="Trazado 755409" d="M-36.36-5.432h-4.852v3.059h5.73V0H-44.3V-12.8h8.833v2.382h-5.748v2.7h4.852Zm6.979,2.76a.684.684,0,0,0-.4-.606,6.016,6.016,0,0,0-1.5-.475A6.853,6.853,0,0,1-33.108-4.4a3.062,3.062,0,0,1-1.1-.971,2.319,2.319,0,0,1-.378-1.31A2.628,2.628,0,0,1-33.5-8.837a4.453,4.453,0,0,1,2.83-.848,4.934,4.934,0,0,1,3.023.853,2.666,2.666,0,0,1,1.143,2.241h-2.971q0-1.143-1.2-1.143a1.194,1.194,0,0,0-.782.259.8.8,0,0,0-.316.646.737.737,0,0,0,.387.642,3.654,3.654,0,0,0,1.235.4,10.671,10.671,0,0,1,1.49.378A2.706,2.706,0,0,1-26.525-2.76,2.491,2.491,0,0,1-27.681-.642a5.068,5.068,0,0,1-2.993.817,5.172,5.172,0,0,1-2.18-.439,3.645,3.645,0,0,1-1.494-1.2,2.707,2.707,0,0,1-.536-1.591h2.769a1.145,1.145,0,0,0,.439.962,1.808,1.808,0,0,0,1.081.3,1.422,1.422,0,0,0,.91-.246A.787.787,0,0,0-29.382-2.672Zm7.69-9.2V-9.51h1.564v2.057h-1.564V-3.1a1.111,1.111,0,0,0,.193.747,1.037,1.037,0,0,0,.765.211A4.345,4.345,0,0,0-20-2.2V-.079a5.466,5.466,0,0,1-1.67.255,3.1,3.1,0,0,1-2.259-.721,2.954,2.954,0,0,1-.729-2.188v-4.72h-1.213V-9.51h1.213v-2.364ZM-13.605,0a3.344,3.344,0,0,1-.281-.853A2.754,2.754,0,0,1-16.172.176a3.374,3.374,0,0,1-2.285-.813,2.588,2.588,0,0,1-.94-2.043,2.66,2.66,0,0,1,1.143-2.338,5.821,5.821,0,0,1,3.322-.791h.914v-.5q0-1.316-1.134-1.316a.927.927,0,0,0-1.055,1.042h-2.962A2.655,2.655,0,0,1-18-8.825,4.931,4.931,0,0,1-15-9.686a4.323,4.323,0,0,1,2.874.888,3.086,3.086,0,0,1,1.081,2.435v4.21a4.311,4.311,0,0,0,.4,2V0ZM-15.46-1.934a1.652,1.652,0,0,0,.918-.237,1.487,1.487,0,0,0,.523-.536V-4.228h-.861q-1.547,0-1.547,1.389a.848.848,0,0,0,.272.655A.986.986,0,0,0-15.46-1.934Zm.738-11.566h3.129l-2.443,2.76-2.417,0Zm8.033,3.99.1,1.116A3.225,3.225,0,0,1-3.876-9.686,2.713,2.713,0,0,1-1.657-8.8,4.226,4.226,0,0,1-.9-6.126V0H-3.867V-6a1.6,1.6,0,0,0-.29-1.059A1.342,1.342,0,0,0-5.212-7.4,1.413,1.413,0,0,0-6.5-6.715V0H-9.466V-9.51ZM.369-4.825a5.809,5.809,0,0,1,.976-3.56,3.211,3.211,0,0,1,2.725-1.3,2.731,2.731,0,0,1,2.145,1V-13.5H9.185V0H6.521L6.372-1.02a2.8,2.8,0,0,1-2.32,1.2,3.205,3.205,0,0,1-2.689-1.3A5.993,5.993,0,0,1,.369-4.825Zm2.962.185q0,2.531,1.477,2.531a1.458,1.458,0,0,0,1.406-.826V-6.557A1.419,1.419,0,0,0,4.825-7.4Q3.454-7.4,3.34-5.186ZM16.225,0a3.344,3.344,0,0,1-.281-.853A2.754,2.754,0,0,1,13.658.176a3.374,3.374,0,0,1-2.285-.813,2.588,2.588,0,0,1-.94-2.043,2.66,2.66,0,0,1,1.143-2.338A5.821,5.821,0,0,1,14.9-5.81h.914v-.5q0-1.316-1.134-1.316a.927.927,0,0,0-1.055,1.042H10.661a2.655,2.655,0,0,1,1.173-2.239,4.931,4.931,0,0,1,2.993-.86A4.323,4.323,0,0,1,17.7-8.8a3.086,3.086,0,0,1,1.081,2.435v4.21a4.311,4.311,0,0,0,.4,2V0ZM14.37-1.934a1.652,1.652,0,0,0,.918-.237,1.487,1.487,0,0,0,.523-.536V-4.228H14.95q-1.547,0-1.547,1.389a.848.848,0,0,0,.272.655A.986.986,0,0,0,14.37-1.934Zm11.8-4.9L25.2-6.9a1.752,1.752,0,0,0-1.793.879V0H20.443V-9.51h2.777l.1,1.222a2.294,2.294,0,0,1,2.083-1.4,2.888,2.888,0,0,1,.826.105Zm5.5,7a4.889,4.889,0,0,1-3.542-1.305,4.507,4.507,0,0,1-1.354-3.4v-.246a5.84,5.84,0,0,1,.541-2.575A3.955,3.955,0,0,1,28.9-9.075a4.763,4.763,0,0,1,2.461-.611,4.117,4.117,0,0,1,3.164,1.244,4.887,4.887,0,0,1,1.16,3.467v1.151H29.795a2.135,2.135,0,0,0,.694,1.257,2.066,2.066,0,0,0,1.389.457,2.662,2.662,0,0,0,2.2-.984l1.354,1.6A3.784,3.784,0,0,1,33.86-.277,5.3,5.3,0,0,1,31.676.176ZM31.342-7.4q-1.3,0-1.547,1.723h2.988v-.229a1.467,1.467,0,0,0-.36-1.1A1.434,1.434,0,0,0,31.342-7.4ZM41.854-2.672a.684.684,0,0,0-.4-.606,6.016,6.016,0,0,0-1.5-.475A6.853,6.853,0,0,1,38.127-4.4a3.062,3.062,0,0,1-1.1-.971,2.319,2.319,0,0,1-.378-1.31,2.628,2.628,0,0,1,1.081-2.158,4.453,4.453,0,0,1,2.83-.848,4.934,4.934,0,0,1,3.023.853,2.666,2.666,0,0,1,1.143,2.241H41.757q0-1.143-1.2-1.143a1.194,1.194,0,0,0-.782.259.8.8,0,0,0-.316.646.737.737,0,0,0,.387.642,3.654,3.654,0,0,0,1.235.4,10.671,10.671,0,0,1,1.49.378A2.706,2.706,0,0,1,44.71-2.76,2.491,2.491,0,0,1,43.554-.642a5.068,5.068,0,0,1-2.993.817,5.172,5.172,0,0,1-2.18-.439,3.645,3.645,0,0,1-1.494-1.2,2.707,2.707,0,0,1-.536-1.591H39.12a1.145,1.145,0,0,0,.439.962,1.808,1.808,0,0,0,1.081.3,1.422,1.422,0,0,0,.91-.246A.787.787,0,0,0,41.854-2.672Z" transform="translate(958 2851)" fill="#12263f"/>
    <path id="accreditation" d="M23.868,77.125a2.042,2.042,0,0,1,2.042-2.042h70.2a2.042,2.042,0,0,1,0,4.084H25.91a2.042,2.042,0,0,1-2.042-2.042Zm112.625,29.391A28.214,28.214,0,0,1,108.311,134.7c-.6,0-1.193-.021-1.783-.058a4.337,4.337,0,0,1-.686.058H16.185a4.524,4.524,0,0,1-4.518-4.518V12.515A4.524,4.524,0,0,1,16.185,8H91.961A4.421,4.421,0,0,1,95.15,9.319L109.03,23.2a4.422,4.422,0,0,1,1.322,3.189v52.02a28.218,28.218,0,0,1,26.14,28.107ZM95.024,14.968v8.357h8.357ZM93.712,130.614a28.405,28.405,0,0,1-8.75-8.334H25.91a2.042,2.042,0,1,1,0-4.084H82.666a27.943,27.943,0,0,1-2.094-6.69H25.91a2.042,2.042,0,1,1,0-4.084H80.146c-.01-.3-.016-.6-.016-.905a28.19,28.19,0,0,1,.6-5.793H25.91a2.042,2.042,0,1,1,0-4.084H81.917a28.145,28.145,0,0,1,3.611-6.69H25.91a2.042,2.042,0,1,1,0-4.084H89.157a28.082,28.082,0,0,1,17.112-7.456v-51H94.22a3.284,3.284,0,0,1-3.28-3.28V12.081H16.185a.44.44,0,0,0-.434.435V130.179a.44.44,0,0,0,.434.434H93.712Zm38.7-24.1a24.1,24.1,0,1,0-24.1,24.1A24.125,24.125,0,0,0,132.409,106.516Zm-7.872-3.643q-2.981,3.007-5.943,6.015c-3.112,3.155-6.33,6.418-9.519,9.607a5.925,5.925,0,0,1-8.369,0l-8.594-8.587a5.918,5.918,0,1,1,8.369-8.37l4.391,4.386,11.265-11.38a5.916,5.916,0,0,1,8.4,8.329Zm-2.913-5.457a1.817,1.817,0,0,0-1.292-.534h-.005a1.821,1.821,0,0,0-1.293.538l-12.7,12.834a2.042,2.042,0,0,1-1.446.606h-.006a2.042,2.042,0,0,1-1.443-.6l-5.843-5.836A1.834,1.834,0,1,0,95,107.02l8.594,8.587a1.837,1.837,0,0,0,2.594,0c3.179-3.179,6.392-6.437,9.5-9.587q2.971-3.012,5.946-6.018a1.835,1.835,0,0,0-.009-2.585ZM27.389,37.5a6.479,6.479,0,0,1,1.361-7.711c.361-.338.685-.638.975-.908A11.367,11.367,0,0,0,31.641,26.9a11.7,11.7,0,0,0,.762-2.662c.087-.381.184-.805.3-1.281a6.481,6.481,0,0,1,5.991-5.034c.5-.027.933-.049,1.326-.068a11.658,11.658,0,0,0,2.748-.287,11.379,11.379,0,0,0,2.286-1.544c.313-.237.662-.5,1.055-.8a6.482,6.482,0,0,1,7.836,0c.393.294.742.559,1.055.8a11.39,11.39,0,0,0,2.286,1.544,11.644,11.644,0,0,0,2.748.287c.393.019.83.041,1.321.068a6.483,6.483,0,0,1,6,5.04c.11.47.207.895.294,1.276A11.7,11.7,0,0,0,68.4,26.9a11.376,11.376,0,0,0,1.915,1.981c.291.269.614.569.976.909A6.49,6.49,0,0,1,72.654,37.5c-.221.437-.42.826-.6,1.175A11.694,11.694,0,0,0,70.927,41.2a11.344,11.344,0,0,0,.191,2.744c.049.394.1.833.163,1.328A6.484,6.484,0,0,1,67.5,51.985l4.458,10.358a2.042,2.042,0,0,1-2.287,2.807l-5.9-1.212L60.59,69.064a2.042,2.042,0,0,1-1.734.965c-.051,0-.1,0-.152-.006A2.042,2.042,0,0,1,56.98,68.8l-4.007-9.3-.269-.083a11.442,11.442,0,0,0-2.682-.668,5.837,5.837,0,0,0-1.5.31l-5.625,12.09a2.042,2.042,0,0,1-1.759,1.178l-.092,0a2.042,2.042,0,0,1-1.766-1.017l-3.028-5.219L30.31,67.131a2.042,2.042,0,0,1-2.2-2.873l5.5-11.811c-.286-.12-.595-.251-.931-.394a6.487,6.487,0,0,1-3.911-6.782c.058-.485.112-.916.16-1.3a11.73,11.73,0,0,0,.193-2.761A11.357,11.357,0,0,0,28,38.69c-.181-.354-.383-.748-.608-1.194ZM43.551,60.052a6.48,6.48,0,0,1-4.832-2.931c-.267-.408-.5-.773-.714-1.1-.379-.586-.67-1.037-.912-1.386l-3.631,7.8,3.486-.612a2.043,2.043,0,0,1,2.119.986l1.778,3.064Zm23.113.311-2.875-6.68c-.043.031-.085.062-.122.094a11.692,11.692,0,0,0-1.626,2.24c-.212.329-.448.695-.715,1.1a6.5,6.5,0,0,1-3.749,2.737l1.607,3.73,1.869-3.012a2.041,2.041,0,0,1,2.146-.923ZM31.034,35.654c.222.44.42.827.6,1.175,1.743,3.4,1.818,3.833,1.343,7.643-.048.381-.1.8-.157,1.281A2.4,2.4,0,0,0,34.28,48.3c.443.189.839.356,1.195.506,3.54,1.489,3.875,1.77,5.96,5,.208.322.44.681.7,1.082a2.4,2.4,0,0,0,2.762,1c.462-.139.871-.265,1.239-.379,3.667-1.13,4.1-1.129,7.769,0,.368.113.778.24,1.238.378a2.4,2.4,0,0,0,2.762-1c.262-.4.494-.761.7-1.084,2.085-3.23,2.419-3.51,5.954-5,.355-.15.75-.316,1.193-.506a2.4,2.4,0,0,0,1.47-2.545c-.058-.486-.112-.917-.16-1.3-.475-3.8-.4-4.225,1.355-7.641.176-.343.372-.724.59-1.154a2.4,2.4,0,0,0-.511-2.891c-.353-.331-.671-.625-.956-.89-2.81-2.6-3.028-2.982-3.883-6.73-.086-.375-.181-.791-.29-1.258A2.4,2.4,0,0,0,61.122,22c-.478-.026-.907-.048-1.293-.066-3.835-.189-4.244-.337-7.3-2.655-.308-.233-.65-.493-1.036-.782h0a2.4,2.4,0,0,0-2.937,0c-.388.29-.73.55-1.037.783-3.056,2.317-3.466,2.466-7.3,2.655-.386.019-.815.04-1.3.067a2.4,2.4,0,0,0-2.243,1.883c-.11.472-.205.888-.291,1.263-.855,3.748-1.073,4.125-3.883,6.73-.285.264-.6.559-.958.892a2.4,2.4,0,0,0-.51,2.889ZM35.41,37A14.612,14.612,0,1,1,50.022,51.609,14.629,14.629,0,0,1,35.41,37Zm4.084,0A10.528,10.528,0,1,0,50.022,26.469,10.54,10.54,0,0,0,39.494,37Zm7.994,5.952a2.036,2.036,0,0,0,1.372-.53l8.617-7.82a2.042,2.042,0,0,0-2.744-3.024l-7.176,6.513-2.173-2.173A2.042,2.042,0,1,0,42.5,38.8l3.548,3.548a2.039,2.039,0,0,0,1.444.6Z" transform="translate(883.333 2914.806)" fill="#12263f"/>
  </g>
</svg>
