<svg xmlns="http://www.w3.org/2000/svg" width="295" height="343" viewBox="0 0 295 343">
  <g id="Grupo_1020783" data-name="Grupo 1020783" transform="translate(-495 -3155)">
    <path id="Trazado_755346" data-name="Trazado 755346" d="M20,0H275a20,20,0,0,1,20,20V323a20,20,0,0,1-20,20H20A20,20,0,0,1,0,323V20A20,20,0,0,1,20,0Z" transform="translate(495 3155)" fill="#ffb338"/>
    <path id="Trazado_755347" data-name="Trazado 755347" d="M-109.833,0V-12.8h4.122a6.064,6.064,0,0,1,3.05.769,5.406,5.406,0,0,1,2.114,2.171,6.554,6.554,0,0,1,.769,3.142v.589a6.592,6.592,0,0,1-.743,3.151A5.429,5.429,0,0,1-102.612-.8a5.93,5.93,0,0,1-3.01.8Zm3.085-10.415v8.042h1.072a2.4,2.4,0,0,0,2.039-.945,4.63,4.63,0,0,0,.712-2.808V-6.68a4.592,4.592,0,0,0-.712-2.795,2.442,2.442,0,0,0-2.074-.94ZM-93.731.176a4.889,4.889,0,0,1-3.542-1.305,4.507,4.507,0,0,1-1.354-3.4v-.246a5.84,5.84,0,0,1,.541-2.575,3.955,3.955,0,0,1,1.578-1.727,4.763,4.763,0,0,1,2.461-.611,4.117,4.117,0,0,1,3.164,1.244,4.887,4.887,0,0,1,1.16,3.467v1.151h-5.889a2.135,2.135,0,0,0,.694,1.257,2.066,2.066,0,0,0,1.389.457,2.662,2.662,0,0,0,2.2-.984l1.354,1.6A3.784,3.784,0,0,1-91.547-.277,5.3,5.3,0,0,1-93.731.176ZM-94.065-7.4q-1.3,0-1.547,1.723h2.988v-.229a1.467,1.467,0,0,0-.36-1.1A1.434,1.434,0,0,0-94.065-7.4Zm8.253-2.109.1,1.116A3.225,3.225,0,0,1-83-9.686,2.713,2.713,0,0,1-80.78-8.8a4.226,4.226,0,0,1,.76,2.672V0h-2.971V-6a1.6,1.6,0,0,0-.29-1.059A1.342,1.342,0,0,0-84.335-7.4a1.413,1.413,0,0,0-1.292.686V0h-2.962V-9.51ZM-73.4-2.672a.684.684,0,0,0-.4-.606,6.016,6.016,0,0,0-1.5-.475A6.853,6.853,0,0,1-77.128-4.4a3.062,3.062,0,0,1-1.1-.971A2.319,2.319,0,0,1-78.6-6.68a2.628,2.628,0,0,1,1.081-2.158,4.453,4.453,0,0,1,2.83-.848,4.934,4.934,0,0,1,3.023.853,2.666,2.666,0,0,1,1.143,2.241H-73.5q0-1.143-1.2-1.143a1.194,1.194,0,0,0-.782.259.8.8,0,0,0-.316.646.737.737,0,0,0,.387.642,3.654,3.654,0,0,0,1.235.4,10.671,10.671,0,0,1,1.49.378A2.706,2.706,0,0,1-70.545-2.76,2.491,2.491,0,0,1-71.7-.642a5.068,5.068,0,0,1-2.993.817,5.172,5.172,0,0,1-2.18-.439,3.645,3.645,0,0,1-1.494-1.2A2.707,2.707,0,0,1-78.9-3.05h2.769a1.145,1.145,0,0,0,.439.962,1.808,1.808,0,0,0,1.081.3,1.422,1.422,0,0,0,.91-.246A.787.787,0,0,0-73.4-2.672ZM-66.037,0h-2.971V-9.51h2.971Zm-3.146-11.971a1.334,1.334,0,0,1,.457-1.043,1.718,1.718,0,0,1,1.187-.407,1.718,1.718,0,0,1,1.187.407,1.334,1.334,0,0,1,.457,1.043,1.334,1.334,0,0,1-.457,1.043,1.718,1.718,0,0,1-1.187.407,1.718,1.718,0,0,1-1.187-.407A1.334,1.334,0,0,1-69.183-11.971Zm4.6,7.146a5.809,5.809,0,0,1,.976-3.56,3.211,3.211,0,0,1,2.725-1.3,2.731,2.731,0,0,1,2.145,1V-13.5h2.971V0h-2.663l-.149-1.02A2.8,2.8,0,0,1-60.9.176a3.205,3.205,0,0,1-2.689-1.3A5.993,5.993,0,0,1-64.586-4.825Zm2.962.185q0,2.531,1.477,2.531a1.458,1.458,0,0,0,1.406-.826V-6.557A1.419,1.419,0,0,0-60.13-7.4q-1.371,0-1.485,2.215ZM-48.731,0a3.344,3.344,0,0,1-.281-.853A2.754,2.754,0,0,1-51.3.176a3.374,3.374,0,0,1-2.285-.813,2.588,2.588,0,0,1-.94-2.043A2.66,2.66,0,0,1-53.38-5.019a5.821,5.821,0,0,1,3.322-.791h.914v-.5q0-1.316-1.134-1.316a.927.927,0,0,0-1.055,1.042h-2.962a2.655,2.655,0,0,1,1.173-2.239,4.931,4.931,0,0,1,2.993-.86,4.323,4.323,0,0,1,2.874.888,3.086,3.086,0,0,1,1.081,2.435v4.21a4.311,4.311,0,0,0,.4,2V0Zm-1.854-1.934a1.652,1.652,0,0,0,.918-.237,1.487,1.487,0,0,0,.523-.536V-4.228h-.861q-1.547,0-1.547,1.389a.848.848,0,0,0,.272.655A.986.986,0,0,0-50.585-1.934Zm5.678-2.892a5.809,5.809,0,0,1,.976-3.56,3.211,3.211,0,0,1,2.725-1.3,2.731,2.731,0,0,1,2.145,1V-13.5h2.971V0h-2.663L-38.9-1.02a2.8,2.8,0,0,1-2.32,1.2,3.205,3.205,0,0,1-2.689-1.3A5.993,5.993,0,0,1-44.908-4.825Zm2.962.185q0,2.531,1.477,2.531a1.458,1.458,0,0,0,1.406-.826V-6.557A1.419,1.419,0,0,0-40.452-7.4q-1.371,0-1.485,2.215ZM-30.3-4.825a5.809,5.809,0,0,1,.976-3.56,3.211,3.211,0,0,1,2.725-1.3,2.731,2.731,0,0,1,2.145,1V-13.5h2.971V0h-2.663L-24.3-1.02a2.8,2.8,0,0,1-2.32,1.2,3.205,3.205,0,0,1-2.689-1.3A5.993,5.993,0,0,1-30.3-4.825Zm2.962.185q0,2.531,1.477,2.531a1.458,1.458,0,0,0,1.406-.826V-6.557A1.419,1.419,0,0,0-25.844-7.4q-1.371,0-1.485,2.215ZM-15.2.176a4.889,4.889,0,0,1-3.542-1.305,4.507,4.507,0,0,1-1.354-3.4v-.246a5.84,5.84,0,0,1,.541-2.575,3.955,3.955,0,0,1,1.578-1.727,4.763,4.763,0,0,1,2.461-.611,4.117,4.117,0,0,1,3.164,1.244,4.887,4.887,0,0,1,1.16,3.467v1.151h-5.889a2.135,2.135,0,0,0,.694,1.257A2.066,2.066,0,0,0-15-2.109a2.662,2.662,0,0,0,2.2-.984l1.354,1.6A3.784,3.784,0,0,1-13.017-.277,5.3,5.3,0,0,1-15.2.176ZM-15.535-7.4q-1.3,0-1.547,1.723h2.988v-.229a1.467,1.467,0,0,0-.36-1.1A1.434,1.434,0,0,0-15.535-7.4ZM-2.4,0H-5.366V-13.5H-2.4ZM4.786,0A3.344,3.344,0,0,1,4.5-.853,2.754,2.754,0,0,1,2.219.176,3.374,3.374,0,0,1-.066-.637a2.588,2.588,0,0,1-.94-2.043A2.66,2.66,0,0,1,.136-5.019,5.821,5.821,0,0,1,3.458-5.81h.914v-.5q0-1.316-1.134-1.316A.927.927,0,0,0,2.184-6.587H-.778A2.655,2.655,0,0,1,.4-8.825a4.931,4.931,0,0,1,2.993-.86A4.323,4.323,0,0,1,6.262-8.8,3.086,3.086,0,0,1,7.343-6.363v4.21a4.311,4.311,0,0,0,.4,2V0ZM2.931-1.934a1.652,1.652,0,0,0,.918-.237,1.487,1.487,0,0,0,.523-.536V-4.228H3.511q-1.547,0-1.547,1.389a.848.848,0,0,0,.272.655A.986.986,0,0,0,2.931-1.934ZM16.589,0H13.619V-9.51h2.971ZM13.443-11.971a1.334,1.334,0,0,1,.457-1.043,1.718,1.718,0,0,1,1.187-.407,1.718,1.718,0,0,1,1.187.407,1.334,1.334,0,0,1,.457,1.043,1.334,1.334,0,0,1-.457,1.043,1.718,1.718,0,0,1-1.187.407,1.718,1.718,0,0,1-1.187-.407A1.334,1.334,0,0,1,13.443-11.971Zm7.69,2.461.1,1.116a3.225,3.225,0,0,1,2.716-1.292,2.713,2.713,0,0,1,2.219.888,4.226,4.226,0,0,1,.76,2.672V0H23.955V-6a1.6,1.6,0,0,0-.29-1.059A1.342,1.342,0,0,0,22.61-7.4a1.413,1.413,0,0,0-1.292.686V0H18.356V-9.51ZM29.219,0V-7.453h-1.38V-9.51h1.38v-.756a3.286,3.286,0,0,1,.958-2.522,3.785,3.785,0,0,1,2.689-.9,5.89,5.89,0,0,1,1.389.185l.009,2.18a2.706,2.706,0,0,0-.729-.079q-1.345,0-1.345,1.16v.729h1.854v2.057H32.19V0Zm5.493-4.843a5.613,5.613,0,0,1,.554-2.536,3.96,3.96,0,0,1,1.591-1.709,4.791,4.791,0,0,1,2.435-.6,4.373,4.373,0,0,1,3.366,1.323,5.076,5.076,0,0,1,1.23,3.6v.105a4.925,4.925,0,0,1-1.235,3.529A4.384,4.384,0,0,1,39.309.176a4.434,4.434,0,0,1-3.261-1.217,4.761,4.761,0,0,1-1.327-3.3Zm2.962.185a3.538,3.538,0,0,0,.413,1.934,1.376,1.376,0,0,0,1.222.615q1.582,0,1.617-2.435v-.3q0-2.558-1.635-2.558-1.485,0-1.608,2.206ZM50.946-6.829,49.97-6.9a1.752,1.752,0,0,0-1.793.879V0H45.215V-9.51h2.777l.1,1.222a2.294,2.294,0,0,1,2.083-1.4A2.888,2.888,0,0,1,51-9.58ZM54.813-9.51l.1,1.116a3.27,3.27,0,0,1,2.716-1.292A2.407,2.407,0,0,1,60.06-8.253a3.165,3.165,0,0,1,2.795-1.433q2.892,0,2.971,3.5V0H62.855V-6a1.813,1.813,0,0,0-.246-1.063,1.048,1.048,0,0,0-.9-.334,1.4,1.4,0,0,0-1.31.782l.009.123V0H57.441V-5.985A1.906,1.906,0,0,0,57.2-7.066,1.045,1.045,0,0,0,56.3-7.4a1.42,1.42,0,0,0-1.3.782V0H52.036V-9.51ZM72.875,0a3.344,3.344,0,0,1-.281-.853A2.754,2.754,0,0,1,70.308.176a3.374,3.374,0,0,1-2.285-.813,2.588,2.588,0,0,1-.94-2.043,2.66,2.66,0,0,1,1.143-2.338,5.821,5.821,0,0,1,3.322-.791h.914v-.5q0-1.316-1.134-1.316a.927.927,0,0,0-1.055,1.042H67.311a2.655,2.655,0,0,1,1.173-2.239,4.931,4.931,0,0,1,2.993-.86,4.323,4.323,0,0,1,2.874.888,3.086,3.086,0,0,1,1.081,2.435v4.21a4.311,4.311,0,0,0,.4,2V0ZM71.02-1.934a1.652,1.652,0,0,0,.918-.237,1.487,1.487,0,0,0,.523-.536V-4.228H71.6q-1.547,0-1.547,1.389a.848.848,0,0,0,.272.655A.986.986,0,0,0,71.02-1.934Zm10.072-.176a1.317,1.317,0,0,0,.967-.338,1.241,1.241,0,0,0,.334-.945H85.17A3.288,3.288,0,0,1,84.05-.826a4.168,4.168,0,0,1-2.887,1,4.22,4.22,0,0,1-3.27-1.3,5.125,5.125,0,0,1-1.2-3.6v-.123A5.792,5.792,0,0,1,77.229-7.4a3.872,3.872,0,0,1,1.534-1.7,4.573,4.573,0,0,1,2.373-.593,4.116,4.116,0,0,1,2.944,1.028,3.647,3.647,0,0,1,1.09,2.786H82.393A1.626,1.626,0,0,0,82.033-7a1.244,1.244,0,0,0-.967-.4q-1.151,0-1.345,1.468a10.357,10.357,0,0,0-.062,1.283A4.068,4.068,0,0,0,80-2.663,1.187,1.187,0,0,0,81.092-2.109ZM89.547,0H86.577V-9.51h2.971ZM86.4-11.971a1.334,1.334,0,0,1,.457-1.043,1.718,1.718,0,0,1,1.187-.407,1.718,1.718,0,0,1,1.187.407,1.334,1.334,0,0,1,.457,1.043,1.334,1.334,0,0,1-.457,1.043,1.718,1.718,0,0,1-1.187.407,1.718,1.718,0,0,1-1.187-.407A1.334,1.334,0,0,1,86.4-11.971ZM91-4.843a5.613,5.613,0,0,1,.554-2.536,3.96,3.96,0,0,1,1.591-1.709,4.791,4.791,0,0,1,2.435-.6,4.373,4.373,0,0,1,3.366,1.323,5.076,5.076,0,0,1,1.23,3.6v.105a4.925,4.925,0,0,1-1.235,3.529A4.384,4.384,0,0,1,95.594.176a4.434,4.434,0,0,1-3.261-1.217,4.761,4.761,0,0,1-1.327-3.3Zm2.962.185a3.538,3.538,0,0,0,.413,1.934,1.376,1.376,0,0,0,1.222.615q1.582,0,1.617-2.435v-.3q0-2.558-1.635-2.558-1.485,0-1.608,2.206ZM95.981-13.5H99.11l-2.443,2.76-2.417,0ZM104.2-9.51l.1,1.116a3.225,3.225,0,0,1,2.716-1.292,2.713,2.713,0,0,1,2.219.888,4.226,4.226,0,0,1,.76,2.672V0H107.02V-6a1.6,1.6,0,0,0-.29-1.059,1.342,1.342,0,0,0-1.055-.338,1.413,1.413,0,0,0-1.292.686V0h-2.962V-9.51Z" transform="translate(643 3213)" fill="#12263f"/>
    <g id="info" transform="translate(580 3275.018)">
      <g id="Grupo_881610" data-name="Grupo 881610">
        <g id="Grupo_881609" data-name="Grupo 881609">
          <path id="Trazado_749381" data-name="Trazado 749381" d="M220.375,249.564a6.078,6.078,0,0,1-3.665-.824,3.807,3.807,0,0,1-1.051-3.125,16.233,16.233,0,0,1,.341-2.841,31.279,31.279,0,0,1,.739-3.182l3.352-11.534a17.465,17.465,0,0,0,.682-3.494c0-1.278.17-2.159.17-2.67a7.471,7.471,0,0,0-2.642-5.937,11.108,11.108,0,0,0-7.5-2.273,19.463,19.463,0,0,0-5.682.938q-3.011.938-6.335,2.244l-.966,3.75c.653-.227,1.449-.483,2.358-.767a9.66,9.66,0,0,1,2.67-.4,5.455,5.455,0,0,1,3.608.881,4.12,4.12,0,0,1,.938,3.1,13.475,13.475,0,0,1-.312,2.841q-.3,1.492-.767,3.153l-3.381,11.591a33.115,33.115,0,0,0-.653,3.267,20.3,20.3,0,0,0-.2,2.841A7.414,7.414,0,0,0,204.92,253a11.365,11.365,0,0,0,7.614,2.33,17.524,17.524,0,0,0,5.682-.824q2.415-.824,6.449-2.358l.909-3.58a15.691,15.691,0,0,1-2.244.738A10.788,10.788,0,0,1,220.375,249.564Z" transform="translate(-149.523 -161.496)" fill="#12263f"/>
          <path id="Trazado_749382" data-name="Trazado 749382" d="M262.28,130.123a8.641,8.641,0,0,0-11.364,0,6.79,6.79,0,0,0,0,10.284,8.522,8.522,0,0,0,11.364,0,6.82,6.82,0,0,0,0-10.284Z" transform="translate(-187.877 -96.742)" fill="#12263f"/>
          <path id="Trazado_749383" data-name="Trazado 749383" d="M62.5,0A62.5,62.5,0,1,0,125,62.5,62.5,62.5,0,0,0,62.5,0Zm0,119.318A56.818,56.818,0,1,1,119.318,62.5,56.818,56.818,0,0,1,62.5,119.318Z" fill="#12263f"/>
        </g>
      </g>
    </g>
  </g>
</svg>
