<svg xmlns="http://www.w3.org/2000/svg" xmlns:xlink="http://www.w3.org/1999/xlink" width="400" height="138.996" viewBox="0 0 400 138.996">
  <defs>
    <clipPath id="clip-path">
      <circle id="Elipse_8549" data-name="Elipse 8549" cx="69.498" cy="69.498" r="69.498"/>
    </clipPath>
    <clipPath id="clip-path-2">
      <circle id="Elipse_8550" data-name="Elipse 8550" cx="68.08" cy="68.08" r="68.08"/>
    </clipPath>
    <clipPath id="clip-path-3">
      <circle id="Elipse_8551" data-name="Elipse 8551" cx="62.627" cy="62.627" r="62.627"/>
    </clipPath>
    <clipPath id="clip-path-4">
      <path id="Trazado_749982" data-name="Trazado 749982" d="M-478.371-32.21l17.709-12.944c1.55-1.263,2.727-.976,2.727,1.349V-4.341c0,2.612-1.464,2.325-2.727,1.349l-17.709-12.944ZM-538.3-43.69V-14.3a12.053,12.053,0,0,0,12.112,12h42.909a2.224,2.224,0,0,0,2.21-2.181V-33.9a12.053,12.053,0,0,0-12.112-12H-536.09A2.249,2.249,0,0,0-538.3-43.69Z" transform="translate(538.3 45.9)"/>
    </clipPath>
  </defs>
  <g id="zoom-seeklogo.com-1" transform="translate(637.567 211.934)">
    <path id="Trazado_749972" data-name="Trazado 749972" d="M120.038-64.8h-.029A27.211,27.211,0,0,0,92.8-37.591a27.218,27.218,0,0,0,27.209,27.238,27.218,27.218,0,0,0,27.238-27.209A27.218,27.218,0,0,0,120.038-64.8Zm11.509,38.776a16.353,16.353,0,0,1-23.1-.029,16.37,16.37,0,0,1,0-23.076,16.327,16.327,0,0,1,23.1-.029l.029.029A16.3,16.3,0,0,1,131.547-26.024Z" transform="translate(-521.031 -104.875)" fill="#4a8cff"/>
    <path id="Trazado_749973" data-name="Trazado 749973" d="M-41.2-21.159l-2.727-.144H-68.442l32.691-32.691-.144-2.727a8.253,8.253,0,0,0-8.036-8.036l-2.727-.144H-87.5l.144,2.727a8.441,8.441,0,0,0,8.036,8.036l2.727.144h24.511L-84.773-21.3l.144,2.727a8.335,8.335,0,0,0,8.036,8.036l2.727.144h40.842l-.144-2.727A8.4,8.4,0,0,0-41.2-21.159Z" transform="translate(-392.48 -104.803)" fill="#4a8cff"/>
    <path id="Trazado_749974" data-name="Trazado 749974" d="M158.587-22.236a16.353,16.353,0,0,0-23.1.029,16.37,16.37,0,0,0,0,23.076,16.327,16.327,0,0,0,23.1.029,16.327,16.327,0,0,0,.029-23.1Z" transform="translate(-548.071 -131.825)" fill="#fff"/>
    <path id="Trazado_749975" data-name="Trazado 749975" d="M545.847-64.813a21.8,21.8,0,0,0-16.331,7.376,21.771,21.771,0,0,0-28.529-3.645c-2.1-2.382-6.86-3.731-9.586-3.731v54.475l2.727-.144a8.213,8.213,0,0,0,8.036-8.036l.144-2.727V-40.3l.143-2.727a12.063,12.063,0,0,1,1.349-5.453,10.87,10.87,0,0,1,14.867-3.961,10.919,10.919,0,0,1,3.961,3.961H522.6a11.706,11.706,0,0,1,1.349,5.453l.144,2.727v19.058l.143,2.727a8.351,8.351,0,0,0,8.008,8.036l2.727.144V-40.3l.143-2.727a11.735,11.735,0,0,1,1.349-5.482,10.883,10.883,0,0,1,14.9-3.932,10.918,10.918,0,0,1,3.961,3.961,12.035,12.035,0,0,1,1.32,5.453l.143,2.727v19.058l.143,2.727a8.33,8.33,0,0,0,8.008,8.036l2.727.144V-43.029A21.834,21.834,0,0,0,545.847-64.813Z" transform="translate(-805.227 -104.862)" fill="#4a8cff"/>
    <path id="Trazado_749976" data-name="Trazado 749976" d="M338.541-56.821A27.218,27.218,0,0,0,319.282-64.8a27.219,27.219,0,0,0-19.259,7.979,27.24,27.24,0,0,0,.029,38.517,27.24,27.24,0,0,0,38.517-.029,27.18,27.18,0,0,0-.029-38.489Zm-7.721,30.8a16.353,16.353,0,0,1-23.1-.029,16.37,16.37,0,0,1,0-23.076,16.327,16.327,0,0,1,23.1-.029l.029.029A16.3,16.3,0,0,1,330.82-26.024Z" transform="translate(-663.102 -104.875)" fill="#4a8cff"/>
    <path id="Trazado_749977" data-name="Trazado 749977" d="M357.887-22.236a16.353,16.353,0,0,0-23.1.029,16.37,16.37,0,0,0,0,23.076,16.327,16.327,0,0,0,23.1.029,16.327,16.327,0,0,0,.029-23.1Z" transform="translate(-690.169 -131.825)" fill="#fff"/>
    <g id="Grupo_882230" data-name="Grupo 882230" transform="translate(-637.567 -211.934)">
      <g id="Grupo_882229" data-name="Grupo 882229" transform="translate(0 0)" clip-path="url(#clip-path)">
        <path id="Trazado_749978" data-name="Trazado 749978" d="M-649.8-223.8h145.717V-78.083H-649.8Z" transform="translate(645.999 220.424)" fill="#e5e5e4"/>
      </g>
    </g>
    <g id="Grupo_882232" data-name="Grupo 882232" transform="translate(-636.575 -210.517)">
      <g id="Grupo_882231" data-name="Grupo 882231" transform="translate(0)" clip-path="url(#clip-path-2)">
        <path id="Trazado_749979" data-name="Trazado 749979" d="M-645-219h142.991V-76.009H-645Z" transform="translate(641.585 215.585)" fill="#fff"/>
      </g>
    </g>
    <g id="Grupo_882234" data-name="Grupo 882234" transform="translate(-631.122 -205.064)">
      <g id="Grupo_882233" data-name="Grupo 882233" transform="translate(0 0)" clip-path="url(#clip-path-3)">
        <path id="Trazado_749980" data-name="Trazado 749980" d="M-626-200h132.084V-67.916H-626Z" transform="translate(622.585 196.585)" fill="#4a8cff"/>
      </g>
    </g>
    <g id="Grupo_882236" data-name="Grupo 882236" transform="translate(-609.366 -164.25)">
      <g id="Grupo_882235" data-name="Grupo 882235" transform="translate(0 0)" clip-path="url(#clip-path-4)">
        <path id="Trazado_749981" data-name="Trazado 749981" d="M-550.1-57.7h87.166V-7.329H-550.1Z" transform="translate(546.713 54.313)" fill="#fff"/>
      </g>
    </g>
  </g>
</svg>
