<svg xmlns="http://www.w3.org/2000/svg" width="505" height="80.207" viewBox="0 0 505 80.207">
  <g id="crowdcast-seeklogo.com-3" transform="translate(-75.7 -181.6)">
    <path id="Trazado_749915" data-name="Trazado 749915" d="M146.036,192.686A11.086,11.086,0,1,1,134.95,181.6,11.1,11.1,0,0,1,146.036,192.686ZM116.4,209.2a1.74,1.74,0,0,0-1.7,1.7v10.521a1.74,1.74,0,0,0,1.7,1.7h35.409a1.74,1.74,0,0,0,1.7-1.7V210.9a1.74,1.74,0,0,0-1.7-1.7Zm-1.584,21.042a1.74,1.74,0,0,1,1.7-1.7h35.409a1.74,1.74,0,0,1,1.7,1.7v10.521a1.74,1.74,0,0,1-1.7,1.7H116.51a1.74,1.74,0,0,1-1.7-1.7Zm0,19.345a1.74,1.74,0,0,1,1.7-1.7h35.409a1.74,1.74,0,0,1,1.7,1.7V260.11a1.74,1.74,0,0,1-1.7,1.7H116.51a1.74,1.74,0,0,1-1.7-1.7Z" transform="translate(5.12)" fill="#eb5e3e" fill-rule="evenodd"/>
    <path id="Trazado_749916" data-name="Trazado 749916" d="M184.231,209.786A11.086,11.086,0,1,1,173.145,198.7,11.1,11.1,0,0,1,184.231,209.786ZM155.5,226.3a1.74,1.74,0,0,0-1.7,1.7v10.521a1.74,1.74,0,0,0,1.7,1.7h35.409a1.74,1.74,0,0,0,1.7-1.7V228a1.74,1.74,0,0,0-1.7-1.7Zm0,19.345a1.74,1.74,0,0,0-1.7,1.7v10.521a1.74,1.74,0,0,0,1.7,1.7h35.409a1.74,1.74,0,0,0,1.7-1.7V247.345a1.74,1.74,0,0,0-1.7-1.7Z" transform="translate(10.252 2.245)" fill="#704a98" fill-rule="evenodd"/>
    <path id="Trazado_749917" data-name="Trazado 749917" d="M106.923,227.113A11.089,11.089,0,1,1,95.837,215.8,11.155,11.155,0,0,1,106.923,227.113ZM75.7,245.1a1.74,1.74,0,0,1,1.7-1.7h35.409a1.74,1.74,0,0,1,1.7,1.7v10.521a1.74,1.74,0,0,1-1.7,1.7H77.4a1.74,1.74,0,0,1-1.7-1.7Z" transform="translate(0 4.49)" fill="#f9c93e" fill-rule="evenodd"/>
    <path id="Trazado_749918" data-name="Trazado 749918" d="M106.923,227.113A11.089,11.089,0,1,1,95.837,215.8,11.155,11.155,0,0,1,106.923,227.113ZM75.7,245.1a1.74,1.74,0,0,1,1.7-1.7h35.409a1.74,1.74,0,0,1,1.7,1.7v10.521a1.74,1.74,0,0,1-1.7,1.7H77.4a1.74,1.74,0,0,1-1.7-1.7Z" transform="translate(0 4.49)" fill="#f7b22b" fill-rule="evenodd"/>
    <path id="Trazado_749919" data-name="Trazado 749919" d="M228.6,254.429a18.291,18.291,0,0,0,14.254-6.448,1.03,1.03,0,0,0-.113-1.358l-4.864-3.959a1.2,1.2,0,0,0-1.471.113,10.886,10.886,0,0,1-7.58,3.054,10.613,10.613,0,0,1-10.86-10.973,10.881,10.881,0,0,1,18.44-7.806,1.186,1.186,0,0,0,1.471.113l4.864-3.959a.924.924,0,0,0,.113-1.358A18.661,18.661,0,0,0,228.6,215.4c-10.521,0-19.8,7.693-19.8,19.458C208.687,246.623,218.077,254.429,228.6,254.429Z" transform="translate(17.472 4.437)" fill="#1e1525"/>
    <path id="Trazado_749920" data-name="Trazado 749920" d="M264.484,215.3c-4.525,0-8.485,2.715-10.521,8.937v-7.014a1.014,1.014,0,0,0-1.018-1.018h-7.127a1.014,1.014,0,0,0-1.018,1.018v35.183a1.014,1.014,0,0,0,1.018,1.018h7.127a1.014,1.014,0,0,0,1.018-1.018V240.414c0-10.408,3.281-16.517,9.163-16.517a10.227,10.227,0,0,1,4.073.792,1.132,1.132,0,0,0,1.471-.679l1.358-6.788a.913.913,0,0,0-.452-1.018A16.391,16.391,0,0,0,264.484,215.3Z" transform="translate(22.198 4.424)" fill="#1e1525"/>
    <path id="Trazado_749921" data-name="Trazado 749921" d="M287.745,254.429A19.126,19.126,0,0,0,307.2,234.858c0-11.765-9.05-19.458-19.458-19.458S268.4,223.093,268.4,234.858,277.337,254.429,287.745,254.429Zm0-8.6c-5.656,0-10.181-4.412-10.181-10.973,0-6.335,4.638-10.86,10.181-10.86,5.656,0,10.295,4.525,10.295,10.86C298.039,241.306,293.4,245.831,287.745,245.831Z" transform="translate(25.296 4.437)" fill="#1e1525"/>
    <path id="Trazado_749922" data-name="Trazado 749922" d="M345.559,238.712a.471.471,0,0,1-.9,0l-7.014-21.834a.948.948,0,0,0-.9-.679h-6.788a.86.86,0,0,0-.9.679l-7.014,21.834a.471.471,0,0,1-.9,0l-7.014-21.834a.86.86,0,0,0-.9-.679h-7.693a1,1,0,0,0-.905,1.358L317.39,252.74a1.124,1.124,0,0,0,.9.679h6.222a.86.86,0,0,0,.905-.679l7.919-24.662L341.6,252.74a.948.948,0,0,0,.9.679h6.222a.86.86,0,0,0,.905-.679l12.444-35.183a1,1,0,0,0-.905-1.358h-7.693a.86.86,0,0,0-.9.679Z" transform="translate(30.042 4.542)" fill="#1e1525"/>
    <path id="Trazado_749923" data-name="Trazado 749923" d="M387.492,223.093c-2.489-3.846-7.58-5.77-12.218-5.77-9.616,0-17.874,7.58-17.874,19.458s8.371,19.571,17.987,19.571c4.412,0,9.616-2.036,12.1-5.883v3.959a1.014,1.014,0,0,0,1.018,1.018h7.127a1.014,1.014,0,0,0,1.018-1.018V201.712a1,1,0,0,0-1.358-.905l-7.127,2.489a1.124,1.124,0,0,0-.679.905Zm-10.634,24.662c-5.656,0-10.181-4.864-10.181-11.086s4.638-10.86,10.181-10.86a10.983,10.983,0,0,1,0,21.947Z" transform="translate(36.98 2.514)" fill="#1e1525"/>
    <path id="Trazado_749924" data-name="Trazado 749924" d="M418,254.429a18.291,18.291,0,0,0,14.254-6.448,1.03,1.03,0,0,0-.113-1.358l-4.864-3.959a1.2,1.2,0,0,0-1.471.113,10.887,10.887,0,0,1-7.58,3.054,10.613,10.613,0,0,1-10.86-10.973,10.881,10.881,0,0,1,18.44-7.806,1.186,1.186,0,0,0,1.471.113l4.864-3.959a.924.924,0,0,0,.113-1.358A18.661,18.661,0,0,0,418,215.4c-10.521,0-19.8,7.693-19.8,19.458S407.476,254.429,418,254.429Z" transform="translate(42.335 4.437)" fill="#1e1525"/>
    <path id="Trazado_749925" data-name="Trazado 749925" d="M461.779,221.509c-2.376-3.846-7.24-6.109-12.218-6.109-10.295,0-17.761,8.258-17.761,19.458,0,11.539,7.806,19.571,17.535,19.571a14.842,14.842,0,0,0,12.557-6.788v4.864a1.014,1.014,0,0,0,1.018,1.018h7.127a1.014,1.014,0,0,0,1.018-1.018V217.323a1.014,1.014,0,0,0-1.018-1.018H462.91a1.014,1.014,0,0,0-1.018,1.018v4.186Zm-10.634,24.322c-5.883,0-10.408-4.978-10.408-10.973S445.149,224,451.032,224a10.721,10.721,0,0,1,10.521,10.86A10.587,10.587,0,0,1,451.145,245.831Z" transform="translate(46.746 4.437)" fill="#1e1525"/>
    <path id="Trazado_749926" data-name="Trazado 749926" d="M487.009,254.429c7.466,0,14.82-4.186,14.82-11.652,0-3.394-1.471-8.711-9.729-10.86l-5.883-1.584c-2.149-.453-3.959-1.584-3.959-3.507,0-2.263,1.923-3.959,4.751-3.959a4.747,4.747,0,0,1,4.751,3.168,1.2,1.2,0,0,0,1.131,1.018h6.674a.866.866,0,0,0,.905-1.018c-.453-7.58-7.466-10.634-13.688-10.634-7.919,0-13.575,5.2-13.575,11.086,0,4.638,2.149,9.163,10.295,11.426l4.865,1.244c2.715.679,4.3,1.584,4.3,3.62,0,2.376-2.376,4.186-5.883,4.186-3.281,0-5.43-1.81-5.883-3.959a1.2,1.2,0,0,0-1.131-1.018h-6.561a.866.866,0,0,0-.9,1.018C473.094,250.356,479.995,254.429,487.009,254.429Z" transform="translate(52.061 4.437)" fill="#1e1525"/>
    <path id="Trazado_749927" data-name="Trazado 749927" d="M517.025,217.743V205.412a1,1,0,0,0-1.358-.905L508.54,207a1.124,1.124,0,0,0-.679.905v9.729h-5.543a1.014,1.014,0,0,0-1.018,1.018v5.317a1.014,1.014,0,0,0,1.018,1.018h5.543V253.83a1.014,1.014,0,0,0,1.018,1.018h7.127a1.014,1.014,0,0,0,1.018-1.018V224.983h6.788a1.014,1.014,0,0,0,1.018-1.018v-5.317a1.014,1.014,0,0,0-1.018-1.018h-6.788Z" transform="translate(55.87 2.999)" fill="#1e1525"/>
  </g>
</svg>
