<svg id="Grupo_882227" data-name="Grupo 882227" xmlns="http://www.w3.org/2000/svg" xmlns:xlink="http://www.w3.org/1999/xlink" width="505" height="74.889" viewBox="0 0 505 74.889">
  <defs>
    <clipPath id="clip-path">
      <rect id="Rectángulo_361865" data-name="Rectángulo 361865" width="505" height="74.889" fill="none"/>
    </clipPath>
    <clipPath id="clip-path-3">
      <rect id="Rectángulo_361859" data-name="Rectángulo 361859" width="92.018" height="13.147" fill="none"/>
    </clipPath>
    <clipPath id="clip-path-4">
      <rect id="Rectángulo_361858" data-name="Rectángulo 361858" width="92.018" height="13.146" fill="none"/>
    </clipPath>
    <clipPath id="clip-path-5">
      <rect id="Rectángulo_361861" data-name="Rectángulo 361861" width="65.728" height="13.146" fill="none"/>
    </clipPath>
    <clipPath id="clip-path-6">
      <rect id="Rectángulo_361860" data-name="Rectángulo 361860" width="65.727" height="13.146" fill="none"/>
    </clipPath>
    <clipPath id="clip-path-7">
      <rect id="Rectángulo_361863" data-name="Rectángulo 361863" width="39.436" height="13.146" fill="none"/>
    </clipPath>
    <clipPath id="clip-path-8">
      <rect id="Rectángulo_361862" data-name="Rectángulo 361862" width="39.436" height="13.145" fill="none"/>
    </clipPath>
  </defs>
  <g id="Grupo_882226" data-name="Grupo 882226" clip-path="url(#clip-path)">
    <g id="Grupo_882225" data-name="Grupo 882225">
      <g id="Grupo_882224" data-name="Grupo 882224" clip-path="url(#clip-path)">
        <path id="Trazado_749882" data-name="Trazado 749882" d="M228.447,5.1V64.467c0,7.994,4.515,12.7,12.512,12.7a16.959,16.959,0,0,0,6.681-1.225V66.629a6.966,6.966,0,0,1-2.823.47c-3.105,0-4.8-1.5-4.8-5.646V5.1Z" transform="translate(-110.413 -2.465)" fill="#1c1c1e"/>
        <path id="Trazado_749883" data-name="Trazado 749883" d="M329.127,41.7H316.521L334.4,94.1h13.076L364.5,41.7H352.744l-8,27.377c-1.692,6.211-2.635,9.971-3.387,14.017h-.376c-.846-4.139-1.787-7.806-3.573-14.017Z" transform="translate(-152.981 -20.154)" fill="#1c1c1e"/>
        <path id="Trazado_749884" data-name="Trazado 749884" d="M452.092,80.334a17.329,17.329,0,0,1-11.76,4.421c-9.5,0-13.831-4.7-14.207-14.677h32.081a70.038,70.038,0,0,0,.564-9.219c0-12.7-7.336-20.982-20.321-20.982-13.828,0-23.708,9.222-23.708,27,0,18.532,8.279,27.281,24.273,27.281,9.033,0,14.3-2.444,18.161-5.456ZM437.979,48.911c6.681,0,9.786,3.858,9.786,11.008v2.068H426.313c.376-8.561,5.174-13.076,11.666-13.076" transform="translate(-200.452 -19.273)" fill="#1c1c1e"/>
        <path id="Trazado_749885" data-name="Trazado 749885" d="M536.4,78.922c0,3.2-2.353,5.834-7.809,5.834a19.4,19.4,0,0,1-13.925-6.211l-6.963,8.185c3.011,3.105,9.786,7.433,20.324,7.433,14.207,0,19.945-8.843,19.945-15.9,0-17.595-25.4-14.113-25.4-23.426,0-3.105,2.444-5.459,7.151-5.459a14.561,14.561,0,0,1,10.441,4.706l7.432-7.526c-3.387-3.764-9.316-6.681-17.595-6.681-11.948,0-18.911,7.432-18.911,15.617,0,17.595,25.309,14.2,25.309,23.426" transform="translate(-245.385 -19.274)" fill="#1c1c1e"/>
        <path id="Trazado_749886" data-name="Trazado 749886" d="M613.534,81.989c7.809,0,11.666-1.695,13.546-2.917l-3.1-8.843a12.677,12.677,0,0,1-7.435,2.165c-3.855,0-6.3-2.071-6.3-6.587V38.054h13.646v-8.94H610.238V15.662h-7.524l-3.858,12.794-7.15,2.353v7.245h7.15V65.807c0,11.663,5.832,16.181,14.677,16.181" transform="translate(-285.983 -7.57)" fill="#1c1c1e"/>
        <path id="Trazado_749887" data-name="Trazado 749887" d="M677.137,66.691c0-11.854,3.105-17.5,10.82-17.5,8.281,0,11.57,6.114,11.57,18.159,0,11.757-2.727,17.5-11.005,17.5-8.185,0-11.384-6.207-11.384-18.158m10.914,27.471c16.746,0,23.332-11.2,23.332-27.375s-5.553-26.91-22.862-26.91c-16.842,0-23.332,11.2-23.332,27.378,0,16.09,5.646,26.907,22.862,26.907" transform="translate(-321.498 -19.273)" fill="#1c1c1e"/>
        <path id="Trazado_749888" data-name="Trazado 749888" d="M802.01,40.166a21.306,21.306,0,0,0-4.7-.47c-6.587,0-11.29,3.387-13.455,8h-.374l-2.45-6.962H772.1v52.4h11.478V56.348c2.823-3.384,7.806-5.174,12.512-5.174a31.561,31.561,0,0,1,5.923.564Z" transform="translate(-373.169 -19.186)" fill="#1c1c1e"/>
        <path id="Trazado_749889" data-name="Trazado 749889" d="M879.695,47.04h-.379c-1.878-4.139-5.456-7.526-13.358-7.526-6.3,0-11.2,2.823-13.737,6.3h-.376l-2.068-5.174h-9.313v52.4h11.572V56.729c1.219-3.854,4.889-7.336,9.5-7.336,5.555,0,8.472,3.575,8.472,10.535V93.047h11.664V56.356a10.678,10.678,0,0,1,9.877-6.963c4.706,0,8.094,2.823,8.094,9.6V93.047h11.572V56.92c0-11.76-5.832-17.406-16.091-17.406-7.712,0-12.982,3.575-15.427,7.526" transform="translate(-406.212 -19.098)" fill="#1c1c1e"/>
        <rect id="Rectángulo_361857" data-name="Rectángulo 361857" width="11.572" height="52.404" transform="translate(145.48 21.546)" fill="#1c1c1e"/>
        <path id="Trazado_749890" data-name="Trazado 749890" d="M278.651,7.338a7.108,7.108,0,0,0,14.207,0,7.107,7.107,0,1,0-14.207,0" transform="translate(-134.677)" fill="#e54538"/>
        <g id="Grupo_882213" data-name="Grupo 882213" transform="translate(0 8.488)" opacity="0.2" style="isolation: isolate">
          <g id="Grupo_882212" data-name="Grupo 882212">
            <g id="Grupo_882211" data-name="Grupo 882211" clip-path="url(#clip-path-3)">
              <g id="Grupo_882210" data-name="Grupo 882210" transform="translate(0 0.001)">
                <g id="Grupo_882209" data-name="Grupo 882209" clip-path="url(#clip-path-4)">
                  <path id="Trazado_749891" data-name="Trazado 749891" d="M0,23A6.573,6.573,0,0,1,6.573,16.43H85.445a6.573,6.573,0,1,1,0,13.146H6.573A6.575,6.575,0,0,1,0,23" transform="translate(0 -16.429)" fill="#1c1c1e"/>
                </g>
              </g>
            </g>
          </g>
        </g>
        <path id="Trazado_749892" data-name="Trazado 749892" d="M0,23A6.573,6.573,0,0,1,6.573,16.43H67.917a6.573,6.573,0,1,1,0,13.146H6.573A6.575,6.575,0,0,1,0,23" transform="translate(0 -7.941)" fill="#1c1c1e"/>
        <g id="Grupo_882218" data-name="Grupo 882218" transform="translate(13.145 34.78)" opacity="0.2" style="isolation: isolate">
          <g id="Grupo_882217" data-name="Grupo 882217">
            <g id="Grupo_882216" data-name="Grupo 882216" clip-path="url(#clip-path-5)">
              <g id="Grupo_882215" data-name="Grupo 882215" transform="translate(0 0)">
                <g id="Grupo_882214" data-name="Grupo 882214" clip-path="url(#clip-path-6)">
                  <path id="Trazado_749893" data-name="Trazado 749893" d="M25.441,73.888a6.575,6.575,0,0,1,6.573-6.573H84.6a6.573,6.573,0,0,1,0,13.146H32.014a6.573,6.573,0,0,1-6.573-6.573" transform="translate(-25.442 -67.315)" fill="#1c1c1e"/>
                </g>
              </g>
            </g>
          </g>
        </g>
        <path id="Trazado_749894" data-name="Trazado 749894" d="M25.441,73.888a6.575,6.575,0,0,1,6.573-6.573H67.068a6.573,6.573,0,0,1,0,13.146H32.014a6.573,6.573,0,0,1-6.573-6.573" transform="translate(-12.296 -32.535)" fill="#1c1c1e"/>
        <g id="Grupo_882223" data-name="Grupo 882223" transform="translate(26.291 61.071)" opacity="0.2" style="isolation: isolate">
          <g id="Grupo_882222" data-name="Grupo 882222">
            <g id="Grupo_882221" data-name="Grupo 882221" clip-path="url(#clip-path-7)">
              <g id="Grupo_882220" data-name="Grupo 882220" transform="translate(0 0.001)">
                <g id="Grupo_882219" data-name="Grupo 882219" clip-path="url(#clip-path-8)">
                  <path id="Trazado_749895" data-name="Trazado 749895" d="M50.885,124.77a6.571,6.571,0,0,1,6.573-6.573H83.747a6.573,6.573,0,1,1,0,13.146H57.458a6.571,6.571,0,0,1-6.573-6.573" transform="translate(-50.884 -118.198)" fill="#1c1c1e"/>
                </g>
              </g>
            </g>
          </g>
        </g>
        <path id="Trazado_749896" data-name="Trazado 749896" d="M50.885,124.77a6.571,6.571,0,0,1,6.573-6.573h8.762a6.573,6.573,0,0,1,0,13.146H57.458a6.571,6.571,0,0,1-6.573-6.573" transform="translate(-24.594 -57.127)" fill="#1c1c1e"/>
      </g>
    </g>
  </g>
</svg>
