<svg id="Grupo_882358" data-name="Grupo 882358" xmlns="http://www.w3.org/2000/svg" xmlns:xlink="http://www.w3.org/1999/xlink" width="610" height="347.625" viewBox="0 0 610 347.625">
  <defs>
    <clipPath id="clip-path">
      <rect id="Rectángulo_361911" data-name="Rectángulo 361911" width="610" height="347.625" fill="none"/>
    </clipPath>
    <clipPath id="clip-path-2">
      <rect id="Rectángulo_361903" data-name="Rectángulo 361903" width="610.001" height="347.624" fill="none"/>
    </clipPath>
    <clipPath id="clip-path-3">
      <rect id="Rectángulo_361900" data-name="Rectángulo 361900" width="355.171" height="329.173" fill="none"/>
    </clipPath>
    <clipPath id="clip-path-4">
      <rect id="Rectángulo_361901" data-name="Rectángulo 361901" width="280.09" height="212.937" fill="none"/>
    </clipPath>
    <clipPath id="clip-path-5">
      <rect id="Rectángulo_361902" data-name="Rectángulo 361902" width="380.806" height="26.541" fill="none"/>
    </clipPath>
    <clipPath id="clip-path-6">
      <path id="Trazado_750142" data-name="Trazado 750142" d="M1060.8,737.82a62.224,62.224,0,1,0,62.224-62.224A62.224,62.224,0,0,0,1060.8,737.82" transform="translate(-1060.804 -675.596)" fill="none"/>
    </clipPath>
    <clipPath id="clip-path-7">
      <rect id="Rectángulo_361904" data-name="Rectángulo 361904" width="33.593" height="30.625" fill="none"/>
    </clipPath>
    <clipPath id="clip-path-9">
      <path id="Trazado_750222" data-name="Trazado 750222" d="M394.329,126.521a73.853,73.853,0,1,0,73.853-73.853,73.853,73.853,0,0,0-73.853,73.853" transform="translate(-394.329 -52.668)" fill="none"/>
    </clipPath>
    <clipPath id="clip-path-10">
      <path id="Trazado_750238" data-name="Trazado 750238" d="M1868.32,118.051a68.222,68.222,0,1,0,68.222-68.222,68.222,68.222,0,0,0-68.222,68.222" transform="translate(-1868.32 -49.829)" fill="none"/>
    </clipPath>
    <clipPath id="clip-path-11">
      <path id="Trazado_750254" data-name="Trazado 750254" d="M2628.634,822.7a48.828,48.828,0,1,0,48.828-48.828,48.828,48.828,0,0,0-48.828,48.828" transform="translate(-2628.634 -773.876)" fill="none"/>
    </clipPath>
    <clipPath id="clip-path-12">
      <path id="Trazado_750261" data-name="Trazado 750261" d="M28.575,1122.563a61.238,61.238,0,1,0,61.238-61.238,61.238,61.238,0,0,0-61.238,61.238" transform="translate(-28.575 -1061.324)" fill="none"/>
    </clipPath>
    <clipPath id="clip-path-13">
      <path id="Trazado_750262" data-name="Trazado 750262" d="M283.374,1315.3c-3.554,7.82-5.331,22.393-4.621,47.986a141.482,141.482,0,0,1-.567,18.51,61.467,61.467,0,0,0,42.446-6.358c.591-12.609-4.785-37.781-12.2-48.052-4.053-5.615-7.068-9.546-9.132-12.431a62.983,62.983,0,0,0-13.352-6.23c-.894,2.521-1.779,4.825-2.575,6.576" transform="translate(-278.186 -1308.721)" fill="none"/>
    </clipPath>
    <linearGradient id="linear-gradient" x1="-0.391" y1="1.193" x2="-0.389" y2="1.193" gradientUnits="objectBoundingBox">
      <stop offset="0" stop-color="#ffc34e"/>
      <stop offset="1" stop-color="#fb8627"/>
    </linearGradient>
    <clipPath id="clip-path-14">
      <path id="Trazado_750263" data-name="Trazado 750263" d="M287.631,1290.565c-.237,3.91-2.368,20.324-3.4,28.1s26.976-8.19,25.4-11.048a33.121,33.121,0,0,1-2.811-9.583c-.108-1.3-15.909-7.653-18.757-7.653-.275,0-.43.06-.437.188" transform="translate(-284.205 -1290.377)" fill="none"/>
    </clipPath>
    <linearGradient id="linear-gradient-2" x1="-0.996" y1="2.265" x2="-0.992" y2="2.265" xlink:href="#linear-gradient"/>
    <clipPath id="clip-path-16">
      <path id="Trazado_750268" data-name="Trazado 750268" d="M300.7,1367.391c-8.6,2.141-4.666,28.112,2.584,43.515s20.875,2.1,25.97-1.677a16.9,16.9,0,0,0,4.047-4.135c-1.635-9.191-4.44-19.051-7.9-25.99-4.478,5.256-7.66.184-11.75-4.889-2.866-3.555-6.179-7.109-10.694-7.11a9.305,9.305,0,0,0-2.256.286" transform="translate(-295.805 -1367.105)" fill="none"/>
    </clipPath>
    <linearGradient id="linear-gradient-3" x1="-0.536" y1="1.307" x2="-0.534" y2="1.307" xlink:href="#linear-gradient"/>
    <clipPath id="clip-path-17">
      <path id="Trazado_750269" data-name="Trazado 750269" d="M309.86,1358.886c-10.815,1.084-4.893,28.08,3.015,38.981s19.164.356,22.718-5.924,10.752-16.957,10.752-23.9c0-1.3-2.666-1.57-5.865-1.333-3.012.223-16.621,18.957-16.621,18.957s-4.393-26.8-13.527-26.8a4.54,4.54,0,0,0-.473.023" transform="translate(-303.969 -1358.862)" fill="none"/>
    </clipPath>
    <linearGradient id="linear-gradient-4" x1="-0.633" y1="1.357" x2="-0.631" y2="1.357" xlink:href="#linear-gradient"/>
    <clipPath id="clip-path-19">
      <path id="Trazado_750289" data-name="Trazado 750289" d="M1289.211,156.4a29.735,29.735,0,1,0,29.735-29.735,29.735,29.735,0,0,0-29.735,29.735" transform="translate(-1289.211 -126.668)" fill="none"/>
    </clipPath>
    <clipPath id="clip-path-20">
      <path id="Trazado_750300" data-name="Trazado 750300" d="M4,646.238A29.735,29.735,0,1,0,33.735,616.5,29.735,29.735,0,0,0,4,646.238" transform="translate(-4 -616.503)" fill="none"/>
    </clipPath>
    <clipPath id="clip-path-21">
      <path id="Trazado_750309" data-name="Trazado 750309" d="M2808.631,292.463a31.684,31.684,0,1,0,31.684-31.684,31.684,31.684,0,0,0-31.684,31.684" transform="translate(-2808.631 -260.779)" fill="none"/>
    </clipPath>
  </defs>
  <g id="Grupo_882357" data-name="Grupo 882357" clip-path="url(#clip-path)">
    <g id="Grupo_882321" data-name="Grupo 882321" transform="translate(0 0.001)">
      <g id="Grupo_882320" data-name="Grupo 882320" clip-path="url(#clip-path-2)">
        <g id="Grupo_882313" data-name="Grupo 882313" transform="translate(9.44 2.481)" opacity="0.6">
          <g id="Grupo_882312" data-name="Grupo 882312">
            <g id="Grupo_882311" data-name="Grupo 882311" clip-path="url(#clip-path-3)">
              <path id="Trazado_750075" data-name="Trazado 750075" d="M53.192,217.221c-23.775-104,45.089-185.652,186.575-201.965,158.464-18.271,190.321,69.369,145.3,94.814S263.989,292.594,254.21,323.279,86.62,363.451,53.192,217.221" transform="translate(-48.572 -12.771)" fill="#f9f7ec"/>
            </g>
          </g>
        </g>
        <g id="Grupo_882316" data-name="Grupo 882316" transform="translate(329.867 94.735)" opacity="0.6">
          <g id="Grupo_882315" data-name="Grupo 882315">
            <g id="Grupo_882314" data-name="Grupo 882314" clip-path="url(#clip-path-4)">
              <path id="Trazado_750076" data-name="Trazado 750076" d="M1884.144,487.471c74.674,3.263,125.387,117.141,69.459,176.423s-263.517,38.06-256.12-4.969,96.02-29.208,134.113-82.374,31.244-90.011,52.548-89.08" transform="translate(-1697.29 -487.453)" fill="#f9f7ec"/>
            </g>
          </g>
        </g>
        <g id="Grupo_882319" data-name="Grupo 882319" transform="translate(203.695 321.083)" opacity="0.5">
          <g id="Grupo_882318" data-name="Grupo 882318">
            <g id="Grupo_882317" data-name="Grupo 882317" clip-path="url(#clip-path-5)">
              <path id="Trazado_750077" data-name="Trazado 750077" d="M1385.238,1652.1c-58.177-.147-188.148,2.35-290.289,7.654s-15.688,17.189,54.658,12.13,119.556,11.054,205.657,5.612,97.471-25.226,29.973-25.4" transform="translate(-1048.087 -1652.098)" fill="#f9f7ec"/>
            </g>
          </g>
        </g>
        <path id="Trazado_750078" data-name="Trazado 750078" d="M156.362,763.93a.486.486,0,0,1-.466-.348l-1.377-4.66a.486.486,0,0,1,.256-.576l4.382-2.1a.486.486,0,1,1,.42.876l-4.008,1.921,1.259,4.263a.486.486,0,0,1-.328.6.48.48,0,0,1-.138.02" transform="translate(-124.473 -609.233)" fill="#63acc2"/>
        <path id="Trazado_750079" data-name="Trazado 750079" d="M203.705,932.921a.486.486,0,0,1-.466-.349l-2.579-8.731a.486.486,0,1,1,.932-.275l2.579,8.732a.486.486,0,0,1-.328.6.479.479,0,0,1-.138.02m-5.158-17.463a.486.486,0,0,1-.466-.348l-2.579-8.732a.486.486,0,0,1,.932-.275l2.579,8.732a.486.486,0,0,1-.466.624M193.389,898a.486.486,0,0,1-.466-.348l-2.579-8.731a.486.486,0,1,1,.932-.275l2.579,8.731a.487.487,0,0,1-.466.624m-5.158-17.463a.486.486,0,0,1-.466-.349l-2.579-8.731a.486.486,0,0,1,.932-.275l2.579,8.731a.486.486,0,0,1-.466.624m-5.158-17.463a.486.486,0,0,1-.466-.348l-2.579-8.731a.486.486,0,1,1,.932-.275l2.579,8.731a.486.486,0,0,1-.466.623m-5.158-17.463a.486.486,0,0,1-.466-.349l-2.579-8.731a.486.486,0,0,1,.932-.275l2.579,8.731a.486.486,0,0,1-.328.6.478.478,0,0,1-.138.02" transform="translate(-140.869 -673.447)" fill="#63acc2"/>
        <path id="Trazado_750080" data-name="Trazado 750080" d="M335.95,1380.65a.485.485,0,0,1-.466-.348l-1.376-4.66a.486.486,0,0,1,.932-.275l1.229,4.162,4.069-1.506a.486.486,0,0,1,.337.911l-4.557,1.686a.488.488,0,0,1-.169.03" transform="translate(-269.158 -1107.785)" fill="#63acc2"/>
        <path id="Trazado_750081" data-name="Trazado 750081" d="M411.311,1112.49a.486.486,0,0,1-.169-.942l8.981-3.323a.486.486,0,1,1,.337.911l-8.981,3.323a.475.475,0,0,1-.169.03m17.961-6.645a.486.486,0,0,1-.168-.942l8.981-3.323a.486.486,0,1,1,.337.911l-8.981,3.323a.49.49,0,0,1-.169.03m17.961-6.645a.486.486,0,0,1-.169-.942l8.981-3.323a.486.486,0,0,1,.337.911l-8.981,3.323a.489.489,0,0,1-.169.031m17.962-6.645a.486.486,0,0,1-.168-.942l8.981-3.323a.486.486,0,1,1,.337.911l-8.981,3.323a.492.492,0,0,1-.169.031m17.962-6.646a.486.486,0,0,1-.168-.942l8.981-3.323a.486.486,0,1,1,.337.911l-8.981,3.323a.489.489,0,0,1-.168.03m17.962-6.646a.486.486,0,0,1-.168-.941L509.93,1075a.486.486,0,0,1,.337.911l-8.981,3.323a.48.48,0,0,1-.168.03m17.961-6.645a.486.486,0,0,1-.169-.942l8.981-3.323a.486.486,0,1,1,.337.911l-8.981,3.323a.485.485,0,0,1-.168.03m17.962-6.645a.486.486,0,0,1-.169-.942l8.981-3.323a.486.486,0,1,1,.337.911l-8.981,3.323a.478.478,0,0,1-.169.031M555,1059.327a.486.486,0,0,1-.168-.942l8.981-3.323a.486.486,0,1,1,.337.911l-8.981,3.323a.487.487,0,0,1-.169.03m17.962-6.645a.486.486,0,0,1-.169-.942l8.981-3.323a.486.486,0,1,1,.337.911l-8.981,3.323a.489.489,0,0,1-.169.03" transform="translate(-330.981 -844.634)" fill="#63acc2"/>
        <path id="Trazado_750082" data-name="Trazado 750082" d="M1344.233,1026.068a.483.483,0,0,1-.248-.068l-3.979-2.361-4.34,1.606a.486.486,0,1,1-.337-.911l4.557-1.686a.486.486,0,0,1,.417.038l4.178,2.48a.486.486,0,0,1-.248.9" transform="translate(-1075.553 -823.872)" fill="#63acc2"/>
        <path id="Trazado_750083" data-name="Trazado 750083" d="M1554.133,1139.437a.481.481,0,0,1-.248-.068l-8.622-5.117a.486.486,0,0,1,.5-.836l8.622,5.118a.486.486,0,0,1-.248.9M1536.89,1129.2a.48.48,0,0,1-.248-.068l-8.622-5.117a.486.486,0,1,1,.5-.835l8.622,5.117a.486.486,0,0,1-.248.9m-17.244-10.235a.483.483,0,0,1-.248-.068l-8.622-5.117a.486.486,0,0,1,.5-.836l8.622,5.117a.486.486,0,0,1-.248.9m-17.244-10.235a.485.485,0,0,1-.248-.068l-8.622-5.117a.486.486,0,0,1,.5-.835l8.622,5.117a.486.486,0,0,1-.249.9m-17.244-10.235a.482.482,0,0,1-.248-.068l-8.622-5.118a.486.486,0,1,1,.5-.835l8.621,5.117a.486.486,0,0,1-.248.9m-17.244-10.235a.483.483,0,0,1-.248-.068l-8.622-5.117a.486.486,0,1,1,.5-.835l8.622,5.117a.486.486,0,0,1-.249.9m-17.244-10.235a.481.481,0,0,1-.248-.068l-8.622-5.117a.486.486,0,0,1,.5-.835l8.622,5.117a.486.486,0,0,1-.248.9m-17.244-10.234a.481.481,0,0,1-.248-.068l-8.622-5.117a.486.486,0,0,1,.5-.835l8.622,5.117a.486.486,0,0,1-.248.9" transform="translate(-1147.505 -855.364)" fill="#63acc2"/>
        <path id="Trazado_750084" data-name="Trazado 750084" d="M2138.784,1485.729a.484.484,0,0,1-.248-.068l-4.179-2.48a.486.486,0,0,1,.5-.835l3.918,2.326,3.817-2.488a.486.486,0,1,1,.531.814l-4.07,2.653a.487.487,0,0,1-.265.079" transform="translate(-1719.355 -1194.059)" fill="#63acc2"/>
        <path id="Trazado_750085" data-name="Trazado 750085" d="M2221.431,1151.238a.486.486,0,0,1-.266-.893l8.626-5.621a.486.486,0,1,1,.53.814l-8.625,5.621a.484.484,0,0,1-.265.078M2238.682,1140a.486.486,0,0,1-.266-.893l8.625-5.621a.486.486,0,0,1,.531.814l-8.626,5.621a.481.481,0,0,1-.264.079m17.25-11.242a.486.486,0,0,1-.266-.893l8.626-5.621a.486.486,0,1,1,.53.815l-8.625,5.621a.485.485,0,0,1-.265.079m17.251-11.242a.486.486,0,0,1-.266-.893l8.626-5.621a.486.486,0,1,1,.53.814l-8.625,5.621a.484.484,0,0,1-.265.079m17.251-11.242a.486.486,0,0,1-.266-.893l8.625-5.621a.486.486,0,1,1,.531.814l-8.626,5.621a.484.484,0,0,1-.265.079m17.251-11.242a.486.486,0,0,1-.265-.893l8.625-5.621a.486.486,0,1,1,.53.814l-8.625,5.621a.484.484,0,0,1-.265.079m17.251-11.242a.486.486,0,0,1-.266-.893l8.626-5.621a.486.486,0,0,1,.531.814l-8.625,5.621a.484.484,0,0,1-.265.079" transform="translate(-1789.306 -867.843)" fill="#63acc2"/>
        <path id="Trazado_750086" data-name="Trazado 750086" d="M2842.774,1018.409a.486.486,0,0,1-.266-.893l3.894-2.537.8-4.578a.486.486,0,0,1,.957.168l-.839,4.786a.485.485,0,0,1-.213.323l-4.071,2.653a.483.483,0,0,1-.265.079" transform="translate(-2289.891 -813.707)" fill="#63acc2"/>
        <path id="Trazado_750087" data-name="Trazado 750087" d="M2876.877,594.522a.485.485,0,0,1-.479-.57l1.719-9.809a.486.486,0,1,1,.957.168l-1.719,9.81a.485.485,0,0,1-.478.4m3.438-19.619a.5.5,0,0,1-.084-.007.486.486,0,0,1-.395-.563l1.719-9.809a.486.486,0,1,1,.957.168l-1.719,9.81a.486.486,0,0,1-.478.4m3.438-19.619a.5.5,0,0,1-.085-.007.486.486,0,0,1-.395-.563l1.719-9.81a.486.486,0,0,1,.958.168l-1.719,9.809a.486.486,0,0,1-.478.4m3.438-19.619a.487.487,0,0,1-.479-.57l1.719-9.809a.486.486,0,0,1,.958.168l-1.719,9.81a.487.487,0,0,1-.478.4m3.438-19.619a.487.487,0,0,1-.48-.57l1.719-9.809a.486.486,0,0,1,.958.168l-1.719,9.809a.486.486,0,0,1-.478.4" transform="translate(-2317.366 -407.068)" fill="#63acc2"/>
        <path id="Trazado_750088" data-name="Trazado 750088" d="M2948.726,434.339a.474.474,0,0,1-.084-.007.486.486,0,0,1-.395-.562l.747-4.26-4.312-.341a.486.486,0,0,1,.077-.969l4.843.383a.486.486,0,0,1,.44.568l-.838,4.786a.486.486,0,0,1-.478.4" transform="translate(-2372.025 -344.979)" fill="#63acc2"/>
        <path id="Trazado_750089" data-name="Trazado 750089" d="M222.913,369.1a.486.486,0,0,1-.21-.924l8.82-4.226a.486.486,0,0,1,.42.876l-8.82,4.226a.485.485,0,0,1-.21.048m17.64-8.453a.486.486,0,0,1-.21-.924l8.82-4.226a.486.486,0,1,1,.42.876l-8.82,4.227a.485.485,0,0,1-.21.048m17.64-8.453a.486.486,0,0,1-.21-.924l8.82-4.226a.486.486,0,1,1,.42.876l-8.82,4.226a.482.482,0,0,1-.209.048m17.64-8.453a.486.486,0,0,1-.21-.924l8.82-4.226a.486.486,0,1,1,.42.876l-8.82,4.227a.483.483,0,0,1-.21.048m17.64-8.453a.486.486,0,0,1-.21-.924l8.82-4.226a.486.486,0,1,1,.42.876l-8.82,4.226a.482.482,0,0,1-.21.048m17.64-8.453a.486.486,0,0,1-.21-.924l8.82-4.226a.486.486,0,1,1,.42.877l-8.82,4.226a.482.482,0,0,1-.209.048m17.641-8.453a.486.486,0,0,1-.21-.924l5.836-2.8a.483.483,0,0,1,.074-.028l3.176-.927a.486.486,0,0,1,.272.933l-3.138.916-5.8,2.78a.484.484,0,0,1-.21.048m18.4-6.466a.486.486,0,0,1-.136-.952l9.388-2.742a.486.486,0,0,1,.272.933l-9.388,2.742a.491.491,0,0,1-.136.02m394.989-3.109h-.039l-9.75-.77a.486.486,0,1,1,.077-.969l9.75.77a.486.486,0,0,1-.038.97m-19.5-1.541h-.039l-9.75-.77a.486.486,0,0,1,.077-.969l9.75.77a.486.486,0,0,1-.038.97m-356.713-.834a.486.486,0,0,1-.136-.952l9.388-2.742a.486.486,0,1,1,.273.933l-9.388,2.742a.485.485,0,0,1-.136.02m337.213-.707-.039,0-9.75-.77a.486.486,0,0,1,.077-.969l9.75.77a.486.486,0,0,1-.038.97m-19.5-1.54-.039,0-9.75-.77a.486.486,0,1,1,.077-.969l9.75.77a.486.486,0,0,1-.038.97m-19.5-1.541h-.039l-9.75-.77a.486.486,0,0,1,.076-.969l9.75.77a.486.486,0,0,1-.038.97m-19.5-1.54-.039,0-9.75-.77a.486.486,0,0,1,.076-.969l9.75.77a.486.486,0,0,1-.038.97m-259.936-.155a.486.486,0,0,1-.136-.953l9.388-2.741a.486.486,0,0,1,.272.933l-9.388,2.742a.483.483,0,0,1-.136.02m240.436-1.385-.039,0-9.75-.77a.486.486,0,0,1,.076-.969l9.75.77a.486.486,0,0,1-.038.97M605.656,297.9a.474.474,0,0,1-.057,0l-9.714-1.144a.486.486,0,1,1,.114-.965l9.713,1.145a.486.486,0,0,1-.056.969m-19.426-2.289a.485.485,0,0,1-.057,0l-9.713-1.145a.486.486,0,0,1,.114-.965l9.713,1.145a.486.486,0,0,1-.056.968m-182.745-.142a.486.486,0,0,1-.136-.952l9.388-2.741a.486.486,0,0,1,.272.933l-9.388,2.742a.491.491,0,0,1-.136.019M566.8,293.325a.533.533,0,0,1-.057,0l-9.713-1.145a.486.486,0,1,1,.114-.965l9.713,1.145a.486.486,0,0,1-.056.968m-19.426-2.289a.483.483,0,0,1-.057,0l-9.713-1.145a.486.486,0,1,1,.114-.965l9.713,1.145a.486.486,0,0,1-.056.968m-125.116-1.047a.486.486,0,0,1-.136-.953l9.388-2.741a.486.486,0,1,1,.272.933l-9.388,2.741a.489.489,0,0,1-.136.02m105.689-1.242a.492.492,0,0,1-.058,0L518.18,287.6a.486.486,0,1,1,.114-.965l9.713,1.145a.486.486,0,0,1-.056.968m-19.426-2.289a.519.519,0,0,1-.058,0l-9.713-1.144a.486.486,0,1,1,.114-.965l9.713,1.145a.486.486,0,0,1-.056.968m-67.487-1.952a.486.486,0,0,1-.136-.952l9.388-2.742a.486.486,0,0,1,.273.933l-9.388,2.742a.488.488,0,0,1-.136.019m48.06-.337a.483.483,0,0,1-.057,0l-9.713-1.145a.486.486,0,1,1,.114-.965l9.713,1.145a.486.486,0,0,1-.056.969m-19.427-2.289a.478.478,0,0,1-.057,0l-9.713-1.145a.486.486,0,0,1,.114-.965l9.713,1.145a.486.486,0,0,1-.056.968" transform="translate(-179.198 -225.392)" fill="#63acc2"/>
        <path id="Trazado_750090" data-name="Trazado 750090" d="M180.2,773.355a.479.479,0,0,1-.1-.011l-4.753-1.009a.486.486,0,0,1,.2-.951l4.753,1.009a.486.486,0,0,1-.1.961" transform="translate(-140.96 -621.459)" fill="#63acc2"/>
        <path id="Trazado_750091" data-name="Trazado 750091" d="M450.567,830.751a.491.491,0,0,1-.1-.01l-9.587-2.035a.486.486,0,1,1,.2-.951l9.587,2.035a.486.486,0,0,1-.1.961m-19.174-4.07a.492.492,0,0,1-.1-.011l-9.587-2.035a.486.486,0,1,1,.2-.95l9.587,2.035a.486.486,0,0,1-.1.961m-19.175-4.07a.478.478,0,0,1-.1-.011l-9.587-2.035a.486.486,0,1,1,.2-.951l9.587,2.035a.486.486,0,0,1-.1.961m-19.174-4.071a.485.485,0,0,1-.1-.01l-9.587-2.035a.486.486,0,1,1,.2-.951l9.587,2.035a.486.486,0,0,1-.1.961m-19.174-4.07a.481.481,0,0,1-.1-.011l-9.587-2.035a.486.486,0,0,1,.2-.95l9.587,2.035a.486.486,0,0,1-.1.961m-19.175-4.07a.5.5,0,0,1-.1-.011l-9.587-2.036a.486.486,0,1,1,.2-.95l9.587,2.035a.486.486,0,0,1-.1.962m-19.174-4.071a.5.5,0,0,1-.1-.011l-9.587-2.035a.486.486,0,0,1,.2-.951l9.587,2.035a.486.486,0,0,1-.1.961m-19.175-4.07a.48.48,0,0,1-.1-.011l-9.587-2.035a.486.486,0,0,1,.2-.951l9.587,2.035a.486.486,0,0,1-.1.961m-19.174-4.07a.49.49,0,0,1-.1-.011l-9.587-2.035a.486.486,0,1,1,.2-.95l9.587,2.035a.486.486,0,0,1-.1.961M278,794.117a.482.482,0,0,1-.1-.011l-9.587-2.035a.486.486,0,1,1,.2-.95l9.587,2.035a.486.486,0,0,1-.1.961m-19.174-4.071a.491.491,0,0,1-.1-.011L249.134,788a.486.486,0,0,1,.2-.951l9.587,2.035a.486.486,0,0,1-.1.961" transform="translate(-200.405 -634.08)" fill="#63acc2"/>
        <path id="Trazado_750092" data-name="Trazado 750092" d="M1339.244,1003.573a.488.488,0,0,1-.1-.01l-4.753-1.009a.486.486,0,0,1,.2-.951l4.229.9.483-4.3a.486.486,0,1,1,.966.109l-.543,4.828a.486.486,0,0,1-.483.432" transform="translate(-1074.742 -803.857)" fill="#63acc2"/>
        <path id="Trazado_750093" data-name="Trazado 750093" d="M1367.563,489.064l-.055,0a.486.486,0,0,1-.429-.537l1.131-10.044a.486.486,0,0,1,.966.109l-1.131,10.044a.486.486,0,0,1-.482.432m2.262-20.088a.465.465,0,0,1-.055,0,.486.486,0,0,1-.429-.537l1.131-10.044a.486.486,0,0,1,.966.109l-1.131,10.044a.486.486,0,0,1-.482.432m2.262-20.088a.476.476,0,0,1-.055,0,.486.486,0,0,1-.428-.537l1.131-10.044a.486.486,0,0,1,.966.108l-1.131,10.044a.486.486,0,0,1-.482.432m2.262-20.088a.486.486,0,0,1-.483-.54L1375,418.216a.486.486,0,1,1,.965.109l-1.131,10.044a.486.486,0,0,1-.482.431m2.262-20.088a.475.475,0,0,1-.055,0,.486.486,0,0,1-.429-.537l1.131-10.044a.486.486,0,1,1,.966.109l-1.131,10.044a.486.486,0,0,1-.482.431m2.262-20.088a.478.478,0,0,1-.055,0,.486.486,0,0,1-.428-.537l1.131-10.044a.486.486,0,0,1,.966.109l-1.131,10.044a.486.486,0,0,1-.482.432" transform="translate(-1101.386 -304.221)" fill="#63acc2"/>
        <path id="Trazado_750094" data-name="Trazado 750094" d="M1437.4,306.886a.478.478,0,0,1-.055,0,.486.486,0,0,1-.428-.537l.544-4.828a.486.486,0,1,1,.965.109l-.544,4.828a.485.485,0,0,1-.482.431" transform="translate(-1157.65 -242.571)" fill="#63acc2"/>
        <path id="Trazado_750095" data-name="Trazado 750095" d="M364.742,1420.8h-.023l-4.853-.226a.486.486,0,1,1,.045-.97l4.853.226a.486.486,0,0,1-.022.971" transform="translate(-289.553 -1143.706)" fill="#63acc2"/>
        <path id="Trazado_750096" data-name="Trazado 750096" d="M723.792,1437.544h-.023l-9.926-.463a.486.486,0,1,1,.045-.971l9.926.463a.486.486,0,0,1-.022.971m-19.852-.926h-.023l-9.926-.463a.486.486,0,0,1,.045-.971l9.926.463a.486.486,0,0,1-.022.971m-19.852-.926h-.023l-9.926-.463a.486.486,0,1,1,.045-.97l9.926.463a.486.486,0,0,1-.022.971m-19.852-.926h-.023l-9.926-.462a.486.486,0,0,1,.045-.971l9.926.463a.486.486,0,0,1-.022.971m-19.852-.926h-.023l-9.926-.463a.486.486,0,1,1,.045-.971l9.926.463a.486.486,0,0,1-.022.971m-19.852-.926h-.023l-9.926-.463a.486.486,0,1,1,.045-.97l9.926.463a.486.486,0,0,1-.022.971m-19.852-.925h-.023l-9.926-.463a.486.486,0,0,1,.045-.971l9.926.463a.486.486,0,0,1-.022.972m-19.852-.926H584.8l-9.926-.463a.486.486,0,0,1,.045-.971l9.927.463a.486.486,0,0,1-.022.971m-19.852-.926h-.023l-9.927-.463a.486.486,0,0,1,.045-.971l9.926.463a.486.486,0,0,1-.022.971m-19.852-.926H545.1l-9.926-.463a.486.486,0,1,1,.045-.971l9.926.463a.486.486,0,0,1-.022.971m-19.852-.925h-.023l-9.926-.463a.486.486,0,0,1,.045-.971l9.926.463a.486.486,0,0,1-.022.971m-19.852-.926h-.023l-9.926-.463a.486.486,0,1,1,.045-.97l9.926.463a.486.486,0,0,1-.023.971m-19.852-.926h-.023l-9.926-.462a.486.486,0,0,1,.045-.971l9.926.463a.486.486,0,0,1-.022.971m-19.852-.925h-.023l-9.926-.463a.486.486,0,0,1,.045-.971l9.926.463a.486.486,0,0,1-.022.971m-19.852-.926h-.023l-9.926-.463a.486.486,0,1,1,.045-.97l9.926.463a.486.486,0,0,1-.022.971" transform="translate(-350.819 -1146.563)" fill="#63acc2"/>
        <path id="Trazado_750097" data-name="Trazado 750097" d="M1973,1495.788h-.023l-4.854-.226a.486.486,0,0,1-.463-.508.493.493,0,0,1,.508-.463l4.853.226a.486.486,0,0,1-.022.971" transform="translate(-1585.246 -1204.119)" fill="#63acc2"/>
        <path id="Trazado_750098" data-name="Trazado 750098" d="M2899.479,1108.426a.483.483,0,0,1-.323-.123l-3.63-3.23a.486.486,0,0,1,.646-.726l3.63,3.23a.486.486,0,0,1-.323.849" transform="translate(-2332.652 -889.62)" fill="#63acc2"/>
        <path id="Trazado_750099" data-name="Trazado 750099" d="M2408.236,671.34a.486.486,0,0,1-.323-.123l-7.242-6.444a.486.486,0,1,1,.646-.726l7.243,6.444a.486.486,0,0,1-.323.849m-14.485-12.888a.486.486,0,0,1-.323-.123l-7.242-6.444a.486.486,0,1,1,.646-.726l7.243,6.444a.486.486,0,0,1-.324.849m-14.484-12.888a.484.484,0,0,1-.323-.123L2371.7,639a.486.486,0,1,1,.646-.726l7.242,6.444a.486.486,0,0,1-.323.849m-14.485-12.888a.484.484,0,0,1-.323-.123l-7.243-6.444a.486.486,0,0,1,.646-.726l7.243,6.444a.486.486,0,0,1-.323.849M2350.3,619.787a.484.484,0,0,1-.322-.123l-7.243-6.444a.486.486,0,0,1,.646-.726l7.243,6.444a.486.486,0,0,1-.324.849M2335.811,606.9a.484.484,0,0,1-.323-.123l-7.242-6.444a.486.486,0,1,1,.646-.726l7.242,6.444a.486.486,0,0,1-.323.849m-14.485-12.888a.484.484,0,0,1-.323-.123l-7.243-6.444a.486.486,0,1,1,.646-.726l7.243,6.444a.486.486,0,0,1-.323.849m-14.485-12.889a.482.482,0,0,1-.323-.123l-7.243-6.444a.486.486,0,1,1,.646-.726l7.243,6.444a.486.486,0,0,1-.323.849" transform="translate(-1852.282 -462.208)" fill="#63acc2"/>
        <path id="Trazado_750100" data-name="Trazado 750100" d="M2230.052,528.133a.482.482,0,0,1-.323-.123l-3.363-2.991-3.851,2.329a.486.486,0,0,1-.5-.831L2226.17,524a.486.486,0,0,1,.575.053l3.63,3.23a.486.486,0,0,1-.323.849" transform="translate(-1789.978 -422.107)" fill="#63acc2"/>
        <path id="Trazado_750101" data-name="Trazado 750101" d="M1481.867,644.944a.486.486,0,0,1-.252-.9l7.994-4.836a.486.486,0,0,1,.5.831l-7.995,4.836a.484.484,0,0,1-.251.07m15.989-9.673a.486.486,0,0,1-.252-.9l7.994-4.836a.486.486,0,1,1,.5.831l-7.994,4.836a.483.483,0,0,1-.251.07m15.988-9.672a.486.486,0,0,1-.252-.9l7.995-4.836a.486.486,0,1,1,.5.831l-7.994,4.836a.482.482,0,0,1-.251.07m15.989-9.673a.486.486,0,0,1-.252-.9l7.994-4.836a.486.486,0,1,1,.5.831l-7.994,4.836a.484.484,0,0,1-.251.07m15.989-9.672a.486.486,0,0,1-.252-.9l7.994-4.836a.486.486,0,0,1,.5.832l-7.994,4.836a.483.483,0,0,1-.251.07m15.988-9.673a.486.486,0,0,1-.252-.9l7.994-4.836a.486.486,0,1,1,.5.831l-7.995,4.836a.482.482,0,0,1-.251.07m15.988-9.672a.486.486,0,0,1-.252-.9l7.994-4.836a.486.486,0,0,1,.5.831l-7.994,4.836a.486.486,0,0,1-.251.07m15.989-9.673a.486.486,0,0,1-.252-.9l7.994-4.836a.486.486,0,0,1,.5.831l-7.994,4.836a.484.484,0,0,1-.251.07m15.988-9.672a.486.486,0,0,1-.252-.9l7.995-4.836a.486.486,0,1,1,.5.831l-7.994,4.836a.485.485,0,0,1-.251.07" transform="translate(-1193.476 -452.58)" fill="#63acc2"/>
        <path id="Trazado_750102" data-name="Trazado 750102" d="M1419.344,1013.161a.486.486,0,0,1-.252-.9l4.157-2.515a.486.486,0,0,1,.5.831l-4.157,2.515a.484.484,0,0,1-.251.07" transform="translate(-1143.103 -813.445)" fill="#63acc2"/>
        <path id="Trazado_750103" data-name="Trazado 750103" d="M2915.916,467.67a.486.486,0,0,1-.36-.813l3.268-3.6a.486.486,0,0,1,.719.653l-3.267,3.6a.486.486,0,0,1-.36.159" transform="translate(-2348.819 -373.099)" fill="#63acc2"/>
        <path id="Trazado_750104" data-name="Trazado 750104" d="M2156.575,675.626a.486.486,0,0,1-.359-.813l6.708-7.384a.486.486,0,0,1,.719.653l-6.708,7.384a.484.484,0,0,1-.36.159m13.417-14.767a.486.486,0,0,1-.359-.813l6.708-7.384a.486.486,0,0,1,.72.653l-6.708,7.384a.484.484,0,0,1-.36.159m13.416-14.767a.486.486,0,0,1-.36-.812l6.708-7.384a.486.486,0,0,1,.719.653l-6.708,7.384a.483.483,0,0,1-.359.159m13.416-14.767a.486.486,0,0,1-.359-.813l6.708-7.384a.486.486,0,0,1,.719.653l-6.708,7.384a.483.483,0,0,1-.36.159m13.417-14.767a.486.486,0,0,1-.36-.812l6.708-7.384a.486.486,0,0,1,.719.653L2210.6,616.4a.484.484,0,0,1-.36.159m13.416-14.767a.486.486,0,0,1-.359-.813l6.708-7.383a.486.486,0,0,1,.719.653l-6.708,7.384a.486.486,0,0,1-.36.159m13.417-14.767a.486.486,0,0,1-.36-.813l6.708-7.383a.486.486,0,1,1,.719.653l-6.708,7.384a.484.484,0,0,1-.36.159m13.416-14.767a.486.486,0,0,1-.359-.812l6.708-7.384a.486.486,0,0,1,.719.653l-6.708,7.384a.485.485,0,0,1-.36.159m13.416-14.767a.486.486,0,0,1-.359-.813l6.708-7.383a.486.486,0,1,1,.719.653l-6.708,7.384a.485.485,0,0,1-.36.159m13.417-14.767a.486.486,0,0,1-.36-.812l6.708-7.384a.486.486,0,0,1,.719.653l-6.708,7.384a.484.484,0,0,1-.359.159m13.416-14.767a.486.486,0,0,1-.36-.813l6.708-7.384a.486.486,0,0,1,.719.654l-6.708,7.383a.486.486,0,0,1-.36.159" transform="translate(-1737.055 -418.615)" fill="#63acc2"/>
        <path id="Trazado_750105" data-name="Trazado 750105" d="M2105.25,1359.984a.486.486,0,0,1-.36-.812l3.267-3.6a.486.486,0,0,1,.719.653l-3.266,3.6a.487.487,0,0,1-.36.159" transform="translate(-1695.705 -1091.993)" fill="#63acc2"/>
      </g>
    </g>
    <g id="Grupo_882326" data-name="Grupo 882326" transform="translate(206.166 131.302)">
      <g id="Grupo_882325" data-name="Grupo 882325" clip-path="url(#clip-path-6)">
        <path id="Trazado_750106" data-name="Trazado 750106" d="M1185.252,737.82a62.224,62.224,0,1,1-62.224-62.224,62.224,62.224,0,0,1,62.224,62.224" transform="translate(-1060.804 -675.596)" fill="#dfeffe"/>
        <path id="Trazado_750107" data-name="Trazado 750107" d="M1267.409,719.284c9.452-8.418,16.394-3.4,21.563,2.215a84.751,84.751,0,0,1,8.1,10.1,4.066,4.066,0,0,1,.91,2.306c.1,5.124,2.717,26.789-.2,34.264-3.4,8.714-45.292,12.7-45.292,12.7Z" transform="translate(-1215.238 -707.184)" fill="#303c60"/>
        <path id="Trazado_750108" data-name="Trazado 750108" d="M1465.332,846.717a.474.474,0,0,1-.023-.946,3.977,3.977,0,0,0,3.063-1.692c4.688-6.074,2.047-26.378-.253-37.417a.473.473,0,0,1,.927-.193,148.114,148.114,0,0,1,2.709,19.9c.539,9.172-.346,15.324-2.633,18.287a4.935,4.935,0,0,1-3.765,2.06h-.024" transform="translate(-1386.331 -780.729)" fill="#303c60"/>
        <path id="Trazado_750109" data-name="Trazado 750109" d="M1150.38,724.937c-18.166,10.043-7.089,44.012-30.129,56.122-6.383,3.355-25.993,20.381-13.144,42.83,8.4,14.684,33.526,11.52,41.8-1.477s1.477-97.476,1.477-97.476" transform="translate(-1094.664 -715.348)" fill="#303c60"/>
        <path id="Trazado_750110" data-name="Trazado 750110" d="M1096.772,854.735a.461.461,0,0,1-.063,0,.474.474,0,0,1-.407-.532,24.907,24.907,0,0,1,2.227-6.782,29.739,29.739,0,0,1,10.887-12.263c10.651-6.779,17.723-13.167,26.085-44.669a.474.474,0,0,1,.915.243c-4.044,15.234-8.054,25.533-12.621,32.413-4.242,6.391-8.607,9.462-13.872,12.812a28.344,28.344,0,0,0-12.683,18.37.473.473,0,0,1-.469.411" transform="translate(-1089.399 -767.874)" fill="#303c60"/>
        <path id="Trazado_750111" data-name="Trazado 750111" d="M1098.819,835.53a.474.474,0,0,1-.4-.727,32.939,32.939,0,0,1,9.985-10.178c14.96-9.675,17.436-15.238,29.8-47.109a.474.474,0,0,1,.883.342c-6.183,15.942-9.878,25.284-13.921,31.907-4.344,7.116-9.246,11.129-16.244,15.655a32,32,0,0,0-9.7,9.889.472.472,0,0,1-.4.221" transform="translate(-1091.049 -757.465)" fill="#303c60"/>
        <path id="Trazado_750112" data-name="Trazado 750112" d="M1322.094,834.008a52.96,52.96,0,0,0-5.292,24.778s.722,4.57,3.608,5.533,6.976-1.924,6.736-5.773.962-13.23,2.406-16.6-7.457-7.938-7.457-7.938" transform="translate(-1267.006 -803.221)" fill="#f09959"/>
        <path id="Trazado_750113" data-name="Trazado 750113" d="M1174.22,1259.241c.394,3.544-.492,3.249,2.659,3.84s8.763-1.576,8.763-1.576l-6.3-11.717Z" transform="translate(-1152.178 -1138.195)" fill="#6791c9"/>
        <path id="Trazado_750114" data-name="Trazado 750114" d="M1199.693,925.6c-1.772,5.76-15.063,1.329-19.716,2.658s-8.639,20.823-9.3,38.324.222,31.456,1.994,33.672,31.014,3.1,33.672,2.215-22.152-11.962-22.152-11.962-1.551-20.38.443-30.792,19.937-24.146,19.937-24.146Z" transform="translate(-1149.142 -877.014)" fill="#f09959"/>
        <path id="Trazado_750115" data-name="Trazado 750115" d="M1347.31,934.721c4.652,7.089,16.836,6.2,21.045,11.962s13.07,37.438,13.07,37.438l9.3-32.121s7.545-1.267,5.095,3.987c-4.358,9.346-5.983,39.5-10.709,43.782-5.255,4.763-10.486.886-13.437-7.452-2.855-8.066-9.968-25.475-15.064-32.121s-10.633-17.279-10.633-17.279Z" transform="translate(-1290.557 -884.36)" fill="#f09959"/>
        <path id="Trazado_750116" data-name="Trazado 750116" d="M1180.878,935.486c9.3,10.855,27.469,10.412,31.456,9.082l3.987-1.329a5.426,5.426,0,0,1,5.76,1.993c2.658,3.1,9.083,22.6,10.19,27.026s2.88,11.741,2.88,11.741-4.753,5.7-4.753,11.464,2.018,5.809,2.018,5.809-5.9-1.323-7.234-4.868-13.291-35.665-13.291-35.665l-33.007.665.443,36.33s-2.88-2.658-6.867,0-5.317,8.861-4.652,9.747-1.329.886-1.329.222-3.766-16.836-1.108-43.419,7.753-29.463,10.633-29.684a9.36,9.36,0,0,1,4.874.886" transform="translate(-1144.284 -884.239)" fill="#75a1de"/>
        <path id="Trazado_750117" data-name="Trazado 750117" d="M1507.328,1275.421a.348.348,0,0,0,.1.021l-.1-.021" transform="translate(-1420.547 -1158.846)" fill="#6791c9"/>
        <path id="Trazado_750118" data-name="Trazado 750118" d="M1441.753,1064.481c-1.92.591-5.169,7.385-5.169,7.385a132.808,132.808,0,0,1-9.6-38.4l-2.636,15.13c3.639,9.77,9.35,25.1,10.245,27.485,1.216,3.242,6.119,4.595,6.792,4.745-.184-.062-.59-.307-.927-1.281-.194-.177-1.3-.7-1.511-.886-1.773-1.625-1.034-5.464.148-9.747s4.578-5.021,2.658-4.431" transform="translate(-1353.694 -963.914)" fill="#6791c9"/>
        <path id="Trazado_750119" data-name="Trazado 750119" d="M1216.544,1003.088l-3.661-16.738c-3.988,5.612-4.43,24.812-2.806,37.957,1.332,10.78,3.325,13.577,4.695,14.7a4.012,4.012,0,0,1,.627.443l-.443-36.33Z" transform="translate(-1180.355 -925.955)" fill="#6791c9"/>
        <path id="Trazado_750120" data-name="Trazado 750120" d="M1192.458,985.59c6.794,18.314,3.4,22.006,12.337,43.5,4.993,12.005,14.621,21.045,14.621,21.045a61.158,61.158,0,0,0,17.5,1.329c9.747-.665,16.883-1.334,16.883-1.334s-10.237-6.2-10.68-10.406-2.366-20.9.145-32.719c1.961-9.226-6.126-18.453-6.126-18.453l-13.513-.664Z" transform="translate(-1166.871 -925.343)" fill="#75a1de"/>
        <g id="Grupo_882324" data-name="Grupo 882324" transform="translate(37.406 86.718)" opacity="0.5">
          <g id="Grupo_882323" data-name="Grupo 882323">
            <g id="Grupo_882322" data-name="Grupo 882322" clip-path="url(#clip-path-7)">
              <path id="Trazado_750121" data-name="Trazado 750121" d="M1253.417,1123.384c-1.182-4.283,5.021,1.329,15.212,2.363s21.563-.591,15.951,1.182-20.972-.886-18.166,4.727c3.3,6.6,7.2,13,12.849,16.836,3.692,2.511,12.554,4.874,3.988,3.545s-17.723-11.372-21.71-17.871-7.86-9.826-8.123-10.781" transform="translate(-1253.273 -1121.794)" fill="#6791c9"/>
            </g>
          </g>
        </g>
        <path id="Trazado_750122" data-name="Trazado 750122" d="M1341.94,860.507c.09-4.421,1.168-11.967,2.43-14.912,1.034-2.413-3.241-5.443-5.749-6.967l-2.121-.091q-.485,1.056-.909,2.1c-2.239,14.7,4.462,20.778,7.66,22a9.667,9.667,0,0,0,4.248.467,25.741,25.741,0,0,1-5.56-2.6" transform="translate(-1281.825 -806.87)" fill="#e38540"/>
        <path id="Trazado_750123" data-name="Trazado 750123" d="M1309.159,948.308a10.02,10.02,0,0,1-2.363-.286c-1.853-.452-6.273-2.168-7.3-8.335a.268.268,0,1,1,.529-.089c.975,5.851,5.15,7.475,6.9,7.9,2.716.663,5.6.051,6.7-1.422.885-1.18.352-3.695.347-3.72a.268.268,0,1,1,.524-.114c.025.113.589,2.782-.442,4.157a6.124,6.124,0,0,1-4.9,1.907" transform="translate(-1253.103 -888.109)" fill="#f5ce5c"/>
        <path id="Trazado_750124" data-name="Trazado 750124" d="M1367.241,794.616c-1.5,7.935-4.973,14.336-10.847,13.13s-12.047-9.588-10.422-17.5,7.7-13.346,13.577-12.139,9.694,5.935,7.692,16.508" transform="translate(-1290.338 -758.05)" fill="#f09959"/>
        <path id="Trazado_750125" data-name="Trazado 750125" d="M1516.327,1065.382s-10.855,29.169-11.372,32.2.517,4.948.812,4.948,9.526-15.8,9.526-15.8Z" transform="translate(-1418.52 -989.627)" fill="#f09959"/>
        <path id="Trazado_750126" data-name="Trazado 750126" d="M1564.3,1031.042c.886-2.954-.492-6.7-.492-6.7l3.938.492Z" transform="translate(-1466.048 -956.568)" fill="#f09959"/>
        <path id="Trazado_750127" data-name="Trazado 750127" d="M1538.916,928.185h-10.989a1,1,0,0,1-.955-1.282l6.937-23.26a1,1,0,0,1,.955-.712h10.989a1,1,0,0,1,.956,1.282l-6.937,23.26a1,1,0,0,1-.955.712" transform="translate(-1436.338 -858.749)" fill="#4381db"/>
        <path id="Trazado_750128" data-name="Trazado 750128" d="M1546.008,928.185h-10.989a1,1,0,0,1-.955-1.282l6.937-23.26a1,1,0,0,1,.955-.712h10.989a1,1,0,0,1,.956,1.282l-6.937,23.26a1,1,0,0,1-.955.712" transform="translate(-1442.052 -858.749)" fill="#2e5b9a"/>
        <path id="Trazado_750129" data-name="Trazado 750129" d="M1547.331,914.852c-1.171,4.221-1.96,7.688-1.761,7.743s1.31-3.322,2.481-7.543,1.96-7.688,1.761-7.743-1.31,3.322-2.481,7.543" transform="translate(-1451.331 -862.275)" fill="#9cbeed"/>
        <path id="Trazado_750130" data-name="Trazado 750130" d="M1576.932,961.137c.325-3.836,3.647-7.431,4.911-8.579a1.815,1.815,0,0,0,.6-1.362c-.018-1.912-.1-6.426-.5-6.953-.5-.671-1.762-9.313-2.349-8.978s.168,7.887.168,7.887-1.427-.671-2.182-1.007-3.86,3.1-3.86,3.1-1.456,3.677,2.524,2.1c4.726-1.871,1.181,3.348-1.969,6.7-2.6,2.758-.387,3.369-.387,3.369l2.1-.084Z" transform="translate(-1473.463 -884.791)" fill="#f09959"/>
        <path id="Trazado_750131" data-name="Trazado 750131" d="M1568.64,1062.7a3.9,3.9,0,0,1-1.143-.178c-1.027-.32-2.822-1.353-3.3-4.671a.268.268,0,0,1,.531-.076c.4,2.777,1.732,3.81,2.782,4.187a2.737,2.737,0,0,0,1.82.085.268.268,0,0,1,.513-.051.368.368,0,0,1-.082.392,1.645,1.645,0,0,1-1.126.311" transform="translate(-1466.364 -983.31)" fill="#f5ce5c"/>
        <path id="Trazado_750132" data-name="Trazado 750132" d="M1566.234,1066.493a6.96,6.96,0,0,1-.987-.071c-1.909-.277-3.19-1.247-3.512-2.662a.268.268,0,0,1,.523-.119,3.023,3.023,0,0,0,2.365,2.106,4.561,4.561,0,0,0,2.87-.01.263.263,0,0,1,.362-.1.275.275,0,0,1,.1.372c-.187.332-.912.483-1.72.483" transform="translate(-1464.374 -988.056)" fill="#f5ce5c"/>
        <path id="Trazado_750133" data-name="Trazado 750133" d="M1409.148,843.47a2.424,2.424,0,0,1-.368-.028c-1.887-.289-3.028-2.714-2.6-5.522s2.247-4.778,4.131-4.491,3.028,2.714,2.6,5.521c-.4,2.624-2.014,4.519-3.763,4.519m.807-9.121c-1.25,0-2.517,1.628-2.837,3.714-.338,2.206.489,4.241,1.805,4.442s2.714-1.492,3.052-3.7-.489-4.24-1.805-4.442a1.4,1.4,0,0,0-.215-.016" transform="translate(-1338.985 -802.733)" fill="#fff"/>
        <path id="Trazado_750134" data-name="Trazado 750134" d="M1445.873,848.586a1.227,1.227,0,0,1-.189-.014c-1.258-.193-1.917-2.231-1.533-4.742s1.624-4.258,2.882-4.066,1.917,2.231,1.533,4.742a7.521,7.521,0,0,1-1.036,2.923,2.134,2.134,0,0,1-1.656,1.157m.973-8.12c-.7,0-1.666,1.373-1.988,3.472-.333,2.178.225,3.817.934,3.926.345.053.759-.249,1.139-.828a6.792,6.792,0,0,0,.927-2.638c.334-2.178-.224-3.817-.934-3.926a.522.522,0,0,0-.078-.006" transform="translate(-1369.56 -807.847)" fill="#fff"/>
        <path id="Trazado_750135" data-name="Trazado 750135" d="M1349.353,826.373a.472.472,0,0,1-.13-.018l-14.474-4.135a.474.474,0,0,1,.26-.911l14.474,4.135a.474.474,0,0,1-.13.929" transform="translate(-1281.231 -792.975)" fill="#fff"/>
        <path id="Trazado_750136" data-name="Trazado 750136" d="M1366.553,766.645c-22.4,13.193-23.63,4.332-23.63,4.332l1.329-12.6,13.292.739Z" transform="translate(-1288.094 -742.286)" fill="#303c60"/>
        <path id="Trazado_750137" data-name="Trazado 750137" d="M1330.131,823.818c.521,2.23-.191,4.3-1.589,4.63s-2.956-1.216-3.477-3.446.191-4.3,1.59-4.63,2.955,1.216,3.477,3.446" transform="translate(-1273.568 -792.2)" fill="#f09959"/>
        <path id="Trazado_750138" data-name="Trazado 750138" d="M1336.63,849.7a.882.882,0,1,1-.882-.882.882.882,0,0,1,.882.882" transform="translate(-1281.602 -815.155)" fill="#f5ce5c"/>
        <path id="Trazado_750139" data-name="Trazado 750139" d="M1377.119,1278.887s6.055-2.658,7.828-1.477,6.892,6.6,6.892,6.6Z" transform="translate(-1315.644 -1160.204)" fill="#f09959"/>
        <path id="Trazado_750140" data-name="Trazado 750140" d="M1394.607,1269.32c-.115.144-.287.2-.383.133l-12.46-9.276c-.671-.5-.99-1.264-.667-1.667s1.138-.26,1.773.286l11.783,10.122c.091.078.07.259-.045.4" transform="translate(-1318.746 -1145.035)" fill="#2e5b9a"/>
        <path id="Trazado_750141" data-name="Trazado 750141" d="M1271.869,1280.439s10.043,3.988,11.224,3.988,7.778-4.431,9.993-3.84,13.046,6.055,12.751,6.5-3.4,1.477-12.554,1.182-24.073-1.625-24.073-1.625Z" transform="translate(-1228.706 -1162.888)" fill="#f09959"/>
      </g>
    </g>
    <g id="Grupo_882328" data-name="Grupo 882328" transform="translate(0 0.001)">
      <g id="Grupo_882327" data-name="Grupo 882327" clip-path="url(#clip-path-2)">
        <path id="Trazado_750143" data-name="Trazado 750143" d="M1778.3,1543.26s-52.662-36.578-74.939-15.487c-17.787,16.841,13.786,36.625,54.178,31.305,28.431-3.745,31.653,1.694,36.633,1.577,37.056-2.84,86.988-13.926,62.689-31.344-33.1-23.728-55.493,1.427-67.027,7.688Z" transform="translate(-1368.222 -1224.04)" fill="#232e4f"/>
        <path id="Trazado_750144" data-name="Trazado 750144" d="M1881.995,1539.825c-13.841-2.856-66.57,16.7-66.57,16.7s-45.918-13.841-56.9-15.16-16.038,2.856-16.038,2.856,5.183-5.841,11.2-6.371,14.72-1.978,14.72-1.978,87.881-4.174,99.526-1.538,14.061,5.493,14.061,5.493" transform="translate(-1403.833 -1235.433)" fill="#1b243d"/>
        <path id="Trazado_750145" data-name="Trazado 750145" d="M1931.144,1199.96c-2.088.329-34.551,14.49-34.949,20.421s8.894,54.055,26.864,60.316,38.073,0,38.073,0,21.09-52.067,14.829-61.953-34.6-18.784-34.6-18.784Z" transform="translate(-1527.661 -966.749)" fill="#ffb338"/>
        <path id="Trazado_750146" data-name="Trazado 750146" d="M1814.453,1247.476c-31.014,16.618-38.63,46.622-30.427,53.235,5.748,4.634,27.419,14.884,46.2,14.225a306.452,306.452,0,0,1,36.425,1.109s32.223-6.556,38.649-16.213-11.4-41.025-27.39-50.092-63.459-2.264-63.459-2.264" transform="translate(-1434.829 -1003.057)" fill="#ffb338"/>
        <path id="Trazado_750147" data-name="Trazado 750147" d="M2073.127,1123.119a7.823,7.823,0,0,1-7.8-7.8v-26.252a7.8,7.8,0,1,1,15.6,0v26.252a7.822,7.822,0,0,1-7.8,7.8" transform="translate(-1663.932 -871.124)" fill="#f09959"/>
        <path id="Trazado_750148" data-name="Trazado 750148" d="M2073.127,1081.267a7.823,7.823,0,0,0-7.8,7.8v21.466c4.6,3.843,9.051,1.829,15.6-3.245v-18.221a7.823,7.823,0,0,0-7.8-7.8" transform="translate(-1663.932 -871.124)" fill="#e38540"/>
        <path id="Trazado_750149" data-name="Trazado 750149" d="M2170.261,1100.053c-1.281,2.617-3.363,4.068-4.649,3.241s-1.29-3.618-.008-6.234,3.364-4.068,4.649-3.241,1.29,3.618.008,6.234" transform="translate(-1743.948 -881.05)" fill="#f09959"/>
        <path id="Trazado_750150" data-name="Trazado 750150" d="M2015.782,1101.318c1.482,2.381,1.767,5.258.636,6.426s-3.25.186-4.731-2.2-1.767-5.258-.636-6.426,3.25-.185,4.732,2.2" transform="translate(-1619.647 -885.113)" fill="#f09959"/>
        <path id="Trazado_750151" data-name="Trazado 750151" d="M2065.073,1054.4c0,9.539-6.006,17.272-13.414,17.272s-13.414-7.733-13.414-17.272,6.006-17.272,13.414-17.272,13.414,7.733,13.414,17.272" transform="translate(-1642.114 -835.56)" fill="#f09959"/>
        <path id="Trazado_750152" data-name="Trazado 750152" d="M2220.238,1345.956c8.788,4.687,16.446,22.448,16.446,22.448s-19.773,3.075-23.875,6.151.586-1.172,2.93-9.667,4.5-18.933,4.5-18.933" transform="translate(-1781.444 -1084.371)" fill="#cc8f2c"/>
        <path id="Trazado_750153" data-name="Trazado 750153" d="M1859.766,1339.369c2.051,9.374,11.864,35.545,11.864,35.545s-9.09-10.352-18.748-10.938-13.243-.732-13.182,1.611c.012.463,1.611-10.4,9.081-17.136a112.628,112.628,0,0,1,10.985-9.081" transform="translate(-1482.155 -1079.064)" fill="#cc8f2c"/>
        <path id="Trazado_750154" data-name="Trazado 750154" d="M1981.406,1448.437h-53.065a4.377,4.377,0,0,1-4.317-3.654l-6.4-38.188a4.376,4.376,0,0,1,4.317-5.1H1987.8a4.377,4.377,0,0,1,4.317,5.1l-6.4,38.188a4.377,4.377,0,0,1-4.316,3.654" transform="translate(-1544.887 -1129.117)" fill="#2a66c6"/>
        <path id="Trazado_750155" data-name="Trazado 750155" d="M1981.406,1455.457h-53.065a4.333,4.333,0,0,1-4.317-3.522l-6.4-36.81a4.27,4.27,0,0,1,4.317-4.916H1987.8a4.27,4.27,0,0,1,4.317,4.916l-6.4,36.81a4.333,4.333,0,0,1-4.316,3.522" transform="translate(-1544.887 -1136.137)" fill="#63acc2"/>
        <path id="Trazado_750156" data-name="Trazado 750156" d="M1967.435,1701.4c-.318-.055-34.272-8.553-41.851-2.291s25.375,6.368,31.306,5,10.545-2.7,10.545-2.7" transform="translate(-1550.441 -1367.031)" fill="#1b243d"/>
        <path id="Trazado_750157" data-name="Trazado 750157" d="M2184.591,1709.227a25.965,25.965,0,0,1,16.806-4.474c9.557.988,17.8,3.072,9.557,5.655a60.561,60.561,0,0,1-20.761,2.583,7.173,7.173,0,0,1-5.6-3.764" transform="translate(-1760.018 -1373.34)" fill="#1b243d"/>
        <path id="Trazado_750158" data-name="Trazado 750158" d="M2063.985,997.1c-8.714,2.643-5.681,27.173,4.28,26.364s10.366-11.414,9.659-18.283-4.95-10.808-13.94-8.081" transform="translate(-1658.72 -802.615)" fill="#0f2d5c"/>
        <path id="Trazado_750159" data-name="Trazado 750159" d="M2029.142,1021.8c-2.425-2.323-5.758,4.989-4.445,8.2s-.523,5.083,1.253,8.542-3.274-2.2-3.981-6.339-1.111-11.313-2.121-14.546.051-8.837,4.552-10,5.549-3.233,7.266-3.333,9.9.707,13.94,2.929,6.263,5.556,5.96,10.606-1.616,17.98-2.828,20.1-1.84,1.619-1.476.405,1.678-8.486.668-11.113-.506-9.091-3.131-9.6-2.021,3.974-5.152,4.31a90.5,90.5,0,0,1-10.505-.168" transform="translate(-1627.01 -809.126)" fill="#0f2d5c"/>
        <path id="Trazado_750160" data-name="Trazado 750160" d="M1613.706,707.611h-47.847a2.74,2.74,0,0,1-2.739-2.774l.252-19.879a2.825,2.825,0,0,1,2.809-2.774h47.847a2.74,2.74,0,0,1,2.739,2.774l-.252,19.879a2.825,2.825,0,0,1-2.809,2.774" transform="translate(-1259.329 -549.604)" fill="#9ec8ff"/>
        <path id="Trazado_750161" data-name="Trazado 750161" d="M1622.846,714.154h-43.089a2.373,2.373,0,0,1-2.372-2.4l.208-16.46a2.446,2.446,0,0,1,2.433-2.4h43.089a2.373,2.373,0,0,1,2.372,2.4l-.208,16.46a2.447,2.447,0,0,1-2.433,2.4" transform="translate(-1270.822 -558.227)" fill="#fff"/>
        <path id="Trazado_750162" data-name="Trazado 750162" d="M1635.111,807.064c-.287,10.479-5.259,13.715-5.259,13.715s2.234-6.01.576-8.938a10.653,10.653,0,0,0-4.416-4.161Z" transform="translate(-1309.997 -650.212)" fill="#9ec8ff"/>
        <path id="Trazado_750163" data-name="Trazado 750163" d="M1682.721,715.991h-27.776a.818.818,0,0,1-.818-.828v-.038a.844.844,0,0,1,.839-.828h27.776a.818.818,0,0,1,.818.828v.038a.843.843,0,0,1-.838.828" transform="translate(-1332.648 -575.474)" fill="#9ec8ff"/>
        <path id="Trazado_750164" data-name="Trazado 750164" d="M1682.49,734.227h-27.776a.818.818,0,0,1-.818-.828v-.039a.844.844,0,0,1,.839-.828h27.776a.818.818,0,0,1,.818.828v.039a.843.843,0,0,1-.839.828" transform="translate(-1332.463 -590.166)" fill="#9ec8ff"/>
        <path id="Trazado_750165" data-name="Trazado 750165" d="M1682.229,754.843h-27.776a.818.818,0,0,1-.818-.828v-.038a.843.843,0,0,1,.839-.828h27.776a.818.818,0,0,1,.818.828v.038a.844.844,0,0,1-.839.828" transform="translate(-1332.252 -606.775)" fill="#9ec8ff"/>
        <path id="Trazado_750166" data-name="Trazado 750166" d="M1604.15,715.009c-.038,3.021-2.07,5.47-4.538,5.47s-4.438-2.449-4.4-5.47,2.07-5.471,4.538-5.471,4.438,2.449,4.4,5.471" transform="translate(-1285.183 -571.64)" fill="#9ec8ff"/>
        <path id="Trazado_750167" data-name="Trazado 750167" d="M1816.763,892.542H1768.3a2.775,2.775,0,0,1-2.774-2.809l.255-20.133a2.861,2.861,0,0,1,2.845-2.809h48.461a2.775,2.775,0,0,1,2.774,2.809l-.255,20.133a2.861,2.861,0,0,1-2.845,2.809" transform="translate(-1422.4 -698.331)" fill="#9ec8ff"/>
        <path id="Trazado_750168" data-name="Trazado 750168" d="M1826.02,899.169H1782.38a2.4,2.4,0,0,1-2.4-2.433l.211-16.671a2.478,2.478,0,0,1,2.464-2.433h43.641a2.4,2.4,0,0,1,2.4,2.433l-.211,16.671a2.478,2.478,0,0,1-2.464,2.433" transform="translate(-1434.04 -707.065)" fill="#fff"/>
        <path id="Trazado_750169" data-name="Trazado 750169" d="M1910.641,993.27c.021,10.613,4.974,13.891,4.974,13.891s-2.108-6.087-.354-9.052a11.189,11.189,0,0,1,4.58-4.214Z" transform="translate(-1539.309 -800.229)" fill="#9ec8ff"/>
        <path id="Trazado_750170" data-name="Trazado 750170" d="M1828.7,908.258h-23.738a.763.763,0,0,1-.763-.773l0-.172a.787.787,0,0,1,.783-.773h23.739a.763.763,0,0,1,.763.773l0,.172a.787.787,0,0,1-.782.773" transform="translate(-1453.558 -730.356)" fill="#9ec8ff"/>
        <path id="Trazado_750171" data-name="Trazado 750171" d="M1828.471,926.729h-23.739a.763.763,0,0,1-.763-.773l0-.172a.787.787,0,0,1,.783-.772h23.738a.763.763,0,0,1,.763.772l0,.172a.787.787,0,0,1-.782.773" transform="translate(-1453.37 -745.237)" fill="#9ec8ff"/>
        <path id="Trazado_750172" data-name="Trazado 750172" d="M1828.206,947.608h-23.739a.763.763,0,0,1-.763-.773l0-.172a.787.787,0,0,1,.782-.772h23.738a.763.763,0,0,1,.763.772l0,.172a.787.787,0,0,1-.782.773" transform="translate(-1453.156 -762.058)" fill="#9ec8ff"/>
        <path id="Trazado_750173" data-name="Trazado 750173" d="M1963.335,909.546H1959.9a2.774,2.774,0,0,1-2.773-2.809l.089-7.023a2.861,2.861,0,0,1,2.845-2.809h3.434a2.775,2.775,0,0,1,2.774,2.809l-.089,7.023a2.861,2.861,0,0,1-2.845,2.809" transform="translate(-1576.762 -722.592)" fill="#9ec8ff"/>
      </g>
    </g>
    <g id="Grupo_882330" data-name="Grupo 882330" transform="translate(76.638 10.236)">
      <g id="Grupo_882329" data-name="Grupo 882329" clip-path="url(#clip-path-9)">
        <path id="Trazado_750174" data-name="Trazado 750174" d="M542.034,126.521a73.853,73.853,0,1,1-73.853-73.853,73.853,73.853,0,0,1,73.853,73.853" transform="translate(-394.329 -52.668)" fill="#dfeffe"/>
        <path id="Trazado_750175" data-name="Trazado 750175" d="M598.443,372.718c9.77,7.056,30.756,10.131,37.45,10.493s-3.716,18.815-3.716,18.815-17.994,2.171-26.5,0-7.237-29.309-7.237-29.309" transform="translate(-558.72 -310.517)" fill="#bc5824"/>
        <path id="Trazado_750176" data-name="Trazado 750176" d="M473.753,1304.157c.121,4.824,2.87,7.7,7.357,11.036,4.7,3.5,4.945,3.886-1.568,4.747s-8.322-2.094-12.664-3.361-1.568-4.342-1.809-7.237-.653-7.6-.653-7.6Z" transform="translate(-450.795 -1058.988)" fill="#303c60"/>
        <path id="Trazado_750177" data-name="Trazado 750177" d="M671.779,1301.745a72.876,72.876,0,0,0,6.754,6.681c3.86,3.33,13.629,4.465,8.925,5.706s-9.973.572-14.816,1.269-9.065.023-9.427-1.269,0-10.457,0-10.457Z" transform="translate(-610.828 -1058.988)" fill="#303c60"/>
        <path id="Trazado_750178" data-name="Trazado 750178" d="M711.759,206.942c6.055-5.748,17.184,1.58,18.233,6.452,2.7,12.533,3.894,25.492.609,30.584s-30.34,6.532-32.181,6.488c-2.476-.06-3.921-8.454.925-13.956s7-15.419,7.891-20.5c1.068-6.111,3.554-8.146,4.523-9.067" transform="translate(-637.478 -175.263)" fill="#58556e"/>
        <path id="Trazado_750179" data-name="Trazado 750179" d="M866.21,266.234a.291.291,0,0,1-.289-.332c1.419-10.242-.479-21.96-4.724-29.159a.292.292,0,1,1,.5-.3c4.307,7.3,6.236,19.172,4.8,29.535a.291.291,0,0,1-.288.252" transform="translate(-770.429 -200.615)" fill="#58556e"/>
        <path id="Trazado_750180" data-name="Trazado 750180" d="M860.305,251.48h-.018a.292.292,0,0,1-.273-.309c.58-9.275-4.04-20.9-8.251-24.339a.292.292,0,1,1,.369-.451c4.316,3.526,9.054,15.387,8.463,24.827a.292.292,0,0,1-.291.273" transform="translate(-762.775 -192.566)" fill="#58556e"/>
        <path id="Trazado_750181" data-name="Trazado 750181" d="M632.121,404.161c-2.062,14.6-4.052,42.1-10.022,48.8s-9.294,22.658-9.294,22.658S632.1,465.08,640,439.174c2.477-8.127-3.568-27.1-5.034-28.912s-2.842-6.1-2.842-6.1" transform="translate(-570.344 -335.849)" fill="#7ec1d6"/>
        <path id="Trazado_750182" data-name="Trazado 750182" d="M852.93,610.56c-1.192,1.448-4.387,8.464-6.007,8.464-5.518,0-5.925,2.164-8.918,3.748-3.845,2.035-3.03,5.156-2.759,5.337s8.452-1.252,11.2-3.041c2.28-1.485,3.9-2.3,5.013-3.924s7.406-6.332,7.406-6.332Z" transform="translate(-749.343 -502.134)" fill="#f09959"/>
        <path id="Trazado_750183" data-name="Trazado 750183" d="M878.366,387.638c5.582,3.372,6.607,6.508,12.1,16.036s6.453,12.966,8.624,16.4,2.895,7.418-1.688,11.76c-4.378,4.147-6.422,5.841-8.825,5.192-1.619-.437-2.9-5.152-5.148-4.3s1.73-5.779,3.781-7.649c1.117-1.018,1.568-.941,1.206-1.4a88.976,88.976,0,0,1-12.966-13.008c-5.729-7.418,2.921-23.032,2.921-23.032" transform="translate(-780.361 -322.537)" fill="#8ddaf2"/>
        <path id="Trazado_750184" data-name="Trazado 750184" d="M947.19,567.141c-2.716-1.22-6.111-1.046-8.6-.573.641.539,1.045.874,1.126.977.362.465-.089.387-1.206,1.4a12.206,12.206,0,0,0-1.344,1.527,19.345,19.345,0,0,1,5.686-2.161c4.342-.633,4.613.543,6.875,1.99s1.9-1.176-2.533-3.166" transform="translate(-831.663 -466.404)" fill="#7ec1d6"/>
        <path id="Trazado_750185" data-name="Trazado 750185" d="M883.979,392.685a17.871,17.871,0,0,0-5.613-5.048s-8.65,15.614-2.921,23.032A68.042,68.042,0,0,0,881,416.964c.117-5,.643-16.169,2.977-24.279" transform="translate(-780.361 -322.536)" fill="#7ec1d6"/>
        <path id="Trazado_750186" data-name="Trazado 750186" d="M726.527,360.459c-7.478,1.689-13.512,3.894-15.056,8.232-.749,2.1,3.588,36.846,7.93,40.706,8.38,7.449,22.193.482,22.193.482s6.272-15.619,8.76-41.838c.648-2.366-14.308-7.009-16.72-7.492a34.929,34.929,0,0,0-7.106-.09" transform="translate(-649.766 -300.519)" fill="#8ddaf2"/>
        <path id="Trazado_750187" data-name="Trazado 750187" d="M777.12,1295.682s-10.247,14.183-4.1,13.681,10.167-6.834,10.167-6.834,2.135,7.181,8.286,6.847,2.682-4.1,0-8.488a19.273,19.273,0,0,1-2.668-8.5Z" transform="translate(-697.841 -1051.449)" fill="#f09959"/>
        <path id="Trazado_750188" data-name="Trazado 750188" d="M787.649,286.495a4.627,4.627,0,0,1-4.613-4.613V264.694a4.613,4.613,0,1,1,9.227,0v17.187a4.627,4.627,0,0,1-4.613,4.613" transform="translate(-707.491 -219.77)" fill="#f09959"/>
        <path id="Trazado_750189" data-name="Trazado 750189" d="M787.649,260.081a4.627,4.627,0,0,0-4.613,4.613v7.781a28.694,28.694,0,0,0,9.227,8.512V264.694a4.627,4.627,0,0,0-4.613-4.613" transform="translate(-707.491 -219.77)" fill="#e38540"/>
        <path id="Trazado_750190" data-name="Trazado 750190" d="M798.382,233.016c1.442,6.148-1.013,11.982-5.485,13.031s-9.265-3.085-10.707-9.233,1.013-11.982,5.484-13.031,9.265,3.085,10.707,9.233" transform="translate(-706.477 -190.397)" fill="#f09959"/>
        <path id="Trazado_750191" data-name="Trazado 750191" d="M713.689,578.746s-14.382,10.855-9.769,46.4,9.5,34.463,9.769,51.559,7.6,40.7,11.94,45.318,15-20.117,15-42.068c0-12.826.006-18.989,2.991-39.069s2.357-49.388-9.583-62.142-20.352,0-20.352,0" transform="translate(-643.016 -471.937)" fill="#f09959"/>
        <path id="Trazado_750192" data-name="Trazado 750192" d="M732.893,799.859c-.012-8.412-2.8-26.292-2.163-51.007L712.385,773.3c4.324,28.944,8.605,29.046,8.859,45.02.206,12.954,4.462,29.645,8.4,38.98,2.56.919,4.28,2,4.735,3.352a14.505,14.505,0,0,0,1.254,3.109c.086-.056.173-.116.261-.183.21-1.514-.888-9.24-2.09-20.481-2.032-19-.9-34.828-.912-43.24" transform="translate(-650.571 -613.549)" fill="#e38540"/>
        <path id="Trazado_750193" data-name="Trazado 750193" d="M700.7,536.911c2.392,14.054.956,15.954-2.4,27.622s-3.4,42.6-3.4,42.6,9.091,3.8,26.684,2.171,20.035-3.528,20.035-3.528-2-30.121-4.528-39.076-6.48-15.079-6.675-20.836-29.722-8.957-29.722-8.957" transform="translate(-636.49 -442.799)" fill="#8ddaf2"/>
        <path id="Trazado_750194" data-name="Trazado 750194" d="M773.023,1333.3c6.151-.5,10.168-6.834,10.168-6.834s2.135,7.181,8.286,6.847c5.282-.287,3.469-3.1,1.154-6.673-.211.8-.865,1.553-2.6,1.486-3.634-.14-7.047-4.554-7.047-4.554s-6.341,4.885-8.693,4.537,1.144-6,1.147-6.008c-2.619,4.042-6.924,11.568-2.414,11.2" transform="translate(-697.84 -1075.387)" fill="#3e6bab"/>
        <path id="Trazado_750195" data-name="Trazado 750195" d="M543.806,209.541c-2.858-4.014-5.728-14.937-3.177-16.053s1.914-2.87,4.465-6.139,12.837-4.545,15.867.957,4.329,6.06,4.437,9.01S558.25,207.6,558.25,207.6Z" transform="translate(-511.4 -158.908)" fill="#58556e"/>
        <path id="Trazado_750196" data-name="Trazado 750196" d="M849.141,642.917c-.833,1.249-1.629,2.175-2.218,2.175-5.518,0-5.925,2.164-8.918,3.749-3.844,2.035-3.03,5.156-2.759,5.337s8.452-1.252,11.2-3.041c2.28-1.486,3.9-2.3,5.013-3.924A8.69,8.69,0,0,1,852.581,646a25.351,25.351,0,0,1-3.441-3.079" transform="translate(-749.343 -528.203)" fill="#f09959"/>
        <path id="Trazado_750197" data-name="Trazado 750197" d="M502.861,240.532s-1.809,22.273-5.789,24.705-11.579,11.478-10.493,31.017,2.533,27.967,3.98,35.513,28.585,2.948,31.48,0,6.151-29.9,0-43.563-13.026-21.379-13.75-24.756,3.98-16.946,3.98-16.946Z" transform="translate(-468.565 -204.021)" fill="#f09959"/>
        <path id="Trazado_750198" data-name="Trazado 750198" d="M571.089,262.717c-.091-4.259,4.054-16.215,4.054-16.215l-9.408-5.97s-.394,4.855-1.22,10.28c1.22,7.541,3.663,10.436,6.574,11.906" transform="translate(-531.44 -204.021)" fill="#e38540"/>
        <path id="Trazado_750199" data-name="Trazado 750199" d="M587.8,228.268c.906,6.543-1.347,11.665-6.058,12.317s-10.095-3.411-11-9.954,2.177-12.376,6.888-13.028,9.264,4.122,10.171,10.665" transform="translate(-536.33 -185.5)" fill="#f09959"/>
        <path id="Trazado_750200" data-name="Trazado 750200" d="M916.263,400.666c2.77,1.721,4.881,6.03,3.669,9.528s-2.893-.99-4.738-3.558-1-7.258,1.069-5.97" transform="translate(-813.143 -332.856)" fill="#f09959"/>
        <path id="Trazado_750201" data-name="Trazado 750201" d="M573.833,632.9c-1.9,22.847,4.524,74.406,4.569,86.074s4.7,43.575,4.7,43.575-7.6,2.183-10.583,2.437-11.606-28.916-12.882-44.384-9.344-42.917-9.344-42.917l2.763-47.094Z" transform="translate(-519.985 -518.271)" fill="#3e6bab"/>
        <path id="Trazado_750202" data-name="Trazado 750202" d="M573.833,632.9l-20.773-2.308L550.3,677.683s8.068,27.449,9.344,42.917c.017.2.035.406.054.614.155-23.84,7.086-34.189,14.411-59.431-.631-11.085-.888-21.49-.273-28.885" transform="translate(-519.985 -518.271)" fill="#2e5b9a"/>
        <path id="Trazado_750203" data-name="Trazado 750203" d="M479.7,660.817c-9.769,33.106-18.724,64.313-24.694,84.936s-4.176,41.824-4.176,41.824l-10.04.8S429.5,754.384,437.1,735.985s3.984-29.484,5.427-46.674c1.628-19.392,4.366-33.562,4.366-33.562Z" transform="translate(-426.671 -538.54)" fill="#3e6bab"/>
        <path id="Trazado_750204" data-name="Trazado 750204" d="M514.676,388.546a129.418,129.418,0,0,0-9.471-17.114,36.67,36.67,0,0,0-4.343-.345c-2.8-.055-7.675-3.648-10.582-6.008a2.558,2.558,0,0,1-.571.5c-3.98,2.432-11.579,11.478-10.493,31.017s-3.015,26.211-1.568,33.757,34.133,4.7,37.028,1.756,6.151-29.9,0-43.563" transform="translate(-461.203 -304.363)" fill="#eb6f2d"/>
        <path id="Trazado_750205" data-name="Trazado 750205" d="M526.342,339l-2.938,7.749,18.618,7.568,2.15-1.846s-2.873-4.185-2.15-6.718,1.568-3.257,0-3.86-7.144-1.568-10.628-2.894-4.447-1.6-5.052,0" transform="translate(-498.318 -282.464)" fill="#eb6f2d"/>
        <path id="Trazado_750206" data-name="Trazado 750206" d="M535.352,449.822c-.37-5.817-1.545-18.792-3.5-23.124-.719-1.6-1.448-3.106-2.175-4.543l-2.348-1.02s-13.026-10.4-21.529-8.459-8.865,33.616-3.98,37.088,6.872-5.811,24.936-2.929c2.942.469,6.183,3.216,8.592,2.986" transform="translate(-478.384 -342.515)" fill="#bc5824"/>
        <path id="Trazado_750207" data-name="Trazado 750207" d="M842.608,430.075a.9.9,0,0,0,1.257-.191l38.379-52.126a.9.9,0,0,0-1.448-1.066l-38.379,52.126a.9.9,0,0,0,.191,1.257" transform="translate(-755.191 -313.424)" fill="#3e6bab"/>
        <path id="Trazado_750208" data-name="Trazado 750208" d="M1024.847,371.573h-6.4a1.938,1.938,0,1,1,0-3.875h6.4a1.938,1.938,0,0,1,0,3.875" transform="translate(-895.59 -306.471)" fill="#2e5b9a"/>
        <path id="Trazado_750209" data-name="Trazado 750209" d="M1019.258,289.126l6.163,1.04a1.8,1.8,0,0,1,1.343,2.518l-5.973,13.254a1.8,1.8,0,0,1-2.238.961l-5.426-1.9a1.8,1.8,0,0,1-1.065-2.4l5.236-12.4a1.8,1.8,0,0,1,1.96-1.076" transform="translate(-891.891 -243.151)" fill="#58556e"/>
        <path id="Trazado_750210" data-name="Trazado 750210" d="M1022.583,294.6l5.1.916a1.6,1.6,0,0,1,1.111,2.218l-4.942,11.677a1.461,1.461,0,0,1-1.852.846l-4.489-1.671a1.62,1.62,0,0,1-.881-2.117l4.332-10.921a1.476,1.476,0,0,1,1.621-.948" transform="translate(-895.591 -247.564)" fill="#3e6bab"/>
        <path id="Trazado_750211" data-name="Trazado 750211" d="M998.06,271.367a.289.289,0,0,1-.135-.033l-6.826-3.562a.292.292,0,0,1,.27-.517l6.826,3.562a.292.292,0,0,1-.135.55" transform="translate(-874.991 -225.523)" fill="#ffcb30"/>
        <path id="Trazado_750212" data-name="Trazado 750212" d="M1012.912,251.582a.292.292,0,0,1-.235-.119l-4.813-6.554a.291.291,0,1,1,.47-.345l4.813,6.554a.291.291,0,0,1-.235.464" transform="translate(-888.578 -207.174)" fill="#ffcb30"/>
        <path id="Trazado_750213" data-name="Trazado 750213" d="M980.9,312.314a.292.292,0,0,1-.089-.569l8.345-2.664a.292.292,0,0,1,.177.556l-8.345,2.664a.3.3,0,0,1-.089.014" transform="translate(-866.665 -259.236)" fill="#ffcb30"/>
        <path id="Trazado_750214" data-name="Trazado 750214" d="M983.426,292.2a.3.3,0,0,1-.042,0c-6.355-.909-9.833-1.459-10.336-1.636a.292.292,0,1,1,.194-.55c.263.092,1.941.424,10.225,1.609a.292.292,0,0,1-.041.58" transform="translate(-860.418 -243.872)" fill="#ffcb30"/>
        <path id="Trazado_750215" data-name="Trazado 750215" d="M1016.63,315.42a1.62,1.62,0,0,0,.881,2.117l.544.2,7.721-3.926,3.017-7.128a1.664,1.664,0,0,0,.094-1l-11.83,8.654Z" transform="translate(-895.591 -256.514)" fill="#4578bf"/>
        <path id="Trazado_750216" data-name="Trazado 750216" d="M1025.533,357.676l3.735,1.391a1.461,1.461,0,0,0,1.851-.846l1.295-3.059c-2.217.765-5.155,1.863-6.881,2.515" transform="translate(-902.859 -296.372)" fill="#4578bf"/>
        <path id="Trazado_750217" data-name="Trazado 750217" d="M854.436,504.149l10.312-.471s5.274-6.556,7.406-5.22,5.824-1.043,5.8,1.335-3.016,8.563-6.593,9.2-11.762,0-11.762,0Z" transform="translate(-765.015 -411.674)" fill="#f09959"/>
        <path id="Trazado_750218" data-name="Trazado 750218" d="M513.978,404.1c6.041.424,26.6,18.482,35.944,25.226a195.053,195.053,0,0,1,28.224-1.931s3.2,6.026,2.995,6.5-20.837,7.639-33.028,7.136S530.3,436.7,521,435.589c-6.058-.723-9,1.791-12.353-1.7s-4.531-21.393-2.7-25a8.611,8.611,0,0,1,8.033-4.793" transform="translate(-483.56 -335.783)" fill="#eb6f2d"/>
        <path id="Trazado_750219" data-name="Trazado 750219" d="M552.528,224.17c3.2-1.579,1.608-4.648,1.887-6.683s-.61-3.665.154-3.527.592,7.811,1.555,7.762.6-5.791,1.621-5.95,1.415-1.588.617-4.1-.159-4.747,1.993-2.754,6.937,6.618,9.727,5.98a3.085,3.085,0,0,0,2.392-3.827c-.239-.319-7.415-8.372-7.415-8.372l-14.192,8.133-.4,7.415Z" transform="translate(-520.122 -173.537)" fill="#58556e"/>
        <path id="Trazado_750220" data-name="Trazado 750220" d="M559.007,260.666c.191,1.928.256,4.852.424,5.271-1.264.516-2.883-.52-3.615-2.314s-.664-4.148.616-4.623c.8-.3,2.352-.578,2.575,1.666" transform="translate(-524.054 -218.74)" fill="#f09959"/>
        <path id="Trazado_750221" data-name="Trazado 750221" d="M744.109,223.038c-2.013,6.513-13.229,6.6-13.772,8.413s-.676,8.837-2.318,13.313c-2.623,7.151-3.8,9.513-7.452,10.6s-5.189-4.965-5.189-4.965,6.546-8.634,6.908-8.815,3.807-22.253,3.807-22.253,8.767-1.608,9.219-1.845,6.785,2.568,6.785,2.568Z" transform="translate(-652.982 -185.441)" fill="#58556e"/>
      </g>
    </g>
    <g id="Grupo_882332" data-name="Grupo 882332" transform="translate(363.107 9.684)">
      <g id="Grupo_882331" data-name="Grupo 882331" clip-path="url(#clip-path-10)">
        <path id="Trazado_750223" data-name="Trazado 750223" d="M2004.763,118.051a68.222,68.222,0,1,1-68.222-68.222,68.222,68.222,0,0,1,68.222,68.222" transform="translate(-1868.32 -49.829)" fill="#dfeffe"/>
        <path id="Trazado_750224" data-name="Trazado 750224" d="M2082.815,363.292a5,5,0,0,1-5.375.786c-2.986-1.438-13.888-9.142-13.556-11.022s5.427-2.33,5.427-2.33,15.782,12.477,13.5,12.566" transform="translate(-2025.87 -292.247)" fill="#255096"/>
        <path id="Trazado_750225" data-name="Trazado 750225" d="M2087.424,367.74c2.045-.327-4.682-5.677-6.882-7.889a33.963,33.963,0,0,0-3.618-3.244s-3.76.458-3.76,1.187,10.783,9.341,10.783,9.341a13.262,13.262,0,0,0,3.477.6" transform="translate(-2033.353 -296.985)" fill="#ffc34e"/>
        <path id="Trazado_750226" data-name="Trazado 750226" d="M2151.291,406.926s-3.926-6.636-5.806-8.405-8.228-5.2-9.191-5.221c-1.647-.036,5.652,4.889,5.652,4.889s-1,6.415-.11,8.737,10.175,5.419,10.175,5.419Z" transform="translate(-2084.019 -326.547)" fill="#f09959"/>
        <path id="Trazado_750227" data-name="Trazado 750227" d="M2197.464,461.977s-6.414-9.621-7.852-8.958-5.309,8.958-5.309,8.958,11.28,11.723,11.28,9.511,1.881-9.511,1.881-9.511" transform="translate(-2122.892 -374.633)" fill="#8db114"/>
        <path id="Trazado_750228" data-name="Trazado 750228" d="M2196.687,234.112s6.636,23.446,11.059,33.178,6.636,27.869,5.751,59.72,5.309,30.966-3.981,34.947-42.468-2.654-46.892-12.829,2.963-51.6,13.935-66.8c10.833-15.007,15.7-20.349,15.7-23.888s-4.282-18.58-4.282-18.58Z" transform="translate(-2104.377 -198.297)" fill="#f09959"/>
        <path id="Trazado_750229" data-name="Trazado 750229" d="M2162.624,452.738c-4.424-10.175,2.961-51.6,13.934-66.8,5.045-6.988,8.8-11.88,11.365-15.471a78.4,78.4,0,0,1,16.617-7.753c1.113,3.137,2.214,6,3.2,8.184,4.424,9.732,6.636,27.869,5.751,59.72s5.308,30.966-3.981,34.947-42.467-2.654-46.891-12.829" transform="translate(-2104.376 -301.907)" fill="#b1de19"/>
        <path id="Trazado_750230" data-name="Trazado 750230" d="M2290.129,340.122c-.11-1.821-23.741,7.52-23.888,9.29s-1.541,8.37-3.5,11.927,32.9,23.421,31.616,13.749-3.934-30.1-4.229-34.966" transform="translate(-2186.023 -283.515)" fill="#b1de19"/>
        <path id="Trazado_750231" data-name="Trazado 750231" d="M2302.76,258.837c.013-.134.02-.266.02-.395,0-3.539-4.281-18.58-4.281-18.58l8.705-5.751s1.54,5.443,3.632,12.172c-2.7,8.077-5.234,10.83-8.076,12.553" transform="translate(-2214.893 -198.297)" fill="#e38540"/>
        <path id="Trazado_750232" data-name="Trazado 750232" d="M2215.809,218.536c1.839,8.337,7.6,14.266,14.254,12.636,4.881-1.2,12.385-8.023,9.979-17.983-2-8.3-8.756-13.9-15.448-12.422s-10.625,9.432-8.785,17.769" transform="translate(-2147.91 -171.242)" fill="#f09959"/>
        <path id="Trazado_750233" data-name="Trazado 750233" d="M2094.645,417.16c-6.041-10.431-6.716-20.174-10.995-23.217-6.02-4.28-10.965-13.853-8.785-14.23s11.005,7.708,11.005,7.708-2.3-3.143-1.748-3.406,4.994,2.965,5.684,6.777,9.229,21.334,16.393,26.946-5.515,9.853-11.555-.578" transform="translate(-2034.301 -315.59)" fill="#f09959"/>
        <path id="Trazado_750234" data-name="Trazado 750234" d="M2211.956,435.734c10.7,2.665,5.807,34.987-3.216,54.156s-25.981,2.609-32.321-2.087a21.048,21.048,0,0,1-5.036-5.146c2.035-11.439,5.526-23.71,9.833-32.345,10.1,11.857,14.9-18.519,30.741-14.577" transform="translate(-2112.482 -360.447)" fill="#8db114"/>
        <path id="Trazado_750235" data-name="Trazado 750235" d="M2175.368,425.148c13.459,1.349,6.089,34.947-3.752,48.513s-23.85.442-28.274-7.373-13.381-21.1-13.381-29.749c0-1.622,3.318-1.954,7.3-1.659,3.75.278,20.686,23.593,20.686,23.593s5.655-34.5,17.423-33.325" transform="translate(-2079.11 -352.182)" fill="#b1de19"/>
        <path id="Trazado_750236" data-name="Trazado 750236" d="M2178.133,173.571c-8.23,3.465-3.3,14.425,1.04,14.835s9.356-7.59,11.933-7.861-.52,4.475,1.774,5.56a8.671,8.671,0,0,1,5.1,5.735c.667,2.848,2.5,9.046-.493,9.317s-6.248-2.983-8.282-3.119a11.1,11.1,0,0,0-3.8.453s5.165,7.141,8.958,7.548,7.93-5.138,10.879-9.824,1.7-7.809,1.7-7.809,3.015,3.394,4.914,3.123-2.847-2.983-2.983-10.984-3.661-12.2-8-12.2-3.8-2.208-10.424-2.034c-5.972.157-10.38,6.451-12.312,7.264" transform="translate(-2114.344 -143.662)" fill="#0f2d5c"/>
        <path id="Trazado_750237" data-name="Trazado 750237" d="M2289.555,273.344c-.192,2.066.869,3.853,2.369,3.993s2.872-1.422,3.064-3.488-.869-3.853-2.369-3.992-2.872,1.422-3.064,3.488" transform="translate(-2207.67 -227.087)" fill="#f09959"/>
      </g>
    </g>
    <g id="Grupo_882334" data-name="Grupo 882334" transform="translate(510.873 150.402)">
      <g id="Grupo_882333" data-name="Grupo 882333" clip-path="url(#clip-path-11)">
        <path id="Trazado_750239" data-name="Trazado 750239" d="M2726.291,822.7a48.828,48.828,0,1,1-48.828-48.828,48.828,48.828,0,0,1,48.828,48.828" transform="translate(-2628.634 -773.875)" fill="#dfeffe"/>
        <path id="Trazado_750240" data-name="Trazado 750240" d="M2833.74,870.221c-3.722,7.441-.641,16.01,6.678,19.038,7.367,3.047,15.423,1.316,19.144-6.125s.958-16.364-6.173-19.93-15.927-.424-19.648,7.017" transform="translate(-2792.602 -844.658)" fill="#303c60"/>
        <path id="Trazado_750241" data-name="Trazado 750241" d="M2939.537,923.226a2.392,2.392,0,0,1-.611-.065.474.474,0,0,1,.259-.911c.011,0,1.723.4,4.288-1.871,2.9-2.569,4.92-8.4,1.92-17.078a.473.473,0,0,1,.9-.309c3.967,11.471-.671,16.751-2.187,18.1-2.077,1.843-3.722,2.138-4.563,2.138" transform="translate(-2878.343 -877.641)" fill="#303c60"/>
        <path id="Trazado_750242" data-name="Trazado 750242" d="M2700.743,1054.394c-4.236.949-9.582,12.718-12.2,20.257-2.641,7.6-7.118,17.038-10.049,19.969s-22.192,9.726-22.192,9.726,47.589.092,46.615,0-2.173-49.951-2.173-49.951" transform="translate(-2650.924 -999.876)" fill="#a8ceff"/>
        <path id="Trazado_750243" data-name="Trazado 750243" d="M2714.854,1100.567c2.605-.373,12,.838,8-.838s-3.443-3.815-3.443-3.815,5.676,4.746,6.7.6c.883-3.578,1.221-16.211,4.571-28.873,2.767-6.278,6.389-12.56,9.435-13.242,0,0,.108,4.458.284,10.709-1.169,13.834-3.153,34.157-3.656,39.28-6.308.009-16.865,0-25.7-.012l-5.874-.28s7.072-3.153,9.677-3.526" transform="translate(-2690.301 -999.876)" fill="#93bbf0"/>
        <path id="Trazado_750244" data-name="Trazado 750244" d="M2864.041,1040.975s13.472,7.527,16.612,9.128-8.8,48.588-11.453,50.6-26.03.347-28.691-2.191,2.042-10.323-.261-25.913,7.024-29.049,8.222-29.019,9.019-2.608,9.019-2.608Z" transform="translate(-2798.652 -989.065)" fill="#a8ceff"/>
        <path id="Trazado_750245" data-name="Trazado 750245" d="M2862.959,1141.392c-2.655,2.014-19.382,2.059-26.5-.157-.8-.25-4.452-1.7-4.538-3.071.86-.161,4.271.249,5.656-.07,4.816-1.106,7.468-7.072,7.468-7.072s2.652-.954,8.584-3.466,3.489-10.12,3.629-13.469,5.862-14.307,16.61-22.611l.985.441c.767,7.636-9.435,47.611-11.892,49.474" transform="translate(-2792.412 -1029.75)" fill="#93bbf0"/>
        <path id="Trazado_750246" data-name="Trazado 750246" d="M2844,1288.136c-8.468,1.582-10.55,3.526-15.166,4.27-5.232.844-4.61,2-.724,2s13.652.151,17-.593-1.114-5.676-1.114-5.676" transform="translate(-2786.879 -1188.19)" fill="#f09959"/>
        <path id="Trazado_750247" data-name="Trazado 750247" d="M2943.96,1089.1c6.49,20.75,15.69,44.295,14.224,44.295s-38.73,1.506-40.2.252-1.047-6.07-.837-6.7,21.185-4.351,21.185-4.351-2.762-5.383-3.809-15.9,8.2-21.529,9.432-17.594" transform="translate(-2860.901 -1027.176)" fill="#a8ceff"/>
        <path id="Trazado_750248" data-name="Trazado 750248" d="M2904.613,948.2l5.228,19.1s-8.833,13.789-11.262,12.564,1.358-11.208,1.358-12.564-3.786-15.352-3.786-15.352Z" transform="translate(-2844.158 -914.321)" fill="#f09959"/>
        <path id="Trazado_750249" data-name="Trazado 750249" d="M2899.754,968.278a5.11,5.11,0,0,0,.182-.974c0-1.356-3.786-15.352-3.786-15.352l8.464-3.751,1.73,6.322a32.954,32.954,0,0,1-6.589,13.756" transform="translate(-2844.158 -914.321)" fill="#e38540"/>
        <path id="Trazado_750250" data-name="Trazado 750250" d="M2837.405,911.266c-1,5.54-.34,12.9,4.579,14.768s10.845-1.708,13.235-7.994.34-12.9-4.579-14.767-12.045,1.375-13.235,7.994" transform="translate(-2796.511 -877.702)" fill="#f09959"/>
        <path id="Trazado_750251" data-name="Trazado 750251" d="M2923.522,951.4c-.69,1.937-.091,3.919,1.338,4.427s3.145-.649,3.834-2.586.091-3.919-1.338-4.427-3.145.649-3.834,2.586" transform="translate(-2865.98 -914.718)" fill="#f09959"/>
        <path id="Trazado_750252" data-name="Trazado 750252" d="M2838.752,892.6c1.675,13,17.469,11.325,17.469,11.325s3.257-4.282,4.723-2.036-2.032-13.179-11.1-13.665c-2.978-.159-11.1,4.377-11.1,4.377" transform="translate(-2797.916 -866)" fill="#303c60"/>
        <path id="Trazado_750253" data-name="Trazado 750253" d="M2921.348,849.218a8.572,8.572,0,1,0,8.554-8.026,8.3,8.3,0,0,0-8.554,8.026" transform="translate(-2864.459 -828.109)" fill="#303c60"/>
      </g>
    </g>
    <g id="Grupo_882336" data-name="Grupo 882336" transform="translate(5.554 206.267)">
      <g id="Grupo_882335" data-name="Grupo 882335" clip-path="url(#clip-path-12)">
        <path id="Trazado_750255" data-name="Trazado 750255" d="M151.052,1122.563a61.238,61.238,0,1,1-61.238-61.238,61.239,61.239,0,0,1,61.238,61.238" transform="translate(-28.575 -1061.324)" fill="#dfeffe"/>
        <path id="Trazado_750256" data-name="Trazado 750256" d="M496.067,1309.184a4.013,4.013,0,0,0,4.319.632c2.4-1.155,11.159-7.346,10.893-8.856s-4.36-1.872-4.36-1.872-12.681,10.026-10.851,10.1" transform="translate(-405.065 -1252.878)" fill="#255096"/>
        <path id="Trazado_750257" data-name="Trazado 750257" d="M507.421,1312.758c-1.643-.263,3.763-4.562,5.53-6.339a27.244,27.244,0,0,1,2.907-2.607s3.021.368,3.021.954-8.665,7.505-8.665,7.505a10.661,10.661,0,0,1-2.794.486" transform="translate(-414.111 -1256.685)" fill="#ffc34e"/>
        <path id="Trazado_750258" data-name="Trazado 750258" d="M451.722,1344.243s3.155-5.332,4.665-6.754,6.611-4.178,7.385-4.195c1.323-.029-4.542,3.929-4.542,3.929s.8,5.154.089,7.02-8.175,4.354-8.175,4.354Z" transform="translate(-369.018 -1280.437)" fill="#f09959"/>
        <path id="Trazado_750259" data-name="Trazado 750259" d="M423.94,1388.477s5.154-7.731,6.309-7.2,4.265,7.2,4.265,7.2-9.064,9.419-9.064,7.642-1.51-7.642-1.51-7.642" transform="translate(-347.101 -1319.074)" fill="#fb8627"/>
        <path id="Trazado_750260" data-name="Trazado 750260" d="M290.579,1205.387s-5.332,18.839-8.886,26.659-5.332,22.393-4.621,47.986-4.265,24.881,3.2,28.08,34.123-2.133,37.677-10.308-2.38-41.459-11.2-53.673c-8.7-12.058-12.618-16.351-12.618-19.195s3.44-14.929,3.44-14.929Z" transform="translate(-227.993 -1177.389)" fill="#f09959"/>
      </g>
    </g>
    <g id="Grupo_882338" data-name="Grupo 882338" transform="translate(54.065 254.349)">
      <g id="Grupo_882337" data-name="Grupo 882337" clip-path="url(#clip-path-13)">
        <rect id="Rectángulo_361906" data-name="Rectángulo 361906" width="84.709" height="80.971" transform="translate(-36.808 43.475) rotate(-49.858)" fill="url(#linear-gradient)"/>
      </g>
    </g>
    <g id="Grupo_882340" data-name="Grupo 882340" transform="translate(55.235 250.784)">
      <g id="Grupo_882339" data-name="Grupo 882339" clip-path="url(#clip-path-14)">
        <rect id="Rectángulo_361907" data-name="Rectángulo 361907" width="45.617" height="44.653" transform="matrix(0.645, -0.764, 0.764, 0.645, -18.771, 21.069)" fill="url(#linear-gradient-2)"/>
      </g>
    </g>
    <g id="Grupo_882342" data-name="Grupo 882342" transform="translate(5.554 206.267)">
      <g id="Grupo_882341" data-name="Grupo 882341" clip-path="url(#clip-path-12)">
        <path id="Trazado_750264" data-name="Trazado 750264" d="M342.077,1225.253c-.01-.108-.016-.214-.016-.317,0-2.844,3.44-14.929,3.44-14.929l-6.995-4.621s-1.238,4.374-2.918,9.781c2.172,6.49,4.206,8.7,6.489,10.086" transform="translate(-275.92 -1177.388)" fill="#e38540"/>
        <path id="Trazado_750265" data-name="Trazado 750265" d="M369.269,1200.262c-1.292,5.856-5.336,10.02-10.011,8.875a10.565,10.565,0,0,1-7.009-12.631c1.408-5.829,6.15-9.762,10.85-8.724s7.462,6.625,6.17,12.48" transform="translate(-289.081 -1163.071)" fill="#f09959"/>
        <path id="Trazado_750266" data-name="Trazado 750266" d="M437.167,1352.467c4.854-8.382,5.4-16.21,8.834-18.655,4.837-3.439,8.811-11.131,7.059-11.434s-8.843,6.194-8.843,6.194,1.846-2.526,1.4-2.736-4.013,2.382-4.567,5.445-7.416,17.142-13.173,21.651,4.431,7.917,9.285-.464" transform="translate(-348.896 -1271.634)" fill="#f09959"/>
      </g>
    </g>
    <g id="Grupo_882344" data-name="Grupo 882344" transform="translate(57.489 265.696)">
      <g id="Grupo_882343" data-name="Grupo 882343" clip-path="url(#clip-path-16)">
        <rect id="Rectángulo_361908" data-name="Rectángulo 361908" width="71.781" height="64.852" transform="translate(-28.922 45.108) rotate(-60.795)" fill="url(#linear-gradient-3)"/>
      </g>
    </g>
    <g id="Grupo_882346" data-name="Grupo 882346" transform="translate(59.076 264.094)">
      <g id="Grupo_882345" data-name="Grupo 882345" clip-path="url(#clip-path-17)">
        <rect id="Rectángulo_361909" data-name="Rectángulo 361909" width="68.644" height="68.332" transform="matrix(0.645, -0.764, 0.764, 0.645, -29.518, 29.163)" fill="url(#linear-gradient-4)"/>
      </g>
    </g>
    <g id="Grupo_882348" data-name="Grupo 882348" transform="translate(5.554 206.267)">
      <g id="Grupo_882347" data-name="Grupo 882347" clip-path="url(#clip-path-12)">
        <path id="Trazado_750270" data-name="Trazado 750270" d="M334.185,1145.65c11.288.772,9.847,18.266,9.847,18.266s-9.309.27-12.086-.536a20.282,20.282,0,0,1-5.6-2.979s-1.708,6.626-6.374,7l-4.666.37s-3.078-12.579-.644-18.251c5.046-11.761,15.123-5.873,19.525-3.865" transform="translate(-258.305 -1126.637)" fill="#0f2d5c"/>
        <path id="Trazado_750271" data-name="Trazado 750271" d="M354.416,1229.135c.668,1.719,2.25,2.709,3.532,2.211s1.78-2.3,1.112-4.016-2.249-2.71-3.532-2.211-1.78,2.3-1.112,4.016" transform="translate(-290.85 -1193.182)" fill="#f09959"/>
        <path id="Trazado_750272" data-name="Trazado 750272" d="M168.306,1234.561a.337.337,0,0,0-.647-.132c-1.018,2.376-3.155,6.5-5.819,6.792-3.758.411-30.568,2.6-21.645,23.285,5.638,13.073,9.719,18.288,4.176,23.127-5.1,4.451-11.828.26-13.506-.863a.336.336,0,0,0-.52.224c-.473,2.88-2.041,16.677,11.324,16.479,14.923-.221,22.047-13.708,15.967-26.083s5.966-15.541,6.458-22.493a58.1,58.1,0,0,0,.022-10.823.337.337,0,0,1,.093-.277l4-4.1a.338.338,0,0,0,.1-.236Z" transform="translate(-110.316 -1200.621)" fill="#0f2d5c"/>
        <path id="Trazado_750273" data-name="Trazado 750273" d="M140.272,1314.582a40.9,40.9,0,0,1-8.031-1.3.474.474,0,0,1,.162-.93c.064.006,6.484.555,8.993-1.423,3.169-2.5,1.4-6.581-1.534-13.344-1.239-2.857-2.643-6.1-3.932-9.84-2.445-7.1.181-11.977,2.815-14.82,5.528-5.967,16.3-8.535,25.609-6.105a.473.473,0,0,1-.239.916q-.326-.085-.655-.162c-11.846.2-19.488,2.949-22.716,8.171-2.824,4.569-2.242,11.08,1.729,19.349,3.875,8.071,4.915,13.747,3.091,16.873a5.527,5.527,0,0,1-4.685,2.592c-.192.013-.4.019-.607.019m-3.484-1.3a19.227,19.227,0,0,0,4.027.338,4.567,4.567,0,0,0,3.93-2.124c1.139-1.951,1.52-6.307-3.126-15.985-4.12-8.58-4.685-15.4-1.681-20.257,2.917-4.72,9.131-7.525,18.5-8.364-7.379-.343-14.79,2.137-19,6.685-3.524,3.8-4.428,8.6-2.614,13.868,1.277,3.71,2.674,6.93,3.906,9.771,3.007,6.935,4.993,11.516,1.252,14.465a10.281,10.281,0,0,1-5.194,1.6" transform="translate(-111.809 -1226.151)" fill="#0f2d5c"/>
      </g>
    </g>
    <g id="Grupo_882350" data-name="Grupo 882350" transform="translate(250.557 24.618)">
      <g id="Grupo_882349" data-name="Grupo 882349" clip-path="url(#clip-path-19)">
        <path id="Trazado_750275" data-name="Trazado 750275" d="M1348.682,156.4a29.735,29.735,0,1,1-29.735-29.735,29.735,29.735,0,0,1,29.735,29.735" transform="translate(-1289.211 -126.668)" fill="#c6e0f7"/>
        <path id="Trazado_750276" data-name="Trazado 750276" d="M1385.967,176.076c-.074-.221-1.922-10.829-2.143-14.955s6.63-4.715,6.63-4.715,5.6-3.02,9.65-1.473a16.333,16.333,0,0,1,8.651,7.391c1.842,3.241-1.62,13.343-1.62,13.343Z" transform="translate(-1365.432 -149.085)" fill="#2e2d3d"/>
        <path id="Trazado_750277" data-name="Trazado 750277" d="M1329.512,375.5c-.026-.174.473-4.349.491-4.518.933-8.791,11.769-11.263,22.583-11.263,12.7,0,21.324,2.325,22.7,11.46.04.268.773,4.453.736,4.735-23.547.322-46.509-.413-46.509-.413" transform="translate(-1321.679 -314.427)" fill="#fff"/>
        <path id="Trazado_750278" data-name="Trazado 750278" d="M1425.213,279.836c-1.259,1.858-2.182,1.935-3.548,0-1.086-1.539-4.715-5.049-4.715-6.823l1.489-17.691a3.235,3.235,0,0,1,3.226-3.226h3.548a3.235,3.235,0,0,1,3.226,3.226l.692,17.691c0,1.774-2.788,5.157-3.917,6.823" transform="translate(-1392.124 -227.719)" fill="#f09959"/>
        <path id="Trazado_750279" data-name="Trazado 750279" d="M1426.027,252.1h-3.548a3.235,3.235,0,0,0-3.226,3.226l-1.292,15.694c3.984,1.268,9.363-1.309,11.743-4.15l-.451-11.544a3.235,3.235,0,0,0-3.225-3.226" transform="translate(-1392.939 -227.719)" fill="#e38540"/>
        <path id="Trazado_750280" data-name="Trazado 750280" d="M1387.683,364.947l5.688,10.514s3.045-2.5,3.34-2.013-.541,6.689-.541,6.689,6.778.092,7.072-.2-1.375-6.732-.688-6.732,2.755,1.866,2.755,1.866l6.351-10.121-1.4-.34-10.406,5.6-11.13-5.476Z" transform="translate(-1368.545 -318.364)" fill="#bdccd4"/>
        <path id="Trazado_750281" data-name="Trazado 750281" d="M1421.154,384.858l4.224,2.835-1.309,7.524,5.7-.318-1.423-6.843,3.5-3.2-1.645-1.55h-7.4Z" transform="translate(-1395.511 -333.43)" fill="#bc5824"/>
        <path id="Trazado_750282" data-name="Trazado 750282" d="M1396.807,337.807l-5.225,4.972s5.323,9.467,5.618,9.467,4.518-5.219,4.518-5.219l2.7-.047,4.271,4.481,4.963-8.78-5.061-5.365s-4.322,8.349-5.108,8.545-.791.295-1.427-.2-5.252-7.858-5.252-7.858" transform="translate(-1371.687 -296.377)" fill="#fff"/>
        <path id="Trazado_750283" data-name="Trazado 750283" d="M1416.6,192.44c0,8.071-4.8,14.614-10.725,14.614s-10.725-6.543-10.725-14.614,4.8-14.614,10.725-14.614,10.725,6.543,10.725,14.614" transform="translate(-1374.562 -167.883)" fill="#f09959"/>
        <path id="Trazado_750284" data-name="Trazado 750284" d="M1377.256,240.247c1,2.112.675,4.366-.733,5.035s-3.363-.5-4.366-2.613-.675-4.366.733-5.035,3.363.5,4.366,2.613" transform="translate(-1355.568 -215.916)" fill="#f09959"/>
        <path id="Trazado_750285" data-name="Trazado 750285" d="M1494.973,240.247c-1,2.112-.675,4.366.733,5.035s3.363-.5,4.366-2.613.675-4.366-.733-5.035-3.363.5-4.366,2.613" transform="translate(-1454.515 -215.916)" fill="#f09959"/>
        <path id="Trazado_750286" data-name="Trazado 750286" d="M1435.369,283.871s-2.13,3.45-4.758,3.45-4.758-3.45-4.758-3.45Z" transform="translate(-1399.297 -253.319)" fill="#fff"/>
        <path id="Trazado_750287" data-name="Trazado 750287" d="M1399.358,176.969c4.42-3.094,6.409-2.578,9.724,2.5s7.293,5.173,7.293,5.173l.516-5.271s-4.938-9.552-11.567-8.3-10.4,7.22-10.4,7.22-.323,11.184.6,11.566,1.031-3.61,1.694-4.42-.663-4.641.221-6.409,1.915-2.063,1.915-2.063" transform="translate(-1374.336 -162.354)" fill="#2e2d3d"/>
        <path id="Trazado_750288" data-name="Trazado 750288" d="M1491.117,231.435c1.543,1.69.958,8.4,1.768,8.325s1.105-6.409.884-7.072-2.652-1.252-2.652-1.252" transform="translate(-1451.877 -211.074)" fill="#2e2d3d"/>
      </g>
    </g>
    <g id="Grupo_882352" data-name="Grupo 882352" transform="translate(0.777 119.817)">
      <g id="Grupo_882351" data-name="Grupo 882351" clip-path="url(#clip-path-20)">
        <path id="Trazado_750290" data-name="Trazado 750290" d="M63.471,646.238A29.735,29.735,0,1,1,33.735,616.5a29.735,29.735,0,0,1,29.735,29.735" transform="translate(-4 -616.503)" fill="#c6e0f7"/>
        <path id="Trazado_750291" data-name="Trazado 750291" d="M35.887,869.432c3.6-7.738,9.685-10.216,19.681-10.216,11.9,0,19.787,7.349,21.539,13.627a237.658,237.658,0,0,1-41.22-3.411" transform="translate(-29.69 -812.045)" fill="#3e6bab"/>
        <path id="Trazado_750292" data-name="Trazado 750292" d="M53.408,664.136c-5.039,1.414-4.818,4.246-6.5,6.874s-5.329,4.38-5.767,6.132,1.124,5.4-.73,7.446-2.482,3.066-1.752,5.11,2.336,5.256,2.482,5.694,2.19,3.5,4.672,3.942,7.154,1.168,9.49,2.19,9.847-1.308,14.016-1.163,7.008-2.926,6.716-4.969,3.074-6.132,3.066-9.636c-.009-3.763-4.38-6.57-5.548-9.052s.146-6.862-4.234-9.456c-2.768-1.64-4.672-1.494-6.862-2.224s-5.84-1.789-9.052-.888" transform="translate(-31.687 -654.6)" fill="#3a384d"/>
        <path id="Trazado_750293" data-name="Trazado 750293" d="M121.9,786.9c-1.14,1.682-1.975,1.752-3.212,0-.983-1.393-2.92-4.558-2.92-6.164V764.709a2.929,2.929,0,0,1,2.92-2.92H121.9a2.929,2.929,0,0,1,2.92,2.92v16.028c0,1.606-1.9,4.655-2.92,6.164" transform="translate(-94.044 -733.553)" fill="#f09959"/>
        <path id="Trazado_750294" data-name="Trazado 750294" d="M121.9,761.789h-3.212a2.929,2.929,0,0,0-2.92,2.92v14.3c3.606,1.148,6.9-1.134,9.052-3.706V764.709a2.929,2.929,0,0,0-2.92-2.92" transform="translate(-94.044 -733.553)" fill="#e38540"/>
        <path id="Trazado_750295" data-name="Trazado 750295" d="M108.515,707.784c0,7.306-4.347,13.229-9.709,13.229S89.1,715.09,89.1,707.784s4.347-13.229,9.709-13.229,9.709,5.923,9.709,13.229" transform="translate(-72.558 -679.386)" fill="#f09959"/>
        <path id="Trazado_750296" data-name="Trazado 750296" d="M99.4,686.8c-6.132,10.366-15.184,9.344-15.184,9.344s.219-13.724,7.409-14.454,11.424,2.156,12.884,6.918,0,7.9,0,7.9a12.607,12.607,0,0,1-3.5-4.745A34.1,34.1,0,0,1,99.4,686.8" transform="translate(-68.625 -668.934)" fill="#3a384d"/>
        <path id="Trazado_750297" data-name="Trazado 750297" d="M72.9,751.063c.908,1.912.611,3.953-.664,4.558s-3.044-.454-3.952-2.366-.611-3.952.664-4.558,3.044.454,3.952,2.366" transform="translate(-55.365 -722.868)" fill="#f09959"/>
        <path id="Trazado_750298" data-name="Trazado 750298" d="M179.461,751.063c-.908,1.912-.611,3.953.664,4.558s3.044-.454,3.952-2.366.611-3.952-.664-4.558-3.044.454-3.952,2.366" transform="translate(-144.937 -722.868)" fill="#f09959"/>
        <path id="Trazado_750299" data-name="Trazado 750299" d="M127.574,799.541s-1.634,2.118-3.65,2.118-3.65-2.118-3.65-2.118Z" transform="translate(-97.676 -763.968)" fill="#fff"/>
      </g>
    </g>
    <g id="Grupo_882354" data-name="Grupo 882354" transform="translate(545.855 50.682)">
      <g id="Grupo_882353" data-name="Grupo 882353" clip-path="url(#clip-path-21)">
        <path id="Trazado_750301" data-name="Trazado 750301" d="M2872,292.462a31.684,31.684,0,1,1-31.684-31.684A31.684,31.684,0,0,1,2872,292.462" transform="translate(-2808.631 -260.778)" fill="#c6e0f7"/>
        <path id="Trazado_750302" data-name="Trazado 750302" d="M2886.813,399.659c0,8.706,5.242,22.754,17.608,22.3s15.1-13.841,15.58-17.62-33.188-4.683-33.188-4.683" transform="translate(-2871.619 -372.668)" fill="#7a4e34"/>
        <path id="Trazado_750303" data-name="Trazado 750303" d="M2860.3,526.005c4.083-8.784,10.993-11.6,22.342-11.6,13.512,0,20.528,4.895,22.517,12.021-7.95.109-15.519,8.014-22.1,7.953a37.81,37.81,0,0,1-22.761-8.377" transform="translate(-2850.258 -465.115)" fill="#bc5824"/>
        <path id="Trazado_750304" data-name="Trazado 750304" d="M2957.938,432.317c-1.293,1.91-2.241,1.989-3.646,0-1.116-1.581-3.315-5.174-3.315-7V407.126a3.324,3.324,0,0,1,3.315-3.315h3.646a3.325,3.325,0,0,1,3.315,3.315V425.32c0,1.823-2.155,5.285-3.315,7" transform="translate(-2923.313 -376.013)" fill="#f09959"/>
        <path id="Trazado_750305" data-name="Trazado 750305" d="M2957.938,403.811h-3.646a3.324,3.324,0,0,0-3.315,3.315v16.234c4.094,1.3,7.83-1.288,10.276-4.207V407.126a3.325,3.325,0,0,0-3.315-3.315" transform="translate(-2923.313 -376.013)" fill="#e38540"/>
        <path id="Trazado_750306" data-name="Trazado 750306" d="M2942.745,342.506c0,8.294-4.934,15.017-11.021,15.017S2920.7,350.8,2920.7,342.506s4.934-15.018,11.022-15.018,11.021,6.724,11.021,15.018" transform="translate(-2898.922 -314.523)" fill="#f09959"/>
        <path id="Trazado_750307" data-name="Trazado 750307" d="M2910.323,307.8c-1.309,4.618-4.179,4.565-8.182,6.082s-5.914,3.043-7.224,6c-1.67,3.767.758,14.752.758,14.752s-10.133-7.583-8.961-19.508,8.2-16.544,14.821-16.544,9.133,4.033,9.133,4.033,3.526.015,6.859,3.964c4.48,5.308,3.1,18.2,0,22.817s-5.17,6.066-5.1,5.859,2.9-10.813,1.379-17.371a41.873,41.873,0,0,0-3.482-10.079" transform="translate(-2871.463 -291.232)" fill="#7a4e34"/>
        <path id="Trazado_750308" data-name="Trazado 750308" d="M2964.379,446.666s-1.855,2.4-4.143,2.4-4.143-2.4-4.143-2.4Z" transform="translate(-2927.434 -410.539)" fill="#fff"/>
      </g>
    </g>
    <g id="Grupo_882356" data-name="Grupo 882356" transform="translate(0 0.001)">
      <g id="Grupo_882355" data-name="Grupo 882355" clip-path="url(#clip-path-2)">
        <path id="Trazado_750310" data-name="Trazado 750310" d="M464.958,197.928a74.4,74.4,0,1,1,29.05-5.865,74.164,74.164,0,0,1-29.05,5.865m0-147.705A73.075,73.075,0,1,0,538.033,123.3a73.158,73.158,0,0,0-73.075-73.075" transform="translate(-314.468 -39.21)" fill="#b5dafd"/>
        <path id="Trazado_750311" data-name="Trazado 750311" d="M1933.32,183.827a68.785,68.785,0,1,1,26.858-5.423,68.565,68.565,0,0,1-26.858,5.423m0-136.443a67.444,67.444,0,1,0,67.444,67.444,67.52,67.52,0,0,0-67.444-67.444" transform="translate(-1501.992 -36.923)" fill="#b5dafd"/>
        <path id="Trazado_750312" data-name="Trazado 750312" d="M2674.24,869.086a49.6,49.6,0,1,1,35.076-14.529,49.281,49.281,0,0,1-35.076,14.529m0-97.656a48.051,48.051,0,1,0,48.051,48.051,48.105,48.105,0,0,0-48.051-48.051" transform="translate(-2114.539 -620.251)" fill="#b5dafd"/>
        <path id="Trazado_750313" data-name="Trazado 750313" d="M86.591,1181.356a62.016,62.016,0,1,1,43.852-18.164,61.609,61.609,0,0,1-43.852,18.164m0-122.476a60.461,60.461,0,1,0,60.461,60.461,60.529,60.529,0,0,0-60.461-60.461" transform="translate(-19.799 -851.835)" fill="#b5dafd"/>
        <path id="Trazado_750314" data-name="Trazado 750314" d="M1315.724,183.694a30.513,30.513,0,1,1,30.513-30.513,30.548,30.548,0,0,1-30.513,30.513m0-59.471a28.958,28.958,0,1,0,28.958,28.958,28.991,28.991,0,0,0-28.958-28.958" transform="translate(-1035.431 -98.828)" fill="#b5dafd"/>
        <path id="Trazado_750315" data-name="Trazado 750315" d="M30.513,673.529a30.513,30.513,0,1,1,30.513-30.513,30.547,30.547,0,0,1-30.513,30.513m0-59.471a28.958,28.958,0,1,0,28.958,28.958,28.991,28.991,0,0,0-28.958-28.958" transform="translate(0 -493.464)" fill="#b5dafd"/>
        <path id="Trazado_750316" data-name="Trazado 750316" d="M2837.093,321.7a32.461,32.461,0,1,1,32.461-32.461,32.5,32.5,0,0,1-32.461,32.461m0-63.368A30.906,30.906,0,1,0,2868,289.239a30.942,30.942,0,0,0-30.906-30.907" transform="translate(-2259.553 -206.874)" fill="#b5dafd"/>
        <path id="Trazado_750317" data-name="Trazado 750317" d="M1992.675,168.981a14.488,14.488,0,1,1-14.488-14.488,14.488,14.488,0,0,1,14.488,14.488" transform="translate(-1582.056 -124.468)" fill="#eb6f2d"/>
        <path id="Trazado_750318" data-name="Trazado 750318" d="M1997.25,193.028s-5.06-4.462-8.64-.175c-4.916,5.885,8.64,13.37,8.64,13.37s13.8-7.725,8.972-13.678c-3.651-4.5-8.972.483-8.972.483" transform="translate(-1601.26 -153.608)" fill="#fff"/>
        <path id="Trazado_750319" data-name="Trazado 750319" d="M2292.061,1216.3a14.488,14.488,0,1,1-14.488-14.488,14.488,14.488,0,0,1,14.488,14.488" transform="translate(-1823.256 -968.238)" fill="#eb6f2d"/>
        <path id="Trazado_750320" data-name="Trazado 750320" d="M2296.635,1240.344s-5.059-4.462-8.64-.175c-4.916,5.885,8.64,13.37,8.64,13.37s13.8-7.725,8.972-13.678c-3.65-4.5-8.972.483-8.972.483" transform="translate(-1842.46 -997.379)" fill="#fff"/>
        <path id="Trazado_750321" data-name="Trazado 750321" d="M538.647,1125.472a14.488,14.488,0,1,1-14.488-14.488,14.488,14.488,0,0,1,14.488,14.488" transform="translate(-410.617 -895.066)" fill="#eb6f2d"/>
        <path id="Trazado_750322" data-name="Trazado 750322" d="M543.222,1149.52s-5.059-4.462-8.64-.175c-4.916,5.885,8.64,13.37,8.64,13.37s13.8-7.725,8.972-13.678c-3.651-4.5-8.972.483-8.972.483" transform="translate(-429.821 -924.207)" fill="#fff"/>
        <path id="Trazado_750323" data-name="Trazado 750323" d="M482.545,945.162a8.624,8.624,0,1,1-8.624-8.624,8.624,8.624,0,0,1,8.624,8.624" transform="translate(-374.867 -754.523)" fill="#eb6f2d"/>
        <path id="Trazado_750324" data-name="Trazado 750324" d="M485.269,959.476s-3.012-2.656-5.143-.1c-2.926,3.5,5.143,7.959,5.143,7.959s8.214-4.6,5.341-8.142c-2.173-2.68-5.341.287-5.341.287" transform="translate(-386.298 -771.869)" fill="#fff"/>
        <path id="Trazado_750325" data-name="Trazado 750325" d="M1873.121,10.239A10.235,10.235,0,1,1,1862.885,0a10.235,10.235,0,0,1,10.235,10.235" transform="translate(-1492.589 -0.004)" fill="#eb6f2d"/>
        <path id="Trazado_750326" data-name="Trazado 750326" d="M1876.354,27.227s-3.574-3.152-6.1-.124c-3.473,4.157,6.1,9.445,6.1,9.445s9.749-5.458,6.338-9.663c-2.579-3.18-6.338.341-6.338.341" transform="translate(-1506.157 -20.59)" fill="#fff"/>
        <path id="Trazado_750327" data-name="Trazado 750327" d="M2410.766,953.8a10.235,10.235,0,1,1-10.236-10.235,10.235,10.235,0,0,1,10.236,10.235" transform="translate(-1925.744 -760.186)" fill="#eb6f2d"/>
        <path id="Trazado_750328" data-name="Trazado 750328" d="M2414,970.791s-3.574-3.152-6.1-.124c-3.473,4.157,6.1,9.446,6.1,9.446s9.749-5.458,6.339-9.663c-2.579-3.18-6.339.341-6.339.341" transform="translate(-1939.311 -780.773)" fill="#fff"/>
        <path id="Trazado_750329" data-name="Trazado 750329" d="M1277.087,266.251a14.488,14.488,0,1,1-14.488-14.488,14.488,14.488,0,0,1,14.488,14.488" transform="translate(-1005.542 -202.834)" fill="#3e6bab"/>
        <path id="Trazado_750330" data-name="Trazado 750330" d="M1284.9,277.162c1.879-.259,3.5,4.405,3.369,5.9s3.5-.194,5.247,1.1,1.231,8.033,0,8.487-6.2.518-7.795-.324a4.812,4.812,0,0,0-2.678-.685l-.824-7.048a6.282,6.282,0,0,0,2.1-1.272c1.1-.972.583-6.154.583-6.154m-8.357,16.52c.453.389,5.571,1.62,5.831-.972s-1.036-8.1-1.036-8.1-3.561-.18-4.794.451c-.475.243-.453,8.23,0,8.619" transform="translate(-1028.17 -223.288)" fill="#fff"/>
        <path id="Trazado_750331" data-name="Trazado 750331" d="M613.194,1400.121a14.488,14.488,0,1,1-14.488-14.488,14.488,14.488,0,0,1,14.488,14.488" transform="translate(-470.676 -1116.337)" fill="#3e6bab"/>
        <path id="Trazado_750332" data-name="Trazado 750332" d="M621.01,1411.032c1.879-.259,3.5,4.405,3.369,5.9s3.5-.194,5.247,1.1,1.231,8.033,0,8.487-6.2.518-7.794-.324a4.813,4.813,0,0,0-2.679-.685l-.824-7.048a6.282,6.282,0,0,0,2.1-1.272c1.1-.972.583-6.154.583-6.154m-8.357,16.52c.453.388,5.571,1.619,5.83-.972s-1.037-8.1-1.037-8.1-3.561-.18-4.794.451c-.475.243-.454,8.23,0,8.619" transform="translate(-493.304 -1136.791)" fill="#fff"/>
        <path id="Trazado_750333" data-name="Trazado 750333" d="M2644.885,822.578A13.28,13.28,0,1,1,2631.6,809.3a13.28,13.28,0,0,1,13.281,13.28" transform="translate(-2109.455 -652.012)" fill="#3e6bab"/>
        <path id="Trazado_750334" data-name="Trazado 750334" d="M2652.05,832.582c1.722-.238,3.207,4.038,3.088,5.4s3.207-.178,4.811,1.009,1.128,7.364,0,7.779-5.679.475-7.146-.3a4.411,4.411,0,0,0-2.455-.628l-.755-6.46a5.755,5.755,0,0,0,1.923-1.166c1.009-.891.534-5.641.534-5.641m-7.66,15.143c.416.356,5.107,1.485,5.344-.891s-.95-7.423-.95-7.423-3.264-.165-4.394.413c-.436.223-.416,7.544,0,7.9" transform="translate(-2130.197 -670.763)" fill="#fff"/>
        <path id="Trazado_750335" data-name="Trazado 750335" d="M1071.284,588.372a11.246,11.246,0,1,1-11.246-11.246,11.246,11.246,0,0,1,11.246,11.246" transform="translate(-844.96 -464.963)" fill="#3e6bab"/>
        <path id="Trazado_750336" data-name="Trazado 750336" d="M1077.35,596.842c1.458-.2,2.716,3.42,2.615,4.576s2.715-.151,4.073.855.955,6.236,0,6.588-4.809.4-6.051-.252a3.736,3.736,0,0,0-2.079-.531l-.64-5.471a4.878,4.878,0,0,0,1.628-.987c.855-.754.453-4.778.453-4.778m-6.487,12.824c.352.3,4.325,1.257,4.526-.754a27.933,27.933,0,0,0-.8-6.286s-2.764-.139-3.721.35c-.369.189-.352,6.389,0,6.69" transform="translate(-862.524 -480.84)" fill="#fff"/>
        <path id="Trazado_750337" data-name="Trazado 750337" d="M224.878,632.831a14.488,14.488,0,1,1-14.488-14.488,14.488,14.488,0,0,1,14.488,14.488" transform="translate(-157.829 -498.169)" fill="#b1de19"/>
        <path id="Trazado_750338" data-name="Trazado 750338" d="M233.62,662.293c-2.139-12.8,7.66-13.117,7.66-13.117v-3.793l7.764,7.764-7.481,7.481v-4.34s-3.76.158-5.183,2.212-2.76,3.793-2.76,3.793" transform="translate(-187.97 -519.954)" fill="#fff"/>
        <path id="Trazado_750339" data-name="Trazado 750339" d="M1450.333,1390.907a14.488,14.488,0,1,1-14.488-14.488,14.488,14.488,0,0,1,14.488,14.488" transform="translate(-1145.118 -1108.914)" fill="#b1de19"/>
        <path id="Trazado_750340" data-name="Trazado 750340" d="M1459.076,1420.371c-2.139-12.8,7.66-13.117,7.66-13.117v-3.793l7.764,7.764-7.481,7.481v-4.34s-3.761.158-5.183,2.213-2.76,3.793-2.76,3.793" transform="translate(-1175.26 -1130.7)" fill="#fff"/>
        <path id="Trazado_750341" data-name="Trazado 750341" d="M1169.548,93.38a3.887,3.887,0,1,1-3.887-3.887,3.887,3.887,0,0,1,3.887,3.887" transform="translate(-935.984 -72.101)" fill="#b5dafd"/>
        <path id="Trazado_750342" data-name="Trazado 750342" d="M1169.548,183.38a3.887,3.887,0,1,1-3.887-3.887,3.887,3.887,0,0,1,3.887,3.887" transform="translate(-935.984 -144.609)" fill="#b5dafd"/>
        <path id="Trazado_750343" data-name="Trazado 750343" d="M1094.548,139.908a3.887,3.887,0,1,1-3.887-3.887,3.887,3.887,0,0,1,3.887,3.887" transform="translate(-875.561 -109.586)" fill="#b5dafd"/>
        <path id="Trazado_750344" data-name="Trazado 750344" d="M1118.126,124.538a.773.773,0,0,1-.389-.1l-14.576-8.449a.777.777,0,0,1-.02-1.333l14.576-9.043a.777.777,0,0,1,.819,1.321l-13.475,8.359,13.455,7.8a.777.777,0,0,1-.391,1.45" transform="translate(-888.45 -84.99)" fill="#b5dafd"/>
        <path id="Trazado_750345" data-name="Trazado 750345" d="M3098.887,621.071a3.887,3.887,0,1,1-3.887-3.887,3.887,3.887,0,0,1,3.887,3.887" transform="translate(-2490.358 -497.235)" fill="#b5dafd"/>
        <path id="Trazado_750346" data-name="Trazado 750346" d="M3098.887,711.071a3.887,3.887,0,1,1-3.887-3.887,3.887,3.887,0,0,1,3.887,3.887" transform="translate(-2490.358 -569.744)" fill="#b5dafd"/>
        <path id="Trazado_750347" data-name="Trazado 750347" d="M3023.887,667.6a3.887,3.887,0,1,1-3.887-3.887,3.887,3.887,0,0,1,3.887,3.887" transform="translate(-2429.934 -534.721)" fill="#b5dafd"/>
        <path id="Trazado_750348" data-name="Trazado 750348" d="M3047.466,652.23a.777.777,0,0,1-.389-.1l-14.576-8.449a.777.777,0,0,1-.02-1.333l14.576-9.043a.778.778,0,0,1,.82,1.321l-13.475,8.359,13.455,7.8a.777.777,0,0,1-.39,1.45" transform="translate(-2442.824 -510.125)" fill="#b5dafd"/>
        <path id="Trazado_750349" data-name="Trazado 750349" d="M2634.279,101.589h-6.137a2.347,2.347,0,0,0-2.347,2.347v5.055a2.347,2.347,0,0,0,2.347,2.347h6.137a2.347,2.347,0,0,0,2.347-2.347v-5.055a2.347,2.347,0,0,0-2.347-2.347" transform="translate(-2115.473 -81.846)" fill="#9ec8ff"/>
        <path id="Trazado_750350" data-name="Trazado 750350" d="M2735.609,101.589h-6.138a2.347,2.347,0,0,0-2.347,2.347v5.055a2.347,2.347,0,0,0,2.347,2.347h6.138a2.347,2.347,0,0,0,2.347-2.347v-5.055a2.347,2.347,0,0,0-2.347-2.347" transform="translate(-2197.11 -81.846)" fill="#9ec8ff"/>
        <path id="Trazado_750351" data-name="Trazado 750351" d="M2836.938,101.589H2830.8a2.347,2.347,0,0,0-2.348,2.347v5.055a2.347,2.347,0,0,0,2.348,2.347h6.138a2.346,2.346,0,0,0,2.346-2.347v-5.055a2.346,2.346,0,0,0-2.346-2.347" transform="translate(-2278.745 -81.846)" fill="#9ec8ff"/>
      </g>
    </g>
  </g>
</svg>
