<svg xmlns="http://www.w3.org/2000/svg" xmlns:xlink="http://www.w3.org/1999/xlink" width="820" height="554.938" viewBox="0 0 820 554.938">
  <defs>
    <clipPath id="clip-path">
      <rect id="Rectángulo_362089" data-name="Rectángulo 362089" width="820" height="554.937" fill="none"/>
    </clipPath>
    <clipPath id="clip-path-2">
      <rect id="Rectángulo_362088" data-name="Rectángulo 362088" width="819.999" height="554.938" fill="none"/>
    </clipPath>
    <clipPath id="clip-path-3">
      <rect id="Rectángulo_362079" data-name="Rectángulo 362079" width="13.252" height="20.197" fill="none"/>
    </clipPath>
    <clipPath id="clip-path-4">
      <rect id="Rectángulo_362080" data-name="Rectángulo 362080" width="5.697" height="10.942" fill="none"/>
    </clipPath>
    <clipPath id="clip-path-5">
      <rect id="Rectángulo_362081" data-name="Rectángulo 362081" width="117.76" height="8.66" fill="none"/>
    </clipPath>
    <clipPath id="clip-path-6">
      <rect id="Rectángulo_362082" data-name="Rectángulo 362082" width="5.844" height="6.484" fill="none"/>
    </clipPath>
    <clipPath id="clip-path-7">
      <rect id="Rectángulo_362083" data-name="Rectángulo 362083" width="88.515" height="140.663" fill="none"/>
    </clipPath>
    <clipPath id="clip-path-8">
      <rect id="Rectángulo_362084" data-name="Rectángulo 362084" width="19.918" height="12.872" fill="none"/>
    </clipPath>
    <clipPath id="clip-path-9">
      <rect id="Rectángulo_362085" data-name="Rectángulo 362085" width="13.437" height="78.515" fill="none"/>
    </clipPath>
    <clipPath id="clip-path-10">
      <rect id="Rectángulo_362086" data-name="Rectángulo 362086" width="14.051" height="74.237" fill="none"/>
    </clipPath>
  </defs>
  <g id="Grupo_1020850" data-name="Grupo 1020850" transform="translate(-390 -16440)">
    <g id="Grupo_1020542" data-name="Grupo 1020542" transform="translate(390 16440)" clip-path="url(#clip-path)">
      <g id="Grupo_1020541" data-name="Grupo 1020541" transform="translate(0 -0.001)">
        <g id="Grupo_1020540" data-name="Grupo 1020540" clip-path="url(#clip-path-2)">
          <path id="Trazado_753891" data-name="Trazado 753891" d="M1615.539,514.64V494.866l-99.705-37.8v28.708H1359.449a20.07,20.07,0,0,1-19.259-25.717l67.29-229.459,27.548,8.078V218.9l-27.19-92.105-83.305,79.475,27.549,8.079-67.29,229.459a77.8,77.8,0,0,0,74.658,99.695h156.384v28.708Z" transform="translate(-860.566 -85.142)" fill="#d2d9e1"/>
          <path id="Trazado_753892" data-name="Trazado 753892" d="M203.608,514.64V494.866l99.706-37.8v28.708H459.7a20.07,20.07,0,0,0,19.258-25.717L411.666,230.6l-27.548,8.078V218.9l27.19-92.105,83.305,79.475-27.548,8.079,67.29,229.459A77.8,77.8,0,0,1,459.7,543.506H303.314v28.708Z" transform="translate(-136.719 -85.142)" fill="#d2d9e1"/>
          <path id="Trazado_753893" data-name="Trazado 753893" d="M1615.539,454.45l-99.705-57.574v28.708H1359.449a20.07,20.07,0,0,1-19.259-25.717l67.29-229.458,27.548,8.078-27.19-111.878-83.305,79.475,27.549,8.079-67.29,229.459a77.8,77.8,0,0,0,74.658,99.695h156.384v28.708Z" transform="translate(-860.566 -44.725)" fill="#e1e6eb"/>
          <path id="Trazado_753894" data-name="Trazado 753894" d="M203.608,454.45l99.706-57.574v28.708H459.7a20.07,20.07,0,0,0,19.258-25.717l-67.29-229.458-27.548,8.078,27.19-111.878,83.305,79.475-27.548,8.079,67.29,229.459A77.8,77.8,0,0,1,459.7,483.316H303.314v28.708Z" transform="translate(-136.719 -44.725)" fill="#e1e6eb"/>
          <path id="Trazado_753895" data-name="Trazado 753895" d="M1783.227,759.422l-28.595-16.512v8.233h-44.849a5.756,5.756,0,0,1-5.523-7.376l16.578-56.505L1704.95,682.6l-16.578,56.505a22.313,22.313,0,0,0,21.411,28.591h44.849v8.233Z" transform="translate(-1133.098 -458.356)" fill="#f0f2f5"/>
          <path id="Trazado_753896" data-name="Trazado 753896" d="M522.751,759.422l28.594-16.512v8.233h44.849a5.756,5.756,0,0,0,5.523-7.376l-16.578-56.505,15.888-4.659,16.578,56.505A22.313,22.313,0,0,1,596.194,767.7H551.345v8.233Z" transform="translate(-351.019 -458.356)" fill="#f0f2f5"/>
          <path id="Trazado_753897" data-name="Trazado 753897" d="M1959.085,91.474,1930.49,74.962V83.2h-58.269V99.753h58.269v8.233Z" transform="translate(-1257.166 -50.335)" fill="#f0f2f5"/>
          <path id="Trazado_753898" data-name="Trazado 753898" d="M365.1,91.474,393.7,74.962V83.2h58.269V99.753H393.7v8.233Z" transform="translate(-245.161 -50.335)" fill="#f0f2f5"/>
          <path id="Trazado_753899" data-name="Trazado 753899" d="M1746.539,1527.245l-28.595-16.511v8.233h-58.269v16.557h58.269v8.233Z" transform="translate(-1114.445 -1014.432)" fill="#f0f2f5"/>
          <path id="Trazado_753900" data-name="Trazado 753900" d="M577.648,1527.245l28.595-16.511v8.233h58.269v16.557H606.242v8.233Z" transform="translate(-387.881 -1014.432)" fill="#f0f2f5"/>
          <path id="Trazado_753901" data-name="Trazado 753901" d="M925.4,1434.27s-17.681,24.281-21.5,83.263h240.293a443.241,443.241,0,0,0-17.782-77.572Z" transform="translate(-606.955 -963.088)" fill="#8d421b"/>
          <path id="Trazado_753902" data-name="Trazado 753902" d="M1041.18,719.261a4.636,4.636,0,0,1-2.03,3.676l-10.788,7.346s4.228,11.045-20.073,21.58c0,0-19.3,18.867-37.52,31.692,0,0-15.693,19.238-29.694-3.712A78.113,78.113,0,0,1,928.9,767.189l-.016-.017c-4.934-6.386-9.918-14.846-11.833-24.583.007.049.013.1.023.148.007.03.01.063.016.092,1.81,10.759,8.45,48.433,15.71,67.714,2.648,7.037.779,13.183-2.6,16.038l-3.656,3.085,4.563,22.257a2.153,2.153,0,0,1-1.764,2.556c-17.323,2.8-133.631,19.961-214.515.894a2.831,2.831,0,0,1-2.106-3.417l5.105-21.242a33.9,33.9,0,0,1-4.412-8.62c-1.048-3.055-2.089-6.265-1.8-9.517,1.107-12.467,11.452-42.52,12.02-71.186a.14.14,0,0,1,0,.023c0,.033,0,.066-.007.1-.131,1.534-1.616,17.382-7.49,30.93,0,0,0,.007-.006.007a.025.025,0,0,0,0,.01c-2.51,5.779-5.818,11.14-10.164,14.79,0,0-17.112,34.071-41.738,7.832,0,0-42.895-22.737-44.376-43.045l-14.442-13.781a6.327,6.327,0,0,1-1.918-3.85c-.8-6.922-.47-26.886,27.845-34.524a7.238,7.238,0,0,1,6.827,1.731l15.358,14.409s4.928-2.6,10.286,6.176c-.171-.371-3.653-8.354,9.12-17.911-4.024-32.747,8.167-118.634,21.745-123.391,0,0,.158-7.93,46.413-21.856.775-.23,1.564-.466,2.365-.7q1.74-.513,3.561-1.038l1.446-2.155a14.525,14.525,0,0,1,15.315-6.068,201.317,201.317,0,0,0,32.158,4.524c3.758.243,7.743.411,11.945.473.391.007.782.016,1.176.02.627.007,1.255.01,1.889.01.293,0,.585,0,.88,0a125.566,125.566,0,0,0,52.609-12.076,7.686,7.686,0,0,1,8.768,1.541,7.826,7.826,0,0,1,.614.7l1.863,2.408,2.28.46c11.692,2.4,64.527,13.561,65.414,19.566,2.7-.558,25.546,33.588,21.919,110.3a102.143,102.143,0,0,1,8.407,34s13.775-19.087,22.106-16.212l18.2-13.518a6.665,6.665,0,0,1,8.193.181c6.856,5.611,19.557,18.633,18.988,37.809" transform="translate(-405.102 -363.46)" fill="#ffb338"/>
          <g id="Grupo_1020518" data-name="Grupo 1020518" transform="translate(277.278 382.876)" opacity="0.4" style="mix-blend-mode: multiply;isolation: isolate">
            <g id="Grupo_1020517" data-name="Grupo 1020517">
              <g id="Grupo_1020516" data-name="Grupo 1020516" clip-path="url(#clip-path-3)">
                <path id="Trazado_753903" data-name="Trazado 753903" d="M856.421,1185.665s-7.009-12.707-12.39-20.2c0,0,17.247,10.454,12.39,20.2" transform="translate(-844.031 -1165.469)" fill="#996b21"/>
              </g>
            </g>
          </g>
          <g id="Grupo_1020521" data-name="Grupo 1020521" transform="translate(199.383 357.785)" opacity="0.4" style="mix-blend-mode: multiply;isolation: isolate">
            <g id="Grupo_1020520" data-name="Grupo 1020520">
              <g id="Grupo_1020519" data-name="Grupo 1020519" clip-path="url(#clip-path-4)">
                <path id="Trazado_753904" data-name="Trazado 753904" d="M612.616,1099.817s-8.462,2.226-4.76-7.7,4.76,7.7,4.76,7.7" transform="translate(-606.919 -1089.089)" fill="#996b21"/>
              </g>
            </g>
          </g>
          <g id="Grupo_1020524" data-name="Grupo 1020524" transform="translate(379.243 469.27)" opacity="0.4" style="mix-blend-mode: multiply;isolation: isolate">
            <g id="Grupo_1020523" data-name="Grupo 1020523">
              <g id="Grupo_1020522" data-name="Grupo 1020522" clip-path="url(#clip-path-5)">
                <path id="Trazado_753905" data-name="Trazado 753905" d="M1272.172,1428.448s-60.984,9.316-117.761,4.6c0,0,58.4,11.69,117.761-4.6" transform="translate(-1154.411 -1428.448)" fill="#996b21"/>
              </g>
            </g>
          </g>
          <g id="Grupo_1020527" data-name="Grupo 1020527" transform="translate(629.319 348.425)" opacity="0.4" style="mix-blend-mode: multiply;isolation: isolate">
            <g id="Grupo_1020526" data-name="Grupo 1020526">
              <g id="Grupo_1020525" data-name="Grupo 1020525" clip-path="url(#clip-path-6)">
                <path id="Trazado_753906" data-name="Trazado 753906" d="M1915.637,1066.545s6.816,3.188,5.727-5.945c0,0-4.652,3.217-5.727,5.945" transform="translate(-1915.638 -1060.6)" fill="#996b21"/>
              </g>
            </g>
          </g>
          <g id="Grupo_1020530" data-name="Grupo 1020530" transform="translate(328.605 185.242)" opacity="0.4" style="mix-blend-mode: multiply;isolation: isolate">
            <g id="Grupo_1020529" data-name="Grupo 1020529">
              <g id="Grupo_1020528" data-name="Grupo 1020528" clip-path="url(#clip-path-7)">
                <path id="Trazado_753907" data-name="Trazado 753907" d="M1087.652,632.242c5.705-10.551-11.876-19.819-13.578-20.686a46.728,46.728,0,0,0,5.492-7.574,40.655,40.655,0,0,0,3.886-8.643,31.394,31.394,0,0,0,1.339-9.514,21.3,21.3,0,0,0-2.384-9.29,36.963,36.963,0,0,0-4.906-7.268q-.954,0-1.89-.011c.188.142.373.284.551.433a15.542,15.542,0,0,1,5.116,7.315,23.847,23.847,0,0,1,.9,8.775,37.995,37.995,0,0,1-1.709,8.661c-.813,2.728-1.787,5.442-2.877,8.139,2.643-8.519,4.544-21.738-3.151-33.34-4.2-.064-8.188-.231-11.947-.472a201.375,201.375,0,0,1-32.157-4.526,14.526,14.526,0,0,0-15.315,6.068l-1.446,2.156q-1.822.522-3.559,1.037l-2.366.7c-4.412,8.2-3.546,15.134-3.546,15.134-14.86,29.717,18.139,23.866,20.942,23.322a20.213,20.213,0,0,0-1.9,3.751,27.1,27.1,0,0,0-1.883,8.469,17.791,17.791,0,0,0,.266,4.4,24.132,24.132,0,0,0,3.375,8.065,21.605,21.605,0,0,0,2.647,3.442,15.62,15.62,0,0,0,3.478,2.739,15.262,15.262,0,0,0,4.174,1.645,23.477,23.477,0,0,0,4.4.551,46.738,46.738,0,0,0,8.611-.522c5.336-.807,10.409-2.011,15.748-2.327-3.95,18.75-21.884,17.489-29.685,29.038s3.311,21.073,3.311,21.073a16.473,16.473,0,0,1,.206-8.21c-1.027,7.9,4.309,9.851,4.309,9.851a19.062,19.062,0,0,1,.309-7.286c2.05,13.343,10.26,12.214,10.26,12.214-2.771-3.8-2.359-12.214-2.359-12.214,2.771,20.626,18.164,16.935,18.164,16.935a12.044,12.044,0,0,1-2.664-2.565c11.695,5.329,13.7-8.292,13.7-8.292-7.748,5.144-10.917,2.082-12.153-2.27a15.492,15.492,0,0,1,3.1-13.922c9.417-11.6,7.244-22.256,7.244-22.256,18.093-24.2-2.942-41.842-2.942-41.842,9.045,3.734,12.892,19.113,12.892,19.113M1035.6,642.818a16.61,16.61,0,0,1-3.872-.813,11.053,11.053,0,0,1-6.064-5.119,13.081,13.081,0,0,1-1.393-3.84,24.58,24.58,0,0,1-.405-4.032c-.021-.693-.032-1.389-.039-2.085.7,7.854,4.427,15.311,15.336,16.032a27.592,27.592,0,0,1-3.563-.142" transform="translate(-1000.272 -563.87)" fill="#996b21"/>
              </g>
            </g>
          </g>
          <g id="Grupo_1020533" data-name="Grupo 1020533" transform="translate(530.626 357.025)" opacity="0.4" style="mix-blend-mode: multiply;isolation: isolate">
            <g id="Grupo_1020532" data-name="Grupo 1020532">
              <g id="Grupo_1020531" data-name="Grupo 1020531" clip-path="url(#clip-path-8)">
                <path id="Trazado_753908" data-name="Trazado 753908" d="M1615.217,1099.649s14.755-10.615,19.919-12.872l-11.091,2.929a9.09,9.09,0,0,0-5.267,3.773,60.179,60.179,0,0,0-3.561,6.171" transform="translate(-1615.218 -1086.777)" fill="#996b21"/>
              </g>
            </g>
          </g>
          <g id="Grupo_1020536" data-name="Grupo 1020536" transform="translate(305.094 330.473)" opacity="0.4">
            <g id="Grupo_1020535" data-name="Grupo 1020535">
              <g id="Grupo_1020534" data-name="Grupo 1020534" clip-path="url(#clip-path-9)">
                <path id="Trazado_753909" data-name="Trazado 753909" d="M942.141,1053.408v.023c0,.033,0,.065-.007.1-.131,1.534-1.616,17.382-7.49,30.93,0,0,0,.007-.007.007,9.656-22.873-6.022-44.859-5.933-78.515,1.43,23.486,12.871,34.287,12.871,34.287.3,3.137.565,13.17.565,13.17" transform="translate(-928.704 -1005.951)" fill="#996b21"/>
              </g>
            </g>
          </g>
          <g id="Grupo_1020539" data-name="Grupo 1020539" transform="translate(509.746 329.491)" opacity="0.4" style="mix-blend-mode: multiply;isolation: isolate">
            <g id="Grupo_1020538" data-name="Grupo 1020538">
              <g id="Grupo_1020537" data-name="Grupo 1020537" clip-path="url(#clip-path-10)">
                <path id="Trazado_753910" data-name="Trazado 753910" d="M1565.69,1077.185c-4.934-6.386-9.918-14.846-11.833-24.583.006.049.013.1.023.148q-.231-1.192-.414-2.434s-1.81-13.279-1.81-19.511c0,0,7.621-9.1,9.936-27.84,0,0-9.936,56.233,4.115,74.237l-.017-.017" transform="translate(-1551.657 -1002.965)" fill="#996b21"/>
              </g>
            </g>
          </g>
          <path id="Trazado_753911" data-name="Trazado 753911" d="M972.088,1114.424a50.627,50.627,0,0,0,4.64,3.9l.609.449c.2.154.406.3.618.438l1.256.845c.417.285.86.528,1.289.793l.648.391c.217.128.443.242.663.364a44.127,44.127,0,0,0,5.46,2.611,39.535,39.535,0,0,0,5.768,1.861,27.944,27.944,0,0,1-2.968-.667c-.973-.288-1.94-.6-2.891-.958a40.535,40.535,0,0,1-5.528-2.56,39.509,39.509,0,0,1-5.077-3.366c-.395-.32-.812-.611-1.187-.955l-1.143-1.006c-.386-.329-.735-.7-1.093-1.058Z" transform="translate(-652.741 -748.316)" fill="#996b21"/>
          <path id="Trazado_753912" data-name="Trazado 753912" d="M930.735,920.558a77.7,77.7,0,0,0-1.594,8.033q-.609,4.05-.884,8.138c-.174,2.723-.255,5.452-.2,8.179s.262,5.45.6,8.156a65.766,65.766,0,0,0,1.469,8.039c.174.659.321,1.325.515,1.978l.59,1.957c.193.654.446,1.287.665,1.933l.338.965c.122.318.255.632.382.948a51.358,51.358,0,0,0,8.323,14.016l-1.306-1.579c-.216-.265-.439-.524-.65-.793l-.6-.829c-.4-.556-.814-1.1-1.2-1.666l-1.1-1.73a50.543,50.543,0,0,1-3.7-7.324,54.611,54.611,0,0,1-2.546-7.8,65.718,65.718,0,0,1-1.5-8.071q-.49-4.078-.57-8.19c-.04-2.737.034-5.475.249-8.2a85.7,85.7,0,0,1,2.728-16.153" transform="translate(-622.967 -618.139)" fill="#996b21"/>
          <path id="Trazado_753913" data-name="Trazado 753913" d="M905.871,814.688c1.245,2.411,2.349,4.894,3.382,7.4s1.955,5.067,2.818,7.641q1.271,3.869,2.241,7.83a79.772,79.772,0,0,1,1.524,8l-.394-2-.195-1-.229-.991-.447-1.982-.505-1.968c-.162-.658-.35-1.309-.531-1.961s-.354-1.307-.554-1.954l-.594-1.943c-.2-.648-.421-1.287-.629-1.932-.835-2.576-1.76-5.124-2.74-7.651l-.747-1.89-.777-1.878c-.517-1.253-1.062-2.494-1.625-3.729" transform="translate(-608.277 -547.049)" fill="#996b21"/>
          <path id="Trazado_753914" data-name="Trazado 753914" d="M907.319,864.173a22.754,22.754,0,0,1-2.965-1.01,27.368,27.368,0,0,1-2.828-1.359,22.307,22.307,0,0,1-2.631-1.716,15.781,15.781,0,0,1-2.293-2.136c.405.332.773.7,1.2,1,.4.333.823.63,1.246.93.86.577,1.733,1.135,2.643,1.633s1.832.97,2.77,1.416q.7.334,1.422.638c.474.215.958.406,1.442.6" transform="translate(-602.053 -576.1)" fill="#996b21"/>
          <path id="Trazado_753915" data-name="Trazado 753915" d="M880.469,676.342q-.075,2.666,0,5.331c.018.888.059,1.775.087,2.663l.15,2.66c.235,3.544.61,7.079,1.15,10.587.141.876.248,1.758.416,2.63l.485,2.618c.161.873.378,1.734.565,2.6l.29,1.3c.095.434.219.86.327,1.291l.673,2.577.784,2.545.388,1.275.45,1.254.9,2.511-.979-2.481-.486-1.243-.424-1.266-.831-2.537-.718-2.572c-.116-.43-.248-.855-.35-1.289l-.3-1.3c-.192-.869-.415-1.732-.581-2.607l-.5-2.623c-.172-.874-.286-1.757-.431-2.635-.515-3.522-.9-7.066-1.077-10.621a93.66,93.66,0,0,1,.013-10.669" transform="translate(-591.114 -454.152)" fill="#996b21"/>
          <path id="Trazado_753916" data-name="Trazado 753916" d="M787.5,1092.021q2.229,2.549,4.385,5.161t4.246,5.277c2.793,3.548,5.49,7.172,8.13,10.837q3.915,5.529,7.539,11.257c1.167,1.933,2.366,3.848,3.461,5.824,1.137,1.951,2.149,3.972,3.2,5.969-1.1-1.972-2.157-3.966-3.339-5.888-1.122-1.958-2.344-3.855-3.536-5.77-2.449-3.788-4.965-7.534-7.593-11.2s-5.313-7.294-8.061-10.873q-2.06-2.685-4.171-5.331-2.1-2.659-4.261-5.262" transform="translate(-528.796 -733.273)" fill="#996b21"/>
          <path id="Trazado_753917" data-name="Trazado 753917" d="M821.917,1010.362c1.021-.72,2.087-1.371,3.156-2.018q1.618-.943,3.278-1.816c2.213-1.163,4.491-2.2,6.8-3.146,1.153-.484,2.337-.889,3.508-1.324,1.19-.383,2.364-.817,3.574-1.135a63.693,63.693,0,0,1,7.3-1.674l-1.822.43-.911.211c-.3.072-.6.163-.9.244l-1.8.486c-.6.169-1.192.365-1.787.546-1.194.354-2.366.779-3.547,1.174-1.164.443-2.339.858-3.485,1.347-1.16.453-2.3.959-3.44,1.458l-1.693.791-1.681.817c-2.231,1.111-4.425,2.3-6.549,3.61" transform="translate(-551.904 -670.978)" fill="#996b21"/>
          <path id="Trazado_753918" data-name="Trazado 753918" d="M850.952,1155.206a23.262,23.262,0,0,0-2.084-1.114c-.355-.171-.71-.341-1.072-.495s-.723-.31-1.089-.454a43.284,43.284,0,0,0-4.466-1.511c-1.515-.417-3.048-.778-4.6-1.05l-.58-.113-.584-.088-1.169-.178c-.78-.116-1.565-.188-2.348-.3.788.037,1.578.077,2.367.14l1.179.132.59.067.586.091c.391.06.782.121,1.173.189s.775.16,1.163.24c.778.149,1.541.365,2.31.554a37.7,37.7,0,0,1,4.474,1.595,22.645,22.645,0,0,1,4.147,2.3" transform="translate(-559.321 -772.14)" fill="#996b21"/>
          <path id="Trazado_753919" data-name="Trazado 753919" d="M968.456,1123.582l-.106-1.657-.092-1.656-.169-3.312c-.045-1.1-.1-2.209-.129-3.314s-.069-2.211-.069-3.319c.071.549.12,1.1.181,1.651l.14,1.654c.089,1.1.152,2.207.2,3.313s.087,2.211.093,3.318.008,2.214-.053,3.321" transform="translate(-649.922 -745.564)" fill="#996b21"/>
          <path id="Trazado_753920" data-name="Trazado 753920" d="M686.36,1089.414a48.838,48.838,0,0,1-4.577,10.927,44.694,44.694,0,0,1-7.139,9.474,36.466,36.466,0,0,1-9.614,6.933,35.5,35.5,0,0,1-5.534,2.158,37.667,37.667,0,0,1-5.81,1.189,37.46,37.46,0,0,0,11.231-3.573,36.924,36.924,0,0,0,9.495-6.939,45.548,45.548,0,0,0,7.153-9.368,52.07,52.07,0,0,0,2.694-5.265,50.769,50.769,0,0,0,2.1-5.536" transform="translate(-438.939 -731.522)" fill="#996b21"/>
          <path id="Trazado_753921" data-name="Trazado 753921" d="M1521.574,1089.688a30.176,30.176,0,0,1-2.837,3.2,37.309,37.309,0,0,1-3.225,2.818,29.134,29.134,0,0,1-3.6,2.323,18.939,18.939,0,0,1-3.981,1.558c.659-.273,1.338-.482,1.969-.813.653-.277,1.268-.63,1.89-.967a33.186,33.186,0,0,0,3.525-2.362c1.131-.854,2.205-1.78,3.25-2.739q.785-.719,1.534-1.477c.509-.5.995-1.015,1.477-1.539" transform="translate(-1012.55 -731.706)" fill="#996b21"/>
          <path id="Trazado_753922" data-name="Trazado 753922" d="M1562.258,922.5a116.7,116.7,0,0,1,.453,14.082c-.055,2.35-.2,4.7-.392,7.041s-.461,4.681-.82,7.006a77.2,77.2,0,0,1-3.32,13.7,53,53,0,0,1-2.766,6.488,42.25,42.25,0,0,1-3.759,5.956,46.9,46.9,0,0,0,6.286-12.527,79.367,79.367,0,0,0,3.235-13.667,120.147,120.147,0,0,0,1.285-14.005q.13-3.517.079-7.039c-.028-2.346-.1-4.694-.281-7.036" transform="translate(-1041.909 -619.443)" fill="#996b21"/>
          <path id="Trazado_753923" data-name="Trazado 753923" d="M1594.211,799.264q-.838,2.159-1.6,4.342c-.514,1.454-1.018,2.912-1.494,4.378-.958,2.931-1.893,5.871-2.724,8.84q-1.285,4.442-2.388,8.936c-.756,2.99-1.408,6.005-2.069,9.02l.41-2.278c.14-.759.272-1.52.432-2.275.316-1.511.625-3.024.981-4.526.681-3.012,1.485-6,2.319-8.968q1.287-4.45,2.8-8.83c1.017-2.915,2.1-5.811,3.335-8.639" transform="translate(-1063.585 -536.691)" fill="#996b21"/>
          <path id="Trazado_753924" data-name="Trazado 753924" d="M1631.5,624.463a90.115,90.115,0,0,1,1.3,12.295,107.212,107.212,0,0,1-.2,12.371c-.12,2.062-.4,4.107-.626,6.159l-.477,3.058c-.083.509-.155,1.02-.247,1.528l-.318,1.515a86.3,86.3,0,0,1-3.3,11.915l.89-2.96.445-1.479c.138-.5.246-1,.371-1.5l.742-3c.217-1.006.4-2.019.6-3.028l.3-1.515c.087-.507.158-1.017.238-1.525l.461-3.052c.215-2.046.485-4.088.6-6.143a113.189,113.189,0,0,0,.276-12.338c-.028-1.029-.086-2.057-.128-3.085q-.1-1.541-.215-3.081c-.168-2.052-.38-4.1-.7-6.138" transform="translate(-1092.93 -419.316)" fill="#996b21"/>
          <path id="Trazado_753925" data-name="Trazado 753925" d="M1337.921,563.012a48.7,48.7,0,0,1-2.374,8.253,61.338,61.338,0,0,1-3.626,7.8,60.389,60.389,0,0,1-10.341,13.7c-1,1.028-2.092,1.966-3.159,2.927-1.117.9-2.2,1.843-3.377,2.671l-.866.639c-.286.216-.578.426-.88.619l-1.794,1.191c-.295.2-.6.388-.913.569l-.926.55c-.622.358-1.226.747-1.87,1.065l-1.906,1-.477.249-.489.225-.977.45c-.655.293-1.3.616-1.961.884l-2,.8-1,.4-1.018.345-2.036.69c-.337.121-.681.22-1.027.315l-1.033.294-2.066.587,2.055-.626,1.027-.313c.343-.1.685-.207,1.02-.334l2.02-.727,1.009-.363.99-.413,1.983-.82c.66-.274,1.3-.6,1.946-.9l.969-.459.485-.229.472-.253,1.889-1.014c.638-.324,1.236-.718,1.851-1.081l.919-.551c.308-.181.614-.365.907-.57l1.782-1.192c.3-.193.589-.4.874-.619l.86-.639c1.166-.828,2.243-1.769,3.351-2.669,1.057-.96,2.136-1.9,3.132-2.922A58.966,58.966,0,0,0,1327,586.1a64.9,64.9,0,0,0,4.7-7.162,61.555,61.555,0,0,0,3.7-7.733,48.635,48.635,0,0,0,2.523-8.2" transform="translate(-867.428 -378.052)" fill="#996b21"/>
          <path id="Trazado_753926" data-name="Trazado 753926" d="M1653.178,1057.908q-2.487,1.192-4.933,2.463c-1.633.843-3.26,1.7-4.872,2.577-3.227,1.757-6.438,3.544-9.589,5.433q-4.749,2.8-9.386,5.777c-3.1,1.968-6.139,4.039-9.18,6.106l2.231-1.621c.745-.538,1.486-1.083,2.246-1.6,1.514-1.042,3.026-2.091,4.566-3.095,3.062-2.038,6.2-3.96,9.356-5.848q4.754-2.8,9.638-5.372c3.259-1.705,6.552-3.348,9.923-4.818" transform="translate(-1084.592 -710.367)" fill="#996b21"/>
          <path id="Trazado_753927" data-name="Trazado 753927" d="M1644.867,1083.851a38.648,38.648,0,0,0-4.095-.467,40.938,40.938,0,0,0-4.112-.081,40.074,40.074,0,0,0-4.1.28c-1.367.138-2.717.391-4.073.636q.5-.139,1-.269c.334-.088.667-.181,1.005-.246.676-.138,1.353-.277,2.037-.371a33.93,33.93,0,0,1,4.128-.357,34.649,34.649,0,0,1,4.141.159c.687.07,1.372.164,2.053.272.679.128,1.358.255,2.021.446" transform="translate(-1093.5 -727.194)" fill="#996b21"/>
          <path id="Trazado_753928" data-name="Trazado 753928" d="M1553.462,1107.219c-.149-.8-.267-1.612-.394-2.42l-.33-2.429c-.208-1.621-.374-3.247-.537-4.873-.138-1.628-.277-3.257-.368-4.889-.047-.815-.085-1.632-.12-2.448s-.05-1.634-.06-2.451l.433,4.881c.143,1.626.279,3.252.443,4.877.136,1.627.306,3.25.46,4.875Z" transform="translate(-1041.909 -730.378)" fill="#996b21"/>
          <path id="Trazado_753929" data-name="Trazado 753929" d="M1606.779,847.3c-1.049.777-2.151,1.479-3.271,2.149s-2.278,1.279-3.443,1.871c-1.174.572-2.366,1.11-3.583,1.586a34.416,34.416,0,0,1-3.718,1.227c.6-.248,1.224-.449,1.821-.711l.905-.363.9-.387c1.19-.522,2.376-1.054,3.534-1.646,1.171-.564,2.319-1.175,3.463-1.8q.858-.466,1.7-.952c.569-.316,1.129-.648,1.691-.979" transform="translate(-1069.515 -568.945)" fill="#996b21"/>
          <path id="Trazado_753930" data-name="Trazado 753930" d="M1681.89,961.8a22.574,22.574,0,0,1-.3,6.163,20.239,20.239,0,0,1-2,5.859,15.675,15.675,0,0,1-3.92,4.786,15.929,15.929,0,0,1-5.463,2.846,19.408,19.408,0,0,0,2.789-1.3,14.981,14.981,0,0,0,2.513-1.745,15.9,15.9,0,0,0,3.791-4.746,20.837,20.837,0,0,0,2.042-5.752,25.8,25.8,0,0,0,.452-3.038,23.9,23.9,0,0,0,.1-3.077" transform="translate(-1121.515 -645.834)" fill="#996b21"/>
          <path id="Trazado_753931" data-name="Trazado 753931" d="M1803.6,1033.972a32.591,32.591,0,0,0,1.56,5.084,38.12,38.12,0,0,0,2.252,4.81,34.561,34.561,0,0,0,6.457,8.37,31.617,31.617,0,0,0,4.143,3.3,33.839,33.839,0,0,0,4.642,2.557,38.678,38.678,0,0,0,10.216,2.841c-.88-.12-1.766-.208-2.642-.365l-1.31-.254c-.218-.045-.438-.079-.654-.132l-.647-.166-1.292-.338-1.271-.414c-.855-.254-1.669-.623-2.5-.941-.409-.177-.809-.375-1.214-.562l-.6-.287-.587-.322c-.389-.218-.784-.427-1.169-.653l-1.131-.716a31.8,31.8,0,0,1-4.2-3.309,34.028,34.028,0,0,1-6.452-8.488,34.75,34.75,0,0,1-3.591-10.015" transform="translate(-1211.09 -694.294)" fill="#996b21"/>
          <path id="Trazado_753932" data-name="Trazado 753932" d="M979.456,1421.37c15.7,2.563,31.52,4.239,47.365,5.535q11.886.959,23.8,1.463,2.978.144,5.959.221c1.987.057,3.974.121,5.961.145s3.974.075,5.962.092l5.963.026c15.9-.05,31.8-.625,47.642-1.988a474.156,474.156,0,0,0,47.256-6.323l.006.032-5.86,1.11-2.93.555-2.943.486-5.886.965-5.905.844-2.953.421-2.96.364-5.922.724-5.935.6c-.99.1-1.978.2-2.969.291l-2.973.245c-7.924.7-15.869,1.131-23.815,1.467l-5.961.2c-1.988.055-3.977.075-5.964.114l-2.982.05-2.983.011c-1.988,0-3.976.029-5.964.006-7.953-.014-15.9-.258-23.85-.54s-15.889-.737-23.819-1.34l-5.946-.476c-1.981-.167-3.961-.352-5.94-.542l-5.933-.618c-1.975-.227-3.953-.433-5.926-.679-7.9-.948-15.781-2.015-23.606-3.436Z" transform="translate(-657.685 -953.869)" fill="#996b21"/>
          <path id="Trazado_753933" data-name="Trazado 753933" d="M1238.253,1534.4c-.16,1.512-.249,3.03-.276,4.549s-.007,3.037.091,4.551a34.959,34.959,0,0,0,1.622,8.911,19.3,19.3,0,0,0,1.914,4.086,12.713,12.713,0,0,0,2.992,3.346,12.051,12.051,0,0,0,4.018,2.006l1.1.271c.371.073.75.105,1.124.16l.565.074.569.016,1.14.039-1.141.011-.572,0-.569-.056c-.378-.043-.761-.063-1.137-.125l-1.122-.237a12.23,12.23,0,0,1-4.129-1.96,12.436,12.436,0,0,1-3.092-3.386,19.534,19.534,0,0,1-1.973-4.142,28.987,28.987,0,0,1-1.083-4.453,37.611,37.611,0,0,1-.48-4.55,48.054,48.054,0,0,1,.437-9.114" transform="translate(-831.139 -1030.322)" fill="#eb6f2d"/>
          <path id="Trazado_753934" data-name="Trazado 753934" d="M976.062,1546.845a68.793,68.793,0,0,1-4.559,7.739,81.826,81.826,0,0,1-5.447,7.153,66.258,66.258,0,0,1-6.291,6.424,53.069,53.069,0,0,1-7.192,5.378l1.827-1.306c.3-.218.612-.429.911-.653l.872-.705c.58-.471,1.174-.925,1.744-1.407l1.67-1.495a70.587,70.587,0,0,0,6.211-6.449,88.8,88.8,0,0,0,5.489-7.081l1.263-1.852c.4-.629.822-1.249,1.214-1.885q1.208-1.89,2.289-3.86" transform="translate(-639.636 -1038.68)" fill="#eb6f2d"/>
          <path id="Trazado_753935" data-name="Trazado 753935" d="M1517.108,1546.845q1.084,1.966,2.289,3.86c.392.636.811,1.256,1.214,1.885l1.263,1.852a88.754,88.754,0,0,0,5.489,7.081,70.488,70.488,0,0,0,6.211,6.449l1.67,1.495c.57.482,1.164.937,1.744,1.407l.872.705c.3.224.608.435.911.653l1.827,1.306a53.078,53.078,0,0,1-7.193-5.378,66.285,66.285,0,0,1-6.291-6.424,81.777,81.777,0,0,1-5.447-7.153,68.794,68.794,0,0,1-4.559-7.739" transform="translate(-1018.713 -1038.68)" fill="#eb6f2d"/>
          <path id="Trazado_753936" data-name="Trazado 753936" d="M1292.951,1534.4c.09,1.913.145,3.827.194,5.741s.069,3.829.106,5.744c.01,1.914.033,3.829.029,5.744l-.012,2.872c-.016.958-.021,1.915-.047,2.872-.048-.957-.076-1.914-.114-2.871l-.079-2.872c-.049-1.914-.07-3.828-.105-5.742-.009-1.914-.034-3.828-.029-5.743s.013-3.829.058-5.745" transform="translate(-868.156 -1030.322)" fill="#eb6f2d"/>
          <path id="Trazado_753937" data-name="Trazado 753937" d="M342.091,898.831s6.2,21.063-24.61,30.429L291.849,887.8a17.447,17.447,0,0,0-16.339-8.211c-8.042.694-19.21,1.466-28.259,1.366a26.165,26.165,0,0,0-9.156,1.528c-5.171,1.86-13.256,4.793-16.715,6.172-5.164,2.059-20.418,8.807-20.418,8.807a2.864,2.864,0,0,1-4.012-2.454c-.125-3.039,2.2-7.4,14.275-10.6l-13.13.777a24.316,24.316,0,0,0-6.344,1.236l-11.933,4.029a2.648,2.648,0,0,1-3.507-2.407c0-.02,0-.04,0-.06l-3.627,2.283a3.445,3.445,0,0,1-5.262-3.312c.538-4.313,4.288-10.088,18.53-14.1,0,0,20-10.17,32.4-12.123a27.62,27.62,0,0,1,17.694-4.866l6.227-5.281-11.951-.989a27.878,27.878,0,0,0-4.339-.027c-4.67.344-16.711.5-18.284-6.8-1.669-7.75,10.922-8.782,19.119-6.79a27.3,27.3,0,0,0,6.971.729l13.915-.266s28.71-6.246,44.664,13.1Z" transform="translate(-112.401 -560.748)" fill="#ffc89f"/>
          <path id="Trazado_753938" data-name="Trazado 753938" d="M194.138,953.6a3.617,3.617,0,0,1-.139-1.643,5.2,5.2,0,0,1,.476-1.592,8.856,8.856,0,0,1,2-2.638,20.517,20.517,0,0,1,5.586-3.516,53.359,53.359,0,0,1,6.212-2.215q3.161-.934,6.375-1.674t6.468-1.274c1.082-.186,2.174-.338,3.247-.529s2.142-.433,3.2-.723a37.165,37.165,0,0,0,6.147-2.27l2.971-1.421,2.982-1.4.014.03-2.933,1.5-2.944,1.477c-.982.5-1.989.948-3.014,1.351a30.124,30.124,0,0,1-3.134,1.055c-1.062.3-2.137.547-3.223.742s-2.175.325-3.258.5c-2.166.346-4.329.708-6.478,1.151a53.488,53.488,0,0,0-12.518,3.937,29.186,29.186,0,0,0-2.891,1.538,16.812,16.812,0,0,0-2.633,1.924,9.057,9.057,0,0,0-2.019,2.528,5.539,5.539,0,0,0-.525,1.531,3.557,3.557,0,0,0,.06,1.615Z" transform="translate(-130.244 -626.295)" fill="#ff9b6c"/>
          <path id="Trazado_753939" data-name="Trazado 753939" d="M300.82,959.741c1.53-1.236,3.114-2.4,4.717-3.542s3.246-2.223,4.9-3.291c1.667-1.045,3.355-2.058,5.076-3.012s3.485-1.832,5.287-2.619c-.865.469-1.747.9-2.6,1.391-.866.462-1.714.958-2.564,1.447-1.691,1-3.375,2.005-5.025,3.07-1.663,1.043-3.3,2.129-4.931,3.221q-1.225.818-2.436,1.657c-.815.549-1.617,1.117-2.424,1.678" transform="translate(-201.996 -636.08)" fill="#ff9b6c"/>
          <path id="Trazado_753940" data-name="Trazado 753940" d="M404.5,884.243a31.462,31.462,0,0,0,6.148,2.849,38.729,38.729,0,0,0,6.557,1.68c.277.059.556.1.836.133l.84.112.84.112c.28.041.563.046.844.071l1.691.122c.564.017,1.13.016,1.695.031,1.131.054,2.26-.052,3.391-.092l.425-.016.422-.043.845-.09,1.693-.173-1.682.26-.843.127-.422.062-.424.035c-1.133.072-2.266.208-3.4.184-.568,0-1.138.017-1.707,0l-1.7-.108c-.283-.023-.569-.026-.851-.065l-.848-.105-.847-.106c-.283-.032-.565-.07-.844-.128l-1.677-.324c-.555-.126-1.105-.273-1.658-.409s-1.092-.319-1.639-.477-1.08-.359-1.613-.558a33.8,33.8,0,0,1-3.132-1.351,23.426,23.426,0,0,1-2.93-1.734" transform="translate(-271.615 -593.754)" fill="#ff9b6c"/>
          <path id="Trazado_753941" data-name="Trazado 753941" d="M395.31,872.991a10.827,10.827,0,0,0,.678-1.053,10.409,10.409,0,0,0,.55-1.1,10.516,10.516,0,0,0,.426-1.159c.125-.395.22-.8.325-1.212a4.962,4.962,0,0,1-.076,1.273,5.719,5.719,0,0,1-1.01,2.342,4.11,4.11,0,0,1-.892.914" transform="translate(-265.444 -583.157)" fill="#ff9b6c"/>
          <path id="Trazado_753942" data-name="Trazado 753942" d="M397.628,909.775c3.186-1.57,6.46-2.956,9.768-4.252s6.672-2.452,10.073-3.487c.85-.257,1.711-.481,2.566-.723.429-.117.855-.242,1.285-.352l1.3-.315,1.3-.315c.431-.107.863-.212,1.3-.294l2.615-.522a59.529,59.529,0,0,1,10.6-.981l-2.658.144-.664.034-.661.078-1.321.156-1.321.149c-.439.059-.875.142-1.312.213-.873.153-1.751.278-2.619.455-3.478.687-6.913,1.576-10.311,2.587s-6.752,2.173-10.077,3.407c-.831.31-1.663.618-2.486.948s-1.651.649-2.471.988c-1.647.659-3.279,1.358-4.9,2.081" transform="translate(-267.001 -603.35)" fill="#ff9b6c"/>
          <path id="Trazado_753943" data-name="Trazado 753943" d="M322.9,920.561a17.813,17.813,0,0,0,3.331,3.809,20.85,20.85,0,0,0,4.161,2.856c.367.208.759.366,1.137.552l.572.269.592.223,1.187.44c.407.112.812.229,1.218.349l.609.178c.206.049.414.086.621.129l1.245.253c.833.152,1.68.219,2.521.349l-1.273-.08-.638-.044a5.1,5.1,0,0,1-.635-.065l-1.262-.208c-.21-.036-.422-.066-.631-.108l-.621-.158q-.621-.156-1.241-.323l-1.208-.432-.6-.219-.584-.266c-.386-.184-.786-.34-1.161-.548l-1.115-.637c-.365-.223-.712-.475-1.069-.711s-.684-.514-1.025-.772a11.616,11.616,0,0,1-.969-.841,19.048,19.048,0,0,1-1.752-1.867,13.8,13.8,0,0,1-1.41-2.128" transform="translate(-216.825 -618.141)" fill="#ff9b6c"/>
          <path id="Trazado_753944" data-name="Trazado 753944" d="M269.66,926.113c-1.192-.036-2.384-.006-3.573.061l-.892.048-.89.068c-.594.04-1.186.1-1.778.166q-3.551.376-7.061,1.043c-1.166.238-2.338.448-3.495.731-.579.137-1.162.261-1.738.408l-1.729.447-.866.221-.858.247-1.717.495c-1.144.334-2.273.715-3.417,1.057,1.119-.411,2.239-.824,3.368-1.21l1.707-.54.854-.269.862-.243,1.726-.478c.578-.152,1.161-.281,1.74-.423,1.158-.294,2.333-.515,3.5-.762,2.352-.419,4.718-.774,7.1-.971a44.377,44.377,0,0,1,7.156-.092" transform="translate(-162.261 -621.797)" fill="#ff9b6c"/>
          <path id="Trazado_753945" data-name="Trazado 753945" d="M1859.363,879.032s-8.621,21.705,17.575,34.991l33.862-35.149a17.446,17.446,0,0,1,17.706-4.572c7.713,2.378,18.466,5.492,27.331,7.308a26.169,26.169,0,0,1,8.627,3.429c4.661,2.912,11.943,7.486,15.033,9.565,4.611,3.1,18.094,12.924,18.094,12.924a2.864,2.864,0,0,0,4.44-1.551c.765-2.944-.588-7.7-11.711-13.382l12.669,3.535a24.315,24.315,0,0,1,5.94,2.549l10.812,6.461a2.648,2.648,0,0,0,3.937-1.611l.013-.058,3.063,3a3.445,3.445,0,0,0,5.844-2.125c.386-4.329-2.059-10.766-15.131-17.7,0,0-17.4-14.168-29.1-18.7a27.622,27.622,0,0,0-16.266-8.5l-4.971-6.478,11.891,1.559a27.925,27.925,0,0,1,4.247.89c4.492,1.323,16.228,4.022,19.31-2.786,3.27-7.222-8.819-10.892-17.252-10.678a27.315,27.315,0,0,1-6.968-.761l-13.544-3.2s-26.741-12.174-46.423,3.363Z" transform="translate(-1247.62 -559.653)" fill="#ffc89f"/>
          <path id="Trazado_753946" data-name="Trazado 753946" d="M2280.358,985.354a3.564,3.564,0,0,0,.4-1.565,5.561,5.561,0,0,0-.189-1.608,9.083,9.083,0,0,0-1.439-2.9,16.814,16.814,0,0,0-2.168-2.437,28.96,28.96,0,0,0-2.5-2.114,53.5,53.5,0,0,0-11.4-6.494c-2.007-.887-4.044-1.7-6.088-2.495-1.021-.4-2.055-.76-3.078-1.179s-2.018-.893-2.994-1.407a30,30,0,0,1-2.84-1.693q-1.377-.915-2.661-1.957l-2.565-2.066-2.549-2.086.02-.026,2.619,2,2.6,2.017a37.14,37.14,0,0,0,5.529,3.518c.968.505,1.959.969,2.97,1.381s2.044.793,3.063,1.2q3.065,1.212,6.052,2.612t5.878,2.983a53.522,53.522,0,0,1,5.6,3.478,20.535,20.535,0,0,1,4.717,4.618,8.863,8.863,0,0,1,1.4,3,5.2,5.2,0,0,1,.129,1.657,3.627,3.627,0,0,1-.482,1.577Z" transform="translate(-1504.314 -641.487)" fill="#ff9b6c"/>
          <path id="Trazado_753947" data-name="Trazado 753947" d="M2226.241,979.939c-.67-.719-1.333-1.444-2.013-2.153s-1.348-1.429-2.032-2.134c-1.365-1.412-2.734-2.82-4.139-4.19-1.387-1.389-2.821-2.73-4.262-4.062-.728-.658-1.451-1.322-2.2-1.957-.728-.66-1.5-1.268-2.245-1.909,1.595,1.15,3.127,2.388,4.614,3.677s2.915,2.644,4.324,4.018c1.39,1.393,2.765,2.8,4.092,4.252s2.628,2.928,3.862,4.459" transform="translate(-1483.542 -646.996)" fill="#ff9b6c"/>
          <path id="Trazado_753948" data-name="Trazado 753948" d="M2126.356,890.916a23.4,23.4,0,0,1-3.23,1.076,34,34,0,0,1-3.346.659c-.563.081-1.126.169-1.695.2s-1.133.115-1.7.12-1.137.043-1.707.049l-1.707-.038c-.285,0-.569-.025-.852-.054l-.85-.076-.851-.076c-.283-.022-.563-.079-.845-.116l-1.689-.255c-.559-.1-1.112-.238-1.667-.362-1.118-.217-2.2-.589-3.289-.9l-.407-.124-.4-.15-.8-.3-1.59-.61,1.618.527.806.266.4.132.412.106c1.1.277,2.177.62,3.3.806.555.1,1.108.226,1.663.328l1.678.238c.281.035.558.09.84.109l.844.068.844.068c.281.026.563.046.846.047a38.736,38.736,0,0,0,6.764-.256,31.448,31.448,0,0,0,6.611-1.486" transform="translate(-1409.935 -597.594)" fill="#ff9b6c"/>
          <path id="Trazado_753949" data-name="Trazado 753949" d="M2187.776,882.953a4.124,4.124,0,0,1-.678-1.081,5.709,5.709,0,0,1-.492-2.5,4.979,4.979,0,0,1,.194-1.261c.015.426.022.841.062,1.254a10.5,10.5,0,0,0,.17,1.222,10.333,10.333,0,0,0,.3,1.2,10.883,10.883,0,0,0,.439,1.172" transform="translate(-1468.266 -589.634)" fill="#ff9b6c"/>
          <path id="Trazado_753950" data-name="Trazado 753950" d="M2100.582,901.646c-1.432-1.05-2.879-2.077-4.35-3.07-.729-.505-1.467-1-2.206-1.488s-1.483-.973-2.23-1.452c-2.99-1.909-6.018-3.758-9.129-5.46s-6.277-3.3-9.531-4.708c-.812-.356-1.643-.664-2.464-1-.412-.161-.821-.335-1.238-.486l-1.259-.425-1.258-.432-.629-.215-.642-.174-2.568-.7a59.583,59.583,0,0,1,10.156,3.2l2.446,1.064c.41.172.81.365,1.209.562l1.2.582,1.2.581c.4.2.787.411,1.182.616.785.417,1.579.818,2.356,1.249q4.659,2.594,9.108,5.537c2.959,1.965,5.866,4.012,8.649,6.22" transform="translate(-1385.322 -592.272)" fill="#ff9b6c"/>
          <path id="Trazado_753951" data-name="Trazado 753951" d="M2214.434,945.607a13.754,13.754,0,0,1-1.828,1.782,19.007,19.007,0,0,1-2.106,1.454,11.622,11.622,0,0,1-1.125.617c-.388.18-.761.392-1.164.538s-.791.328-1.2.469l-1.223.387c-.41.124-.835.192-1.251.29l-.628.137-.635.087-1.271.167c-.427.022-.855.039-1.282.054l-.64.023c-.213,0-.427-.019-.64-.028l-1.278-.063a5.134,5.134,0,0,1-.635-.07l-.632-.092-1.261-.19c.85.052,1.692.165,2.538.192l1.27.016c.211,0,.423.009.634.005l.633-.046c.421-.032.843-.061,1.264-.084l1.253-.179.626-.093.616-.142c.41-.1.826-.174,1.229-.3a20.858,20.858,0,0,0,4.671-1.912,17.808,17.808,0,0,0,4.061-3.019" transform="translate(-1474.335 -634.958)" fill="#ff9b6c"/>
          <path id="Trazado_753952" data-name="Trazado 753952" d="M2247.705,950.4a44.337,44.337,0,0,1,6.975,1.6c2.286.7,4.523,1.543,6.733,2.45,1.09.489,2.192.953,3.261,1.485.537.262,1.079.511,1.612.782l1.586.833.791.42.778.444,1.554.888c1.022.616,2.03,1.256,3.036,1.895-1.046-.576-2.069-1.187-3.116-1.755l-1.574-.846-.787-.423-.8-.4-1.6-.8c-.533-.266-1.076-.51-1.613-.766-1.071-.521-2.173-.974-3.261-1.453q-3.287-1.393-6.681-2.512c-.566-.184-1.13-.374-1.7-.538l-.856-.255-.862-.235c-1.147-.317-2.306-.6-3.479-.815" transform="translate(-1509.297 -638.177)" fill="#ff9b6c"/>
          <path id="Trazado_753953" data-name="Trazado 753953" d="M1383.365,314.627s-2.536,13.307-16.046,7.255c0,0,4.755-1.513,7.133-4.864,0,0-9.835,9.563-24.534.513l22.844-77.676s30.915,33.975,10.6,74.773" transform="translate(-906.448 -161.057)" fill="#1b1a2e"/>
          <path id="Trazado_753954" data-name="Trazado 753954" d="M1171.113,416.642v-42h-72.521V426.33a15.1,15.1,0,0,1-11.1,14.565l-7.982,2.192c9.131,22.449,77.278,64.385,107.258-7.8h0a18.936,18.936,0,0,1-15.649-18.644" transform="translate(-724.87 -251.563)" fill="#ffc89f"/>
          <path id="Trazado_753955" data-name="Trazado 753955" d="M1149.261,210.96h0a48.3,48.3,0,0,1-48.3-48.3v-59a48.3,48.3,0,0,1,96.6,0v59a48.3,48.3,0,0,1-48.3,48.3" transform="translate(-739.279 -37.174)" fill="#ffc89f"/>
          <path id="Trazado_753956" data-name="Trazado 753956" d="M1163.12,480.75a40.382,40.382,0,0,1-12.522-.951c-1.032-.224-2.041-.541-3.059-.827-1.012-.3-1.995-.7-3-1.047-.505-.162-.975-.409-1.461-.619l-1.448-.652c-.96-.447-1.878-.978-2.819-1.464-.922-.521-1.8-1.12-2.7-1.677-.88-.587-1.724-1.229-2.579-1.852-.831-.655-1.62-1.362-2.431-2.04-.786-.707-1.524-1.465-2.276-2.2a40.167,40.167,0,0,1-7.227-10.271,61.5,61.5,0,0,0,8.179,9.3c.783.666,1.539,1.357,2.32,2.019.813.625,1.6,1.279,2.429,1.88.848.572,1.66,1.2,2.521,1.747.877.526,1.73,1.091,2.624,1.586.9.479,1.781,1,2.7,1.448.93.423,1.845.883,2.788,1.278.952.371,1.888.794,2.856,1.126l1.458.485c.488.157.964.358,1.463.477a61.647,61.647,0,0,0,12.177,2.26" transform="translate(-753.138 -306.964)" fill="#ff9b6c"/>
          <path id="Trazado_753957" data-name="Trazado 753957" d="M1333.124,448.09q-.35.944-.736,1.884l-.394.938-.463.9-.968,1.791c-.361.574-.743,1.134-1.115,1.7-.19.281-.369.572-.569.847l-.626.8c-.426.529-.826,1.082-1.274,1.593s-.915,1.005-1.372,1.508-.96.961-1.438,1.444l-.741.7-.772.664c-.521.435-1.014.9-1.562,1.3-1.076.828-2.166,1.633-3.309,2.361-.579.352-1.145.722-1.734,1.058-.6.32-1.179.663-1.786.962a22.444,22.444,0,0,1-3.746,1.545c1.138-.719,2.229-1.485,3.3-2.275,1.082-.772,2.128-1.59,3.175-2.4.513-.419,1.021-.842,1.542-1.246s1.005-.856,1.508-1.282.99-.87,1.482-1.306l.735-.659.7-.691a63.784,63.784,0,0,0,5.4-5.749c.419-.509.828-1.026,1.259-1.53l1.182-1.595.608-.794.553-.83q.558-.83,1.157-1.652" transform="translate(-879.991 -300.884)" fill="#ff9b6c"/>
          <path id="Trazado_753958" data-name="Trazado 753958" d="M1077.468,306.634h2.512a8.985,8.985,0,0,0,8.985-8.985v-16.04a8.985,8.985,0,0,0-8.985-8.985h-2.512a8.985,8.985,0,0,0-8.985,8.985v16.04a8.985,8.985,0,0,0,8.985,8.985" transform="translate(-717.469 -183.061)" fill="#ffc89f"/>
          <path id="Trazado_753959" data-name="Trazado 753959" d="M1084.337,301.594a3.581,3.581,0,0,0-2.021,1.869,8.289,8.289,0,0,0-.788,2.637,13.408,13.408,0,0,0,.39,5.476,7.119,7.119,0,0,0,1.159,2.333,3.1,3.1,0,0,0,.806.761c.046.024.073.03.068.038s-.033.026-.024.032.133-.1.212-.259a5.4,5.4,0,0,0,.369-1.255c.092-.463.143-.944.2-1.429.107-.973.16-1.963.231-2.965a17.3,17.3,0,0,1,.583,2.963,12.9,12.9,0,0,1,.075,1.538,5.209,5.209,0,0,1-.241,1.643,1.886,1.886,0,0,1-.64.933,1.364,1.364,0,0,1-.72.257,1.657,1.657,0,0,1-.656-.1,4,4,0,0,1-1.484-1.092,7.532,7.532,0,0,1-1.6-2.882,11.326,11.326,0,0,1-.079-6.277,7.6,7.6,0,0,1,1.417-2.841,4.408,4.408,0,0,1,1.235-1.025,2.865,2.865,0,0,1,1.507-.351" transform="translate(-725.051 -202.511)" fill="#ff9b6c"/>
          <path id="Trazado_753960" data-name="Trazado 753960" d="M1094.717,302.387a9.066,9.066,0,0,1-.484-1.769c-.1-.556-.166-1.091-.238-1.583a6.266,6.266,0,0,0-.272-1.264,1.024,1.024,0,0,0-.325-.469,2.7,2.7,0,0,0-.779-.386,1.541,1.541,0,0,1,.952-.451,1.65,1.65,0,0,1,1.164.382,3.01,3.01,0,0,1,.984,1.94,4.815,4.815,0,0,1-.123,1.9,4.13,4.13,0,0,1-.879,1.7" transform="translate(-733.676 -199.066)" fill="#ff9b6c"/>
          <path id="Trazado_753961" data-name="Trazado 753961" d="M1322.2,275.551a4.347,4.347,0,1,1-4.348-4.348,4.347,4.347,0,0,1,4.348,4.348" transform="translate(-881.998 -182.107)" fill="#1b1a2e"/>
          <path id="Trazado_753962" data-name="Trazado 753962" d="M1317.377,256.461a13.78,13.78,0,0,0-2.051-1.278c-.356-.185-.72-.354-1.083-.519-.375-.139-.739-.3-1.121-.42a13.653,13.653,0,0,0-4.68-.733,8.61,8.61,0,0,0-1.184.075l-.592.055c-.2.023-.388.081-.584.116l-1.166.243c-.377.129-.756.251-1.137.37l-.572.182-.547.248-1.1.5c-.721.355-1.4.793-2.125,1.168.648-.482,1.3-.972,1.987-1.417l1.081-.578.543-.289.572-.226c.382-.151.766-.3,1.153-.441.4-.106.8-.2,1.2-.294.2-.045.4-.1.6-.13l.617-.065a9.011,9.011,0,0,1,1.236-.091,12.268,12.268,0,0,1,4.842.9,12.111,12.111,0,0,1,4.1,2.634" transform="translate(-872.55 -169.834)" fill="#1b1a2e"/>
          <path id="Trazado_753963" data-name="Trazado 753963" d="M1183.313,275.551a4.347,4.347,0,1,1-4.347-4.348,4.348,4.348,0,0,1,4.347,4.348" transform="translate(-788.737 -182.107)" fill="#1b1a2e"/>
          <path id="Trazado_753964" data-name="Trazado 753964" d="M1178.487,261.419a13.8,13.8,0,0,0-2.051-1.277c-.356-.185-.719-.354-1.083-.519-.375-.139-.739-.3-1.121-.42a13.666,13.666,0,0,0-4.68-.733,8.566,8.566,0,0,0-1.184.075l-.592.055c-.2.023-.388.081-.583.115l-1.167.243c-.376.129-.756.251-1.137.37l-.572.183-.546.248-1.1.5c-.721.355-1.4.792-2.124,1.167.649-.482,1.3-.972,1.987-1.417l1.081-.578.543-.289.572-.226c.382-.151.766-.3,1.153-.44.4-.106.8-.2,1.2-.294.2-.045.4-.1.605-.13l.617-.065a9.012,9.012,0,0,1,1.236-.091,12.256,12.256,0,0,1,4.842.9,12.115,12.115,0,0,1,4.1,2.634" transform="translate(-779.289 -173.163)" fill="#1b1a2e"/>
          <path id="Trazado_753965" data-name="Trazado 753965" d="M1266.675,320.116c.381,1.845.7,3.7,1.007,5.555s.585,3.715.854,5.576a12.105,12.105,0,0,1,.188,2.866,7.656,7.656,0,0,1-.75,2.8,4.993,4.993,0,0,1-1.92,2.153c-.836.439-1.661.886-2.505,1.306.777-.533,1.577-1.031,2.359-1.55a4.661,4.661,0,0,0,1.661-2.1,7.858,7.858,0,0,0,.607-2.646,11.953,11.953,0,0,0-.214-2.746c-.255-1.863-.51-3.726-.72-5.595s-.423-3.738-.567-5.617" transform="translate(-848.452 -214.952)" fill="#1b1a2e"/>
          <path id="Trazado_753966" data-name="Trazado 753966" d="M1224.2,401.8a12.321,12.321,0,0,0,3.171,2.93,16.558,16.558,0,0,0,3.9,1.9,18.519,18.519,0,0,0,2.1.57,15.957,15.957,0,0,0,2.165.253,12.025,12.025,0,0,0,4.292-.519c-1.416-.361-2.762-.567-4.079-.94-.662-.142-1.307-.363-1.958-.523-.64-.217-1.29-.382-1.922-.618-1.275-.428-2.542-.9-3.8-1.419s-2.529-1.068-3.861-1.633" transform="translate(-822.03 -269.801)" fill="#e43f5a"/>
          <path id="Trazado_753967" data-name="Trazado 753967" d="M1317.62,213.987c-1.921-.575-3.37-1.046-4.764-1.42-1.374-.372-2.581-.71-3.818-.953a2.136,2.136,0,0,0-.462-.1l-.468-.088c-.156-.037-.312-.07-.468-.113s-.321-.042-.482-.076c-.323-.048-.65-.127-.986-.2-.339-.039-.685-.091-1.042-.164-.178-.032-.361-.082-.545-.123-.184-.021-.369-.036-.56-.072-.379-.055-.774-.134-1.184-.222a18.492,18.492,0,0,1-2.68-.59,7.733,7.733,0,0,1,.882-1.168,7.948,7.948,0,0,1,1.033-.992c.379-.27.773-.531,1.183-.767.2-.126.413-.232.623-.344.217-.09.438-.18.662-.257.448-.161.907-.3,1.373-.426.473-.085.957-.139,1.442-.182.244-.02.487-.044.732-.041l.736.048a8.439,8.439,0,0,1,1.464.209,9.875,9.875,0,0,1,5.074,2.82,5.2,5.2,0,0,1,.474.549c.151.188.3.373.437.571a9.793,9.793,0,0,1,.712,1.25,6.344,6.344,0,0,1,.632,2.852" transform="translate(-873.037 -138.115)" fill="#1b1a2e"/>
          <path id="Trazado_753968" data-name="Trazado 753968" d="M1177.6,224.153a6.342,6.342,0,0,1-.631,2.852,9.774,9.774,0,0,1-.711,1.25c-.136.2-.286.384-.436.572a5.232,5.232,0,0,1-.473.549,9.88,9.88,0,0,1-5.073,2.824,8.436,8.436,0,0,1-1.464.21l-.736.049c-.245,0-.488-.021-.731-.041-.486-.042-.969-.1-1.442-.181-.466-.126-.925-.265-1.373-.425-.224-.077-.446-.166-.663-.256-.21-.112-.42-.217-.624-.344-.41-.236-.8-.5-1.183-.766a7.912,7.912,0,0,1-1.033-.991,7.736,7.736,0,0,1-.883-1.168,18.5,18.5,0,0,1,2.68-.591c.411-.089.805-.168,1.185-.223.191-.036.376-.051.56-.072.184-.041.367-.091.544-.123.357-.074.7-.125,1.042-.165.336-.076.663-.155.986-.2.161-.034.325-.036.482-.076s.313-.077.468-.114l.467-.088a2.123,2.123,0,0,0,.462-.1c1.237-.243,2.444-.582,3.817-.955,1.394-.375,2.842-.847,4.764-1.423" transform="translate(-779.015 -150.514)" fill="#1b1a2e"/>
          <path id="Trazado_753969" data-name="Trazado 753969" d="M1374.116,306.634h2.513a8.985,8.985,0,0,0,8.985-8.985v-16.04a8.985,8.985,0,0,0-8.985-8.985h-2.513a8.985,8.985,0,0,0-8.985,8.985v16.04a8.985,8.985,0,0,0,8.985,8.985" transform="translate(-916.663 -183.061)" fill="#ffc89f"/>
          <path id="Trazado_753970" data-name="Trazado 753970" d="M1400.884,301.594a2.863,2.863,0,0,1,1.507.351,4.411,4.411,0,0,1,1.235,1.025,7.6,7.6,0,0,1,1.416,2.841,11.328,11.328,0,0,1-.079,6.277,7.54,7.54,0,0,1-1.6,2.882,4,4,0,0,1-1.484,1.092,1.657,1.657,0,0,1-.656.1,1.362,1.362,0,0,1-.72-.257,1.886,1.886,0,0,1-.64-.932,5.226,5.226,0,0,1-.241-1.643,12.815,12.815,0,0,1,.075-1.538,17.3,17.3,0,0,1,.583-2.963c.071,1,.124,1.993.231,2.965.056.485.106.966.2,1.429a5.4,5.4,0,0,0,.369,1.255c.079.161.194.278.212.259s-.019-.025-.023-.031.021-.015.067-.039a3.1,3.1,0,0,0,.806-.761,7.118,7.118,0,0,0,1.159-2.333,13.41,13.41,0,0,0,.39-5.476,8.293,8.293,0,0,0-.788-2.637,3.58,3.58,0,0,0-2.021-1.869" transform="translate(-939.825 -202.511)" fill="#ff9b6c"/>
          <path id="Trazado_753971" data-name="Trazado 753971" d="M1395.98,302.387a4.129,4.129,0,0,1-.879-1.7,4.817,4.817,0,0,1-.123-1.9,3.009,3.009,0,0,1,.985-1.94,1.65,1.65,0,0,1,1.163-.382,1.545,1.545,0,0,1,.952.451,2.688,2.688,0,0,0-.779.387,1.022,1.022,0,0,0-.325.468,6.247,6.247,0,0,0-.271,1.264c-.073.492-.138,1.027-.238,1.583a9.053,9.053,0,0,1-.484,1.769" transform="translate(-936.675 -199.066)" fill="#ff9b6c"/>
          <path id="Trazado_753972" data-name="Trazado 753972" d="M1120.9,45.022c-24.008-59.277-68.123-42.194-68.123-42.194-27.9-8.91-46.905,4.4-60.471,23.451h0l0,0c-1.448,1.918-2.8,3.885-4.188,5.822-1.427,1.914-2.765,3.877-4.2,5.775-2.8,3.846-5.7,7.607-8.527,11.455-1.413,1.922-2.805,3.882-4.139,5.886l-1.963,3.048-1.839,3.147c-.569,1.079-1.124,2.167-1.674,3.253-.506,1.111-.976,2.242-1.437,3.37-.439,1.139-.775,2.318-1.146,3.476a17.27,17.27,0,0,0-.462,1.765l-.412,1.774c-.318,1.171-.436,2.382-.655,3.567l-.3,1.783c-.08.6-.14,1.2-.21,1.792-.112,1.2-.332,2.381-.419,3.578s-.194,2.39-.313,3.584c-.254,2.387-.39,4.8-.432,7.225a39.485,39.485,0,0,0,.493,7.3,29.207,29.207,0,0,0,2.1,7.092c.256.565.5,1.135.8,1.682.28.555.569,1.1.894,1.635a28.6,28.6,0,0,0,2.119,3.066,24.344,24.344,0,0,0,2.53,2.727,21.942,21.942,0,0,0,2.892,2.313,19.049,19.049,0,0,0,6.582,2.948c-.9.813-6.374,5.984-13.209,17.129-7.484,12.2,5.694,18.06,5.694,18.06-6.833-11.878,6.508-31.565,6.508-31.565-18.548,39.374,13.883,43.567,13.883,43.567-13.452,11.634-11.755,25.207-11.755,25.207-14.86,29.719,18.14,23.868,20.944,23.323a20.248,20.248,0,0,0-1.906,3.752,27.084,27.084,0,0,0-1.882,8.471,17.729,17.729,0,0,0,.268,4.4,24.114,24.114,0,0,0,3.375,8.063,21.442,21.442,0,0,0,2.644,3.443,15.738,15.738,0,0,0,3.479,2.742,15.446,15.446,0,0,0,4.174,1.645,23.459,23.459,0,0,0,4.4.549,46.546,46.546,0,0,0,8.612-.522c5.336-.805,10.41-2.011,15.751-2.326-3.951,18.748-21.886,17.489-29.685,29.037s3.31,21.073,3.31,21.073a16.491,16.491,0,0,1,.2-8.209c-1.026,7.9,4.31,9.852,4.31,9.852a19.04,19.04,0,0,1,.308-7.286c2.052,13.34,10.262,12.212,10.262,12.212-2.771-3.8-2.36-12.212-2.36-12.212,2.771,20.626,18.163,16.932,18.163,16.932a12.143,12.143,0,0,1-2.668-2.566c11.7,5.336,13.706-8.29,13.706-8.29-7.746,5.145-10.918,2.081-12.153-2.27a15.492,15.492,0,0,1,3.1-13.922c9.418-11.6,7.242-22.256,7.242-22.256,18.093-24.2-2.94-41.841-2.94-41.841,9.047,3.732,12.891,19.111,12.891,19.111,5.705-10.55-11.875-19.818-13.577-20.684a46.821,46.821,0,0,0,5.494-7.576,40.653,40.653,0,0,0,3.884-8.641,31.365,31.365,0,0,0,1.341-9.517,21.336,21.336,0,0,0-2.382-9.289,38.287,38.287,0,0,0-5.339-7.78,46.952,46.952,0,0,0-6.915-6.352,85.5,85.5,0,0,0-7.815-5.044,75.122,75.122,0,0,0-7.395-3.747c-17.374-10.937-20.9-27.165-20.661-39.261a46.739,46.739,0,0,1,5.915-21.39,54.508,54.508,0,0,0,6.195-24.946c3.9-4.081,8.66-11.891,14.55-34.6,4.747-18.3,14.043-20.118,16.255-19.953l.11.009a33.9,33.9,0,0,1,10.7,4.239q1.225.755,2.377,1.608t2.234,1.789a46.678,46.678,0,0,1,4.037,4.069,45.947,45.947,0,0,1,3.558,4.6,32,32,0,0,1,2.755,5.208c.2.451.363.918.524,1.384s.33.931.472,1.4c.252.957.551,1.895.755,2.869.452,1.935.784,3.9,1.085,5.862s.543,3.939.825,5.905l.866,5.9c.291,1.972.592,3.947.933,5.929s.749,3.966,1.285,5.943a31.4,31.4,0,0,0,2.174,5.838,19.835,19.835,0,0,0,1.655,2.74,15.261,15.261,0,0,0,2.19,2.393,13.61,13.61,0,0,0,5.642,2.92,19.557,19.557,0,0,0,5.948.531c.1.023.154.032.154.032,14.337,27,21.584,56.493,16.412,67.259-4.578,9.532-19.314,12.969-19.314,12.969,4.839,7.189,13.825-1.59,13.825-1.59-2.212,5.184-9.829,7.535-9.829,7.535,26.82,5.4,40.929-74.918,16.921-134.195M968.187,116.015a28.741,28.741,0,0,1-1.777-2.937c-.285-.5-.536-1.011-.779-1.53-.26-.51-.468-1.045-.69-1.574a51.119,51.119,0,0,1-1.092-34.5A61.35,61.35,0,0,1,969.818,62.8c2.447-3.991,5.342-7.746,8.086-11.65.385-.545.765-1.1,1.147-1.645-4.5,9.524-8.156,18.949-11.286,26.748-11.456,28.544,6.609,45.522,10.167,48.505a27.564,27.564,0,0,1-9.743-8.741m83.386,62.086a15.565,15.565,0,0,1,5.116,7.313,23.954,23.954,0,0,1,.895,8.776,38.066,38.066,0,0,1-1.708,8.663c-.815,2.728-1.787,5.442-2.879,8.138,2.768-8.923,4.727-23.009-4.317-34.99.36.245.717.491,1.081.735.605.448,1.232.888,1.813,1.366m-37,73.269a27.337,27.337,0,0,1-3.561-.142,16.606,16.606,0,0,1-3.875-.811,11.055,11.055,0,0,1-6.062-5.122,13.034,13.034,0,0,1-1.393-3.84,24.737,24.737,0,0,1-.406-4.031q-.03-1.041-.037-2.084c.7,7.854,4.425,15.312,15.334,16.03m82.69-160.294a15.3,15.3,0,0,1-2.466-1.361,13.33,13.33,0,0,1-2.071-1.8c-2.471-2.7-3.664-6.377-4.607-10.115-.933-3.762-1.7-7.658-2.513-11.561-.4-1.953-.8-3.912-1.278-5.859s-1.013-3.882-1.56-5.81l-1.685-5.768-.867-2.885c-.338-.947-.619-1.913-.967-2.857-.178-.471-.334-.95-.5-1.426s-.376-.936-.552-1.411c-.337-.957-.786-1.867-1.175-2.812a33.162,33.162,0,0,0-3.07-5.334,23.815,23.815,0,0,0-2.544-2.961c8.092,5.742,15.7,15.866,15.971,33.547.315,20.614,8.673,27.358,12.985,29.469a21.706,21.706,0,0,1-3.1-1.056" transform="translate(-644.607 0.003)" fill="#1b1a2e"/>
          <path id="Trazado_753973" data-name="Trazado 753973" d="M1389.067,283.23c1.965,3.423,3.758,6.943,5.479,10.5q2.53,5.358,4.714,10.877a142,142,0,0,1,6.9,22.7,77.1,77.1,0,0,1,1.477,11.817,38.91,38.91,0,0,1-.226,5.988,16.588,16.588,0,0,1-1.664,5.811l-.767,1.315c-.26.434-.6.813-.9,1.221l-.463.6-.52.547c-.355.356-.676.747-1.058,1.072a27.928,27.928,0,0,1-4.833,3.517,41.953,41.953,0,0,1-11.044,4.264,43.936,43.936,0,0,0,10.751-4.752,27.718,27.718,0,0,0,4.619-3.56c.362-.324.658-.709.991-1.06l.486-.537.425-.584c.271-.4.587-.765.821-1.183l.69-1.259a4.3,4.3,0,0,0,.3-.649c.087-.221.182-.438.263-.662.13-.461.3-.905.4-1.377a21.43,21.43,0,0,0,.507-2.844,37.838,37.838,0,0,0,.167-5.826,76.586,76.586,0,0,0-1.558-11.628c-.769-3.847-1.739-7.657-2.851-11.427s-2.408-7.485-3.742-11.187-2.823-7.349-4.4-10.959c-1.542-3.626-3.23-7.189-4.964-10.734" transform="translate(-930.787 -190.183)" fill="#195995"/>
          <path id="Trazado_753974" data-name="Trazado 753974" d="M1093.209,233.608a51.791,51.791,0,0,1-4.025,20.685,90.131,90.131,0,0,1-4.849,9.4c-1.75,3.053-3.554,6.073-5.364,9.09-3.567,6.045-7.516,11.916-9.86,18.444a31.58,31.58,0,0,0-1.961,10.112,32.774,32.774,0,0,0,1.536,10.293l-.109.039a28.628,28.628,0,0,1-2.341-10.325,29.454,29.454,0,0,1,1.708-10.534,51.674,51.674,0,0,1,4.7-9.541c1.816-3.031,3.811-5.931,5.8-8.83a102.517,102.517,0,0,0,5.57-8.93,74.672,74.672,0,0,0,4.281-9.579,77.194,77.194,0,0,0,3.1-9.98,88.415,88.415,0,0,0,1.71-10.352Z" transform="translate(-715.95 -156.86)" fill="#195995"/>
          <path id="Trazado_753975" data-name="Trazado 753975" d="M1065.289,190.253a59.817,59.817,0,0,1-10.717,18.481c-2.329,2.722-4.878,5.23-7.417,7.73l-7.609,7.506L1032,231.505q-3.734,3.795-7.191,7.824a97.06,97.06,0,0,0-12.047,17.466l-.105-.05a69.782,69.782,0,0,1,11.208-18.218,106.234,106.234,0,0,1,7.365-7.8c2.556-2.493,5.215-4.87,7.886-7.224s5.306-4.749,7.777-7.308a98.652,98.652,0,0,0,6.935-8.077A105,105,0,0,0,1060,199.5a98.323,98.323,0,0,0,5.185-9.289Z" transform="translate(-679.979 -127.721)" fill="#195995"/>
          <path id="Trazado_753976" data-name="Trazado 753976" d="M1020.286,225.182a56.754,56.754,0,0,0-1.534,9.928,46.692,46.692,0,0,0,.513,9.949,47.661,47.661,0,0,0,2.586,9.626,49.893,49.893,0,0,0,2.018,4.587,38,38,0,0,0,2.505,4.371,33.518,33.518,0,0,1-5.361-8.613,40.924,40.924,0,0,1-1.767-4.8,43.29,43.29,0,0,1-1.128-4.992,39.091,39.091,0,0,1-.267-10.206,38.463,38.463,0,0,1,2.434-9.854" transform="translate(-683.327 -151.205)" fill="#195995"/>
          <path id="Trazado_753977" data-name="Trazado 753977" d="M1019.417,601.948c.241.8.381,1.61.612,2.393.253.778.43,1.568.74,2.316l.418,1.132.5,1.1a11.55,11.55,0,0,0,.531,1.075c.2.349.354.718.582,1.047l.623,1.024.695.977c.47.648.984,1.264,1.516,1.867a24.019,24.019,0,0,0,3.6,3.294,12.863,12.863,0,0,1-4.237-2.653,16.543,16.543,0,0,1-3.192-3.919,17.966,17.966,0,0,1-2.327-7.154,22.757,22.757,0,0,1-.054-2.5" transform="translate(-684.516 -404.197)" fill="#195995"/>
          <path id="Trazado_753978" data-name="Trazado 753978" d="M1099.439,675.065a31.693,31.693,0,0,0,3.833,7.964A38.191,38.191,0,0,0,1109,689.69a54.485,54.485,0,0,0,6.932,5.47,70.215,70.215,0,0,0,7.689,4.485,38.85,38.85,0,0,1-8.173-3.719,44.044,44.044,0,0,1-3.765-2.492,44.747,44.747,0,0,1-3.477-2.9,31.883,31.883,0,0,1-5.7-7.029,23.62,23.62,0,0,1-3.067-8.443" transform="translate(-738.255 -453.294)" fill="#195995"/>
          <path id="Trazado_753979" data-name="Trazado 753979" d="M1093.4,155.287a93.672,93.672,0,0,0-8.568,11.022c-.326.48-.642.967-.937,1.467l-.915,1.479c-.569,1.01-1.173,2-1.695,3.035a64.832,64.832,0,0,0-2.953,6.284,61.428,61.428,0,0,0-2.292,6.55,63.4,63.4,0,0,0-1.592,6.76,61.482,61.482,0,0,0-.824,6.909,42.518,42.518,0,0,0,.072,6.981,43.375,43.375,0,0,1-.143-14.031,57.094,57.094,0,0,1,3.706-13.608,61.576,61.576,0,0,1,6.828-12.334,66.282,66.282,0,0,1,9.314-10.513" transform="translate(-720.536 -104.272)" fill="#195995"/>
          <path id="Trazado_753980" data-name="Trazado 753980" d="M1182.712,47.722a27.178,27.178,0,0,0-7.13.116,22.242,22.242,0,0,0-6.655,2.209,22.839,22.839,0,0,0-3.015,1.823,30.37,30.37,0,0,0-2.779,2.2,36.267,36.267,0,0,0-4.844,5.277,22.368,22.368,0,0,1,4.217-5.931,22.872,22.872,0,0,1,5.891-4.4,21.522,21.522,0,0,1,3.438-1.381,19.4,19.4,0,0,1,3.634-.691,18.757,18.757,0,0,1,7.243.781" transform="translate(-777.773 -31.469)" fill="#195995"/>
          <path id="Trazado_753981" data-name="Trazado 753981" d="M1326.016,84.444a38.84,38.84,0,0,0-3.256-8.267,30.113,30.113,0,0,0-5.325-6.964,33.31,33.31,0,0,0-7.085-5.2,38.242,38.242,0,0,0-8.235-3.349,26.857,26.857,0,0,1,8.649,2.543,27.019,27.019,0,0,1,10.467,8.633,26.128,26.128,0,0,1,4.786,12.6" transform="translate(-874.349 -40.735)" fill="#195995"/>
          <path id="Trazado_753982" data-name="Trazado 753982" d="M1388.2,239.651a13.974,13.974,0,0,1-6.857.371,16.542,16.542,0,0,1-6.377-2.8,23.243,23.243,0,0,1-4.937-4.861,23.894,23.894,0,0,1-3.363-5.978,44.852,44.852,0,0,0,4.064,5.4,29.394,29.394,0,0,0,4.908,4.489,17.748,17.748,0,0,0,12.563,3.373" transform="translate(-917.693 -152.013)" fill="#195995"/>
          <path id="Trazado_753983" data-name="Trazado 753983" d="M1402.069,266.766c-.2.279-.4.556-.611.828l-.322.407c-.116.127-.24.246-.361.37l-.749.723c-.269.218-.551.42-.828.631a6,6,0,0,1-.871.576c-.3.17-.595.367-.909.516s-.633.29-.951.435-.651.246-.976.371a16.484,16.484,0,0,1-4.067.818,13.27,13.27,0,0,1-4.1-.292c1.361-.151,2.68-.351,3.983-.606a30.335,30.335,0,0,0,3.813-1.019,21.566,21.566,0,0,0,3.6-1.561,27.408,27.408,0,0,0,3.353-2.2" transform="translate(-931.563 -179.128)" fill="#195995"/>
          <path id="Trazado_753984" data-name="Trazado 753984" d="M1109.669,320.486a131.132,131.132,0,0,0-4.138,17.581c-.135.739-.227,1.486-.327,2.23l-.3,2.233c-.147,1.495-.343,2.985-.428,4.484-.254,2.992-.341,6-.319,9,0,3,.172,6,.454,8.989s.7,5.964,1.24,8.919,1.237,5.883,2.07,8.774a63.828,63.828,0,0,0,3.025,8.511,66.878,66.878,0,0,1-5.983-17.107,89.1,89.1,0,0,1-1.966-18.078,93.885,93.885,0,0,1,1.647-18.107,97.235,97.235,0,0,1,5.028-17.426" transform="translate(-740.642 -215.2)" fill="#195995"/>
          <path id="Trazado_753985" data-name="Trazado 753985" d="M1201.646,764.555a14.482,14.482,0,0,1,6.743.513,11.263,11.263,0,0,1,3.062,1.673,10.636,10.636,0,0,1,2.345,2.607,14.771,14.771,0,0,1,2.114,6.53,19.784,19.784,0,0,1-.5,6.73,32.6,32.6,0,0,0-.4-6.609,16.329,16.329,0,0,0-2.192-6.025,10.61,10.61,0,0,0-4.759-4.066,19.824,19.824,0,0,0-6.413-1.354" transform="translate(-806.886 -513.265)" fill="#195995"/>
          <path id="Trazado_753986" data-name="Trazado 753986" d="M1086.2,563.088a59.287,59.287,0,0,0-6.754,10.622,31.21,31.21,0,0,0-2.111,5.855,25.957,25.957,0,0,0-.519,3.051,22.381,22.381,0,0,0-.09,3.085,19.394,19.394,0,0,0,4.485,11.407,28.91,28.91,0,0,0,4.505,4.392,42.017,42.017,0,0,0,5.227,3.523,91.55,91.55,0,0,0,11.4,5.388c1.947.788,3.936,1.505,5.906,2.336a60.658,60.658,0,0,1,5.761,2.777,46.577,46.577,0,0,1,10.31,7.561,31.216,31.216,0,0,1,4.094,4.926,22,22,0,0,1,1.593,2.777,13.935,13.935,0,0,1,1.1,3l-.113.026a20.369,20.369,0,0,0-3.064-5.459,33.984,33.984,0,0,0-4.24-4.606,50.767,50.767,0,0,0-10.276-7.132c-1.836-1-3.721-1.921-5.64-2.766s-3.886-1.6-5.843-2.438a74.227,74.227,0,0,1-11.306-5.862,55.359,55.359,0,0,1-5.159-3.737c-.818-.678-1.61-1.387-2.368-2.132a29.43,29.43,0,0,1-2.177-2.33,23.5,23.5,0,0,1-3.5-5.356,18.546,18.546,0,0,1-1.667-6.232,20.065,20.065,0,0,1,.583-6.442,28.718,28.718,0,0,1,2.3-6.008,46.585,46.585,0,0,1,7.471-10.3Z" transform="translate(-722.316 -378.053)" fill="#195995"/>
          <path id="Trazado_753987" data-name="Trazado 753987" d="M1170.984,682.6q1.035.4,2.068.816l1.032.425a8.667,8.667,0,0,1,1.01.473,36.223,36.223,0,0,1,3.884,2.211,36.729,36.729,0,0,1,6.9,5.713,35.767,35.767,0,0,1,5.312,7.215,28.178,28.178,0,0,1,3.2,8.308,41.56,41.56,0,0,0-3.981-7.843q-1.184-1.845-2.527-3.573l-1.374-1.7-1.478-1.61c-.469-.559-1.022-1.037-1.539-1.551s-1.036-1.027-1.607-1.482l-1.666-1.42c-.57-.455-1.172-.87-1.753-1.314-1.148-.914-2.42-1.643-3.646-2.457-.6-.433-1.274-.73-1.909-1.107q-.967-.539-1.928-1.1" transform="translate(-786.296 -458.356)" fill="#195995"/>
          <path id="Trazado_753988" data-name="Trazado 753988" d="M1145.58,834.453a31.8,31.8,0,0,0-4.275,4.463,22.813,22.813,0,0,0-3.114,5.223,29.909,29.909,0,0,0-1.915,5.8,37.286,37.286,0,0,0-.818,6.141,20.038,20.038,0,0,1-.074-6.3,22.54,22.54,0,0,1,1.748-6.112,25.406,25.406,0,0,1,1.509-2.819l.943-1.293a7.8,7.8,0,0,1,.486-.633l.544-.585a18.506,18.506,0,0,1,4.966-3.882" transform="translate(-762.248 -560.32)" fill="#195995"/>
          <path id="Trazado_753989" data-name="Trazado 753989" d="M1133.747,841.718a26.65,26.65,0,0,0-3.933,3.372,31.436,31.436,0,0,0-3.136,4.05,47.224,47.224,0,0,0-2.542,4.486c-.766,1.55-1.481,3.133-2.151,4.764a21.494,21.494,0,0,1,1.32-5.127,26.246,26.246,0,0,1,2.4-4.756,20.96,20.96,0,0,1,3.481-4.066,14.42,14.42,0,0,1,4.56-2.723" transform="translate(-753.395 -565.199)" fill="#195995"/>
          <path id="Trazado_753990" data-name="Trazado 753990" d="M1200.846,766.993a11.02,11.02,0,0,1,3.272,2.764,10.66,10.66,0,0,1,1.918,3.915,15.449,15.449,0,0,1-.5,8.641,23.766,23.766,0,0,1-4.2,7.528,21.24,21.24,0,0,1-6.559,5.453,28.547,28.547,0,0,0,5.843-6.008,27.085,27.085,0,0,0,3.818-7.336,16.051,16.051,0,0,0,.722-8.075,10.985,10.985,0,0,0-1.5-3.791,13,13,0,0,0-2.809-3.092" transform="translate(-802.271 -515.022)" fill="#195995"/>
          <path id="Trazado_753991" data-name="Trazado 753991" d="M1117.233,452.795a37.763,37.763,0,0,0,4.659,8.473,90.9,90.9,0,0,0,6.162,7.482c2.145,2.435,4.333,4.853,6.584,7.209s4.562,4.657,6.764,7.076a52.343,52.343,0,0,1,6,7.79,37.064,37.064,0,0,1,4.134,8.986,32.831,32.831,0,0,1,1.348,9.8,40.953,40.953,0,0,1-1.35,9.724l-.114-.024a53.237,53.237,0,0,0,.549-9.683,36.63,36.63,0,0,0-1.62-9.456,41.256,41.256,0,0,0-3.883-8.779,69.115,69.115,0,0,0-5.552-7.942,86.14,86.14,0,0,0-6.55-7.225c-2.31-2.294-4.739-4.474-7.024-6.815a52.562,52.562,0,0,1-6.2-7.632,28.626,28.626,0,0,1-4.027-8.947Z" transform="translate(-750.129 -304.043)" fill="#195995"/>
          <path id="Trazado_753992" data-name="Trazado 753992" d="M1397.466,191.393q1.432,1.84,2.838,3.7c.935,1.245,1.913,2.462,2.75,3.776l2.579,3.9.643.977.585,1.012,1.171,2.024,1.171,2.026.581,1.015c.185.343.354.695.532,1.042l2.109,4.179c.173.35.358.694.521,1.048l.47,1.072.941,2.144.941,2.144c.323.711.574,1.451.864,2.175a122.563,122.563,0,0,1,5.548,17.864c.716,3.036,1.267,6.108,1.742,9.188a84.345,84.345,0,0,1,.824,9.3,125.56,125.56,0,0,0-3.447-18.275c-.775-3-1.656-5.97-2.6-8.919l-1.493-4.4c-.524-1.456-1.107-2.891-1.656-4.338a144.877,144.877,0,0,0-7.839-16.827l-1.1-2.045-.552-1.023-.6-.994-2.405-3.982c-.761-1.356-1.665-2.618-2.526-3.91s-1.734-2.578-2.589-3.88" transform="translate(-938.375 -128.516)" fill="#195995"/>
          <path id="Trazado_753993" data-name="Trazado 753993" d="M1404.512,364.549a3.523,3.523,0,1,1-3.523-3.523,3.523,3.523,0,0,1,3.523,3.523" transform="translate(-938.375 -242.422)" fill="#ffb338"/>
          <path id="Trazado_753994" data-name="Trazado 753994" d="M445.53,718.7H432.488l6.521-9.045Z" transform="translate(-290.408 -476.519)" fill="#195995"/>
          <path id="Trazado_753995" data-name="Trazado 753995" d="M10.142,252.988H199.519A10.142,10.142,0,0,1,209.66,263.13V378.008a10.142,10.142,0,0,1-10.142,10.142h-40.2l-17.235,23.9-17.235-23.9H10.142A10.142,10.142,0,0,1,0,378.008V263.13a10.142,10.142,0,0,1,10.142-10.142" transform="translate(0 -169.876)" fill="#195995"/>
          <path id="Trazado_753996" data-name="Trazado 753996" d="M49.842,252.988H239.219A10.142,10.142,0,0,1,249.36,263.13V378.008a10.142,10.142,0,0,1-10.142,10.142h-40.2l-17.235,23.9-17.235-23.9H49.842A10.142,10.142,0,0,1,39.7,378.008V263.13a10.142,10.142,0,0,1,10.142-10.142" transform="translate(-26.658 -169.876)" fill="#2277c7"/>
          <path id="Trazado_753997" data-name="Trazado 753997" d="M2023.88,718.7h13.042l-6.521-9.045Z" transform="translate(-1359.002 -476.519)" fill="#195995"/>
          <path id="Trazado_753998" data-name="Trazado 753998" d="M2057.384,252.988H1868.007a10.142,10.142,0,0,0-10.142,10.142V378.008a10.142,10.142,0,0,0,10.142,10.142h40.2l17.235,23.9,17.234-23.9h114.7a10.142,10.142,0,0,0,10.142-10.142V263.13a10.142,10.142,0,0,0-10.142-10.142" transform="translate(-1247.526 -169.876)" fill="#195995"/>
          <path id="Trazado_753999" data-name="Trazado 753999" d="M2017.683,252.988H1828.307a10.142,10.142,0,0,0-10.142,10.142V378.008a10.142,10.142,0,0,0,10.142,10.142h40.205l17.234,23.9,17.235-23.9h114.7a10.142,10.142,0,0,0,10.142-10.142V263.13a10.142,10.142,0,0,0-10.142-10.142" transform="translate(-1220.868 -169.876)" fill="#2277c7"/>
          <rect id="Rectángulo_362087" data-name="Rectángulo 362087" width="396.876" height="0.986" transform="translate(212.492 553.952)" fill="#1b1a2e"/>
        </g>
      </g>
    </g>
    <path id="Trazado_755427" data-name="Trazado 755427" d="M9.888,23.2,14.136,7.672h5.742L12.7,29H7.075L-.044,7.672h5.7Zm18.34,6.094a8.148,8.148,0,0,1-5.9-2.175,7.512,7.512,0,0,1-2.256-5.662v-.41a9.734,9.734,0,0,1,.9-4.292A6.592,6.592,0,0,1,23.6,13.875a7.938,7.938,0,0,1,4.1-1.018,6.861,6.861,0,0,1,5.273,2.073,8.145,8.145,0,0,1,1.934,5.779v1.919H25.093a3.558,3.558,0,0,0,1.157,2.095,3.443,3.443,0,0,0,2.314.762,4.437,4.437,0,0,0,3.662-1.641l2.256,2.666a6.306,6.306,0,0,1-2.615,2.029A8.836,8.836,0,0,1,28.228,29.293Zm-.557-12.627q-2.168,0-2.578,2.871h4.98v-.381a2.445,2.445,0,0,0-.6-1.838A2.39,2.39,0,0,0,27.671,16.666ZM41.426,13.15l.161,1.86a5.375,5.375,0,0,1,4.526-2.153,4.522,4.522,0,0,1,3.7,1.479,7.044,7.044,0,0,1,1.267,4.453V29H46.128V19a2.675,2.675,0,0,0-.483-1.765,2.236,2.236,0,0,0-1.758-.564,2.354,2.354,0,0,0-2.153,1.143V29H36.8V13.15ZM59.561,9.21v3.94h2.607v3.428H59.561v7.251a1.851,1.851,0,0,0,.322,1.245,1.729,1.729,0,0,0,1.274.352,7.242,7.242,0,0,0,1.23-.088v3.53a9.11,9.11,0,0,1-2.783.425,5.171,5.171,0,0,1-3.765-1.2,4.923,4.923,0,0,1-1.216-3.647V16.578H52.6V13.15h2.021V9.21ZM73.037,29a5.574,5.574,0,0,1-.469-1.421,4.59,4.59,0,0,1-3.809,1.714,5.623,5.623,0,0,1-3.809-1.355,4.313,4.313,0,0,1-1.567-3.406,4.433,4.433,0,0,1,1.9-3.9,9.7,9.7,0,0,1,5.537-1.318h1.523v-.839q0-2.193-1.89-2.193A1.545,1.545,0,0,0,68.7,18.022H63.765a4.425,4.425,0,0,1,1.956-3.731,8.218,8.218,0,0,1,4.988-1.434,7.205,7.205,0,0,1,4.79,1.479,5.144,5.144,0,0,1,1.8,4.058v7.017a7.186,7.186,0,0,0,.674,3.34V29Zm-3.091-3.223a2.754,2.754,0,0,0,1.531-.4,2.479,2.479,0,0,0,.872-.894V21.954H70.913q-2.578,0-2.578,2.314a1.413,1.413,0,0,0,.454,1.091A1.643,1.643,0,0,0,69.946,25.777Zm15.4-12.627V29.542a5.753,5.753,0,0,1-1.611,4.336A6.19,6.19,0,0,1,79.277,35.4a10.513,10.513,0,0,1-2.329-.249V31.417a9.445,9.445,0,0,0,1.392.132,1.806,1.806,0,0,0,2.051-2.036V13.15Zm-5.317-4.1a2.223,2.223,0,0,1,.762-1.739,3.223,3.223,0,0,1,3.955,0A2.223,2.223,0,0,1,85.5,9.049a2.223,2.223,0,0,1-.762,1.739,3.223,3.223,0,0,1-3.955,0A2.223,2.223,0,0,1,80.024,9.049ZM97.061,29a5.574,5.574,0,0,1-.469-1.421,4.59,4.59,0,0,1-3.809,1.714,5.623,5.623,0,0,1-3.809-1.355,4.313,4.313,0,0,1-1.567-3.406,4.433,4.433,0,0,1,1.9-3.9,9.7,9.7,0,0,1,5.537-1.318h1.523v-.839q0-2.193-1.89-2.193a1.545,1.545,0,0,0-1.758,1.737H87.788a4.425,4.425,0,0,1,1.956-3.731,8.218,8.218,0,0,1,4.988-1.434,7.205,7.205,0,0,1,4.79,1.479,5.144,5.144,0,0,1,1.8,4.058v7.017a7.186,7.186,0,0,0,.674,3.34V29ZM93.97,25.777a2.754,2.754,0,0,0,1.531-.4,2.479,2.479,0,0,0,.872-.894V21.954H94.937q-2.578,0-2.578,2.314a1.413,1.413,0,0,0,.454,1.091A1.643,1.643,0,0,0,93.97,25.777Zm18.384-1.23a1.14,1.14,0,0,0-.659-1.011,10.027,10.027,0,0,0-2.5-.791,11.422,11.422,0,0,1-3.047-1.077,5.1,5.1,0,0,1-1.831-1.619,3.865,3.865,0,0,1-.63-2.183,4.381,4.381,0,0,1,1.8-3.6,7.422,7.422,0,0,1,4.717-1.414,8.223,8.223,0,0,1,5.039,1.421,4.443,4.443,0,0,1,1.9,3.735h-4.951q0-1.9-2.007-1.9a1.989,1.989,0,0,0-1.3.432,1.338,1.338,0,0,0-.527,1.077A1.228,1.228,0,0,0,109,18.688a6.09,6.09,0,0,0,2.058.674,17.785,17.785,0,0,1,2.483.63q3.574,1.23,3.574,4.409a4.151,4.151,0,0,1-1.926,3.53,8.447,8.447,0,0,1-4.988,1.362,8.62,8.62,0,0,1-3.633-.732,6.075,6.075,0,0,1-2.49-1.992,4.511,4.511,0,0,1-.894-2.651H107.8a1.908,1.908,0,0,0,.732,1.6,3.013,3.013,0,0,0,1.8.505,2.37,2.37,0,0,0,1.516-.41A1.312,1.312,0,0,0,112.354,24.547Z" transform="translate(433.667 16571)" fill="#fff"/>
    <path id="Trazado_755428" data-name="Trazado 755428" d="M1.611,29V7.672h6.87a10.106,10.106,0,0,1,5.083,1.282,9.009,9.009,0,0,1,3.523,3.618,10.924,10.924,0,0,1,1.282,5.237v.981a10.987,10.987,0,0,1-1.238,5.251,9.048,9.048,0,0,1-3.486,3.633A9.884,9.884,0,0,1,8.628,29ZM6.753,11.642v13.4H8.54a4,4,0,0,0,3.4-1.575,7.717,7.717,0,0,0,1.187-4.68v-.923a7.653,7.653,0,0,0-1.187-4.658,4.069,4.069,0,0,0-3.457-1.567ZM28.447,29.293a8.148,8.148,0,0,1-5.9-2.175,7.512,7.512,0,0,1-2.256-5.662v-.41a9.734,9.734,0,0,1,.9-4.292,6.592,6.592,0,0,1,2.629-2.878,7.938,7.938,0,0,1,4.1-1.018,6.861,6.861,0,0,1,5.273,2.073,8.145,8.145,0,0,1,1.934,5.779v1.919H25.313a3.558,3.558,0,0,0,1.157,2.095,3.443,3.443,0,0,0,2.314.762,4.437,4.437,0,0,0,3.662-1.641L34.7,26.51a6.306,6.306,0,0,1-2.615,2.029A8.836,8.836,0,0,1,28.447,29.293Zm-.557-12.627q-2.168,0-2.578,2.871h4.98v-.381a2.445,2.445,0,0,0-.6-1.838A2.39,2.39,0,0,0,27.891,16.666Zm17.52,7.881a1.14,1.14,0,0,0-.659-1.011,10.027,10.027,0,0,0-2.5-.791A11.422,11.422,0,0,1,39.2,21.668a5.1,5.1,0,0,1-1.831-1.619,3.865,3.865,0,0,1-.63-2.183,4.381,4.381,0,0,1,1.8-3.6,7.422,7.422,0,0,1,4.717-1.414A8.223,8.223,0,0,1,48.3,14.278a4.443,4.443,0,0,1,1.9,3.735H45.249q0-1.9-2.007-1.9a1.989,1.989,0,0,0-1.3.432,1.338,1.338,0,0,0-.527,1.077,1.228,1.228,0,0,0,.645,1.069,6.09,6.09,0,0,0,2.058.674,17.785,17.785,0,0,1,2.483.63q3.574,1.23,3.574,4.409a4.151,4.151,0,0,1-1.926,3.53,8.447,8.447,0,0,1-4.988,1.362,8.62,8.62,0,0,1-3.633-.732,6.075,6.075,0,0,1-2.49-1.992,4.511,4.511,0,0,1-.894-2.651h4.614a1.908,1.908,0,0,0,.732,1.6,3.013,3.013,0,0,0,1.8.505,2.37,2.37,0,0,0,1.516-.41A1.312,1.312,0,0,0,45.41,24.547ZM58.8,23.126l2.5-9.976h5.2L61.333,29H56.294L51.123,13.15h5.215Zm16.655,6.167a8.148,8.148,0,0,1-5.9-2.175,7.512,7.512,0,0,1-2.256-5.662v-.41a9.734,9.734,0,0,1,.9-4.292,6.592,6.592,0,0,1,2.629-2.878,7.938,7.938,0,0,1,4.1-1.018A6.861,6.861,0,0,1,80.2,14.93a8.145,8.145,0,0,1,1.934,5.779v1.919H72.319a3.558,3.558,0,0,0,1.157,2.095,3.443,3.443,0,0,0,2.314.762,4.437,4.437,0,0,0,3.662-1.641l2.256,2.666a6.306,6.306,0,0,1-2.615,2.029A8.836,8.836,0,0,1,75.454,29.293ZM74.9,16.666q-2.168,0-2.578,2.871H77.3v-.381a2.445,2.445,0,0,0-.6-1.838A2.39,2.39,0,0,0,74.9,16.666ZM88.652,13.15l.161,1.86a5.375,5.375,0,0,1,4.526-2.153,4.522,4.522,0,0,1,3.7,1.479,7.044,7.044,0,0,1,1.267,4.453V29H93.354V19a2.675,2.675,0,0,0-.483-1.765,2.236,2.236,0,0,0-1.758-.564,2.354,2.354,0,0,0-2.153,1.143V29H84.023V13.15Zm18.135-3.94v3.94h2.607v3.428h-2.607v7.251a1.851,1.851,0,0,0,.322,1.245,1.729,1.729,0,0,0,1.274.352,7.242,7.242,0,0,0,1.23-.088v3.53a9.11,9.11,0,0,1-2.783.425,5.171,5.171,0,0,1-3.765-1.2,4.923,4.923,0,0,1-1.216-3.647V16.578H99.829V13.15h2.021V9.21ZM120.264,29a5.574,5.574,0,0,1-.469-1.421,4.59,4.59,0,0,1-3.809,1.714,5.623,5.623,0,0,1-3.809-1.355,4.313,4.313,0,0,1-1.567-3.406,4.433,4.433,0,0,1,1.9-3.9,9.7,9.7,0,0,1,5.537-1.318h1.523v-.839q0-2.193-1.89-2.193a1.545,1.545,0,0,0-1.758,1.737h-4.937a4.425,4.425,0,0,1,1.956-3.731,8.218,8.218,0,0,1,4.988-1.434,7.205,7.205,0,0,1,4.79,1.479,5.144,5.144,0,0,1,1.8,4.058v7.017a7.186,7.186,0,0,0,.674,3.34V29Zm-3.091-3.223a2.754,2.754,0,0,0,1.531-.4,2.479,2.479,0,0,0,.872-.894V21.954H118.14q-2.578,0-2.578,2.314a1.413,1.413,0,0,0,.454,1.091A1.643,1.643,0,0,0,117.173,25.777Zm15.4-12.627V29.542a5.753,5.753,0,0,1-1.611,4.336A6.19,6.19,0,0,1,126.5,35.4a10.513,10.513,0,0,1-2.329-.249V31.417a9.445,9.445,0,0,0,1.392.132,1.806,1.806,0,0,0,2.051-2.036V13.15Zm-5.317-4.1a2.223,2.223,0,0,1,.762-1.739,3.223,3.223,0,0,1,3.955,0,2.223,2.223,0,0,1,.762,1.739,2.223,2.223,0,0,1-.762,1.739,3.223,3.223,0,0,1-3.955,0A2.223,2.223,0,0,1,127.251,9.049ZM144.287,29a5.574,5.574,0,0,1-.469-1.421,4.59,4.59,0,0,1-3.809,1.714,5.623,5.623,0,0,1-3.809-1.355,4.313,4.313,0,0,1-1.567-3.406,4.433,4.433,0,0,1,1.9-3.9,9.7,9.7,0,0,1,5.537-1.318H143.6v-.839q0-2.193-1.89-2.193a1.545,1.545,0,0,0-1.758,1.737h-4.937a4.425,4.425,0,0,1,1.956-3.731,8.218,8.218,0,0,1,4.988-1.434,7.205,7.205,0,0,1,4.79,1.479,5.144,5.144,0,0,1,1.8,4.058v7.017a7.186,7.186,0,0,0,.674,3.34V29ZM141.2,25.777a2.754,2.754,0,0,0,1.531-.4,2.479,2.479,0,0,0,.872-.894V21.954h-1.436q-2.578,0-2.578,2.314a1.413,1.413,0,0,0,.454,1.091A1.643,1.643,0,0,0,141.2,25.777Zm18.384-1.23a1.14,1.14,0,0,0-.659-1.011,10.027,10.027,0,0,0-2.5-.791,11.422,11.422,0,0,1-3.047-1.077,5.1,5.1,0,0,1-1.831-1.619,3.865,3.865,0,0,1-.63-2.183,4.381,4.381,0,0,1,1.8-3.6,7.422,7.422,0,0,1,4.717-1.414,8.223,8.223,0,0,1,5.039,1.421,4.443,4.443,0,0,1,1.9,3.735h-4.951q0-1.9-2.007-1.9a1.989,1.989,0,0,0-1.3.432,1.338,1.338,0,0,0-.527,1.077,1.228,1.228,0,0,0,.645,1.069,6.09,6.09,0,0,0,2.058.674,17.785,17.785,0,0,1,2.483.63q3.574,1.23,3.574,4.409a4.151,4.151,0,0,1-1.926,3.53,8.447,8.447,0,0,1-4.988,1.362,8.62,8.62,0,0,1-3.633-.732,6.075,6.075,0,0,1-2.49-1.992,4.511,4.511,0,0,1-.894-2.651h4.614a1.908,1.908,0,0,0,.732,1.6,3.013,3.013,0,0,0,1.8.505,2.37,2.37,0,0,0,1.516-.41A1.312,1.312,0,0,0,159.58,24.547Z" transform="translate(1011.667 16571)" fill="#fff"/>
  </g>
</svg>
