<svg xmlns="http://www.w3.org/2000/svg" xmlns:xlink="http://www.w3.org/1999/xlink" width="398.976" height="389.926" viewBox="0 0 398.976 389.926">
  <defs>
    <clipPath id="clip-path">
      <rect id="Rectángulo_362102" data-name="Rectángulo 362102" width="398.976" height="389.927" fill="none"/>
    </clipPath>
    <clipPath id="clip-path-2">
      <rect id="Rectángulo_362101" data-name="Rectángulo 362101" width="398.976" height="389.926" fill="none"/>
    </clipPath>
    <clipPath id="clip-path-3">
      <rect id="Rectángulo_362098" data-name="Rectángulo 362098" width="238.857" height="273.943" fill="none"/>
    </clipPath>
    <clipPath id="clip-path-4">
      <rect id="Rectángulo_362099" data-name="Rectángulo 362099" width="70.519" height="70.519" fill="none"/>
    </clipPath>
    <clipPath id="clip-path-5">
      <rect id="Rectángulo_362100" data-name="Rectángulo 362100" width="207.162" height="253.882" fill="none"/>
    </clipPath>
  </defs>
  <g id="Grupo_1020850" data-name="Grupo 1020850" transform="translate(-286.024 -19284.406)">
    <g id="Grupo_1020583" data-name="Grupo 1020583" transform="translate(286.024 19284.406)">
      <g id="Grupo_1020582" data-name="Grupo 1020582" clip-path="url(#clip-path)">
        <g id="Grupo_1020581" data-name="Grupo 1020581" transform="translate(0 0)">
          <g id="Grupo_1020580" data-name="Grupo 1020580" clip-path="url(#clip-path-2)">
            <path id="Trazado_754006" data-name="Trazado 754006" d="M129.235,176.858c1.457-21.422,7.567-111.27,75.223-154.485C281.886-27.083,399.195,10.55,457.895,85.48c35.765,45.654,62.959,121.987,33.32,186.8-50.4,110.2-240.434,133.089-319.572,53.01-49.121-49.7-43.847-127.269-42.408-148.427" transform="translate(-110.993 -0.003)" fill="#f3fadc"/>
            <path id="Trazado_754007" data-name="Trazado 754007" d="M1470.348,934a6.94,6.94,0,0,1-.772-.043L1299.49,914.94a6.905,6.905,0,0,1-6.079-7.61l25.037-223.89a6.905,6.905,0,0,1,7.61-6.08l170.085,19.02a6.906,6.906,0,0,1,6.079,7.611l-25.037,223.89a6.911,6.911,0,0,1-6.838,6.122M1325.289,678.977a5.251,5.251,0,0,0-5.193,4.648l-25.037,223.89a5.246,5.246,0,0,0,4.615,5.777l170.085,19.02a5.246,5.246,0,0,0,5.778-4.615l25.037-223.89a5.247,5.247,0,0,0-4.615-5.778l-170.085-19.02a5.24,5.24,0,0,0-.584-.033" transform="translate(-1118.545 -585.766)" fill="#444"/>
            <path id="Trazado_754008" data-name="Trazado 754008" d="M1360.513,864.088,1195.78,817.677a6.076,6.076,0,0,1-4.188-7.474l61.093-216.843a6.076,6.076,0,0,1,7.474-4.188l164.732,46.411a6.076,6.076,0,0,1,4.188,7.474L1367.987,859.9a6.076,6.076,0,0,1-7.474,4.188" transform="translate(-1030.33 -509.338)" fill="#2b95f9"/>
            <path id="Trazado_754009" data-name="Trazado 754009" d="M1987.846,947.156l-79.975-22.532A4.481,4.481,0,1,1,1910.3,916l79.975,22.532a4.481,4.481,0,0,1-2.431,8.627" transform="translate(-1647.162 -792.038)" fill="#b3cef6"/>
            <path id="Trazado_754010" data-name="Trazado 754010" d="M1811.4,1097.732l-125.977-35.493a4.481,4.481,0,1,1,2.43-8.627l125.977,35.492a4.482,4.482,0,0,1-2.431,8.627" transform="translate(-1454.786 -911.052)" fill="#b3cef6"/>
            <path id="Trazado_754011" data-name="Trazado 754011" d="M1770.008,1244.665l-125.977-35.492a4.481,4.481,0,1,1,2.431-8.627l125.977,35.493a4.481,4.481,0,1,1-2.431,8.627" transform="translate(-1418.985 -1038.125)" fill="#b3cef6"/>
            <path id="Trazado_754012" data-name="Trazado 754012" d="M1728.611,1391.6l-125.977-35.493a4.494,4.494,0,0,1-3.1-5.529h0a4.5,4.5,0,0,1,5.529-3.1l125.977,35.493a4.481,4.481,0,0,1-2.43,8.627" transform="translate(-1383.184 -1165.197)" fill="#b3cef6"/>
            <path id="Trazado_754013" data-name="Trazado 754013" d="M1687.215,1538.532l-125.977-35.492a4.5,4.5,0,0,1-3.1-5.529h0a4.5,4.5,0,0,1,5.529-3.1l125.977,35.493a4.481,4.481,0,1,1-2.431,8.627" transform="translate(-1347.383 -1292.27)" fill="#b3cef6"/>
            <path id="Trazado_754014" data-name="Trazado 754014" d="M1645.818,1685.465l-125.977-35.493a4.481,4.481,0,1,1,2.431-8.627l125.977,35.493a4.481,4.481,0,1,1-2.431,8.627" transform="translate(-1311.582 -1419.342)" fill="#b3cef6"/>
            <path id="Trazado_754015" data-name="Trazado 754015" d="M1604.422,1832.4l-125.977-35.492a4.481,4.481,0,1,1,2.43-8.627l125.977,35.493a4.481,4.481,0,0,1-2.431,8.627" transform="translate(-1275.781 -1546.415)" fill="#b3cef6"/>
            <path id="Trazado_754016" data-name="Trazado 754016" d="M1563.025,1979.332l-125.977-35.493a4.481,4.481,0,1,1,2.431-8.627l125.977,35.493a4.481,4.481,0,1,1-2.431,8.627" transform="translate(-1239.979 -1673.487)" fill="#b3cef6"/>
            <path id="Trazado_754017" data-name="Trazado 754017" d="M1521.628,2126.266l-125.977-35.492a4.5,4.5,0,0,1-3.1-5.529h0a4.5,4.5,0,0,1,5.529-3.1l125.977,35.492a4.481,4.481,0,1,1-2.431,8.627" transform="translate(-1204.178 -1800.561)" fill="#b3cef6"/>
            <path id="Trazado_754018" data-name="Trazado 754018" d="M97.132,388.766h-.026c-.251,0-.473-.009-.68-.027l-.092-.01-.03,0c-.187-.019-.382-.045-.577-.079l-.041-.007c-.052-.009-.1-.017-.155-.027-.207-.041-.415-.09-.617-.146-.059-.016-.117-.034-.174-.052L94.7,388.4c-.163-.05-.325-.1-.483-.164l-.014-.005c-.074-.028-.147-.055-.22-.085-.164-.067-.326-.14-.5-.224-.083-.04-.165-.081-.246-.124-.191-.1-.356-.2-.506-.289-.074-.046-.146-.1-.218-.145l-.065-.044c-.108-.073-.214-.147-.318-.225-.085-.064-.167-.129-.249-.2-.11-.089-.224-.187-.346-.3l-.046-.042c-.048-.043-.1-.086-.142-.131-.18-.174-.341-.343-.493-.517-.024-.028-.044-.054-.064-.079l-.014-.017c-.13-.154-.26-.32-.383-.491-.043-.06-.084-.12-.124-.18l-.009-.013c-.1-.148-.2-.3-.292-.464l-.026-.045c-.029-.049-.058-.1-.086-.15-.135-.245-.247-.47-.341-.687l-.514-1.18L.685,179.647c-.1-.235-.195-.48-.282-.749-.019-.057-.035-.115-.051-.173-.006-.023-.012-.046-.019-.069-.045-.153-.1-.334-.137-.519-.017-.075-.03-.149-.044-.223l-.012-.064c-.035-.186-.059-.339-.077-.482-.013-.1-.022-.2-.031-.3-.014-.16-.024-.319-.028-.472,0-.1-.005-.2,0-.3,0-.144.007-.3.018-.47l0-.052c.005-.082.01-.164.018-.245.017-.167.041-.326.063-.463l.011-.077c.01-.071.021-.143.035-.213.029-.148.063-.283.1-.413l.009-.035a8.253,8.253,0,0,1,.353-1.093c.016-.04.034-.078.052-.117l.016-.036c.1-.231.195-.432.292-.616.029-.054.059-.107.09-.159l.035-.061c.112-.2.211-.358.313-.509.049-.073.1-.146.154-.219l.015-.02c.115-.16.228-.305.344-.445.067-.081.135-.16.205-.238.115-.128.24-.258.381-.4l.019-.019c.071-.069.142-.138.216-.2.154-.138.311-.264.431-.358l.062-.049c.062-.05.125-.1.19-.147.173-.125.347-.235.509-.334l.064-.041c.057-.037.114-.074.174-.108a8.211,8.211,0,0,1,.806-.406L164.293,99.42a8.265,8.265,0,0,1,.846-.313c.064-.02.129-.037.2-.053l.077-.02c.175-.048.376-.1.587-.144.082-.016.164-.029.245-.041l.078-.012c.17-.026.353-.053.545-.07.1-.009.195-.014.292-.018l.041,0c.2-.009.372-.012.538-.009q.165,0,.33.013c.171.01.348.026.537.049l.018,0c.1.012.2.025.294.04.169.028.346.063.557.113l.069.016c.069.015.137.031.205.049.188.051.385.113.618.2l.047.016c.046.015.092.03.138.048a8.254,8.254,0,0,1,1.061.5l.045.025c.106.058.216.118.33.189.061.038.118.077.174.116l.064.044c.124.083.259.175.394.279.065.05.127.1.189.152l.032.026c.138.112.259.217.368.318.07.065.137.13.2.2.115.113.228.232.338.355.065.072.128.144.191.218.1.116.194.24.307.393l.038.051c.044.059.088.118.13.18.1.152.2.309.287.455l.037.061c.032.051.063.1.093.156.139.25.255.485.356.717l88.835,204.145c.094.216.18.444.27.717.018.055.034.108.05.161l.016.054c.053.175.1.354.141.531l.009.04c.014.063.029.126.041.189.041.2.074.411.1.616l0,.022c.005.031.01.063.013.1.025.233.039.467.043.717,0,.061,0,.127,0,.192v.065c0,.166-.008.314-.018.454-.007.106-.016.212-.027.317-.014.126-.032.252-.051.378a8.371,8.371,0,0,1-.282,1.222c-.015.047-.031.093-.047.138l-.019.055c-.078.23-.165.454-.26.669-.032.073-.065.147-.1.221-.1.213-.213.424-.343.646l-.025.045c-.022.041-.045.081-.07.121a8.234,8.234,0,0,1-.532.764c-.018.023-.037.045-.057.068a8.2,8.2,0,0,1-.547.613c-.049.05-.1.1-.154.148l-.053.049c-.16.152-.324.3-.485.426-.084.068-.168.134-.255.2-.164.123-.342.243-.543.37l-.065.042c-.061.039-.121.078-.184.115a8.316,8.316,0,0,1-.857.438L100.417,388.08c-.212.092-.443.179-.709.267l-.021.007-.129.042c-.233.073-.467.135-.694.184l-.092.018-.037.007c-.221.044-.437.078-.644.1l-.026,0-.087.011c-.218.023-.445.036-.692.041h-.154M167.613,100.4c-.1,0-.211,0-.332.009l-.042,0c-.075,0-.149.007-.225.014-.145.013-.3.035-.437.057l-.091.014c-.056.008-.111.016-.167.027-.156.031-.323.076-.468.115l-.117.03c-.034.008-.067.016-.1.027a6.647,6.647,0,0,0-.679.25L5.636,170.27a6.638,6.638,0,0,0-.646.326c-.032.018-.061.038-.092.057l-.1.063c-.137.084-.279.173-.407.266-.043.031-.085.065-.127.1l-.074.059c-.106.083-.229.181-.344.285-.058.052-.113.106-.169.161l-.019.019c-.115.112-.215.215-.305.316-.056.062-.111.126-.164.19-.092.111-.182.227-.275.356l-.015.021c-.04.056-.081.112-.119.169-.08.119-.159.248-.25.408l-.045.077c-.019.033-.039.066-.057.1-.076.143-.152.3-.232.491-.012.028-.026.058-.039.087-.006.012-.012.024-.017.037a6.586,6.586,0,0,0-.281.876l-.01.037c-.029.113-.056.22-.075.32-.009.044-.015.09-.022.136l-.014.1c-.018.115-.038.247-.051.37-.006.06-.009.119-.013.179l0,.058c-.009.142-.014.264-.015.374,0,.079,0,.159,0,.24,0,.123.011.25.022.377.007.08.014.16.025.24.014.109.033.232.062.384l.013.073c.009.052.019.1.03.157.031.138.071.281.11.414.01.033.019.067.028.1s.017.063.027.094c.071.219.145.415.226.6L91.041,383.129c.074.169.163.349.274.55.02.036.04.07.06.1l.031.052c.075.128.153.253.234.372l.01.015c.032.047.063.094.1.139.1.135.2.267.306.392l.051.063.014.017c.115.132.244.267.389.408.031.03.063.059.1.087l.056.05c.1.09.189.167.276.238.067.054.132.106.2.156.082.062.168.121.254.179l.074.05c.051.035.1.07.154.1.118.073.25.149.406.231.064.034.13.067.2.1.139.068.269.126.4.179.057.023.116.045.176.068.137.051.268.1.4.135l.04.012.131.039c.161.045.328.084.494.117l.1.018.049.008c.159.027.315.049.464.064l.066.008.033,0c.159.014.336.02.541.021h.143c.2,0,.382-.015.553-.033l.089-.012c.166-.02.338-.047.514-.082l.1-.02c.18-.039.367-.089.555-.147l.1-.032.023-.008c.221-.073.4-.141.569-.214L259.075,317.23a6.706,6.706,0,0,0,.685-.351c.039-.023.078-.048.117-.073l.081-.052c.165-.1.307-.2.436-.3.068-.051.136-.1.2-.158.13-.105.256-.216.387-.341l.064-.06c.034-.032.068-.063.1-.1a6.529,6.529,0,0,0,.446-.5c.019-.024.034-.04.048-.056a6.6,6.6,0,0,0,.415-.6c.01-.016.019-.034.029-.052l.046-.081c.105-.179.195-.348.275-.517h0c.028-.059.054-.118.08-.177.076-.173.146-.352.208-.534l.023-.068c.01-.029.021-.059.03-.089a6.712,6.712,0,0,0,.225-.979c.015-.1.031-.2.041-.3.009-.085.016-.169.022-.253.007-.11.012-.229.014-.363v-.077c0-.042,0-.084,0-.126,0-.205-.014-.391-.034-.572l0-.018c0-.026-.008-.051-.011-.077-.02-.164-.046-.33-.079-.493-.009-.047-.02-.094-.031-.141l-.01-.041c-.032-.14-.07-.283-.112-.422l-.018-.062c-.011-.038-.022-.075-.034-.113-.073-.222-.142-.4-.216-.573L173.67,104.371c-.08-.184-.174-.372-.286-.576-.016-.028-.033-.056-.051-.084l-.054-.088c-.083-.14-.154-.256-.228-.363-.03-.044-.061-.086-.093-.127l-.044-.059c-.092-.125-.169-.224-.243-.312-.05-.06-.1-.118-.154-.176-.087-.1-.178-.192-.268-.281-.054-.053-.109-.107-.166-.159-.084-.078-.178-.158-.294-.252l-.036-.03c-.046-.038-.093-.077-.141-.113-.1-.075-.21-.151-.313-.22l-.082-.056c-.036-.025-.072-.05-.109-.073-.079-.049-.165-.1-.25-.142l-.049-.027a6.609,6.609,0,0,0-.851-.4l-.055-.018-.094-.031c-.191-.068-.348-.118-.494-.157-.045-.012-.089-.022-.134-.032l-.085-.019c-.174-.041-.316-.069-.446-.091-.076-.012-.154-.022-.231-.031l-.018,0c-.153-.019-.293-.032-.429-.039-.089-.005-.177-.009-.265-.01h-.1" transform="translate(0 -85.392)" fill="#444"/>
            <g id="Grupo_1020573" data-name="Grupo 1020573" transform="translate(11.982 27.648)" opacity="0.2" style="mix-blend-mode: multiply;isolation: isolate">
              <g id="Grupo_1020572" data-name="Grupo 1020572">
                <g id="Grupo_1020571" data-name="Grupo 1020571" clip-path="url(#clip-path-3)">
                  <path id="Trazado_754019" data-name="Trazado 754019" d="M326.2,431.745c.041-.061.081-.122.12-.184q.174-.271.324-.556c.029-.055.059-.109.087-.164a7.464,7.464,0,0,0,.423-1.047c.035-.109.069-.219.1-.33.025-.092.047-.184.069-.277.031-.133.056-.266.08-.4.013-.076.028-.152.039-.228.03-.211.052-.425.063-.64,0-.035,0-.071,0-.107q.011-.28,0-.564c0-.069-.008-.139-.013-.208q-.017-.246-.05-.492c-.009-.067-.017-.133-.028-.2-.036-.225-.081-.451-.139-.677l-.321-1.241L272.215,212.79l-.689-2.664c-.061-.235-.134-.464-.216-.689-.026-.072-.057-.14-.085-.21-.06-.151-.122-.3-.191-.446-.037-.078-.078-.153-.118-.229-.069-.133-.14-.264-.216-.392-.045-.075-.092-.148-.139-.221q-.12-.185-.25-.362c-.051-.069-.1-.138-.155-.2-.091-.115-.186-.227-.284-.336-.056-.063-.111-.126-.169-.187-.1-.1-.206-.2-.312-.3-.063-.058-.123-.119-.187-.175-.1-.085-.2-.164-.3-.243a7.471,7.471,0,0,0-.874-.595c-.051-.029-.1-.054-.156-.082-.171-.093-.343-.182-.521-.261-.077-.034-.156-.064-.234-.1-.158-.064-.316-.125-.479-.179-.089-.029-.18-.056-.271-.082-.156-.045-.312-.085-.471-.12-.1-.021-.193-.04-.291-.058-.158-.028-.318-.05-.479-.067-.1-.011-.2-.022-.3-.029-.164-.011-.33-.014-.5-.015-.1,0-.195,0-.293,0-.18.007-.361.025-.542.045-.085.009-.169.014-.254.026a7.526,7.526,0,0,0-.8.158L94.23,248.281a7.535,7.535,0,0,0-.774.248c-.08.03-.155.067-.233.1-.169.07-.337.143-.5.224-.086.044-.168.092-.252.139-.147.082-.293.166-.433.257-.082.053-.161.109-.241.166-.135.1-.267.194-.395.3-.074.06-.145.12-.217.183-.127.112-.249.227-.368.347-.062.062-.124.124-.184.189-.122.131-.237.268-.348.408-.048.06-.1.118-.144.179-.123.164-.237.333-.346.506-.027.042-.056.083-.082.126a7.461,7.461,0,0,0-.469.925c-.054.126-.109.251-.155.379-.031.084-.055.17-.083.255-.043.133-.085.265-.121.4-.023.087-.041.175-.061.262-.031.137-.059.274-.082.412-.015.089-.027.179-.038.268q-.027.211-.041.423c-.006.09-.012.18-.015.27,0,.146,0,.293,0,.44,0,.087,0,.174.009.262.01.16.028.32.049.48.01.076.015.151.027.227.037.235.084.471.145.707l.69,2.669L144.3,471.659l.322,1.247c.058.225.129.444.206.659.023.064.049.126.073.189q.09.232.194.454c.03.063.059.127.09.189q.127.253.272.492c.019.031.035.063.054.094.114.183.237.358.365.529.046.062.1.12.144.18.086.107.174.212.265.313.063.071.127.14.193.208.081.084.165.164.25.243s.15.144.229.212c.131.114.267.221.405.325.067.05.135.1.2.147q.2.14.406.266c.066.04.133.078.2.116q.2.113.4.213c.061.03.121.06.183.088q.26.118.528.217c.056.021.112.039.168.057q.247.084.5.151l.108.03c.2.049.4.086.6.119l.16.024c.2.028.411.05.619.061l.1,0q.289.012.581,0l.122,0c.214-.012.428-.035.643-.066l.14-.022c.223-.036.445-.08.668-.137l168.216-43.5a7.458,7.458,0,0,0,.822-.268c.083-.032.163-.07.244-.1.183-.078.361-.161.535-.252.086-.045.17-.092.254-.14.169-.1.332-.2.491-.31.071-.049.143-.1.212-.146a7.414,7.414,0,0,0,.583-.477c.016-.015.034-.028.05-.043a7.345,7.345,0,0,0,.579-.6c.038-.044.072-.09.108-.135.14-.17.272-.344.4-.525" transform="translate(-88.648 -204.547)" fill="#3a7ec1"/>
                </g>
              </g>
            </g>
            <path id="Trazado_754020" data-name="Trazado 754020" d="M278.5,163.787l55.744,215.544a7.46,7.46,0,0,1-5.349,9.08l-168.216,43.5a7.459,7.459,0,0,1-9.08-5.348L95.857,211.022a7.453,7.453,0,0,1,5.348-9.08l168.216-43.5a7.454,7.454,0,0,1,9.08,5.348" transform="translate(-82.693 -136.816)" fill="#ffb338"/>
            <path id="Trazado_754021" data-name="Trazado 754021" d="M278.5,163.785l.689,2.664-8.308,25.865-77.017,20.94-77.518,19.026-19.8-18.59-.69-2.669a7.449,7.449,0,0,1,5.348-9.08l168.216-43.5a7.45,7.45,0,0,1,9.08,5.348" transform="translate(-82.695 -136.814)" fill="#d89444"/>
            <path id="Trazado_754022" data-name="Trazado 754022" d="M690.052,1700.746l.321,1.242a7.453,7.453,0,0,1-5.349,9.08l-168.216,43.5a7.453,7.453,0,0,1-9.08-5.348l-.322-1.246,5.769-16.911a4.655,4.655,0,0,1,3.182-2.94l156.236-40.406a4.684,4.684,0,0,1,4.213,1.028Z" transform="translate(-438.821 -1459.472)" fill="#d89444"/>
            <path id="Trazado_754023" data-name="Trazado 754023" d="M707.148,1706.5a7.436,7.436,0,0,1-5.131,4.659l-168.216,43.5a7.437,7.437,0,0,1-6.746-1.587l3.512-21.808a3.775,3.775,0,0,1,2.782-3.056L689.585,1687.8a3.788,3.788,0,0,1,3.919,1.323Z" transform="translate(-455.814 -1459.559)" fill="#efc147"/>
            <path id="Trazado_754024" data-name="Trazado 754024" d="M280.174,159.613l-4.65,32.246a2.277,2.277,0,0,1-1.687,1.886L122.942,232.768a2.283,2.283,0,0,1-2.394-.83l-19.7-25.943a7.438,7.438,0,0,1,4.881-4.052l168.216-43.5a7.432,7.432,0,0,1,6.228,1.174" transform="translate(-87.217 -136.816)" fill="#efc147"/>
            <path id="Trazado_754025" data-name="Trazado 754025" d="M750.224,469.621a7.081,7.081,0,0,1-6.844-5.3l-14.844-57.4a7.086,7.086,0,0,1,5.073-8.612l3.435-.888a7.076,7.076,0,0,1,8.612,5.073l14.844,57.4a7.086,7.086,0,0,1-5.073,8.613l-3.435.888a7.055,7.055,0,0,1-1.769.226m-11.412-70.4a5.04,5.04,0,0,0-1.263.161l-3.434.888a5.066,5.066,0,0,0-3.624,6.152l14.844,57.4a5.054,5.054,0,0,0,6.152,3.624l3.435-.888a5.066,5.066,0,0,0,3.624-6.152L743.7,403a5.058,5.058,0,0,0-4.889-3.785" transform="translate(-629.865 -343.508)" fill="#444"/>
            <path id="Trazado_754026" data-name="Trazado 754026" d="M742.385,397.578a9.869,9.869,0,1,1-12.026-7.084,9.869,9.869,0,0,1,12.026,7.084" transform="translate(-625.237 -337.438)" fill="#fff"/>
            <path id="Trazado_754027" data-name="Trazado 754027" d="M849.618,812.215a9.869,9.869,0,1,1-12.026-7.084,9.869,9.869,0,0,1,12.026,7.084" transform="translate(-717.976 -696.029)" fill="#fff"/>
            <g id="Grupo_1020576" data-name="Grupo 1020576" transform="translate(84.794 316.663)" opacity="0.2" style="mix-blend-mode: multiply;isolation: isolate">
              <g id="Grupo_1020575" data-name="Grupo 1020575">
                <g id="Grupo_1020574" data-name="Grupo 1020574" clip-path="url(#clip-path-4)">
                  <path id="Trazado_754028" data-name="Trazado 754028" d="M677.649,2346.12a35.251,35.251,0,1,0,16.8,46.938,35.251,35.251,0,0,0-16.8-46.938" transform="translate(-627.319 -2342.728)" fill="#3a7ec1"/>
                </g>
              </g>
            </g>
            <path id="Trazado_754029" data-name="Trazado 754029" d="M675.3,2359.66a35.251,35.251,0,1,1-16.8-46.938,35.251,35.251,0,0,1,16.8,46.938" transform="translate(-525.964 -1997.18)" fill="#b1de19"/>
            <path id="Trazado_754030" data-name="Trazado 754030" d="M721.617,2471.75l-6.814,6.422a15.624,15.624,0,0,0-.651,22.021l1.26,1.337a15.624,15.624,0,0,0,22.021.651l6.814-6.422a3.606,3.606,0,0,0,.151-5.1L726.714,2471.9a3.606,3.606,0,0,0-5.1-.151" transform="translate(-613.968 -2136.798)" fill="#fff"/>
            <path id="Trazado_754031" data-name="Trazado 754031" d="M852.429,2426.6l4.575-4.312a7.865,7.865,0,0,1,10.789,11.446l-4.575,4.312,2.971,3.153,4.575-4.312a12.2,12.2,0,0,0-16.732-17.751l-4.575,4.312Z" transform="translate(-734.638 -2089.281)" fill="#fff"/>
            <path id="Trazado_754032" data-name="Trazado 754032" d="M808.42,2579.072a3.683,3.683,0,1,0-5.978-1.395l-2.295,2.163a1.432,1.432,0,1,0,1.965,2.084l2.295-2.163a3.684,3.684,0,0,0,4.014-.69" transform="translate(-691.605 -2224.959)" fill="#b1de19"/>
            <g id="Grupo_1020579" data-name="Grupo 1020579" transform="translate(147.643 72.661)" opacity="0.25" style="mix-blend-mode: multiply;isolation: isolate">
              <g id="Grupo_1020578" data-name="Grupo 1020578">
                <g id="Grupo_1020577" data-name="Grupo 1020577" clip-path="url(#clip-path-5)">
                  <path id="Trazado_754033" data-name="Trazado 754033" d="M1263.936,552.019l-138.188-14.4a9.853,9.853,0,0,0-10.821,8.779l-22.582,216.66a9.853,9.853,0,0,0,8.779,10.822L1269.16,791.39a9.853,9.853,0,0,0,10.821-8.779l19.471-186.81Z" transform="translate(-1092.29 -537.561)" fill="#3a7ec1"/>
                </g>
              </g>
            </g>
            <path id="Trazado_754034" data-name="Trazado 754034" d="M1223.947,521.213l-138.188-14.4a9.853,9.853,0,0,0-10.822,8.779l-22.582,216.66a9.853,9.853,0,0,0,8.779,10.822l168.038,17.514a9.853,9.853,0,0,0,10.821-8.779L1259.464,565Z" transform="translate(-910.063 -438.259)" fill="#fff"/>
            <path id="Trazado_754035" data-name="Trazado 754035" d="M2298.8,643.561a9.853,9.853,0,0,0,8.778,10.822l29.85,3.111-35.517-43.782Z" transform="translate(-1988.031 -530.758)" fill="#ededed"/>
            <path id="Trazado_754036" data-name="Trazado 754036" d="M2352.678,912.488l30.869,8.421.524-5.024Z" transform="translate(-2034.67 -789.148)" fill="#cecece"/>
            <path id="Trazado_754037" data-name="Trazado 754037" d="M1632.568,848.729l-84.506-8.808a4.165,4.165,0,0,1,.864-8.286l84.506,8.808a4.165,4.165,0,0,1-.864,8.286" transform="translate(-1335.584 -719.206)" fill="#b1de19"/>
            <path id="Trazado_754038" data-name="Trazado 754038" d="M1461.9,1041.234l-139.7-14.561a4.165,4.165,0,0,1,.864-8.286l139.7,14.561a4.165,4.165,0,0,1-.864,8.286" transform="translate(-1140.252 -880.715)" fill="#dfeffe"/>
            <path id="Trazado_754039" data-name="Trazado 754039" d="M1445.642,1197.259l-139.7-14.561a4.165,4.165,0,0,1,.864-8.286l139.7,14.561a4.165,4.165,0,1,1-.864,8.286" transform="translate(-1126.188 -1015.649)" fill="#dfeffe"/>
            <path id="Trazado_754040" data-name="Trazado 754040" d="M1429.38,1353.282l-139.7-14.561a4.165,4.165,0,1,1,.864-8.286l139.7,14.561a4.165,4.165,0,1,1-.864,8.286" transform="translate(-1112.124 -1150.584)" fill="#dfeffe"/>
            <path id="Trazado_754041" data-name="Trazado 754041" d="M1413.118,1509.307l-139.7-14.561a4.165,4.165,0,0,1,.864-8.286l139.7,14.561a4.165,4.165,0,1,1-.864,8.286" transform="translate(-1098.06 -1285.519)" fill="#dfeffe"/>
            <path id="Trazado_754042" data-name="Trazado 754042" d="M1396.856,1665.332l-139.7-14.561a4.165,4.165,0,0,1,.864-8.286l139.7,14.561a4.177,4.177,0,0,1,3.711,4.575h0a4.177,4.177,0,0,1-4.574,3.711" transform="translate(-1083.996 -1420.453)" fill="#dfeffe"/>
            <path id="Trazado_754043" data-name="Trazado 754043" d="M1380.593,1821.356l-139.7-14.561a4.165,4.165,0,1,1,.864-8.286l139.7,14.561a4.165,4.165,0,1,1-.863,8.285" transform="translate(-1069.932 -1555.388)" fill="#dfeffe"/>
            <path id="Trazado_754044" data-name="Trazado 754044" d="M1764.855,2047.318a.8.8,0,0,0-1.307-.629,13.266,13.266,0,0,1-2.379,1.638l-1.247.5q-1.24.653-1.385-1.035a.786.786,0,0,0-1.047-1.171c-.964.786-2.241,1.852-3.6,1.683a4.388,4.388,0,0,1-1.257-.426,5.28,5.28,0,0,0,.78-.733.8.8,0,0,0,.044-.792,9.86,9.86,0,0,0-.863-1.63,29.887,29.887,0,0,0,7.32-11.508.792.792,0,0,0-1.268-.836,24.557,24.557,0,0,0-7.136,7.941,5.778,5.778,0,0,0-.889,3.621,3.6,3.6,0,0,0,.1.386,25.117,25.117,0,0,1-2.424,2.017,13.055,13.055,0,0,1-3.713,1.927c-.966.3-2.418.772-3.083-.17,2.193-1.23,3.964-2.97,3.021-5.141-1.419-3.265-4.811,1.66-4.987,4.41a17.978,17.978,0,0,1-3.336,1.135c-.979.239-.653,1.776.332,1.535a22.324,22.324,0,0,0,3.37-1.15c1.86,3.278,7.743-.076,9.726-1.567.591-.444,1.176-.932,1.752-1.447.451.806.48.67-.643,1.43a.8.8,0,0,0,.107,1.443c1.224.51,2.481,1.289,3.841,1.133a4.359,4.359,0,0,0,1.222-.355.771.771,0,0,0,.316.533c2.155,1.412,4.886.243,6.963-1.154a10.472,10.472,0,0,1-3.587,6.395c-2.966,2.439-6.774,1.844-10.252,1.163-.979-.192-1.49,1.295-.5,1.489,3.794.744,7.852,1.376,11.2-1.022a11.727,11.727,0,0,0,4.8-9.611m-22.751-2.856c1.216-.941.386.844-.039,1.28a5.441,5.441,0,0,1-.912.722,4.3,4.3,0,0,1,.951-2m10.227-2.209a11.552,11.552,0,0,1,2.107-3.572,22.952,22.952,0,0,1,2.8-3.089,30.085,30.085,0,0,1-5,7.223,4.909,4.909,0,0,1,.1-.562" transform="translate(-1501.01 -1757.515)" fill="#dfeffe"/>
            <path id="Trazado_754045" data-name="Trazado 754045" d="M2084.214,2079.337a15.044,15.044,0,1,1,17.217-12.5,15.061,15.061,0,0,1-17.217,12.5m4.206-26.5a11.791,11.791,0,1,0,9.8,13.494,11.8,11.8,0,0,0-9.8-13.494" transform="translate(-1791.521 -1772.414)" fill="#dfeffe"/>
            <path id="Trazado_754046" data-name="Trazado 754046" d="M2156.954,2082.33l-.1.017a25.4,25.4,0,0,0-3.57.858l-1.7.552-1.627.646a46.9,46.9,0,0,0-6.171,3.05,50.591,50.591,0,0,0-5.692,3.71c-1.025.747-2.013,1.544-2.982,2.368-.551-.507-1.12-1-1.713-1.477-.791-.693-1.686-1.31-2.558-1.944a26.021,26.021,0,0,0-2.864-1.721l-.095-.047a.217.217,0,0,0-.276.317c2.314,3.387,4.7,6.722,7.089,10.056a.4.4,0,0,0,.56.089c3.691-2.616,7.363-5.259,10.987-7.966l5.46-4.03c1.83-1.33,3.609-2.729,5.416-4.09a.217.217,0,0,0-.165-.388" transform="translate(-1839.989 -1800.862)" fill="#b1de19"/>
            <path id="Trazado_754047" data-name="Trazado 754047" d="M1776.839,64.665a14.619,14.619,0,1,1-14.618-14.618,14.618,14.618,0,0,1,14.618,14.618" transform="translate(-1511.381 -43.282)" fill="#3a7ec1"/>
            <path id="Trazado_754048" data-name="Trazado 754048" d="M2082.054,2768.417a8.432,8.432,0,1,1-8.431-8.431,8.431,8.431,0,0,1,8.431,8.431" transform="translate(-1786.042 -2386.922)" fill="#3a7ec1"/>
          </g>
        </g>
      </g>
    </g>
  </g>
</svg>
