<svg xmlns="http://www.w3.org/2000/svg" width="292.194" height="105.766" viewBox="0 0 292.194 105.766">
  <g id="Grupo_1020782" data-name="Grupo 1020782" transform="translate(-811.871 -2610.649)">
    <path id="Trazado_749814" data-name="Trazado 749814" d="M698.03,3.11A51.174,51.174,0,0,1,733.672,17.5H815.65c8.94,0,14.3,7.314,11.9,16.254l-3.324,12.406H932.153a3.886,3.886,0,0,1,3.839,5.244L930.96,69.144c-3.991,14.068-18.076,25.066-32.544,25.066H730.557A51.357,51.357,0,1,1,698.03,3.11" transform="translate(167.875 2610.591)" fill="#e6e6e6" fill-rule="evenodd"/>
    <path id="Trazado_749815" data-name="Trazado 749815" d="M715.043,43.695H930.517c2.884,0,4.612,2.36,3.839,5.244l-5.033,18.782c-3.54,13.214-17.248,24.026-30.463,24.026H702.167Z" transform="translate(166.834 2609.83)" fill="#d76f38" fill-rule="evenodd"/>
    <path id="Trazado_749816" data-name="Trazado 749816" d="M715.043,43.695h35.245a54.624,54.624,0,0,1-16.345,48.052H702.167Z" transform="translate(166.834 2609.83)" fill="#d62e00" fill-rule="evenodd"/>
    <path id="Trazado_749817" data-name="Trazado 749817" d="M698.992,14.277H813.249c8.941,0,14.3,7.314,11.9,16.255l-4.356,16.255H690.281Z" transform="translate(167.057 2610.382)" fill="#2c5b91" fill-rule="evenodd"/>
    <path id="Trazado_749818" data-name="Trazado 749818" d="M698.992,14.277H735.93a54.352,54.352,0,0,1,14.577,32.511H690.28Z" transform="translate(167.057 2610.382)" fill="#1b3e66" fill-rule="evenodd"/>
    <path id="Trazado_749819" data-name="Trazado 749819" d="M695.3,0a51.357,51.357,0,1,1-51.358,51.357A51.357,51.357,0,0,1,695.3,0" transform="translate(167.926 2610.649)" fill="#2c5b91" fill-rule="evenodd"/>
    <path id="Trazado_749820" data-name="Trazado 749820" d="M695.451,7.937a43.569,43.569,0,1,1-43.569,43.569A43.569,43.569,0,0,1,695.451,7.937" transform="translate(167.777 2610.5)" fill="#2c5b91" fill-rule="evenodd"/>
    <path id="Trazado_749821" data-name="Trazado 749821" d="M823.995,27.437h25.925a1.575,1.575,0,1,1,0,3.151H823.995a1.575,1.575,0,1,1,0-3.151" transform="translate(164.579 2610.135)" fill="#d76f38" fill-rule="evenodd"/>
    <path id="Trazado_749822" data-name="Trazado 749822" d="M816.489,34.934h16.735a1.575,1.575,0,0,1,0,3.151H816.489a1.575,1.575,0,1,1,0-3.151" transform="translate(164.72 2609.994)" fill="#d76f38" fill-rule="evenodd"/>
    <path id="Trazado_755346" data-name="Trazado 755346" d="M7.072-14.427l2.44.017a3.746,3.746,0,0,0,2.457-.869,3.531,3.531,0,0,0,1.146-2.343,2.4,2.4,0,0,0-.448-1.854,2.137,2.137,0,0,0-1.743-.745,2.919,2.919,0,0,0-1.909.6,2.792,2.792,0,0,0-1.062,1.672l-5.479.033a6.076,6.076,0,0,1,1.262-3.475,7.527,7.527,0,0,1,3.1-2.336,10.308,10.308,0,0,1,4.159-.806,8.729,8.729,0,0,1,5.744,1.917,5.692,5.692,0,0,1,1.909,4.889q-.216,3.42-4.466,5.412a5.443,5.443,0,0,1,2.407,2.208A5.8,5.8,0,0,1,17.3-6.923a6.689,6.689,0,0,1-1.411,3.876,8.274,8.274,0,0,1-3.47,2.54A11.594,11.594,0,0,1,7.753.332,8.686,8.686,0,0,1,3.81-.588,6.527,6.527,0,0,1,1.1-3.083a6.887,6.887,0,0,1-.93-3.648H5.611a2.887,2.887,0,0,0,.7,1.948,2.518,2.518,0,0,0,1.909.8,3.652,3.652,0,0,0,2.44-.816,3.366,3.366,0,0,0,1.262-2.23,3.052,3.052,0,0,0-.44-2.322,2.631,2.631,0,0,0-2.133-.891L6.425-10.26Z" transform="translate(938.259 2652.143)" fill="#1b3e66"/>
    <path id="Trazado_755347" data-name="Trazado 755347" d="M7.072-14.427l2.44.017a3.746,3.746,0,0,0,2.457-.869,3.531,3.531,0,0,0,1.146-2.343,2.4,2.4,0,0,0-.448-1.854,2.137,2.137,0,0,0-1.743-.745,2.919,2.919,0,0,0-1.909.6,2.792,2.792,0,0,0-1.062,1.672l-5.479.033a6.076,6.076,0,0,1,1.262-3.475,7.527,7.527,0,0,1,3.1-2.336,10.308,10.308,0,0,1,4.159-.806,8.729,8.729,0,0,1,5.744,1.917,5.692,5.692,0,0,1,1.909,4.889q-.216,3.42-4.466,5.412a5.443,5.443,0,0,1,2.407,2.208A5.8,5.8,0,0,1,17.3-6.923a6.689,6.689,0,0,1-1.411,3.876,8.274,8.274,0,0,1-3.47,2.54A11.594,11.594,0,0,1,7.753.332,8.686,8.686,0,0,1,3.81-.588,6.527,6.527,0,0,1,1.1-3.083a6.887,6.887,0,0,1-.93-3.648H5.611a2.887,2.887,0,0,0,.7,1.948,2.518,2.518,0,0,0,1.909.8,3.652,3.652,0,0,0,2.44-.816,3.366,3.366,0,0,0,1.262-2.23,3.052,3.052,0,0,0-.44-2.322,2.631,2.631,0,0,0-2.133-.891L6.425-10.26Z" transform="translate(935.538 2650.588)" fill="#fff"/>
    <path id="Trazado_755348" data-name="Trazado 755348" d="M15.363-16.352,13.544-5.683a6.709,6.709,0,0,1-2.285,4.369A6.965,6.965,0,0,1,6.491.236a6.5,6.5,0,0,1-3.1-.769A4.506,4.506,0,0,1,1.454-2.611a5.59,5.59,0,0,1-.421-3.06l1.819-10.68H6.716L4.908-5.651a5.143,5.143,0,0,0-.022,1.068,1.929,1.929,0,0,0,.522,1.292,1.91,1.91,0,0,0,1.32.495Q9.2-2.718,9.7-5.663l1.819-10.689Zm11.421,10.3A8.805,8.805,0,0,1,25.044-1.4,4.356,4.356,0,0,1,21.383.236a3.222,3.222,0,0,1-2.763-1.5L18.16,0H14.813l3-17.25h3.695l-1.2,6.1a3.667,3.667,0,0,1,2.729-1.224A3.423,3.423,0,0,1,25.819-11.1a5.559,5.559,0,0,1,1.056,3.408,12.361,12.361,0,0,1-.056,1.4Zm-3.672-.219a11.631,11.631,0,0,0,.1-1.3q0-1.805-1.292-1.884A2.213,2.213,0,0,0,20-8.481l-.876,4.843a1.486,1.486,0,0,0,1.527.953q1.808.056,2.28-2.355l.157-1ZM33.5.225a5.649,5.649,0,0,1-2.9-.769,4.847,4.847,0,0,1-1.926-2.111,5.673,5.673,0,0,1-.517-2.982l.034-.314A7.448,7.448,0,0,1,30.272-10.7a5.763,5.763,0,0,1,4.363-1.679,4.7,4.7,0,0,1,2.673.793,4.431,4.431,0,0,1,1.628,2.126,6.511,6.511,0,0,1,.337,3.042L39.06-4.874H31.827a2.369,2.369,0,0,0,.539,1.55,1.98,1.98,0,0,0,1.5.629,3.824,3.824,0,0,0,2.886-1.235l1.55,2.05A4.572,4.572,0,0,1,36.392-.352,6.725,6.725,0,0,1,33.7.225Zm.9-9.681a1.9,1.9,0,0,0-1.365.492,4.126,4.126,0,0,0-1.005,1.721h3.695l.067-.324a2.465,2.465,0,0,0,.022-.737A1.3,1.3,0,0,0,34.4-9.456Zm14.094.73a10.571,10.571,0,0,0-1.146-.112A2.853,2.853,0,0,0,44.81-7.693L43.439,0H39.745l2.111-12.151,3.448-.011-.281,1.595a3.373,3.373,0,0,1,2.808-1.842,5.3,5.3,0,0,1,1.146.157Zm16.7,1.786H59.185L58.5-3.032h7.109L65.081,0H54.131l2.83-16.352H67.933l-.528,3.043h-7.12L59.679-9.86H65.7ZM73.414,0a3.3,3.3,0,0,1-.157-1.1A3.748,3.748,0,0,1,70.28.225,3.662,3.662,0,0,1,67.652-.831a3.173,3.173,0,0,1-.977-2.5,3.564,3.564,0,0,1,1.651-3.038,7.783,7.783,0,0,1,4.357-1.061l1.235.022.135-.685.045-.6a.965.965,0,0,0-1.022-1.056,1.42,1.42,0,0,0-1.494,1.336L67.877-8.4a3.52,3.52,0,0,1,.8-2.128,4.726,4.726,0,0,1,2.016-1.393,7.044,7.044,0,0,1,2.712-.455,5.431,5.431,0,0,1,2.42.578,3.6,3.6,0,0,1,1.555,1.516,3.873,3.873,0,0,1,.393,2.24l-.91,5.716-.056.7a3.069,3.069,0,0,0,.213,1.415L77.007,0ZM71.3-2.448a2.383,2.383,0,0,0,1.988-1L73.661-5.4l-.955-.011a2.516,2.516,0,0,0-1.527.522,1.981,1.981,0,0,0-.752,1.365,1,1,0,0,0,.174.758A.889.889,0,0,0,71.3-2.448ZM85.441-15.172l-.528,3.021h1.943L86.4-9.523H84.453L83.51-3.942a1.488,1.488,0,0,0,.073.865q.152.292.758.314a8.782,8.782,0,0,0,.966-.056l-.27,2.74A5.971,5.971,0,0,1,83.049.2,3.275,3.275,0,0,1,80.478-.809a3.452,3.452,0,0,1-.7-2.684l.988-6.031h-1.5l.449-2.628h1.5l.528-3.021ZM93.134-3.481q.146-.741-1.146-1.112l-.8-.2a6.14,6.14,0,0,1-2.864-1.449,2.868,2.868,0,0,1-.854-2.212A3.524,3.524,0,0,1,89.03-11.3a5.92,5.92,0,0,1,3.656-1.073,5.484,5.484,0,0,1,3.476,1.089,3.553,3.553,0,0,1,1.353,2.875l-3.684-.011q.045-1.437-1.269-1.437a1.81,1.81,0,0,0-1.044.331,1.287,1.287,0,0,0-.573.882q-.191.91,1.606,1.247a9.333,9.333,0,0,1,2.415.859,3.605,3.605,0,0,1,1.3,1.207A3,3,0,0,1,96.683-3.6a3.247,3.247,0,0,1-.719,1.965A4.654,4.654,0,0,1,93.982-.258a7.1,7.1,0,0,1-2.813.483,5.71,5.71,0,0,1-2.443-.55,4.355,4.355,0,0,1-1.763-1.466,3.806,3.806,0,0,1-.657-2.128l3.437.022A1.419,1.419,0,0,0,91.36-2.3a2.123,2.123,0,0,0,1.168-.309A1.336,1.336,0,0,0,93.134-3.481Z" transform="translate(961.015 2685.696)" fill="#d62e00"/>
    <path id="Trazado_755349" data-name="Trazado 755349" d="M15.363-16.352,13.544-5.683a6.709,6.709,0,0,1-2.285,4.369A6.965,6.965,0,0,1,6.491.236a6.5,6.5,0,0,1-3.1-.769A4.506,4.506,0,0,1,1.454-2.611a5.59,5.59,0,0,1-.421-3.06l1.819-10.68H6.716L4.908-5.651a5.143,5.143,0,0,0-.022,1.068,1.929,1.929,0,0,0,.522,1.292,1.91,1.91,0,0,0,1.32.495Q9.2-2.718,9.7-5.663l1.819-10.689Zm11.421,10.3A8.805,8.805,0,0,1,25.044-1.4,4.356,4.356,0,0,1,21.383.236a3.222,3.222,0,0,1-2.763-1.5L18.16,0H14.813l3-17.25h3.695l-1.2,6.1a3.667,3.667,0,0,1,2.729-1.224A3.423,3.423,0,0,1,25.819-11.1a5.559,5.559,0,0,1,1.056,3.408,12.361,12.361,0,0,1-.056,1.4Zm-3.672-.219a11.631,11.631,0,0,0,.1-1.3q0-1.805-1.292-1.884A2.213,2.213,0,0,0,20-8.481l-.876,4.843a1.486,1.486,0,0,0,1.527.953q1.808.056,2.28-2.355l.157-1ZM33.5.225a5.649,5.649,0,0,1-2.9-.769,4.847,4.847,0,0,1-1.926-2.111,5.673,5.673,0,0,1-.517-2.982l.034-.314A7.448,7.448,0,0,1,30.272-10.7a5.763,5.763,0,0,1,4.363-1.679,4.7,4.7,0,0,1,2.673.793,4.431,4.431,0,0,1,1.628,2.126,6.511,6.511,0,0,1,.337,3.042L39.06-4.874H31.827a2.369,2.369,0,0,0,.539,1.55,1.98,1.98,0,0,0,1.5.629,3.824,3.824,0,0,0,2.886-1.235l1.55,2.05A4.572,4.572,0,0,1,36.392-.352,6.725,6.725,0,0,1,33.7.225Zm.9-9.681a1.9,1.9,0,0,0-1.365.492,4.126,4.126,0,0,0-1.005,1.721h3.695l.067-.324a2.465,2.465,0,0,0,.022-.737A1.3,1.3,0,0,0,34.4-9.456Zm14.094.73a10.571,10.571,0,0,0-1.146-.112A2.853,2.853,0,0,0,44.81-7.693L43.439,0H39.745l2.111-12.151,3.448-.011-.281,1.595a3.373,3.373,0,0,1,2.808-1.842,5.3,5.3,0,0,1,1.146.157Zm16.7,1.786H59.185L58.5-3.032h7.109L65.081,0H54.131l2.83-16.352H67.933l-.528,3.043h-7.12L59.679-9.86H65.7ZM73.414,0a3.3,3.3,0,0,1-.157-1.1A3.748,3.748,0,0,1,70.28.225,3.662,3.662,0,0,1,67.652-.831a3.173,3.173,0,0,1-.977-2.5,3.564,3.564,0,0,1,1.651-3.038,7.783,7.783,0,0,1,4.357-1.061l1.235.022.135-.685.045-.6a.965.965,0,0,0-1.022-1.056,1.42,1.42,0,0,0-1.494,1.336L67.877-8.4a3.52,3.52,0,0,1,.8-2.128,4.726,4.726,0,0,1,2.016-1.393,7.044,7.044,0,0,1,2.712-.455,5.431,5.431,0,0,1,2.42.578,3.6,3.6,0,0,1,1.555,1.516,3.873,3.873,0,0,1,.393,2.24l-.91,5.716-.056.7a3.069,3.069,0,0,0,.213,1.415L77.007,0ZM71.3-2.448a2.383,2.383,0,0,0,1.988-1L73.661-5.4l-.955-.011a2.516,2.516,0,0,0-1.527.522,1.981,1.981,0,0,0-.752,1.365,1,1,0,0,0,.174.758A.889.889,0,0,0,71.3-2.448ZM85.441-15.172l-.528,3.021h1.943L86.4-9.523H84.453L83.51-3.942a1.488,1.488,0,0,0,.073.865q.152.292.758.314a8.782,8.782,0,0,0,.966-.056l-.27,2.74A5.971,5.971,0,0,1,83.049.2,3.275,3.275,0,0,1,80.478-.809a3.452,3.452,0,0,1-.7-2.684l.988-6.031h-1.5l.449-2.628h1.5l.528-3.021ZM93.134-3.481q.146-.741-1.146-1.112l-.8-.2a6.14,6.14,0,0,1-2.864-1.449,2.868,2.868,0,0,1-.854-2.212A3.524,3.524,0,0,1,89.03-11.3a5.92,5.92,0,0,1,3.656-1.073,5.484,5.484,0,0,1,3.476,1.089,3.553,3.553,0,0,1,1.353,2.875l-3.684-.011q.045-1.437-1.269-1.437a1.81,1.81,0,0,0-1.044.331,1.287,1.287,0,0,0-.573.882q-.191.91,1.606,1.247a9.333,9.333,0,0,1,2.415.859,3.605,3.605,0,0,1,1.3,1.207A3,3,0,0,1,96.683-3.6a3.247,3.247,0,0,1-.719,1.965A4.654,4.654,0,0,1,93.982-.258a7.1,7.1,0,0,1-2.813.483,5.71,5.71,0,0,1-2.443-.55,4.355,4.355,0,0,1-1.763-1.466,3.806,3.806,0,0,1-.657-2.128l3.437.022A1.419,1.419,0,0,0,91.36-2.3a2.123,2.123,0,0,0,1.168-.309A1.336,1.336,0,0,0,93.134-3.481Z" transform="translate(958.378 2684.425)" fill="#fff"/>
    <path id="Trazado_749823" data-name="Trazado 749823" d="M698.139,27.833c15.581,0,28.214,13.021,28.214,29.083q0,1.011-.067,2.006l-13.972-5.856,5.81-5.7L682.756,32.535a27.47,27.47,0,0,1,15.383-4.7m23.428,45.288A27.968,27.968,0,0,1,698.139,86c-14.537,0-26.506-11.334-28.044-25.9l17.739,3.63-7.093,6.964ZM674.906,34.47,656.63,52.412l41,8.388-5.809,5.7,46.713,2.776L703.812,54.728l5.81-5.7Z" transform="translate(167.688 2610.127)" fill="#1b3e66" fill-rule="evenodd"/>
    <path id="Trazado_749824" data-name="Trazado 749824" d="M695.3,25c15.581,0,28.213,13.021,28.213,29.083q0,1.011-.067,2.006L709.48,50.231l5.81-5.7L679.921,29.7A27.476,27.476,0,0,1,695.3,25m23.428,45.288A27.968,27.968,0,0,1,695.3,83.165c-14.537,0-26.505-11.334-28.045-25.9L685,60.9l-7.092,6.964Zm-46.662-38.65L653.8,49.577l41,8.388-5.81,5.7L735.7,66.445,700.977,51.893l5.811-5.7Z" transform="translate(167.741 2610.181)" fill="#fff" fill-rule="evenodd"/>
  </g>
</svg>
