<svg xmlns="http://www.w3.org/2000/svg" width="292.193" height="105.766" viewBox="0 0 292.193 105.766">
  <g id="Grupo_1020783" data-name="Grupo 1020783" transform="translate(-1127.807 -2610.649)">
    <path id="Trazado_749825" data-name="Trazado 749825" d="M1020,3.11A51.174,51.174,0,0,1,1055.645,17.5h81.979c8.94,0,14.3,7.314,11.9,16.254L1146.2,46.158h107.928a3.887,3.887,0,0,1,3.839,5.244l-5.032,17.742c-3.991,14.068-18.076,25.066-32.544,25.066H1052.53A51.357,51.357,0,1,1,1020,3.11" transform="translate(161.837 2610.591)" fill="#e6e6e6" fill-rule="evenodd"/>
    <path id="Trazado_749826" data-name="Trazado 749826" d="M1037.016,43.695H1252.49c2.884,0,4.612,2.36,3.839,5.244L1251.3,67.721c-3.54,13.214-17.248,24.026-30.463,24.026H1024.141Z" transform="translate(160.797 2609.83)" fill="#d76f38" fill-rule="evenodd"/>
    <path id="Trazado_749827" data-name="Trazado 749827" d="M1037.016,43.695h35.246a54.949,54.949,0,0,1,.657,8.482,54.393,54.393,0,0,1-17,39.57h-31.776Z" transform="translate(160.797 2609.83)" fill="#d62e00" fill-rule="evenodd"/>
    <path id="Trazado_749828" data-name="Trazado 749828" d="M1020.964,14.277h114.259c8.94,0,14.295,7.314,11.9,16.255l-4.355,16.255H1012.253Z" transform="translate(161.02 2610.382)" fill="#2c5b91" fill-rule="evenodd"/>
    <path id="Trazado_749829" data-name="Trazado 749829" d="M1020.964,14.277H1057.9a54.35,54.35,0,0,1,14.577,32.511h-60.227Z" transform="translate(161.02 2610.382)" fill="#1b3e66" fill-rule="evenodd"/>
    <path id="Trazado_749830" data-name="Trazado 749830" d="M1017.276,0a51.357,51.357,0,1,1-51.357,51.357A51.357,51.357,0,0,1,1017.276,0" transform="translate(161.888 2610.649)" fill="#2c5b91" fill-rule="evenodd"/>
    <path id="Trazado_749831" data-name="Trazado 749831" d="M1017.424,7.937a43.569,43.569,0,1,1-43.569,43.569,43.569,43.569,0,0,1,43.569-43.569" transform="translate(161.74 2610.5)" fill="#2c5b91" fill-rule="evenodd"/>
    <path id="Trazado_749832" data-name="Trazado 749832" d="M1145.967,27.437h25.925a1.575,1.575,0,1,1,0,3.151h-25.925a1.575,1.575,0,1,1,0-3.151" transform="translate(158.542 2610.135)" fill="#d76f38" fill-rule="evenodd"/>
    <path id="Trazado_749833" data-name="Trazado 749833" d="M1138.461,34.934H1155.2a1.575,1.575,0,0,1,0,3.151h-16.735a1.575,1.575,0,0,1,0-3.151" transform="translate(158.683 2609.994)" fill="#d76f38" fill-rule="evenodd"/>
    <path id="Trazado_755350" data-name="Trazado 755350" d="M15.705-9.446h2.374L17.332-5.13H14.958L14.062,0H8.6l.9-5.13H.448l.3-3.686,11.87-15.307v-.116l5.645.083ZM6.126-9.479l4.117.033,1.461-7.5Z" transform="translate(1254.194 2652.143)" fill="#1b3e66"/>
    <path id="Trazado_755351" data-name="Trazado 755351" d="M15.705-9.446h2.374L17.332-5.13H14.958L14.062,0H8.6l.9-5.13H.448l.3-3.686,11.87-15.307v-.116l5.645.083ZM6.126-9.479l4.117.033,1.461-7.5Z" transform="translate(1251.475 2650.588)" fill="#fff"/>
    <path id="Trazado_755352" data-name="Trazado 755352" d="M.022,0l2.83-16.352,4.807.011a6.263,6.263,0,0,1,3.706,1.117,6.009,6.009,0,0,1,2.246,3.049,8.351,8.351,0,0,1,.348,3.661l-.079.685a9.661,9.661,0,0,1-1.46,3.987,8.363,8.363,0,0,1-2.976,2.8A8.111,8.111,0,0,1,5.514,0ZM6.177-13.319,4.391-3.043l1.123.011A3.829,3.829,0,0,0,8.687-4.56a8.555,8.555,0,0,0,1.421-4.672L10.13-9.6a4.462,4.462,0,0,0-.562-2.729,2.28,2.28,0,0,0-1.92-.977ZM18.283,0H14.577l2.111-12.151h3.706ZM17.014-15.217a1.713,1.713,0,0,1,.578-1.37,2.076,2.076,0,0,1,1.454-.55,2.144,2.144,0,0,1,1.443.494,1.684,1.684,0,0,1,.6,1.292,1.717,1.717,0,0,1-.573,1.376,2.083,2.083,0,0,1-1.46.545,2.171,2.171,0,0,1-1.432-.489A1.664,1.664,0,0,1,17.014-15.217ZM21.237-6.1a8.838,8.838,0,0,1,1.752-4.6,4.342,4.342,0,0,1,3.661-1.673,3.312,3.312,0,0,1,2.572,1.3L30.4-17.25h3.706L31.12,0H27.829l.157-1.314A3.792,3.792,0,0,1,24.965.236a3.347,3.347,0,0,1-2.746-1.3,5.72,5.72,0,0,1-1.061-3.42A10.518,10.518,0,0,1,21.2-5.862Zm3.684.258a8.82,8.82,0,0,0-.079,1.258q0,1.864,1.258,1.9a2.356,2.356,0,0,0,1.943-1.044l.831-4.661a1.5,1.5,0,0,0-1.482-1.067,1.889,1.889,0,0,0-1.668.893A5.759,5.759,0,0,0,24.92-5.84ZM37.184,0H33.478l2.111-12.151H39.3ZM35.915-15.217a1.713,1.713,0,0,1,.578-1.37,2.076,2.076,0,0,1,1.454-.55,2.144,2.144,0,0,1,1.443.494,1.684,1.684,0,0,1,.6,1.292,1.717,1.717,0,0,1-.573,1.376,2.083,2.083,0,0,1-1.46.545,2.171,2.171,0,0,1-1.432-.489A1.664,1.664,0,0,1,35.915-15.217Zm20.6,8.7H50.346L49.212,0H45.371L48.2-16.352H58.836l-.528,3.043H51.525l-.651,3.762H57.04Zm7.643-5.862a5.1,5.1,0,0,1,2.819.814A4.587,4.587,0,0,1,68.72-9.355a6.81,6.81,0,0,1,.4,3.145l-.022.247a7.2,7.2,0,0,1-2.078,4.515A5.846,5.846,0,0,1,62.661.225a5.082,5.082,0,0,1-2.8-.8,4.616,4.616,0,0,1-1.746-2.184,6.618,6.618,0,0,1-.41-3.122,7.491,7.491,0,0,1,2.05-4.762A5.81,5.81,0,0,1,64.155-12.376ZM61.4-5.88l-.034.662q-.157,2.5,1.527,2.545,2.179.067,2.527-3.532l.045-1.02a2.754,2.754,0,0,0-.376-1.609,1.371,1.371,0,0,0-1.174-.622,1.932,1.932,0,0,0-1.679.835A5.466,5.466,0,0,0,61.4-5.88Zm15.4-6.5a5.1,5.1,0,0,1,2.819.814,4.587,4.587,0,0,1,1.746,2.207,6.81,6.81,0,0,1,.4,3.145l-.022.247a7.2,7.2,0,0,1-2.078,4.515A5.846,5.846,0,0,1,75.307.225a5.082,5.082,0,0,1-2.8-.8,4.616,4.616,0,0,1-1.746-2.184,6.618,6.618,0,0,1-.41-3.122,7.491,7.491,0,0,1,2.05-4.762A5.81,5.81,0,0,1,76.8-12.376Zm-2.751,6.5-.034.662q-.157,2.5,1.527,2.545,2.179.067,2.527-3.532l.045-1.02a2.754,2.754,0,0,0-.376-1.609,1.371,1.371,0,0,0-1.174-.622,1.932,1.932,0,0,0-1.679.835A5.466,5.466,0,0,0,74.049-5.88ZM82.966-6.1a8.838,8.838,0,0,1,1.752-4.6,4.342,4.342,0,0,1,3.661-1.673,3.312,3.312,0,0,1,2.572,1.3L92.13-17.25h3.706L92.849,0H89.558l.157-1.314A3.792,3.792,0,0,1,86.694.236a3.347,3.347,0,0,1-2.746-1.3,5.72,5.72,0,0,1-1.061-3.42,10.517,10.517,0,0,1,.045-1.381Zm3.684.258a8.82,8.82,0,0,0-.079,1.258q0,1.864,1.258,1.9a2.356,2.356,0,0,0,1.943-1.044L90.6-8.389A1.5,1.5,0,0,0,89.12-9.456a1.889,1.889,0,0,0-1.668.893A5.759,5.759,0,0,0,86.649-5.84Z" transform="translate(1276.951 2685.696)" fill="#d62e00"/>
    <path id="Trazado_755353" data-name="Trazado 755353" d="M.022,0l2.83-16.352,4.807.011a6.263,6.263,0,0,1,3.706,1.117,6.009,6.009,0,0,1,2.246,3.049,8.351,8.351,0,0,1,.348,3.661l-.079.685a9.661,9.661,0,0,1-1.46,3.987,8.363,8.363,0,0,1-2.976,2.8A8.111,8.111,0,0,1,5.514,0ZM6.177-13.319,4.391-3.043l1.123.011A3.829,3.829,0,0,0,8.687-4.56a8.555,8.555,0,0,0,1.421-4.672L10.13-9.6a4.462,4.462,0,0,0-.562-2.729,2.28,2.28,0,0,0-1.92-.977ZM18.283,0H14.577l2.111-12.151h3.706ZM17.014-15.217a1.713,1.713,0,0,1,.578-1.37,2.076,2.076,0,0,1,1.454-.55,2.144,2.144,0,0,1,1.443.494,1.684,1.684,0,0,1,.6,1.292,1.717,1.717,0,0,1-.573,1.376,2.083,2.083,0,0,1-1.46.545,2.171,2.171,0,0,1-1.432-.489A1.664,1.664,0,0,1,17.014-15.217ZM21.237-6.1a8.838,8.838,0,0,1,1.752-4.6,4.342,4.342,0,0,1,3.661-1.673,3.312,3.312,0,0,1,2.572,1.3L30.4-17.25h3.706L31.12,0H27.829l.157-1.314A3.792,3.792,0,0,1,24.965.236a3.347,3.347,0,0,1-2.746-1.3,5.72,5.72,0,0,1-1.061-3.42A10.518,10.518,0,0,1,21.2-5.862Zm3.684.258a8.82,8.82,0,0,0-.079,1.258q0,1.864,1.258,1.9a2.356,2.356,0,0,0,1.943-1.044l.831-4.661a1.5,1.5,0,0,0-1.482-1.067,1.889,1.889,0,0,0-1.668.893A5.759,5.759,0,0,0,24.92-5.84ZM37.184,0H33.478l2.111-12.151H39.3ZM35.915-15.217a1.713,1.713,0,0,1,.578-1.37,2.076,2.076,0,0,1,1.454-.55,2.144,2.144,0,0,1,1.443.494,1.684,1.684,0,0,1,.6,1.292,1.717,1.717,0,0,1-.573,1.376,2.083,2.083,0,0,1-1.46.545,2.171,2.171,0,0,1-1.432-.489A1.664,1.664,0,0,1,35.915-15.217Zm20.6,8.7H50.346L49.212,0H45.371L48.2-16.352H58.836l-.528,3.043H51.525l-.651,3.762H57.04Zm7.643-5.862a5.1,5.1,0,0,1,2.819.814A4.587,4.587,0,0,1,68.72-9.355a6.81,6.81,0,0,1,.4,3.145l-.022.247a7.2,7.2,0,0,1-2.078,4.515A5.846,5.846,0,0,1,62.661.225a5.082,5.082,0,0,1-2.8-.8,4.616,4.616,0,0,1-1.746-2.184,6.618,6.618,0,0,1-.41-3.122,7.491,7.491,0,0,1,2.05-4.762A5.81,5.81,0,0,1,64.155-12.376ZM61.4-5.88l-.034.662q-.157,2.5,1.527,2.545,2.179.067,2.527-3.532l.045-1.02a2.754,2.754,0,0,0-.376-1.609,1.371,1.371,0,0,0-1.174-.622,1.932,1.932,0,0,0-1.679.835A5.466,5.466,0,0,0,61.4-5.88Zm15.4-6.5a5.1,5.1,0,0,1,2.819.814,4.587,4.587,0,0,1,1.746,2.207,6.81,6.81,0,0,1,.4,3.145l-.022.247a7.2,7.2,0,0,1-2.078,4.515A5.846,5.846,0,0,1,75.307.225a5.082,5.082,0,0,1-2.8-.8,4.616,4.616,0,0,1-1.746-2.184,6.618,6.618,0,0,1-.41-3.122,7.491,7.491,0,0,1,2.05-4.762A5.81,5.81,0,0,1,76.8-12.376Zm-2.751,6.5-.034.662q-.157,2.5,1.527,2.545,2.179.067,2.527-3.532l.045-1.02a2.754,2.754,0,0,0-.376-1.609,1.371,1.371,0,0,0-1.174-.622,1.932,1.932,0,0,0-1.679.835A5.466,5.466,0,0,0,74.049-5.88ZM82.966-6.1a8.838,8.838,0,0,1,1.752-4.6,4.342,4.342,0,0,1,3.661-1.673,3.312,3.312,0,0,1,2.572,1.3L92.13-17.25h3.706L92.849,0H89.558l.157-1.314A3.792,3.792,0,0,1,86.694.236a3.347,3.347,0,0,1-2.746-1.3,5.72,5.72,0,0,1-1.061-3.42,10.517,10.517,0,0,1,.045-1.381Zm3.684.258a8.82,8.82,0,0,0-.079,1.258q0,1.864,1.258,1.9a2.356,2.356,0,0,0,1.943-1.044L90.6-8.389A1.5,1.5,0,0,0,89.12-9.456a1.889,1.889,0,0,0-1.668.893A5.759,5.759,0,0,0,86.649-5.84Z" transform="translate(1274.313 2684.425)" fill="#fff"/>
    <path id="Trazado_749834" data-name="Trazado 749834" d="M1020.112,27.833c15.581,0,28.213,13.021,28.213,29.083q0,1.011-.067,2.006l-13.971-5.856,5.81-5.7-35.369-14.826a27.476,27.476,0,0,1,15.384-4.7m23.428,45.288A27.968,27.968,0,0,1,1020.112,86c-14.537,0-26.506-11.334-28.045-25.9l17.739,3.63-7.092,6.964ZM996.878,34.47,978.6,52.412l41,8.388-5.81,5.7L1060.5,69.28l-34.718-14.552,5.81-5.7Z" transform="translate(161.651 2610.127)" fill="#1b3e66" fill-rule="evenodd"/>
    <path id="Trazado_749835" data-name="Trazado 749835" d="M1017.278,25c15.58,0,28.213,13.021,28.213,29.083q0,1.011-.067,2.006l-13.972-5.856,5.811-5.7L1001.894,29.7a27.476,27.476,0,0,1,15.384-4.7m23.428,45.288a27.968,27.968,0,0,1-23.428,12.879c-14.537,0-26.505-11.334-28.045-25.9l17.739,3.63-7.092,6.964Zm-46.662-38.65L975.769,49.577l41,8.388-5.81,5.7,46.713,2.776L1022.95,51.893l5.811-5.7Z" transform="translate(161.704 2610.181)" fill="#fff" fill-rule="evenodd"/>
  </g>
</svg>
