<svg xmlns="http://www.w3.org/2000/svg" width="250" height="250" viewBox="0 0 250 250">
  <g id="Grupo_1020780" data-name="Grupo 1020780" transform="translate(-3015 9050)">
    <g id="Trazado_755338" data-name="Trazado 755338" transform="translate(3015 -9050)" fill="#fff">
      <path d="M 249.5 249.5 L 0.5 249.5 L 0.5 0.5 L 249.5 0.5 L 249.5 249.5 Z" stroke="none"/>
      <path d="M 1 1 L 1 249 L 249 249 L 249 1 L 1 1 M 0 0 L 250 0 L 250 250 L 0 250 L 0 0 Z" stroke="none" fill="#707070"/>
    </g>
    <path id="Rappi-O557pvqXw_brandlogos.net" d="M466.468,403.649a8.989,8.989,0,1,1-6.43,2.633,8.977,8.977,0,0,1,6.43-2.633Zm-177.139,2.19a45.1,45.1,0,0,1,9.788,1.087,31.313,31.313,0,0,1,8.68,3.256,23.474,23.474,0,0,1,6.146,5.785,14.848,14.848,0,0,1,2.53,7.98,17.18,17.18,0,0,1-2.169,8.68,30.262,30.262,0,0,1-5.785,7.615,41.842,41.842,0,0,1-8.341,5.425,39.749,39.749,0,0,1-8.341,3.256l-.361.361c0,1.447.361,2.895.361,4.338a4677.08,4677.08,0,0,0,1.443,8.7,24.9,24.9,0,0,1,1.087,2.895,2.633,2.633,0,0,0,.747,1.447,12.846,12.846,0,0,0,1.447,3.256,15.191,15.191,0,0,0,1.447,2.556c.722,1.087,1.447,1.808,1.808,2.53.722.722,1.447,1.087,2.169,1.808.722.361,1.447,1.087,2.169,1.447l2.169,1.087c.722.361,1.469.361,2.19.722.722,0,1.447.361,2.53.361h2.169a22.828,22.828,0,0,0,2.53-.722,8.537,8.537,0,0,0,2.895-.722c.722-.361,1.83-.722,2.556-1.087.361-.361.722-.361,1.087-.722a3.436,3.436,0,0,1,3.616.722,2.884,2.884,0,0,1-.722,3.616,4.991,4.991,0,0,1-1.447,1.087c-1.087.722-2.169,1.808-3.256,2.53s-2.19,1.447-3.277,2.19c-.722.361-1.087.361-1.808.722a12.836,12.836,0,0,1-3.256,1.447l-3.238,1.065a22.767,22.767,0,0,0-3.277.722h-3.256c-1.087,0-2.169-.361-3.256-.361-.361,0-1.087-.361-1.447-.361s-1.087-.361-1.447-.361a9.151,9.151,0,0,1-2.556-1.447,5.827,5.827,0,0,1-2.53-1.447,9.738,9.738,0,0,1-2.169-1.83,3.7,3.7,0,0,1-1.808-2.169,15.737,15.737,0,0,1-2.169-2.53,21.471,21.471,0,0,1-1.447-2.895,7.586,7.586,0,0,1-1.469-2.895,10.832,10.832,0,0,1-1.447-3.616c-.361-1.087-.722-2.19-1.087-3.638a12.85,12.85,0,0,0-.722-3.616c0-1.447-.361-2.53-.361-3.616,0-.361-.722-.361-.722,0l-1.087,4.338c-.722,2.169-1.087,3.616-1.447,5.064a31.369,31.369,0,0,0-.722,3.638,3.453,3.453,0,0,1-2.895,2.895,7.263,7.263,0,0,1-4.725-.361,9.352,9.352,0,0,1-3.977-2.53,5.845,5.845,0,0,1-2.169-4.724,24.623,24.623,0,0,1,1.447-7.233,101.761,101.761,0,0,1,3.256-11.957c1.447-4.338,3.256-9.4,5.085-14.487,1.808-4.7,3.616-9.02,5.785-13.379a4.948,4.948,0,0,1,3.616-2.916,26.425,26.425,0,0,1,9.423.361,2.517,2.517,0,0,1,1.808,3.638c-1.447,3.977-3.256,7.594-4.7,11.571-1.087,2.895-2.169,5.807-3.256,8.7,0,.361.361.722.361.361l4.338-2.169a24.911,24.911,0,0,0,5.785-5.085,23.319,23.319,0,0,0,4.364-6.146,17.786,17.786,0,0,0,1.447-7.594c0-3.277-.722-5.807-2.53-7.254a14.023,14.023,0,0,0-7.98-2.53,21.951,21.951,0,0,0-9.788,2.53,32.51,32.51,0,0,0-7.594,6.172,26.623,26.623,0,0,0-5.085,7.954,19.369,19.369,0,0,0-1.808,6.872,2.757,2.757,0,0,1-2.169,2.916,4.388,4.388,0,0,1-3.616-.361,8.344,8.344,0,0,1-3.638-2.556,9.2,9.2,0,0,1-1.808-5.785c0-1.808,1.087-4.338,2.53-7.233a34.349,34.349,0,0,1,6.872-7.98,36.257,36.257,0,0,1,11.232-6.511C278.449,406.566,283.534,405.84,289.328,405.84Zm141.993,19.19a8.218,8.218,0,0,1,5.807,2.169c1.447,1.087,2.53,3.256,3.256,5.425a21.014,21.014,0,0,1,.361,8.341,34.741,34.741,0,0,1-2.895,10.849,37.41,37.41,0,0,1-4.7,10.149c-.747,1.087-1.83,2.53-2.556,3.616a.352.352,0,0,0,.361.361,4.992,4.992,0,0,1,1.447-1.087,19.1,19.1,0,0,0,3.277-2.53,17.657,17.657,0,0,0,6.146-9.062L444,446.75a62.145,62.145,0,0,1,4-9.788,27.013,27.013,0,0,1,3.256-6.511,5.359,5.359,0,0,1,3.977-2.895,10.385,10.385,0,0,1,4.725,0,7.5,7.5,0,0,1,3.616,2.169c1.087,1.087,1.087,2.169.722,3.616a15.094,15.094,0,0,0-1.447,3.256c-.722,1.469-1.447,3.277-2.53,5.446-.722,2.169-1.808,4.7-2.916,7.233-.722,2.169-1.447,4.725-2.169,6.533a27.487,27.487,0,0,0-.361,5.064c0,1.087.722,1.087.722,1.087a2.809,2.809,0,0,0,2.169-1.087c.747-.722,1.83-1.447,2.916-2.53.722-1.087,1.808-2.169,2.895-3.616.722-1.108,1.447-2.19,1.808-2.916a3.127,3.127,0,0,1,2.169-1.087,2.8,2.8,0,0,1,2.53,1.087,3.14,3.14,0,0,1,0,2.555,45.475,45.475,0,0,0-3.256,4.7c-1.808,2.53-3.616,4.7-5.785,7.233a38.986,38.986,0,0,1-6.872,6.533,14.334,14.334,0,0,1-7.954,2.895,6.582,6.582,0,0,1-5.446-2.53,13.745,13.745,0,0,1-1.469-5.833v-.722s-.361-.361-.361,0c-.722.361-1.087.722-1.808,1.087a41.662,41.662,0,0,1-10.51,5.807,30.1,30.1,0,0,1-11.6,2.169h-1.443c-2.895,0-5.064-1.087-6.172-2.895-.361-.361-.722-.361-.722-.722-.361-.361-.722-.361-.722,0-.361,1.447-.722,2.895-1.087,3.977q-1.087,4.359-2.165,7.619a45.226,45.226,0,0,0-1.447,5.807,19.192,19.192,0,0,1-1.087,3.977c-.361,2.169-1.447,2.895-2.53,2.895a2.18,2.18,0,0,1-1.447.361,11.374,11.374,0,0,1-2.916-.722,8.282,8.282,0,0,1-3.616-2.53,6.872,6.872,0,0,1-1.808-4.7,20.568,20.568,0,0,1,.722-4.364,78.741,78.741,0,0,0,2.169-7.954c.722-2.53,1.447-4.7,2.169-7.254.361-.361,0-.722-.361-.361a55.291,55.291,0,0,1-9.4,4.725,28.347,28.347,0,0,1-11.232,2.169H370.1a7.226,7.226,0,0,1-6.146-2.895l-.73-.747c0-.361-.361-.361-.722,0-.361,1.447-.722,2.895-1.087,3.977q-1.087,4.338-2.169,7.594c-.361,2.169-1.087,4-1.447,5.807a33.933,33.933,0,0,0-.747,3.977c-.361,2.169-1.808,2.895-2.895,2.895-.361.361-.722.361-1.447.361a6.7,6.7,0,0,1-2.53-.722,9.352,9.352,0,0,1-3.977-2.53,6.872,6.872,0,0,1-1.83-4.7c0-.361.361-1.087,1.108-4.364a44.479,44.479,0,0,1,2.169-7.954,62.493,62.493,0,0,1,1.808-6.533,1.263,1.263,0,0,0-.722-.361,30.579,30.579,0,0,1-3.616,3.277,13.428,13.428,0,0,1-7.615,2.895,6.606,6.606,0,0,1-5.446-2.53l-1.069-2.152c0-1.108-1.087-1.108-1.808-.722a4.848,4.848,0,0,1-2.53,2.169,8.62,8.62,0,0,1-3.977,2.169,10.1,10.1,0,0,1-4.724,1.087,8.861,8.861,0,0,1-5.785-2.169,14.208,14.208,0,0,1-3.616-5.446,31.284,31.284,0,0,1-.752-8.685,78.047,78.047,0,0,1,2.169-10.51c2.895-8.319,6.146-14.126,10.51-18.1s8.68-5.785,12.679-5.785a9.033,9.033,0,0,1,4.7,1.087,11.008,11.008,0,0,1,2.895,2.895,23.1,23.1,0,0,1,.722,2.53h.361c0-.361.361-.722.722-1.087.722-1.808,2.169-2.53,4-2.895a10.308,10.308,0,0,1,4.7,0,7.5,7.5,0,0,1,3.616,2.169,3.255,3.255,0,0,1,.361,3.616,15.131,15.131,0,0,1-1.087,3.256,40.557,40.557,0,0,0-2.53,5.446c-1.087,2.53-1.808,4.7-2.895,7.233-.722,2.169-1.447,4.725-2.169,6.533-.361,2.169-.722,3.616-.361,5.064,0,1.087.361,1.087.722,1.087a1.967,1.967,0,0,0,1.808-1.087,6.348,6.348,0,0,0,1.808-1.447,19.178,19.178,0,0,0,4.7-7.254c1.087-3.616,2.556-7.594,4-11.21a92.91,92.91,0,0,1,4.338-10.149,4.714,4.714,0,0,1,3.616-3.256,9,9,0,0,1,4.364-.361,11.313,11.313,0,0,1,3.616,1.808l1.087,1.087c0,.361.361.361.361,0a16.056,16.056,0,0,1,3.977-2.895,13.5,13.5,0,0,1,7.615-2.169,8.861,8.861,0,0,1,5.785,2.169,8.751,8.751,0,0,1,2.916,5.425,21.014,21.014,0,0,1,.361,8.341c0,3.256-1.087,6.872-2.556,10.849a95.418,95.418,0,0,1-4.7,10.149c-1.087,1.087-1.808,2.53-2.895,3.616l.361.361c.361-.361,1.087-.722,1.447-1.087a6.465,6.465,0,0,0,2.53-1.808,16.78,16.78,0,0,0,6.172-8.68l.722-1.469,4.368-11.932a92.9,92.9,0,0,1,4.338-10.149,4.885,4.885,0,0,1,3.277-3.256,8.922,8.922,0,0,1,4.338-.361,13.371,13.371,0,0,1,3.977,1.808l1.087,1.087c0,.361,0,.361.361,0a16.614,16.614,0,0,1,4-2.895,13.04,13.04,0,0,1,7.228-2.169ZM336.4,439.156c-.361,1.808-.722,3.616-1.087,5.785l-2.169,6.511a59.6,59.6,0,0,1-2.916,6.533,26.472,26.472,0,0,1-3.256,4.7,6.883,6.883,0,0,1-2.53,2.895,4.478,4.478,0,0,0-1.087.722h0c-.361-.361-.722-.361-.722-1.808a7.147,7.147,0,0,1,0-3.977,19.882,19.882,0,0,1,1.087-5.785,27.263,27.263,0,0,1,2.169-6.533,51.232,51.232,0,0,1,2.895-6.511,21.034,21.034,0,0,1,2.895-4.725,25.442,25.442,0,0,1,2.556-2.895,2.8,2.8,0,0,1,1.087-.361h.391a3.96,3.96,0,0,1,.722,1.447Zm47.1.361c-.361,1.808-1.108,3.616-1.469,5.785-.722,2.169-1.808,4.338-2.53,6.872-1.087,2.19-2.169,4.364-3.256,6.172-1.447,2.169-2.53,3.616-3.616,5.064a19.361,19.361,0,0,1-2.556,2.895,2.731,2.731,0,0,1-1.447.361h0a3.959,3.959,0,0,1-.7-1.447,16.218,16.218,0,0,1,.361-3.977,44.957,44.957,0,0,1,1.447-5.785c.747-2.19,1.469-4.364,2.556-6.893,1.087-2.169,2.169-4.338,3.256-6.146a32.066,32.066,0,0,1,3.256-5.085l2.895-2.895a2.826,2.826,0,0,1,1.108-.361h0c.361,0,.722.361.722,1.447.356,1.078,0,2.547,0,3.994Zm43.1,0a44.972,44.972,0,0,1-1.447,5.785c-.722,2.169-1.447,4.338-2.53,6.872-1.087,2.19-2.169,4.364-3.277,6.172a30.761,30.761,0,0,1-3.256,5.064,21.9,21.9,0,0,1-2.895,2.895,2.8,2.8,0,0,1-1.087.361h0c-.361,0-.722-.361-.722-1.447a16.22,16.22,0,0,1,.361-3.977c0-1.808.722-3.616,1.447-5.785.361-2.19,1.447-4.364,2.169-6.893,1.087-2.169,2.169-4.338,3.256-6.146,1.447-2.169,2.556-3.616,3.638-5.085a21.9,21.9,0,0,1,2.895-2.895,1.327,1.327,0,0,1,1.087-.361h0a3.956,3.956,0,0,1,.722,1.447,16.39,16.39,0,0,1-.339,3.994Z" transform="translate(2775.562 -9375.65)" fill="#ff441f" fill-rule="evenodd"/>
  </g>
</svg>
