<svg xmlns="http://www.w3.org/2000/svg" xmlns:xlink="http://www.w3.org/1999/xlink" width="971.452" height="54.374" viewBox="0 0 971.452 54.374">
  <defs>
    <filter id="Trazado_484803" x="0" y="0" width="971.452" height="54.374" filterUnits="userSpaceOnUse">
      <feOffset dy="3" input="SourceAlpha"/>
      <feGaussianBlur stdDeviation="3" result="blur"/>
      <feFlood flood-opacity="0.161"/>
      <feComposite operator="in" in2="blur"/>
      <feComposite in="SourceGraphic"/>
    </filter>
    <filter id="Trazado_199066" x="0" y="0" width="40" height="54.374" filterUnits="userSpaceOnUse">
      <feOffset dy="3" input="SourceAlpha"/>
      <feGaussianBlur stdDeviation="3" result="blur-2"/>
      <feFlood flood-opacity="0.161"/>
      <feComposite operator="in" in2="blur-2"/>
      <feComposite in="SourceGraphic"/>
    </filter>
    <filter id="Trazado_199067" x="931.452" y="0" width="40" height="54.374" filterUnits="userSpaceOnUse">
      <feOffset dy="3" input="SourceAlpha"/>
      <feGaussianBlur stdDeviation="3" result="blur-3"/>
      <feFlood flood-opacity="0.161"/>
      <feComposite operator="in" in2="blur-3"/>
      <feComposite in="SourceGraphic"/>
    </filter>
  </defs>
  <g id="Grupo_1020839" data-name="Grupo 1020839" transform="translate(-314.256 -5677)">
    <g id="Grupo_726876" data-name="Grupo 726876" transform="translate(323.256 5683)">
      <g transform="matrix(1, 0, 0, 1, -9, -6)" filter="url(#Trazado_484803)">
        <path id="Trazado_484803-2" data-name="Trazado 484803" d="M0,0H953.452V36.374H0Z" transform="translate(9 6)" fill="#3d672f"/>
      </g>
      <g transform="matrix(1, 0, 0, 1, -9, -6)" filter="url(#Trazado_199066)">
        <path id="Trazado_199066-2" data-name="Trazado 199066" d="M0,0H14l8,18.046L14,36.374H0Z" transform="translate(9 6)" fill="#5f914e"/>
      </g>
      <g transform="matrix(1, 0, 0, 1, -9, -6)" filter="url(#Trazado_199067)">
        <path id="Trazado_199067-2" data-name="Trazado 199067" d="M0,0H14l8,18.046L14,36.374H0Z" transform="translate(962.45 42.37) rotate(180)" fill="#5f914e"/>
      </g>
    </g>
    <path id="Trazado_755412" data-name="Trazado 755412" d="M4.5,16.363h5.967V19H1.074V4.781H4.5ZM17.715,19a3.716,3.716,0,0,1-.312-.947A3.06,3.06,0,0,1,14.863,19.2a3.749,3.749,0,0,1-2.539-.9,2.875,2.875,0,0,1-1.045-2.271,2.955,2.955,0,0,1,1.27-2.6,6.468,6.468,0,0,1,3.691-.879h1.016v-.559q0-1.462-1.26-1.462a1.03,1.03,0,0,0-1.172,1.158H11.533a2.95,2.95,0,0,1,1.3-2.487,5.479,5.479,0,0,1,3.325-.956,4.8,4.8,0,0,1,3.193.986,3.429,3.429,0,0,1,1.2,2.705v4.678a4.79,4.79,0,0,0,.449,2.227V19Zm-2.061-2.148a1.836,1.836,0,0,0,1.021-.264,1.653,1.653,0,0,0,.581-.6V14.3H16.3q-1.719,0-1.719,1.543a.942.942,0,0,0,.3.728A1.1,1.1,0,0,0,15.654,16.852Zm12.256-.82a.76.76,0,0,0-.439-.674,6.685,6.685,0,0,0-1.67-.527,7.615,7.615,0,0,1-2.031-.718,3.4,3.4,0,0,1-1.221-1.079,2.577,2.577,0,0,1-.42-1.455,2.92,2.92,0,0,1,1.2-2.4,4.948,4.948,0,0,1,3.145-.942,5.482,5.482,0,0,1,3.359.947,2.962,2.962,0,0,1,1.27,2.49H27.8q0-1.27-1.338-1.27a1.326,1.326,0,0,0-.869.288.892.892,0,0,0-.352.718.819.819,0,0,0,.43.713,4.06,4.06,0,0,0,1.372.449,11.857,11.857,0,0,1,1.655.42,3.007,3.007,0,0,1,2.383,2.939A2.767,2.767,0,0,1,29.8,18.287a5.631,5.631,0,0,1-3.325.908,5.747,5.747,0,0,1-2.422-.488,4.05,4.05,0,0,1-1.66-1.328,3.007,3.007,0,0,1-.6-1.768h3.076a1.272,1.272,0,0,0,.488,1.069,2.009,2.009,0,0,0,1.2.337,1.58,1.58,0,0,0,1.011-.273A.875.875,0,0,0,27.91,16.031Zm12.715-7.6.107,1.24A3.583,3.583,0,0,1,43.75,8.238a3.015,3.015,0,0,1,2.466.986,4.7,4.7,0,0,1,.845,2.969V19h-3.3V12.33a1.783,1.783,0,0,0-.322-1.177,1.491,1.491,0,0,0-1.172-.376,1.569,1.569,0,0,0-1.436.762V19H37.539V8.434Zm14.551,9.424A3.393,3.393,0,0,1,52.354,19.2a3.328,3.328,0,0,1-2.632-1.011,4.251,4.251,0,0,1-.894-2.905V8.434h3.291V15.3a1.183,1.183,0,0,0,1.318,1.357,1.72,1.72,0,0,0,1.611-.811V8.434h3.311V19H55.273Zm10.1,1.338a5.432,5.432,0,0,1-3.936-1.45,5.008,5.008,0,0,1-1.5-3.774V13.7a6.489,6.489,0,0,1,.6-2.861,4.395,4.395,0,0,1,1.753-1.919,5.292,5.292,0,0,1,2.734-.679A4.574,4.574,0,0,1,68.438,9.62a5.43,5.43,0,0,1,1.289,3.853v1.279H63.184a2.372,2.372,0,0,0,.771,1.4,2.3,2.3,0,0,0,1.543.508,2.958,2.958,0,0,0,2.441-1.094l1.5,1.777A4.2,4.2,0,0,1,67.7,18.692,5.891,5.891,0,0,1,65.273,19.2ZM64.9,10.777q-1.445,0-1.719,1.914H66.5v-.254a1.63,1.63,0,0,0-.4-1.226A1.593,1.593,0,0,0,64.9,10.777Zm10.234,4.307,1.67-6.65h3.467L76.826,19H73.467L70.02,8.434H73.5ZM86.24,19.2a5.432,5.432,0,0,1-3.936-1.45,5.008,5.008,0,0,1-1.5-3.774V13.7a6.489,6.489,0,0,1,.6-2.861,4.395,4.395,0,0,1,1.753-1.919,5.292,5.292,0,0,1,2.734-.679A4.574,4.574,0,0,1,89.4,9.62a5.43,5.43,0,0,1,1.289,3.853v1.279H84.15a2.372,2.372,0,0,0,.771,1.4,2.3,2.3,0,0,0,1.543.508,2.958,2.958,0,0,0,2.441-1.094l1.5,1.777a4.2,4.2,0,0,1-1.743,1.353A5.891,5.891,0,0,1,86.24,19.2Zm-.371-8.418q-1.445,0-1.719,1.914h3.32v-.254a1.63,1.63,0,0,0-.4-1.226A1.593,1.593,0,0,0,85.869,10.777Zm14.238-2.344.107,1.24a3.633,3.633,0,0,1,3.018-1.436,2.675,2.675,0,0,1,2.705,1.592,3.517,3.517,0,0,1,3.105-1.592q3.213,0,3.3,3.887V19h-3.3V12.33a2.014,2.014,0,0,0-.273-1.182,1.164,1.164,0,0,0-1-.371,1.559,1.559,0,0,0-1.455.869l.01.137V19h-3.3V12.35a2.117,2.117,0,0,0-.264-1.2,1.161,1.161,0,0,0-1.006-.371,1.578,1.578,0,0,0-1.445.869V19H97.021V8.434ZM119.336,19.2a5.432,5.432,0,0,1-3.936-1.45,5.008,5.008,0,0,1-1.5-3.774V13.7a6.489,6.489,0,0,1,.6-2.861,4.395,4.395,0,0,1,1.753-1.919,5.292,5.292,0,0,1,2.734-.679A4.574,4.574,0,0,1,122.5,9.62a5.43,5.43,0,0,1,1.289,3.853v1.279h-6.543a2.372,2.372,0,0,0,.771,1.4,2.3,2.3,0,0,0,1.543.508A2.958,2.958,0,0,0,122,15.563l1.5,1.777a4.2,4.2,0,0,1-1.743,1.353A5.891,5.891,0,0,1,119.336,19.2Zm-.371-8.418q-1.445,0-1.719,1.914h3.32v-.254a1.63,1.63,0,0,0-.4-1.226A1.593,1.593,0,0,0,118.965,10.777Zm9.688-2.344V19.361a3.836,3.836,0,0,1-1.074,2.891,4.127,4.127,0,0,1-2.969,1.016,7.009,7.009,0,0,1-1.553-.166v-2.49a6.3,6.3,0,0,0,.928.088,1.2,1.2,0,0,0,1.367-1.357V8.434ZM125.107,5.7a1.482,1.482,0,0,1,.508-1.159,2.149,2.149,0,0,1,2.637,0A1.482,1.482,0,0,1,128.76,5.7a1.482,1.482,0,0,1-.508,1.159,2.149,2.149,0,0,1-2.637,0A1.482,1.482,0,0,1,125.107,5.7Zm4.99,7.92a6.236,6.236,0,0,1,.615-2.817,4.4,4.4,0,0,1,1.768-1.9,5.323,5.323,0,0,1,2.705-.664,4.858,4.858,0,0,1,3.74,1.47,5.64,5.64,0,0,1,1.367,4v.117a5.472,5.472,0,0,1-1.372,3.921,4.871,4.871,0,0,1-3.716,1.45,4.927,4.927,0,0,1-3.623-1.353,5.29,5.29,0,0,1-1.475-3.667Zm3.291.205a3.932,3.932,0,0,0,.459,2.148,1.529,1.529,0,0,0,1.357.684q1.758,0,1.8-2.705v-.332q0-2.842-1.816-2.842-1.65,0-1.787,2.451Zm14.746-2.412-1.084-.078a1.947,1.947,0,0,0-1.992.977V19h-3.291V8.434h3.086l.107,1.357a2.548,2.548,0,0,1,2.314-1.553,3.209,3.209,0,0,1,.918.117Zm6.113,7.783a5.432,5.432,0,0,1-3.936-1.45,5.008,5.008,0,0,1-1.5-3.774V13.7a6.489,6.489,0,0,1,.6-2.861,4.395,4.395,0,0,1,1.753-1.919,5.292,5.292,0,0,1,2.734-.679,4.574,4.574,0,0,1,3.516,1.382,5.43,5.43,0,0,1,1.289,3.853v1.279h-6.543a2.372,2.372,0,0,0,.771,1.4,2.3,2.3,0,0,0,1.543.508,2.958,2.958,0,0,0,2.441-1.094l1.5,1.777a4.2,4.2,0,0,1-1.743,1.353A5.891,5.891,0,0,1,154.248,19.2Zm-.371-8.418q-1.445,0-1.719,1.914h3.32v-.254a1.63,1.63,0,0,0-.4-1.226A1.593,1.593,0,0,0,153.877,10.777Zm11.68,5.254a.76.76,0,0,0-.439-.674,6.685,6.685,0,0,0-1.67-.527,7.615,7.615,0,0,1-2.031-.718,3.4,3.4,0,0,1-1.221-1.079,2.577,2.577,0,0,1-.42-1.455,2.92,2.92,0,0,1,1.2-2.4,4.948,4.948,0,0,1,3.145-.942,5.482,5.482,0,0,1,3.359.947,2.962,2.962,0,0,1,1.27,2.49h-3.3q0-1.27-1.338-1.27a1.326,1.326,0,0,0-.869.288.892.892,0,0,0-.352.718.819.819,0,0,0,.43.713,4.06,4.06,0,0,0,1.372.449,11.857,11.857,0,0,1,1.655.42,3.007,3.007,0,0,1,2.383,2.939,2.767,2.767,0,0,1-1.284,2.354,5.632,5.632,0,0,1-3.325.908,5.747,5.747,0,0,1-2.422-.488,4.05,4.05,0,0,1-1.66-1.328,3.007,3.007,0,0,1-.6-1.768h3.076a1.272,1.272,0,0,0,.488,1.069,2.009,2.009,0,0,0,1.2.337,1.58,1.58,0,0,0,1.011-.273A.875.875,0,0,0,165.557,16.031Zm12.91-6.465a3.612,3.612,0,0,1,5.332-.293,4.651,4.651,0,0,1,.908,3.057V19h-3.3V12.408a1.86,1.86,0,0,0-.342-1.235,1.469,1.469,0,0,0-1.162-.4,1.582,1.582,0,0,0-1.436.645V19h-3.291V4h3.291ZM191.65,19.2a5.432,5.432,0,0,1-3.936-1.45,5.008,5.008,0,0,1-1.5-3.774V13.7a6.489,6.489,0,0,1,.6-2.861,4.395,4.395,0,0,1,1.753-1.919,5.292,5.292,0,0,1,2.734-.679,4.574,4.574,0,0,1,3.516,1.382,5.43,5.43,0,0,1,1.289,3.853v1.279h-6.543a2.372,2.372,0,0,0,.771,1.4,2.3,2.3,0,0,0,1.543.508,2.958,2.958,0,0,0,2.441-1.094l1.5,1.777a4.2,4.2,0,0,1-1.743,1.353A5.891,5.891,0,0,1,191.65,19.2Zm-.371-8.418q-1.445,0-1.719,1.914h3.32v-.254a1.63,1.63,0,0,0-.4-1.226A1.593,1.593,0,0,0,191.279,10.777Zm12.539.635-1.084-.078a1.947,1.947,0,0,0-1.992.977V19h-3.291V8.434h3.086l.107,1.357a2.548,2.548,0,0,1,2.314-1.553,3.209,3.209,0,0,1,.918.117Zm7.578,0-1.084-.078a1.947,1.947,0,0,0-1.992.977V19h-3.291V8.434h3.086l.107,1.357a2.548,2.548,0,0,1,2.314-1.553,3.209,3.209,0,0,1,.918.117ZM218.242,19a3.716,3.716,0,0,1-.312-.947,3.06,3.06,0,0,1-2.539,1.143,3.749,3.749,0,0,1-2.539-.9,2.875,2.875,0,0,1-1.045-2.271,2.955,2.955,0,0,1,1.27-2.6,6.468,6.468,0,0,1,3.691-.879h1.016v-.559q0-1.462-1.26-1.462a1.03,1.03,0,0,0-1.172,1.158h-3.291a2.95,2.95,0,0,1,1.3-2.487,5.479,5.479,0,0,1,3.325-.956,4.8,4.8,0,0,1,3.193.986,3.429,3.429,0,0,1,1.2,2.705v4.678a4.79,4.79,0,0,0,.449,2.227V19Zm-2.061-2.148a1.836,1.836,0,0,0,1.021-.264,1.653,1.653,0,0,0,.581-.6V14.3h-.957q-1.719,0-1.719,1.543a.942.942,0,0,0,.3.728A1.1,1.1,0,0,0,216.182,16.852Zm9.834-8.418.107,1.24a3.633,3.633,0,0,1,3.018-1.436,2.675,2.675,0,0,1,2.705,1.592,3.516,3.516,0,0,1,3.105-1.592q3.213,0,3.3,3.887V19h-3.3V12.33a2.014,2.014,0,0,0-.273-1.182,1.164,1.164,0,0,0-1-.371,1.559,1.559,0,0,0-1.455.869l.01.137V19h-3.3V12.35a2.117,2.117,0,0,0-.264-1.2,1.161,1.161,0,0,0-1.006-.371,1.578,1.578,0,0,0-1.445.869V19H222.93V8.434ZM243.6,19h-3.3V8.434h3.3Zm-3.5-13.3a1.482,1.482,0,0,1,.508-1.159,2.149,2.149,0,0,1,2.637,0A1.482,1.482,0,0,1,243.76,5.7a1.482,1.482,0,0,1-.508,1.159,2.149,2.149,0,0,1-2.637,0A1.482,1.482,0,0,1,240.107,5.7Zm10.635,13.5a5.432,5.432,0,0,1-3.936-1.45,5.008,5.008,0,0,1-1.5-3.774V13.7a6.489,6.489,0,0,1,.6-2.861,4.395,4.395,0,0,1,1.753-1.919,5.292,5.292,0,0,1,2.734-.679,4.574,4.574,0,0,1,3.516,1.382,5.43,5.43,0,0,1,1.289,3.853v1.279h-6.543a2.372,2.372,0,0,0,.771,1.4,2.3,2.3,0,0,0,1.543.508,2.958,2.958,0,0,0,2.441-1.094l1.5,1.777a4.2,4.2,0,0,1-1.743,1.353A5.891,5.891,0,0,1,250.742,19.2Zm-.371-8.418q-1.445,0-1.719,1.914h3.32v-.254a1.63,1.63,0,0,0-.4-1.226A1.593,1.593,0,0,0,250.371,10.777Zm9.17-2.344.107,1.24a3.583,3.583,0,0,1,3.018-1.436,3.015,3.015,0,0,1,2.466.986,4.7,4.7,0,0,1,.845,2.969V19h-3.3V12.33a1.783,1.783,0,0,0-.322-1.177,1.491,1.491,0,0,0-1.172-.376,1.569,1.569,0,0,0-1.436.762V19h-3.291V8.434Zm12.09-2.627V8.434h1.738v2.285h-1.738v4.834a1.234,1.234,0,0,0,.215.83,1.152,1.152,0,0,0,.85.234,4.828,4.828,0,0,0,.82-.059v2.354a6.074,6.074,0,0,1-1.855.283,3.448,3.448,0,0,1-2.51-.8,3.282,3.282,0,0,1-.811-2.432V10.719h-1.348V8.434h1.348V5.807ZM280.615,19a3.716,3.716,0,0,1-.312-.947,3.06,3.06,0,0,1-2.539,1.143,3.749,3.749,0,0,1-2.539-.9,2.875,2.875,0,0,1-1.045-2.271,2.955,2.955,0,0,1,1.27-2.6,6.468,6.468,0,0,1,3.691-.879h1.016v-.559q0-1.462-1.26-1.462a1.03,1.03,0,0,0-1.172,1.158h-3.291a2.95,2.95,0,0,1,1.3-2.487,5.479,5.479,0,0,1,3.325-.956,4.8,4.8,0,0,1,3.193.986,3.429,3.429,0,0,1,1.2,2.705v4.678a4.79,4.79,0,0,0,.449,2.227V19Zm-2.061-2.148a1.836,1.836,0,0,0,1.021-.264,1.653,1.653,0,0,0,.581-.6V14.3H279.2q-1.719,0-1.719,1.543a.942.942,0,0,0,.3.728A1.1,1.1,0,0,0,278.555,16.852Zm12.256-.82a.76.76,0,0,0-.439-.674,6.685,6.685,0,0,0-1.67-.527,7.615,7.615,0,0,1-2.031-.718,3.4,3.4,0,0,1-1.221-1.079,2.577,2.577,0,0,1-.42-1.455,2.92,2.92,0,0,1,1.2-2.4,4.948,4.948,0,0,1,3.145-.942,5.482,5.482,0,0,1,3.359.947,2.962,2.962,0,0,1,1.27,2.49h-3.3q0-1.27-1.338-1.27a1.326,1.326,0,0,0-.869.288.892.892,0,0,0-.352.718.819.819,0,0,0,.43.713,4.06,4.06,0,0,0,1.372.449,11.856,11.856,0,0,1,1.655.42,3.007,3.007,0,0,1,2.383,2.939,2.767,2.767,0,0,1-1.284,2.354,5.631,5.631,0,0,1-3.325.908,5.747,5.747,0,0,1-2.422-.488,4.05,4.05,0,0,1-1.66-1.328,3.007,3.007,0,0,1-.6-1.768h3.076a1.272,1.272,0,0,0,.488,1.069,2.009,2.009,0,0,0,1.2.337,1.58,1.58,0,0,0,1.011-.273A.875.875,0,0,0,290.811,16.031Zm19.5-2.236a6.372,6.372,0,0,1-1.108,3.931,3.554,3.554,0,0,1-2.993,1.47,3.046,3.046,0,0,1-2.393-1.064v4.932h-3.291V8.434H303.6l.1.977a3.046,3.046,0,0,1,2.49-1.172,3.582,3.582,0,0,1,3.037,1.44,6.45,6.45,0,0,1,1.084,3.96Zm-3.291-.205q0-2.812-1.641-2.812a1.549,1.549,0,0,0-1.562.84v4.16a1.6,1.6,0,0,0,1.582.879q1.572,0,1.621-2.715ZM317.715,19a3.716,3.716,0,0,1-.312-.947,3.06,3.06,0,0,1-2.539,1.143,3.749,3.749,0,0,1-2.539-.9,2.875,2.875,0,0,1-1.045-2.271,2.955,2.955,0,0,1,1.27-2.6,6.468,6.468,0,0,1,3.691-.879h1.016v-.559q0-1.462-1.26-1.462a1.03,1.03,0,0,0-1.172,1.158h-3.291a2.95,2.95,0,0,1,1.3-2.487,5.479,5.479,0,0,1,3.325-.956,4.8,4.8,0,0,1,3.193.986,3.429,3.429,0,0,1,1.2,2.705v4.678a4.79,4.79,0,0,0,.449,2.227V19Zm-2.061-2.148a1.836,1.836,0,0,0,1.021-.264,1.653,1.653,0,0,0,.581-.6V14.3H316.3q-1.719,0-1.719,1.543a.942.942,0,0,0,.3.728A1.1,1.1,0,0,0,315.654,16.852Zm13.115-5.439-1.084-.078a1.947,1.947,0,0,0-1.992.977V19H322.4V8.434h3.086l.107,1.357a2.548,2.548,0,0,1,2.314-1.553,3.209,3.209,0,0,1,.918.117ZM335.615,19a3.716,3.716,0,0,1-.312-.947,3.06,3.06,0,0,1-2.539,1.143,3.749,3.749,0,0,1-2.539-.9,2.875,2.875,0,0,1-1.045-2.271,2.955,2.955,0,0,1,1.27-2.6,6.468,6.468,0,0,1,3.691-.879h1.016v-.559q0-1.462-1.26-1.462a1.03,1.03,0,0,0-1.172,1.158h-3.291a2.95,2.95,0,0,1,1.3-2.487,5.479,5.479,0,0,1,3.325-.956,4.8,4.8,0,0,1,3.193.986,3.429,3.429,0,0,1,1.2,2.705v4.678a4.79,4.79,0,0,0,.449,2.227V19Zm-2.061-2.148a1.836,1.836,0,0,0,1.021-.264,1.653,1.653,0,0,0,.581-.6V14.3H334.2q-1.719,0-1.719,1.543a.942.942,0,0,0,.3.728A1.1,1.1,0,0,0,333.555,16.852Zm21.514-3.057a6.372,6.372,0,0,1-1.108,3.931,3.554,3.554,0,0,1-2.993,1.47,3.046,3.046,0,0,1-2.393-1.064v4.932h-3.291V8.434h3.076l.1.977a3.046,3.046,0,0,1,2.49-1.172,3.582,3.582,0,0,1,3.037,1.44,6.45,6.45,0,0,1,1.084,3.96Zm-3.291-.205q0-2.812-1.641-2.812a1.549,1.549,0,0,0-1.562.84v4.16a1.6,1.6,0,0,0,1.582.879q1.572,0,1.621-2.715ZM359.99,19h-3.3V4h3.3Zm7.979,0a3.716,3.716,0,0,1-.312-.947,3.06,3.06,0,0,1-2.539,1.143,3.749,3.749,0,0,1-2.539-.9,2.875,2.875,0,0,1-1.045-2.271,2.955,2.955,0,0,1,1.27-2.6,6.468,6.468,0,0,1,3.691-.879h1.016v-.559q0-1.462-1.26-1.462a1.03,1.03,0,0,0-1.172,1.158h-3.291a2.95,2.95,0,0,1,1.3-2.487,5.479,5.479,0,0,1,3.325-.956,4.8,4.8,0,0,1,3.193.986,3.429,3.429,0,0,1,1.2,2.705v4.678a4.79,4.79,0,0,0,.449,2.227V19Zm-2.061-2.148a1.836,1.836,0,0,0,1.021-.264,1.653,1.653,0,0,0,.581-.6V14.3h-.957q-1.719,0-1.719,1.543a.942.942,0,0,0,.3.728A1.1,1.1,0,0,0,365.908,16.852Zm9.746-8.418.107,1.24a3.583,3.583,0,0,1,3.018-1.436,3.015,3.015,0,0,1,2.466.986,4.7,4.7,0,0,1,.845,2.969V19h-3.3V12.33a1.783,1.783,0,0,0-.322-1.177,1.491,1.491,0,0,0-1.172-.376,1.569,1.569,0,0,0-1.436.762V19h-3.291V8.434ZM387.383,19h-3.3V8.434h3.3Zm-3.5-13.3a1.482,1.482,0,0,1,.508-1.159,2.149,2.149,0,0,1,2.637,0,1.482,1.482,0,0,1,.508,1.159,1.482,1.482,0,0,1-.508,1.159,2.149,2.149,0,0,1-2.637,0A1.482,1.482,0,0,1,383.887,5.7ZM390.176,19V10.719h-1.533V8.434h1.533V8.082a4.034,4.034,0,0,1,1.387-3.232,5.541,5.541,0,0,1,3.6-1.055,12.787,12.787,0,0,1,3.438.566l-.449,2.6-.547-.146a8.7,8.7,0,0,0-2.246-.283q-1.885,0-1.885,1.719v.186h2.07v2.285h-2.07V19Zm9.941,0h-3.311V8.434h3.311Zm6.475-2.344a1.464,1.464,0,0,0,1.074-.376,1.379,1.379,0,0,0,.371-1.05h3.086a3.653,3.653,0,0,1-1.245,2.852A4.631,4.631,0,0,1,406.67,19.2a4.689,4.689,0,0,1-3.633-1.445,5.7,5.7,0,0,1-1.328-4v-.137a6.436,6.436,0,0,1,.591-2.827A4.3,4.3,0,0,1,404,8.9a5.081,5.081,0,0,1,2.637-.659,4.573,4.573,0,0,1,3.271,1.143,4.053,4.053,0,0,1,1.211,3.1h-3.086a1.806,1.806,0,0,0-.4-1.26,1.382,1.382,0,0,0-1.074-.439q-1.279,0-1.494,1.631A11.51,11.51,0,0,0,405,13.834a4.52,4.52,0,0,0,.381,2.207A1.319,1.319,0,0,0,406.592,16.656ZM418.467,19a3.716,3.716,0,0,1-.312-.947,3.06,3.06,0,0,1-2.539,1.143,3.749,3.749,0,0,1-2.539-.9,2.875,2.875,0,0,1-1.045-2.271,2.955,2.955,0,0,1,1.27-2.6,6.468,6.468,0,0,1,3.691-.879h1.016v-.559q0-1.462-1.26-1.462a1.03,1.03,0,0,0-1.172,1.158h-3.291a2.95,2.95,0,0,1,1.3-2.487,5.479,5.479,0,0,1,3.325-.956,4.8,4.8,0,0,1,3.193.986,3.429,3.429,0,0,1,1.2,2.705v4.678a4.79,4.79,0,0,0,.449,2.227V19Zm-2.061-2.148a1.836,1.836,0,0,0,1.021-.264,1.653,1.653,0,0,0,.581-.6V14.3h-.957q-1.719,0-1.719,1.543a.942.942,0,0,0,.3.728A1.1,1.1,0,0,0,416.406,16.852Zm13.115-5.439-1.084-.078a1.947,1.947,0,0,0-1.992.977V19h-3.291V8.434h3.086l.107,1.357a2.548,2.548,0,0,1,2.314-1.553,3.209,3.209,0,0,1,.918.117Zm10.391,2.979,1.758-5.957H445.2l-4.307,12.334-.186.449a3.272,3.272,0,0,1-3.242,2.051,5.158,5.158,0,0,1-1.357-.195V20.729h.43a2.251,2.251,0,0,0,1.06-.2,1.216,1.216,0,0,0,.542-.718l.264-.7L434.727,8.434h3.516Zm20.928-.6a6.372,6.372,0,0,1-1.108,3.931,3.554,3.554,0,0,1-2.993,1.47,3.046,3.046,0,0,1-2.393-1.064v4.932h-3.291V8.434h3.076l.1.977a3.046,3.046,0,0,1,2.49-1.172,3.582,3.582,0,0,1,3.037,1.44,6.45,6.45,0,0,1,1.084,3.96Zm-3.291-.205q0-2.812-1.641-2.812a1.549,1.549,0,0,0-1.562.84v4.16a1.6,1.6,0,0,0,1.582.879q1.572,0,1.621-2.715Zm11.133-2.178-1.084-.078a1.947,1.947,0,0,0-1.992.977V19h-3.291V8.434H465.4l.107,1.357a2.548,2.548,0,0,1,2.314-1.553,3.209,3.209,0,0,1,.918.117Zm.42,2.207a6.236,6.236,0,0,1,.615-2.817,4.4,4.4,0,0,1,1.768-1.9,5.323,5.323,0,0,1,2.705-.664,4.859,4.859,0,0,1,3.74,1.47,5.64,5.64,0,0,1,1.367,4v.117a5.472,5.472,0,0,1-1.372,3.921,4.871,4.871,0,0,1-3.716,1.45,4.927,4.927,0,0,1-3.623-1.353,5.29,5.29,0,0,1-1.475-3.667Zm3.291.205a3.931,3.931,0,0,0,.459,2.148,1.529,1.529,0,0,0,1.357.684q1.758,0,1.8-2.705v-.332q0-2.842-1.816-2.842-1.65,0-1.787,2.451Zm7.969-.186a7.134,7.134,0,0,1,.527-2.832,4.245,4.245,0,0,1,1.514-1.9,3.99,3.99,0,0,1,2.295-.669,3.173,3.173,0,0,1,2.578,1.113l.117-.918h2.988V18.6a4.455,4.455,0,0,1-.649,2.427,4.167,4.167,0,0,1-1.88,1.582A6.91,6.91,0,0,1,485,23.16a5.961,5.961,0,0,1-2.251-.439,4.063,4.063,0,0,1-1.665-1.143l1.377-1.934a3.018,3.018,0,0,0,2.422,1.084,1.96,1.96,0,0,0,2.188-2.246V18.15a3.09,3.09,0,0,1-2.393,1.045,3.819,3.819,0,0,1-3.125-1.479,6.13,6.13,0,0,1-1.191-3.96Zm3.3.205a3.759,3.759,0,0,0,.488,2.056,1.541,1.541,0,0,0,1.367.757,1.748,1.748,0,0,0,1.553-.713V11.5a1.7,1.7,0,0,0-1.533-.723,1.551,1.551,0,0,0-1.377.786A4.287,4.287,0,0,0,483.662,13.844Zm14.98-2.432-1.084-.078a1.947,1.947,0,0,0-1.992.977V19h-3.291V8.434h3.086l.107,1.357a2.548,2.548,0,0,1,2.314-1.553,3.209,3.209,0,0,1,.918.117ZM505.488,19a3.716,3.716,0,0,1-.312-.947,3.06,3.06,0,0,1-2.539,1.143,3.749,3.749,0,0,1-2.539-.9,2.875,2.875,0,0,1-1.045-2.271,2.955,2.955,0,0,1,1.27-2.6,6.468,6.468,0,0,1,3.691-.879h1.016v-.559q0-1.462-1.26-1.462a1.03,1.03,0,0,0-1.172,1.158h-3.291a2.95,2.95,0,0,1,1.3-2.487,5.479,5.479,0,0,1,3.325-.956,4.8,4.8,0,0,1,3.193.986,3.429,3.429,0,0,1,1.2,2.705v4.678a4.79,4.79,0,0,0,.449,2.227V19Zm-2.061-2.148a1.836,1.836,0,0,0,1.021-.264,1.653,1.653,0,0,0,.581-.6V14.3h-.957q-1.719,0-1.719,1.543a.942.942,0,0,0,.3.728A1.1,1.1,0,0,0,503.428,16.852Zm9.834-8.418.107,1.24a3.633,3.633,0,0,1,3.018-1.436,2.675,2.675,0,0,1,2.705,1.592A3.516,3.516,0,0,1,522.2,8.238q3.213,0,3.3,3.887V19h-3.3V12.33a2.014,2.014,0,0,0-.273-1.182,1.164,1.164,0,0,0-1-.371,1.559,1.559,0,0,0-1.455.869l.01.137V19h-3.3V12.35a2.117,2.117,0,0,0-.264-1.2,1.161,1.161,0,0,0-1.006-.371,1.578,1.578,0,0,0-1.445.869V19h-3.291V8.434ZM533.33,19a3.715,3.715,0,0,1-.312-.947,3.06,3.06,0,0,1-2.539,1.143,3.749,3.749,0,0,1-2.539-.9,2.875,2.875,0,0,1-1.045-2.271,2.955,2.955,0,0,1,1.27-2.6,6.468,6.468,0,0,1,3.691-.879h1.016v-.559q0-1.462-1.26-1.462a1.03,1.03,0,0,0-1.172,1.158h-3.291a2.95,2.95,0,0,1,1.3-2.487,5.479,5.479,0,0,1,3.325-.956,4.8,4.8,0,0,1,3.193.986,3.429,3.429,0,0,1,1.2,2.705v4.678a4.79,4.79,0,0,0,.449,2.227V19Zm-2.061-2.148a1.836,1.836,0,0,0,1.021-.264,1.652,1.652,0,0,0,.581-.6V14.3h-.957q-1.719,0-1.719,1.543a.942.942,0,0,0,.3.728A1.1,1.1,0,0,0,531.27,16.852Zm13.115-5.439-1.084-.078a1.947,1.947,0,0,0-1.992.977V19h-3.291V8.434H541.1l.107,1.357a2.548,2.548,0,0,1,2.314-1.553,3.209,3.209,0,0,1,.918.117Zm10.635,5.244a1.464,1.464,0,0,0,1.074-.376,1.379,1.379,0,0,0,.371-1.05h3.086a3.653,3.653,0,0,1-1.245,2.852A4.631,4.631,0,0,1,555.1,19.2a4.689,4.689,0,0,1-3.633-1.445,5.7,5.7,0,0,1-1.328-4v-.137a6.436,6.436,0,0,1,.591-2.827,4.3,4.3,0,0,1,1.7-1.885,5.081,5.081,0,0,1,2.637-.659,4.573,4.573,0,0,1,3.271,1.143,4.052,4.052,0,0,1,1.211,3.1h-3.086a1.807,1.807,0,0,0-.4-1.26,1.382,1.382,0,0,0-1.074-.439q-1.279,0-1.494,1.631a11.5,11.5,0,0,0-.068,1.426,4.52,4.52,0,0,0,.381,2.207A1.319,1.319,0,0,0,555.02,16.656Zm5.508-3.037a6.236,6.236,0,0,1,.615-2.817,4.4,4.4,0,0,1,1.768-1.9,5.324,5.324,0,0,1,2.705-.664,4.858,4.858,0,0,1,3.74,1.47,5.64,5.64,0,0,1,1.367,4v.117a5.472,5.472,0,0,1-1.372,3.921,4.871,4.871,0,0,1-3.716,1.45,4.927,4.927,0,0,1-3.623-1.353,5.29,5.29,0,0,1-1.475-3.667Zm3.291.205a3.932,3.932,0,0,0,.459,2.148,1.529,1.529,0,0,0,1.357.684q1.758,0,1.8-2.705v-.332q0-2.842-1.816-2.842-1.65,0-1.787,2.451ZM575.2,8.434l.107,1.24a3.583,3.583,0,0,1,3.018-1.436,3.015,3.015,0,0,1,2.466.986,4.7,4.7,0,0,1,.845,2.969V19h-3.3V12.33a1.783,1.783,0,0,0-.322-1.177,1.491,1.491,0,0,0-1.172-.376,1.569,1.569,0,0,0-1.436.762V19h-3.291V8.434Zm12.09-2.627V8.434h1.738v2.285h-1.738v4.834a1.234,1.234,0,0,0,.215.83,1.152,1.152,0,0,0,.85.234,4.828,4.828,0,0,0,.82-.059v2.354a6.074,6.074,0,0,1-1.855.283,3.448,3.448,0,0,1-2.51-.8,3.282,3.282,0,0,1-.811-2.432V10.719h-1.348V8.434h1.348V5.807ZM595.43,19.2a5.432,5.432,0,0,1-3.936-1.45,5.008,5.008,0,0,1-1.5-3.774V13.7a6.489,6.489,0,0,1,.6-2.861,4.395,4.395,0,0,1,1.753-1.919,5.292,5.292,0,0,1,2.734-.679,4.574,4.574,0,0,1,3.516,1.382,5.43,5.43,0,0,1,1.289,3.853v1.279H593.34a2.372,2.372,0,0,0,.771,1.4,2.3,2.3,0,0,0,1.543.508,2.958,2.958,0,0,0,2.441-1.094l1.5,1.777a4.2,4.2,0,0,1-1.743,1.353A5.891,5.891,0,0,1,595.43,19.2Zm-.371-8.418q-1.445,0-1.719,1.914h3.32v-.254a1.63,1.63,0,0,0-.4-1.226A1.593,1.593,0,0,0,595.059,10.777Zm9.17-2.344.107,1.24a3.583,3.583,0,0,1,3.018-1.436,3.015,3.015,0,0,1,2.466.986,4.7,4.7,0,0,1,.845,2.969V19h-3.3V12.33a1.783,1.783,0,0,0-.322-1.177,1.491,1.491,0,0,0-1.172-.376,1.569,1.569,0,0,0-1.436.762V19h-3.291V8.434ZM615.957,19h-3.3V8.434h3.3Zm-3.5-13.3a1.482,1.482,0,0,1,.508-1.159,2.149,2.149,0,0,1,2.637,0,1.482,1.482,0,0,1,.508,1.159,1.482,1.482,0,0,1-.508,1.159,2.149,2.149,0,0,1-2.637,0A1.482,1.482,0,0,1,612.461,5.7Zm5.107,7.939a6.455,6.455,0,0,1,1.084-3.955,3.568,3.568,0,0,1,3.027-1.445,3.035,3.035,0,0,1,2.383,1.113V4h3.3V19H624.4l-.166-1.133A3.116,3.116,0,0,1,621.66,19.2a3.561,3.561,0,0,1-2.988-1.445A6.659,6.659,0,0,1,617.568,13.639Zm3.291.205q0,2.813,1.641,2.813a1.62,1.62,0,0,0,1.563-.918V11.715a1.576,1.576,0,0,0-1.543-.937q-1.523,0-1.65,2.461Zm7.959-.225a6.236,6.236,0,0,1,.615-2.817A4.4,4.4,0,0,1,631.2,8.9a5.324,5.324,0,0,1,2.705-.664,4.858,4.858,0,0,1,3.74,1.47,5.64,5.64,0,0,1,1.367,4v.117a5.472,5.472,0,0,1-1.372,3.921,4.871,4.871,0,0,1-3.716,1.45,4.927,4.927,0,0,1-3.623-1.353,5.29,5.29,0,0,1-1.475-3.667Zm3.291.205a3.932,3.932,0,0,0,.459,2.148,1.529,1.529,0,0,0,1.357.684q1.758,0,1.8-2.705v-.332q0-2.842-1.816-2.842-1.65,0-1.787,2.451ZM650.557,19.2a5.432,5.432,0,0,1-3.936-1.45,5.008,5.008,0,0,1-1.5-3.774V13.7a6.489,6.489,0,0,1,.6-2.861,4.395,4.395,0,0,1,1.753-1.919,5.292,5.292,0,0,1,2.734-.679,4.574,4.574,0,0,1,3.516,1.382,5.43,5.43,0,0,1,1.289,3.853v1.279h-6.543a2.372,2.372,0,0,0,.771,1.4,2.3,2.3,0,0,0,1.543.508,2.958,2.958,0,0,0,2.441-1.094l1.5,1.777a4.2,4.2,0,0,1-1.743,1.353A5.891,5.891,0,0,1,650.557,19.2Zm-.371-8.418q-1.445,0-1.719,1.914h3.32v-.254a1.63,1.63,0,0,0-.4-1.226A1.593,1.593,0,0,0,650.186,10.777Zm9.17-2.344.107,1.24a3.583,3.583,0,0,1,3.018-1.436,3.015,3.015,0,0,1,2.466.986,4.7,4.7,0,0,1,.845,2.969V19h-3.3V12.33a1.783,1.783,0,0,0-.322-1.177A1.491,1.491,0,0,0,661,10.777a1.569,1.569,0,0,0-1.436.762V19H656.27V8.434Zm19.629,2.979-1.084-.078a1.947,1.947,0,0,0-1.992.977V19h-3.291V8.434H675.7l.107,1.357a2.548,2.548,0,0,1,2.314-1.553,3.209,3.209,0,0,1,.918.117ZM685.1,19.2a5.432,5.432,0,0,1-3.936-1.45,5.008,5.008,0,0,1-1.5-3.774V13.7a6.489,6.489,0,0,1,.6-2.861,4.395,4.395,0,0,1,1.753-1.919,5.292,5.292,0,0,1,2.734-.679,4.574,4.574,0,0,1,3.516,1.382,5.43,5.43,0,0,1,1.289,3.853v1.279h-6.543a2.372,2.372,0,0,0,.771,1.4,2.3,2.3,0,0,0,1.543.508,2.958,2.958,0,0,0,2.441-1.094l1.5,1.777a4.2,4.2,0,0,1-1.743,1.353A5.891,5.891,0,0,1,685.1,19.2Zm-.371-8.418q-1.445,0-1.719,1.914h3.32v-.254a1.63,1.63,0,0,0-.4-1.226A1.593,1.593,0,0,0,684.727,10.777Zm5.732,2.861a6.455,6.455,0,0,1,1.084-3.955,3.568,3.568,0,0,1,3.027-1.445,3.035,3.035,0,0,1,2.383,1.113V4h3.3V19h-2.959l-.166-1.133a3.116,3.116,0,0,1-2.578,1.328,3.561,3.561,0,0,1-2.988-1.445A6.659,6.659,0,0,1,690.459,13.639Zm3.291.205q0,2.813,1.641,2.813a1.62,1.62,0,0,0,1.563-.918V11.715a1.576,1.576,0,0,0-1.543-.937q-1.523,0-1.65,2.461ZM707.236,19.2a5.432,5.432,0,0,1-3.936-1.45,5.008,5.008,0,0,1-1.5-3.774V13.7a6.489,6.489,0,0,1,.6-2.861,4.395,4.395,0,0,1,1.753-1.919,5.292,5.292,0,0,1,2.734-.679A4.574,4.574,0,0,1,710.4,9.62a5.43,5.43,0,0,1,1.289,3.853v1.279h-6.543a2.372,2.372,0,0,0,.771,1.4,2.3,2.3,0,0,0,1.543.508,2.958,2.958,0,0,0,2.441-1.094l1.5,1.777a4.2,4.2,0,0,1-1.743,1.353A5.891,5.891,0,0,1,707.236,19.2Zm-.371-8.418q-1.445,0-1.719,1.914h3.32v-.254a1.63,1.63,0,0,0-.4-1.226A1.593,1.593,0,0,0,706.865,10.777Zm11.68,5.254a.76.76,0,0,0-.439-.674,6.685,6.685,0,0,0-1.67-.527,7.615,7.615,0,0,1-2.031-.718,3.4,3.4,0,0,1-1.221-1.079,2.577,2.577,0,0,1-.42-1.455,2.92,2.92,0,0,1,1.2-2.4,4.948,4.948,0,0,1,3.145-.942,5.482,5.482,0,0,1,3.359.947,2.962,2.962,0,0,1,1.27,2.49h-3.3q0-1.27-1.338-1.27a1.326,1.326,0,0,0-.869.288.892.892,0,0,0-.352.718.819.819,0,0,0,.43.713,4.06,4.06,0,0,0,1.372.449,11.858,11.858,0,0,1,1.655.42,3.007,3.007,0,0,1,2.383,2.939,2.767,2.767,0,0,1-1.284,2.354,5.632,5.632,0,0,1-3.325.908,5.747,5.747,0,0,1-2.422-.488,4.05,4.05,0,0,1-1.66-1.328,3.007,3.007,0,0,1-.6-1.768h3.076A1.272,1.272,0,0,0,716,16.681a2.009,2.009,0,0,0,1.2.337,1.58,1.58,0,0,0,1.011-.273A.875.875,0,0,0,718.545,16.031Zm15.225,0a.76.76,0,0,0-.439-.674,6.685,6.685,0,0,0-1.67-.527,7.615,7.615,0,0,1-2.031-.718,3.4,3.4,0,0,1-1.221-1.079,2.577,2.577,0,0,1-.42-1.455,2.92,2.92,0,0,1,1.2-2.4,4.948,4.948,0,0,1,3.145-.942,5.482,5.482,0,0,1,3.359.947,2.962,2.962,0,0,1,1.27,2.49h-3.3q0-1.27-1.338-1.27a1.326,1.326,0,0,0-.869.288.892.892,0,0,0-.352.718.819.819,0,0,0,.43.713,4.06,4.06,0,0,0,1.372.449,11.858,11.858,0,0,1,1.655.42,3.007,3.007,0,0,1,2.383,2.939,2.767,2.767,0,0,1-1.284,2.354,5.632,5.632,0,0,1-3.325.908,5.747,5.747,0,0,1-2.422-.488,4.05,4.05,0,0,1-1.66-1.328,3.007,3.007,0,0,1-.6-1.768h3.076a1.272,1.272,0,0,0,.488,1.069,2.009,2.009,0,0,0,1.2.337,1.58,1.58,0,0,0,1.011-.273A.875.875,0,0,0,733.77,16.031Zm4.3-2.412a6.236,6.236,0,0,1,.615-2.817,4.4,4.4,0,0,1,1.768-1.9,5.324,5.324,0,0,1,2.705-.664,4.858,4.858,0,0,1,3.74,1.47,5.64,5.64,0,0,1,1.367,4v.117a5.472,5.472,0,0,1-1.372,3.921,4.871,4.871,0,0,1-3.716,1.45,4.927,4.927,0,0,1-3.623-1.353,5.29,5.29,0,0,1-1.475-3.667Zm3.291.205a3.932,3.932,0,0,0,.459,2.148,1.529,1.529,0,0,0,1.357.684q1.758,0,1.8-2.705v-.332q0-2.842-1.816-2.842-1.65,0-1.787,2.451Zm12.822,2.832a1.464,1.464,0,0,0,1.074-.376,1.379,1.379,0,0,0,.371-1.05h3.086a3.653,3.653,0,0,1-1.245,2.852,4.631,4.631,0,0,1-3.208,1.113,4.689,4.689,0,0,1-3.633-1.445,5.7,5.7,0,0,1-1.328-4v-.137a6.436,6.436,0,0,1,.591-2.827,4.3,4.3,0,0,1,1.7-1.885,5.081,5.081,0,0,1,2.637-.659A4.573,4.573,0,0,1,757.5,9.381a4.052,4.052,0,0,1,1.211,3.1h-3.086a1.807,1.807,0,0,0-.4-1.26,1.382,1.382,0,0,0-1.074-.439q-1.279,0-1.494,1.631a11.5,11.5,0,0,0-.068,1.426,4.52,4.52,0,0,0,.381,2.207A1.319,1.319,0,0,0,754.18,16.656ZM763.574,19h-3.3V8.434h3.3Zm-3.5-13.3a1.482,1.482,0,0,1,.508-1.159,2.149,2.149,0,0,1,2.637,0A1.482,1.482,0,0,1,763.73,5.7a1.482,1.482,0,0,1-.508,1.159,2.149,2.149,0,0,1-2.637,0A1.482,1.482,0,0,1,760.078,5.7ZM771.553,19a3.715,3.715,0,0,1-.312-.947A3.06,3.06,0,0,1,768.7,19.2a3.749,3.749,0,0,1-2.539-.9,2.875,2.875,0,0,1-1.045-2.271,2.955,2.955,0,0,1,1.27-2.6,6.468,6.468,0,0,1,3.691-.879h1.016v-.559q0-1.462-1.26-1.462a1.03,1.03,0,0,0-1.172,1.158h-3.291a2.95,2.95,0,0,1,1.3-2.487A5.479,5.479,0,0,1,770,8.238a4.8,4.8,0,0,1,3.193.986,3.429,3.429,0,0,1,1.2,2.705v4.678a4.79,4.79,0,0,0,.449,2.227V19Zm-2.061-2.148a1.836,1.836,0,0,0,1.021-.264,1.652,1.652,0,0,0,.581-.6V14.3h-.957q-1.719,0-1.719,1.543a.942.942,0,0,0,.3.728A1.1,1.1,0,0,0,769.492,16.852ZM779.688,19h-3.3V4h3.3Zm7.139.2a5.432,5.432,0,0,1-3.936-1.45,5.008,5.008,0,0,1-1.5-3.774V13.7a6.489,6.489,0,0,1,.6-2.861,4.395,4.395,0,0,1,1.753-1.919,5.292,5.292,0,0,1,2.734-.679A4.574,4.574,0,0,1,789.99,9.62a5.43,5.43,0,0,1,1.289,3.853v1.279h-6.543a2.372,2.372,0,0,0,.771,1.4,2.3,2.3,0,0,0,1.543.508,2.958,2.958,0,0,0,2.441-1.094L791,17.34a4.2,4.2,0,0,1-1.743,1.353A5.891,5.891,0,0,1,786.826,19.2Zm-.371-8.418q-1.445,0-1.719,1.914h3.32v-.254a1.63,1.63,0,0,0-.4-1.226A1.593,1.593,0,0,0,786.455,10.777Zm11.68,5.254a.76.76,0,0,0-.439-.674,6.685,6.685,0,0,0-1.67-.527,7.615,7.615,0,0,1-2.031-.718,3.4,3.4,0,0,1-1.221-1.079,2.577,2.577,0,0,1-.42-1.455,2.92,2.92,0,0,1,1.2-2.4,4.948,4.948,0,0,1,3.145-.942,5.482,5.482,0,0,1,3.359.947,2.962,2.962,0,0,1,1.27,2.49h-3.3q0-1.27-1.338-1.27a1.326,1.326,0,0,0-.869.288.892.892,0,0,0-.352.718.819.819,0,0,0,.43.713,4.06,4.06,0,0,0,1.372.449,11.858,11.858,0,0,1,1.655.42,3.007,3.007,0,0,1,2.383,2.939,2.767,2.767,0,0,1-1.284,2.354,5.632,5.632,0,0,1-3.325.908,5.747,5.747,0,0,1-2.422-.488,4.05,4.05,0,0,1-1.66-1.328,3.007,3.007,0,0,1-.6-1.768H795.1a1.272,1.272,0,0,0,.488,1.069,2.009,2.009,0,0,0,1.2.337,1.58,1.58,0,0,0,1.011-.273A.875.875,0,0,0,798.135,16.031Z" transform="translate(377.256 5688.374)" fill="#fff"/>
  </g>
</svg>
