<svg xmlns="http://www.w3.org/2000/svg" width="812" height="393.998" viewBox="0 0 812 393.998">
  <g id="Grupo_1020840" data-name="Grupo 1020840" transform="translate(-13664 5902)">
    <rect id="Facebook-Con-Creator-Studio-puedes-programar-publicaciones-en-Instagram" width="812" height="393.998" transform="translate(13664 -5902)" fill="#fff"/>
    <g id="later-seeklogo.com" transform="translate(13769.7 -5930.3)">
      <path id="Trazado_755348" data-name="Trazado 755348" d="M72.3,225.4H98V199.7H72.3Z" fill="#42c0f0" fill-rule="evenodd"/>
      <path id="Trazado_755349" data-name="Trazado 755349" d="M98,251h25.7V225.3H98Z" fill="#5d5ca6" fill-rule="evenodd"/>
      <path id="Trazado_755350" data-name="Trazado 755350" d="M200.6,302.4h25.7V276.7H200.6Z" fill="#64bb91" fill-rule="evenodd"/>
      <path id="Trazado_755351" data-name="Trazado 755351" d="M98,174h25.7V148.3H98Z" fill="#fab316" fill-rule="evenodd"/>
      <path id="Trazado_755352" data-name="Trazado 755352" d="M149.3,251H175V225.3H149.3Z" fill="#f18a65" fill-rule="evenodd"/>
      <path id="Trazado_755353" data-name="Trazado 755353" d="M175,225.4h25.7V199.7H175Z" fill="#75be88" fill-rule="evenodd"/>
      <path id="Trazado_755354" data-name="Trazado 755354" d="M123.6,302.4h25.7V276.7H123.6v25.7Z" fill="#42c0f0" fill-rule="evenodd"/>
      <path id="Trazado_755355" data-name="Trazado 755355" d="M502.3,174H528V148.3H502.3Z" fill="#bcd364" fill-rule="evenodd"/>
      <path id="Trazado_755356" data-name="Trazado 755356" d="M502.3,199.7H528V174H502.3Z" fill="#42c0f0" fill-rule="evenodd"/>
      <path id="Trazado_755357" data-name="Trazado 755357" d="M476.6,174h25.7V148.3H476.6Z" fill="#929dcf" fill-rule="evenodd"/>
      <g id="Grupo_1020807" data-name="Grupo 1020807" transform="translate(40 20)">
        <path id="Trazado_755358" data-name="Trazado 755358" d="M135,231H109.3V154H83.6V256.7h77.1V231Z" fill="#263239" fill-rule="evenodd"/>
        <path id="Trazado_755359" data-name="Trazado 755359" d="M200.4,238.8c6.7,0,12.6-7.2,12.6-13.5v-1.6h-2.4c-8.1,0-17.4,2.4-17.4,8.7C193.2,236,195.4,238.8,200.4,238.8Zm11.3-29.7h1v-1.3c0-6.4-4.9-8.4-11.2-8.4-9.6,0-20.6,7.2-20.6,7.2l-8.9-18a57.732,57.732,0,0,1,31.9-9.9c21.4,0,34.3,11.7,34.3,31v46.9H214.8V252a39.138,39.138,0,0,1,.3-4.7h-.3s-5.6,11.1-21.6,11.1c-14.2,0-25.9-9.5-25.9-24.5C167.4,211.6,199.8,209.1,211.7,209.1Z" fill="#263239" fill-rule="evenodd"/>
        <path id="Trazado_755360" data-name="Trazado 755360" d="M252.5,201.7h-9.8v-20h10.5V159.8H278v21.9h16v20H278v23.4c0,8.6,8.7,9.8,13.6,9.8,2.1,0,3.4-.1,3.4-.1V257a53.935,53.935,0,0,1-6.9.4c-12.1,0-35.6-3.3-35.6-28.8Z" fill="#263239" fill-rule="evenodd"/>
        <path id="Trazado_755361" data-name="Trazado 755361" d="M348.4,208.8c0-5.8-4-10.9-10.1-10.9-7.4,0-10.9,5.3-12.3,10.9ZM339,178.6c22.5,0,35.2,15.7,35.2,36.8,0,2.5-.6,8-.6,8H325.5c1.9,9.3,9.6,13.6,17.7,13.6,10.9,0,21-7.7,21-7.7l9.5,17.9s-12.3,11.1-32.5,11.1c-27.2,0-41.8-19.7-41.8-39.9-.1-22.3,15-39.8,39.6-39.8Z" fill="#263239" fill-rule="evenodd"/>
        <path id="Trazado_755362" data-name="Trazado 755362" d="M383.6,180.4h24.5v12.9a39.14,39.14,0,0,1-.3,4.7h.3c3.3-10.4,12.9-18.9,24.3-18.9a17.539,17.539,0,0,1,3,.3v25.1a30.667,30.667,0,0,0-5.2-.4c-6.1,0-16,1.9-19.7,13.3a33.986,33.986,0,0,0-1.3,10.3v28.8H383.6Z" fill="#263239" fill-rule="evenodd"/>
      </g>
    </g>
  </g>
</svg>
