<svg xmlns="http://www.w3.org/2000/svg" width="812" height="393.998" viewBox="0 0 812 393.998">
  <g id="Grupo_1020841" data-name="Grupo 1020841" transform="translate(-13664 5463)">
    <rect id="Facebook-Con-Creator-Studio-puedes-programar-publicaciones-en-Instagram" width="812" height="393.998" transform="translate(13664 -5463)" fill="#fff"/>
    <g id="Hootsuite_logo_-_Brandlogos.net" data-name="Hootsuite logo - Brandlogos.net" transform="translate(13779.029 -5323.002)">
      <path id="Trazado_755363" data-name="Trazado 755363" d="M381.643,528.422a19.191,19.191,0,0,1-15.422-1.077.339.339,0,1,0-.412.538c2.122,2.28,5.922,6.334,8.218,8.25a1.171,1.171,0,0,0,1.583-.111l6.334-7.03a.348.348,0,0,0-.3-.57Z" transform="translate(-306.811 -445.866)" fill="#fff"/>
      <path id="Trazado_755364" data-name="Trazado 755364" d="M421.408,516.856c-3.42-7.394-8.5-14.25-16.23-15.169a6.445,6.445,0,0,0-4.006.871l-8.408,4.972a5.922,5.922,0,0,1-6.666-.428l-7.315-5.653a21.709,21.709,0,0,0-8.265-3.99c-12.541-2.961-21.075,3.626-27.5,15.992-6.144,11.812-2.708,28.754,12.43,32.776,15.992,4.244,26.554-13.506,30.765-19.412a2.043,2.043,0,0,1,3.309,0c6.539,8.914,15.375,18.447,24.828,16.546C426.712,540.86,425.256,525.2,421.408,516.856Zm-46.235,9.405a6.793,6.793,0,1,1,1.758-9.374,6.476,6.476,0,0,1-1.773,9.374Zm32.681.618a6.793,6.793,0,1,1,1.758-9.374,6.476,6.476,0,0,1-1.773,9.374Z" transform="translate(-321.716 -463.671)" fill="#fff"/>
      <path id="Trazado_755365" data-name="Trazado 755365" d="M374.612,518.831a1.583,1.583,0,0,0-2.391,0l-6.7,7.917a.839.839,0,0,0,.143,1.219c1.583,1.108,5.336,3.531,9.025,3.531a18.654,18.654,0,0,0,8.012-2.074.839.839,0,0,0,.237-1.3Z" transform="translate(-307.016 -451.11)" fill="#fff"/>
      <path id="Trazado_755366" data-name="Trazado 755366" d="M419.31,552.472v-53.2h11.8v23.1h39.157v-23.1h11.8v53.2h-11.8V532.363H431.122v20.109Z" transform="translate(-275.521 -462.204)" fill="#ff4c46"/>
      <path id="Trazado_755367" data-name="Trazado 755367" d="M489.586,550q-11.717,0-18.874-6.064a21.582,21.582,0,0,1,0-32.079q7.141-6.065,18.874-6.065t19,6.064a21.582,21.582,0,0,1,0,32.08Q501.429,550,489.586,550Zm0-9.136a16.245,16.245,0,0,0,10.973-3.578,12.794,12.794,0,0,0,0-18.874,16.245,16.245,0,0,0-10.973-3.578,15.992,15.992,0,0,0-10.894,3.61,11.908,11.908,0,0,0-4.148,9.5,11.781,11.781,0,0,0,4.149,9.39,16.1,16.1,0,0,0,10.894,3.515Z" transform="translate(-249.7 -458.4)" fill="#ff4c46"/>
      <path id="Trazado_755368" data-name="Trazado 755368" d="M525.856,550q-11.717,0-18.874-6.064a21.582,21.582,0,0,1,0-32.079q7.141-6.065,18.874-6.065t19,6.064a21.582,21.582,0,0,1,0,32.08Q537.652,550,525.856,550Zm0-9.136a16.245,16.245,0,0,0,10.973-3.578,12.794,12.794,0,0,0,0-18.874,16.245,16.245,0,0,0-10.973-3.578,15.992,15.992,0,0,0-10.894,3.61,11.907,11.907,0,0,0-4.148,9.5,11.781,11.781,0,0,0,4.149,9.39,16.1,16.1,0,0,0,10.894,3.515Z" transform="translate(-228.541 -458.4)" fill="#ff4c46"/>
      <path id="Trazado_755369" data-name="Trazado 755369" d="M553.317,553.313a11.289,11.289,0,0,1-9.69-4.592c-1.583-2.154-2.771-4.988-2.771-11.195V519.444H534.87v-8.566h7.648V499.24h10.134v11.638h11.97v8.566h-11.97v15.549c-.095,4.639.649,6.334,1.789,7.458,1.979,1.979,8.012.633,10.181-.744v9.01C562.089,552.521,557.528,553.313,553.317,553.313Z" transform="translate(-208.104 -462.221)" fill="#ff4c46"/>
      <path id="Trazado_755370" data-name="Trazado 755370" d="M581.554,549.987a79.952,79.952,0,0,1-22.277-3.166l0-9.5a56.783,56.783,0,0,0,20.362,3.578,44.847,44.847,0,0,0,11.305-1q3.4-1,3.4-3.578t-3.784-3.373a47.132,47.132,0,0,0-9.231-1.2q-5.447-.253-10.894-.95a19.762,19.762,0,0,1-9.231-3.452,8.993,8.993,0,0,1-3.785-7.727,11.084,11.084,0,0,1,6.571-10.308q6.571-3.5,17.876-3.5a110.113,110.113,0,0,1,20.806,2.28v9.1a94.525,94.525,0,0,0-19.539-2.154q-14.14,0-14.124,4.323,0,2.169,3.816,3.04a58.063,58.063,0,0,0,9.231,1.2q5.4.333,10.846,1.124a20.221,20.221,0,0,1,9.263,3.61,9.263,9.263,0,0,1,3.816,7.917,10.989,10.989,0,0,1-6.476,10.355Q593.018,549.987,581.554,549.987Z" transform="translate(-194.952 -458.389)" fill="#ff4c46"/>
      <path id="Trazado_755371" data-name="Trazado 755371" d="M642.072,506.62v41.564H629.1l1.583-17.116h-.665q-2.913,18.446-20.442,18.447-8.978-.174-13.126-5.859t-4.164-19V506.62H604.1v16.626q0,9.389,2.66,13.38t8.724,3.99a12.224,12.224,0,0,0,10.72-6.159q3.99-6.144,3.99-16.372V506.62Z" transform="translate(-174.606 -457.916)" fill="#ff4c46"/>
      <path id="Trazado_755372" data-name="Trazado 755372" d="M636.523,509.014a7.711,7.711,0,0,1-5.32-1.71,7.512,7.512,0,0,1,0-10.023,7.917,7.917,0,0,1,5.32-1.583,8.155,8.155,0,0,1,5.447,1.583,6.191,6.191,0,0,1,1.948,4.988Q643.917,509.014,636.523,509.014Zm-5.732,45.554V513H642.6v41.564Z" transform="translate(-153.033 -464.3)" fill="#ff4c46"/>
      <path id="Trazado_755373" data-name="Trazado 755373" d="M688.9,550q-11.305,0-18.161-6.064a22.167,22.167,0,0,1,0-32.08q6.856-6.064,18.161-6.064t17.924,5.178a16.784,16.784,0,0,1,7.03,13.68v6.809h-38.7a9.959,9.959,0,0,0,5.273,7.315q4.275,2.248,12.667,2.248a34.833,34.833,0,0,0,14.251-2.486c.538-.206,4.433-1.916,4.75-2.074v9.5a60.318,60.318,0,0,1-10.894,3.167A72.832,72.832,0,0,1,688.9,550Zm-13.965-24.273,27.773-.6q-.253-5.479-3.578-7.917T688.9,514.831q-6.65,0-10.023,2.533T674.936,525.725Z" transform="translate(-132.844 -458.4)" fill="#ff4c46"/>
      <path id="Trazado_755374" data-name="Trazado 755374" d="M661.107,553.313a11.289,11.289,0,0,1-9.69-4.592c-1.583-2.154-2.771-4.988-2.771-11.195V519.444H642.66v-8.566h7.648V499.24h10.134v11.638h11.97v8.566h-11.97v15.549c-.1,4.639.649,6.334,1.789,7.458,1.979,1.979,8.012.633,10.181-.744v9.01C669.878,552.521,665.366,553.313,661.107,553.313Z" transform="translate(-145.22 -462.221)" fill="#ff4c46"/>
      <path id="Trazado_755375" data-name="Trazado 755375" d="M385.45,484.84c-12.113-.079-25.572,7.363-35.42,18.447-7.141,8.028-16.119,30.243-20.584,41.833a14.868,14.868,0,0,0,2.328,14.6c7.759,9.5,23.925,25.128,55.213,25.334,28.659.206,43.258-12.556,50.114-21.93a20.759,20.759,0,0,0,3.167-18.051c-3.04-10.466-9.5-28.5-19.919-41.073C408.473,489.844,397.547,484.919,385.45,484.84Z" transform="translate(-328.51 -470.623)" fill="#ff4c46"/>
      <path id="Trazado_755376" data-name="Trazado 755376" d="M389.52,507.14c17.734-12.335,27.345-1.583,32.745,10.26,3.9,8.566,5.273,24.59-7.379,27.06-9.69,1.884-18.652-7.917-25.334-17.1a2.106,2.106,0,0,0-3.388,0c-4.37,6.017-15.28,24.1-31.668,19.634-15.438-4.228-18.827-21.6-12.414-33.6C351.661,495.281,365.58,489.406,389.52,507.14Z" transform="translate(-322.367 -463.851)" fill="#fff"/>
      <path id="Trazado_755377" data-name="Trazado 755377" d="M364.966,527.926c2.027,2.233,6.334,6.793,8.8,8.962a1.187,1.187,0,0,0,1.583-.095l6.824-7.505a.237.237,0,0,0-.253-.4,19.666,19.666,0,0,1-16.737-1.346.253.253,0,0,0-.3.38Z" transform="translate(-307.297 -445.718)" fill="#fff"/>
      <path id="Trazado_755378" data-name="Trazado 755378" d="M371.921,519.148l-6.967,8.075a.855.855,0,0,0,0,1.219h0c1.583,1.156,5.431,3.658,9.2,3.689a19.079,19.079,0,0,0,8.218-2.074.855.855,0,0,0,.364-1.156l-.111-.174-8.471-9.659a1.583,1.583,0,0,0-2.28,0l-.079.079Z" transform="translate(-307.381 -450.936)" fill="#fff"/>
      <path id="Trazado_755379" data-name="Trazado 755379" d="M388.643,511.184a6.856,6.856,0,1,1-9.5-2,6.634,6.634,0,0,1,9.247,1.583Z" transform="translate(-300.764 -457.128)" fill="#ff4c46"/>
      <path id="Trazado_755380" data-name="Trazado 755380" d="M388.191,519.149a6.064,6.064,0,0,0,6.809.491l43.1-25.113a1.188,1.188,0,0,0-.665-2.217l-46.663,3.864-53.218-20.236a1.425,1.425,0,0,0-1.378,2.438Z" transform="translate(-324.316 -475.86)" fill="#ff4c46"/>
      <path id="Trazado_755381" data-name="Trazado 755381" d="M358.53,507.8a6.745,6.745,0,1,0,8.534,4.275.3.3,0,0,0,0-.174,6.444,6.444,0,0,0-7.917-4.307C358.926,507.575,358.8,507.685,358.53,507.8Z" transform="translate(-313.671 -457.493)" fill="#ff4c46"/>
    </g>
  </g>
</svg>
