<svg xmlns="http://www.w3.org/2000/svg" width="812" height="393.998" viewBox="0 0 812 393.998">
  <g id="Grupo_1020842" data-name="Grupo 1020842" transform="translate(-13664 5024)">
    <rect id="Facebook-Con-Creator-Studio-puedes-programar-publicaciones-en-Instagram" width="812" height="393.998" transform="translate(13664 -5024)" fill="#fff"/>
    <g id="sprout-social-seeklogo" transform="translate(13862.3 -5080)">
      <path id="Trazado_755382" data-name="Trazado 755382" d="M130.075,473.874a21.458,21.458,0,0,1-7.912,1.771,7.179,7.179,0,0,0-5.312,1.771,13.047,13.047,0,0,0-3.652,5.035v-.83a4.925,4.925,0,0,0-9.849,0v25.342a4.925,4.925,0,1,0,9.849,0V495.011c.664-5.146,3.265-8.023,7.47-8.964a5.356,5.356,0,0,0,.664-.111C131.127,482.893,130.075,473.874,130.075,473.874Zm249.047,37.459V464.8h4.925v46.534m-37.293-26.67-1.494-3.929a27.163,27.163,0,0,1,11.952-2.711c8.964,0,14,4.648,14,13.335V511.5h-4.648v-5.091a14.606,14.606,0,0,1-12.007,5.7c-6.142,0-12.394-3.375-12.394-10.347,0-7.082,5.7-10.734,14.165-10.734a34.26,34.26,0,0,1,10.07,1.383V491.3c0-5.976-3.652-8.964-9.794-8.964a23.438,23.438,0,0,0-9.849,2.324Zm.664,16.876c0,4.205,3.818,6.7,8.3,6.7,5.976,0,11.011-3.652,11.011-8.964v-3.154a36.114,36.114,0,0,0-9.683-1.383C350.848,494.734,347.418,497.335,347.418,501.54Zm-16.046-30.377v-5.422h5.588v5.422Zm.387,40.171V478.412h4.925v32.922Zm-18.757.83a16.931,16.931,0,0,1-16.876-17.153c0-9.406,7.193-17.263,16.876-17.263,6.252,0,10.07,2.6,13.224,5.865l-3.265,3.431c-2.6-2.711-5.588-5.035-10.07-5.035-6.64,0-11.841,5.7-11.841,12.782,0,7.193,5.146,12.948,12.118,12.948,4.205,0,7.47-2.047,10.07-4.925l3.154,2.988c-3.32,3.6-7.248,6.363-13.39,6.363Zm-37.847,0A17.208,17.208,0,1,1,292.418,494.9,17.109,17.109,0,0,1,275.155,512.164Zm0-30.1c-7.082,0-12.118,5.7-12.118,12.782s5.2,12.948,12.118,12.948c7.082,0,12.118-5.7,12.118-12.782C287.383,487.763,282.126,482.063,275.155,482.063ZM242.343,512a22.175,22.175,0,0,1-13.612-4.925l2.435-3.541a18.883,18.883,0,0,0,11.454,4.205c3.929,0,6.806-2.047,6.806-5.146v-.111c0-3.265-3.929-4.648-8.189-5.865-5.146-1.494-10.9-3.265-10.9-9.24v-.111c0-5.7,4.759-9.406,11.177-9.406a22.393,22.393,0,0,1,11.841,3.652l-2.158,3.652A17.87,17.87,0,0,0,241.4,481.9c-3.929,0-6.418,2.047-6.418,4.759v.111c0,3.154,4.095,4.371,8.41,5.7,5.146,1.494,10.624,3.541,10.624,9.406v.111c.166,6.363-4.98,10.015-11.675,10.015Zm-38.234-10.347V472.934a4.924,4.924,0,1,1,9.849,0v4.205h4.205a4.1,4.1,0,1,1,0,8.189h-4.205V499.88c0,2.158.941,3.265,3.154,3.265.277,0,.941-.111,1.107-.111a3.982,3.982,0,0,1,3.929,4.095,3.877,3.877,0,0,1-2.435,3.652,14.81,14.81,0,0,1-5.588.941c-5.921.166-10.015-2.158-10.015-10.07Zm-4.924,5.2a4.925,4.925,0,0,1-9.849,0v-.443c-2.158,2.877-5.146,5.422-10.07,5.422-7.359,0-11.564-4.925-11.564-12.671V481.455a4.924,4.924,0,1,1,9.849,0v14.552c0,4.648,2.158,6.916,5.865,6.916,3.652,0,5.976-2.324,5.976-6.916V481.565a4.924,4.924,0,0,1,9.849,0v25.287Zm-72.65-12.394c0-9.96,7.912-17.983,18.536-17.983s18.37,7.912,18.37,17.706v.111c0,9.794-7.912,17.817-18.536,17.817C134.391,512.164,126.534,504.251,126.534,494.458Zm27.5,0c0-5.146-3.652-9.517-8.964-9.517-5.588,0-8.853,4.205-8.853,9.24v.111c0,5.035,3.652,9.406,8.964,9.406C150.6,503.864,154.034,499.493,154.034,494.458ZM62.958,481.676a4.925,4.925,0,0,1,9.849,0v.387a12.574,12.574,0,0,1,10.624-5.588c8.023,0,15.493,6.252,15.493,17.706v.111c0,11.454-7.47,17.706-15.493,17.706a12.952,12.952,0,0,1-10.624-5.146v10.236a4.925,4.925,0,0,1-9.849,0Zm26.116,12.616v-.111c0-5.7-3.818-9.406-8.3-9.406s-8.3,3.818-8.3,9.406v.111c0,5.7,3.818,9.406,8.3,9.406C85.257,503.864,89.075,500.046,89.075,494.292ZM32.581,508.069A3.7,3.7,0,0,1,30.7,504.8a3.756,3.756,0,0,1,3.818-3.818,2.806,2.806,0,0,1,1.881.553,17.882,17.882,0,0,0,9.24,2.988c2.877,0,4.095-1.107,4.095-2.6v-.166c0-2.158-3.265-2.877-7.082-3.929-4.759-1.383-10.236-3.652-10.236-10.181v-.166c0-6.916,5.588-10.9,12.5-10.9a24.632,24.632,0,0,1,10.624,2.6,4.049,4.049,0,0,1,2.324,3.652,3.85,3.85,0,0,1-3.929,3.818,5.1,5.1,0,0,1-1.771-.387,17.234,17.234,0,0,0-7.359-2.158c-2.324,0-3.541,1.107-3.541,2.324v.166c0,1.881,3.265,2.877,6.916,4.095,4.759,1.6,10.347,3.929,10.347,10.07v.166c0,7.636-5.7,11.011-13.058,11.011a23.124,23.124,0,0,1-12.892-3.873Z" transform="translate(0 -148.657)" fill="#374242"/>
      <path id="Trazado_755383" data-name="Trazado 755383" d="M312.441,132.111A50.2,50.2,0,0,0,262.2,182.352v92.4a3.309,3.309,0,0,0,5.7,2.324l27.334-27.334h34.582A50.2,50.2,0,0,0,380.056,199.5V132H312.441Z" transform="translate(-103.408)" fill="#5acc5a"/>
      <path id="Trazado_755384" data-name="Trazado 755384" d="M312.441,132.2A50.2,50.2,0,0,0,262.2,182.441v67.5L312.441,199.7ZM295.122,249.946H270.057l15.659,9.406" transform="translate(-103.408 -0.089)" fill="#0ea84c"/>
      <path id="Trazado_755385" data-name="Trazado 755385" d="M420.5,132.2,353,199.7h67.5" transform="translate(-143.966 -0.089)" fill="#75dd66"/>
    </g>
  </g>
</svg>
