<svg xmlns="http://www.w3.org/2000/svg" width="812" height="393.998" viewBox="0 0 812 393.998">
  <g id="Grupo_1020843" data-name="Grupo 1020843" transform="translate(-13664 4590)">
    <rect id="Facebook-Con-Creator-Studio-puedes-programar-publicaciones-en-Instagram" width="812" height="393.998" transform="translate(13664 -4590)" fill="#fff"/>
    <g id="coschedule" transform="translate(13829.001 -4444.8)">
      <g id="Grupo_1020808" data-name="Grupo 1020808" transform="translate(123.79 25.188)">
        <path id="Trazado_755386" data-name="Trazado 755386" d="M291.849,28.2c-9.926,0-17.249,7.648-17.249,18.388s7.16,18.388,17.249,18.388c5.7,0,10.414-2.115,12.693-4.068,1.79-1.465,1.953-1.79.488-3.743a15.272,15.272,0,0,0-1.465-1.953c-1.139-1.627-1.79-1.3-3.417-.325l-.325.163a13.879,13.879,0,0,1-7.648,2.278c-4.556,0-8.95-3.905-9.763-8.462h22.456c1.79,0,2.441-.651,2.6-2.278a12.317,12.317,0,0,0,.163-2.441C307.8,35.034,301.124,28.2,291.849,28.2Zm-9.113,13.994a9.145,9.145,0,0,1,9.113-6.834,8.185,8.185,0,0,1,7.974,6.834Z" transform="translate(45.317 -11.765)" fill="#323248"/>
        <path id="Trazado_755387" data-name="Trazado 755387" d="M123.2,28.2a18.024,18.024,0,0,0-17.9,18.225,17.906,17.906,0,1,0,35.8,0A18.024,18.024,0,0,0,123.2,28.2Zm0,29.128c-5.533,0-9.926-4.882-9.926-10.9s4.394-10.74,9.926-10.74,9.926,4.719,9.926,10.74C133.126,52.609,128.732,57.328,123.2,57.328Z" transform="translate(-60.876 -11.765)" fill="#323248"/>
        <path id="Trazado_755388" data-name="Trazado 755388" d="M145.721,40.719c-6.346-2.441-9.763-5.044-9.763-9.275,0-2.766,2.278-6.672,8.787-6.672,4.556,0,9.926,3.417,10.414,3.743a1.95,1.95,0,0,0,2.766-.814c.651-.814,1.3-1.953,1.953-2.766a1.575,1.575,0,0,0-.488-2.441A27.082,27.082,0,0,0,145.07,18.1c-12.2,0-16.923,7.974-16.923,13.669,0,8.624,6.184,12.53,13.994,15.622,7.648,3.092,11.716,5.858,11.716,10.252,0,3.743-3.417,6.834-8.787,6.834-6.021,0-11.879-4.719-12.367-5.044a1.783,1.783,0,0,0-2.6.651c-.651.976-1.3,2.115-1.953,3.092-.814,1.3-.163,1.79.488,2.441a25.524,25.524,0,0,0,16.6,5.858c10.089,0,17.249-6.346,17.249-13.994C162.319,48.367,154.671,44.3,145.721,40.719Z" transform="translate(-46.784 -18.1)" fill="#323248"/>
        <path id="Trazado_755389" data-name="Trazado 755389" d="M117.7,58.781a1.237,1.237,0,0,0-1.627,0c-3.417,2.766-7,4.882-12.2,4.882-10.089,0-17.9-8.787-17.9-19.039s7.648-19.2,17.737-19.2a18.916,18.916,0,0,1,12.2,4.882c.651.651,1.3.651,1.79,0L120.8,27.05a1.711,1.711,0,0,0,0-2.115c-4.882-4.394-10.089-6.834-17.249-6.834C89.391,18.1,78,29.979,78,44.787s11.391,26.524,25.548,26.524a23.872,23.872,0,0,0,17.249-7.16,1.329,1.329,0,0,0,0-1.953Z" transform="translate(-78 -18.1)" fill="#323248"/>
        <path id="Trazado_755390" data-name="Trazado 755390" d="M250.47,18.1H246.4a1.806,1.806,0,0,0-1.79,1.79V37.464a16.479,16.479,0,0,0-9.6-3.092c-9.6,0-17.412,8.136-17.412,18.225,0,10.252,7.811,18.388,17.412,18.388a16.479,16.479,0,0,0,9.6-3.092v.325a1.806,1.806,0,0,0,1.79,1.79h4.068a1.806,1.806,0,0,0,1.79-1.79V20.053A1.954,1.954,0,0,0,250.47,18.1ZM234.849,63.663c-5.37,0-9.6-4.882-9.6-10.9s4.231-10.74,9.6-10.74,9.6,4.719,9.6,10.74C244.45,58.944,240.219,63.663,234.849,63.663Z" transform="translate(9.564 -18.1)" fill="#323248"/>
        <path id="Trazado_755391" data-name="Trazado 755391" d="M211.949,28.2c-9.926,0-17.249,7.648-17.249,18.388s7.16,18.388,17.249,18.388c5.7,0,10.414-2.115,12.693-4.068,1.79-1.465,1.953-1.79.488-3.743a15.266,15.266,0,0,0-1.465-1.953c-1.139-1.627-1.79-1.3-3.417-.325l-.325.163a13.879,13.879,0,0,1-7.648,2.278c-4.556,0-8.95-3.905-9.763-8.462h22.456c1.79,0,2.441-.651,2.6-2.278a12.317,12.317,0,0,0,.163-2.441C227.9,35.034,221.224,28.2,211.949,28.2Zm-9.113,13.994a9.145,9.145,0,0,1,9.113-6.834,8.185,8.185,0,0,1,7.974,6.834Z" transform="translate(-4.8 -11.765)" fill="#323248"/>
        <path id="Trazado_755392" data-name="Trazado 755392" d="M190.474,34.472a16.6,16.6,0,0,0-9.926,3.254V19.99a1.806,1.806,0,0,0-1.79-1.79H174.69a1.806,1.806,0,0,0-1.79,1.79V68.482a1.806,1.806,0,0,0,1.79,1.79h4.068a1.806,1.806,0,0,0,1.79-1.79V46.189a14.734,14.734,0,0,1,9.6-3.905c4.231,0,6.346,2.766,6.346,8.136V68.645a1.806,1.806,0,0,0,1.79,1.79h4.231a1.806,1.806,0,0,0,1.79-1.79V50.42C204.306,40.168,199.261,34.472,190.474,34.472Z" transform="translate(-18.474 -18.037)" fill="#323248"/>
        <path id="Trazado_755393" data-name="Trazado 755393" d="M181.692,53.622l-.976-.651c-1.465-1.139-2.115-1.465-3.905.325-.163.163-.488.325-.651.651-1.627,1.627-3.417,3.417-7.323,3.417-5.533,0-9.764-4.719-9.764-10.74S163.467,36.048,169,36.048a9.266,9.266,0,0,1,6.834,3.092L176,39.3l.325.325c.976.976,1.79,1.79,3.58.163l1.465-1.3c1.627-1.465,1.953-1.953.488-3.905A15.571,15.571,0,0,0,169.162,28.4c-9.764,0-18.062,8.462-18.062,18.388A17.821,17.821,0,0,0,169,65.013a15.758,15.758,0,0,0,13.506-7.485C183.645,55.412,183.157,54.761,181.692,53.622Z" transform="translate(-32.148 -11.639)" fill="#323248"/>
        <path id="Trazado_755394" data-name="Trazado 755394" d="M272.679,28.7h-3.417c-1.465,0-2.6,0-2.6,2.6v19.2a8.318,8.318,0,0,1-7.974,6.834,8.185,8.185,0,0,1-7.974-6.834V31.3c0-2.6-1.3-2.6-2.6-2.6H244.69a1.806,1.806,0,0,0-1.79,1.79V49.041h0c.325,8.95,6.834,15.459,15.947,15.459s15.622-6.509,15.947-15.459h0V30.49A2.412,2.412,0,0,0,272.679,28.7Z" transform="translate(25.433 -11.451)" fill="#323248"/>
        <path id="Trazado_755395" data-name="Trazado 755395" d="M278.242,64.577l-.488-.488h0c-3.905-3.905-3.905-6.672-3.905-6.672V19.99a1.806,1.806,0,0,0-1.79-1.79H267.99a1.806,1.806,0,0,0-1.79,1.79V58.068a12.8,12.8,0,0,0,3.743,9.113l2.929,2.929a1.98,1.98,0,0,0,2.6,0L278.4,67.18A2.217,2.217,0,0,0,278.242,64.577Z" transform="translate(40.048 -18.037)" fill="#323248"/>
      </g>
      <g id="Grupo_1020810" data-name="Grupo 1020810" transform="translate(4.999 6.8)">
        <g id="Grupo_1020809" data-name="Grupo 1020809">
          <path id="Trazado_755396" data-name="Trazado 755396" d="M86.851,49.6a8.94,8.94,0,0,0-10.252,7A26.94,26.94,0,0,1,49.75,78.887a27.257,27.257,0,0,1,.163-54.513,20.747,20.747,0,0,1,3.255.163,8.668,8.668,0,0,0,9.763-7.648,8.668,8.668,0,0,0-7.648-9.763c-1.79-.163-3.58-.325-5.37-.325A44.831,44.831,0,1,0,93.848,59.686,8.69,8.69,0,0,0,86.851,49.6ZM46.333,41.135A8.745,8.745,0,0,0,33.965,53.5L49.912,69.449,92.221,27.141A8.745,8.745,0,1,0,79.854,14.774L49.75,44.552Z" transform="translate(-4.999 -6.8)" fill="#d4765d"/>
        </g>
        <path id="Trazado_755397" data-name="Trazado 755397" d="M32.5,31.568,44.867,44.1l-8.3-16.6Z" transform="translate(12.25 6.184)" fill="#c15c48"/>
      </g>
    </g>
  </g>
</svg>
