<svg xmlns="http://www.w3.org/2000/svg" xmlns:xlink="http://www.w3.org/1999/xlink" width="159.133" height="159.132" viewBox="0 0 159.133 159.132">
  <defs>
    <clipPath id="clip-path">
      <ellipse id="Elipse_8547" data-name="Elipse 8547" cx="79.566" cy="79.566" rx="79.566" ry="79.566" transform="translate(-0.001 0)" fill="#fff"/>
    </clipPath>
    <clipPath id="clip-path-2">
      <path id="path6357" d="M0-682.665H99.229v99.229H0Z" transform="translate(0 682.665)"/>
    </clipPath>
  </defs>
  <g id="Grupo_1020840" data-name="Grupo 1020840" transform="translate(-930.728 -2510.531)">
    <ellipse id="Elipse_8546" data-name="Elipse 8546" cx="79.566" cy="79.566" rx="79.566" ry="79.566" transform="translate(930.729 2510.531)" fill="#fff"/>
    <g id="g6351" transform="translate(960.68 3222.826)">
      <g id="g6353" transform="translate(0 -682.665)">
        <g id="g6355" clip-path="url(#clip-path-2)">
          <g id="g6361" transform="translate(6.153 12.702)">
            <path id="path6363" d="M-24.75,46.847A1.454,1.454,0,0,1-26.2,45.393V13.568H-58.026a1.454,1.454,0,0,1-1.454-1.454A34.358,34.358,0,0,1-51.973-9.45a1.454,1.454,0,0,1,2.042-.235A1.454,1.454,0,0,1-49.7-7.643a31.44,31.44,0,0,0-6.845,18.3H-24.75A1.454,1.454,0,0,1-23.3,12.115V43.908A31.439,31.439,0,0,0-4.96,37.038a1.454,1.454,0,0,1,2.042.233,1.454,1.454,0,0,1-.233,2.042A34.361,34.361,0,0,1-24.75,46.847Z" transform="translate(59.48 10)" fill="#996b21"/>
          </g>
          <g id="g6365" transform="translate(17.295 0.087)">
            <path id="path6367" d="M46.155-24.946a1.459,1.459,0,0,1-.3-.031A1.454,1.454,0,0,1,44.731-26.7a31.95,31.95,0,0,0,.68-6.571A31.859,31.859,0,0,0,13.588-65.093,31.761,31.761,0,0,0-7.579-57.031a1.454,1.454,0,0,1-2.052-.117A1.454,1.454,0,0,1-9.514-59.2a34.665,34.665,0,0,1,23.1-8.8,34.769,34.769,0,0,1,34.73,34.73,34.862,34.862,0,0,1-.742,7.17A1.454,1.454,0,0,1,46.155-24.946Z" transform="translate(10 68)" fill="#996b21"/>
          </g>
          <g id="g6369" transform="translate(39.453 78.214)">
            <path id="path6371" d="M-92.121-10h9.626a4.409,4.409,0,0,1,4.4,4.4V9.474a1.454,1.454,0,0,1-1.454,1.454H-95.072a1.454,1.454,0,0,1-1.454-1.454V-5.6A4.409,4.409,0,0,1-92.121-10ZM-81,8.021V-5.6a1.5,1.5,0,0,0-1.5-1.5h-9.626a1.5,1.5,0,0,0-1.5,1.5V8.021Z" transform="translate(96.525 10)" fill="#996b21"/>
          </g>
          <g id="g6373" transform="translate(60.124 40.234)">
            <path id="path6375" d="M-99.833-261.279h-15.526a1.454,1.454,0,0,1-1.454-1.454v-53.05a4.408,4.408,0,0,1,4.4-4.4h9.626a4.408,4.408,0,0,1,4.4,4.4v36.323a1.454,1.454,0,0,1-1.454,1.454,1.454,1.454,0,0,1-1.454-1.454v-36.323a1.5,1.5,0,0,0-1.5-1.5h-9.626a1.5,1.5,0,0,0-1.5,1.5v51.6h12.619v-9.46a1.454,1.454,0,0,1,1.454-1.454,1.454,1.454,0,0,1,1.454,1.454v10.913A1.454,1.454,0,0,1-99.833-261.279Z" transform="translate(116.812 320.186)" fill="#996b21"/>
          </g>
          <g id="g6377" transform="translate(80.794 62.233)">
            <path id="path6379" d="M-92.12-10h9.626a4.409,4.409,0,0,1,4.4,4.4V25.455a1.454,1.454,0,0,1-1.454,1.454H-95.07a1.454,1.454,0,0,1-1.454-1.454V-5.6A4.409,4.409,0,0,1-92.12-10ZM-81,24V-5.6a1.5,1.5,0,0,0-1.5-1.5H-92.12a1.5,1.5,0,0,0-1.5,1.5V24Z" transform="translate(96.524 10)" fill="#996b21"/>
          </g>
          <g id="g6381" transform="translate(0 39.516)">
            <path id="path6383" d="M-204.2-202.761a34.77,34.77,0,0,1-34.73-34.732,1.454,1.454,0,0,1,1.454-1.454H-204.2a1.454,1.454,0,0,1,1.454,1.454v33.278A1.454,1.454,0,0,1-204.2-202.761Zm-31.79-33.278A31.869,31.869,0,0,0-205.656-205.7v-30.339Z" transform="translate(238.933 238.946)" fill="#996b21"/>
          </g>
          <g id="g6385" transform="translate(1.976 65.971)">
            <path id="path6387" d="M-158.134,9.348H-174.7a1.454,1.454,0,0,1-1.454-1.454A1.454,1.454,0,0,1-174.7,6.441h15.638l7.194-15.6a1.454,1.454,0,0,1,1.929-.711,1.454,1.454,0,0,1,.711,1.929L-156.814,8.5A1.454,1.454,0,0,1-158.134,9.348Z" transform="translate(176.156 10.002)" fill="#996b21"/>
          </g>
          <g id="g6389" transform="translate(1.976 76.157)">
            <path id="path6391" d="M3.529-7.093H-8.546A1.454,1.454,0,0,1-10-8.546,1.454,1.454,0,0,1-8.546-10H3.529A1.454,1.454,0,0,1,4.983-8.546,1.454,1.454,0,0,1,3.529-7.093Z" transform="translate(10 10)" fill="#996b21"/>
          </g>
          <g id="g6393" transform="translate(59.775 7.813)">
            <path id="path6395" d="M-8.549-108.159a1.447,1.447,0,0,1-.71-.186,1.454,1.454,0,0,1-.556-1.979L-.17-127.513a1.454,1.454,0,0,1,1.268-.742H21.61a1.454,1.454,0,0,1,1.454,1.454,1.454,1.454,0,0,1-1.454,1.454H1.949L-7.28-108.9A1.453,1.453,0,0,1-8.549-108.159Z" transform="translate(10.002 128.256)" fill="#996b21"/>
          </g>
          <g id="g6397" transform="translate(75.613 2.025)">
            <path id="path6399" d="M-92.746-7.093h-14.32a1.454,1.454,0,0,1-1.454-1.454A1.454,1.454,0,0,1-107.066-10h14.32a1.454,1.454,0,0,1,1.454,1.454A1.454,1.454,0,0,1-92.746-7.093Z" transform="translate(108.52 10)" fill="#996b21"/>
          </g>
          <g id="g6401" transform="translate(82.854 32.743)">
            <path id="path6403" d="M-70.639-7.093H-81.2a1.454,1.454,0,0,1-1.454-1.454A1.454,1.454,0,0,1-81.2-10h10.56a1.454,1.454,0,0,1,1.454,1.454A1.454,1.454,0,0,1-70.639-7.093Z" transform="translate(82.653 10)" fill="#996b21"/>
          </g>
          <g id="g6405" transform="translate(82.854 39.008)">
            <path id="path6407" d="M-70.639-7.093H-81.2a1.454,1.454,0,0,1-1.454-1.454A1.454,1.454,0,0,1-81.2-10h10.56a1.454,1.454,0,0,1,1.454,1.454A1.454,1.454,0,0,1-70.639-7.093Z" transform="translate(82.653 10)" fill="#996b21"/>
          </g>
          <g id="g6409" transform="translate(82.854 45.272)">
            <path id="path6411" d="M-70.639-7.093H-81.2a1.454,1.454,0,0,1-1.454-1.454A1.454,1.454,0,0,1-81.2-10h10.56a1.454,1.454,0,0,1,1.454,1.454A1.454,1.454,0,0,1-70.639-7.093Z" transform="translate(82.653 10)" fill="#996b21"/>
          </g>
        </g>
      </g>
    </g>
  </g>
</svg>
