<svg xmlns="http://www.w3.org/2000/svg" xmlns:xlink="http://www.w3.org/1999/xlink" width="159.133" height="159.132" viewBox="0 0 159.133 159.132">
  <defs>
    <clipPath id="clip-path">
      <ellipse id="Elipse_8549" data-name="Elipse 8549" cx="79.566" cy="79.566" rx="79.566" ry="79.566" transform="translate(-0.001 0)" fill="#fff"/>
    </clipPath>
  </defs>
  <g id="Grupo_1020841" data-name="Grupo 1020841" transform="translate(-510.687 -2983.531)">
    <ellipse id="Elipse_8548" data-name="Elipse 8548" cx="79.566" cy="79.566" rx="79.566" ry="79.566" transform="translate(510.688 2983.531)" fill="#fff"/>
    <g id="ebook" transform="translate(497.064 3015.325)">
      <path id="Trazado_749976" data-name="Trazado 749976" d="M119.6,0H66.23A10.742,10.742,0,0,0,55.5,10.73V84.814a10.742,10.742,0,0,0,10.73,10.73h7.184a1.4,1.4,0,0,0,0-2.8H66.23A7.94,7.94,0,0,1,58.3,84.814V10.73A7.94,7.94,0,0,1,66.23,2.8H119.6a7.94,7.94,0,0,1,7.931,7.931V84.814a7.94,7.94,0,0,1-7.931,7.931H79.946a1.4,1.4,0,1,0,0,2.8H119.6a10.742,10.742,0,0,0,10.73-10.73V10.73A10.742,10.742,0,0,0,119.6,0Z" transform="translate(0)" fill="#996b21"/>
      <path id="Trazado_749977" data-name="Trazado 749977" d="M140.1,108.019a1.4,1.4,0,0,0-1.4-1.4H98.766a.467.467,0,0,1-.467-.467V43.266a.467.467,0,0,1,.467-.467h4.2v5.038a1.4,1.4,0,0,0,2.8,0V42.8h12.13V63.233l-4.665-3.5a2.344,2.344,0,0,0-2.8,0l-4.665,3.5V54.369a1.4,1.4,0,0,0-2.8,0v9.8a2.347,2.347,0,0,0,3.732,1.866l5.132-3.849,5.132,3.849a2.347,2.347,0,0,0,3.732-1.866V42.8h31.444a.467.467,0,0,1,.467.467v62.887a.467.467,0,0,1-.467.467h-6.811a1.4,1.4,0,0,0,0,2.8h6.811a3.269,3.269,0,0,0,3.266-3.266V43.266A3.269,3.269,0,0,0,152.136,40H98.766A3.269,3.269,0,0,0,95.5,43.266v62.887a3.269,3.269,0,0,0,3.266,3.266H138.7A1.4,1.4,0,0,0,140.1,108.019Z" transform="translate(-32.536 -32.536)" fill="#996b21"/>
      <path id="Trazado_749978" data-name="Trazado 749978" d="M170.9,436.2a4.2,4.2,0,1,0-4.2,4.2A4.2,4.2,0,0,0,170.9,436.2Zm-5.6,0a1.4,1.4,0,1,1,1.4,1.4A1.4,1.4,0,0,1,165.3,436.2Z" transform="translate(-87.033 -351.385)" fill="#996b21"/>
      <path id="Trazado_749979" data-name="Trazado 749979" d="M96.5,436.2a4.2,4.2,0,1,0,4.2-4.2A4.2,4.2,0,0,0,96.5,436.2Zm5.6,0a1.4,1.4,0,1,1-1.4-1.4A1.4,1.4,0,0,1,102.1,436.2Z" transform="translate(-33.349 -351.385)" fill="#996b21"/>
      <path id="Trazado_749980" data-name="Trazado 749980" d="M304.5,436.2a4.2,4.2,0,1,0,4.2-4.2A4.2,4.2,0,0,0,304.5,436.2Zm5.6,0a1.4,1.4,0,1,1-1.4-1.4A1.4,1.4,0,0,1,310.1,436.2Z" transform="translate(-202.534 -351.385)" fill="#996b21"/>
      <path id="Trazado_749981" data-name="Trazado 749981" d="M374.7,432a4.2,4.2,0,1,0,4.2,4.2A4.2,4.2,0,0,0,374.7,432Zm0,5.6a1.4,1.4,0,1,1,1.4-1.4A1.4,1.4,0,0,1,374.7,437.6Z" transform="translate(-256.218 -351.385)" fill="#996b21"/>
      <path id="Trazado_749982" data-name="Trazado 749982" d="M231.766,427a3.269,3.269,0,0,0-3.266,3.266V434a3.27,3.27,0,0,0,3.266,3.266H235.5A3.27,3.27,0,0,0,238.763,434v-3.732A3.269,3.269,0,0,0,235.5,427Zm4.2,3.266V434a.467.467,0,0,1-.467.467h-3.732A.467.467,0,0,1,231.3,434v-3.732a.467.467,0,0,1,.467-.467H235.5A.467.467,0,0,1,235.964,430.266Z" transform="translate(-140.717 -347.318)" fill="#996b21"/>
      <path id="Trazado_749983" data-name="Trazado 749983" d="M256.9,144.8h14.182a1.4,1.4,0,1,0,0-2.8H256.9a1.4,1.4,0,0,0,0,2.8Z" transform="translate(-162.678 -115.502)" fill="#996b21"/>
      <path id="Trazado_749984" data-name="Trazado 749984" d="M277.9,217H258.4a1.4,1.4,0,0,0,0,2.8h19.5a1.4,1.4,0,1,0,0-2.8Z" transform="translate(-163.898 -176.506)" fill="#996b21"/>
      <path id="Trazado_749985" data-name="Trazado 749985" d="M136.9,219.8h16.142a1.4,1.4,0,0,0,0-2.8H136.9a1.4,1.4,0,1,0,0,2.8Z" transform="translate(-65.071 -176.506)" fill="#996b21"/>
      <path id="Trazado_749986" data-name="Trazado 749986" d="M136.9,259.8h32.843a1.4,1.4,0,1,0,0-2.8H136.9a1.4,1.4,0,1,0,0,2.8Z" transform="translate(-65.071 -209.042)" fill="#996b21"/>
      <path id="Trazado_749987" data-name="Trazado 749987" d="M180.473,298.4a1.4,1.4,0,0,0-1.4-1.4H136.9a1.4,1.4,0,1,0,0,2.8h42.174A1.4,1.4,0,0,0,180.473,298.4Z" transform="translate(-65.071 -241.577)" fill="#996b21"/>
      <path id="Trazado_749988" data-name="Trazado 749988" d="M136.9,337a1.4,1.4,0,1,0,0,2.8h25.379a1.4,1.4,0,1,0,0-2.8Z" transform="translate(-65.071 -274.113)" fill="#996b21"/>
      <path id="Trazado_749989" data-name="Trazado 749989" d="M276.68,102H256.9a1.4,1.4,0,0,0,0,2.8H276.68a1.4,1.4,0,0,0,0-2.8Z" transform="translate(-162.678 -82.966)" fill="#996b21"/>
    </g>
  </g>
</svg>
