<svg xmlns="http://www.w3.org/2000/svg" xmlns:xlink="http://www.w3.org/1999/xlink" width="159.133" height="159.132" viewBox="0 0 159.133 159.132">
  <defs>
    <clipPath id="clip-path">
      <ellipse id="Elipse_8551" data-name="Elipse 8551" cx="79.566" cy="79.566" rx="79.566" ry="79.566" transform="translate(-0.001 0)" fill="#fff"/>
    </clipPath>
  </defs>
  <g id="Grupo_1020842" data-name="Grupo 1020842" transform="translate(-930.728 -2983.531)">
    <ellipse id="Elipse_8550" data-name="Elipse 8550" cx="79.566" cy="79.566" rx="79.566" ry="79.566" transform="translate(930.729 2983.531)" fill="#fff"/>
    <g id="video" transform="translate(949.883 2964.831)">
      <path id="Trazado_749969" data-name="Trazado 749969" d="M106.9,56H13.917A5.924,5.924,0,0,0,8,61.917v72.7a5.924,5.924,0,0,0,5.917,5.917H106.9a5.924,5.924,0,0,0,5.917-5.917v-72.7A5.924,5.924,0,0,0,106.9,56Zm2.536,78.616a2.538,2.538,0,0,1-2.536,2.536H13.917a2.538,2.538,0,0,1-2.536-2.536v-7.608H109.44Zm0-10.989H11.381v-54.1H109.44Zm0-57.483H11.381V61.917a2.538,2.538,0,0,1,2.536-2.536H106.9a2.538,2.538,0,0,1,2.536,2.536Z" fill="#996b21"/>
      <path id="Trazado_749970" data-name="Trazado 749970" d="M33.691,83.381h1.691a1.691,1.691,0,1,0,0-3.381H33.691a1.691,1.691,0,0,0,0,3.381Z" transform="translate(-18.928 -18.928)" fill="#996b21"/>
      <path id="Trazado_749971" data-name="Trazado 749971" d="M65.691,83.381h1.691a1.691,1.691,0,0,0,0-3.381H65.691a1.691,1.691,0,0,0,0,3.381Z" transform="translate(-44.165 -18.928)" fill="#996b21"/>
      <path id="Trazado_749972" data-name="Trazado 749972" d="M97.691,83.381h1.691a1.691,1.691,0,1,0,0-3.381H97.691a1.691,1.691,0,1,0,0,3.381Z" transform="translate(-69.403 -18.928)" fill="#996b21"/>
      <path id="Trazado_749973" data-name="Trazado 749973" d="M186.6,168a18.6,18.6,0,1,0,18.6,18.6A18.6,18.6,0,0,0,186.6,168Zm0,33.813A15.216,15.216,0,1,1,201.813,186.6,15.216,15.216,0,0,1,186.6,201.813Z" transform="translate(-126.187 -88.331)" fill="#996b21"/>
      <path id="Trazado_749974" data-name="Trazado 749974" d="M244.773,223.048l-10.144-6.763A1.693,1.693,0,0,0,232,217.693v13.525a1.692,1.692,0,0,0,2.629,1.407l10.144-6.763a1.693,1.693,0,0,0,0-2.815Zm-9.392,5.011v-7.206l5.406,3.6Z" transform="translate(-176.661 -126.189)" fill="#996b21"/>
      <path id="Trazado_749975" data-name="Trazado 749975" d="M143.461,401.691H75.835a1.691,1.691,0,1,0-3.381,0H65.691a1.691,1.691,0,1,0,0,3.381h6.763a1.691,1.691,0,1,0,3.381,0h67.627a1.691,1.691,0,1,0,0-3.381Z" transform="translate(-44.165 -271.301)" fill="#996b21"/>
    </g>
  </g>
</svg>
