<svg xmlns="http://www.w3.org/2000/svg" width="295" height="343" viewBox="0 0 295 343">
  <g id="Grupo_1020858" data-name="Grupo 1020858" transform="translate(-810 -3155)">
    <path id="Trazado_755416" data-name="Trazado 755416" d="M20,0H275a20,20,0,0,1,20,20V323a20,20,0,0,1-20,20H20A20,20,0,0,1,0,323V20A20,20,0,0,1,20,0Z" transform="translate(810 3155)" fill="#b6e1fd"/>
    <path id="Trazado_755417" data-name="Trazado 755417" d="M-61.211-4.342V0H-64.3V-12.8h5.106a5.948,5.948,0,0,1,2.6.541,4.074,4.074,0,0,1,1.749,1.538,4.2,4.2,0,0,1,.62,2.263,3.7,3.7,0,0,1-1.34,2.993,5.561,5.561,0,0,1-3.678,1.121Zm0-2.382h2.021a1.906,1.906,0,0,0,1.367-.448,1.665,1.665,0,0,0,.47-1.266,2.059,2.059,0,0,0-.483-1.433,1.712,1.712,0,0,0-1.318-.545h-2.057ZM-48.23.176a4.889,4.889,0,0,1-3.542-1.305,4.507,4.507,0,0,1-1.354-3.4v-.246a5.84,5.84,0,0,1,.541-2.575,3.955,3.955,0,0,1,1.578-1.727,4.763,4.763,0,0,1,2.461-.611,4.117,4.117,0,0,1,3.164,1.244,4.887,4.887,0,0,1,1.16,3.467v1.151h-5.889a2.135,2.135,0,0,0,.694,1.257,2.066,2.066,0,0,0,1.389.457,2.662,2.662,0,0,0,2.2-.984l1.354,1.6A3.784,3.784,0,0,1-46.046-.277,5.3,5.3,0,0,1-48.23.176ZM-48.564-7.4q-1.3,0-1.547,1.723h2.988v-.229a1.467,1.467,0,0,0-.36-1.1A1.434,1.434,0,0,0-48.564-7.4Zm11.285.571-.976-.07a1.752,1.752,0,0,0-1.793.879V0h-2.962V-9.51h2.777l.1,1.222a2.294,2.294,0,0,1,2.083-1.4,2.888,2.888,0,0,1,.826.105Zm6.047,4.157a.684.684,0,0,0-.4-.606,6.016,6.016,0,0,0-1.5-.475A6.853,6.853,0,0,1-34.958-4.4a3.062,3.062,0,0,1-1.1-.971,2.319,2.319,0,0,1-.378-1.31,2.628,2.628,0,0,1,1.081-2.158,4.453,4.453,0,0,1,2.83-.848,4.934,4.934,0,0,1,3.023.853,2.666,2.666,0,0,1,1.143,2.241h-2.971q0-1.143-1.2-1.143a1.194,1.194,0,0,0-.782.259.8.8,0,0,0-.316.646.737.737,0,0,0,.387.642,3.654,3.654,0,0,0,1.235.4,10.671,10.671,0,0,1,1.49.378A2.706,2.706,0,0,1-28.375-2.76,2.491,2.491,0,0,1-29.531-.642a5.068,5.068,0,0,1-2.993.817A5.172,5.172,0,0,1-34.7-.264a3.645,3.645,0,0,1-1.494-1.2,2.707,2.707,0,0,1-.536-1.591h2.769a1.145,1.145,0,0,0,.439.962,1.808,1.808,0,0,0,1.081.3,1.422,1.422,0,0,0,.91-.246A.787.787,0,0,0-31.232-2.672Zm3.867-2.171a5.613,5.613,0,0,1,.554-2.536A3.96,3.96,0,0,1-25.22-9.088a4.791,4.791,0,0,1,2.435-.6,4.373,4.373,0,0,1,3.366,1.323,5.076,5.076,0,0,1,1.23,3.6v.105a4.925,4.925,0,0,1-1.235,3.529A4.384,4.384,0,0,1-22.768.176a4.434,4.434,0,0,1-3.261-1.217,4.761,4.761,0,0,1-1.327-3.3Zm2.962.185a3.538,3.538,0,0,0,.413,1.934,1.376,1.376,0,0,0,1.222.615q1.582,0,1.617-2.435v-.3q0-2.558-1.635-2.558-1.485,0-1.608,2.206ZM-14.164-9.51l.1,1.116a3.225,3.225,0,0,1,2.716-1.292A2.713,2.713,0,0,1-9.132-8.8a4.226,4.226,0,0,1,.76,2.672V0h-2.971V-6a1.6,1.6,0,0,0-.29-1.059A1.342,1.342,0,0,0-12.687-7.4a1.413,1.413,0,0,0-1.292.686V0h-2.962V-9.51ZM-1.375,0a3.344,3.344,0,0,1-.281-.853A2.754,2.754,0,0,1-3.942.176,3.374,3.374,0,0,1-6.227-.637a2.588,2.588,0,0,1-.94-2.043A2.66,2.66,0,0,1-6.025-5.019,5.821,5.821,0,0,1-2.7-5.81h.914v-.5q0-1.316-1.134-1.316A.927.927,0,0,0-3.977-6.587H-6.939A2.655,2.655,0,0,1-5.766-8.825a4.931,4.931,0,0,1,2.993-.86A4.323,4.323,0,0,1,.1-8.8,3.086,3.086,0,0,1,1.182-6.363v4.21a4.311,4.311,0,0,0,.4,2V0ZM-3.23-1.934a1.652,1.652,0,0,0,.918-.237,1.487,1.487,0,0,0,.523-.536V-4.228H-2.65Q-4.2-4.228-4.2-2.839a.848.848,0,0,0,.272.655A.986.986,0,0,0-3.23-1.934ZM5.946,0H2.975V-13.5H5.946Zm4.948,0H7.923V-9.51h2.971ZM7.748-11.971A1.334,1.334,0,0,1,8.2-13.014a1.718,1.718,0,0,1,1.187-.407,1.718,1.718,0,0,1,1.187.407,1.334,1.334,0,0,1,.457,1.043,1.334,1.334,0,0,1-.457,1.043,1.718,1.718,0,0,1-1.187.407A1.718,1.718,0,0,1,8.2-10.927,1.334,1.334,0,0,1,7.748-11.971Zm8.464,9.686h4.333V0H12.467V-1.652l4.219-5.572H12.652V-9.51h7.8v1.6ZM27.338,0a3.344,3.344,0,0,1-.281-.853A2.754,2.754,0,0,1,24.772.176a3.374,3.374,0,0,1-2.285-.813,2.588,2.588,0,0,1-.94-2.043,2.66,2.66,0,0,1,1.143-2.338,5.821,5.821,0,0,1,3.322-.791h.914v-.5q0-1.316-1.134-1.316a.927.927,0,0,0-1.055,1.042H21.775a2.655,2.655,0,0,1,1.173-2.239,4.931,4.931,0,0,1,2.993-.86,4.323,4.323,0,0,1,2.874.888A3.086,3.086,0,0,1,29.9-6.363v4.21a4.311,4.311,0,0,0,.4,2V0ZM25.484-1.934a1.652,1.652,0,0,0,.918-.237,1.487,1.487,0,0,0,.523-.536V-4.228h-.861q-1.547,0-1.547,1.389a.848.848,0,0,0,.272.655A.986.986,0,0,0,25.484-1.934Zm10.072-.176a1.317,1.317,0,0,0,.967-.338,1.241,1.241,0,0,0,.334-.945h2.777A3.288,3.288,0,0,1,38.514-.826a4.168,4.168,0,0,1-2.887,1,4.22,4.22,0,0,1-3.27-1.3,5.125,5.125,0,0,1-1.2-3.6v-.123A5.792,5.792,0,0,1,31.693-7.4a3.872,3.872,0,0,1,1.534-1.7A4.573,4.573,0,0,1,35.6-9.686a4.116,4.116,0,0,1,2.944,1.028,3.647,3.647,0,0,1,1.09,2.786H36.857A1.626,1.626,0,0,0,36.5-7a1.244,1.244,0,0,0-.967-.4q-1.151,0-1.345,1.468a10.357,10.357,0,0,0-.062,1.283,4.068,4.068,0,0,0,.343,1.986A1.187,1.187,0,0,0,35.556-2.109ZM44.011,0H41.041V-9.51h2.971ZM40.865-11.971a1.334,1.334,0,0,1,.457-1.043,1.718,1.718,0,0,1,1.187-.407,1.718,1.718,0,0,1,1.187.407,1.334,1.334,0,0,1,.457,1.043,1.334,1.334,0,0,1-.457,1.043,1.718,1.718,0,0,1-1.187.407,1.718,1.718,0,0,1-1.187-.407A1.334,1.334,0,0,1,40.865-11.971Zm4.6,7.128a5.613,5.613,0,0,1,.554-2.536,3.96,3.96,0,0,1,1.591-1.709,4.791,4.791,0,0,1,2.435-.6,4.373,4.373,0,0,1,3.366,1.323,5.076,5.076,0,0,1,1.23,3.6v.105A4.925,4.925,0,0,1,53.4-1.129,4.384,4.384,0,0,1,50.058.176,4.434,4.434,0,0,1,46.8-1.042a4.761,4.761,0,0,1-1.327-3.3Zm2.962.185a3.538,3.538,0,0,0,.413,1.934,1.376,1.376,0,0,0,1.222.615q1.582,0,1.617-2.435v-.3q0-2.558-1.635-2.558-1.485,0-1.608,2.206ZM50.445-13.5h3.129L51.13-10.74l-2.417,0Zm8.218,3.99.1,1.116a3.225,3.225,0,0,1,2.716-1.292,2.713,2.713,0,0,1,2.219.888,4.226,4.226,0,0,1,.76,2.672V0H61.484V-6a1.6,1.6,0,0,0-.29-1.059A1.342,1.342,0,0,0,60.139-7.4a1.413,1.413,0,0,0-1.292.686V0H55.885V-9.51Z" transform="translate(958 3213)" fill="#12263f"/>
    <g id="segmentation" transform="translate(897.322 3274)">
      <g id="Grupo_881618" data-name="Grupo 881618" transform="translate(0 0)">
        <line id="Línea_2647" data-name="Línea 2647" x2="28.784" y2="28.784" transform="translate(62.793 61.358)" fill="none" stroke="#12263f" stroke-linecap="round" stroke-linejoin="round" stroke-miterlimit="10" stroke-width="3"/>
        <line id="Línea_2648" data-name="Línea 2648" y2="18.109" transform="translate(54.535 67.601)" fill="none" stroke="#12263f" stroke-linecap="round" stroke-linejoin="round" stroke-miterlimit="10" stroke-width="3"/>
        <line id="Línea_2649" data-name="Línea 2649" x1="17.235" transform="translate(68.541 52.912)" fill="none" stroke="#12263f" stroke-linecap="round" stroke-linejoin="round" stroke-miterlimit="10" stroke-width="3"/>
        <circle id="Elipse_8544" data-name="Elipse 8544" cx="36.267" cy="36.267" r="36.267" fill="none" stroke="#12263f" stroke-linecap="round" stroke-linejoin="round" stroke-miterlimit="10" stroke-width="3"/>
        <circle id="Elipse_8545" data-name="Elipse 8545" cx="17.098" cy="17.098" r="17.098" transform="translate(86.149 35.814)" fill="none" stroke="#12263f" stroke-linecap="round" stroke-linejoin="round" stroke-miterlimit="10" stroke-width="3"/>
        <circle id="Elipse_8546" data-name="Elipse 8546" cx="17.098" cy="17.098" r="17.098" transform="translate(86.149 86.16)" fill="none" stroke="#12263f" stroke-linecap="round" stroke-linejoin="round" stroke-miterlimit="10" stroke-width="3"/>
        <path id="Trazado_749392" data-name="Trazado 749392" d="M194.285,372.313a17.1,17.1,0,1,1-5.814-6.283" transform="translate(-124.69 -277.156)" fill="none" stroke="#12263f" stroke-linecap="round" stroke-linejoin="round" stroke-miterlimit="10" stroke-width="3"/>
        <path id="Trazado_749393" data-name="Trazado 749393" d="M105.814,82.01q.013-.369.014-.741a19.718,19.718,0,0,0-4.806-12.928,10.133,10.133,0,0,0-3.794-5.879,25.659,25.659,0,0,0-31.682.574,10.153,10.153,0,0,0-3.508,5.614A19.716,19.716,0,0,0,57.5,81.27q0,.359.013.714" transform="translate(-45.394 -45.219)" fill="none" stroke="#12263f" stroke-linecap="round" stroke-linejoin="round" stroke-miterlimit="10" stroke-width="3"/>
        <path id="Trazado_749394" data-name="Trazado 749394" d="M53.445,169.555a7.264,7.264,0,1,1-.271-13.592" transform="translate(-34.771 -119.697)" fill="none" stroke="#12263f" stroke-linecap="round" stroke-linejoin="round" stroke-miterlimit="10" stroke-width="3"/>
        <path id="Trazado_749395" data-name="Trazado 749395" d="M230.492,155.963a7.265,7.265,0,1,1-.183,13.627" transform="translate(-176.362 -119.697)" fill="none" stroke="#12263f" stroke-linecap="round" stroke-linejoin="round" stroke-miterlimit="10" stroke-width="3"/>
        <path id="Trazado_749396" data-name="Trazado 749396" d="M89.058,160.251a19.7,19.7,0,0,0,11.707.469h0a19.706,19.706,0,0,0,14.578-19.026q0-.435-.019-.865a3.929,3.929,0,0,0-1.243-2.712,9.1,9.1,0,0,1-2.621-4.76l-.009-.044a3.161,3.161,0,0,0-2.685-2.5,6.838,6.838,0,0,0-4.62,1.072,15.6,15.6,0,0,1-8.5,2.391,16.037,16.037,0,0,1-7.245-1.667,13.314,13.314,0,0,1-1.254-.723,6.819,6.819,0,0,0-4.975-1.015,3.163,3.163,0,0,0-2.511,2.472l0,.016a9.137,9.137,0,0,1-2.511,4.656,3.892,3.892,0,0,0-1.167,2.593q-.025.458-.029.921A19.635,19.635,0,0,0,81.729,155.6" transform="translate(-59.378 -100.91)" fill="none" stroke="#12263f" stroke-linecap="round" stroke-linejoin="round" stroke-miterlimit="10" stroke-width="3"/>
        <g id="Grupo_881614" data-name="Grupo 881614" transform="translate(99.552 97.204)">
          <g id="Grupo_881613" data-name="Grupo 881613">
            <path id="Trazado_749397" data-name="Trazado 749397" d="M424.944,411.71a2.786,2.786,0,0,1-2.786,2.786c-.763,0-3.517.012-3.517.012v-5.584h3.517A2.786,2.786,0,0,1,424.944,411.71Z" transform="translate(-418.641 -408.924)" fill="none" stroke="#12263f" stroke-linecap="round" stroke-linejoin="round" stroke-miterlimit="10" stroke-width="3"/>
            <path id="Trazado_749398" data-name="Trazado 749398" d="M426.032,435.206a3.259,3.259,0,0,1-3.259,3.259c-.893,0-4.131.014-4.131.014v-6.532h4.131A3.259,3.259,0,0,1,426.032,435.206Z" transform="translate(-418.642 -426.372)" fill="none" stroke="#12263f" stroke-linecap="round" stroke-linejoin="round" stroke-miterlimit="10" stroke-width="3"/>
          </g>
        </g>
        <g id="Grupo_881615" data-name="Grupo 881615" transform="translate(98.313 46.858)">
          <path id="Trazado_749399" data-name="Trazado 749399" d="M422.965,202.042a6.054,6.054,0,1,0-3.385,11.073,4.767,4.767,0,0,0,3.814-1.709" transform="translate(-413.526 -201.008)" fill="none" stroke="#12263f" stroke-linecap="round" stroke-linejoin="round" stroke-miterlimit="10" stroke-width="3"/>
        </g>
        <g id="Grupo_881617" data-name="Grupo 881617" transform="translate(49.755 97.204)">
          <g id="Grupo_881616" data-name="Grupo 881616">
            <path id="Trazado_749400" data-name="Trazado 749400" d="M213,421.031l4.546-11.937a.274.274,0,0,1,.508,0l4.5,11.937" transform="translate(-212.997 -408.924)" fill="none" stroke="#12263f" stroke-linecap="round" stroke-linejoin="round" stroke-miterlimit="10" stroke-width="3"/>
            <line id="Línea_2650" data-name="Línea 2650" x2="6.746" transform="translate(1.418 9.134)" fill="none" stroke="#12263f" stroke-linecap="round" stroke-linejoin="round" stroke-miterlimit="10" stroke-width="3"/>
          </g>
        </g>
      </g>
    </g>
  </g>
</svg>
