<svg xmlns="http://www.w3.org/2000/svg" width="250" height="250" viewBox="0 0 250 250">
  <g id="Grupo_1020783" data-name="Grupo 1020783" transform="translate(-3015 7841)">
    <g id="Rectángulo_361832" data-name="Rectángulo 361832" transform="translate(3015 -7841)" fill="#fff" stroke="#707070" stroke-width="1">
      <rect width="250" height="250" stroke="none"/>
      <rect x="0.5" y="0.5" width="249" height="249" fill="none"/>
    </g>
    <g id="didi-food-logo-brandlogos.net_anf1aygg6" transform="translate(3031.013 -7735.993)">
      <rect id="Rectángulo_361824" data-name="Rectángulo 361824" width="3.703" height="19.369" transform="translate(127.126 14.903)" fill="#5a5a5a"/>
      <path id="Trazado_749836" data-name="Trazado 749836" d="M363.8,383.184V355.65h9.447c8.593,0,13.2,6.077,13.2,13.767,0,7.833-4.795,13.767-13.245,13.767Zm8.735-3.276c6.646,0,10.207-3.466,10.207-10.492,0-7.168-3.8-10.492-10.064-10.492H367.5v20.983Z" transform="translate(-264.161 -348.913)" fill="#5a5a5a"/>
      <path id="Trazado_749837" data-name="Trazado 749837" d="M420.6,356.624A2.374,2.374,0,1,1,422.974,359,2.374,2.374,0,0,1,420.6,356.624Z" transform="translate(-293.996 -348.177)" fill="#5a5a5a"/>
      <rect id="Rectángulo_361825" data-name="Rectángulo 361825" width="3.703" height="19.369" transform="translate(89.527 14.903)" fill="#5a5a5a"/>
      <path id="Trazado_749838" data-name="Trazado 749838" d="M284.3,383.184V355.65h9.447c8.593,0,13.2,6.077,13.2,13.767,0,7.833-4.795,13.767-13.245,13.767Zm8.735-3.276c6.646,0,10.207-3.466,10.207-10.492,0-7.168-3.8-10.492-10.064-10.492H288v20.983Z" transform="translate(-222.402 -348.913)" fill="#5a5a5a"/>
      <path id="Trazado_749839" data-name="Trazado 749839" d="M341.4,356.624A2.374,2.374,0,1,1,343.774,359,2.412,2.412,0,0,1,341.4,356.624Z" transform="translate(-252.395 -348.177)" fill="#5a5a5a"/>
      <path id="Trazado_749840" data-name="Trazado 749840" d="M495.737,371.65c-6.219,0-9.637,3.561-9.637,9.969s3.418,9.969,9.637,9.969,9.637-3.56,9.637-9.969S501.909,371.65,495.737,371.65Zm0,17.66c-4.937,0-7.358-2.516-7.358-7.738s2.421-7.738,7.358-7.738,7.358,2.516,7.358,7.738S500.674,389.31,495.737,389.31Z" transform="translate(-328.401 -357.317)" fill="#5a5a5a"/>
      <path id="Trazado_749841" data-name="Trazado 749841" d="M540.337,371.65c-6.219,0-9.637,3.561-9.637,9.969s3.418,9.969,9.637,9.969,9.637-3.56,9.637-9.969S546.509,371.65,540.337,371.65Zm0,17.66c-4.937,0-7.358-2.516-7.358-7.738s2.421-7.738,7.358-7.738,7.358,2.516,7.358,7.738S545.274,389.31,540.337,389.31Z" transform="translate(-351.828 -357.317)" fill="#5a5a5a"/>
      <path id="Trazado_749842" data-name="Trazado 749842" d="M300.226,15.136h14.432V13H297.9V41.1h2.326V28.619h11.963V26.435H300.226Z" transform="translate(-156.485 -6.832)" fill="#5a5a5a"/>
      <path id="Trazado_749843" data-name="Trazado 749843" d="M591.483,354.725v10.587c-1.567-1.851-3.94-2.848-7.074-2.848-5.934,0-9.21,3.56-9.21,10.017s3.276,10.017,9.21,10.017a8.9,8.9,0,0,0,7.026-2.8l.19,2.469h2.041V354.25Zm-7.026,25.446c-4.652,0-6.931-2.516-6.931-7.738s2.279-7.738,6.931-7.738,6.931,2.516,6.931,7.738S589.11,380.17,584.457,380.17Z" transform="translate(-375.203 -348.177)" fill="#5a5a5a"/>
      <path id="Trazado_749844" data-name="Trazado 749844" d="M178.959,372.921a15.742,15.742,0,0,0,15.381-15.476v-7.216h9.352v8.023c-.19,13.008-11.489,23.309-24.734,23.594h0c-13.482-.095-24.876-10.444-25.066-23.594V343.867a2.255,2.255,0,0,1,2.374-2.421h38.026v8.783H164.479a1.149,1.149,0,0,0-1.234,1.234V357.3A15.8,15.8,0,0,0,178.959,372.921Z" transform="translate(-153.9 -341.45)" fill="#ff7d41"/>
    </g>
  </g>
</svg>
