<svg id="Grupo_882180" data-name="Grupo 882180" xmlns="http://www.w3.org/2000/svg" xmlns:xlink="http://www.w3.org/1999/xlink" width="815.723" height="244.17" viewBox="0 0 815.723 244.17">
  <defs>
    <clipPath id="clip-path">
      <rect id="Rectángulo_361818" data-name="Rectángulo 361818" width="815.723" height="244.17" fill="none"/>
    </clipPath>
    <clipPath id="clip-path-3">
      <rect id="Rectángulo_361809" data-name="Rectángulo 361809" width="39.465" height="39.465" fill="none"/>
    </clipPath>
    <clipPath id="clip-path-4">
      <rect id="Rectángulo_361810" data-name="Rectángulo 361810" width="7.484" height="7.484" fill="none"/>
    </clipPath>
    <clipPath id="clip-path-6">
      <rect id="Rectángulo_361812" data-name="Rectángulo 361812" width="7.485" height="7.484" fill="none"/>
    </clipPath>
    <clipPath id="clip-path-9">
      <path id="Trazado_749656" data-name="Trazado 749656" d="M630.051,24.979a4.494,4.494,0,0,0-4.485,4.485V72.134a4.5,4.5,0,0,0,4.485,4.486h39.926a4.338,4.338,0,0,1,3.208,1.349L683.6,88.623a4.336,4.336,0,0,0,3.208,1.351h25.854a4.487,4.487,0,0,0,4.138-6.221L693.317,27.731a4.408,4.408,0,0,0-4.137-2.752Z" transform="translate(-625.566 -24.979)" fill="none"/>
    </clipPath>
    <clipPath id="clip-path-11">
      <rect id="Rectángulo_361816" data-name="Rectángulo 361816" width="89.433" height="25.184" fill="none"/>
    </clipPath>
  </defs>
  <g id="Grupo_882179" data-name="Grupo 882179" clip-path="url(#clip-path)">
    <rect id="Rectángulo_361807" data-name="Rectángulo 361807" width="815.724" height="12.825" transform="translate(0 231.345)" fill="#a09a9a"/>
    <g id="Grupo_882171" data-name="Grupo 882171">
      <g id="Grupo_882170" data-name="Grupo 882170" clip-path="url(#clip-path)">
        <path id="Trazado_749614" data-name="Trazado 749614" d="M431.4,0H631.993a3.869,3.869,0,0,1,3.858,3.858V146.291a3.869,3.869,0,0,1-3.858,3.858H431.4a3.869,3.869,0,0,1-3.858-3.858V3.858A3.869,3.869,0,0,1,431.4,0" transform="translate(49.733 0)" fill="#d76f38" fill-rule="evenodd"/>
        <path id="Trazado_749615" data-name="Trazado 749615" d="M432.967,14.947h196.2V5.425h-196.2Zm0,23.146h196.2V18.211h-196.2Zm0,23.145h196.2V41.356h-196.2Zm0,23.146h196.2V64.5h-196.2Zm0,23.146h196.2V87.648h-196.2Zm0,23.145h196.2V110.793h-196.2Zm0,12.786h196.2v-9.522h-196.2Z" transform="translate(50.364 0.631)" fill="#8d4429" fill-rule="evenodd"/>
        <path id="Trazado_749616" data-name="Trazado 749616" d="M526.334,37.612c17.726,0,32.1,14.814,32.1,33.087q0,1.15-.075,2.282l-15.9-6.662,6.61-6.49L508.832,42.961a31.258,31.258,0,0,1,17.5-5.349m26.653,51.522a31.818,31.818,0,0,1-26.653,14.652c-16.538,0-30.154-12.895-31.9-29.463l20.18,4.129-8.069,7.923ZM499.9,45.163l-20.79,20.412,46.64,9.542-6.61,6.489,53.144,3.158-39.5-16.555,6.61-6.49Z" transform="translate(55.732 4.375)" fill="#fff" fill-rule="evenodd"/>
        <rect id="Rectángulo_361808" data-name="Rectángulo 361808" width="218.398" height="8.309" transform="translate(473.714 154.303)"/>
        <path id="Trazado_749617" data-name="Trazado 749617" d="M621.1,17.544h74.464A4.406,4.406,0,0,1,699.7,20.3l30.842,73.568a4.28,4.28,0,0,1,.348,1.734v95.24a2.977,2.977,0,0,1-2.967,2.968H715.311a38.427,38.427,0,1,0-76.854,0H621.1a2.978,2.978,0,0,1-2.968-2.968V20.512a2.977,2.977,0,0,1,2.968-2.968" transform="translate(71.903 2.041)" fill="#d76f38" fill-rule="evenodd"/>
        <path id="Trazado_749618" data-name="Trazado 749618" d="M623.155,29.745a7.188,7.188,0,0,1,7.178-7.178H689.46a7.1,7.1,0,0,1,6.62,4.4l23.485,56.023a7.177,7.177,0,0,1-6.62,9.952H687.091a7.026,7.026,0,0,1-5.133-2.16L671.542,80.131a1.654,1.654,0,0,0-1.283-.539H630.333a7.188,7.188,0,0,1-7.178-7.178Z" transform="translate(72.487 2.625)" fill="#8d4429" fill-rule="evenodd"/>
        <path id="Trazado_749619" data-name="Trazado 749619" d="M625.566,29.465V72.134a4.494,4.494,0,0,0,4.487,4.485h39.925a4.339,4.339,0,0,1,3.208,1.35L683.6,88.623a4.339,4.339,0,0,0,3.208,1.35h25.854a4.486,4.486,0,0,0,4.137-6.22L693.317,27.73a4.409,4.409,0,0,0-4.138-2.752H630.053a4.5,4.5,0,0,0-4.487,4.487" transform="translate(72.768 2.906)" fill="#fff" fill-rule="evenodd"/>
        <path id="Trazado_749620" data-name="Trazado 749620" d="M626.747,89.391v76.245a4.491,4.491,0,0,0,2.358,3.946,49.566,49.566,0,0,1,88.2-10.817v-56.02a4.5,4.5,0,0,0-4.486-4.487H684.125a4.334,4.334,0,0,1-3.207-1.35L670.5,86.255a4.331,4.331,0,0,0-3.206-1.351h-36.06a4.5,4.5,0,0,0-4.486,4.486" transform="translate(72.905 9.876)" fill="#8d4429" fill-rule="evenodd"/>
        <path id="Trazado_749621" data-name="Trazado 749621" d="M720.069,97.72H712.8a1.636,1.636,0,0,0-1.632,1.632v60.385a1.636,1.636,0,0,0,1.632,1.632h7.271Z" transform="translate(82.725 11.367)" fill-rule="evenodd"/>
        <path id="Trazado_749622" data-name="Trazado 749622" d="M719.76,101.541h-5.081a.856.856,0,0,0-.854.854v2a.856.856,0,0,0,.854.854h5.081Zm0,55.118v-3.708h-5.081a.855.855,0,0,0-.854.853v2a.856.856,0,0,0,.854.853Zm0-5.712v-3.708h-5.081a.856.856,0,0,0-.854.853v2a.856.856,0,0,0,.854.853Zm0-5.711v-3.71h-5.081a.856.856,0,0,0-.854.853v2a.857.857,0,0,0,.854.854Zm0-5.712v-3.71h-5.081a.856.856,0,0,0-.854.853v2a.856.856,0,0,0,.854.854Zm0-5.712V130.1h-5.081a.856.856,0,0,0-.854.853v2a.856.856,0,0,0,.854.854Zm0-5.712v-3.71h-5.081a.856.856,0,0,0-.854.854v2a.856.856,0,0,0,.854.854Zm0-5.712v-3.71h-5.081a.856.856,0,0,0-.854.854v2a.856.856,0,0,0,.854.854Zm0-5.712v-3.71h-5.081a.856.856,0,0,0-.854.854v2a.856.856,0,0,0,.854.854Zm0-5.712v-3.71h-5.081a.856.856,0,0,0-.854.854v2a.856.856,0,0,0,.854.853Z" transform="translate(83.034 11.812)" fill="#4e4e4e" fill-rule="evenodd"/>
        <path id="Trazado_749623" data-name="Trazado 749623" d="M634.991,90.41h9.792a1.413,1.413,0,0,1,1.409,1.41V93.9a1.413,1.413,0,0,1-1.409,1.41h-9.792a1.414,1.414,0,0,1-1.41-1.41V91.82a1.414,1.414,0,0,1,1.41-1.41" transform="translate(73.7 10.517)" fill="#d76f38" fill-rule="evenodd"/>
        <path id="Trazado_749624" data-name="Trazado 749624" d="M719.671,108.594a15.908,15.908,0,0,0,0,23.311Z" transform="translate(83.123 12.632)" fill="#eeb400" fill-rule="evenodd"/>
        <path id="Trazado_749625" data-name="Trazado 749625" d="M576.439,138.224h22.07a19.38,19.38,0,1,1,0,38.761h-22.07a19.38,19.38,0,1,1,0-38.761" transform="translate(64.799 16.079)" fill="#d76f38" fill-rule="evenodd"/>
        <path id="Trazado_749626" data-name="Trazado 749626" d="M579.535,138.224v38.761h-4.98q-.658,0-1.307-.045V138.27c.432-.029.869-.046,1.307-.046Zm12.111,0h4.98c.439,0,.875.017,1.307.046V176.94q-.648.044-1.307.045h-4.98Z" transform="translate(66.682 16.079)" fill="#8d4429" fill-rule="evenodd"/>
        <path id="Trazado_749627" data-name="Trazado 749627" d="M674.525,143.574a35.757,35.757,0,1,1-35.757,35.757,35.757,35.757,0,0,1,35.757-35.757m0,13.78A21.977,21.977,0,1,0,696.5,179.331a21.977,21.977,0,0,0-21.977-21.977" transform="translate(74.304 16.701)" fill="#111c3e" fill-rule="evenodd"/>
        <path id="Trazado_749628" data-name="Trazado 749628" d="M673.089,155.918A21.977,21.977,0,1,1,651.112,177.9a21.977,21.977,0,0,1,21.977-21.977m-7.867,11.842,3.159,3.159a8.37,8.37,0,0,1,3.1-1.287v-4.468a12.778,12.778,0,0,0-6.263,2.6m.891,5.428-3.159-3.159a12.762,12.762,0,0,0-2.594,6.263h4.466a8.363,8.363,0,0,1,1.287-3.1m-1.287,6.311h-4.467a12.767,12.767,0,0,0,2.6,6.264l3.159-3.159a8.376,8.376,0,0,1-1.287-3.1m3.555,5.372-3.159,3.159a12.767,12.767,0,0,0,6.263,2.6v-4.468a8.37,8.37,0,0,1-3.1-1.287m6.311,1.287v4.468a12.761,12.761,0,0,0,6.264-2.594l-3.159-3.159a8.355,8.355,0,0,1-3.1,1.286m5.373-3.554,3.158,3.159a12.757,12.757,0,0,0,2.6-6.264h-4.468a8.373,8.373,0,0,1-1.286,3.1m1.287-6.312h4.466a12.759,12.759,0,0,0-2.594-6.264l-3.159,3.159a8.374,8.374,0,0,1,1.287,3.1m-3.555-5.372,3.159-3.159a12.777,12.777,0,0,0-6.264-2.6v4.468a8.376,8.376,0,0,1,3.1,1.287" transform="translate(75.74 18.137)" fill="#90a1a1" fill-rule="evenodd"/>
        <g id="Grupo_882154" data-name="Grupo 882154" transform="translate(729.096 176.299)" style="mix-blend-mode: multiply;isolation: isolate">
          <g id="Grupo_882153" data-name="Grupo 882153">
            <g id="Grupo_882152" data-name="Grupo 882152" clip-path="url(#clip-path-3)">
              <path id="Trazado_749629" data-name="Trazado 749629" d="M672.855,157.929a19.732,19.732,0,1,1-19.732,19.732,19.732,19.732,0,0,1,19.732-19.732m0,3.1a16.631,16.631,0,1,0,16.631,16.631,16.631,16.631,0,0,0-16.631-16.631" transform="translate(-653.123 -157.929)" fill="#979797" fill-rule="evenodd"/>
            </g>
          </g>
        </g>
        <g id="Grupo_882157" data-name="Grupo 882157" transform="translate(745.087 192.29)" style="mix-blend-mode: multiply;isolation: isolate">
          <g id="Grupo_882156" data-name="Grupo 882156">
            <g id="Grupo_882155" data-name="Grupo 882155" clip-path="url(#clip-path-4)">
              <path id="Trazado_749630" data-name="Trazado 749630" d="M671.189,172.253a3.742,3.742,0,1,1-3.742,3.742,3.742,3.742,0,0,1,3.742-3.742" transform="translate(-667.447 -172.253)" fill="#979797" fill-rule="evenodd"/>
            </g>
          </g>
        </g>
        <path id="Trazado_749631" data-name="Trazado 749631" d="M524.96,143.574A35.757,35.757,0,1,1,489.2,179.331a35.757,35.757,0,0,1,35.757-35.757m0,13.78a21.977,21.977,0,1,0,21.977,21.977,21.977,21.977,0,0,0-21.977-21.977" transform="translate(56.906 16.701)" fill="#111c3e" fill-rule="evenodd"/>
        <path id="Trazado_749632" data-name="Trazado 749632" d="M523.524,155.918A21.977,21.977,0,1,1,501.547,177.9a21.977,21.977,0,0,1,21.977-21.977m-7.867,11.842,3.159,3.159a8.377,8.377,0,0,1,3.1-1.287v-4.468a12.777,12.777,0,0,0-6.263,2.6m.891,5.428-3.158-3.159a12.753,12.753,0,0,0-2.6,6.263h4.468a8.342,8.342,0,0,1,1.286-3.1m-1.287,6.311h-4.467a12.767,12.767,0,0,0,2.6,6.264l3.159-3.159a8.376,8.376,0,0,1-1.287-3.1m3.556,5.372-3.159,3.159a12.767,12.767,0,0,0,6.263,2.6v-4.468a8.377,8.377,0,0,1-3.1-1.287m6.312,1.287v4.468a12.762,12.762,0,0,0,6.263-2.594l-3.159-3.159a8.357,8.357,0,0,1-3.1,1.286M530.5,182.6l3.158,3.159a12.758,12.758,0,0,0,2.6-6.264h-4.468a8.373,8.373,0,0,1-1.286,3.1m1.287-6.312h4.468a12.772,12.772,0,0,0-2.6-6.264l-3.159,3.159a8.374,8.374,0,0,1,1.287,3.1m-3.556-5.372,3.159-3.159a12.778,12.778,0,0,0-6.263-2.6v4.468a8.377,8.377,0,0,1,3.1,1.287" transform="translate(58.342 18.137)" fill="#90a1a1" fill-rule="evenodd"/>
        <g id="Grupo_882160" data-name="Grupo 882160" transform="translate(562.132 176.299)" style="mix-blend-mode: multiply;isolation: isolate">
          <g id="Grupo_882159" data-name="Grupo 882159">
            <g id="Grupo_882158" data-name="Grupo 882158" clip-path="url(#clip-path-3)">
              <path id="Trazado_749633" data-name="Trazado 749633" d="M523.29,157.929a19.732,19.732,0,1,1-19.732,19.732,19.732,19.732,0,0,1,19.732-19.732m0,3.1a16.631,16.631,0,1,0,16.631,16.631A16.631,16.631,0,0,0,523.29,161.03" transform="translate(-503.557 -157.929)" fill="#979797" fill-rule="evenodd"/>
            </g>
          </g>
        </g>
        <g id="Grupo_882163" data-name="Grupo 882163" transform="translate(578.123 192.29)" style="mix-blend-mode: multiply;isolation: isolate">
          <g id="Grupo_882162" data-name="Grupo 882162">
            <g id="Grupo_882161" data-name="Grupo 882161" clip-path="url(#clip-path-6)">
              <path id="Trazado_749634" data-name="Trazado 749634" d="M521.624,172.253a3.742,3.742,0,1,1-3.742,3.742,3.742,3.742,0,0,1,3.742-3.742" transform="translate(-517.881 -172.253)" fill="#979797" fill-rule="evenodd"/>
            </g>
          </g>
        </g>
        <path id="Trazado_749635" data-name="Trazado 749635" d="M459.449,143.574a35.757,35.757,0,1,1-35.757,35.757,35.757,35.757,0,0,1,35.757-35.757m0,13.78a21.977,21.977,0,1,0,21.977,21.977,21.977,21.977,0,0,0-21.977-21.977" transform="translate(49.285 16.701)" fill="#111c3e" fill-rule="evenodd"/>
        <path id="Trazado_749636" data-name="Trazado 749636" d="M458.013,155.918A21.977,21.977,0,1,1,436.036,177.9a21.977,21.977,0,0,1,21.977-21.977m-7.867,11.842,3.159,3.159a8.37,8.37,0,0,1,3.1-1.287v-4.468a12.778,12.778,0,0,0-6.263,2.6m.891,5.428-3.159-3.159a12.761,12.761,0,0,0-2.594,6.263h4.468a8.342,8.342,0,0,1,1.286-3.1M449.75,179.5h-4.468a12.767,12.767,0,0,0,2.6,6.264l3.159-3.159a8.375,8.375,0,0,1-1.287-3.1m3.555,5.372-3.159,3.159a12.767,12.767,0,0,0,6.263,2.6v-4.468a8.37,8.37,0,0,1-3.1-1.287m6.311,1.287v4.468a12.761,12.761,0,0,0,6.264-2.594l-3.159-3.159a8.355,8.355,0,0,1-3.1,1.286m5.373-3.554,3.158,3.159a12.757,12.757,0,0,0,2.6-6.264h-4.468a8.373,8.373,0,0,1-1.286,3.1m1.287-6.312h4.466a12.76,12.76,0,0,0-2.594-6.264l-3.159,3.159a8.375,8.375,0,0,1,1.287,3.1m-3.555-5.372,3.159-3.159a12.777,12.777,0,0,0-6.264-2.6v4.468a8.375,8.375,0,0,1,3.1,1.287" transform="translate(50.721 18.137)" fill="#90a1a1" fill-rule="evenodd"/>
        <g id="Grupo_882166" data-name="Grupo 882166" transform="translate(489.001 176.299)" style="mix-blend-mode: multiply;isolation: isolate">
          <g id="Grupo_882165" data-name="Grupo 882165">
            <g id="Grupo_882164" data-name="Grupo 882164" clip-path="url(#clip-path-3)">
              <path id="Trazado_749637" data-name="Trazado 749637" d="M457.779,157.929a19.732,19.732,0,1,1-19.732,19.732,19.732,19.732,0,0,1,19.732-19.732m0,3.1a16.631,16.631,0,1,0,16.631,16.631,16.631,16.631,0,0,0-16.631-16.631" transform="translate(-438.046 -157.929)" fill="#979797" fill-rule="evenodd"/>
            </g>
          </g>
        </g>
        <g id="Grupo_882169" data-name="Grupo 882169" transform="translate(504.992 192.29)" style="mix-blend-mode: multiply;isolation: isolate">
          <g id="Grupo_882168" data-name="Grupo 882168">
            <g id="Grupo_882167" data-name="Grupo 882167" clip-path="url(#clip-path-4)">
              <path id="Trazado_749638" data-name="Trazado 749638" d="M456.113,172.253a3.742,3.742,0,1,1-3.742,3.742,3.742,3.742,0,0,1,3.742-3.742" transform="translate(-452.371 -172.253)" fill="#979797" fill-rule="evenodd"/>
            </g>
          </g>
        </g>
      </g>
    </g>
    <g id="Grupo_882173" data-name="Grupo 882173" transform="translate(698.334 27.885)">
      <g id="Grupo_882172" data-name="Grupo 882172" clip-path="url(#clip-path-9)">
        <path id="Trazado_749639" data-name="Trazado 749639" d="M667.623,82.867a7.637,7.637,0,0,0-.613-2.491l-1.963-5.3c-.209-.565-.419-1.131-.644-1.69-.3-.735-.62-1.457-.943-2.179l-.3-.676q-.707-1.579-1.414-3.157a2.3,2.3,0,0,0-.623-.935,2.6,2.6,0,0,0-1.9-.205,11.24,11.24,0,0,1-8.55-2.61,25.2,25.2,0,0,0,2.575,11.025,30.9,30.9,0,0,0,5.279,7.793c1.869,2.008,3.377,3.033,6.1,3.044,1.695.008,3.025-.74,3-2.613" transform="translate(-622.646 -20.484)" fill="#7f1111"/>
        <path id="Trazado_749640" data-name="Trazado 749640" d="M670.141,46.442c.242,1.609.777,3.16,1.059,4.763a15.569,15.569,0,0,1-1.073,8.9,8.61,8.61,0,0,1-4.789,4.954c-1.172.391-2.437.4-3.634.709a7.645,7.645,0,0,0-5.227,4.812,34.229,34.229,0,0,1-10.262-6.072,35.353,35.353,0,0,0-1.273-17.992,2.631,2.631,0,0,1-.085-2.276,2.422,2.422,0,0,1,1.141-.78,37.52,37.52,0,0,1,23.158-1.894c1.153.278,1.388.386,1.086,1.535a8.289,8.289,0,0,0-.1,3.336" transform="translate(-623.349 -23.167)" fill="#edb38c"/>
        <path id="Trazado_749641" data-name="Trazado 749641" d="M669.362,47.446a8.44,8.44,0,0,1,2.368,5.764c.019,2.581-1.144,5-2.283,7.321a13.011,13.011,0,0,1-2.014,3.251,4.409,4.409,0,0,1-3.38,1.541c-1.494-.1-2.713-1.178-3.8-2.2l-3.339-3.13a2.717,2.717,0,0,1-.986-1.452.469.469,0,0,0,.679-.083,1.348,1.348,0,0,0,.222-.735c.164-1.605.277-3.216.356-4.827.027-.558-.156-1.711.268-2.149.349-.359,1.644-.462,2.138-.6l9.776-2.7" transform="translate(-622.035 -22.366)" fill="#b7e2e1"/>
        <path id="Trazado_749642" data-name="Trazado 749642" d="M646.3,53.1a.293.293,0,0,0-.137.545c.121.068.327-.016.307-.176a2.52,2.52,0,0,0-.531-1.27c-.242-.3-.738-.807-1.135-.463a1.071,1.071,0,0,0-.081,1.255,2.949,2.949,0,0,0,1.125,1.062c.2.128.409-.157.247-.319a.7.7,0,0,0-1.04.141,1.79,1.79,0,0,0-.268.635,1.055,1.055,0,0,0-.018.63.632.632,0,0,0,1.016.167,1.9,1.9,0,0,0,.391-.558q.224-.415.448-.832c.125-.231-.227-.436-.352-.205-.162.3-.323.6-.486.9-.089.163-.314.6-.57.459-.2-.114-.007-.591.055-.748.071-.18.32-.518.537-.3.083-.107.165-.213.247-.32a3.355,3.355,0,0,1-.814-.656c-.178-.221-.4-.669-.212-.944.1-.154.269.029.37.118a2.046,2.046,0,0,1,.665,1.251l.307-.176-.068.215c.259-.026.261-.433,0-.407" transform="translate(-623.357 -21.88)" fill="#b7e2e1"/>
        <path id="Trazado_749643" data-name="Trazado 749643" d="M657.3,55.018a6.363,6.363,0,0,0,.127,3.2A6.374,6.374,0,0,0,659.7,60.7l2.631,2a4.6,4.6,0,0,0,2.194,1.106,1.582,1.582,0,0,0,1.8-1.292,2.324,2.324,0,0,0-.977-1.625q-1.192-1.1-2.383-2.195l5.616-.026q.069-1.35.136-2.7l-4.562-.348,4.349-.885a2.3,2.3,0,0,0,1.086-.426,1.535,1.535,0,0,0,.433-1.314,4.543,4.543,0,0,0-.443-1.362l-4.571,1.292a1.114,1.114,0,0,1-.616.054.388.388,0,0,1-.284-.477l3.76-1.965a2.341,2.341,0,0,0,1.054-.852.806.806,0,0,0-.349-1.146,6.339,6.339,0,0,0-1.994.38q-1.073.216-2.144.451-2.06.454-4.1.983c-.842.218-2.072.295-2.5,1.168a12.116,12.116,0,0,0-.534,3.5" transform="translate(-621.891 -22.241)" fill="#a3cecc"/>
        <path id="Trazado_749644" data-name="Trazado 749644" d="M661.054,43.1a109.427,109.427,0,0,1,14.888,1.043.807.807,0,0,0,.606-1.427,10.073,10.073,0,0,0-1.692-1.063,10.353,10.353,0,0,1-3.42-2.269c-.973-1.174-1.257-2.76-1.92-4.134a9.972,9.972,0,0,0-6.383-5,18.063,18.063,0,0,0-8.279-.06c-3.483.681-6.961,2.045-9.4,4.626s-3.6,6.562-2.168,9.809a5.255,5.255,0,0,0,.848,1.37c.523.593.747.323,1.41.042a33.145,33.145,0,0,1,3.588-1.271,41.268,41.268,0,0,1,7.554-1.426c1.451-.143,2.908-.221,4.365-.244" transform="translate(-623.577 -24.425)" fill="#8d4429"/>
        <path id="Trazado_749645" data-name="Trazado 749645" d="M670.2,39.647a21.339,21.339,0,0,0-4.761-6.725,9.158,9.158,0,0,0-7.647-2.362c-3.1.646-5.46,3.414-6.3,6.466a4.358,4.358,0,0,1-1.135,2.42c-.986.78-2.591.425-3.475,1.318-.621.626-.654,1.661-1.253,2.309a5.187,5.187,0,0,1-1.036.735,1.7,1.7,0,0,0-.8.949c-.5,2.075,3.224-.011,3.818-.248q2.626-1.043,5.33-1.871a69.84,69.84,0,0,1,11.025-2.425q1.582-.216,3.174-.359a14.84,14.84,0,0,1,3.063-.207" transform="translate(-623.452 -24.347)" fill="#d76f38"/>
        <path id="Trazado_749646" data-name="Trazado 749646" d="M653.76,49.918l-1.567.208A7.709,7.709,0,0,0,651.63,47a3.018,3.018,0,0,0-2.435-1.825,2.892,2.892,0,0,0-2.616,1.807,5.673,5.673,0,0,0-.229,3.321c.2,1.109.569,2.181.772,3.289a5.69,5.69,0,0,1-.223,3.321,6.2,6.2,0,0,0-1.942-4.367c.23.036.365-.29.271-.5a2.11,2.11,0,0,0-.462-.518,2.491,2.491,0,0,1-.479-1.516q-.114-1.313-.229-2.626a3.36,3.36,0,0,1,.192-1.865,3.208,3.208,0,0,1,1.7-1.271,32.7,32.7,0,0,1,7.21-2.141q.944-.164,1.9-.275c.583-.067.979-.208.814.471-.281,1.16-1.03,2.292-1.371,3.466a19.675,19.675,0,0,0-.738,4.147" transform="translate(-623.42 -23.025)" fill="#2d1416"/>
        <path id="Trazado_749647" data-name="Trazado 749647" d="M662.923,45.523l1.642.29c.357.064.783.083.933-.319a.568.568,0,0,0-.266-.745c-.3-.093-.861.165-1.146.262-.242.083-.946.549-1.163.511" transform="translate(-621.221 -22.682)" fill="#e5e2da"/>
        <path id="Trazado_749648" data-name="Trazado 749648" d="M666.743,43.392a2.374,2.374,0,0,0-1.284-.578,2.78,2.78,0,0,0-1.289.013,4.409,4.409,0,0,0-2.05,1.391c-.006.007,0,.018.011.01a2.853,2.853,0,0,1,2.1-.962,6.4,6.4,0,0,1,1.1,0,3.057,3.057,0,0,1,.581.148c.223.079.425.2.647.288.186.07.3-.186.182-.314" transform="translate(-621.314 -22.912)" fill="#2d1416"/>
        <path id="Trazado_749649" data-name="Trazado 749649" d="M666.2,44.52a4.919,4.919,0,0,0-.595.084.983.983,0,0,0,.424-.728c.011-.111-.16-.108-.172,0l0,.039a.872.872,0,0,1-.471.681.049.049,0,0,0-.028.058l-.01.008c-.3.073-.6.163-.891.253a15.2,15.2,0,0,0-1.692.636.123.123,0,0,0,0,.211,1.848,1.848,0,0,0,.735.166c.31.022.622.042.933.064.277.019.555.03.831.057a.051.051,0,0,0,.079.009h0a.818.818,0,0,1,.411.142c.093.07.151.173.246.241a.036.036,0,0,0,.054-.022c.041-.193-.124-.371-.277-.467a.853.853,0,0,0-.295-.109,1.407,1.407,0,0,0,.087-1.026c.217-.064.432-.129.644-.205.046-.017.044-.094-.012-.09m-.9.373a1.166,1.166,0,0,1-.029.335.936.936,0,0,1-.057.169c-.133,0-.172-.131-.17-.263.037-.074.086-.145.117-.2l.138-.039m-1.375.826a5.3,5.3,0,0,1-.769-.071c.458-.194.923-.373,1.394-.53l.135-.044a.779.779,0,0,0-.02.606.554.554,0,0,0,.061.1l-.8-.06" transform="translate(-621.246 -22.79)" fill="#2d1416"/>
        <path id="Trazado_749650" data-name="Trazado 749650" d="M658.022,50.836l-.171.3-6.584-3.326c-.181-.092-.674-.386-.448-.663.173-.21.741.19.912.27.728.345,1.446.71,2.158,1.083.352.183,4.172,2.273,4.133,2.34" transform="translate(-622.635 -22.408)" fill="#b7e2e1"/>
        <path id="Trazado_749651" data-name="Trazado 749651" d="M646.235,53.653l9.1,3.681,2.559,1.035a.309.309,0,0,0,.376-.214.313.313,0,0,0-.213-.376l-9.1-3.681L646.4,53.063a.308.308,0,0,0-.376.214.312.312,0,0,0,.213.376" transform="translate(-623.188 -21.714)" fill="#b7e2e1"/>
        <path id="Trazado_749652" data-name="Trazado 749652" d="M649.868,46.628a1.316,1.316,0,0,0-1.533-.584,1.947,1.947,0,0,0-1.2,1.234,3.875,3.875,0,0,0-.133,1.76,7.918,7.918,0,0,0,1.255,3.434c.258.388.673.8,1.121.665,1.082-.324.508-2.349.263-3.051-.406-1.17.773-2.367.222-3.458" transform="translate(-623.077 -22.535)" fill="#c48d69"/>
        <path id="Trazado_749653" data-name="Trazado 749653" d="M659.231,66.194a7.83,7.83,0,0,0,.8,2.8,7.654,7.654,0,0,1,.788,2.8,2.625,2.625,0,0,1-1.3,2.449l3.039-.009q.718,6.119,1.438,12.238l-24.7-.989c-.268-3.131-1.266-6.16-1.613-9.283s.078-6.565,2.229-8.856c1.273-1.355,3.048-2.2,4.183-3.67a11.572,11.572,0,0,0,1.592-3.406c.157-.466.478-2.28.933-2.477.589-.256,1.135.748,1.421,1.1a21.444,21.444,0,0,0,6.966,5.683c.368.188,4.221,1.586,4.222,1.612" transform="translate(-624.169 -21.166)" fill="#8d4429"/>
        <path id="Trazado_749654" data-name="Trazado 749654" d="M638.935,73.712a30.826,30.826,0,0,0,2.553,9.883,48,48,0,0,0,13.406.381,24.354,24.354,0,0,0-1.543-9.085c-.435-1.107-.973-2.172-1.509-3.234A15.608,15.608,0,0,0,650.271,69a8.02,8.02,0,0,0-6.285-2.934,4.332,4.332,0,0,0-4.468,2.729,9.383,9.383,0,0,0-.584,4.919" transform="translate(-624.02 -20.2)" fill="#d76f38"/>
        <path id="Trazado_749655" data-name="Trazado 749655" d="M689.495,94.992h0a1.937,1.937,0,0,1-1.194-2.465l6.145-17.685a1.936,1.936,0,1,1,3.658,1.27L691.96,93.8a1.937,1.937,0,0,1-2.465,1.193" transform="translate(-618.281 -19.33)" fill="#0b0c0c"/>
      </g>
    </g>
    <g id="Grupo_882178" data-name="Grupo 882178">
      <g id="Grupo_882177" data-name="Grupo 882177" clip-path="url(#clip-path)">
        <g id="Grupo_882176" data-name="Grupo 882176" transform="translate(700.049 67.694)" style="mix-blend-mode: multiply;isolation: isolate">
          <g id="Grupo_882175" data-name="Grupo 882175">
            <g id="Grupo_882174" data-name="Grupo 882174" clip-path="url(#clip-path-11)">
              <path id="Trazado_749657" data-name="Trazado 749657" d="M629.476,60.64l74.959.143a4.406,4.406,0,0,1,4.128,2.752l6.8,16.218c.606,1.446,1.716,2.781.858,4.07a4.367,4.367,0,0,1-3.735,2H686.632a4.336,4.336,0,0,1-3.207-1.35L673.007,73.82a4.338,4.338,0,0,0-3.207-1.35H629.874a4.462,4.462,0,0,1-2.772-.962V63.014a2.38,2.38,0,0,1,2.374-2.374" transform="translate(-627.102 -60.64)" fill="#cbd7d7" fill-rule="evenodd"/>
            </g>
          </g>
        </g>
        <path id="Trazado_749658" data-name="Trazado 749658" d="M77.037,187.606a3.336,3.336,0,0,0-.1,1.105,2.523,2.523,0,0,0,2.018,1.855c.941.236,1.933.175,2.886.362,1.642.32,3.055,1.341,4.631,1.9a8.663,8.663,0,0,0,5.34.143c.825-.246,1.711-.736,1.871-1.581.22-1.16-1.015-2.019-2.065-2.557a18.221,18.221,0,0,1-4.163-2.661,6.622,6.622,0,0,1-2.266-4.273c-.078-1.14.121-2.549-.835-3.173a2.665,2.665,0,0,0-1.258-.324c-.87-.073-2.911-.572-3.684-.208-.844.4-.775,1.462-.976,2.455q-.7,3.478-1.4,6.954" transform="translate(8.948 20.713)" fill="#281b1c"/>
        <path id="Trazado_749659" data-name="Trazado 749659" d="M75.059,148.4a13.087,13.087,0,0,1,1.536,4.114c.1.9-.019,1.806.016,2.709a15.925,15.925,0,0,0,.576,3.243q.792,3.161,1.583,6.326a2.977,2.977,0,0,1-.166,2.61c-.286.347-.755.614-.778,1.061-.031.605.733.88,1.117,1.347.777.944-.157,2.3-.317,3.511-.183,1.384.717,2.726.608,4.119-.1,1.255-1,2.353-1.029,3.611a3.67,3.67,0,0,0,2.55,3.261,10.756,10.756,0,0,0,4.368.368,1.844,1.844,0,0,0,.944-.221c1.218-.808-.367-3.374.965-3.977.2-.092.43-.1.628-.2.464-.217.623-.785.743-1.285,1.657-6.87,5.775-13.357,5.188-20.4a31.354,31.354,0,0,0-1.455-6.413Q91.07,148.65,90,145.113a7.886,7.886,0,0,0-5.545-6.05c-1.735-.854-13.075-7.5-14.084-6.1-.691.962,1.459,6.5,1.8,7.671a48.556,48.556,0,0,0,2.889,7.771" transform="translate(8.17 15.444)" fill="#274459"/>
        <path id="Trazado_749660" data-name="Trazado 749660" d="M85.769,158.567a21.827,21.827,0,0,1,.487,6.718c-.337,2.552-1.539,4.942-1.762,7.505a12.969,12.969,0,0,1-.463,3.811c-.385.951-1.134,1.727-1.482,2.691s-.055,2.322.946,2.552c.8-1.047.673-2.52,1.182-3.732a10.914,10.914,0,0,1,1.066-1.738c1.624-2.45,2.313-5.383,2.973-8.247a40.367,40.367,0,0,0,1.351-8.765c.027-4.764-1.63-9.375-3.578-13.723a9.519,9.519,0,0,0-2.468-3.71,1.821,1.821,0,0,0-1.256-.489c-1.347.127-.248,1.669-.006,2.343a38.323,38.323,0,0,1,1.088,4.974q1.033,4.889,1.922,9.809" transform="translate(9.551 16.452)" fill="#35526d"/>
        <path id="Trazado_749661" data-name="Trazado 749661" d="M82.445,161.649a6.53,6.53,0,0,0-2.172,1.036,2.214,2.214,0,0,0-.852,2.131,17.564,17.564,0,0,0,2.7-.632c.867-.253,1.92-.747,1.887-1.649a1.269,1.269,0,0,0-1.2-1.121,2.063,2.063,0,0,0-1.585.713" transform="translate(9.233 18.776)" fill="#d76f38"/>
        <path id="Trazado_749662" data-name="Trazado 749662" d="M80.243,165.939l-.617.362a2.571,2.571,0,0,0,1.727,1.466c.428.1.983.03,1.149-.378s-.2-.867-.6-1.081a2.592,2.592,0,0,0-2.143-.125" transform="translate(9.262 19.303)" fill="#d76f38"/>
        <path id="Trazado_749663" data-name="Trazado 749663" d="M48.474,178.879H42.141V146.921h6.333Zm-5.733-.6h5.135V147.52H42.74Z" transform="translate(4.902 17.09)" fill="#99caca"/>
        <path id="Trazado_749664" data-name="Trazado 749664" d="M47.873,180.146l-5.486-3.167L58.367,149.3l5.483,3.166Zm-4.667-3.386,4.447,2.569L63.033,152.69l-4.447-2.57Z" transform="translate(4.931 17.368)" fill="#99caca"/>
        <path id="Trazado_749665" data-name="Trazado 749665" d="M46.494,180.109l-3.166-5.484L71,158.645l3.167,5.483Zm-2.349-5.266,2.568,4.447,26.64-15.381-2.569-4.447Z" transform="translate(5.04 18.454)" fill="#99caca"/>
        <path id="Trazado_749666" data-name="Trazado 749666" d="M76.667,178.778H44.71v-6.334H76.667Zm-31.359-.6h30.76v-5.135H45.308Z" transform="translate(5.201 20.059)" fill="#99caca"/>
        <path id="Trazado_749667" data-name="Trazado 749667" d="M71,194.153,43.328,178.174l3.166-5.483L74.17,188.67Zm-26.858-16.2,26.639,15.381,2.569-4.447-26.64-15.381Z" transform="translate(5.04 20.088)" fill="#99caca"/>
        <path id="Trazado_749668" data-name="Trazado 749668" d="M58.367,204.473,42.388,176.8l5.484-3.167L63.85,201.307ZM43.205,177.017l15.381,26.64,4.447-2.57L47.653,174.449Z" transform="translate(4.931 20.197)" fill="#99caca"/>
        <path id="Trazado_749669" data-name="Trazado 749669" d="M48.474,206.971H42.141V175.013h6.333Zm-5.733-.6h5.136v-30.76H42.74Z" transform="translate(4.902 20.358)" fill="#99caca"/>
        <path id="Trazado_749670" data-name="Trazado 749670" d="M33.826,204.473l-5.484-3.166,15.98-27.676L49.8,176.8Zm-4.666-3.385,4.447,2.568,15.381-26.639-4.447-2.569Z" transform="translate(3.297 20.197)" fill="#99caca"/>
        <path id="Trazado_749671" data-name="Trazado 749671" d="M22.166,194.154,19,188.67l27.676-15.978,3.166,5.483Zm-2.349-5.266,2.568,4.449,26.64-15.381-2.568-4.449Z" transform="translate(2.21 20.088)" fill="#99caca"/>
        <path id="Trazado_749672" data-name="Trazado 749672" d="M48.576,178.778H16.618v-6.333H48.576Zm-31.359-.6h30.76v-5.135H17.217Z" transform="translate(1.933 20.059)" fill="#99caca"/>
        <path id="Trazado_749673" data-name="Trazado 749673" d="M46.676,180.109,19,164.13l3.166-5.484,27.676,15.98Zm-26.859-16.2,26.64,15.381,2.568-4.447-26.64-15.381Z" transform="translate(2.21 18.454)" fill="#99caca"/>
        <path id="Trazado_749674" data-name="Trazado 749674" d="M44.32,180.145,28.341,152.469l5.484-3.166L49.8,176.978ZM29.159,152.689l15.38,26.64,4.449-2.57L33.607,150.12Z" transform="translate(3.297 17.367)" fill="#99caca"/>
        <path id="Trazado_749675" data-name="Trazado 749675" d="M142.06,178.879h-6.333V146.921h6.333Zm-5.735-.6h5.136V147.52h-5.136Z" transform="translate(15.788 17.09)" fill="#99caca"/>
        <path id="Trazado_749676" data-name="Trazado 749676" d="M141.456,180.146l-5.483-3.167L151.951,149.3l5.485,3.166Zm-4.666-3.386,4.447,2.569,15.381-26.639-4.447-2.57Z" transform="translate(15.817 17.368)" fill="#99caca"/>
        <path id="Trazado_749677" data-name="Trazado 749677" d="M140.079,180.109l-3.166-5.484,27.676-15.979,3.166,5.483Zm-2.349-5.266,2.569,4.447,26.639-15.381-2.568-4.447Z" transform="translate(15.926 18.454)" fill="#99caca"/>
        <path id="Trazado_749678" data-name="Trazado 749678" d="M170.253,178.778H138.3v-6.334h31.958Zm-31.36-.6h30.76v-5.135h-30.76Z" transform="translate(16.087 20.059)" fill="#99caca"/>
        <path id="Trazado_749679" data-name="Trazado 749679" d="M164.589,194.153l-27.676-15.979,3.166-5.483,27.676,15.979Zm-26.859-16.2,26.64,15.381,2.568-4.447L140.3,173.508Z" transform="translate(15.926 20.088)" fill="#99caca"/>
        <path id="Trazado_749680" data-name="Trazado 749680" d="M151.952,204.473,135.973,176.8l5.483-3.167,15.979,27.676ZM136.79,177.017l15.381,26.64,4.447-2.57-15.381-26.638Z" transform="translate(15.817 20.197)" fill="#99caca"/>
        <path id="Trazado_749681" data-name="Trazado 749681" d="M142.06,206.971h-6.333V175.013h6.333Zm-5.735-.6h5.135v-30.76h-5.135Z" transform="translate(15.788 20.358)" fill="#99caca"/>
        <path id="Trazado_749682" data-name="Trazado 749682" d="M127.411,204.473l-5.483-3.166,15.978-27.676,5.485,3.167Zm-4.666-3.385,4.447,2.568,15.381-26.639-4.447-2.569Z" transform="translate(14.183 20.197)" fill="#99caca"/>
        <path id="Trazado_749683" data-name="Trazado 749683" d="M115.752,194.154l-3.167-5.484,27.676-15.978,3.166,5.483Zm-2.35-5.266,2.569,4.449,26.639-15.381-2.568-4.449Z" transform="translate(13.096 20.088)" fill="#99caca"/>
        <path id="Trazado_749684" data-name="Trazado 749684" d="M142.161,178.778H110.2v-6.333h31.957Zm-31.359-.6h30.76v-5.135H110.8Z" transform="translate(12.819 20.059)" fill="#99caca"/>
        <path id="Trazado_749685" data-name="Trazado 749685" d="M140.261,180.109,112.585,164.13l3.167-5.484,27.675,15.98Zm-26.859-16.2,26.64,15.381,2.568-4.447-26.639-15.381Z" transform="translate(13.096 18.454)" fill="#99caca"/>
        <path id="Trazado_749686" data-name="Trazado 749686" d="M137.906,180.145l-15.979-27.676,5.483-3.166,15.98,27.675Zm-15.162-27.456,15.381,26.64,4.447-2.57L127.192,150.12Z" transform="translate(14.183 17.367)" fill="#99caca"/>
        <path id="Trazado_749687" data-name="Trazado 749687" d="M123.554,129.282v-7.015a1.382,1.382,0,0,1,.951-1.354l6.8-2.447a2.251,2.251,0,0,0-1.524-4.236l-6.8,2.447h0a5.882,5.882,0,0,0-3.931,5.592v7.015a2.251,2.251,0,1,0,4.5,0" transform="translate(13.849 13.272)"/>
        <path id="Trazado_749688" data-name="Trazado 749688" d="M48.78,142.271A36.484,36.484,0,1,1,12.3,178.756,36.484,36.484,0,0,1,48.78,142.271m0,3.66A32.824,32.824,0,1,0,81.6,178.756,32.824,32.824,0,0,0,48.78,145.931" transform="translate(1.43 16.549)" fill="#000039" fill-rule="evenodd"/>
        <path id="Trazado_749689" data-name="Trazado 749689" d="M48.4,145.549a32.824,32.824,0,1,1-32.824,32.824A32.823,32.823,0,0,1,48.4,145.549m0,2.319A30.506,30.506,0,1,0,78.9,178.373,30.505,30.505,0,0,0,48.4,147.868" transform="translate(1.812 16.931)" fill="#98b8b8" fill-rule="evenodd"/>
        <path id="Trazado_749690" data-name="Trazado 749690" d="M45.309,178.456a3.173,3.173,0,1,0-3.173-3.173,3.178,3.178,0,0,0,3.173,3.173" transform="translate(4.901 20.021)" fill="#99caca" fill-rule="evenodd"/>
        <path id="Trazado_749691" data-name="Trazado 749691" d="M44.837,141.62c-.572,0-1.139.016-1.7.04v.706a1.848,1.848,0,0,0,1.839,1.844,34.615,34.615,0,0,1,34.465,33.479,1.846,1.846,0,0,0,1.843,1.785h.759c0-.214.008-.428.008-.643a37.21,37.21,0,0,0-37.21-37.21" transform="translate(5.017 16.474)" fill="#d76f38" fill-rule="evenodd"/>
        <path id="Trazado_749692" data-name="Trazado 749692" d="M142.365,142.271a36.484,36.484,0,1,1-36.484,36.485,36.484,36.484,0,0,1,36.484-36.485m0,3.66a32.824,32.824,0,1,0,32.823,32.824,32.823,32.823,0,0,0-32.823-32.824" transform="translate(12.316 16.549)" fill="#000039" fill-rule="evenodd"/>
        <path id="Trazado_749693" data-name="Trazado 749693" d="M141.983,145.549a32.824,32.824,0,1,1-32.823,32.824,32.823,32.823,0,0,1,32.823-32.824m0,2.319a30.506,30.506,0,1,0,30.5,30.506,30.506,30.506,0,0,0-30.5-30.506" transform="translate(12.698 16.931)" fill="#98b8b8" fill-rule="evenodd"/>
        <path id="Trazado_749694" data-name="Trazado 749694" d="M138.894,178.456a3.173,3.173,0,1,0-3.173-3.173,3.178,3.178,0,0,0,3.173,3.173" transform="translate(15.788 20.021)" fill="#99caca" fill-rule="evenodd"/>
        <path id="Trazado_749695" data-name="Trazado 749695" d="M142.44,141.62c.572,0,1.139.016,1.7.04v.706a1.848,1.848,0,0,1-1.839,1.844,34.615,34.615,0,0,0-34.465,33.479A1.845,1.845,0,0,1,106,179.473h-.758c0-.214-.008-.428-.008-.643a37.211,37.211,0,0,1,37.21-37.21" transform="translate(12.241 16.474)" fill="#d76f38" fill-rule="evenodd"/>
        <path id="Trazado_749696" data-name="Trazado 749696" d="M93.141,191.942a1.62,1.62,0,1,1-.852,3.127L44.721,182.011a1.621,1.621,0,0,1-1.138-1.989,1.588,1.588,0,0,1,.154-.375l27.311-47.953a1.623,1.623,0,1,1,2.822,1.6L47.589,179.437Z" transform="translate(5.063 15.223)" fill="#d76f38" fill-rule="evenodd"/>
        <path id="Trazado_749697" data-name="Trazado 749697" d="M92.869,192.576,46.4,179.821l26.752-46.967a.884.884,0,1,0-1.539-.871L44.3,179.936l-.083.2a.885.885,0,0,0,.621,1.084l47.568,13.058a.882.882,0,0,0,.461-1.7" transform="translate(5.14 15.3)" fill="#d76f38" fill-rule="evenodd"/>
        <path id="Trazado_749698" data-name="Trazado 749698" d="M67.528,133.274a2.267,2.267,0,1,1,4.306-1.423l20.257,61.01a2.269,2.269,0,0,1-4.308,1.424Z" transform="translate(7.842 15.156)" fill="#d76f38" fill-rule="evenodd"/>
        <path id="Trazado_749699" data-name="Trazado 749699" d="M68.151,132.964l20.256,61.01a1.53,1.53,0,1,0,2.906-.959l-20.256-61.01a1.53,1.53,0,1,0-2.906.959" transform="translate(7.919 15.233)" fill="#d76f38" fill-rule="evenodd"/>
        <path id="Trazado_749700" data-name="Trazado 749700" d="M141.328,177.819a1.62,1.62,0,1,1-1.093,3.05c-4.264-1.537-10.864-8.809-15.424-18.25-3.463-7.169-5.829-15.654-5.215-23.906a1.625,1.625,0,0,1,3.242.242c-.568,7.624,1.652,15.535,4.9,22.253,4.209,8.713,10,15.314,13.595,16.611" transform="translate(13.9 15.961)" fill="#779696" fill-rule="evenodd"/>
        <path id="Trazado_749701" data-name="Trazado 749701" d="M89.72,194.935a1.621,1.621,0,0,1-2.669-1.842L124.1,139.582v-6.066c-5.426,8.067-11.011,15.618-17.334,21.737-7.015,6.788-14.906,11.784-24.43,13.726a1.68,1.68,0,0,1-.361.073c-1-.033-1.528-2.221-1.034-3.032.055-.09.255-.126.358-.146,9.021-1.748,16.518-6.478,23.2-12.946,7.234-7,13.556-16.068,19.823-25.631a1.627,1.627,0,0,1,3.029.825v11.959h-.006a1.6,1.6,0,0,1-.287.921Z" transform="translate(9.393 14.714)" fill="#d76f38" fill-rule="evenodd"/>
        <path id="Trazado_749702" data-name="Trazado 749702" d="M126.535,139.266V128.045a.889.889,0,0,0-1.656-.449l-.009.015-.01.013c-5.862,8.944-12.217,18.3-19.925,25.756-6.674,6.459-14.286,11.323-23.5,13.127-.089.513.156,1.616.441,1.733l.236-.06c9.435-1.925,17.211-6.9,24.063-13.533,6.586-6.374,12.132-14.033,17.236-21.618l1.35-2.007v8.714l-37.177,53.7a.884.884,0,1,0,1.456,1L126.374,140.5a.871.871,0,0,0,.155-.5v-.739Z" transform="translate(9.47 14.791)" fill="#d76f38" fill-rule="evenodd"/>
        <path id="Trazado_749703" data-name="Trazado 749703" d="M87.917,193.691a6.772,6.772,0,1,0-6.773-6.773,6.785,6.785,0,0,0,6.773,6.773" transform="translate(9.439 20.955)" fill="#99caca" fill-rule="evenodd"/>
        <path id="Trazado_749704" data-name="Trazado 749704" d="M87.593,190.255a3.66,3.66,0,1,0-3.663-3.66,3.667,3.667,0,0,0,3.663,3.66" transform="translate(9.763 21.279)" fill="#7ba3a3" fill-rule="evenodd"/>
        <path id="Trazado_749705" data-name="Trazado 749705" d="M52.032,57.994,89.786,76.5c.736.361.892,1.56.349,2.667L65.664,129.087c-.543,1.106-1.587,1.718-2.323,1.357L25.587,111.937c-.735-.361-.892-1.561-.348-2.668L49.71,59.351c.543-1.106,1.587-1.718,2.322-1.357" transform="translate(2.898 6.734)" fill="#d76f38" fill-rule="evenodd"/>
        <path id="Trazado_749706" data-name="Trazado 749706" d="M51.664,61.71,85.094,78.1c.65.319.789,1.382.308,2.362L76.411,98.8c-15.506,1.442-22.667-23.15-42.769-3.324L49.608,62.912c.481-.98,1.405-1.522,2.056-1.2" transform="translate(3.913 7.168)" fill="#bb592e" fill-rule="evenodd"/>
        <path id="Trazado_749707" data-name="Trazado 749707" d="M62.257,79.82a13.612,13.612,0,0,1,6.236,18.212q-.209.425-.442.828L63.2,93.431,66.9,92.269,54.622,78.527a13.558,13.558,0,0,1,7.635,1.293m.825,24a13.619,13.619,0,0,1-19.624-16.4L50.4,92.711l-4.508,1.42ZM50.821,77.672,39.207,81.328,55.245,93.561l-3.693,1.162,19.671,11.09L59.176,92.324l3.693-1.163Z" transform="translate(4.561 9.035)" fill="#fff" fill-rule="evenodd"/>
        <path id="Trazado_749708" data-name="Trazado 749708" d="M117.326,68.87a16.479,16.479,0,0,1,1.12,1.354,1.372,1.372,0,0,1-.037,1.632c-.4.393-1.053.349-1.533.634a2.012,2.012,0,0,0-.8,1.7,18.319,18.319,0,0,1-.769,2.311,4.673,4.673,0,0,1-3.963,3.554c-1.8.063-3.823-1.039-5.594-.7a6.058,6.058,0,0,0-4.261,2.927,24.214,24.214,0,0,0-2.639,5.572l-5.217-2.4a3.31,3.31,0,0,1-1.6-1.178,2.374,2.374,0,0,1-.042-1.984,15.947,15.947,0,0,1,.947-1.816,8.359,8.359,0,0,0,.7-5.816c-.576-2.332-2.14-4.324-2.751-6.648C89.857,64.085,90.837,58,93.978,55.409a17.751,17.751,0,0,1,12.412-3.438c10.14,1.283,12.47,8.391,11.193,12.2-.551,1.647-1.464,3.087-.258,4.694" transform="translate(10.527 6.033)" fill="#9e765a"/>
        <path id="Trazado_749709" data-name="Trazado 749709" d="M109.734,78.125a1.531,1.531,0,0,0,.608.289,1.3,1.3,0,0,0,.649-.114,7.478,7.478,0,0,0,3.164-3.185l1.778-2.729a11.81,11.81,0,0,0,1.107-1.964,2.068,2.068,0,0,0,.192-.914,2.225,2.225,0,0,0-.388-.985,9.883,9.883,0,0,0-.971-1.314.586.586,0,0,0-.267-.2.521.521,0,0,0-.375.08c-.386.212-.689.558-1.086.748a3.227,3.227,0,0,1-1.8.118L108,67.411a1.617,1.617,0,0,0-.087,1.044,4.641,4.641,0,0,1-.659,2.267,9.176,9.176,0,0,1-1.97,2.973c-1.03.911.4,1.443,1.093,1.987q1.633,1.284,3.358,2.443" transform="translate(12.205 7.793)" fill="#d6e8e8"/>
        <path id="Trazado_749710" data-name="Trazado 749710" d="M108.7,69.293a1.474,1.474,0,0,1,.285-.6c.376-.387,1.016-.175,1.534-.02a5.022,5.022,0,0,0,3.73-.356,1.492,1.492,0,0,1,1-.285c.525.131.656.889.354,1.336a2.341,2.341,0,0,1-1.374.8,3.136,3.136,0,0,0-1.451.679l-.142.246c-.029.231.226.382.434.482a1.4,1.4,0,0,1,.771.7c.123.334-.089.8-.445.79a.891.891,0,0,1-.411-.15c-.477-.266-1.207-.416-1.458.068s.252.96.57,1.385a.622.622,0,0,1,.143.317c.025.386-.545.519-.89.345s-.612-.509-.989-.589a.848.848,0,0,0-.886,1.143c.154.309.488.488.691.768s.162.8-.182.837a.652.652,0,0,1-.4-.143c-.9-.573-1.792-1.154-2.72-1.679-.555-.314-1.225-.611-1.034-1.352a8.929,8.929,0,0,1,1.572-2.287,8.836,8.836,0,0,0,1.3-2.428" transform="translate(12.306 7.911)" fill="#c1d3d2"/>
        <path id="Trazado_749711" data-name="Trazado 749711" d="M115.444,55.093a14.389,14.389,0,0,0-6.364-3.315,13.336,13.336,0,0,0-4.056-.538,15.1,15.1,0,0,0-3.027.52A32.46,32.46,0,0,0,95.5,54.1c-2.121,1.058-4.2,2.545-5.078,4.748a12.143,12.143,0,0,0-.647,3.47c-.211,2.43-.384,5.045.862,7.143.3.5.671,1.122.346,1.6a2.6,2.6,0,0,1-.47.426,1.485,1.485,0,0,0,.185,2.249c.244.154.565.269.642.547.061.218-.059.443-.067.669a.693.693,0,0,0,.521.68c.34.078.809-.061.967.251.117.232-.075.491-.166.735-.27.72.5,1.523,1.266,1.468a1.958,1.958,0,0,0,1.6-1.462,5.573,5.573,0,0,0,.045-2.287,2.014,2.014,0,0,0,1.792-.3,1.043,1.043,0,0,0-.033-1.615,1.141,1.141,0,0,0,.319-1.4c-.186-.488-.545-.892-.751-1.371a3.77,3.77,0,0,1,.64-3.483,4.022,4.022,0,0,1,2.619-1.9,2.086,2.086,0,0,1,2.4,1.729,3.379,3.379,0,0,0,.025.7,1.109,1.109,0,0,0,1.58.549,2.264,2.264,0,0,0,1-1.582,1.266,1.266,0,0,1,.418-.879,1,1,0,0,1,.458-.118,14.405,14.405,0,0,0,1.865-.115,1.732,1.732,0,0,0,1.382-1.117,12.78,12.78,0,0,0,.045-1.295,1.5,1.5,0,0,1,1.763-1.179,1.091,1.091,0,0,1,.545.3,5.921,5.921,0,0,1,.442.775,1.267,1.267,0,0,0,1.773.269c.279-.224.449-.564.73-.787s.778-.258.932.066a2.421,2.421,0,0,1,.078.529.83.83,0,0,0,.943.535,2.424,2.424,0,0,0,1.047-.541.486.486,0,0,0,.746-.138c.167-.3-.03-.4-.095-.668-.17-.7-.162-1.442-.338-2.158a8.571,8.571,0,0,0-2.384-4.052" transform="translate(10.426 5.959)" fill="#252828"/>
        <path id="Trazado_749712" data-name="Trazado 749712" d="M110.835,65.5l-.086.04v.155l.135.1a6.584,6.584,0,0,0,1.33.492l.181.022c.183-.019.3-.208.358-.381.126-.346.167-.916-.338-.847a13.567,13.567,0,0,0-1.58.421" transform="translate(12.883 7.569)" fill="#e0dad7"/>
        <path id="Trazado_749713" data-name="Trazado 749713" d="M113.744,63.474c-.948-1.278-2.958-.4-3.761.589-.18.222.135.541.317.317a2.852,2.852,0,0,1,1.392-.96,1.517,1.517,0,0,1,1.664.28c.171.229.559.006.387-.227" transform="translate(12.787 7.31)" fill="#252828"/>
        <path id="Trazado_749714" data-name="Trazado 749714" d="M113.272,64.508l-.038-.01a1.424,1.424,0,0,1-.834.582l-.061.02c-.16.047-.326.084-.489.121-.5.114-1,.226-1.487.365l-.073.066-.018.009-.018.064a1.774,1.774,0,0,0,.787.4c.208.079.415.157.622.24a2.791,2.791,0,0,1,.764.33l.069-.019.017-.1.023-.008a1.137,1.137,0,0,0,.359-1.451.851.851,0,0,0,.376-.61m-.832,1.865.018-.006-.008.02Zm.037-1.052.06-.006.045,0,.054.073.013.071a.478.478,0,0,1-.175.257c-.116.061-.2.036-.234-.025l-.013-.116.153-.224Zm-1.477.37c.3-.055.6-.116.893-.192a.99.99,0,0,0-.093.46l.011.083-.056-.021c-.184-.074-.47-.228-.756-.329" transform="translate(12.825 7.503)" fill="#252828"/>
        <path id="Trazado_749715" data-name="Trazado 749715" d="M106.007,73.984c-1.8-1.071-4.932-2.434-6.978-4.265l-.275.085c2.229,1.984,5.574,3.507,7.111,4.424a.141.141,0,0,0,.142-.243" transform="translate(11.487 8.11)" fill="#c1d3d2"/>
        <path id="Trazado_749716" data-name="Trazado 749716" d="M108.767,68.051c-1.5-1.273-5.151-4.1-8.156-4.631a2.322,2.322,0,0,1,.33.339,2.643,2.643,0,0,1,.239.359,25.787,25.787,0,0,1,7.388,4.13c.137.117.337-.081.2-.2" transform="translate(11.703 7.377)" fill="#c1d3d2"/>
        <path id="Trazado_749717" data-name="Trazado 749717" d="M99.619,65.787c.144-.175.346-.294.482-.474a.963.963,0,0,0,.027-1.061.813.813,0,0,0-.252-.263.953.953,0,0,0-.78-.051,2.124,2.124,0,0,0-1.361,1.613,3.734,3.734,0,0,0,.28,2.161c.173.423.483.883.94.879l.248-.084.109-.186c.164-.407.539-.939.326-1.369-.2-.4-.358-.752-.019-1.164" transform="translate(11.362 7.431)" fill="#775a46"/>
        <path id="Trazado_749718" data-name="Trazado 749718" d="M93.957,70.972c.74-.07,1.615-.233,1.909-.915a2.725,2.725,0,0,0,.074-1.2,4.711,4.711,0,0,1,3.845-4.7,16.58,16.58,0,0,1,3.264.1,3.944,3.944,0,0,0,3.042-.908c.51-.526.779-1.28,1.389-1.686a3.228,3.228,0,0,1,1.323-.409q5.251-.814,10.566-1.112a9.219,9.219,0,0,0-3.083-7.562,14.627,14.627,0,0,0-7.608-3.446,21.008,21.008,0,0,0-13.941,2.6A15.185,15.185,0,0,0,89.05,57.3a13.9,13.9,0,0,0-.9,10.666,5.658,5.658,0,0,0,1.717,2.887c1.049.816,2.843.239,4.086.123" transform="translate(10.178 5.684)" fill="#8d4429"/>
        <path id="Trazado_749719" data-name="Trazado 749719" d="M96.245,63.538a8.374,8.374,0,0,1,5.658-1.065,6.775,6.775,0,0,0,1.43.114,4.265,4.265,0,0,0,2.286-1.1,22.62,22.62,0,0,1,1.976-1.653,8.966,8.966,0,0,1,4.392-1.193,7.018,7.018,0,0,0,2.16-.335,2.012,2.012,0,0,0,1.347-1.589c.075-.965-.8-1.734-1.666-2.158a11.468,11.468,0,0,0-4.341-.989,19.671,19.671,0,0,0-10.174,1.959,14.619,14.619,0,0,0-6.995,7.5,10.7,10.7,0,0,0-.766,3.727,3.221,3.221,0,0,0,.294,1.574,1.43,1.43,0,0,0,1.3.8c.683-.058.666-.53.637-1.049a4.562,4.562,0,0,1,.26-1.768,5.577,5.577,0,0,1,2.2-2.782" transform="translate(10.65 6.226)" fill="#d76f38"/>
        <path id="Trazado_749720" data-name="Trazado 749720" d="M93.644,57.21a16.42,16.42,0,0,1,10.174-5.319,35.954,35.954,0,0,1,6.364-.021c.394.021.923-.067.96-.46a.636.636,0,0,0-.109-.373,2.68,2.68,0,0,0-1.393-1.02,11.443,11.443,0,0,0-6.382-.147A31.716,31.716,0,0,0,98.07,51.4c-2.96,1.153-5.858,2.861-7.536,5.559a12.871,12.871,0,0,0-1.384,3.238,16.562,16.562,0,0,0-.553,6.918c.049.338.469,2.56,1.086,2.3.37-.157.144-1.8.142-2.105a15.093,15.093,0,0,1,1.555-6.7,15.278,15.278,0,0,1,2.265-3.4" transform="translate(10.289 5.757)" fill="#d76f38"/>
        <path id="Trazado_749721" data-name="Trazado 749721" d="M103.771,81.97l-.643,1.907a12.268,12.268,0,0,1,2.566,7.4,24.4,24.4,0,0,1-1.192,6.608c-2.2,7.939-4.469,16.016-8.947,22.932a4.833,4.833,0,0,0-1.1,2.8,8.7,8.7,0,0,1,.279,2,4.625,4.625,0,0,1-1.03,1.711,4.232,4.232,0,0,0-.568,3.587c-5.605,1.4-11.38,2.562-17.129,1.993a28.957,28.957,0,0,1-8.619-2.23c-1.482-.64-3.039-1.549-3.53-3.088a6.193,6.193,0,0,1,.165-3.289,111.685,111.685,0,0,1,11.987-30.5c2.9-4.955,6.459-9.834,11.582-12.428,2-1.013,4.257-1.691,5.818-3.3,2-2.055,2.475-1.42,4.584,0,.526.355,5.865,3.634,5.776,3.9" transform="translate(7.409 8.928)" fill="#8d4429"/>
        <path id="Trazado_749722" data-name="Trazado 749722" d="M88.109,92.34A166.477,166.477,0,0,0,98.6,113.857a15.14,15.14,0,0,0,2.073,2.972,15.9,15.9,0,0,0,5.712,3.3,30.917,30.917,0,0,0,6.653,2.127,30.925,30.925,0,0,0,4.94.258l4.792-.006a.731.731,0,0,0,.9-.764q.439-2.557.876-5.113a1.144,1.144,0,0,0-.093-.89,1.125,1.125,0,0,0-.666-.33l-1.926-.463c-.214.237-.429.474-.644.71.15-.838-.775-1.432-1.556-1.775l-7.411-3.255a1.631,1.631,0,0,0-1.123-.194c-.252.081-.453.285-.709.351-.522.136-1.03-.382-1.1-.918a2.882,2.882,0,0,1,.411-1.543c-1.613-.97-2.576-2.71-3.465-4.369l-6.6-12.325a11.835,11.835,0,0,0-3.294-4.355c-3.644-2.549-10.2.232-8.262,5.061" transform="translate(10.208 10.04)" fill="#8d4429"/>
        <path id="Trazado_749723" data-name="Trazado 749723" d="M97.918,99.813c2.214,3.208,5.132,6.365,5.175,10.263a2.375,2.375,0,0,0,.1.884,1.015,1.015,0,0,0,1.938-.554c.751,0,.909,1.072.738,1.8s-.29,1.733.405,2.018l1.539-1.83q.342.99.684,1.981c2.064-.861,4.3.495,6.352,1.381a15.694,15.694,0,0,0,6.235,1.283,4.618,4.618,0,0,0-1.911-1.628,30.524,30.524,0,0,0-8.111-3.088c-1.26-.282-2.8-.723-3.064-1.988-.077-.366-.023-.749-.088-1.119-.181-1.038-1.188-1.678-2-2.345-4.155-3.4-6.414-10.64-7.871-15.623-.5-1.726-.941-3.111-2.486-4.177-3.352-2.314-4,.276-2.748,3.094a58.577,58.577,0,0,0,5.112,9.643" transform="translate(10.727 10.025)" fill="#d76f38"/>
        <path id="Trazado_749724" data-name="Trazado 749724" d="M95.637,107.009a5.854,5.854,0,0,1-.191,4.8,16.5,16.5,0,0,1-2.867,4.019c-1.106,1.25-2.305,2.744-2.015,4.387a2.579,2.579,0,0,1,.108,1.227c-.236.721-1.285.906-1.529,1.623-.233.683.4,1.484.056,2.118-.32.595-1.3.481-1.7-.058a2.7,2.7,0,0,1-.32-1.954,14.494,14.494,0,0,1,2.29-6.316c.927-1.405,2.118-2.687,2.607-4.3a17.658,17.658,0,0,0,.345-4.344c.142-2.964,1.72-4.421,3.222-1.2" transform="translate(10.136 12.236)" fill="#d76f38"/>
        <path id="Trazado_749725" data-name="Trazado 749725" d="M98.763,85.8l.09,4.358c.006.267.04.583.275.709.359.192.728-.252.852-.64a4.55,4.55,0,0,0-1.346-4.73" transform="translate(11.473 9.945)" fill="#d76f38"/>
        <path id="Trazado_749726" data-name="Trazado 749726" d="M124.7,117.165c.75-.824,1.359-2,2.468-2.113.825-.083,1.683.5,2.447.174a1.621,1.621,0,0,1,.4-.16c.426-.058.694.424.914.795a3.368,3.368,0,0,0,1.461,1.327,4.3,4.3,0,0,0,.754-3.026,1.229,1.229,0,0,0-.242-.656,1.75,1.75,0,0,0-1.05-.4c-.727-.14-1.4-.486-2.111-.679a10.454,10.454,0,0,0-3.515-.141q-1.932.141-3.865.281a2.068,2.068,0,0,0-1.179.332,2.161,2.161,0,0,0-.558,1.537c-.1,1.094-1.091,3.73-.141,4.332,1.045.662,3.568-.9,4.213-1.609" transform="translate(13.968 13.053)" fill="#9e765a"/>
        <path id="Trazado_749727" data-name="Trazado 749727" d="M121.925,112.913a.167.167,0,0,1-.185-.2,6.5,6.5,0,0,0,1.82-1.83c.291-.441.669-.991,1.19-.9a1.259,1.259,0,0,1,.736.649,1.963,1.963,0,0,1,.425,1.059,1.341,1.341,0,0,1-.92,1.144,3.925,3.925,0,0,1-1.541.155,6.762,6.762,0,0,1-1.825-.227,2.512,2.512,0,0,0,1.685-.455" transform="translate(14.148 12.792)" fill="#9e765a"/>
        <path id="Trazado_749728" data-name="Trazado 749728" d="M79.155,163.563l1.865-2.486" transform="translate(9.208 18.737)" fill="#d76f38"/>
        <path id="Trazado_749729" data-name="Trazado 749729" d="M90.994,169.2c-.85,1.439-1.946,3.15-1.174,4.632.738,1.414,2.648,1.57,4.089,2.249a19.936,19.936,0,0,1,3.051,2.2,11.082,11.082,0,0,0,5.431,2.073,3.357,3.357,0,0,0,1.82-.21,1.444,1.444,0,0,0,.855-1.5,2.185,2.185,0,0,0-.439-.81c-2.626-3.524-5.508-7.334-5.45-11.729a2.543,2.543,0,0,0-.442-1.945,2.215,2.215,0,0,0-1.056-.455c-1.756-.416-3.672-1.562-4.624.044-.943,1.589-1.029,3.771-2.061,5.447" transform="translate(10.418 18.952)" fill="#281b1c"/>
        <path id="Trazado_749730" data-name="Trazado 749730" d="M67.893,132.753a12.767,12.767,0,0,0,3.638,2.623c7.844,4.355,15.812,8.758,24.537,10.845,1.316.316,2.816.7,3.427,1.911s.04,2.617-.377,3.891-.572,2.927.51,3.72a3.587,3.587,0,0,0-2.163,4.441,3.466,3.466,0,0,1,.308,1.021c.027.766-.666,1.327-1.15,1.921a4.194,4.194,0,0,0-.416,4.551A15.176,15.176,0,0,0,102.25,170a1.241,1.241,0,0,0,.637.031c.778-.241.405-1.484.855-2.162.307-.463.932-.562,1.428-.814a4.52,4.52,0,0,0,1.722-2.1q3.607-6.9,7.213-13.8a12.143,12.143,0,0,0,1.494-3.893,8.65,8.65,0,0,0-1.1-5.054c-1.984-3.831-5.538-6.593-9.183-8.9s-7.525-4.32-10.709-7.234a2.523,2.523,0,0,0-1.04-.683,2.425,2.425,0,0,0-.818-.007,76.49,76.49,0,0,1-19.893-.547c-2.023-.322-6.211-2.258-7.363.255-.985,2.15,1.028,6.073,2.4,7.67" transform="translate(7.588 14.402)" fill="#35526d"/>
        <path id="Trazado_749731" data-name="Trazado 749731" d="M100.36,140.112c.889.343,1.906.8,2.119,1.733.2.865-.416,1.793-.121,2.63.344.975,1.683,1.218,2.206,2.11s.029,2.024-.466,2.937l-1.686,3.111a2.581,2.581,0,0,0-.413,1.216c.01.882.864,1.474,1.423,2.157s.613,2.033-.261,2.155a3.1,3.1,0,0,0-1.652-.865c-.631-.042-1.332.5-1.192,1.117.115.511.738.882.641,1.4-.145.764-1.624.664-1.672,1.439-.018.289.2.535.288.812a1.964,1.964,0,0,1-.313,1.393,15.781,15.781,0,0,0-1.366,4.14c-.956-.125-1.295-1.405-1-2.325s.965-1.687,1.2-2.621c.467-1.83-.738-4.108.547-5.492.555-.6,1.506-.9,1.708-1.688a3.5,3.5,0,0,0-.278-1.64c-.551-2.324,1.7-5,.338-6.961a4.127,4.127,0,0,0-1.556-1.2c-4.375-2.287-9.339-3.155-13.94-4.948-5.219-2.034-9.9-5.228-14.463-8.468a7.673,7.673,0,0,1-2.661-2.659,2.656,2.656,0,0,1,.7-3.389,3.878,3.878,0,0,1,2.247-.313c2.245.137,4.747-.084,6.745,1.077,2.432,1.413,4.589,3.452,6.958,5a85.547,85.547,0,0,0,15.917,8.147" transform="translate(7.85 14.641)" fill="#3d5e77"/>
        <path id="Trazado_749732" data-name="Trazado 749732" d="M82.912,77.734l10.322,7.344c4.459,3.173,8.273,6.163,8.7,12.041.066.9,1.474.905,1.408,0a14.034,14.034,0,0,0-5.4-10.353c-4.5-3.7-9.566-6.868-14.316-10.247-.739-.526-1.442.693-.71,1.215" transform="translate(9.609 8.886)" fill="#d76f38"/>
        <path id="Trazado_749733" data-name="Trazado 749733" d="M63.7,120.433c9.626-6.257,20.342-10.57,29.911-16.925.751-.5.047-1.718-.709-1.216-9.569,6.355-20.286,10.668-29.914,16.926-.756.491-.051,1.71.712,1.215" transform="translate(7.29 11.885)" fill="#d76f38"/>
        <path id="Trazado_749734" data-name="Trazado 749734" d="M249.5,155.718A28.979,28.979,0,1,1,220.52,184.7,28.978,28.978,0,0,1,249.5,155.718m0,7.444A21.534,21.534,0,1,0,271.034,184.7,21.535,21.535,0,0,0,249.5,163.162" transform="translate(25.652 18.114)" fill="#004" fill-rule="evenodd"/>
        <path id="Trazado_749735" data-name="Trazado 749735" d="M248.723,162.386a21.534,21.534,0,1,1-21.535,21.534,21.534,21.534,0,0,1,21.535-21.534m0,8.109a13.425,13.425,0,1,0,13.426,13.425,13.425,13.425,0,0,0-13.426-13.425" transform="translate(26.427 18.889)" fill="#a9c2c2" fill-rule="evenodd"/>
        <path id="Trazado_749736" data-name="Trazado 749736" d="M248.534,198.967a15.234,15.234,0,1,1,15.234-15.234,15.236,15.236,0,0,1-15.234,15.234m0-34.961a19.727,19.727,0,1,0,19.727,19.727,19.725,19.725,0,0,0-19.727-19.727" transform="translate(26.616 19.078)" fill="#7e9191"/>
        <path id="Trazado_749737" data-name="Trazado 749737" d="M245.376,178.424a5.39,5.39,0,0,1,1.107-.458l.722-9.388h1.6l.722,9.388a5.441,5.441,0,0,1,1.107.458l7.149-6.126.564.563.564.565-6.128,7.149a5.411,5.411,0,0,1,.459,1.106l9.387.722V184l-9.388.722a5.369,5.369,0,0,1-.458,1.106l6.128,7.149-.564.565-.564.563-7.15-6.128a5.345,5.345,0,0,1-1.106.458l-.722,9.389h-1.6l-.722-9.387a5.457,5.457,0,0,1-1.107-.459l-7.149,6.126-.564-.563-.564-.565,6.128-7.149a5.413,5.413,0,0,1-.459-1.106L233.381,184v-1.6l9.387-.722a5.413,5.413,0,0,1,.459-1.106l-6.128-7.149.564-.565.564-.563Z" transform="translate(27.148 19.61)" fill="#a9c2c2" fill-rule="evenodd"/>
        <path id="Trazado_749738" data-name="Trazado 749738" d="M359.38,188.9a6.544,6.544,0,1,0-6.544-6.545,6.557,6.557,0,0,0,6.544,6.545" transform="translate(41.043 20.451)" fill="#a9c2c2" fill-rule="evenodd"/>
        <path id="Trazado_749739" data-name="Trazado 749739" d="M364.007,177.732a6.544,6.544,0,1,1-9.255,0,6.544,6.544,0,0,1,9.255,0" transform="translate(41.043 20.451)" fill="#a9c2c2" fill-rule="evenodd"/>
        <path id="Trazado_749740" data-name="Trazado 749740" d="M365.924,182.359a6.544,6.544,0,1,1-6.544-6.544,6.545,6.545,0,0,1,6.544,6.544" transform="translate(41.043 20.451)" fill="#a9c2c2" fill-rule="evenodd"/>
        <path id="Trazado_749741" data-name="Trazado 749741" d="M364.007,186.986a6.544,6.544,0,1,1,0-9.254,6.544,6.544,0,0,1,0,9.254" transform="translate(41.043 20.451)" fill="#a9c2c2" fill-rule="evenodd"/>
        <path id="Trazado_749742" data-name="Trazado 749742" d="M359.38,188.9a6.544,6.544,0,1,1,6.544-6.544,6.543,6.543,0,0,1-6.544,6.544" transform="translate(41.043 20.451)" fill="#a9c2c2" fill-rule="evenodd"/>
        <path id="Trazado_749743" data-name="Trazado 749743" d="M354.752,186.986a6.544,6.544,0,1,1,9.254,0,6.544,6.544,0,0,1-9.254,0" transform="translate(41.043 20.451)" fill="#a9c2c2" fill-rule="evenodd"/>
        <path id="Trazado_749744" data-name="Trazado 749744" d="M352.836,182.359a6.544,6.544,0,1,1,6.544,6.545,6.544,6.544,0,0,1-6.544-6.545" transform="translate(41.043 20.451)" fill="#a9c2c2" fill-rule="evenodd"/>
        <path id="Trazado_749745" data-name="Trazado 749745" d="M361.718,155.718A28.979,28.979,0,1,1,332.739,184.7a28.978,28.978,0,0,1,28.979-28.979m0,7.444A21.534,21.534,0,1,0,383.253,184.7a21.535,21.535,0,0,0-21.535-21.535" transform="translate(38.705 18.114)" fill="#004" fill-rule="evenodd"/>
        <path id="Trazado_749746" data-name="Trazado 749746" d="M360.942,162.386a21.534,21.534,0,1,1-21.535,21.534,21.534,21.534,0,0,1,21.535-21.534m0,8.109a13.425,13.425,0,1,0,13.425,13.425,13.426,13.426,0,0,0-13.425-13.425" transform="translate(39.481 18.889)" fill="#a9c2c2" fill-rule="evenodd"/>
        <path id="Trazado_749747" data-name="Trazado 749747" d="M360.754,198.967a15.234,15.234,0,1,1,15.234-15.234,15.236,15.236,0,0,1-15.234,15.234m0-34.961a19.727,19.727,0,1,0,19.727,19.727,19.726,19.726,0,0,0-19.727-19.727" transform="translate(39.669 19.078)" fill="#7e9191"/>
        <path id="Trazado_749748" data-name="Trazado 749748" d="M357.594,178.424a5.416,5.416,0,0,1,1.107-.458l.722-9.388h1.6l.722,9.388a5.415,5.415,0,0,1,1.107.458L370,172.3l.564.563.564.565L365,180.574a5.411,5.411,0,0,1,.459,1.106l9.388.722V184l-9.388.722a5.437,5.437,0,0,1-.459,1.106l6.127,7.149-.564.565L370,194.1l-7.149-6.128a5.379,5.379,0,0,1-1.107.458l-.722,9.389h-1.6l-.722-9.387a5.51,5.51,0,0,1-1.107-.459l-7.149,6.126-.564-.563-.564-.565,6.128-7.149a5.411,5.411,0,0,1-.459-1.106L345.6,184v-1.6l9.388-.722a5.411,5.411,0,0,1,.459-1.106l-6.128-7.149.564-.565.564-.563Z" transform="translate(40.201 19.61)" fill="#a9c2c2" fill-rule="evenodd"/>
        <path id="Trazado_749749" data-name="Trazado 749749" d="M336.533,149.2l5.251-3.033,21.9,38.438c.826,1.45.069,2.964-1.111,4.144s-3.317.339-4.142-1.111Z" transform="translate(39.147 17.003)" fill-rule="evenodd"/>
        <path id="Trazado_749750" data-name="Trazado 749750" d="M362.559,148.485a37.117,37.117,0,0,1,9.753,1.3,2.655,2.655,0,0,1,1.18,4.438l-42.25,42.249a2.654,2.654,0,0,1-4.438-1.18,37.08,37.08,0,0,1,35.755-46.806" transform="translate(37.864 17.272)" fill="#8d4429" fill-rule="evenodd"/>
        <path id="Trazado_749751" data-name="Trazado 749751" d="M249.606,142.091l57.486-.843c-10.853,21.315-11.332,36.725,0,49.58H280.757l-1.863-1.841H215.453a5.382,5.382,0,0,1-5.335-6.094c2.891-21.649,16.115-37.716,37.149-38.834,2.508-.133,2.818-1.407,2.339-1.969" transform="translate(24.436 16.43)" fill="#bb592e" fill-rule="evenodd"/>
        <path id="Trazado_749752" data-name="Trazado 749752" d="M289.948,187.624h2.906c-8.837-13.764-5.637-29.026,1.159-43.721l-2.275.033a4.742,4.742,0,0,0-4.416,3.05c-5.027,12.709-7.046,25.632-1.8,37.732a4.741,4.741,0,0,0,4.428,2.906" transform="translate(32.854 16.739)" fill="#d76f38" fill-rule="evenodd"/>
        <path id="Trazado_749753" data-name="Trazado 749753" d="M272.951,193.308h25.63c8.154,0,19.109,1.171,24.233-7.338L345.3,148.624c2.86-4.751,2.89-8.378,1.341-14.84l-5.14-21.428c-.457-1.9-.666-3.4,1.159-3.4h2.357a4.779,4.779,0,0,1,4.69,3.686l4.55,18.716c.92,3.785,4.041,16.3,2.047,19.644l-27.52,46.173H272.422a37.52,37.52,0,0,0,.529-3.864" transform="translate(31.689 12.674)" fill="#d76f38" fill-rule="evenodd"/>
        <path id="Trazado_749754" data-name="Trazado 749754" d="M328.306,187.693H272.087a.681.681,0,0,0-.68.68v2.512a.681.681,0,0,0,.68.68h56.219a.681.681,0,0,0,.68-.68v-2.512a.681.681,0,0,0-.68-.68" transform="translate(31.571 21.833)" fill="#bb592e" fill-rule="evenodd"/>
        <path id="Trazado_749755" data-name="Trazado 749755" d="M250.639,147.386a40.9,40.9,0,0,1,40.524,35.423,4.826,4.826,0,0,1-4.785,5.464H214.9a4.826,4.826,0,0,1-4.783-5.464,40.894,40.894,0,0,1,40.525-35.423" transform="translate(24.436 17.144)" fill="#d76f38" fill-rule="evenodd"/>
        <path id="Trazado_749756" data-name="Trazado 749756" d="M250,150.926A34.719,34.719,0,0,1,284.4,181a3.965,3.965,0,0,1-.978,3.241c-.1.118-.213.231-.325.335a34.723,34.723,0,0,0-66.2,0,4.426,4.426,0,0,1-.327-.335,3.97,3.97,0,0,1-.979-3.241A34.721,34.721,0,0,1,250,150.926" transform="translate(25.074 17.556)" fill="#bb592e" fill-rule="evenodd"/>
        <path id="Trazado_749757" data-name="Trazado 749757" d="M244.709,132.495h58.734a1.281,1.281,0,0,1,1.277,1.277v8.06a1.281,1.281,0,0,1-1.277,1.277H244.709a1.281,1.281,0,0,1-1.277-1.277v-8.06a1.281,1.281,0,0,1,1.277-1.277" transform="translate(28.317 15.412)" fill-rule="evenodd"/>
        <path id="Trazado_749758" data-name="Trazado 749758" d="M206.794,74.9h67.673a2.4,2.4,0,0,1,2.395,2.395v59.373a2.4,2.4,0,0,1-2.395,2.395H206.794a2.4,2.4,0,0,1-2.393-2.395V77.292a2.4,2.4,0,0,1,2.393-2.395" transform="translate(23.777 8.712)" fill="#d76f38" fill-rule="evenodd"/>
        <path id="Trazado_749759" data-name="Trazado 749759" d="M210.238,78.189h59.921a2.126,2.126,0,0,1,2.121,2.12v21.817c-21.388,8.672-49.158-11.545-64.162,16.918V80.309a2.125,2.125,0,0,1,2.12-2.12" transform="translate(24.209 9.095)" fill="#bb592e" fill-rule="evenodd"/>
        <path id="Trazado_749760" data-name="Trazado 749760" d="M238.658,88.051a17.4,17.4,0,0,1,17.4,17.4c0,.4-.014.8-.041,1.2l-8.615-3.5,3.582-3.413-21.81-8.868a17.316,17.316,0,0,1,9.487-2.813M253.1,115.142a17.4,17.4,0,0,1-31.739-7.789l10.938,2.171-4.373,4.166Z" transform="translate(25.75 10.242)" fill="#fff" fill-rule="evenodd"/>
        <path id="Trazado_749761" data-name="Trazado 749761" d="M225.2,91.607,213.928,102.34l25.279,5.018-3.583,3.413,28.8,1.66-21.408-8.705,3.583-3.413Z" transform="translate(24.885 10.656)" fill="#fff" fill-rule="evenodd"/>
        <path id="Trazado_749762" data-name="Trazado 749762" d="M349.639,116.14c1.464-.124,2.915,2.9,3.242,6.765s-.6,7.09-2.059,7.214-2.914-2.906-3.241-6.765.6-7.09,2.057-7.214" transform="translate(40.424 13.509)" fill="#f1cf00" fill-rule="evenodd"/>
        <path id="Trazado_749763" data-name="Trazado 749763" d="M349.731,115.315l.036,0a.969.969,0,0,1,1.065.851l1.584,13.859a.967.967,0,0,1-.846,1.068l-.036,0c-4.926.564-9.324-2.512-9.821-6.869s3.092-8.345,8.019-8.908" transform="translate(39.744 13.413)" fill="#8d4429" fill-rule="evenodd"/>
        <path id="Trazado_749764" data-name="Trazado 749764" d="M347.5,115.616l2.025,15.541a10.172,10.172,0,0,0,1.334-.066l.036,0a.968.968,0,0,0,.845-1.069l-1.584-13.859a.967.967,0,0,0-1.065-.851l-.036,0a10.162,10.162,0,0,0-1.555.3" transform="translate(40.422 13.413)" fill="#9dc6c6" fill-rule="evenodd"/>
        <path id="Trazado_749765" data-name="Trazado 749765" d="M337.85,110.75l-10.666-2.741a1.041,1.041,0,0,0-1.264.747l-.277,1.083a1.039,1.039,0,0,0,.746,1.263l10.666,2.741a1.042,1.042,0,0,0,1.264-.746l.278-1.084a1.041,1.041,0,0,0-.747-1.263" transform="translate(37.876 12.56)" fill-rule="evenodd"/>
        <line id="Línea_2651" data-name="Línea 2651" x1="0.063" y2="0.068" transform="translate(377.337 121.507)" fill="#edb38c"/>
        <path id="Trazado_749766" data-name="Trazado 749766" d="M297.476,178.579a14.725,14.725,0,0,0-1.177,3.044,4.124,4.124,0,0,0,.459,3.15c1.162,1.715,3.625,1.763,5.691,1.63l3.05-.2c1.3-.085,2.818-.295,3.465-1.427.577-1.008.182-2.266-.152-3.378a26,26,0,0,1-1.09-7.773,5.942,5.942,0,0,0-.241-2.311,3.6,3.6,0,0,0-2.463-1.97c-2.373-.644-4.177-.589-4.822,1.692a51.255,51.255,0,0,1-2.72,7.539" transform="translate(34.453 19.658)" fill="#191213"/>
        <path id="Trazado_749767" data-name="Trazado 749767" d="M305.437,147.178a4.776,4.776,0,0,1,1.265,1.954,4.1,4.1,0,0,1-.18,2.143c-.908,3.067-2.91,5.843-3.089,9.036a21.672,21.672,0,0,1-.119,2.879A9.326,9.326,0,0,1,302,166.132l-2.175,3.656a4.461,4.461,0,0,0-.861,2.455c.1,1.657,1.906,2.6,3.481,3.128.912.3,2.053.528,2.723-.162a2.668,2.668,0,0,0,.535-1.044q4.1-12.162,8.2-24.325c.684-2.028,1.368-4.255.613-6.258-.832-2.2-3.127-3.434-5.242-4.471l-5.893-2.89c-1.719-.843-4.058-1.582-5.318-.141-1.76,2.013-.058,3.657,1.372,4.731,2.223,1.668,4.132,4.317,6.008,6.366" transform="translate(34.584 15.734)" fill="#2e4c5e"/>
        <path id="Trazado_749768" data-name="Trazado 749768" d="M301.1,179.041a11.467,11.467,0,0,0-1.184,5.365,1.767,1.767,0,0,0,.43,1.1,2.034,2.034,0,0,0,.924.429,40.484,40.484,0,0,0,17.656.685,5.376,5.376,0,0,0,2.395-.882,2.02,2.02,0,0,0,.755-2.275c-.423-.97-1.669-1.2-2.72-1.318A14.264,14.264,0,0,1,313.9,180.7a5.532,5.532,0,0,1-3.011-4.514c-.011-1.439.621-3.177-.463-4.123a3.2,3.2,0,0,0-1.938-.562c-2.271-.147-3.455-.639-4.834,1.026-1.216,1.468-1.862,4.716-2.551,6.51" transform="translate(34.883 19.929)" fill="#281b1c"/>
        <path id="Trazado_749769" data-name="Trazado 749769" d="M276.117,95.877c-4.879,9.174-7.347,19.4-9.768,29.509a5.5,5.5,0,0,0-.182,2.716,1.885,1.885,0,0,0,2.015,1.471q.02,1.306.04,2.61a7.416,7.416,0,0,0,5.53,2.848,21.964,21.964,0,0,0,6.364-.708l13.6-2.878a4.1,4.1,0,0,0,2.484-1.162c.58-.731.367-2.1-.554-2.256,3.218-.578,4.569-4.364,5.318-7.546s1.5-6.388,2.256-9.581c1.194-5.073,2.395-10.194,2.465-15.405.051-3.854-.324-8.259,2.408-10.977.854-.851,1.995-1.506,2.419-2.633.65-1.728-.7-3.511-1.95-4.867l-4.892-5.3a1.17,1.17,0,0,0-2.087.049,19.76,19.76,0,0,1-6.984,5.1,35.722,35.722,0,0,0-7.576,5.054c-4.2,3.617-8.82,8.734-10.909,13.955" transform="translate(30.949 8.271)" fill="#8d4429"/>
        <path id="Trazado_749770" data-name="Trazado 749770" d="M282.885,101.237c-.656,5.752.746,12.046,5.01,15.96a18.6,18.6,0,0,0,10.616,4.369,55.421,55.421,0,0,0,11.647-.366l.723-1.326,2.775.969,1.006-1.207a2.115,2.115,0,0,0,2.491,1.316,22.849,22.849,0,0,1,2.31-7.679c-7.034-1.388-14.162-2.808-20.585-5.989a4.645,4.645,0,0,0-3.244-.747,54.493,54.493,0,0,0,.685-14.213c-.189-2.255-.572-4.626-2.022-6.363-6.816-8.159-10.984,11.52-11.412,15.276" transform="translate(32.888 9.771)" fill="#8d4429"/>
        <path id="Trazado_749771" data-name="Trazado 749771" d="M295.734,89.34a11.721,11.721,0,0,0-.874-3.208c-.5-1.043-1.6-2.032-2.7-1.667-1.334.442-1.367,2.3-1.141,3.683q.995,6.08,1.99,12.16c.471,2.879.932,5.9,0,8.659l1.86-.185q.064,1.025.125,2.052a75.089,75.089,0,0,0,14.689,2.724c-.1-1.835-2.367-2.561-4.157-2.975a28.139,28.139,0,0,1-6.325-2.151c-2.445-1.237-2.13-1.683-2.163-4.479a95.967,95.967,0,0,0-1.3-14.613" transform="translate(33.84 9.816)" fill="#d76f38"/>
        <path id="Trazado_749772" data-name="Trazado 749772" d="M301.981,83.442a16.8,16.8,0,0,0,2.887-2.658l-2.584-3.228a1.42,1.42,0,0,0-.459-.424,1.045,1.045,0,0,0-1.085.248,2.6,2.6,0,0,0-.5,2.883,7.635,7.635,0,0,0,1.879,2.465" transform="translate(34.9 8.964)" fill="#d76f38"/>
        <path id="Trazado_749773" data-name="Trazado 749773" d="M293.393,121.938a4.633,4.633,0,0,1-3.366.716,3.4,3.4,0,0,1-1.664-.368,1.168,1.168,0,0,1-.509-1.475,1.687,1.687,0,0,1,1.452-.594,7.944,7.944,0,0,0,2.322-.324,2.351,2.351,0,0,0,1.577-1.606,1.253,1.253,0,0,1,1.674.771,2.035,2.035,0,0,1-.524,1.939,5.947,5.947,0,0,1-1.721,1.192" transform="translate(33.471 13.746)" fill="#d76f38"/>
        <path id="Trazado_749774" data-name="Trazado 749774" d="M273.69,134.921c3.033,1.744,6.619,2.182,10.094,2.584l11.624,1.349c5.359.621,11.322,1.57,14.6,5.857a2.493,2.493,0,0,0,1.229,1.081,3.529,3.529,0,0,0,1.761-.376c.586-.17,1.416.008,1.477.614a2.894,2.894,0,0,0-.929,2.3l1.323-.227c.259,1.063-.433,2.094-1.023,3.015a21.488,21.488,0,0,0-3.275,9.6c-.215,2.416-.059,5.006-1.32,7.077-.57.94-1.4,1.7-1.986,2.631a6.2,6.2,0,0,0-.931,2.835c-.246,3.336,2.83,6.6,6.163,6.325,3.416-.285,5.714-3.538,7.364-6.542a81.386,81.386,0,0,0,9.932-29.633,12.436,12.436,0,0,0-.2-5.174c-1.188-3.746-5.209-5.7-8.861-7.149q-9.292-3.681-18.86-6.605a23.616,23.616,0,0,0-5.3-1.164,24.837,24.837,0,0,0-4.827.315q-9.235,1.211-18.467,2.42c-2.858.375-5.162-.086-4.145,3.417a9.8,9.8,0,0,0,4.565,5.45" transform="translate(31.277 14.342)" fill="#3d5e77"/>
        <path id="Trazado_749775" data-name="Trazado 749775" d="M312.161,134.051a15.29,15.29,0,0,1,5.154,2.8c3.437,3.238,3.142,8.81,1.671,13.3s-3.878,8.827-3.844,13.548c.7.621,1.7-.315,2.131-1.142a56.427,56.427,0,0,0,6.076-19.525c.215-1.793.31-3.74-.646-5.271a8.434,8.434,0,0,0-3.684-2.767c-7.137-3.482-16.179-8.376-24.137-9.232-.2,3.545,14.3,7.15,17.278,8.3" transform="translate(34.301 14.628)" fill="#4a6d82"/>
        <path id="Trazado_749776" data-name="Trazado 749776" d="M319.846,117.421a8.192,8.192,0,0,0,2.118-.122c2.632-.621,4.118-3.641,6.715-4.4a1.043,1.043,0,0,1,.491-.054,1.118,1.118,0,0,1,.575.4,9.119,9.119,0,0,0,1.295,1.367,1.731,1.731,0,0,0,1.771.278.981.981,0,0,0,.25-1.561,1.124,1.124,0,1,0,2.017-.985,1.2,1.2,0,0,0,2.224-.507c.069-.733-.516-1.343-1.007-1.892-.718-.8-1.319-1.709-2.07-2.484a4.722,4.722,0,0,0-2.765-1.552,5.838,5.838,0,0,0-2.507.435,32.681,32.681,0,0,0-5.26,2.351,41.764,41.764,0,0,1-4.032,2.175,7.538,7.538,0,0,1-4.471.6c-.922-.2-2.255,4.775-1.839,5.479.359.606,2.051.34,2.742.361l3.754.111" transform="translate(36.441 12.318)" fill="#edb38c"/>
        <path id="Trazado_749777" data-name="Trazado 749777" d="M326.949,65.752c.675,1.088,2.2,1.475,2.739,2.639a6.971,6.971,0,0,0-4.025,4.152c-.783,2.237-.466,4.967-2.076,6.7-1.443,1.56-3.9,1.652-5.965,1.145s-4.017-1.49-6.131-1.714a8.81,8.81,0,0,0-7.189,2.651c-.424.449-.928.991-1.536.883a1.718,1.718,0,0,1-.969-.785l-3.05-4.1a8.616,8.616,0,0,0,2.229-5.889c-.029-1.67-.546-3.3-.661-4.963-.42-6.08,4.84-11.484,10.761-12.92,4.623-1.122,12.386-.663,16.388,2.277s-2.613,6.536-.516,9.917" transform="translate(34.751 6.165)" fill="#edb38c"/>
        <path id="Trazado_749778" data-name="Trazado 749778" d="M323.287,59.588c.284.729-.74,1.27-1.522,1.269-1.519,0-2.978-.6-4.492-.727s-3.3.423-3.8,1.856A6.716,6.716,0,0,0,313.6,65c.126,1.01-.115,2.254-1.065,2.62-.834-1.067-.543-2.8-1.558-3.693-.863-.761-2.21-.5-3.262-.038a4.234,4.234,0,0,0-2.175,1.8c-1.01,2.013.835,4.512.088,6.637a5.436,5.436,0,0,1-1.278,1.837,6.587,6.587,0,0,1-2.16,1.7,2.467,2.467,0,0,1-2.6-.311c-1.133-1.069-.51-2.95-.8-4.482-.306-1.621-1.686-2.883-1.983-4.507a6.794,6.794,0,0,1,.219-2.7,21.518,21.518,0,0,1,2.364-6.563,15.417,15.417,0,0,1,9.142-6.514,26.478,26.478,0,0,1,11.4-.271,13.58,13.58,0,0,1,4.742,1.526c1.683,1,3.226,2.688,5.179,2.513a4.912,4.912,0,0,1-1.83,1.043,7.643,7.643,0,0,1,2.4,1.762,1.562,1.562,0,0,1-1.25.707,1.607,1.607,0,0,1-.992,2.453c-.829.089-1.757-.816-2.6-.94.208.111.436.388.65.527-.537.175-2.657.241-2.949-.51" transform="translate(34.519 5.819)" fill="#9e5e32"/>
        <path id="Trazado_749779" data-name="Trazado 749779" d="M308.84,67.393c.009.1-.14.153-.225.1a.412.412,0,0,1-.145-.261,1.926,1.926,0,0,1-.058-1.144.687.687,0,0,1,.923-.428,1.6,1.6,0,0,0-2.381-1.936,2.755,2.755,0,0,0-.9,1.355,2.394,2.394,0,0,0-.191,1.32,2.759,2.759,0,0,0,.524.988q.383.529.765,1.059c.247.342.555.718.977.729a.933.933,0,0,0,.85-.8,2.39,2.39,0,0,0-.189-1.237" transform="translate(35.575 7.381)" fill="#c19272"/>
        <path id="Trazado_749780" data-name="Trazado 749780" d="M324.082,65.709a3.826,3.826,0,0,1,2.159-.55,2.427,2.427,0,0,1,1.744,2.583,7.078,7.078,0,0,1-1.237,3.144c-.992,1.668-1.984,3.336-3,4.99a8.331,8.331,0,0,1-2.53,2.939,5.714,5.714,0,0,1-4.715.311,16.966,16.966,0,0,1-4.239-2.376c.058-.872.925-1.415,1.523-2.052a6.02,6.02,0,0,0,1.224-4.761c-.268-2.635,1.259-2,3.374-2.4a24.531,24.531,0,0,0,5.7-1.829" transform="translate(36.324 7.577)" fill="#ceeae8"/>
        <path id="Trazado_749781" data-name="Trazado 749781" d="M310.255,64.806a55.86,55.86,0,0,0,6.171,3.953c.339.188.644-.333.3-.521a55.958,55.958,0,0,1-6.17-3.953c-.313-.23-.614.294-.3.521" transform="translate(36.075 7.471)" fill="#ceeae8"/>
        <path id="Trazado_749782" data-name="Trazado 749782" d="M304.535,69.674q4.9,3.305,9.623,6.856c.31.233.612-.29.3-.521q-4.725-3.552-9.623-6.856c-.324-.218-.625.3-.3.521" transform="translate(35.409 8.038)" fill="#ceeae8"/>
        <path id="Trazado_749783" data-name="Trazado 749783" d="M316.382,71.394a3.37,3.37,0,0,1,.373-1.739,3.024,3.024,0,0,1,1.8-.91,14.1,14.1,0,0,0,3.4-1.419,1.367,1.367,0,0,1,.605-.238c.5-.02.848.553.817,1.053a4.075,4.075,0,0,1-.522,1.4l-.052.266c.029.1.128.164.208.233a1.065,1.065,0,0,1,.059,1.408,1.886,1.886,0,0,1-1.366.637c-.339.026-.751.035-.915.333a1,1,0,0,0-.077.472,3.616,3.616,0,0,1-2.766,3.337,2.728,2.728,0,0,1,.141.994.483.483,0,0,1-.122.351c-.156.136-.4.042-.581-.057-1.129-.611-2.747-.941-2.36-2.386.353-1.315,1.357-2.238,1.357-3.733" transform="translate(36.638 7.804)" fill="#b7cecc"/>
        <path id="Trazado_749784" data-name="Trazado 749784" d="M308.087,71.443a3.154,3.154,0,0,0,1.488-.371,3.026,3.026,0,0,0,.968-1.175c1.2-2.244,1.487-5.114,3.2-6.913,2.091-2.2,5.368-1.909,8.259-1.912a28.913,28.913,0,0,0,6.863-.835,2.972,2.972,0,0,0,1.184-.492,2.93,2.93,0,0,0,.875-2.211c.1-3.117-2.1-5.751-4.439-7.507a21.556,21.556,0,0,0-14.077-4.338,21.962,21.962,0,0,0-13.591,5.92,13.487,13.487,0,0,0-4.334,7.073,16.775,16.775,0,0,0,.022,5.351,14.376,14.376,0,0,0,1.167,4.541c2.353,4.78,8.363,3.182,12.416,2.871" transform="translate(34.231 5.311)" fill="#8d4429"/>
        <path id="Trazado_749785" data-name="Trazado 749785" d="M304.58,47.845a16.262,16.262,0,0,0-7.972,5.49,9.689,9.689,0,0,0-1.367,9.3,3.741,3.741,0,0,0,1.906,2.115A3.473,3.473,0,0,0,300.7,63.7c1.842-1.843,2.822-4.386,4.694-6.266,1.529-1.535,3.449-2.244,5.058-3.592a3.779,3.779,0,0,0,.956-4.806c-1.4-2.424-4.623-1.951-6.823-1.188" transform="translate(34.268 5.494)" fill="#d76f38"/>
        <path id="Trazado_749786" data-name="Trazado 749786" d="M308.215,76.716l.031.285-.192.163a5.919,5.919,0,0,1-1.112.43,37.981,37.981,0,0,1-1.811-8.254,1.865,1.865,0,0,1,.054-.885c.191-.477,1.347-1.146,1.786-.716.268.261-.041,2.564-.016,3.012a20.265,20.265,0,0,0,1.259,5.966" transform="translate(35.491 7.863)" fill="#681616"/>
        <path id="Trazado_749787" data-name="Trazado 749787" d="M318.727,62.328a7.017,7.017,0,0,1,3.543-.735c.589.011,1.221-.167,1.234-.862l-.049-.066a7.832,7.832,0,0,0-1.184.068,7.348,7.348,0,0,0-1.485.06,3.526,3.526,0,0,0-2.314,1.278c-.107.169.1.333.256.256" transform="translate(37.042 7.055)" fill="#4c3729"/>
        <path id="Trazado_749788" data-name="Trazado 749788" d="M318.972,63.9a6.354,6.354,0,0,1,2.473-.594c.439-.067.957-.135,1.183-.551a.12.12,0,0,0-.134-.174c-.29.077-.528.25-.817.339-.314.1-.644.136-.962.214a5.511,5.511,0,0,0-1.754.746Z" transform="translate(37.103 7.279)" fill="#4c3729"/>
        <path id="Trazado_749789" data-name="Trazado 749789" d="M320.805,63.153c-.065.266-.237.938.194,1.013.472.081.482-.636.423-.924l-.169-.169-.049-.01-.192.078-.057.229.047.162,0,.219.054-.111-.017-.135c-.018-.117-.048-.234-.068-.352Z" transform="translate(37.307 7.336)" fill="#4c3729"/>
        <path id="Trazado_749790" data-name="Trazado 749790" d="M319.921,64.076a1.893,1.893,0,0,0,1.042.236c.275-.019.683-.08.816-.352l-.055-.095a3.646,3.646,0,0,0-.685.2,1.676,1.676,0,0,1-1.031-.135c-.1-.046-.184.094-.086.146" transform="translate(37.209 7.429)" fill="#4c3729"/>
        <path id="Trazado_749791" data-name="Trazado 749791" d="M320.591,64.667a.75.75,0,0,0,.466-.092l-.04-.148c-.143,0-.28.036-.425.036a.1.1,0,0,0,0,.2" transform="translate(37.281 7.494)" fill="#4c3729"/>
      </g>
    </g>
  </g>
</svg>
