<svg xmlns="http://www.w3.org/2000/svg" xmlns:xlink="http://www.w3.org/1999/xlink" width="505.333" height="98.202" viewBox="0 0 505.333 98.202">
  <defs>
    <clipPath id="clip-path">
      <path id="Trazado_749914" data-name="Trazado 749914" d="M0,0H505.333V98.2H0Z" fill="none"/>
    </clipPath>
  </defs>
  <g id="google-meet-seeklogo.com" clip-path="url(#clip-path)">
    <path id="Trazado_749897" data-name="Trazado 749897" d="M69,61.882V37.431l2.535-5.276L84.211,22.115A2.565,2.565,0,0,1,88.436,24.1V72.093a2.6,2.6,0,0,1-4.282,1.986Z" transform="translate(1.583 0.493)" fill="#00ac47"/>
    <path id="Trazado_749898" data-name="Trazado 749898" d="M28.459,15,8,35.459H28.459Z" transform="translate(0.184 0.344)" fill="#ea4335"/>
    <path id="Trazado_749899" data-name="Trazado 749899" d="M28.459,35H8V61.6H28.459Z" transform="translate(0.184 0.803)" fill="#2684fc"/>
    <path id="Trazado_749900" data-name="Trazado 749900" d="M8,61V74.639a6.84,6.84,0,0,0,6.82,6.82H28.459V61Z" transform="translate(0.184 1.399)" fill="#0066da"/>
    <path id="Trazado_749901" data-name="Trazado 749901" d="M72.5,21.741A6.728,6.728,0,0,0,65.823,15H28V35.459H53.062v13.3L72.5,48.145Z" transform="translate(0.642 0.344)" fill="#ffba00"/>
    <path id="Trazado_749902" data-name="Trazado 749902" d="M53.062,61.3H28V81.757H65.823A6.723,6.723,0,0,0,72.5,75.026V48H53.062Z" transform="translate(0.642 1.101)" fill="#00ac47"/>
    <path id="Trazado_749903" data-name="Trazado 749903" d="M71.936,32V63.711L52.5,48.367Z" transform="translate(1.204 0.734)" fill="#00832d"/>
    <g id="Grupo_882228" data-name="Grupo 882228" transform="translate(128.87 22.924)">
      <path id="Trazado_749904" data-name="Trazado 749904" d="M352.233,73.255H346.21V26.38h6.023l16.3,28.544h.262L385.1,26.38h6.023V73.255H385.1V45.431l.262-7.856H385.1L370.433,63.3H366.9L352.233,37.575h-.262l.262,7.856Z" transform="translate(-120.928 -22.319)" fill="#5f6368"/>
      <path id="Trazado_749905" data-name="Trazado 749905" d="M412.755,73.994A15.345,15.345,0,0,1,401.1,69.15a17.105,17.105,0,0,1-4.583-12.243,17.308,17.308,0,0,1,4.452-12.177,14.688,14.688,0,0,1,11.391-4.91q7.137,0,11.326,4.648,4.255,4.583,4.255,12.9l-.065.655H402.673a10.45,10.45,0,0,0,3.142,7.594,10.054,10.054,0,0,0,7.2,2.881q5.762,0,9.035-5.761l5.368,2.619A15.933,15.933,0,0,1,421.4,71.7a16.4,16.4,0,0,1-8.642,2.291Zm-9.624-20.95h18.4a7.824,7.824,0,0,0-2.75-5.5,9.3,9.3,0,0,0-6.547-2.226,8.855,8.855,0,0,0-5.892,2.095,10.087,10.087,0,0,0-3.208,5.63Z" transform="translate(-119.773 -22.011)" fill="#5f6368"/>
      <path id="Trazado_749906" data-name="Trazado 749906" d="M447.38,73.994a15.345,15.345,0,0,1-11.653-4.845,17.105,17.105,0,0,1-4.583-12.243A17.308,17.308,0,0,1,435.6,44.73a14.688,14.688,0,0,1,11.391-4.91q7.137,0,11.326,4.648,4.255,4.583,4.255,12.9l-.065.655H437.3a10.45,10.45,0,0,0,3.142,7.594,10.054,10.054,0,0,0,7.2,2.881q5.762,0,9.035-5.761l5.368,2.619a15.933,15.933,0,0,1-6.023,6.35,16.4,16.4,0,0,1-8.642,2.291Zm-9.624-20.95h18.4a7.824,7.824,0,0,0-2.75-5.5,9.3,9.3,0,0,0-6.547-2.226,8.855,8.855,0,0,0-5.892,2.095,10.087,10.087,0,0,0-3.208,5.63Z" transform="translate(-118.979 -22.011)" fill="#5f6368"/>
      <path id="Trazado_749907" data-name="Trazado 749907" d="M479.059,73.667a9.272,9.272,0,0,1-6.547-2.422,9.051,9.051,0,0,1-2.619-6.743V46.564h-5.63v-5.5h5.63v-9.82h6.023v9.82h7.856v5.5h-7.856V62.538q0,3.208,1.244,4.386a4.11,4.11,0,0,0,2.815,1.113,7.006,7.006,0,0,0,1.375-.131,9.169,9.169,0,0,0,1.309-.458l1.9,5.368a16.174,16.174,0,0,1-5.5.851Z" transform="translate(-118.219 -22.207)" fill="#5f6368"/>
      <path id="Trazado_749908" data-name="Trazado 749908" d="M152.677,53.485V46.329h23.952a23.431,23.431,0,0,1,.389,4.387c0,5.367-1.47,12.011-6.2,16.74-4.6,4.792-10.476,7.347-18.269,7.347-14.437,0-26.573-11.757-26.573-26.2s12.136-26.2,26.573-26.2a24.957,24.957,0,0,1,17.95,7.221l-5.047,5.048a18.241,18.241,0,0,0-12.9-5.111,18.788,18.788,0,0,0-18.78,19.041,18.788,18.788,0,0,0,18.78,19.041c6.835,0,10.732-2.748,13.222-5.239,2.031-2.03,3.366-4.943,3.886-8.923Z" transform="translate(-125.98 -22.41)" fill="#5f6368"/>
      <path id="Trazado_749909" data-name="Trazado 749909" d="M212.313,57.518A16.928,16.928,0,1,1,195.386,40.65a16.664,16.664,0,0,1,16.928,16.868Zm-7.409,0c0-6.07-4.407-10.223-9.517-10.223s-9.518,4.152-9.518,10.223c0,6.006,4.407,10.223,9.518,10.223s9.517-4.217,9.517-10.223Z" transform="translate(-124.776 -21.992)" fill="#5f6368"/>
      <path id="Trazado_749910" data-name="Trazado 749910" d="M248.412,57.518A16.928,16.928,0,1,1,231.485,40.65a16.664,16.664,0,0,1,16.928,16.868Zm-7.409,0c0-6.07-4.407-10.223-9.517-10.223s-9.518,4.152-9.518,10.223c0,6.006,4.408,10.223,9.518,10.223S241,63.524,241,57.518Z" transform="translate(-123.948 -21.992)" fill="#5f6368"/>
      <path id="Trazado_749911" data-name="Trazado 749911" d="M282.98,41.671V71.956c0,12.46-7.346,17.571-16.034,17.571A16.073,16.073,0,0,1,252,79.561l6.452-2.684a9.33,9.33,0,0,0,8.5,6.006c5.558,0,9.007-3.451,9.007-9.9V70.55H275.7a11.5,11.5,0,0,1-8.879,3.833c-8.432,0-16.161-7.347-16.161-16.8,0-9.521,7.729-16.932,16.161-16.932a11.683,11.683,0,0,1,8.879,3.77h.256V41.671Zm-6.516,15.911c0-5.942-3.961-10.287-9.007-10.287-5.11,0-9.391,4.345-9.391,10.287,0,5.878,4.28,10.159,9.391,10.159,5.047,0,9.007-4.282,9.007-10.159Z" transform="translate(-123.12 -21.992)" fill="#5f6368"/>
      <path id="Trazado_749912" data-name="Trazado 749912" d="M294.689,24.322V73.738H287.28V24.322Z" transform="translate(-122.28 -22.366)" fill="#5f6368"/>
      <path id="Trazado_749913" data-name="Trazado 749913" d="M323.057,63.075l5.749,3.833a16.775,16.775,0,0,1-14.053,7.475,16.5,16.5,0,0,1-16.736-16.868c0-10.031,7.218-16.868,15.9-16.868,8.752,0,13.031,6.965,14.438,10.735l.766,1.917-22.55,9.328a8.581,8.581,0,0,0,8.177,5.111,9.622,9.622,0,0,0,8.3-4.663Zm-17.695-6.069,15.074-6.262c-.831-2.108-3.322-3.577-6.26-3.577A9.25,9.25,0,0,0,305.362,57.006Z" transform="translate(-122.033 -21.992)" fill="#5f6368"/>
    </g>
  </g>
</svg>
