<svg id="microsoft-teams-logo-C15BCBAA_brandlogos.net" xmlns="http://www.w3.org/2000/svg" width="190" height="169.78" viewBox="0 0 190 169.78">
  <path id="Trazado_749959" data-name="Trazado 749959" d="M330.36,267.271v-46.06a4.161,4.161,0,0,1,4.161-4.161h46.616A7.951,7.951,0,0,1,389.088,225v42.269a29.269,29.269,0,0,1-29.269,29.269H359.6A29.269,29.269,0,0,1,330.36,267.271Z" transform="translate(-199.088 -151.414)" fill="#5059c9"/>
  <circle id="Elipse_8547" data-name="Elipse 8547" cx="19" cy="19" r="19" transform="translate(141.633 17.274)" fill="#5059c9"/>
  <path id="Trazado_749960" data-name="Trazado 749960" d="M384.73,384.253q-.59-.024-1.21-.073Q384.115,384.229,384.73,384.253Z" transform="translate(-226.316 -237.015)" fill="#5059c9"/>
  <path id="Trazado_749961" data-name="Trazado 749961" d="M386.813,384.37h0Z" transform="translate(-227.868 -237.113)" fill="#5059c9"/>
  <circle id="Elipse_8548" data-name="Elipse 8548" cx="27.635" cy="27.635" r="27.635" transform="translate(72.548 0)" fill="#7b83eb"/>
  <path id="Trazado_749962" data-name="Trazado 749962" d="M263.231,217h-80.6a8.015,8.015,0,0,0-8.059,7.971V272.8a48.365,48.365,0,1,0,96.729,0l0-47.806a8.015,8.015,0,0,0-8.064-8Z" transform="translate(-119.295 -151.388)" fill="#7b83eb"/>
  <path id="Trazado_749963" data-name="Trazado 749963" d="M219.494,217v71.431a5.989,5.989,0,0,1-.137,1.38,8,8,0,0,1-7.912,6.668h-30.5a37.34,37.34,0,0,1-1.829-3.454,36.087,36.087,0,0,1-1.463-3.454,47.29,47.29,0,0,1-3.039-16.757V225.01a8,8,0,0,1,8-8.01Z" transform="translate(-119.316 -151.389)" opacity="0.2"/>
  <path id="Trazado_749964" data-name="Trazado 749964" d="M239.71,168.439v9.225a28.526,28.526,0,0,1-3.455-.21A27.708,27.708,0,0,1,214.08,160.38h17.561a8.034,8.034,0,0,1,8.049,8.02A.143.143,0,0,1,239.71,168.439Z" transform="translate(-139.532 -122.389)" opacity="0.2"/>
  <path id="Trazado_749965" data-name="Trazado 749965" d="M222.948,217v64.519a11.615,11.615,0,0,1-11.5,11.5H179.112a36.087,36.087,0,0,1-1.463-3.454,47.29,47.29,0,0,1-3.039-16.757V225.005a8,8,0,0,1,8-8.005Z" transform="translate(-119.316 -151.389)" opacity="0.1"/>
  <path id="Trazado_749966" data-name="Trazado 749966" d="M241.965,164.812v9.015a28.865,28.865,0,0,1-6.907,0,27.708,27.708,0,0,1-22.176-17.074,28.85,28.85,0,0,1-1.141-3.454h18.722A11.542,11.542,0,0,1,241.965,164.812Z" transform="translate(-138.333 -118.762)" opacity="0.1"/>
  <path id="Trazado_749967" data-name="Trazado 749967" d="M219.468,217v64.519a8.034,8.034,0,0,1-8.02,8.049H177.6a47.289,47.289,0,0,1-3.039-16.757V225.005A8,8,0,0,1,182.58,217Z" transform="translate(-119.29 -151.389)" opacity="0.2"/>
  <path id="Trazado_749968" data-name="Trazado 749968" d="M239.71,168.439v9.225a28.526,28.526,0,0,1-3.455-.21A27.708,27.708,0,0,1,214.08,160.38h17.561a8.034,8.034,0,0,1,8.049,8.02A.143.143,0,0,1,239.71,168.439Z" transform="translate(-139.532 -122.389)" opacity="0.2"/>
  <path id="Trazado_749969" data-name="Trazado 749969" d="M236.256,168.439v9.015A27.708,27.708,0,0,1,214.08,160.38h14.147a8.034,8.034,0,0,1,8.049,8.02A.142.142,0,0,0,236.256,168.439Z" transform="translate(-139.532 -122.389)" opacity="0.1"/>
  <path id="Trazado_749970" data-name="Trazado 749970" d="M182.614,217H216.02v64.519a8.034,8.034,0,0,1-8.02,8.049H177.609a47.288,47.288,0,0,1-3.039-16.757V225.005A8,8,0,0,1,182.585,217Z" transform="translate(-119.295 -151.389)" opacity="0.1"/>
  <rect id="Rectángulo_361866" data-name="Rectángulo 361866" width="96.724" height="96.724" rx="16.52" transform="translate(0 38.001)" fill="#4b53bc"/>
  <path id="Trazado_749971" data-name="Trazado 749971" d="M159.363,211.622H143.592V256.6H133.533V211.622H117.85V202.89h41.513Z" transform="translate(-90.244 -144.162)" fill="#fff"/>
</svg>
