<svg xmlns="http://www.w3.org/2000/svg" width="505" height="89.009" viewBox="0 0 505 89.009">
  <g id="streamyard-seeklogo" transform="translate(-13.954 -7.9)">
    <path id="Trazado_749928" data-name="Trazado 749928" d="M201.106,84.831l.808-5.79a32.217,32.217,0,0,0,17.64,5.252c9.224,0,14.341-3.636,14.341-10.032,0-16.9-33.4-5.656-33.4-27.47,0-10.369,6.733-15.89,18.852-15.89,11.648,0,17.236,4.848,18.246,12.927l-5.723,1.145c-.875-6.06-4.982-8.955-12.658-8.955-8.079,0-12.86,3.636-12.86,10.234,0,17.64,33.126,5.386,33.328,27.874.067,10.5-6.666,15.688-20.131,15.688-9.763-.2-15.351-2.962-18.448-4.982" transform="translate(-60.946 -7.514)" fill="#121a2c"/>
    <path id="Trazado_749929" data-name="Trazado 749929" d="M274.793,58.892V83c0,4.444,1.953,5.454,4.915,5.454a14.446,14.446,0,0,0,5.79-1.279l.471,5.05a22.394,22.394,0,0,1-7.676,1.279c-5.925,0-9.224-2.087-9.224-10.436V58.892H262V53.977h7.07V42.8h5.723V54.044h12.052v4.915H274.793Z" transform="translate(-81.039 -11.402)" fill="#121a2c"/>
    <path id="Trazado_749930" data-name="Trazado 749930" d="M326.581,58.866l-.4,5.656a9,9,0,0,0-2.9-.337c-5.723,0-9.359,6.8-9.359,13.062V98.523H308.2V59.136h4.982l.4,7.406c2.155-4.915,5.588-8.147,9.628-8.147a7.873,7.873,0,0,1,3.366.471" transform="translate(-96.133 -16.494)" fill="#121a2c"/>
    <path id="Trazado_749931" data-name="Trazado 749931" d="M371.928,94.59c-1.953,1.683-7.07,4.04-14.947,4.04-12.254,0-18.381-7.406-18.381-19.929,0-11.85,5.992-20.4,18.785-20.4,10.1,0,14.274,5.252,14.274,11.109,0,9.763-8.214,12.86-27.066,13.6,1.145,7.608,5.925,10.5,12.793,10.5a23.049,23.049,0,0,0,13.331-4.174Zm-27.6-16.226c16.5-.606,21.68-2.491,21.68-8.551,0-3.1-2.155-6.4-8.753-6.4-7-.067-12.725,3.838-12.927,14.947" transform="translate(-106.065 -16.466)" fill="#121a2c"/>
    <path id="Trazado_749932" data-name="Trazado 749932" d="M428.444,59.108V98.63h-4.78l-.606-6.531a14.772,14.772,0,0,1-12.793,6.531c-10.167,0-16.765-7.2-16.765-19.525,0-12.995,7.272-20.8,17.506-20.8,5.79,0,9.763,2.289,12.052,5.588l.539-4.713,4.848-.067Zm-5.723,23.5V75.671c0-5.386-2.693-12.389-11.109-12.389-7.878,0-12.389,5.992-12.389,15.755,0,9.291,4.242,14.408,11.85,14.408,7.272.067,11.648-4.646,11.648-10.84" transform="translate(-124.001 -16.466)" fill="#121a2c"/>
    <path id="Trazado_749933" data-name="Trazado 749933" d="M515.422,73.651V98.765H509.7V74.526c0-6.935-2.693-11.042-8.618-11.042A10.807,10.807,0,0,0,489.971,74.19V98.63h-5.588V74.122c0-6.733-2.76-10.638-8.618-10.638a10.773,10.773,0,0,0-11.042,10.84V98.7H459V59.108h4.444l.808,6.6c2.289-4.242,6.666-7.406,12.995-7.406,5.925,0,9.965,2.76,11.715,8.012,2.222-4.646,6.868-8.012,13.466-8.012,8.349,0,12.995,5.117,12.995,15.351" transform="translate(-145.4 -16.466)" fill="#121a2c"/>
    <path id="Trazado_749934" data-name="Trazado 749934" d="M591.445,32.1l-20.67,35.078V89.936H560.07V67.178L539.4,32.1h12.119l14,25.046L579.663,32.1Z" transform="translate(-171.668 -7.906)" fill="#121a2c"/>
    <path id="Trazado_749935" data-name="Trazado 749935" d="M642.88,59.108V98.63h-7.945l-1.279-5.656c-2.558,3.434-6.733,5.656-12.254,5.656-10.1,0-17.1-7.339-17.1-19.593,0-12.927,7.676-20.737,17.842-20.737,5.319,0,9.022,2.02,11.446,4.915l.875-4.107Zm-10.5,22.084V75.6c-.4-4.511-2.9-8.416-8.483-8.416s-9.426,4.04-9.426,11.648c0,7.137,3.3,10.84,9.022,10.84,5.656,0,8.887-3.568,8.887-8.483" transform="translate(-192.871 -16.466)" fill="#121a2c"/>
    <path id="Trazado_749936" data-name="Trazado 749936" d="M695.088,58.906l-.606,10.032a10.664,10.664,0,0,0-3.5-.539c-4.04,0-7.81,3.7-7.81,11.042V98.5H672.6V59.108h8.483l.875,5.79c2.087-4.04,5.252-6.6,9.224-6.6a10.709,10.709,0,0,1,3.905.606" transform="translate(-215.185 -16.466)" fill="#121a2c"/>
    <path id="Trazado_749937" data-name="Trazado 749937" d="M745.378,32.1V90.07h-8.82l-1.01-5.386a16.252,16.252,0,0,1-12.456,5.386C713.8,90.07,707,83.674,707,70.545s7.272-20.8,18.785-20.8a23.884,23.884,0,0,1,9.157,1.683V32.1ZM734.807,71.353v-10.3a13.745,13.745,0,0,0-7.945-2.357c-5.588,0-9.359,3.7-9.359,11.715,0,7.743,3.5,10.705,8.012,10.705,5.117,0,9.291-3.838,9.291-9.763" transform="translate(-226.424 -7.906)" fill="#121a2c"/>
    <path id="Trazado_749938" data-name="Trazado 749938" d="M106.091,59.339c-1.01-.673-2.02-1.414-2.962-2.155C96.934,52.741,89.6,45.133,88.249,43.652A37.93,37.93,0,0,0,82.122,27.9C78.89,22.174,73.1,18.807,69.6,17.259c-3.03-7.743-17.775-8.887-23.431-9.291-.673-.067-1.347-.067-2.02-.067-11.244,0-13.6,7.878-14,11.109A16.719,16.719,0,0,0,22.805,21.1c-6.464,3.838-8.281,11.581-8.685,17.371a40.68,40.68,0,0,0,0,7.945c.471,4.376,1.616,7.608,6.06,11.177-2.9,13.466-3.972,29.221-4.04,29.356l-.067.4.2.337c.2.337,6.262,8.349,19.458,9.157a15.216,15.216,0,0,0,1.751.067,22.05,22.05,0,0,0,20-11.85l.2-.471-.2-.471s-1.279-3.636.673-10.3c1.616-5.521,7.406-6.464,8.955-6.6C74.11,72.6,93.5,82.972,98.55,84.992a20,20,0,0,0,7.07,1.616c2.559,0,4.444-.808,5.319-2.155a5.138,5.138,0,0,0-.875-6.935,13.679,13.679,0,0,0,1.953.269,13.046,13.046,0,0,0,2.424.2c3.1,0,4.848-1.481,5.319-4.578.673-3.77-4.982-8.08-13.668-14.072M37.617,95.832h0Zm6.262-86.72h.673a2.207,2.207,0,0,0-.673,0m7.878.606c.808.135,1.616.2,2.491.337-.875-.067-1.751-.269-2.491-.337" transform="translate(0 0)" fill="#121a2c"/>
    <path id="Trazado_749939" data-name="Trazado 749939" d="M104.637,58.78c-7-4.982-15.284-13.937-15.284-13.937a36.289,36.289,0,0,0-5.992-15.62c-3.232-5.858-9.426-9.089-12.456-10.369C68.683,11.38,53.938,10.168,48.35,9.764,33.066,8.62,33.4,21.278,33.4,21.278L27.949,39.726,23.842,57.5A224.752,224.752,0,0,0,19.6,87.664s5.723,7.878,18.65,8.685c15.216.943,20.6-11.177,20.6-11.177s-1.481-3.838.673-11.042c2.087-7.137,10.369-7.474,10.369-7.474,6.666,5.319,26.528,15.89,31.51,17.91,5.858,2.424,9.965,1.616,11.042-.135s1.549-3.905-1.683-6.4c-2.087-1.616-3.3-2.491-3.3-2.491,2.357.606,2.626,1.145,7.272,1.751,3.232.4,5.858.4,6.4-3.366.4-3.905-9.022-9.9-16.5-15.149" transform="translate(-1.845 -0.585)" fill="#121a2c"/>
    <path id="Trazado_749940" data-name="Trazado 749940" d="M41.528,120.956c-8.887-.269-14.072-3.366-15.822-4.578l-.606,4.444s6.8,6.531,15.822,6.531c3.232,0,9.493.337,15.688-7.945a31.8,31.8,0,0,1-.135-4.107c-2.222,2.289-5.521,5.992-14.947,5.656" transform="translate(-3.642 -35.088)" fill="#feffff"/>
    <path id="Trazado_749941" data-name="Trazado 749941" d="M25.1,116.167a4.313,4.313,0,0,0,.606.471l.067-.539Z" transform="translate(-3.642 -35.35)" fill="#121a2c"/>
    <path id="Trazado_749942" data-name="Trazado 749942" d="M72.777,113.8l-1.01.067c0,.337-.067.606-.067.943.4-.337.741-.673,1.077-1.01" transform="translate(-18.866 -34.598)" fill="#121a2c"/>
    <path id="Trazado_749943" data-name="Trazado 749943" d="M86.831,42.666C83.2,33.509,76.462,26.305,68.989,23.814S50.2,19.1,46.7,27.719c0,0-16.563,29.288-17.64,36.156l-2.9,21.343-.067.539c1.683,1.212,6.935,4.309,15.822,4.578,9.426.269,12.793-3.366,14.947-5.656,0-.269.067-.606.067-1.01.269-3.3,1.145-7.474,3.636-10.705C65.353,66.9,73.7,66.635,73.7,66.635s6.329.741,10.705-3.905c4.376-4.578,5.992-10.907,2.424-20.064" transform="translate(-3.968 -4.468)" fill="#016666"/>
    <path id="Trazado_749944" data-name="Trazado 749944" d="M112.9,85.051s6.194,5.656,8.416,7.608,11.648,8.685,11.715,10.167c0,.337-23.565-11.042-23.565-11.042S89.265,77.51,89.4,77.106s.875-3.3,1.279-3.434c.471-.2,9.965.2,9.965.2Z" transform="translate(-24.649 -21.47)" fill="#79455b"/>
    <path id="Trazado_749945" data-name="Trazado 749945" d="M89.891,79.2c1.616.2,10.84,3.77,16.226,8.281,5.386,4.444,14.476,10.907,17.1,12.187,2.626,1.347,9.359,4.107,9.157,5.252-.135,1.077-.943,2.9-7.07.471C119.179,102.833,103.222,93.2,101,91.656s-13.6-9.493-13.6-9.493Z" transform="translate(-23.995 -23.294)" fill="#c8842c"/>
    <path id="Trazado_749946" data-name="Trazado 749946" d="M62.656,52.311a17.1,17.1,0,0,1,14.274,4.78c5.184,5.184,6.127,9.291,4.646,12.995s-4.174,6.4-9.561,3.5S61.444,67.056,59.828,62.545s2.828-10.234,2.828-10.234" transform="translate(-14.872 -14.449)" fill="#02a484"/>
    <path id="Trazado_749947" data-name="Trazado 749947" d="M16.4,52.317c.539,4.646,1.818,7.743,7.07,11.513,2.424,1.751,4.982,3.1,10.5,2.626a13.9,13.9,0,0,0,11.379-8.349C47.239,54,50.336,44.44,48.047,36.764c-2.222-7.676-6.464-8.753-8.551-9.426-2.087-.741-9.426-2.559-15.082.808s-7.676,10.1-8.079,16.5c-.337,5.79.067,7.676.067,7.676" transform="translate(-0.734 -5.972)" fill="#121a2c"/>
    <path id="Trazado_749948" data-name="Trazado 749948" d="M28.364,34.062s2.9-1.885,8.214-.741c5.386,1.145,8.685,5.05,8.685,9.763,0,4.78-.539,13.4-4.915,17.708-3.568,3.568-12.86,5.386-16.563-1.818-3.636-7.2,5.521-12.523,5.521-12.523Z" transform="translate(-2.933 -8.185)" fill="#1565ea"/>
    <path id="Trazado_749949" data-name="Trazado 749949" d="M72.626,38.623c-.741-2.357,1.212-5.386,5.992-6.4,4.848-1.01,9.83,0,12.456,4.646,2.559,4.646-2.289,6.935-5.117,7.608-2.76.606-11.513-.067-13.331-5.858" transform="translate(-19.119 -7.831)" fill="#02a484"/>
    <path id="Trazado_749950" data-name="Trazado 749950" d="M81.325,50.989c.471-3.366,2.559-5.858,4.713-6.06a2.489,2.489,0,0,1,2.357,1.145,6.943,6.943,0,0,0-1.279-2.424c-2.357-2.626-6.935-.539-8.349,4.713s.539,9.426,2.559,9.965a5.251,5.251,0,0,0,2.491.067,2.444,2.444,0,0,1-.471-.2c-3.03-1.481-2.222-5.925-2.02-7.2" transform="translate(-21.017 -11.31)" fill="#fdffff"/>
    <path id="Trazado_749951" data-name="Trazado 749951" d="M91.078,47.8a11.688,11.688,0,0,1-.539,7.945c-.943,1.953-2.222,3.77-4.04,4.309" transform="translate(-23.701 -13.036)" fill="#121a2c"/>
    <path id="Trazado_749952" data-name="Trazado 749952" d="M89.229,55.179a12.136,12.136,0,0,0,.539-7.945,2.554,2.554,0,0,0-2.357-1.145c-2.155.2-4.309,2.693-4.713,6.06-.2,1.279-.875,5.723,2.087,7.2.2.067.269.135.471.2,1.818-.539,3.03-2.424,3.972-4.376" transform="translate(-22.391 -12.47)" fill="#121a2c"/>
    <path id="Trazado_749953" data-name="Trazado 749953" d="M137.908,89.3c-1.414-1.347-3.232-2.9-2.626-3.636.337-.4,1.212-.471,2.424,0-2.559-1.818-5.925-4.107-9.426-6.6-8.012-5.656-17.438-14.678-18.381-15.351-3.232-2.424-3.838.2-3.905,1.414-.067,1.279-.067,2.828-2.9,4.107-2.9,1.347-6.194.067-8.147-.2s-1.818,1.347-.875,2.155c3.232,2.626,36.358,19.054,43.293,20.468.2.067.4.067.606.135a1.844,1.844,0,0,0-.067-2.491" transform="translate(-25.959 -17.912)" fill="#ffcc34"/>
    <path id="Trazado_749954" data-name="Trazado 749954" d="M162.926,101.677c.2-.943-1.885-2.693-5.05-5.05-1.212-.539-2.087-.4-2.424,0-.539.606,1.279,2.222,2.626,3.636a1.651,1.651,0,0,1-.067,2.491c3.838.673,4.578.539,4.915-1.077" transform="translate(-46.197 -28.872)" fill="#c8842c"/>
    <path id="Trazado_749955" data-name="Trazado 749955" d="M116.587,74.7c.539,1.414,3.3,2.962,4.78,2.626,1.549-.337.808-1.885-1.077-3.7-1.885-1.751-4.78-1.683-3.7,1.077" transform="translate(-33.455 -21.088)" fill="#c8842c"/>
    <path id="Trazado_749956" data-name="Trazado 749956" d="M36.8,84.8l.337,31.779,3.838,1.212L40.436,84.8Z" transform="translate(-7.464 -25.124)" fill="#121a2c"/>
    <path id="Trazado_749957" data-name="Trazado 749957" d="M39.51,56.45c-2.962,6.868-8.012,6.666-12.254,5.588-4.511-1.145-5.656-5.656-5.858-9.9-.067-2.289.808-11.85,3.7-15.755s8.349-2.9,9.965-2.491a10.114,10.114,0,0,1,6.8,10.975c-.875,7.878-1.212,9.022-2.357,11.581" transform="translate(-2.431 -8.355)" fill="#fff"/>
    <path id="Trazado_749958" data-name="Trazado 749958" d="M26.1,57.223l.943-3.434s4.04,2.155,5.992,1.347c1.885-.808,1.01-2.828-1.077-3.7-2.087-.943-4.78-2.357-3.7-6.6s3.905-5.521,10.638-2.9l-1.212,3.7s-5.521-2.828-5.992.2C31.352,48.066,39.3,48.4,37.883,54.6,35.863,62.474,26.1,57.223,26.1,57.223" transform="translate(-3.968 -10.676)" fill="#1565ea"/>
  </g>
</svg>
