<svg xmlns="http://www.w3.org/2000/svg" width="505" height="256" viewBox="0 0 505 256">
  <g id="Grupo_1020838" data-name="Grupo 1020838" transform="translate(-538.223 -2099)">
    <g id="Trazado_755401" data-name="Trazado 755401" transform="translate(538.223 2121)" fill="none">
      <path d="M0,0H505V36H0Z" stroke="none"/>
      <path d="M 4 4 L 4 32 L 501 32 L 501 4 L 4 4 M 0 0 L 505 0 L 505 36 L 0 36 L 0 0 Z" stroke="none" fill="#ffb338"/>
    </g>
    <g id="Trazado_755402" data-name="Trazado 755402" transform="translate(538.223 2187)" fill="none">
      <path d="M0,0H505V36H0Z" stroke="none"/>
      <path d="M 4 4 L 4 32 L 501 32 L 501 4 L 4 4 M 0 0 L 505 0 L 505 36 L 0 36 L 0 0 Z" stroke="none" fill="#b1de19"/>
    </g>
    <g id="Trazado_755403" data-name="Trazado 755403" transform="translate(538.223 2253)" fill="none">
      <path d="M0,0H505V36H0Z" stroke="none"/>
      <path d="M 4 4 L 4 32 L 501 32 L 501 4 L 4 4 M 0 0 L 505 0 L 505 36 L 0 36 L 0 0 Z" stroke="none" fill="#0082ff"/>
    </g>
    <g id="Trazado_755404" data-name="Trazado 755404" transform="translate(538.223 2319)" fill="none">
      <path d="M0,0H505V36H0Z" stroke="none"/>
      <path d="M 4 4 L 4 32 L 501 32 L 501 4 L 4 4 M 0 0 L 505 0 L 505 36 L 0 36 L 0 0 Z" stroke="none" fill="#eb6f2d"/>
    </g>
    <g id="Trazado_755405" data-name="Trazado 755405" transform="translate(568.223 2103)" fill="#ffe4b9">
      <path d="M 342 39 L 4 39 C 0.6915909051895142 39 -2 36.30841064453125 -2 33 L -2 4 C -2 0.6915909051895142 0.6915909051895142 -2 4 -2 L 342 -2 C 345.3084106445312 -2 348 0.6915909051895142 348 4 L 348 33 C 348 36.30841064453125 345.3084106445312 39 342 39 Z" stroke="none"/>
      <path d="M 4 0 C 1.790863037109375 0 0 1.790851593017578 0 4 L 0 33 C 0 35.20914840698242 1.790863037109375 37 4 37 L 342 37 C 344.2091369628906 37 346 35.20914840698242 346 33 L 346 4 C 346 1.790851593017578 344.2091369628906 0 342 0 L 4 0 M 4 -4 L 342 -4 C 346.4111938476562 -4 350 -0.4112014770507812 350 4 L 350 33 C 350 37.41120147705078 346.4111938476562 41 342 41 L 4 41 C -0.41119384765625 41 -4 37.41120147705078 -4 33 L -4 4 C -4 -0.4112014770507812 -0.41119384765625 -4 4 -4 Z" stroke="none" fill="#fff"/>
    </g>
    <g id="Trazado_755406" data-name="Trazado 755406" transform="translate(568.223 2169)" fill="#e4f4ae">
      <path d="M 342 39 L 4 39 C 0.6915909051895142 39 -2 36.30841064453125 -2 33 L -2 4 C -2 0.6915909051895142 0.6915909051895142 -2 4 -2 L 342 -2 C 345.3084106445312 -2 348 0.6915909051895142 348 4 L 348 33 C 348 36.30841064453125 345.3084106445312 39 342 39 Z" stroke="none"/>
      <path d="M 4 0 C 1.790863037109375 0 0 1.790851593017578 0 4 L 0 33 C 0 35.20914840698242 1.790863037109375 37 4 37 L 342 37 C 344.2091369628906 37 346 35.20914840698242 346 33 L 346 4 C 346 1.790851593017578 344.2091369628906 0 342 0 L 4 0 M 4 -4 L 342 -4 C 346.4111938476562 -4 350 -0.4112014770507812 350 4 L 350 33 C 350 37.41120147705078 346.4111938476562 41 342 41 L 4 41 C -0.41119384765625 41 -4 37.41120147705078 -4 33 L -4 4 C -4 -0.4112014770507812 -0.41119384765625 -4 4 -4 Z" stroke="none" fill="#fff"/>
    </g>
    <g id="Trazado_755407" data-name="Trazado 755407" transform="translate(568.223 2235)" fill="#a6d3ff">
      <path d="M 342 39 L 4 39 C 0.6915909051895142 39 -2 36.30841064453125 -2 33 L -2 4 C -2 0.6915909051895142 0.6915909051895142 -2 4 -2 L 342 -2 C 345.3084106445312 -2 348 0.6915909051895142 348 4 L 348 33 C 348 36.30841064453125 345.3084106445312 39 342 39 Z" stroke="none"/>
      <path d="M 4 0 C 1.790863037109375 0 0 1.790851593017578 0 4 L 0 33 C 0 35.20914840698242 1.790863037109375 37 4 37 L 342 37 C 344.2091369628906 37 346 35.20914840698242 346 33 L 346 4 C 346 1.790851593017578 344.2091369628906 0 342 0 L 4 0 M 4 -4 L 342 -4 C 346.4111938476562 -4 350 -0.4112014770507812 350 4 L 350 33 C 350 37.41120147705078 346.4111938476562 41 342 41 L 4 41 C -0.41119384765625 41 -4 37.41120147705078 -4 33 L -4 4 C -4 -0.4112014770507812 -0.41119384765625 -4 4 -4 Z" stroke="none" fill="#fff"/>
    </g>
    <g id="Trazado_750305" data-name="Trazado 750305" transform="translate(568.223 2301)" fill="#f8cdb5">
      <path d="M 342 39 L 4 39 C 0.6915909051895142 39 -2 36.30841064453125 -2 33 L -2 4 C -2 0.6915909051895142 0.6915909051895142 -2 4 -2 L 342 -2 C 345.3084106445312 -2 348 0.6915909051895142 348 4 L 348 33 C 348 36.30841064453125 345.3084106445312 39 342 39 Z" stroke="none"/>
      <path d="M 4 0 C 1.790863037109375 0 0 1.790851593017578 0 4 L 0 33 C 0 35.20914840698242 1.790863037109375 37 4 37 L 342 37 C 344.2091369628906 37 346 35.20914840698242 346 33 L 346 4 C 346 1.790851593017578 344.2091369628906 0 342 0 L 4 0 M 4 -4 L 342 -4 C 346.4111938476562 -4 350 -0.4112014770507812 350 4 L 350 33 C 350 37.41120147705078 346.4111938476562 41 342 41 L 4 41 C -0.41119384765625 41 -4 37.41120147705078 -4 33 L -4 4 C -4 -0.4112014770507812 -0.41119384765625 -4 4 -4 Z" stroke="none" fill="#fff"/>
    </g>
    <path id="Trazado_755408" data-name="Trazado 755408" d="M7.75-5.258H2.82v4.031H8.547V0H1.32V-11.375H8.469v1.227H2.82v3.664H7.75Zm3.8-3.2L11.6-7.391a3.08,3.08,0,0,1,2.531-1.219q2.68,0,2.7,3.023V0H15.391V-5.594a1.946,1.946,0,0,0-.418-1.352A1.675,1.675,0,0,0,13.7-7.383a2.086,2.086,0,0,0-1.234.375,2.546,2.546,0,0,0-.828.984V0H10.188V-8.453ZM20.977-10.5v2.047h1.578v1.117H20.977v5.249a1.173,1.173,0,0,0,.211.763.888.888,0,0,0,.719.254,3.5,3.5,0,0,0,.688-.094V0a4.215,4.215,0,0,1-1.109.155A1.8,1.8,0,0,1,20.023-.43a2.517,2.517,0,0,1-.492-1.664V-7.336H17.992V-8.453h1.539V-10.5Zm7.352,3.344a4.331,4.331,0,0,0-.711-.055A1.9,1.9,0,0,0,25.688-6V0H24.242V-8.453h1.406l.023.977a2.251,2.251,0,0,1,2.016-1.133,1.477,1.477,0,0,1,.641.109ZM33.016.156a3.693,3.693,0,0,1-2.8-1.129,4.19,4.19,0,0,1-1.078-3.02v-.266a5.073,5.073,0,0,1,.48-2.246,3.748,3.748,0,0,1,1.344-1.547,3.378,3.378,0,0,1,1.871-.559A3.166,3.166,0,0,1,35.4-7.523a4.7,4.7,0,0,1,.914,3.109v.6H30.586a3,3,0,0,0,.73,2.02,2.3,2.3,0,0,0,1.777.77,2.517,2.517,0,0,0,1.3-.312,3.259,3.259,0,0,0,.93-.828l.883.688A3.55,3.55,0,0,1,33.016.156Zm-.18-7.578a1.928,1.928,0,0,0-1.469.637A3.1,3.1,0,0,0,30.633-5h4.234v-.109a2.753,2.753,0,0,0-.594-1.707A1.815,1.815,0,0,0,32.836-7.422ZM39.945-10.5v2.047h1.578v1.117H39.945v5.249a1.173,1.173,0,0,0,.211.763.888.888,0,0,0,.719.254,3.5,3.5,0,0,0,.688-.094V0a4.215,4.215,0,0,1-1.109.155A1.8,1.8,0,0,1,38.992-.43,2.517,2.517,0,0,1,38.5-2.094V-7.336H36.961V-8.453H38.5V-10.5ZM46.719.156a3.693,3.693,0,0,1-2.8-1.129,4.19,4.19,0,0,1-1.078-3.02v-.266a5.073,5.073,0,0,1,.48-2.246,3.748,3.748,0,0,1,1.344-1.547,3.378,3.378,0,0,1,1.871-.559A3.166,3.166,0,0,1,49.1-7.523a4.7,4.7,0,0,1,.914,3.109v.6H44.289a3,3,0,0,0,.73,2.02,2.3,2.3,0,0,0,1.777.77,2.517,2.517,0,0,0,1.3-.312,3.259,3.259,0,0,0,.93-.828l.883.688A3.55,3.55,0,0,1,46.719.156Zm-.18-7.578a1.928,1.928,0,0,0-1.469.637A3.1,3.1,0,0,0,44.336-5H48.57v-.109a2.753,2.753,0,0,0-.594-1.707A1.815,1.815,0,0,0,46.539-7.422Zm6.516-1.031L53.1-7.391a3.08,3.08,0,0,1,2.531-1.219q2.68,0,2.7,3.023V0H56.891V-5.594a1.946,1.946,0,0,0-.418-1.352A1.675,1.675,0,0,0,55.2-7.383a2.086,2.086,0,0,0-1.234.375,2.546,2.546,0,0,0-.828.984V0H51.688V-8.453ZM64.023.156a3.693,3.693,0,0,1-2.8-1.129,4.19,4.19,0,0,1-1.078-3.02v-.266a5.073,5.073,0,0,1,.48-2.246,3.748,3.748,0,0,1,1.344-1.547,3.378,3.378,0,0,1,1.871-.559,3.166,3.166,0,0,1,2.563,1.086,4.7,4.7,0,0,1,.914,3.109v.6H61.594a3,3,0,0,0,.73,2.02,2.3,2.3,0,0,0,1.777.77,2.517,2.517,0,0,0,1.3-.312,3.259,3.259,0,0,0,.93-.828l.883.688A3.55,3.55,0,0,1,64.023.156Zm-.18-7.578a1.928,1.928,0,0,0-1.469.637A3.1,3.1,0,0,0,61.641-5h4.234v-.109a2.753,2.753,0,0,0-.594-1.707A1.815,1.815,0,0,0,63.844-7.422Zm9.234.266a4.331,4.331,0,0,0-.711-.055A1.9,1.9,0,0,0,70.438-6V0H68.992V-8.453H70.4l.023.977a2.251,2.251,0,0,1,2.016-1.133,1.477,1.477,0,0,1,.641.109Zm.4,6.4a.905.905,0,0,1,.223-.625.848.848,0,0,1,.668-.25.874.874,0,0,1,.676.25.887.887,0,0,1,.23.625.839.839,0,0,1-.23.6.89.89,0,0,1-.676.242A.863.863,0,0,1,73.7-.156.855.855,0,0,1,73.477-.758Z" transform="translate(580.223 2127)" fill="#12263f"/>
    <path id="Trazado_755409" data-name="Trazado 755409" d="M2.93,0H1.43V-11.375h1.5ZM6.813-8.453l.047,1.063A3.08,3.08,0,0,1,9.391-8.609q2.68,0,2.7,3.023V0H10.648V-5.594a1.946,1.946,0,0,0-.418-1.352,1.675,1.675,0,0,0-1.277-.437,2.086,2.086,0,0,0-1.234.375,2.546,2.546,0,0,0-.828.984V0H5.445V-8.453ZM19.2-2.242a1.064,1.064,0,0,0-.441-.91,4.249,4.249,0,0,0-1.539-.559,7.277,7.277,0,0,1-1.742-.562,2.479,2.479,0,0,1-.953-.781,1.869,1.869,0,0,1-.309-1.078,2.193,2.193,0,0,1,.879-1.758,3.432,3.432,0,0,1,2.246-.719,3.532,3.532,0,0,1,2.332.742,2.357,2.357,0,0,1,.895,1.9H19.109a1.3,1.3,0,0,0-.5-1.023,1.888,1.888,0,0,0-1.27-.43,1.976,1.976,0,0,0-1.234.344,1.082,1.082,0,0,0-.445.9.877.877,0,0,0,.414.789,5.1,5.1,0,0,0,1.5.508A7.8,7.8,0,0,1,19.32-4.3a2.558,2.558,0,0,1,1,.809,1.988,1.988,0,0,1,.324,1.152,2.163,2.163,0,0,1-.906,1.816,3.8,3.8,0,0,1-2.352.684,4.257,4.257,0,0,1-1.8-.359,2.922,2.922,0,0,1-1.223-1A2.42,2.42,0,0,1,13.922-2.6h1.445a1.5,1.5,0,0,0,.582,1.152,2.258,2.258,0,0,0,1.434.426A2.331,2.331,0,0,0,18.7-1.355,1.02,1.02,0,0,0,19.2-2.242ZM29.664-4.133a5.062,5.062,0,0,1-.883,3.109A2.829,2.829,0,0,1,26.391.156,3.1,3.1,0,0,1,23.969-.82V3.25H22.523v-11.7h1.32l.07.938a2.977,2.977,0,0,1,2.453-1.094,2.882,2.882,0,0,1,2.41,1.148,5.117,5.117,0,0,1,.887,3.2ZM28.219-4.3a3.735,3.735,0,0,0-.609-2.258,1.963,1.963,0,0,0-1.672-.828,2.125,2.125,0,0,0-1.969,1.164V-2.18a2.129,2.129,0,0,0,1.984,1.156,1.954,1.954,0,0,0,1.652-.824A4.077,4.077,0,0,0,28.219-4.3ZM33.07,0H31.625V-8.453H33.07ZM31.508-10.7a.863.863,0,0,1,.215-.594.807.807,0,0,1,.637-.242.819.819,0,0,1,.641.242.854.854,0,0,1,.219.594.826.826,0,0,1-.219.586.834.834,0,0,1-.641.234.821.821,0,0,1-.637-.234A.834.834,0,0,1,31.508-10.7Zm7.961,3.539a4.331,4.331,0,0,0-.711-.055A1.9,1.9,0,0,0,36.828-6V0H35.383V-8.453h1.406l.023.977a2.251,2.251,0,0,1,2.016-1.133,1.477,1.477,0,0,1,.641.109ZM45.7,0a3.036,3.036,0,0,1-.2-.891A3.225,3.225,0,0,1,43.094.156a2.984,2.984,0,0,1-2.051-.707,2.287,2.287,0,0,1-.8-1.793,2.39,2.39,0,0,1,1-2.051,4.733,4.733,0,0,1,2.824-.73h1.406v-.664A1.623,1.623,0,0,0,45.023-7a1.821,1.821,0,0,0-1.336-.449,2.107,2.107,0,0,0-1.3.391,1.151,1.151,0,0,0-.523.945H40.414a2,2,0,0,1,.449-1.223,3.066,3.066,0,0,1,1.219-.934,4.1,4.1,0,0,1,1.691-.344,3.342,3.342,0,0,1,2.289.73,2.635,2.635,0,0,1,.859,2.012v3.891a4.757,4.757,0,0,0,.3,1.852V0ZM43.3-1.1a2.54,2.54,0,0,0,1.289-.352,2.127,2.127,0,0,0,.883-.914V-4.1H44.344q-2.656,0-2.656,1.555a1.316,1.316,0,0,0,.453,1.063A1.742,1.742,0,0,0,43.3-1.1Zm9.969-6.055a4.331,4.331,0,0,0-.711-.055A1.9,1.9,0,0,0,50.633-6V0H49.188V-8.453h1.406l.023.977a2.251,2.251,0,0,1,2.016-1.133,1.477,1.477,0,0,1,.641.109Zm.4,6.4a.905.905,0,0,1,.223-.625.848.848,0,0,1,.668-.25.874.874,0,0,1,.676.25.887.887,0,0,1,.23.625.839.839,0,0,1-.23.6.89.89,0,0,1-.676.242.863.863,0,0,1-.668-.242A.855.855,0,0,1,53.672-.758Z" transform="translate(580.223 2193)" fill="#12263f"/>
    <path id="Trazado_755410" data-name="Trazado 755410" d="M7.75-5.258H2.82v4.031H8.547V0H1.32V-11.375H8.469v1.227H2.82v3.664H7.75ZM9.688-4.3a4.952,4.952,0,0,1,.922-3.129,2.915,2.915,0,0,1,2.414-1.184,2.932,2.932,0,0,1,2.352,1.016V-12H16.82V0H15.492l-.07-.906A2.943,2.943,0,0,1,13.008.156a2.887,2.887,0,0,1-2.395-1.2,5.008,5.008,0,0,1-.926-3.141Zm1.445.164a3.749,3.749,0,0,0,.594,2.25,1.92,1.92,0,0,0,1.641.813A2.108,2.108,0,0,0,15.375-2.3V-6.187a2.125,2.125,0,0,0-1.992-1.2,1.929,1.929,0,0,0-1.656.82A4.128,4.128,0,0,0,11.133-4.133Zm13.148,3.3A3.07,3.07,0,0,1,21.8.156a2.628,2.628,0,0,1-2.059-.785,3.4,3.4,0,0,1-.715-2.324v-5.5h1.445v5.461q0,1.922,1.563,1.922a2.163,2.163,0,0,0,2.2-1.234V-8.453h1.445V0H24.313Zm6.992-.187a2.082,2.082,0,0,0,1.352-.469,1.649,1.649,0,0,0,.641-1.172h1.367a2.621,2.621,0,0,1-.5,1.383A3.293,3.293,0,0,1,32.9-.234a3.55,3.55,0,0,1-1.629.391A3.482,3.482,0,0,1,28.527-1a4.59,4.59,0,0,1-1.02-3.152v-.242a5.089,5.089,0,0,1,.453-2.2,3.451,3.451,0,0,1,1.3-1.492,3.7,3.7,0,0,1,2-.531,3.39,3.39,0,0,1,2.363.852,3.043,3.043,0,0,1,1,2.211H33.266a1.992,1.992,0,0,0-.621-1.348,1.932,1.932,0,0,0-1.379-.527,2.023,2.023,0,0,0-1.707.793,3.724,3.724,0,0,0-.605,2.293v.273a3.65,3.65,0,0,0,.6,2.25A2.033,2.033,0,0,0,31.273-1.023ZM41.477,0a3.036,3.036,0,0,1-.2-.891A3.225,3.225,0,0,1,38.867.156a2.984,2.984,0,0,1-2.051-.707,2.287,2.287,0,0,1-.8-1.793,2.39,2.39,0,0,1,1-2.051,4.733,4.733,0,0,1,2.824-.73H41.25v-.664A1.623,1.623,0,0,0,40.8-7a1.821,1.821,0,0,0-1.336-.449,2.107,2.107,0,0,0-1.3.391,1.151,1.151,0,0,0-.523.945H36.188a2,2,0,0,1,.449-1.223,3.066,3.066,0,0,1,1.219-.934,4.1,4.1,0,0,1,1.691-.344,3.342,3.342,0,0,1,2.289.73A2.635,2.635,0,0,1,42.7-5.867v3.891a4.757,4.757,0,0,0,.3,1.852V0Zm-2.4-1.1a2.54,2.54,0,0,0,1.289-.352,2.127,2.127,0,0,0,.883-.914V-4.1H40.117q-2.656,0-2.656,1.555a1.316,1.316,0,0,0,.453,1.063A1.742,1.742,0,0,0,39.078-1.1Zm9.969-6.055a4.331,4.331,0,0,0-.711-.055A1.9,1.9,0,0,0,46.406-6V0H44.961V-8.453h1.406l.023.977a2.251,2.251,0,0,1,2.016-1.133,1.477,1.477,0,0,1,.641.109Zm.4,6.4a.905.905,0,0,1,.223-.625.848.848,0,0,1,.668-.25.874.874,0,0,1,.676.25.887.887,0,0,1,.23.625.839.839,0,0,1-.23.6.89.89,0,0,1-.676.242.863.863,0,0,1-.668-.242A.855.855,0,0,1,49.445-.758Z" transform="translate(580.223 2259)" fill="#12263f"/>
    <path id="Trazado_755411" data-name="Trazado 755411" d="M9.688-3.609A4.185,4.185,0,0,1,8.355-.824a4.365,4.365,0,0,1-2.98.98,4.008,4.008,0,0,1-3.23-1.445A5.815,5.815,0,0,1,.93-5.156V-6.25A6.481,6.481,0,0,1,1.5-9.039,4.231,4.231,0,0,1,3.1-10.887a4.47,4.47,0,0,1,2.406-.645A4.11,4.11,0,0,1,8.414-10.52a4.235,4.235,0,0,1,1.273,2.8H8.18a3.268,3.268,0,0,0-.848-1.975A2.565,2.565,0,0,0,5.508-10.3,2.684,2.684,0,0,0,3.254-9.241a4.882,4.882,0,0,0-.816,3.026v1.1a5.018,5.018,0,0,0,.773,2.948A2.5,2.5,0,0,0,5.375-1.07a2.887,2.887,0,0,0,1.918-.566A3.143,3.143,0,0,0,8.18-3.609Zm1.438-.7a4.993,4.993,0,0,1,.488-2.234A3.643,3.643,0,0,1,12.973-8.07a3.7,3.7,0,0,1,1.988-.539,3.565,3.565,0,0,1,2.793,1.2,4.6,4.6,0,0,1,1.066,3.18v.1a5.036,5.036,0,0,1-.473,2.215A3.589,3.589,0,0,1,17-.391a3.743,3.743,0,0,1-2.02.547,3.556,3.556,0,0,1-2.785-1.2A4.575,4.575,0,0,1,11.125-4.2Zm1.453.172a3.616,3.616,0,0,0,.652,2.258,2.088,2.088,0,0,0,1.746.852,2.075,2.075,0,0,0,1.75-.863A3.955,3.955,0,0,0,17.375-4.3a3.61,3.61,0,0,0-.66-2.254,2.1,2.1,0,0,0-1.754-.863,2.075,2.075,0,0,0-1.727.852A3.925,3.925,0,0,0,12.578-4.133ZM22-8.453l.047,1.063a3.08,3.08,0,0,1,2.531-1.219q2.68,0,2.7,3.023V0H25.836V-5.594a1.946,1.946,0,0,0-.418-1.352,1.675,1.675,0,0,0-1.277-.437,2.086,2.086,0,0,0-1.234.375,2.546,2.546,0,0,0-.828.984V0H20.633V-8.453ZM32.25-1.961l2.094-6.492H35.82L32.789,0h-1.1L28.625-8.453H30.1ZM40.617.156a3.693,3.693,0,0,1-2.8-1.129,4.19,4.19,0,0,1-1.078-3.02v-.266a5.073,5.073,0,0,1,.48-2.246,3.748,3.748,0,0,1,1.344-1.547,3.378,3.378,0,0,1,1.871-.559A3.166,3.166,0,0,1,43-7.523a4.7,4.7,0,0,1,.914,3.109v.6H38.188a3,3,0,0,0,.73,2.02,2.3,2.3,0,0,0,1.777.77,2.517,2.517,0,0,0,1.3-.312,3.259,3.259,0,0,0,.93-.828l.883.688A3.55,3.55,0,0,1,40.617.156Zm-.18-7.578a1.928,1.928,0,0,0-1.469.637A3.1,3.1,0,0,0,38.234-5h4.234v-.109a2.753,2.753,0,0,0-.594-1.707A1.815,1.815,0,0,0,40.438-7.422Zm6.516-1.031L47-7.391a3.08,3.08,0,0,1,2.531-1.219q2.68,0,2.7,3.023V0H50.789V-5.594a1.946,1.946,0,0,0-.418-1.352,1.675,1.675,0,0,0-1.277-.437,2.086,2.086,0,0,0-1.234.375,2.546,2.546,0,0,0-.828.984V0H45.586V-8.453ZM57.8-1.023a2.082,2.082,0,0,0,1.352-.469A1.649,1.649,0,0,0,59.8-2.664h1.367a2.621,2.621,0,0,1-.5,1.383,3.293,3.293,0,0,1-1.23,1.047A3.55,3.55,0,0,1,57.8.156,3.482,3.482,0,0,1,55.059-1a4.59,4.59,0,0,1-1.02-3.152v-.242a5.089,5.089,0,0,1,.453-2.2,3.451,3.451,0,0,1,1.3-1.492,3.7,3.7,0,0,1,2-.531,3.39,3.39,0,0,1,2.363.852,3.043,3.043,0,0,1,1,2.211H59.8a1.992,1.992,0,0,0-.621-1.348A1.932,1.932,0,0,0,57.8-7.422a2.023,2.023,0,0,0-1.707.793,3.724,3.724,0,0,0-.605,2.293v.273a3.65,3.65,0,0,0,.6,2.25A2.033,2.033,0,0,0,57.8-1.023ZM66.3.156A3.693,3.693,0,0,1,63.5-.973a4.19,4.19,0,0,1-1.078-3.02v-.266A5.073,5.073,0,0,1,62.9-6.5a3.748,3.748,0,0,1,1.344-1.547,3.378,3.378,0,0,1,1.871-.559A3.166,3.166,0,0,1,68.68-7.523a4.7,4.7,0,0,1,.914,3.109v.6H63.867a3,3,0,0,0,.73,2.02,2.3,2.3,0,0,0,1.777.77,2.517,2.517,0,0,0,1.3-.312,3.259,3.259,0,0,0,.93-.828l.883.688A3.55,3.55,0,0,1,66.3.156Zm-.18-7.578a1.928,1.928,0,0,0-1.469.637A3.1,3.1,0,0,0,63.914-5h4.234v-.109a2.753,2.753,0,0,0-.594-1.707A1.815,1.815,0,0,0,66.117-7.422Zm9.234.266a4.331,4.331,0,0,0-.711-.055A1.9,1.9,0,0,0,72.711-6V0H71.266V-8.453h1.406l.023.977a2.251,2.251,0,0,1,2.016-1.133,1.477,1.477,0,0,1,.641.109Zm.4,6.4a.905.905,0,0,1,.223-.625.848.848,0,0,1,.668-.25.874.874,0,0,1,.676.25.887.887,0,0,1,.23.625.839.839,0,0,1-.23.6.89.89,0,0,1-.676.242.863.863,0,0,1-.668-.242A.855.855,0,0,1,75.75-.758Z" transform="translate(580.223 2325)" fill="#12263f"/>
  </g>
</svg>
