<svg xmlns="http://www.w3.org/2000/svg" width="88.896" height="77.238" viewBox="0 0 88.896 77.238">
  <g id="Grupo_881607" data-name="Grupo 881607" transform="translate(-312.786 -2358)">
    <g id="Grupo_881588" data-name="Grupo 881588" transform="translate(316.786 2359.26)">
      <path id="Trazado_749359" data-name="Trazado 749359" d="M89.259,94.708h-77.3A4.489,4.489,0,0,1,7.49,90.2V43.667a4.489,4.489,0,0,1,4.471-4.506h77.3a4.489,4.489,0,0,1,4.471,4.506V90.2A4.489,4.489,0,0,1,89.259,94.708Z" transform="translate(-11.49 -38.255)" fill="#fff"/>
    </g>
    <g id="Grupo_881589" data-name="Grupo 881589" transform="translate(316.786 2359.26)">
      <path id="Trazado_749360" data-name="Trazado 749360" d="M86.8,39.161H84.074V81.232a4.331,4.331,0,0,1-4.33,4.331H7.49v2.722a4.331,4.331,0,0,0,4.33,4.331H86.8a4.33,4.33,0,0,0,4.33-4.331V43.491A4.33,4.33,0,0,0,86.8,39.161Z" transform="translate(-7.49 -39.161)" fill="#fff"/>
    </g>
    <g id="Grupo_881590" data-name="Grupo 881590" transform="translate(316.786 2402.212)">
      <path id="Trazado_749361" data-name="Trazado 749361" d="M7.49,294.411v6.171a4.331,4.331,0,0,0,4.33,4.331H86.8a4.33,4.33,0,0,0,4.33-4.331v-6.171Z" transform="translate(-7.49 -294.411)" fill="#7c8b96"/>
    </g>
    <g id="Grupo_881591" data-name="Grupo 881591" transform="translate(316.786 2402.212)">
      <path id="Trazado_749362" data-name="Trazado 749362" d="M83.984,294.411a4.332,4.332,0,0,1-4.241,3.449H7.49v2.722a4.331,4.331,0,0,0,4.33,4.331H86.8a4.33,4.33,0,0,0,4.33-4.331v-6.171Z" transform="translate(-7.49 -294.411)" fill="#465961"/>
    </g>
    <g id="Grupo_881592" data-name="Grupo 881592" transform="translate(315.525 2358)">
      <path id="Trazado_749363" data-name="Trazado 749363" d="M80.566,87.644H5.591A5.6,5.6,0,0,1,0,82.054V37.261A5.6,5.6,0,0,1,5.591,31.67H80.566a5.6,5.6,0,0,1,5.591,5.591V82.053A5.6,5.6,0,0,1,80.566,87.644ZM5.591,34.191a3.073,3.073,0,0,0-3.07,3.07V82.054a3.074,3.074,0,0,0,3.07,3.07H80.566a3.074,3.074,0,0,0,3.07-3.07V37.261a3.074,3.074,0,0,0-3.07-3.07Z" transform="translate(0 -31.67)" fill="#465961"/>
    </g>
    <g id="Grupo_881603" data-name="Grupo 881603" transform="translate(316.786 2365.402)">
      <g id="Grupo_881600" data-name="Grupo 881600" transform="translate(16.093)">
        <g id="Grupo_881593" data-name="Grupo 881593" transform="translate(0 21.737)">
          <path id="Trazado_749364" data-name="Trazado 749364" d="M110.217,209.371c.193,2.623-.438,4.808-2.649,4.971s-4.235-2.839-4.428-5.462,1.517-3.875,3.728-4.038S110.023,206.747,110.217,209.371Z" transform="translate(-103.124 -204.833)" fill="#fff"/>
        </g>
        <g id="Grupo_881594" data-name="Grupo 881594" transform="translate(28.181 21.737)">
          <path id="Trazado_749365" data-name="Trazado 749365" d="M270.627,209.371c-.193,2.623.438,4.808,2.649,4.971s4.235-2.839,4.428-5.462-1.517-3.875-3.728-4.038S270.82,206.747,270.627,209.371Z" transform="translate(-270.594 -204.833)" fill="#fdad9d"/>
        </g>
        <g id="Grupo_881595" data-name="Grupo 881595" transform="translate(28.181 21.737)">
          <path id="Trazado_749366" data-name="Trazado 749366" d="M270.627,209.371c-.193,2.623.438,4.808,2.649,4.971s4.235-2.839,4.428-5.462-1.517-3.875-3.728-4.038S270.82,206.747,270.627,209.371Z" transform="translate(-270.594 -204.833)" fill="#fff"/>
        </g>
        <g id="Grupo_881596" data-name="Grupo 881596" transform="translate(8.461 26.006)">
          <path id="Trazado_749367" data-name="Trazado 749367" d="M153.408,230.207h18.383v17.318H153.408Z" transform="translate(-153.408 -230.207)" fill="#fff"/>
        </g>
        <g id="Grupo_881597" data-name="Grupo 881597" transform="translate(22.518 26.006)">
          <path id="Trazado_749368" data-name="Trazado 749368" d="M236.944,230.207h4.326v17.318h-4.326Z" transform="translate(-236.944 -230.207)" fill="#fff"/>
        </g>
        <g id="Grupo_881598" data-name="Grupo 881598" transform="translate(4.188)">
          <path id="Trazado_749369" data-name="Trazado 749369" d="M151.006,75.672a.435.435,0,0,0-.5.231,5.971,5.971,0,0,1-5.377,3.373H135.8a7.79,7.79,0,0,0-7.789,7.79V98.608a13.163,13.163,0,0,0,13.163,13.163h.794A13.163,13.163,0,0,0,155.13,98.608V89.853a7.946,7.946,0,0,1,.829-3.5,7.583,7.583,0,0,0-4.953-10.682Z" transform="translate(-128.011 -75.659)" fill="#fff"/>
        </g>
        <g id="Grupo_881599" data-name="Grupo 881599" transform="translate(9.967 0)">
          <path id="Trazado_749370" data-name="Trazado 749370" d="M179.569,75.673a.435.435,0,0,0-.5.231c-.047.1-.1.19-.15.284a7.606,7.606,0,0,1,.984,8.194,7.946,7.946,0,0,0-.829,3.5v8.755A13.163,13.163,0,0,1,165.915,109.8h-.794a13.209,13.209,0,0,1-2.768-.293,13.1,13.1,0,0,0,7.384,2.265h.794a13.163,13.163,0,0,0,13.163-13.163V89.854a7.948,7.948,0,0,1,.829-3.5,7.583,7.583,0,0,0-4.953-10.682Z" transform="translate(-162.353 -75.66)" fill="#fff"/>
        </g>
      </g>
      <g id="Grupo_881601" data-name="Grupo 881601" transform="translate(-4 40.552)">
        <path id="Trazado_749371" data-name="Trazado 749371" d="M52.628,316.648H32.844c-14,0-25.354,12.109-25.354,27.045a2.171,2.171,0,0,0,2.1,2.238h66.3a2.171,2.171,0,0,0,2.1-2.238c0-14.937-11.351-27.045-25.354-27.045Z" transform="translate(-7.49 -316.648)" fill="#fff"/>
      </g>
      <g id="Grupo_881602" data-name="Grupo 881602" transform="translate(30.371 40.552)">
        <path id="Trazado_749372" data-name="Trazado 749372" d="M200.823,316.648H187.977a24.275,24.275,0,0,1,24.275,24.275,2.008,2.008,0,0,1-2.009,2.008h12.846a2.008,2.008,0,0,0,2.009-2.008A24.274,24.274,0,0,0,200.823,316.648Z" transform="translate(-187.977 -316.648)" fill="#fff"/>
      </g>
    </g>
    <g id="Grupo_881604" data-name="Grupo 881604" transform="translate(378.568 2375.376)">
      <path id="Trazado_749373" data-name="Trazado 749373" d="M384.787,139.927l-8.381-4.839a1.178,1.178,0,0,0-1.767,1.02v9.677a1.178,1.178,0,0,0,1.767,1.02l8.381-4.839A1.178,1.178,0,0,0,384.787,139.927Z" transform="translate(-374.64 -134.929)" fill="#7c8b96"/>
    </g>
    <g id="Grupo_881605" data-name="Grupo 881605" transform="translate(378.568 2379.53)">
      <path id="Trazado_749374" data-name="Trazado 749374" d="M384.79,160.46l-1.464-.845-8.686,5.015v1.691a1.176,1.176,0,0,0,1.765,1.019l8.385-4.841A1.176,1.176,0,0,0,384.79,160.46Z" transform="translate(-374.64 -159.615)" fill="#465961"/>
    </g>
    <g id="Grupo_881606" data-name="Grupo 881606" transform="translate(315.525 2358)">
      <path id="Trazado_749375" data-name="Trazado 749375" d="M80.566,31.67H5.591A5.6,5.6,0,0,0,0,37.261v3.371a1.26,1.26,0,1,0,2.521,0V37.261a3.074,3.074,0,0,1,3.07-3.07H80.566a3.074,3.074,0,0,1,3.07,3.07V74.622H45.458V72.437a14.534,14.534,0,0,0,1.173-1.257,4.461,4.461,0,0,0,1.762.406c2.891,0,5.272-3.425,5.508-6.637a4.758,4.758,0,0,0-1.341-3.938,5.221,5.221,0,0,0-2.64-1.321V53.266a6.731,6.731,0,0,1,.7-2.944,8.843,8.843,0,0,0-5.78-12.46,1.7,1.7,0,0,0-1.935.905,4.68,4.68,0,0,1-4.243,2.662H29.33a9.06,9.06,0,0,0-9.05,9.05v9.175a5.3,5.3,0,0,0-2.829,1.356,4.759,4.759,0,0,0-1.341,3.938c.237,3.212,2.617,6.637,5.508,6.637a4.316,4.316,0,0,0,1.894-.478,14.526,14.526,0,0,0,1.041,1.15v6.128A25.437,25.437,0,0,0,8.248,85.124H5.591a3.073,3.073,0,0,1-3.07-3.07V77.143H19.767a1.26,1.26,0,0,0,0-2.521H2.521V46.1A1.26,1.26,0,1,0,0,46.1V82.054a5.6,5.6,0,0,0,5.591,5.591h.266A25.419,25.419,0,0,0,0,103.9a3.273,3.273,0,0,0,3.269,3.269H45.447a1.26,1.26,0,0,0,0-2.521H3.269a.749.749,0,0,1-.748-.748A23.04,23.04,0,0,1,25.535,80.885H44.477A23.04,23.04,0,0,1,67.492,103.9a.749.749,0,0,1-.748.748H51.1a1.26,1.26,0,0,0,0,2.521H66.743a3.273,3.273,0,0,0,3.269-3.269,25.418,25.418,0,0,0-5.856-16.255h16.41a5.6,5.6,0,0,0,5.591-5.591V37.261a5.6,5.6,0,0,0-5.591-5.591ZM50.8,62.818a2.349,2.349,0,0,1,.584,1.946c-.158,2.145-1.773,4.4-3.078,4.3a1.852,1.852,0,0,1-.214-.029,14.325,14.325,0,0,0,1.819-6.741A2.413,2.413,0,0,1,50.8,62.818ZM21.7,69.061c-1.315.1-2.92-2.153-3.078-4.3a2.349,2.349,0,0,1,.584-1.946,2.53,2.53,0,0,1,1.077-.587,14.327,14.327,0,0,0,1.8,6.761A1.681,1.681,0,0,1,21.7,69.061Zm21.234,9.3H27.075V74.253A14.332,14.332,0,0,0,34.7,76.443H35.5a14.336,14.336,0,0,0,7.44-2.072v3.993ZM35.5,73.923H34.7a11.916,11.916,0,0,1-11.9-11.9V50.479A6.537,6.537,0,0,1,29.33,43.95h9.333a7.282,7.282,0,0,0,6.17-3.46,6.326,6.326,0,0,1,3.525,8.722,9.267,9.267,0,0,0-.958,4.054v8.755a11.916,11.916,0,0,1-11.9,11.9Zm48.138,8.131a3.074,3.074,0,0,1-3.07,3.07h-18.8a25.436,25.436,0,0,0-16.306-6.739V77.143H83.636Z" transform="translate(0 -31.67)"/>
      <path id="Trazado_749376" data-name="Trazado 749376" d="M370.8,141.652l8.385-4.841a2.437,2.437,0,0,0,0-4.221l-8.385-4.841a2.437,2.437,0,0,0-3.655,2.11v9.683a2.478,2.478,0,0,0,2.436,2.44A2.433,2.433,0,0,0,370.8,141.652ZM369.671,130l8.133,4.7-8.133,4.7Z" transform="translate(-305.368 -111.306)"/>
    </g>
  </g>
</svg>
