<svg id="Grupo_1020617" data-name="Grupo 1020617" xmlns="http://www.w3.org/2000/svg" xmlns:xlink="http://www.w3.org/1999/xlink" width="399.834" height="118" viewBox="0 0 399.834 118">
  <defs>
    <clipPath id="clip-path">
      <rect id="Rectángulo_362119" data-name="Rectángulo 362119" width="399.834" height="118" fill="none"/>
    </clipPath>
    <clipPath id="clip-path-2">
      <rect id="Rectángulo_362118" data-name="Rectángulo 362118" width="399.833" height="118" fill="none"/>
    </clipPath>
    <clipPath id="clip-path-3">
      <rect id="Rectángulo_362111" data-name="Rectángulo 362111" width="20.457" height="4.605" fill="none"/>
    </clipPath>
    <clipPath id="clip-path-4">
      <rect id="Rectángulo_362112" data-name="Rectángulo 362112" width="7.482" height="5.624" fill="none"/>
    </clipPath>
    <clipPath id="clip-path-6">
      <rect id="Rectángulo_362114" data-name="Rectángulo 362114" width="14.346" height="8.503" fill="none"/>
    </clipPath>
    <clipPath id="clip-path-7">
      <rect id="Rectángulo_362116" data-name="Rectángulo 362116" width="6.766" height="17.537" fill="none"/>
    </clipPath>
    <clipPath id="clip-path-8">
      <rect id="Rectángulo_362117" data-name="Rectángulo 362117" width="3.73" height="15.988" fill="none"/>
    </clipPath>
  </defs>
  <g id="Grupo_1020616" data-name="Grupo 1020616" clip-path="url(#clip-path)">
    <g id="Grupo_1020615" data-name="Grupo 1020615">
      <g id="Grupo_1020614" data-name="Grupo 1020614" clip-path="url(#clip-path-2)">
        <path id="Trazado_754049" data-name="Trazado 754049" d="M53.551,117.292s-33.065-50.07,5.855-73.966c21.717-13.333,51.369,10.34,73.39-25.448,12.815-20.827,57.66-27.148,80.086,1.286s41.7,28.29,57.177,23.03c17.745-6.032,25.54-24.187,53.317-20.348,32.1,4.437,27.8,31.338,51.461,26.654,45.619-9.033,79.418,42.575,47.884,69.147Z" transform="translate(-35.653 -0.001)" fill="#e9f3fe"/>
        <path id="Trazado_754050" data-name="Trazado 754050" d="M354.643,226.23l0,.667s-.182,2.087,2.388,2.392,4.517-.814,4.447-2.424a18.891,18.891,0,0,1-.5-3.135,7.277,7.277,0,0,1,.091-1.25l-4.98-.1-1.467.24Z" transform="translate(-312.58 -196.015)" fill="#ffb27d"/>
        <path id="Trazado_754051" data-name="Trazado 754051" d="M354.624,222.621l.019,3.61a4.213,4.213,0,0,0,1.8.4,5.561,5.561,0,0,0,4.541-2.9,7.276,7.276,0,0,1,.091-1.25l-4.98-.1Z" transform="translate(-312.58 -196.015)" fill="#e8945b"/>
        <path id="Trazado_754052" data-name="Trazado 754052" d="M343.979,160.934s6.378,1.288,7.119-2.7,2.064-6.5-1.977-7.492-5.117.382-5.688,1.651-1.094,8.1.546,8.537" transform="translate(-302.225 -132.575)" fill="#ffb27d"/>
        <path id="Trazado_754053" data-name="Trazado 754053" d="M268.075,263.173s-1.52,8.136-3.178,16.635c-1.8,9.238-6.187,18.068-6.567,18.413-.528.481-2.656-.137-1.79-.661,1.155-.7,1.088-8.889,1.511-13.712a23.859,23.859,0,0,1,.356-2.742c.677-3.048.883-13.832,2.915-15.525s6.752-2.409,6.752-2.409" transform="translate(-225.944 -231.971)" fill="#ffb27d"/>
        <path id="Trazado_754054" data-name="Trazado 754054" d="M280.834,263.173s-.876,4.689-2.023,10.666c-.364,1.9-.755,3.922-1.155,5.969-1.624,3.184-3.018,5.349-3.449,4.941a4.964,4.964,0,0,0-3.4-.9,23.838,23.838,0,0,1,.356-2.742c.053-.241.1-.53.153-.859.568-3.836.89-13.107,2.762-14.666,2.032-1.693,6.752-2.409,6.752-2.409" transform="translate(-238.703 -231.971)" fill="#739af0"/>
        <path id="Trazado_754055" data-name="Trazado 754055" d="M278.811,313.383c-.363,1.9-.755,3.922-1.154,5.969-1.624,3.184-3.018,5.348-3.449,4.941a4.964,4.964,0,0,0-3.4-.9,23.866,23.866,0,0,1,.356-2.742c.054-.241.1-.53.153-.859l4.87-11.756Z" transform="translate(-238.703 -271.515)" fill="#4a75cb"/>
        <path id="Trazado_754056" data-name="Trazado 754056" d="M391.83,962.874a11.55,11.55,0,0,1,.79-2.961c.552-1.1,4.064-.4,4.064-.4s.7.6.853,3.412Z" transform="translate(-345.374 -845.558)" fill="#233862"/>
        <path id="Trazado_754057" data-name="Trazado 754057" d="M207.8,945.648c.825-.5.356-4.262.356-4.262s-3.846-3.077-4.375-.721-3.653,3.413-5.432,3.7a1.909,1.909,0,0,0-1.726,1.281Z" transform="translate(-173.311 -828.357)" fill="#233862"/>
        <path id="Trazado_754058" data-name="Trazado 754058" d="M260.676,545.5a17.749,17.749,0,0,0-.282,2.077c-.358,6.974-5.87,22.918-6.856,23.29-1.526.576-3.928-.648-5.185-1.048a1.078,1.078,0,0,1-.756-1.225c2.73-12.55,3.733-30.621,4.1-41.321a48.553,48.553,0,0,1,1.109-9.112s13.445-3.587,13.525.951c.071,4.016-4.454,19.764-5.653,26.388" transform="translate(-218.221 -455.54)" fill="#2b478b"/>
        <path id="Trazado_754059" data-name="Trazado 754059" d="M291.309,545.5l-8.982-18.226a48.556,48.556,0,0,1,1.109-9.112s13.445-3.587,13.525.951c.071,4.016-4.454,19.764-5.653,26.388" transform="translate(-248.854 -455.54)" fill="#233862"/>
        <path id="Trazado_754060" data-name="Trazado 754060" d="M332.852,524.134l7.107,51.513a13.9,13.9,0,0,0,5.549.151s2.081-27.4,1.908-34.021,1.493-17.723-.38-18.947-14.183,1.3-14.183,1.3" transform="translate(-293.389 -460.548)" fill="#2b478b"/>
        <path id="Trazado_754061" data-name="Trazado 754061" d="M308.335,294.241a1.062,1.062,0,0,1-1.045,1.1l-11.2.171-8.227.126c-.385.007.833-3.075.857-23.172.006-4.484,6.949-9.31,7.077-9.31h0a2.7,2.7,0,0,0,2.585,1.941c1.861.122,4.143-.8,4.143-1.876a4.992,4.992,0,0,1,.564.728,28.977,28.977,0,0,1,3.994,10.4c.943,4.536.58,10.6,1.259,18.427.05.565-.023,1.067-.009,1.463" transform="translate(-253.667 -231.96)" fill="#d86713"/>
        <path id="Trazado_754062" data-name="Trazado 754062" d="M307.921,295.407a22.8,22.8,0,0,1-4.274,1.244,42.115,42.115,0,0,1-8.28.832c-5.444.035-7.506-1.842-7.506-1.842-.385.007.832-3.075.857-23.172.006-4.484,6.949-9.31,7.077-9.31h0s-.178,5.972,1.628,7.728c0,0,2.533-1.957,5.82-7.527.929,1.353,2.644,5.245,3.839,10.989a31.077,31.077,0,0,1,.509,3.814c.317,3.964.246,8.8.75,14.613.05.565-.023,1.067-.009,1.463.023.6.184,1.157-.413,1.166" transform="translate(-253.667 -231.96)" fill="#739af0"/>
        <path id="Trazado_754063" data-name="Trazado 754063" d="M409.921,378.983a22.8,22.8,0,0,1-4.274,1.244,14.638,14.638,0,0,1-2.133-7.548c-.259-6.426,5.846-14.7,5.846-14.7l.233,3.763c.317,3.964.246,8.8.751,14.613.05.565-.023,1.067-.009,1.463.023.6.184,1.157-.413,1.166" transform="translate(-355.666 -315.535)" fill="#4a75cb"/>
        <path id="Trazado_754064" data-name="Trazado 754064" d="M332.728,344.213l-6.862-11.885a1.379,1.379,0,0,0-1.884-.5l-8.017,4.628a1.38,1.38,0,0,0-.5,1.884l6.862,11.884a1.379,1.379,0,0,0,1.884.5l8.016-4.628a1.379,1.379,0,0,0,.5-1.884" transform="translate(-277.897 -292.319)" fill="#b64c41"/>
        <path id="Trazado_754065" data-name="Trazado 754065" d="M378.891,287.49a32.117,32.117,0,0,1-5.774-.166,55.556,55.556,0,0,1-10.014-2.016l1.161-1.982s4.745-.209,8.22-.718a20.8,20.8,0,0,0,2.267-.436c.756-.2-2.995-9.708-4.887-15.3-.451-1.334-.8-2.445-.951-3.153,0,0,.33.053.85.156,1.473.29,4.466.974,5.741,1.937,1.724,1.3,6.026,16,3.387,21.677" transform="translate(-320.054 -232.453)" fill="#ffb27d"/>
        <path id="Trazado_754066" data-name="Trazado 754066" d="M335.357,417.887s-1.608-1.505-2.229-1.505-2.54.114-2.752.6c-.5,1.155.748,2.206,1.259,2.407a12.275,12.275,0,0,0,2.333.5c.548.05,1.9-.251,1.388-2.007" transform="translate(-291.105 -367.015)" fill="#ffb27d"/>
        <path id="Trazado_754067" data-name="Trazado 754067" d="M427.434,288.5a32.114,32.114,0,0,1-5.774-.166,6.9,6.9,0,0,0-.633-4.716,20.8,20.8,0,0,0,2.267-.436c.756-.2-2.995-9.708-4.887-15.3-.151-1.807-.231-3.017-.231-3.017l.13.02c1.473.29,4.466.974,5.741,1.937,1.724,1.3,6.026,16,3.387,21.677" transform="translate(-368.597 -233.465)" fill="#739af0"/>
        <path id="Trazado_754068" data-name="Trazado 754068" d="M369.082,266.425s5.068-2.233,5.143-2.408a4.013,4.013,0,0,0-.6-1.932s2.434.226,2.584-.075a20.45,20.45,0,0,0,.2-2.81,3.882,3.882,0,0,0-2.208-1.1s-1.1,2.724-1.505,3.538a25.126,25.126,0,0,1-3.613,4.792" transform="translate(-325.323 -227.495)" fill="#4a75cb"/>
        <path id="Trazado_754069" data-name="Trazado 754069" d="M339.233,262.085a16.9,16.9,0,0,0,1.2,4.416s-2.647-1.844-2.872-2.446.64-1.769.64-1.769-1.581-.038-1.618-.564a16.949,16.949,0,0,1,.489-2.6s1.292-.98,1.669-.942Z" transform="translate(-296.678 -227.571)" fill="#4a75cb"/>
        <path id="Trazado_754070" data-name="Trazado 754070" d="M336.807,132.2a13.368,13.368,0,0,0,3.876-1.049,5.91,5.91,0,0,1,4.548.442,1.035,1.035,0,0,0-.17-.419.935.935,0,0,1,.359.532c.032.024.047.04.038.046a1.2,1.2,0,0,1,.583.038s-.16-.023-.217.08a.094.094,0,0,1-.026.028c2.656,1.283,2.9,5.481,2.046,6.452a21.311,21.311,0,0,0-2.261,3.8,2.255,2.255,0,0,1-.263-1.65c.187-1.028-.7-1.028-1.823-1.5s-.187-1.776-1.168-2.571-4.581-.327-4.534-.935c-1.336-.487-.99-3.162-.99-3.3" transform="translate(-296.84 -115.335)" fill="#233862"/>
        <path id="Trazado_754071" data-name="Trazado 754071" d="M384.83,405.45a.669.669,0,1,0,.669.669.669.669,0,0,0-.669-.669" transform="translate(-338.615 -357.38)" fill="#ed6058"/>
        <path id="Trazado_754072" data-name="Trazado 754072" d="M237.888,960.656a1.746,1.746,0,1,1-2.292-.918,1.746,1.746,0,0,1,2.292.918" transform="translate(-206.73 -845.826)" fill="#d86713"/>
        <path id="Trazado_754073" data-name="Trazado 754073" d="M240.5,960.656a1.746,1.746,0,1,1-2.292-.918,1.746,1.746,0,0,1,2.292.918" transform="translate(-209.03 -845.826)" fill="#f1a34f"/>
        <path id="Trazado_754074" data-name="Trazado 754074" d="M153.9,960.656a1.746,1.746,0,1,1-2.292-.918,1.746,1.746,0,0,1,2.292.918" transform="translate(-132.702 -845.826)" fill="#d86713"/>
        <path id="Trazado_754075" data-name="Trazado 754075" d="M156.514,960.656a1.746,1.746,0,1,1-2.292-.918,1.746,1.746,0,0,1,2.292.918" transform="translate(-135.003 -845.826)" fill="#f1a34f"/>
        <path id="Trazado_754076" data-name="Trazado 754076" d="M195.271,583.787l-.738-.15c1-4.917,2.868-14.563,2.8-15.874a2.265,2.265,0,0,0-.753-1.774,2.469,2.469,0,0,0-1.8-.343l-.041.007-3.007.316a3.593,3.593,0,0,0-3.85,3.159l0,.039-2.509,13.761-.741-.135,2.506-13.744a4.35,4.35,0,0,1,4.564-3.832l2.944-.31a3.182,3.182,0,0,1,2.39.482,2.967,2.967,0,0,1,1.052,2.337c.089,1.733-2.7,15.478-2.814,16.062" transform="translate(-162.74 -497.88)" fill="#d86713"/>
        <path id="Trazado_754077" data-name="Trazado 754077" d="M149.86,706.243l-7.6-1.52-1.487,29.819L126.7,735.786l2.483.892a2.246,2.246,0,0,0,.783.132l13.395-.137q.349,0,.672-.007h.022c5.241-.179,5.495-3.035,5.495-3.035s1.7-19.182,2.084-22.6c.44-3.885-1.777-4.787-1.777-4.787" transform="translate(-111.682 -621.171)" fill="#d86713"/>
        <path id="Trazado_754078" data-name="Trazado 754078" d="M119.658,709.713l-2.045,21.481a4.853,4.853,0,0,1-4.8,4.394l-7.052.044-.174,0-4.416.027a4.873,4.873,0,0,1-1.28-.161c-.1-.025-.189-.053-.282-.083a4.85,4.85,0,0,1-3.266-5.356l3.2-20.554a4.856,4.856,0,0,1,4.335-4.085l1.245-.119.3-.028h0l.25-.024,4.163-.4.511-.049,4.018-.384a4.85,4.85,0,0,1,1.808.166c.037.011.074.022.111.034l.232.079a4.856,4.856,0,0,1,3.142,5.013" transform="translate(-84.868 -620.885)" fill="#f1a34f"/>
        <g id="Grupo_1020598" data-name="Grupo 1020598" transform="translate(11.424 110.172)" opacity="0.4">
          <g id="Grupo_1020597" data-name="Grupo 1020597">
            <g id="Grupo_1020596" data-name="Grupo 1020596" clip-path="url(#clip-path-3)">
              <path id="Trazado_754079" data-name="Trazado 754079" d="M116.809,931.718a4.851,4.851,0,0,1-3.937,2.057l-7.052.044-.174,0-4.416.027a4.878,4.878,0,0,1-1.28-.162c-.1-.025-.189-.053-.282-.083a5.142,5.142,0,0,1-3.316-4.321s14.917-.2,18.035.286a3,3,0,0,1,2.422,2.151" transform="translate(-96.352 -929.242)" fill="#d86713"/>
            </g>
          </g>
        </g>
        <path id="Trazado_754080" data-name="Trazado 754080" d="M120.2,711.592c-.031.019-3.3,2.012-3.732,3.763-.442,1.8-3.395,22.774-3.424,22.986a4.862,4.862,0,0,0,1.6,3.554l-.224-.054c-.1-.025-.189-.053-.282-.083a4.364,4.364,0,0,1-1.355-3.453c.121-.866,2.985-21.2,3.429-23.012.39-1.588,2.7-3.17,3.443-3.648l.3-.028h0Z" transform="translate(-99.394 -627.225)" fill="#d86713"/>
        <path id="Trazado_754081" data-name="Trazado 754081" d="M176.048,707.824a6.367,6.367,0,0,0-2.65,4.2c-.449,2.955-2.2,24.422-2.222,24.637v.016l0,.014a2.389,2.389,0,0,0,.469,1.956h-.177l-.174,0a2.3,2.3,0,0,1-.375-2.025c.055-.664,1.778-21.709,2.224-24.641a6.622,6.622,0,0,1,2.4-4.115Z" transform="translate(-150.57 -623.904)" fill="#d86713"/>
        <path id="Trazado_754082" data-name="Trazado 754082" d="M230.786,706.1a5.519,5.519,0,0,0-1.279,1.056,6.064,6.064,0,0,0-1.441,3.131c-.449,2.954-1.841,24.348-1.855,24.564v.017l-.005.015a3.253,3.253,0,0,0,.658,2.107l-.444,0a3.461,3.461,0,0,1-.472-2.174c.044-.684,1.411-21.64,1.857-24.571a6.067,6.067,0,0,1,2.639-4.26l.111.034Z" transform="translate(-199.138 -622.286)" fill="#d86713"/>
        <path id="Trazado_754083" data-name="Trazado 754083" d="M239.867,551.492s-2.371.867-2.44,2.622c-.036.916.006,1.991,1.094,1.87.821-.091.456-1,1.14-1.459s2.1-2.1,2.143-2.873-1.938-.16-1.938-.16" transform="translate(-209.271 -485.902)" fill="#ffb27d"/>
        <path id="Trazado_754084" data-name="Trazado 754084" d="M773.012,230.049a4.687,4.687,0,0,1-2.122-.467c-7.633-3.789-.547-29.823-.547-29.823a3.231,3.231,0,0,1,1.748-1.8,5.387,5.387,0,0,1,3.109-.267c4.017.667,4.791,2.335,4.951,3.269s3.8,29.036-7.139,29.089" transform="translate(-676.373 -174.161)" fill="#2b478b"/>
        <path id="Trazado_754085" data-name="Trazado 754085" d="M770.891,232.334c-7.633-3.789-.547-29.823-.547-29.823a3.232,3.232,0,0,1,1.748-1.8c2.949.774,3.563,2.175,3.723,3,.147.881,3.269,24.993-4.924,28.622" transform="translate(-676.373 -176.914)" fill="#233862"/>
        <path id="Trazado_754086" data-name="Trazado 754086" d="M882.855,914.305s1.739,1.612,1.4,2.757-1.909,1.909-2.121,3.308-1.06,2.163-1.824,2.163h-3.64s-.562-.985.8-1.282,1.869-1.942,1.784-3.469a27.334,27.334,0,0,1,.127-3.563l2.884-.679Z" transform="translate(-772.629 -805.232)" fill="#233862"/>
        <path id="Trazado_754087" data-name="Trazado 754087" d="M673.742,946.494s.424,3.393-.339,3.775-9.883.255-9.883.255,0-1.145,1.57-1.4,4.326-1.188,4.793-3.266,3.86.636,3.86.636" transform="translate(-584.853 -833.025)" fill="#233862"/>
        <path id="Trazado_754088" data-name="Trazado 754088" d="M680.161,513.383s.515,6.43,1.121,14.159c.823,10.5,1.813,23.4,1.911,25.839.169,4.243.849,11.029.849,11.029s1.611,1.612,4.836.933a111.013,111.013,0,0,0,3.694-19.937c.013-.168.026-.337.038-.507.764-10.434,1.951-32.406,1.951-32.406Z" transform="translate(-599.521 -451.731)" fill="#2b478b"/>
        <path id="Trazado_754089" data-name="Trazado 754089" d="M680.161,513.383s.515,6.43,1.121,14.159l11.289,17.863c.013-.168.026-.337.038-.507.764-10.434,1.951-32.406,1.951-32.406Z" transform="translate(-599.521 -451.731)" fill="#233862"/>
        <path id="Trazado_754090" data-name="Trazado 754090" d="M700.012,495.225s9.289,23.286,15.4,34.23,8.017,14,8.017,14,3.5-1.4,3.818-2.354c0,0-2.336-21.127-6.426-26.277-2.311-2.91-5.026-11.643-5.154-14.7s-.827-9.1-.827-9.1Z" transform="translate(-617.018 -432.81)" fill="#2b478b"/>
        <path id="Trazado_754091" data-name="Trazado 754091" d="M602.458,464.384l-1.258,1.5a2.181,2.181,0,0,1-.928.629,2.287,2.287,0,0,0-1.439,3.052s.4,1.158,1.145.792.378-.336,1.445-.829a2.458,2.458,0,0,0,1.471-1.651,2.168,2.168,0,0,1,.979-1.336l1.525-1.03Z" transform="translate(-527.721 -409.326)" fill="#ab7041"/>
        <path id="Trazado_754092" data-name="Trazado 754092" d="M721.967,166.151a27.28,27.28,0,0,1-.426-3.884l4.713-3.8a9.452,9.452,0,0,0,3.172,7.734s-6.281,3.092-9.911,1.947a8.7,8.7,0,0,1,2.452-2" transform="translate(-634.209 -139.681)" fill="#9c5f33"/>
        <path id="Trazado_754093" data-name="Trazado 754093" d="M718.544,116.033s6,1,6.559-2.747,1.716-6.136-2.089-6.93-4.765.522-5.257,1.726-.759,7.6.786,7.952" transform="translate(-632.322 -93.533)" fill="#ab7041"/>
        <path id="Trazado_754094" data-name="Trazado 754094" d="M615.7,274.156a10.254,10.254,0,0,1-1.4-1.893s6.813-8.464,7.366-9.342,4.691-14.956,4.691-14.956l10.463-2.119s-8.733,18.017-10.18,20.214c-2.391,3.63-9.543,9.032-9.543,9.032a4.306,4.306,0,0,1-1.4-.935" transform="translate(-541.473 -216.698)" fill="#963333"/>
        <path id="Trazado_754095" data-name="Trazado 754095" d="M694.182,245.836c.013.214-.227.453-.507.64a4.839,4.839,0,0,1-.654.36q-1.2.54-2.362.961a21.733,21.733,0,0,1-5.671,1.347,33.321,33.321,0,0,1-6.285-.173c-1.014-.12-1.842-.214-2.348-.214h-.067a.582.582,0,0,1-.387-.147c-.08-.053-.147-3.229-.107-7.5,0-.6.013-1.215.013-1.855a4.929,4.929,0,0,1,.027-.627v-.067c.013-2,.08-4.123.174-6.218v-.04A69.585,69.585,0,0,1,677.2,220.67a12.584,12.584,0,0,1,3.923-6.272l1.254-1.108a2.528,2.528,0,0,0,.32.053,5.845,5.845,0,0,0,3.589-.52c1.428-.707,3-1.481,3.256-1.294.027.027.067.053.093.08a5.972,5.972,0,0,1,1.2,1.308c.027.013.027.013.027.027h.013a10.425,10.425,0,0,1,.827,1.441,17.3,17.3,0,0,1,1.067,2.9,40.052,40.052,0,0,1,1.2,10.542c0,1-.027,2.015-.094,3.042-.013.294-.027.574-.04.854-.12,2.549-.106,4.911-.04,6.979v.067c.067,2.1.187,3.87.28,5.191.053.8.093,1.441.107,1.882" transform="translate(-595.661 -186.425)" fill="#b64c41"/>
        <path id="Trazado_754096" data-name="Trazado 754096" d="M786.905,326.644a100.267,100.267,0,0,1-.2-13.087c.058-1.028.089-2.047.093-3.051-1.242-3.012-2.257-5.2-2.257-5.2h-3.13s-2.295,15.674,5.493,21.335" transform="translate(-688.489 -269.111)" fill="#963333"/>
        <path id="Trazado_754097" data-name="Trazado 754097" d="M713.516,92.853s-.615-.1-.516-.951.1-1.955-.591-1.749-.723.758-1.006.436-.288-1.68-2.339-1.774-2.883.619-3.837.2-1-1.862-1-1.862a1.641,1.641,0,0,0,.681.679s-1.591-2.175.251-3.667,3.719-.515,4.785-.451c2.348.142,3.865.283,4.632,1.826s.451,5.827-1.056,7.312" transform="translate(-620.73 -73.461)" fill="#2b478b"/>
        <path id="Trazado_754098" data-name="Trazado 754098" d="M1044.123,952.554a2.2,2.2,0,0,0,1.183,2.9,2.249,2.249,0,0,0,2.937-1.17,2.2,2.2,0,0,0-1.183-2.9,2.249,2.249,0,0,0-2.937,1.17" transform="translate(-920.172 -838.43)" fill="#1c468a"/>
        <path id="Trazado_754099" data-name="Trazado 754099" d="M908.654,952.8a2.2,2.2,0,0,0,1.183,2.9,2.249,2.249,0,0,0,2.937-1.17,2.2,2.2,0,0,0-1.183-2.9,2.248,2.248,0,0,0-2.937,1.17" transform="translate(-800.765 -838.648)" fill="#1c468a"/>
        <path id="Trazado_754100" data-name="Trazado 754100" d="M904.367,944.79l-3.182,1.137a2.915,2.915,0,0,1-1,.17l-18.066-.147-1.978-3.229Z" transform="translate(-775.787 -830.95)" fill="#4a82d3"/>
        <path id="Trazado_754101" data-name="Trazado 754101" d="M864.575,529.877l-5.07-12.394-.006-.024c-.031-.111-.821-2.773-5.37-3.36l-.021,0-3.742-.69a3.408,3.408,0,0,0-2.519.2,1.229,1.229,0,0,0-.349,1.133c.1,1.04,3.47,9.076,5.714,14.224l-.715.3c-.576-1.322-5.636-12.963-5.774-14.459a1.958,1.958,0,0,1,.622-1.792c1.043-.872,3-.413,3.2-.361l3.69.679c4.9.636,5.9,3.563,6,3.9l5.053,12.353Z" transform="translate(-746.323 -451.729)" fill="#4a82d3"/>
        <path id="Trazado_754102" data-name="Trazado 754102" d="M825.784,628.318l-9.746,1.946s-2.841,1.149-2.268,6.074c.5,4.333,2.726,28.65,2.726,28.65s.464,5.06,11.393,3.571Z" transform="translate(-717.223 -553.824)" fill="#4a82d3"/>
        <path id="Trazado_754103" data-name="Trazado 754103" d="M869.962,634.647l2.674,27.231a6.09,6.09,0,0,0,1.115,2.961,6.24,6.24,0,0,0,5.053,2.6l9.042.038h.224l5.663.024a6.312,6.312,0,0,0,1.64-.208q.183-.048.361-.107a6.211,6.211,0,0,0,4.019-4.169,6.064,6.064,0,0,0,.155-2.63l-4.156-26.052a6.2,6.2,0,0,0-5.568-5.168l-1.6-.148-.381-.035h0l-.32-.029-5.34-.494-.655-.06-5.153-.476a6.292,6.292,0,0,0-2.318.215c-.048.014-.1.028-.143.044l-.3.1a6.153,6.153,0,0,0-4.017,6.364" transform="translate(-766.792 -553.452)" fill="#739af0"/>
        <path id="Trazado_754104" data-name="Trazado 754104" d="M902.138,915.887a6.24,6.24,0,0,0,5.053,2.6l9.042.038h.224l5.663.024a6.308,6.308,0,0,0,1.64-.208q.183-.048.361-.107c1.959-.647,4.214-3,4.242-5.487,0,0-19.128-.21-23.124.408a3.832,3.832,0,0,0-3.1,2.733" transform="translate(-795.18 -804.5)" fill="#6793e7"/>
        <path id="Trazado_754105" data-name="Trazado 754105" d="M1021.359,636.821c.04.024,4.238,2.542,4.794,4.762.571,2.28,4.407,28.867,4.446,29.135a6.129,6.129,0,0,1-2.04,4.51l.287-.069c.122-.032.242-.068.361-.106a5.5,5.5,0,0,0,1.73-4.381c-.158-1.1-3.879-26.872-4.453-29.169-.5-2.012-3.464-4.013-4.423-4.617l-.381-.035h0Z" transform="translate(-900.266 -561.319)" fill="#4a82d3"/>
        <path id="Trazado_754106" data-name="Trazado 754106" d="M970.8,632.142a8.07,8.07,0,0,1,3.408,5.322c.583,3.746,2.886,30.959,2.909,31.232l0,.02.006.018a3,3,0,0,1-.6,2.482h.227l.224,0a2.885,2.885,0,0,0,.476-2.569c-.072-.841-2.332-27.521-2.911-31.237a8.381,8.381,0,0,0-3.089-5.211Z" transform="translate(-855.697 -557.195)" fill="#4a82d3"/>
        <path id="Trazado_754107" data-name="Trazado 754107" d="M904.066,630.084a7.076,7.076,0,0,1,1.642,1.336,7.648,7.648,0,0,1,1.855,3.966c.583,3.744,2.419,30.867,2.438,31.139v.021l.007.019a4.091,4.091,0,0,1-.838,2.673l.57,0a4.344,4.344,0,0,0,.6-2.758c-.059-.867-1.861-27.434-2.439-31.149a7.693,7.693,0,0,0-3.394-5.4c-.048.014-.1.028-.143.043Z" transform="translate(-796.879 -555.253)" fill="#4a82d3"/>
        <path id="Trazado_754108" data-name="Trazado 754108" d="M873.245,472.648l1.166,2.746a1.376,1.376,0,0,1,0,1.038,2.287,2.287,0,0,0,1.336,3.1s1.133.466,1.351-.335,0-.505.334-1.632a2.283,2.283,0,0,0-.5-2.433,1.055,1.055,0,0,1-.336-.718l-.184-1.749Z" transform="translate(-769.712 -416.611)" fill="#ab7041"/>
        <path id="Trazado_754109" data-name="Trazado 754109" d="M775.3,249.132a10.255,10.255,0,0,1-2.349.131s-3.346-10.337-3.777-11.281-9.939-12.12-9.939-12.12l3.961-9.913s10.285,17.179,11.329,19.593c1.726,3.989,2.325,12.932,2.325,12.932a4.306,4.306,0,0,1-1.549.659" transform="translate(-669.223 -190.345)" fill="#b64c41"/>
        <path id="Trazado_754110" data-name="Trazado 754110" d="M748.18,249.378v.067a10.645,10.645,0,0,1-4.417-2.228,16.727,16.727,0,0,1-4.924-7.619c-1.548-4.55-1.668-9.434-.881-11.836a4.108,4.108,0,0,1,.36-.8,5.88,5.88,0,0,1,1.094-1.361,7.659,7.659,0,0,1,4.2-1.895,9.321,9.321,0,0,1,.947-.08c.374-.014.614,0,.681,0h.013a10.467,10.467,0,0,1,.827,1.441,6.033,6.033,0,0,0-.68-.027,6.758,6.758,0,0,0-2.442.334,4.914,4.914,0,0,0-2.575,1.895,9.287,9.287,0,0,0-1.294,5.644,27.753,27.753,0,0,0,.747,4.683,17.644,17.644,0,0,0,3.309,6.966,10.365,10.365,0,0,0,5,3.6Z" transform="translate(-650.046 -197.106)" fill="#233862"/>
        <path id="Trazado_754111" data-name="Trazado 754111" d="M1239.681,351.978c-.092-.231-1.247-3.649-2.124-4.111a5.938,5.938,0,0,0-2.864-.785,4.051,4.051,0,0,0,0,4.111,13.46,13.46,0,0,0,3.787,2.633Z" transform="translate(-1087.808 -305.897)" fill="#d9935c"/>
        <path id="Trazado_754112" data-name="Trazado 754112" d="M1283.206,398.822c-6.1.186-14.758-7.733-14.758-7.733a6.012,6.012,0,0,1,.694-1.652,4.97,4.97,0,0,1,.791-.77c2.217,1.477,10.069,2.863,10.069,2.863,2.788.332,8.3,7.137,3.2,7.291" transform="translate(-1118.06 -342.587)" fill="#4a75cb"/>
        <path id="Trazado_754113" data-name="Trazado 754113" d="M1245.1,323.719l-2.716.9a.2.2,0,0,1-.249-.125l-2.223-6.675a.2.2,0,0,1,.125-.249l2.716-.9a.2.2,0,0,1,.249.125l2.223,6.675a.2.2,0,0,1-.125.249" transform="translate(-1092.901 -279.116)" fill="#2b478b"/>
        <path id="Trazado_754114" data-name="Trazado 754114" d="M1240.294,325.718l-2.427.808a.35.35,0,0,1-.442-.221l-2.126-6.386a.35.35,0,0,1,.221-.442l2.427-.808a.35.35,0,0,1,.442.221l2.126,6.386a.35.35,0,0,1-.221.442" transform="translate(-1088.825 -280.871)" fill="#233862"/>
        <path id="Trazado_754115" data-name="Trazado 754115" d="M1237.143,342.921s.693-1.432,1.963-.854.716,2.748-.023,3.51a7.458,7.458,0,0,0-.947,1.109Z" transform="translate(-1090.466 -301.39)" fill="#d9935c"/>
        <path id="Trazado_754116" data-name="Trazado 754116" d="M1365.718,951.124c-.05.544-.165,1.007-.4,1.156h-9.312c.033-.237.238-1.04,1.494-1.217a6.582,6.582,0,0,0,4.076-1.975,2.682,2.682,0,0,0,.487-1c.479-1.941,3.61.673,3.61.673s.035.339.057.809a11.527,11.527,0,0,1-.015,1.55" transform="translate(-1195.24 -835.053)" fill="#233862"/>
        <path id="Trazado_754117" data-name="Trazado 754117" d="M1435.173,952.28h-9.709a2.23,2.23,0,0,1,1.475-1.156,2.863,2.863,0,0,1,.309-.06,7.3,7.3,0,0,0,3.668-1.532,2.883,2.883,0,0,0,.9-1.439c.479-1.941,3.61.673,3.61.673s.032.31.056.751a5.614,5.614,0,0,1-.3,2.764" transform="translate(-1256.46 -835.053)" fill="#233862"/>
        <path id="Trazado_754118" data-name="Trazado 754118" d="M1371.813,545.622s-.007.351-.021.982c-.088,4.067-.435,19.793-.765,28.56-.014.319-.026.628-.037.928-.006.159-.013.318-.019.476a94.931,94.931,0,0,1-1.354,11.708c-.741,4.233-1.493,7.116-1.493,7.116a7,7,0,0,1-4.654-.5s-.761-6.57-1.051-10.546c-.1-1.29-.56-5.692-1.144-11.048-.452-4.141-.975-8.853-1.455-13.138-.025-.228-.05-.456-.076-.681-.775-6.928-1.416-12.57-1.416-12.57l4.993-.476Z" transform="translate(-1197.285 -480.933)" fill="#2b478b"/>
        <path id="Trazado_754119" data-name="Trazado 754119" d="M1369.618,594.283l-8.341-14.979c-.452-4.141-.975-8.853-1.455-13.138-.025-.228-.05-.456-.076-.682-.775-6.928-1.416-12.57-1.416-12.57l4.993-.476,8.47.173Z" transform="translate(-1197.285 -486.941)" fill="#233862"/>
        <path id="Trazado_754120" data-name="Trazado 754120" d="M1366.111,546.45s4.667,23.071,8.47,34.205,3.85,14.228,3.85,14.228,3.49.756,5.027-.122c0,0,.879-21.108-1.423-26.714-1.522-3.708-2.686-11.6-2.29-14.442s.765-8.543.765-8.543Z" transform="translate(-1204.144 -480.439)" fill="#2b478b"/>
        <path id="Trazado_754121" data-name="Trazado 754121" d="M1393.368,217.524l-3.87,3.71a12.206,12.206,0,0,1-2.469-2.883,19.837,19.837,0,0,1-1.294-2.482c-.214-.467,2.148-1.962,3.483-2.909a5.187,5.187,0,0,0,.84-.694s.107.267.28.667a14.634,14.634,0,0,0,1.214,2.229c1.148,1.588,1.814,2.361,1.814,2.361" transform="translate(-1221.43 -187.1)" fill="#d9935c"/>
        <path id="Trazado_754122" data-name="Trazado 754122" d="M1353.545,313.537a8.3,8.3,0,0,1-4.756,1.033,26.045,26.045,0,0,1-6.689-1.089,15.714,15.714,0,0,1-2.647-1.019c-2.956-1.542-2.536-3.593-2.465-11.272.072-7.837,4.895-17.968,5.764-19.664,1.546-3.019,8.482-1.9,8.482-1.9,1.521.729,2.063,3.161,2.211,6.337.165,3.528-.155,7.977-.155,12.033a45.792,45.792,0,0,0,1.094,8.778c.6,3.193.9,5.533-.837,6.767" transform="translate(-1178.421 -246.292)" fill="#739af0"/>
        <path id="Trazado_754123" data-name="Trazado 754123" d="M1386.517,322.79a37.629,37.629,0,0,1-5.593,7.8,26.049,26.049,0,0,1-6.689-1.089c-.833-1.993-1.2-5.319-.428-10.811.586-4.187,4.861-21.028,4.861-21.028,3.451-.45,5.6,1.43,6.911,4.317.165,3.528-.155,7.977-.155,12.033a45.8,45.8,0,0,0,1.094,8.778" transform="translate(-1210.555 -262.312)" fill="#4a75cb"/>
        <path id="Trazado_754124" data-name="Trazado 754124" d="M1388.556,243.942s1.182,3.739.949,4.407c0,0-6.555.766-9.158,3.3,0,0,.985-3.547,2.027-4.458s6.182-3.254,6.182-3.254" transform="translate(-1216.692 -215.02)" fill="#4a75cb"/>
        <path id="Trazado_754125" data-name="Trazado 754125" d="M1319.623,629.013a2.8,2.8,0,0,0-1.279-2.42,10.873,10.873,0,0,0-6.7-1.69c-5.254.334-6.422,3.253-6.588,5.5s-1.918,5.5-2.335,8.006-1.114,8.867,2.608,9.366,16.195,0,16.195,0,2.906-3.406,0-9.95a20.663,20.663,0,0,1-1.9-8.816" transform="translate(-1147.964 -550.792)" fill="#d37129"/>
        <path id="Trazado_754126" data-name="Trazado 754126" d="M1393.97,606.6l-1-.133a2.254,2.254,0,0,0-.311-1.225,1.628,1.628,0,0,0-1.336-.666,1.512,1.512,0,0,0-1.344.5,2.411,2.411,0,0,0-.431,1.316l-1,.005a3.982,3.982,0,0,1,.733-2.254,2.391,2.391,0,0,1,2.091-.87,2.514,2.514,0,0,1,2.054,1.132,3.866,3.866,0,0,1,.541,2.2" transform="translate(-1223.924 -531.746)" fill="#d37129"/>
        <path id="Trazado_754127" data-name="Trazado 754127" d="M1342.919,647.778s-12.476.507-16.2,0-3.029-6.859-2.6-9.367,2.162-5.751,2.335-8.006a6.167,6.167,0,0,1,.227-1.348c.534-1.922,2.121-3.883,6.352-4.15a10.861,10.861,0,0,1,6.712,1.695,2.8,2.8,0,0,1,1.281,2.415c0,.2-.014.44-.014.68a20.885,20.885,0,0,0,1.908,8.14c2.909,6.538,0,9.941,0,9.941" transform="translate(-1166.824 -550.795)" fill="#f1a34f"/>
        <g id="Grupo_1020601" data-name="Grupo 1020601" transform="translate(158.944 88.539)" opacity="0.4">
          <g id="Grupo_1020600" data-name="Grupo 1020600">
            <g id="Grupo_1020599" data-name="Grupo 1020599" clip-path="url(#clip-path-4)">
              <path id="Trazado_754128" data-name="Trazado 754128" d="M1340.614,746.78h7.45s.5,5.449-3.058,5.615-4.5-2.113-4.392-5.615" transform="translate(-1340.606 -746.78)" fill="#d86713"/>
            </g>
          </g>
        </g>
        <path id="Trazado_754129" data-name="Trazado 754129" d="M1340.678,746.78a4.486,4.486,0,0,0,3.614,1.89,5.589,5.589,0,0,0,3.836-1.89Z" transform="translate(-1181.726 -658.241)" fill="#d37129"/>
        <g id="Grupo_1020604" data-name="Grupo 1020604" transform="translate(167.906 88.539)" opacity="0.4">
          <g id="Grupo_1020603" data-name="Grupo 1020603">
            <g id="Grupo_1020602" data-name="Grupo 1020602" clip-path="url(#clip-path-4)">
              <path id="Trazado_754130" data-name="Trazado 754130" d="M1416.208,746.78h7.45s.5,5.449-3.058,5.615-4.5-2.113-4.392-5.615" transform="translate(-1416.199 -746.78)" fill="#d86713"/>
            </g>
          </g>
        </g>
        <path id="Trazado_754131" data-name="Trazado 754131" d="M1416.271,746.78a4.486,4.486,0,0,0,3.614,1.89,5.59,5.59,0,0,0,3.836-1.89Z" transform="translate(-1248.357 -658.241)" fill="#d37129"/>
        <g id="Grupo_1020607" data-name="Grupo 1020607" transform="translate(159.855 74.086)" opacity="0.4">
          <g id="Grupo_1020606" data-name="Grupo 1020606">
            <g id="Grupo_1020605" data-name="Grupo 1020605" clip-path="url(#clip-path-6)">
              <path id="Trazado_754132" data-name="Trazado 754132" d="M1362.649,629.016c0,.2-.014.441-.014.68-1.374,1.721-3.709,3.79-6.845,3.683a8.857,8.857,0,0,1-7.486-4.324c.534-1.922,2.121-3.883,6.352-4.15a10.861,10.861,0,0,1,6.712,1.695,2.8,2.8,0,0,1,1.281,2.415" transform="translate(-1348.303 -624.881)" fill="#d86713"/>
            </g>
          </g>
        </g>
        <path id="Trazado_754133" data-name="Trazado 754133" d="M1405.461,692.508h0a.614.614,0,0,1-.612-.612v-.556a.612.612,0,0,1,1.223,0v.556a.613.613,0,0,1-.611.612" transform="translate(-1238.289 -608.836)" fill="#d86713"/>
        <path id="Trazado_754134" data-name="Trazado 754134" d="M1394.18,567.262s-1.805,3.481-.9,4.835,4.126-.387,4.384-1.16a25.927,25.927,0,0,0,0-4.512Z" transform="translate(-1227.867 -499.268)" fill="#da935b"/>
        <path id="Trazado_754135" data-name="Trazado 754135" d="M1391.764,302.362s-.672,9.579-.663,13.542-3.145,14.5-3.145,14.5a21.892,21.892,0,0,1-2.906.061,3.348,3.348,0,0,1-1.505-.555s.693-12.453-.629-17.227-1.391-14.36-1.391-14.36.734-2.07,5.128-1.416a5.544,5.544,0,0,1,5.111,5.451" transform="translate(-1217.73 -261.597)" fill="#739af0"/>
        <path id="Trazado_754136" data-name="Trazado 754136" d="M1390.339,217.894s-.8,4.257-3.309,5.418a19.8,19.8,0,0,1-1.294-2.482c-.214-.467,2.148-1.962,3.483-2.909.667-.013,1.121-.027,1.121-.027" transform="translate(-1221.43 -192.06)" fill="#cb8757"/>
        <path id="Trazado_754137" data-name="Trazado 754137" d="M1354.214,172.984s6.014-1.058,5.3-4.793-.423-6.387-4.293-5.869-4.34,2.086-4.4,3.391,1.818,7.451,3.4,7.272" transform="translate(-1190.658 -143.02)" fill="#d9935c"/>
        <path id="Trazado_754138" data-name="Trazado 754138" d="M1346.318,140.177s-.525-.474,1.059-2.308c.817-.946,1.552-1.839.87-3.678s-.42-3.2-3-3.583-2.662-1.619-4.039-1.4-2.833,1.978-4.012,2.173-2.913,5.965-.313,6.186a3.737,3.737,0,0,0,1.589-1.052c.549-.715,3.01-2.162,3.622-1.479s2.837,4.959,4.226,5.138" transform="translate(-1177.186 -113.869)" fill="#233862"/>
        <path id="Trazado_754139" data-name="Trazado 754139" d="M2514.835,334.358s3.721-9.606,4.05-10.454,2.2-14.049,2.2-14.049l7.968-3.184s-4.489,16.965-5.365,19.1c-1.448,3.524-6.926,8.968-6.926,8.968a1.862,1.862,0,0,1-.856,2.23c-.835.6-.524.515-1.1.955s-1.118-.489-1.118-.489a2.083,2.083,0,0,1,1.148-3.074" transform="translate(-2215.392 -270.312)" fill="#e8945b"/>
        <path id="Trazado_754140" data-name="Trazado 754140" d="M2636.455,294.282a25.158,25.158,0,0,1,9.04-2.348,6.247,6.247,0,0,1,6.389,4.272q.078.235.148.488c1.251,4.5.569,18.116-3.638,21.668s-11.938,2.054-11.938,2.054Z" transform="translate(-2323.875 -257.308)" fill="#233862"/>
        <path id="Trazado_754141" data-name="Trazado 754141" d="M2538.625,573.756s.451,5.629.981,12.4c.721,9.192,3.465,32.1,3.465,32.1s-.582.913,2.241.318a58.014,58.014,0,0,0,4.178-16.775c.011-.147.022-.3.033-.443.669-9.135,1.708-28.371,1.708-28.371Z" transform="translate(-2237.644 -505.044)" fill="#2b478b"/>
        <path id="Trazado_754142" data-name="Trazado 754142" d="M2537.326,563.147s.605,7.574,1.135,14.341l9.884,15.639c.011-.147.022-.3.033-.443.668-9.135,1.708-28.371,1.708-28.371Z" transform="translate(-2236.499 -496.38)" fill="#233862"/>
        <path id="Trazado_754143" data-name="Trazado 754143" d="M2555.92,540.783l16.988,48.879s1.777-.335,2.175-1.12c0,0,.488-20.671-2.389-25.658-1.626-2.818-2.761-10.722-2.567-13.391a30.248,30.248,0,0,0-1.179-10.1Z" transform="translate(-2252.888 -475.441)" fill="#2b478b"/>
        <path id="Trazado_754144" data-name="Trazado 754144" d="M2526.07,951.3h-1.383c-.463-.073-.805-.207-1.281-.269a1.282,1.282,0,0,0-1.12.269l-.013.014H2516.4c-.148-.211-.006-.7.133-1.06a.837.837,0,0,1,.55-.5,6.338,6.338,0,0,0,2.976-1.359c.633-.572,3.056-2.1,3.056-2.1l.013,0c.053,0,.307.079,1.409,1.01.57.48,1.541-.678,1.541-.678a1.384,1.384,0,0,1,.319.432,1.461,1.461,0,0,1,.126.9,5.853,5.853,0,0,0,.421,2.179c.137.4.252.689.252.689s.066.332-1.124.481" transform="translate(-2217.997 -834.098)" fill="#d57912"/>
        <path id="Trazado_754145" data-name="Trazado 754145" d="M2526.068,979.9h-1.377c-.463-.073-.809-.227-1.284-.289a1.282,1.282,0,0,0-1.12.269l-.013.014H2516.4c-.148-.211-.006-.7.133-1.06.179-.159.229.689.327.824a26.192,26.192,0,0,0,5.064-.148,2.837,2.837,0,0,1,2.218-.271,5.343,5.343,0,0,0,2.8-.529c.137.4.252.689.252.689s.063.352-1.126.5" transform="translate(-2217.997 -862.674)" fill="#c1650a"/>
        <path id="Trazado_754146" data-name="Trazado 754146" d="M2645.19,951.3h-1.383c-.463-.073-.805-.207-1.281-.269a1.282,1.282,0,0,0-1.12.269l-.013.014h-5.875c-.148-.211-.006-.7.133-1.06a.837.837,0,0,1,.55-.5,6.337,6.337,0,0,0,2.976-1.359c.633-.572,3.056-2.1,3.056-2.1l.013,0c.053,0,.306.079,1.409,1.01.57.48,1.541-.678,1.541-.678a1.383,1.383,0,0,1,.318.432,1.459,1.459,0,0,1,.126.9,5.85,5.85,0,0,0,.421,2.179c.137.4.252.689.252.689s.066.332-1.124.481" transform="translate(-2322.994 -834.098)" fill="#d57912"/>
        <path id="Trazado_754147" data-name="Trazado 754147" d="M2645.188,979.9h-1.378c-.463-.073-.809-.227-1.284-.289a1.282,1.282,0,0,0-1.12.269l-.013.014h-5.875c-.148-.211-.006-.7.133-1.06.178-.159.229.689.327.824a26.192,26.192,0,0,0,5.064-.148,2.837,2.837,0,0,1,2.218-.271,5.343,5.343,0,0,0,2.8-.529c.137.4.252.689.252.689s.064.352-1.126.5" transform="translate(-2322.994 -862.674)" fill="#c1650a"/>
        <path id="Trazado_754148" data-name="Trazado 754148" d="M2579.4,254.846s-5.5,2.71-8.687,1.705a7.635,7.635,0,0,1,2.148-1.752c-.078-.463-.14-.886-.189-1.263a19.852,19.852,0,0,1-.183-2.14l3.374-2.72.757-.61a9.585,9.585,0,0,0,.1,1.794c.006.044.012.087.02.13a7.967,7.967,0,0,0,2.657,4.855" transform="translate(-2265.93 -218.656)" fill="#ffb27d"/>
        <path id="Trazado_754149" data-name="Trazado 754149" d="M2550.539,324.654c.017.351-.706.736-1.02.876a26.751,26.751,0,0,1-4.1,1.5,18.114,18.114,0,0,1-2.95.535c-2.948.3-6.431-.362-7.626-.345a.519.519,0,0,1-.334-.127c-.08-.064-.143-3.665-.08-8.206,0-.175,0-.367.015-.542v-.063c.016-1.769.081-3.633.16-5.481a61.789,61.789,0,0,1,1.036-10.2,10.979,10.979,0,0,1,3.441-5.5l.951-.946a.255.255,0,0,1,.227-.069,5.266,5.266,0,0,0,3.346-.371c1.259-.621,2.629-1.29,2.852-1.131,2.612,1.952,3.913,7.72,3.888,14.277,0,.207,0,.415-.005.623-.012.677-.036,1.362-.075,2.051a87.735,87.735,0,0,0,.174,11.471c.048.7.086,1.258.1,1.642" transform="translate(-2233.925 -259.643)" fill="#739af0"/>
        <path id="Trazado_754150" data-name="Trazado 754150" d="M2545.89,466.2l-.479.143a.455.455,0,0,1-.565-.306l-.09-.3a.455.455,0,0,1,.306-.564l.48-.143a.455.455,0,0,1,.564.306l.09.3a.455.455,0,0,1-.306.565" transform="translate(-2243.031 -409.879)" fill="#415da5"/>
        <path id="Trazado_754151" data-name="Trazado 754151" d="M2541.138,468.783l1.7,5.725a.737.737,0,0,1-.5.914l-2.173.645a.738.738,0,0,1-.914-.5l-1.7-5.725a.737.737,0,0,1,.5-.914l2.172-.645a.737.737,0,0,1,.914.5" transform="translate(-2236.675 -412.741)" fill="#cadeff"/>
        <path id="Trazado_754152" data-name="Trazado 754152" d="M2542.193,474.647l1.631,5.493a.737.737,0,0,1-.5.914l-2.172.645a.738.738,0,0,1-.914-.5l-1.6-5.38a4.82,4.82,0,0,1,1.59-.293,4.581,4.581,0,0,0,1.958-.883" transform="translate(-2237.661 -418.373)" fill="#86b1fc"/>
        <rect id="Rectángulo_362115" data-name="Rectángulo 362115" width="3.738" height="3.745" transform="matrix(0.959, -0.285, 0.285, 0.959, 301.102, 57.851)" fill="#415da5"/>
        <path id="Trazado_754153" data-name="Trazado 754153" d="M2621.178,386.192c.016.351-.706.736-1.02.876a26.741,26.741,0,0,1-4.1,1.5c-3.8-12.282.75-24.187.75-24.187l4.171,6.647c-.012.677-.036,1.362-.075,2.051a87.875,87.875,0,0,0,.174,11.471c.048.7.086,1.258.1,1.642" transform="translate(-2304.564 -321.181)" fill="#4a82d3"/>
        <path id="Trazado_754154" data-name="Trazado 754154" d="M2607.268,304.441a18.087,18.087,0,0,1,6.36-2.5.736.736,0,0,0,.6-1.026c-.715-1.632-2.733-5.049-5.19-6.636-.231-.149-.4-.019-.644.115-.907.509-2.86,2.014-2.98,3.789a25.7,25.7,0,0,0,.761,5.789.737.737,0,0,0,1.094.474" transform="translate(-2296.501 -259.326)" fill="#739af0"/>
        <path id="Trazado_754155" data-name="Trazado 754155" d="M2589.979,254.475s-.009.017-.027.05a7.841,7.841,0,0,1-4.071,3.546,19.668,19.668,0,0,1-.183-2.14l3.374-2.72a9.476,9.476,0,0,1,.86,1.184l.047.08" transform="translate(-2279.136 -223.19)" fill="#e8945b"/>
        <path id="Trazado_754156" data-name="Trazado 754156" d="M2569.863,210.872s5.255.873,5.749-2.408,1.5-5.378-1.831-6.074-4.177.458-4.607,1.513-.665,6.658.689,6.97" transform="translate(-2264.274 -178.207)" fill="#ffb27d"/>
        <path id="Trazado_754157" data-name="Trazado 754157" d="M2566.153,188.069a.815.815,0,0,1,.431-.576.983.983,0,0,0-.58.285,3.033,3.033,0,0,0-.272-1.054,6.462,6.462,0,0,1-.035.771c-2.278-2.3-7.59.222-8.681.724-1.917.884-.842,2.523.385,2.925s4.278-.889,4.321-.043.613,1.776.931,1.8.55-.656.951-.212-.3,1.149-.3,1.149c-.417.762.441,1.924.441,1.924s.278.162.764-.387c.471-.532,3.9-3.947,1.641-7.3" transform="translate(-2252.932 -164.425)" fill="#2c3a64"/>
        <path id="Trazado_754158" data-name="Trazado 754158" d="M2603.309,318.634l.162-1a8.9,8.9,0,0,1-5.858-3.479,11.33,11.33,0,0,1-2.116-5.19c-.483-3.593.462-5.639,2.891-6.253,2.175-.55,4.689,1.149,4.714,1.167l.575-.836c-.118-.081-2.914-1.979-5.539-1.315-2.047.518-4.342,2.217-3.648,7.372a12.26,12.26,0,0,0,2.313,5.669,9.883,9.883,0,0,0,6.5,3.868" transform="translate(-2286.775 -265.829)" fill="#233862"/>
        <path id="Trazado_754159" data-name="Trazado 754159" d="M2548.677,374.946a10.079,10.079,0,0,1,3.21.139s6.722-4.715,7.9-5.894c.853-.852-2.569-4.7-4.351-7.684a.752.752,0,0,0,.271-.1,18.088,18.088,0,0,1,6.36-2.505.729.729,0,0,0,.24-.066,36.485,36.485,0,0,1,3.467,12.081s-5.678,5.542-12.854,6.516a46.284,46.284,0,0,1-4.967,1.043c-.68-.045-.952-.952-1.042-1.45a2.524,2.524,0,0,1,1.767-2.084" transform="translate(-2244.941 -316.296)" fill="#ffb27d"/>
        <path id="Trazado_754160" data-name="Trazado 754160" d="M3248.33,961.156a1.679,1.679,0,0,0,.918,2.227,1.765,1.765,0,0,0,2.292-.892,1.678,1.678,0,0,0-.918-2.227,1.765,1.765,0,0,0-2.292.892" transform="translate(-2863.081 -846.293)" fill="#1c468a"/>
        <path id="Trazado_754161" data-name="Trazado 754161" d="M3142.682,961.142a1.678,1.678,0,0,0,.918,2.227,1.766,1.766,0,0,0,2.292-.892,1.679,1.679,0,0,0-.918-2.227,1.766,1.766,0,0,0-2.292.892" transform="translate(-2769.959 -846.281)" fill="#1c468a"/>
        <path id="Trazado_754162" data-name="Trazado 754162" d="M3139.376,954.973l-2.483.866a2.31,2.31,0,0,1-.783.128l-14.089-.14-1.538-2.477Z" transform="translate(-2750.516 -840.32)" fill="#4a82d3"/>
        <path id="Trazado_754163" data-name="Trazado 754163" d="M3108.936,637.047l-3.935-9.5-.005-.018c-.024-.085-.637-2.126-4.183-2.582l-.016,0-2.917-.534a2.7,2.7,0,0,0-1.965.15.934.934,0,0,0-.274.868c.074.8,2.693,6.959,4.435,10.907l-.558.232c-.448-1.014-4.377-9.94-4.482-11.087a1.486,1.486,0,0,1,.488-1.372,3.308,3.308,0,0,1,2.5-.272l2.876.526c3.819.494,4.6,2.739,4.677,3l3.922,9.472Z" transform="translate(-2728.078 -549.756)" fill="#4a82d3"/>
        <path id="Trazado_754164" data-name="Trazado 754164" d="M3078.486,712.518l-7.6,1.477s-2.217.876-1.778,4.65c.387,3.321,2.084,21.955,2.084,21.955s.354,3.877,8.879,2.753Z" transform="translate(-2705.18 -628.041)" fill="#4a82d3"/>
        <path id="Trazado_754165" data-name="Trazado 754165" d="M3112.936,717.367l2.045,20.868a4.619,4.619,0,0,0,.865,2.271,4.893,4.893,0,0,0,3.937,2l7.051.042.174,0,4.416.027a4.992,4.992,0,0,0,1.28-.157q.143-.036.282-.081a4.8,4.8,0,0,0,3.141-3.188,4.566,4.566,0,0,0,.125-2.015l-3.2-19.966a4.8,4.8,0,0,0-4.335-3.968l-1.246-.116-.3-.027h0l-.25-.023-4.164-.387-.511-.047-4.018-.372a4.991,4.991,0,0,0-1.809.161l-.111.033-.232.077a4.711,4.711,0,0,0-3.142,4.87" transform="translate(-2743.844 -627.765)" fill="#739af0"/>
        <path id="Trazado_754166" data-name="Trazado 754166" d="M3137.646,933.031a4.893,4.893,0,0,0,3.937,2l7.052.043h.174l4.416.027a4.994,4.994,0,0,0,1.279-.157c.1-.024.189-.051.282-.081a5.022,5.022,0,0,0,3.316-4.2s-14.917-.189-18.035.278a2.968,2.968,0,0,0-2.422,2.089" transform="translate(-2765.645 -820.29)" fill="#6793e7"/>
        <path id="Trazado_754167" data-name="Trazado 754167" d="M3231.069,719.191c.031.018,3.3,1.954,3.732,3.656.442,1.748,3.4,22.123,3.424,22.329a4.651,4.651,0,0,1-1.6,3.452l.224-.052c.095-.024.188-.051.281-.081a4.164,4.164,0,0,0,1.356-3.354c-.122-.841-2.986-20.594-3.43-22.355-.389-1.542-2.7-3.08-3.442-3.544l-.3-.027h0Z" transform="translate(-2847.991 -633.923)" fill="#4a82d3"/>
        <path id="Trazado_754168" data-name="Trazado 754168" d="M3191.643,715.531a6.183,6.183,0,0,1,2.649,4.083c.449,2.871,2.205,23.724,2.223,23.934v.015l0,.014a2.267,2.267,0,0,1-.469,1.9h.177l.174,0a2.178,2.178,0,0,0,.375-1.967c-.055-.645-1.778-21.089-2.224-23.937a6.406,6.406,0,0,0-2.4-4Z" transform="translate(-2813.24 -630.697)" fill="#4a82d3"/>
        <path id="Trazado_754169" data-name="Trazado 754169" d="M3139.6,713.858a5.5,5.5,0,0,1,1.278,1.026,5.818,5.818,0,0,1,1.441,3.041c.449,2.869,1.841,23.653,1.855,23.862v.016l.005.015a3.093,3.093,0,0,1-.658,2.047l.444,0a3.279,3.279,0,0,0,.472-2.112c-.044-.665-1.41-21.022-1.856-23.869a5.894,5.894,0,0,0-2.639-4.139l-.112.033Z" transform="translate(-2767.371 -629.125)" fill="#4a82d3"/>
        <path id="Trazado_754170" data-name="Trazado 754170" d="M2955.279,207.3a2.937,2.937,0,0,0-2.31.106c.491-.69,2.283-.465,2.283-.465-3.569-.76-4.314,1.522-4.376,1.736-2.589-2.336-6.734,2.644-6.734,2.644l5.948,7.885s.543-1.254,1.26-.863c1.118.611,3.279-1.86,2.589-5.11a8.657,8.657,0,0,0-.264-.967,1.925,1.925,0,0,0,.742.184c.65,0,1.633-1.659,1.765-2.217s-.013-2.389-.9-2.933" transform="translate(-2595.083 -182.273)" fill="#233862"/>
        <path id="Trazado_754171" data-name="Trazado 754171" d="M2997.67,357.548c-.131.319-.7.6-1.527.807a13.84,13.84,0,0,1-7.229-.321c-2.434-.9-4.2-13.768-4.95-20.362-.262-2.3-.4-3.838-.4-3.838s1.4-2.189,6.81-1.459,5.958,2.554,6.445,5.837,1.277,18.3.852,19.336" transform="translate(-2629.83 -292.838)" fill="#466aa5"/>
        <path id="Trazado_754172" data-name="Trazado 754172" d="M2999.119,369.67a13.838,13.838,0,0,1-7.229-.321c-2.434-.9-4.2-13.768-4.951-20.362.642-2.269,1.15-3.762,1.15-3.762s6.795-.821,8.117,1.231c1.183,1.835,2.621,19.5,2.912,23.214" transform="translate(-2632.805 -304.152)" fill="#2b478b"/>
        <path id="Trazado_754173" data-name="Trazado 754173" d="M2872.831,373.679c-4.013.122-9.79-4.5-9.79-4.5l.791-1.216c1.459.972,6.628,1.884,6.628,1.884-.363-1.169-.639-2.251-.846-3.249-1.4-6.781.464-9.711,1.008-10.392a1.635,1.635,0,0,1,.142-.161l.046.138c.067.194.2.587.374,1.126,1.305,4.022,5,16.267,1.647,16.369" transform="translate(-2523.597 -313.833)" fill="#d9935c"/>
        <path id="Trazado_754174" data-name="Trazado 754174" d="M2935,335.443c-1.861-4.174-2.751-5.354-2.783-6.668-.024-1.039.488-2.159,1.482-4.907a10.225,10.225,0,0,0,.5-1.986c.787-5.3-2.277-11.023-4.18-11.413-.53-.14-1.427-2.053-1.417-5.136l-.238.047-4.009.794s.091,1.262.094,2.45c0,.99-.057,1.929-.281,2.048-.289.026-.459.043-.459.043s-3.343,4.642-3.624,8.959,2.677,6.193-.022,14.821c-2.756,8.812,15.97,3.255,14.942.949" transform="translate(-2573.614 -269.133)" fill="#d9935c"/>
        <path id="Trazado_754175" data-name="Trazado 754175" d="M2958.327,306.523s.091,1.262.094,2.45c2.243-.063,3.429-2.11,3.915-3.244Z" transform="translate(-2607.586 -269.482)" fill="#cb7d45"/>
        <path id="Trazado_754176" data-name="Trazado 754176" d="M2943.98,240.81a11.788,11.788,0,0,0,1.458-3.446c.2-1.134-.376-5.337-4.6-4.732a5.738,5.738,0,0,0-2.38.9c-.917.619-2.24,1.957-.761,5.624l.384,1.239Z" transform="translate(-2588.817 -204.999)" fill="#233862"/>
        <path id="Trazado_754177" data-name="Trazado 754177" d="M2938.867,255.333s5.307.088,5.311-3.218.691-5.521-2.7-5.717-4.048,1.065-4.318,2.168.324,6.659,1.7,6.767" transform="translate(-2588.875 -217.167)" fill="#d9935c"/>
        <path id="Trazado_754178" data-name="Trazado 754178" d="M2953.666,240.869s1.453,3.879,3.683,4.452,3.2-.024,3.2-.024a6.316,6.316,0,0,1-2.066-3.731s-3.719-2.543-4.815-.7" transform="translate(-2603.477 -211.719)" fill="#233862"/>
        <path id="Trazado_754179" data-name="Trazado 754179" d="M2936.725,243.819a4.687,4.687,0,0,0-1.35,1.708c-.265.842-.384,2.575-.889,2.516,0,0-1.095-2.636.135-4.128,1.3-1.581,2.1-.1,2.1-.1" transform="translate(-2586.176 -214.355)" fill="#233862"/>
        <path id="Trazado_754180" data-name="Trazado 754180" d="M2928.488,607.567a52.435,52.435,0,0,1-3.345,9.384l-1.75-.121a49.483,49.483,0,0,0,.809-9.6,40.214,40.214,0,0,0-2.036-12.768c-5.237-14.957-4.391-25.842-4.391-25.842l9.848,1.152.459.054c.041,4.523.158,10.664.26,15.466.09,4.319.169,7.554.169,7.554,1.894,4.078,1.206,9.834-.023,14.722" transform="translate(-2571.797 -501.203)" fill="#aa413e"/>
        <path id="Trazado_754181" data-name="Trazado 754181" d="M3016,377.321l-1.594.478s-5.256-8.721-5.734-10.99c-.156-.739-.538-2.217-.984-3.874-.923-3.43-2.114-7.627-2.114-7.627l-.392-1.7-1.338-5.794a18.166,18.166,0,0,1,4.061.888,1.862,1.862,0,0,1,1.007.744c1.1,2.421,2.2,8.53,2.972,12.887.431,2.429.759,4.314.931,4.714.478,1.115,1.938,7.247,3.186,10.274" transform="translate(-2647.703 -306.577)" fill="#d9935c"/>
        <path id="Trazado_754182" data-name="Trazado 754182" d="M2969.835,591.3a24.234,24.234,0,0,1-3.06,9.951l-.836.608s-.792-4.258-1.352-9.323c-.533-4.815-1.265-9.91-2.092-11.465-3.285-6.167-4.273-29.449-4.273-29.449l9.985-.5c1,1.688,1.442,4.457,1.546,7.606.263,7.946-1.6,18.307-1.884,19.805a.012.012,0,0,1,0,0,.521.521,0,0,0,.065.335,22.923,22.923,0,0,1,1.9,12.424" transform="translate(-2607.494 -485.783)" fill="#b64c41"/>
        <path id="Trazado_754183" data-name="Trazado 754183" d="M2955,241.775s1.035,4.062,3.849,5.363c0,0-2.814-2.5-3.053-5.177s-.8-.186-.8-.186" transform="translate(-2604.655 -212.179)" fill="#233862"/>
        <path id="Trazado_754184" data-name="Trazado 754184" d="M3094.414,594.453a4.154,4.154,0,0,0,.989,1.46,2.822,2.822,0,0,1,1.088,1.7,1.5,1.5,0,0,1-1.311,1.832c-.637,0-1.247-.869-1.621-2.943-.021-.114-.625-1.3-.625-1.3Z" transform="translate(-2726.234 -523.974)" fill="#d9935c"/>
        <path id="Trazado_754185" data-name="Trazado 754185" d="M2922.692,377.013a2.376,2.376,0,0,1-.062.8c-.212.668-.943.973-2.706.791-1.078-.112-1.559-1.919-1.773-3.46q-.972,3.308-2.726,3.7c-1.71.38-10.336,1.429-10.9-2.671-.621-4.51,1.239-12.5,1.341-16.8a21.361,21.361,0,0,1-.313-3.99c.072-3.067.972-4.787,1.665-5.479a2.361,2.361,0,0,1,1.179-.38c.4-.068.96-.148,1.749-.252a2.975,2.975,0,0,1,.315-.025c-.146.261-2.1,3.219-1.947,3.98.16.8,7.088.079,7.566-.358s1.234-3.792,1.234-3.792a9.6,9.6,0,0,1,3.654,1.141l-.013.016a1.012,1.012,0,0,1,.316.332c1.281,2.438,2.559,8.591,3.458,12.98a6.392,6.392,0,0,1-4.676.685c.773,5.055,2.525,10.481,2.64,12.784" transform="translate(-2560.05 -307.689)" fill="#f1a34f"/>
        <path id="Trazado_754186" data-name="Trazado 754186" d="M2842.533,432.415c-.061-.152-.821-2.4-1.4-2.706a3.906,3.906,0,0,0-1.885-.517,2.666,2.666,0,0,0,0,2.706,8.859,8.859,0,0,0,2.493,1.733Z" transform="translate(-2502.298 -378.285)" fill="#d9935c"/>
        <path id="Trazado_754187" data-name="Trazado 754187" d="M2918.693,350.722l-.011.018c-.235.372-3.916,6.256-4.27,10.082a21.338,21.338,0,0,1-.312-3.99c.473-1.446,1.623-4.657,2.844-5.858a8.113,8.113,0,0,1,1.749-.252" transform="translate(-2568.598 -309.14)" fill="#466aa5"/>
        <path id="Trazado_754188" data-name="Trazado 754188" d="M2847.1,419.822l-2.433.81a.155.155,0,0,1-.2-.1l-1.545-4.64a.154.154,0,0,1,.1-.2l2.434-.81a.154.154,0,0,1,.195.1l1.545,4.64a.154.154,0,0,1-.1.2" transform="translate(-2505.864 -365.693)" fill="#f1a34f"/>
        <path id="Trazado_754189" data-name="Trazado 754189" d="M2842.845,421.553l-2.207.735a.273.273,0,0,1-.346-.173l-1.47-4.414a.274.274,0,0,1,.173-.346l2.207-.735a.274.274,0,0,1,.346.173l1.47,4.414a.273.273,0,0,1-.173.346" transform="translate(-2502.238 -367.213)" fill="#d86713"/>
        <path id="Trazado_754190" data-name="Trazado 754190" d="M3017.157,889.968a24.23,24.23,0,0,1-3.06,9.951l-.851.775s-.776-4.425-1.336-9.491a8.957,8.957,0,0,0,5.247-1.236" transform="translate(-2654.816 -784.453)" fill="#d9935c"/>
        <path id="Trazado_754191" data-name="Trazado 754191" d="M2970.627,894.614a52.448,52.448,0,0,1-3.346,9.384l-1.75-.121a49.5,49.5,0,0,0,.809-9.6c.594.3,1.819.6,4.287.338" transform="translate(-2613.936 -788.25)" fill="#d9935c"/>
        <path id="Trazado_754192" data-name="Trazado 754192" d="M2930.328,958.538h-1.118c-.375-.059-.651-.167-1.035-.217a1.036,1.036,0,0,0-.9.217l-.01.011h-4.747c-.12-.171,0-.566.107-.856a.675.675,0,0,1,.444-.406,5.116,5.116,0,0,0,2.4-1.1c.512-.462,2.469-1.7,2.469-1.7l.01,0c.043,0,.248.064,1.138.816.46.388,1.244-.548,1.244-.548a1.111,1.111,0,0,1,.258.349,1.181,1.181,0,0,1,.1.729,4.731,4.731,0,0,0,.34,1.76c.11.326.2.557.2.557s.054.268-.907.388" transform="translate(-2575.974 -841.323)" fill="#233862"/>
        <path id="Trazado_754193" data-name="Trazado 754193" d="M2971.3,955.1a3.539,3.539,0,0,1-1.2.607c-.5.066-1.447-1.221-1.447-1.221l.01,0c.043,0,.248.064,1.138.816.46.388,1.245-.548,1.245-.548a1.11,1.11,0,0,1,.257.349" transform="translate(-2616.684 -841.323)" fill="#466aa5"/>
        <path id="Trazado_754194" data-name="Trazado 754194" d="M2930.328,981.623h-1.118c-.375-.059-.651-.167-1.035-.217a1.035,1.035,0,0,0-.9.217l-.01.011h-4.747c-.12-.171,0-.566.107-.856.144-.128.185.557.264.666a21.17,21.17,0,0,0,4.091-.119,2.292,2.292,0,0,1,1.792-.219,4.315,4.315,0,0,0,2.262-.428c.11.326.2.557.2.557s.054.268-.907.389" transform="translate(-2575.974 -864.408)" fill="#466aa5"/>
        <path id="Trazado_754195" data-name="Trazado 754195" d="M2980.621,958.538H2979.5c-.374-.059-.651-.167-1.035-.217a1.037,1.037,0,0,0-.9.217l-.01.011h-4.747c-.12-.171,0-.566.107-.856a.677.677,0,0,1,.445-.406,5.115,5.115,0,0,0,2.4-1.1c.511-.462,2.469-1.7,2.469-1.7l.01,0c.043,0,.247.064,1.138.816.46.388,1.245-.548,1.245-.548a1.119,1.119,0,0,1,.257.349,1.179,1.179,0,0,1,.1.729,4.727,4.727,0,0,0,.34,1.76c.111.326.2.557.2.557s.053.268-.908.388" transform="translate(-2620.304 -841.323)" fill="#233862"/>
        <path id="Trazado_754196" data-name="Trazado 754196" d="M3021.593,955.1a3.537,3.537,0,0,1-1.2.607c-.5.066-1.447-1.221-1.447-1.221l.01,0c.043,0,.248.064,1.138.816.46.388,1.245-.548,1.245-.548a1.116,1.116,0,0,1,.257.349" transform="translate(-2661.015 -841.323)" fill="#466aa5"/>
        <path id="Trazado_754197" data-name="Trazado 754197" d="M2980.621,981.623H2979.5c-.374-.059-.651-.167-1.035-.217a1.036,1.036,0,0,0-.9.217l-.01.011h-4.747c-.12-.171,0-.566.107-.856.145-.128.185.557.265.666a21.172,21.172,0,0,0,4.091-.119,2.29,2.29,0,0,1,1.792-.219,4.316,4.316,0,0,0,2.263-.428c.111.326.2.557.2.557s.053.268-.908.389" transform="translate(-2620.304 -864.408)" fill="#466aa5"/>
        <g id="Grupo_1020610" data-name="Grupo 1020610" transform="translate(355.876 51.787)" opacity="0.4">
          <g id="Grupo_1020609" data-name="Grupo 1020609">
            <g id="Grupo_1020608" data-name="Grupo 1020608" clip-path="url(#clip-path-7)">
              <path id="Trazado_754198" data-name="Trazado 754198" d="M3008.4,454.333c-1.185-.4-2.705-1.448-4.531-3.808-4.834-6.248-.411-13.59.182-13.727s1.709,4.75,1.709,4.75c.773,5.055,2.524,10.481,2.639,12.784" transform="translate(-3001.637 -436.796)" fill="#d86713"/>
            </g>
          </g>
        </g>
        <path id="Trazado_754199" data-name="Trazado 754199" d="M2996.885,345.276a13.744,13.744,0,0,0-5.229,10.337,7.974,7.974,0,0,0,5.959,8.452l-.411-2.219a6.2,6.2,0,0,1-3.785-7.448,16.559,16.559,0,0,1,5.895-8.82Z" transform="translate(-2636.95 -304.34)" fill="#466aa5"/>
        <path id="Trazado_754200" data-name="Trazado 754200" d="M2840.862,426.454s.456-.942,1.292-.562.471,1.809-.015,2.31a4.91,4.91,0,0,0-.623.73Z" transform="translate(-2504.048 -375.318)" fill="#d9935c"/>
        <path id="Trazado_754201" data-name="Trazado 754201" d="M1687.751,356.047s-1.73.933-2.063,2.026-.417,13.769-.959,14.9-1.056,7.589-.222,10.7a13.506,13.506,0,0,0-.439,3.308c.2.542,1.852,1.209,2.445,1.167s.9-3.489.244-4.476Z" transform="translate(-1484.368 -313.834)" fill="#ffb27d"/>
        <path id="Trazado_754202" data-name="Trazado 754202" d="M1745.945,222.3a4.965,4.965,0,0,1-1.382-3.4,6.173,6.173,0,0,0,1.66,3.028c-1.723-2.043,1.057-9.521-3.3-11.412a6.218,6.218,0,0,0-6.059.282c-2.485-.337-5.467,3.245-5.467,3.245l5.948,7.885s.425-.981,1.019-.936c-.323,1.249-.513,2.269.11,2.91,3.1,3.182,1.833,4.726,3.6,5.271,2.164.667,6.477-4.59,3.864-6.869" transform="translate(-1526.125 -184.993)" fill="#b64c41"/>
        <path id="Trazado_754203" data-name="Trazado 754203" d="M1695.654,352.845a4.731,4.731,0,0,0-2.888,1.246c-.981,1.126-1.111,10.3-1.111,10.3a1.322,1.322,0,0,0,1.409.944c1.14-.083,2.589-12.491,2.589-12.491" transform="translate(-1491.092 -311.011)" fill="#2b478b"/>
        <path id="Trazado_754204" data-name="Trazado 754204" d="M1784.928,357.548c-.131.319-.7.6-1.527.807a13.84,13.84,0,0,1-7.229-.321c-2.434-.9-4.2-13.768-4.951-20.362-.262-2.3-.4-3.838-.4-3.838s1.4-2.189,6.811-1.459,5.958,2.554,6.444,5.837,1.277,18.3.852,19.336" transform="translate(-1560.871 -292.838)" fill="#ee9849"/>
        <path id="Trazado_754205" data-name="Trazado 754205" d="M1786.379,369.67a13.837,13.837,0,0,1-7.229-.321c-2.434-.9-4.2-13.768-4.951-20.362.641-2.269,1.15-3.762,1.15-3.762s6.795-.821,8.117,1.231c1.183,1.835,2.621,19.5,2.912,23.214" transform="translate(-1563.849 -304.152)" fill="#e58638"/>
        <path id="Trazado_754206" data-name="Trazado 754206" d="M1722.263,335.443c-1.861-4.174-2.752-5.354-2.783-6.668-.025-1.039.487-2.159,1.482-4.907a10.251,10.251,0,0,0,.5-1.986c.787-5.3-2.277-11.023-4.181-11.413-.53-.14-1.427-2.053-1.417-5.136l-.238.047-4.009.794s.091,1.262.094,2.45c0,.99-.057,1.929-.281,2.048-.289.026-.459.043-.459.043s-3.343,4.642-3.624,8.959,2.677,6.193-.022,14.821c-2.756,8.812,15.97,3.255,14.942.949" transform="translate(-1504.656 -269.133)" fill="#ffb27d"/>
        <path id="Trazado_754207" data-name="Trazado 754207" d="M1745.586,306.523s.091,1.262.094,2.45c2.243-.063,3.429-2.11,3.915-3.244Z" transform="translate(-1538.628 -269.482)" fill="#e8945b"/>
        <path id="Trazado_754208" data-name="Trazado 754208" d="M1731.24,240.81a11.788,11.788,0,0,0,1.458-3.446c.2-1.134-.376-5.337-4.6-4.732a5.74,5.74,0,0,0-2.38.9c-.917.619-2.24,1.957-.761,5.624l.384,1.239Z" transform="translate(-1519.859 -204.999)" fill="#b64c41"/>
        <path id="Trazado_754209" data-name="Trazado 754209" d="M1726.126,255.333s5.308.088,5.311-3.218.691-5.521-2.7-5.717-4.048,1.065-4.318,2.168.324,6.659,1.7,6.767" transform="translate(-1519.917 -217.167)" fill="#ffb27d"/>
        <path id="Trazado_754210" data-name="Trazado 754210" d="M1740.924,240.869s1.453,3.879,3.684,4.452,3.2-.024,3.2-.024a6.316,6.316,0,0,1-2.065-3.731s-3.719-2.543-4.815-.7" transform="translate(-1534.519 -211.719)" fill="#b64c41"/>
        <path id="Trazado_754211" data-name="Trazado 754211" d="M1723.983,243.819a4.689,4.689,0,0,0-1.35,1.708c-.265.842-.384,2.575-.889,2.516,0,0-1.095-2.636.136-4.128,1.3-1.581,2.1-.1,2.1-.1" transform="translate(-1517.218 -214.355)" fill="#b64c41"/>
        <path id="Trazado_754212" data-name="Trazado 754212" d="M1715.748,607.567a52.452,52.452,0,0,1-3.346,9.384l-1.75-.121a49.478,49.478,0,0,0,.809-9.6,40.2,40.2,0,0,0-2.036-12.768c-5.237-14.957-4.391-25.842-4.391-25.842l9.848,1.152.459.054c.041,4.523.158,10.664.26,15.466.09,4.319.17,7.554.17,7.554,1.893,4.078,1.206,9.834-.024,14.722" transform="translate(-1502.841 -501.203)" fill="#e58638"/>
        <path id="Trazado_754213" data-name="Trazado 754213" d="M1747.271,446.905c-.995,2.748-1.507,3.868-1.482,4.907a13.592,13.592,0,0,0-8.9-5.65l10.875-1.243a10.243,10.243,0,0,1-.5,1.986" transform="translate(-1530.964 -392.169)" fill="#cb7d45"/>
        <path id="Trazado_754214" data-name="Trazado 754214" d="M1803.256,377.321l-1.593.478s-5.256-8.721-5.734-10.99c-.156-.739-.538-2.217-.984-3.874-.923-3.43-2.114-7.627-2.114-7.627l-.392-1.7-1.338-5.794a18.16,18.16,0,0,1,4.06.888,1.863,1.863,0,0,1,1.007.744c1.1,2.421,2.2,8.53,2.972,12.887.431,2.429.759,4.314.93,4.714.478,1.115,1.938,7.247,3.186,10.274" transform="translate(-1578.746 -306.577)" fill="#ffb27d"/>
        <path id="Trazado_754215" data-name="Trazado 754215" d="M1757.094,591.3a24.233,24.233,0,0,1-3.06,9.951l-.836.608s-.791-4.258-1.351-9.323c-.534-4.815-1.265-9.91-2.092-11.465-3.284-6.167-4.273-29.449-4.273-29.449l9.985-.5c1,1.688,1.442,4.457,1.546,7.606.262,7.946-1.605,18.307-1.884,19.805a.006.006,0,0,1,0,0,.522.522,0,0,0,.066.335,22.922,22.922,0,0,1,1.9,12.424" transform="translate(-1538.537 -485.783)" fill="#ee9849"/>
        <path id="Trazado_754216" data-name="Trazado 754216" d="M1742.262,241.775s1.035,4.062,3.849,5.363c0,0-2.814-2.5-3.053-5.177s-.8-.186-.8-.186" transform="translate(-1535.698 -212.179)" fill="#b64c41"/>
        <path id="Trazado_754217" data-name="Trazado 754217" d="M1709.952,377.013a2.366,2.366,0,0,1-.062.8c-.212.668-.942.973-2.706.791-1.078-.112-1.559-1.919-1.773-3.46q-.972,3.308-2.726,3.7c-1.71.38-10.336,1.429-10.9-2.671-.621-4.51,1.239-12.5,1.341-16.8a21.321,21.321,0,0,1-.313-3.99c.072-3.067.972-4.787,1.665-5.479a2.36,2.36,0,0,1,1.179-.38c.4-.068.959-.148,1.749-.252a2.97,2.97,0,0,1,.315-.025c-.146.261-2.1,3.219-1.948,3.98.16.8,7.088.079,7.567-.358s1.234-3.792,1.234-3.792,2.684.067,3.884.94c0,0,.346.437.408.555,1.281,2.438,2.224,8.585,3.123,12.974a6.392,6.392,0,0,1-4.675.685c.773,5.055,2.525,10.481,2.64,12.784" transform="translate(-1491.093 -307.689)" fill="#2b478b"/>
        <path id="Trazado_754218" data-name="Trazado 754218" d="M1705.952,350.722l-.011.018c-.235.372-3.917,6.256-4.269,10.082a21.309,21.309,0,0,1-.313-3.99c.473-1.446,1.623-4.657,2.844-5.858a8.112,8.112,0,0,1,1.749-.252" transform="translate(-1499.64 -309.14)" fill="#e58638"/>
        <path id="Trazado_754219" data-name="Trazado 754219" d="M1804.416,889.968a24.233,24.233,0,0,1-3.06,9.951l-.851.775s-.776-4.425-1.336-9.491a8.957,8.957,0,0,0,5.247-1.236" transform="translate(-1585.858 -784.453)" fill="#ffb27d"/>
        <path id="Trazado_754220" data-name="Trazado 754220" d="M1757.885,894.614a52.454,52.454,0,0,1-3.346,9.384l-1.75-.121a49.488,49.488,0,0,0,.809-9.6c.594.3,1.819.6,4.287.338" transform="translate(-1544.977 -788.25)" fill="#ffb27d"/>
        <path id="Trazado_754221" data-name="Trazado 754221" d="M1717.586,958.538h-1.117c-.375-.059-.651-.167-1.035-.217a1.036,1.036,0,0,0-.9.217l-.01.011h-4.747c-.119-.171,0-.566.107-.856a.676.676,0,0,1,.444-.406,5.117,5.117,0,0,0,2.4-1.1c.511-.462,2.469-1.7,2.469-1.7l.01,0c.043,0,.248.064,1.138.816.46.388,1.245-.548,1.245-.548a1.117,1.117,0,0,1,.257.349,1.18,1.18,0,0,1,.1.729,4.724,4.724,0,0,0,.34,1.76c.111.326.2.557.2.557s.053.268-.908.388" transform="translate(-1507.016 -841.323)" fill="#233862"/>
        <path id="Trazado_754222" data-name="Trazado 754222" d="M1758.558,955.1a3.542,3.542,0,0,1-1.2.607c-.5.066-1.447-1.221-1.447-1.221l.01,0c.043,0,.248.064,1.138.816.46.388,1.245-.548,1.245-.548a1.117,1.117,0,0,1,.257.349" transform="translate(-1547.726 -841.323)" fill="#466aa5"/>
        <path id="Trazado_754223" data-name="Trazado 754223" d="M1717.586,981.623h-1.117c-.375-.059-.651-.167-1.035-.217a1.036,1.036,0,0,0-.9.217l-.01.011h-4.747c-.119-.171,0-.566.107-.856.144-.128.185.557.265.666a21.171,21.171,0,0,0,4.091-.119,2.291,2.291,0,0,1,1.792-.219,4.316,4.316,0,0,0,2.263-.428c.111.326.2.557.2.557s.053.268-.908.389" transform="translate(-1507.016 -864.408)" fill="#466aa5"/>
        <path id="Trazado_754224" data-name="Trazado 754224" d="M1767.88,958.538h-1.117c-.374-.059-.651-.167-1.035-.217a1.037,1.037,0,0,0-.9.217l-.01.011h-4.747c-.12-.171,0-.566.107-.856a.675.675,0,0,1,.445-.406,5.117,5.117,0,0,0,2.4-1.1c.511-.462,2.469-1.7,2.469-1.7l.01,0c.043,0,.248.064,1.138.816.46.388,1.245-.548,1.245-.548a1.117,1.117,0,0,1,.257.349,1.179,1.179,0,0,1,.1.729,4.727,4.727,0,0,0,.34,1.76c.111.326.2.557.2.557s.053.268-.908.388" transform="translate(-1551.347 -841.323)" fill="#233862"/>
        <path id="Trazado_754225" data-name="Trazado 754225" d="M1808.853,955.1a3.541,3.541,0,0,1-1.2.607c-.5.066-1.447-1.221-1.447-1.221l.01,0c.043,0,.248.064,1.138.816.46.388,1.245-.548,1.245-.548a1.117,1.117,0,0,1,.257.349" transform="translate(-1592.057 -841.323)" fill="#466aa5"/>
        <path id="Trazado_754226" data-name="Trazado 754226" d="M1767.88,981.623h-1.117c-.374-.059-.651-.167-1.035-.217a1.036,1.036,0,0,0-.9.217l-.01.011h-4.747c-.12-.171,0-.566.107-.856.144-.128.185.557.264.666a21.172,21.172,0,0,0,4.091-.119,2.291,2.291,0,0,1,1.792-.219,4.315,4.315,0,0,0,2.262-.428c.111.326.2.557.2.557s.053.268-.908.389" transform="translate(-1551.347 -864.408)" fill="#466aa5"/>
        <path id="Trazado_754227" data-name="Trazado 754227" d="M1795.662,454.333c-1.185-.4-2.705-1.448-4.531-3.808-4.834-6.248-.41-13.59.182-13.727s1.709,4.75,1.709,4.75c.773,5.055,2.525,10.481,2.64,12.784" transform="translate(-1576.803 -385.009)" fill="#233862"/>
        <path id="Trazado_754228" data-name="Trazado 754228" d="M1783.525,347.814s-4.246,3.013-4.611,10.036a7.974,7.974,0,0,0,5.958,8.452l-.41-2.219a6.2,6.2,0,0,1-3.785-7.448,15.808,15.808,0,0,1,5.188-8.475Z" transform="translate(-1567.991 -306.577)" fill="#e58638"/>
        <path id="Trazado_754229" data-name="Trazado 754229" d="M1794.27,648.609l-4.464.761s-.953.328-.849,3.368c.057,1.663,0,4.061-.061,5.892a2.155,2.155,0,0,0,2.519,2.2l2.819-.481a.549.549,0,0,0,.456-.562Z" transform="translate(-1576.803 -571.709)" fill="#163560"/>
        <path id="Trazado_754230" data-name="Trazado 754230" d="M1841.567,628.148a15.835,15.835,0,0,0-.743-2.3,4.645,4.645,0,0,1-.193-.63c-.263-1.087-.29-2.433-.539-3.476,0,0-.275-3.432-4.737-2.383-1.028.242-2.256.5-3.576.767-1.042-.621-3.469-1.842-5.725-1.317a6.175,6.175,0,0,0-3.746,2.93c-1.117.151-2.08.259-2.788.306-3.156.207-3.449,2.738-3.05,4.228a7.7,7.7,0,0,1,.166,1.057c.247,2.355-.7,5.379.582,6.835.3.339,17.919-3.067,22.892-3.9a1.774,1.774,0,0,0,1.458-2.115m-15.333-8.562a6.862,6.862,0,0,1,4.308.782c-2.4.46-4.988.9-7.164,1.221a5.1,5.1,0,0,1,2.857-2" transform="translate(-1600.984 -545.33)" fill="#1c468a"/>
        <path id="Trazado_754231" data-name="Trazado 754231" d="M1881.673,594.453a4.152,4.152,0,0,0,.989,1.46c.5.319,1.328,1.63,1.115,2.218a2.293,2.293,0,0,1-1.991,1.127c-.634-.061-1.062-2.894-1.248-3.425s-.345-.637-.345-.637Z" transform="translate(-1657.276 -523.974)" fill="#ffb27d"/>
        <path id="Trazado_754232" data-name="Trazado 754232" d="M1946.274,878.444H1941.1s-1.135.185-1.6,3.627-1.826,9.572-1.826,9.572h6.855Z" transform="translate(-1707.945 -774.295)" fill="#163560"/>
        <path id="Trazado_754233" data-name="Trazado 754233" d="M1979.485,891.37c.6-.069,27.854,0,27.854,0s1.1-.155.122-4.832a5.306,5.306,0,0,1-.1-.747c-.087-1.274.14-2.793.061-4.015,0,0,.349-3.915-4.873-3.591a159.768,159.768,0,0,1-18.334-.017c-3.59-.373-4.407,2.419-4.243,4.172a8.767,8.767,0,0,1-.016,1.222c-.174,2.7-.976,7.864-.473,7.807" transform="translate(-1744.652 -774.023)" fill="#1c468a"/>
        <path id="Trazado_754234" data-name="Trazado 754234" d="M2043.1,862.216c.017-.029,1.806-2.915,4.767-3.092,3-.181,5.985,2.76,6.014,2.789l.643-.643c-.133-.133-3.3-3.258-6.711-3.054-3.445.207-5.409,3.394-5.491,3.53Z" transform="translate(-1800.181 -756.457)" fill="#1c468a"/>
        <path id="Trazado_754235" data-name="Trazado 754235" d="M2120.213,800.112a2.8,2.8,0,0,0-1.279-2.42,10.872,10.872,0,0,0-6.7-1.69c-5.254.334-6.422,3.253-6.588,5.5s-1.918,5.5-2.335,8.006-1.114,8.867,2.608,9.366,16.195,0,16.195,0,2.906-3.406,0-9.95a20.661,20.661,0,0,1-1.9-8.816" transform="translate(-1853.637 -701.605)" fill="#aa413e"/>
        <path id="Trazado_754236" data-name="Trazado 754236" d="M2141.622,800.112a2.8,2.8,0,0,0-1.279-2.42,10.873,10.873,0,0,0-6.705-1.69c-5.254.334-6.422,3.253-6.588,5.5s-1.918,5.5-2.335,8.006-1.114,8.867,2.608,9.366,16.157.074,16.157.074,2.943-3.481.037-10.024a20.665,20.665,0,0,1-1.9-8.816" transform="translate(-1872.507 -701.605)" fill="#b64c41"/>
        <path id="Trazado_754237" data-name="Trazado 754237" d="M2143.123,917.879h7.45s.5,5.449-3.058,5.616-4.5-2.113-4.392-5.616" transform="translate(-1889.025 -809.055)" fill="#aa413e"/>
        <path id="Trazado_754238" data-name="Trazado 754238" d="M2143.186,917.879a4.485,4.485,0,0,0,3.614,1.89,5.591,5.591,0,0,0,3.837-1.89Z" transform="translate(-1889.089 -809.055)" fill="#b64c41"/>
        <path id="Trazado_754239" data-name="Trazado 754239" d="M2218.716,917.879h7.45s.5,5.449-3.058,5.616-4.5-2.113-4.392-5.616" transform="translate(-1955.656 -809.055)" fill="#aa413e"/>
        <path id="Trazado_754240" data-name="Trazado 754240" d="M2218.779,917.879a4.486,4.486,0,0,0,3.614,1.89,5.59,5.59,0,0,0,3.836-1.89Z" transform="translate(-1955.719 -809.055)" fill="#b64c41"/>
        <path id="Trazado_754241" data-name="Trazado 754241" d="M2173.93,832.754h-3.961a3.346,3.346,0,0,1-3.336-3.336h0a3.346,3.346,0,0,1,3.336-3.336h3.961a3.346,3.346,0,0,1,3.336,3.336h0a3.346,3.346,0,0,1-3.336,3.336" transform="translate(-1909.756 -728.141)" fill="#aa413e"/>
        <path id="Trazado_754242" data-name="Trazado 754242" d="M2169.213,823.79a6.219,6.219,0,0,0,5.01,2.62,7.751,7.751,0,0,0,5.318-2.62Z" transform="translate(-1912.03 -726.121)" fill="#b64c41"/>
        <path id="Trazado_754243" data-name="Trazado 754243" d="M2194.561,783.48l-1-.1a1.406,1.406,0,0,0-.312-.94,1.823,1.823,0,0,0-1.336-.511,1.779,1.779,0,0,0-1.344.382,1.554,1.554,0,0,0-.432,1.009l-1,0a2.564,2.564,0,0,1,.732-1.728,3.189,3.189,0,0,1,4.145.2,2.408,2.408,0,0,1,.541,1.685" transform="translate(-1929.597 -688.338)" fill="#b64c41"/>
        <path id="Trazado_754244" data-name="Trazado 754244" d="M2308.267,947.151s-.241,3.887-.993,3.943c-.1.007-3.815.007-3.815.007h-4.795a1.644,1.644,0,0,1,1.47-1.411c1.386-.242,3.706-1.216,4.545-3.047.883-1.927,3.586.509,3.586.509" transform="translate(-2026.134 -833.754)" fill="#163560"/>
        <path id="Trazado_754245" data-name="Trazado 754245" d="M2262.368,601.933a9.884,9.884,0,0,1-2.567.482,9.425,9.425,0,0,1-2.4-.342,65.568,65.568,0,0,0-1.765-8.407c-.783-3.031-1.9-6.928-3.491-11.77a159.334,159.334,0,0,1-5.858-21.953c-.006-.039-.009-.058-.009-.058l.015-.007,13.521-5.937s-1.671,18.444.461,25.524a29.856,29.856,0,0,1,.774,3.392c1.347,7.69,1.316,19.076,1.316,19.076" transform="translate(-1979.96 -488.266)" fill="#ee9849"/>
        <path id="Trazado_754246" data-name="Trazado 754246" d="M2261.12,582.858l-5.412,10.809c-.783-3.031-1.9-6.928-3.492-11.77a159.3,159.3,0,0,1-5.858-21.953c0-.022,0-.043.005-.065l13.522-5.937s-1.671,18.444.461,25.524a29.856,29.856,0,0,1,.774,3.392" transform="translate(-1980.029 -488.266)" fill="#e58638"/>
        <path id="Trazado_754247" data-name="Trazado 754247" d="M2218.888,947.151s-.241,3.887-.993,3.943c-.1.007-8.65.155-8.65.155a1.812,1.812,0,0,1,1.511-1.559c1.386-.242,3.706-1.216,4.545-3.047.883-1.927,3.586.509,3.586.509" transform="translate(-1947.315 -833.754)" fill="#163560"/>
        <path id="Trazado_754248" data-name="Trazado 754248" d="M2225.89,557.608a192.471,192.471,0,0,0,1.892,26.627c2.068,14.675,1.367,20.9,1.367,20.9a14.1,14.1,0,0,0,1.994.507,9.058,9.058,0,0,0,2.959-.342s2.96-14.681,2.111-22.026,4.053-25.2,4.053-25.2Z" transform="translate(-1961.984 -491.498)" fill="#ee9849"/>
        <path id="Trazado_754249" data-name="Trazado 754249" d="M2316.968,317.743s6.983,7.09,7.323,9.847-3.37,7.071-3.37,7.071Z" transform="translate(-2042.267 -280.071)" fill="#963333"/>
        <path id="Trazado_754250" data-name="Trazado 754250" d="M2258.815,277.768l-2.639,1.73-3.814-.711c.053-.308.3-1.584.534-2.74.014-.068.028-.136.041-.2.2-.983.366-1.828.366-1.828l3.562-1.572,1.328-.586c0,.021-.1,1.091-.116,1.248a9.081,9.081,0,0,0,.739,4.661" transform="translate(-1985.321 -239.627)" fill="#ffb27d"/>
        <path id="Trazado_754251" data-name="Trazado 754251" d="M2248.639,305.32c.074-.031,5.208-1.389,5.7-1.227s.781,1.112.781,1.112l-7.391,1.671a1.7,1.7,0,0,1,.91-1.555" transform="translate(-1981.236 -268.027)" fill="#963333"/>
        <path id="Trazado_754252" data-name="Trazado 754252" d="M2235.868,343.688c-.766,3.494-13.513,3.908-16.8.737-.374-.362-.392-2.044-.251-4.311.276-4.431,1.161-11.1,1.2-14.5a26.983,26.983,0,0,1,.544-4.854,39.4,39.4,0,0,1,1.617-5.809s6.226-2.013,7.391-1.67c5.613,1.649,7.069,26.915,6.3,30.409" transform="translate(-1955.682 -276.102)" fill="#b64c41"/>
        <path id="Trazado_754253" data-name="Trazado 754253" d="M2219.422,391.1c.276-4.431,1.161-11.1,1.2-14.5a26.96,26.96,0,0,1,.543-4.854l3.745-.661s3.662,14.957-5.485,20.015" transform="translate(-1956.286 -327.089)" fill="#963333"/>
        <path id="Trazado_754254" data-name="Trazado 754254" d="M2228.6,483.486a.881.881,0,0,1-.281,1.02,1.709,1.709,0,0,0-.761,1.559c.123.485,1.3,1.276,1.707,1.149s1.146-.457,1.148-1.022c0-.271.558-2.246-.436-3.011a.8.8,0,0,0-1.377.306" transform="translate(-1963.434 -425.65)" fill="#ffb27d"/>
        <path id="Trazado_754255" data-name="Trazado 754255" d="M2190.515,321.526s-3.665.514-6.575,4.8-4.825,7.478-4.289,9.024,5.423,6.907,6.265,6.907a2.259,2.259,0,0,0,2.279-1.991s-3.26-5.17-2.582-5.943c.29-.33,4.286-3.708,4.882-2.176.987,2.534.02-10.624.02-10.624" transform="translate(-1921.15 -283.406)" fill="#b64c41"/>
        <path id="Trazado_754256" data-name="Trazado 754256" d="M2261.778,277.509c-.782,1.325-3.7,2.471-4.913,2.892.014-.068.028-.136.041-.2.2-.983.366-1.828.366-1.828l3.562-1.572c.787-.011,1.267.165.944.711" transform="translate(-1989.29 -243.981)" fill="#fca56b"/>
        <path id="Trazado_754257" data-name="Trazado 754257" d="M2243.638,218.022s5.738,1.79,6.8-1.8,2.514-5.777-1.1-7.072-4.738-.136-5.383.977-1.775,7.338-.31,7.9" transform="translate(-1976.999 -183.849)" fill="#ffb27d"/>
        <path id="Trazado_754258" data-name="Trazado 754258" d="M2249.47,195.207s.366,4.178,1.23,4,1.647-.316,1.521.944-1.325,2.714,1.338,2.936,6.491-6.644,5.759-7.944c-2.111-3.752-12.9-4.509-9.849.068" transform="translate(-1982.296 -169.276)" fill="#163560"/>
        <path id="Trazado_754259" data-name="Trazado 754259" d="M1115.8,560.308s4.261-1.939,7.484-.243,1.253,15.7-3.357,17.057c0,0-9.9,12.028-4.127-16.815" transform="translate(-981.921 -493.051)" fill="#233862"/>
        <path id="Trazado_754260" data-name="Trazado 754260" d="M1042.159,546.709a23.588,23.588,0,0,1,.2-4.608s-1.447-.075-2.257,1.833c-1.68,3.954-.95,12.487-.848,13.709a16.836,16.836,0,0,0,.28,6.622,7.188,7.188,0,0,1-.4.839.495.495,0,0,0-.049.591l.555.879a.492.492,0,0,0,.3.214l.687.163.068-2.342s0,0-.008,0c.237-2.3,1.67-16.4,1.478-17.9m-1.775,18.071-.015-.019.029.017c-.007,0-.013,0-.015,0" transform="translate(-915.821 -477.829)" fill="#a05f32"/>
        <path id="Trazado_754261" data-name="Trazado 754261" d="M1129.719,971.493l-.548,1.977h-4.626s-1.377-2.527,5.174-1.977" transform="translate(-991.112 -856.243)" fill="#233862"/>
        <path id="Trazado_754262" data-name="Trazado 754262" d="M1046.044,971.493l-.547,1.977h-4.626s-1.377-2.527,5.174-1.977" transform="translate(-917.357 -856.243)" fill="#233862"/>
        <path id="Trazado_754263" data-name="Trazado 754263" d="M1072.779,424.174a3.9,3.9,0,0,0-.672-3.21c-.577-.894-1.387-.932-2.166-1.689a5.014,5.014,0,0,0-3.188-1.181c-3.481,0-6.5,2.131-5.808,5.745.218,1.148.034,2.053.965,3.4,1.162,1.675,2.574,3.02,4.844,3.02a4.342,4.342,0,0,0,3.188-1.155c.506-.478,1.231-.537,1.676-1.057.9-1.051.832-2.436,1.162-3.868" transform="translate(-935.072 -368.524)" fill="#2b478b"/>
        <path id="Trazado_754264" data-name="Trazado 754264" d="M1084.5,492.017s.763,2.952-.781,4.208l4.339,2.218.571-2.87a14.14,14.14,0,0,1-.595-5.365Z" transform="translate(-955.229 -432.088)" fill="#a05f32"/>
        <path id="Trazado_754265" data-name="Trazado 754265" d="M1076.15,460.618s4.441.541,4.536-2.587-1.756-5.156-2.992-5.132c-2.464.046-2.87,1.042-3.156,2.078s-.432,5.421,1.612,5.641" transform="translate(-946.995 -399.202)" fill="#af7041"/>
        <path id="Trazado_754266" data-name="Trazado 754266" d="M1047.1,717.457l8.776.725s1.031,15.393-4.736,29.662l-4.917-.093Z" transform="translate(-922.181 -632.395)" fill="#233862"/>
        <path id="Trazado_754267" data-name="Trazado 754267" d="M1095.257,724.916s2.7,10.49.511,29.634h-5.957l-2.857-24.855c-.109-.736-1.493-1.761-1.493-1.761l-.054-2.84Z" transform="translate(-956.72 -638.97)" fill="#2b478b"/>
        <path id="Trazado_754268" data-name="Trazado 754268" d="M1050.446,542.364l.574-4.714c-.087-.122-.157-.226-.244-.331-1.009-1.235-4.887-1.774-5.67-1.861a.869.869,0,0,1-.145.184,3.658,3.658,0,0,1-2.968,1.155c-1.1-.139-1.275-.713-1.24-1.339a12.221,12.221,0,0,0-3.6,1.105c-2.339.877-2.809,8.648-2.809,8.648a12.648,12.648,0,0,1,2.583.314l-.29,11.519c5.583,2.435,13.619.87,13.619.87l-.018-.07-.539-9.219.5-4.209Z" transform="translate(-911.71 -471.975)" fill="#f1a34f"/>
        <path id="Trazado_754269" data-name="Trazado 754269" d="M1085.573,500.838s-.1.39-1.069.318c0,0-.817-.06-.786-.49a2.629,2.629,0,0,1,1.856.172" transform="translate(-955.23 -441.225)" fill="#fff"/>
        <g id="Grupo_1020613" data-name="Grupo 1020613" transform="translate(135.007 70.059)" opacity="0.4">
          <g id="Grupo_1020612" data-name="Grupo 1020612">
            <g id="Grupo_1020611" data-name="Grupo 1020611" clip-path="url(#clip-path-8)">
              <path id="Trazado_754270" data-name="Trazado 754270" d="M1138.867,606.417c.38.475,2.251.642,3.375.3l-.548-9.206.753-6.262-.728-.338s-3.2,2.563-2.822,4.607-.519,10.29-.031,10.9" transform="translate(-1138.717 -590.91)" fill="#d86713"/>
            </g>
          </g>
        </g>
        <path id="Trazado_754271" data-name="Trazado 754271" d="M1133.758,542.834a27.838,27.838,0,0,0-3.531,1.583,1.629,1.629,0,0,0-.435.331l-3.375-6.714-.644-1.27-.591-1.2-.052-.1s.047,0,.139.017a19.842,19.842,0,0,1,2.087.348,13.4,13.4,0,0,1,1.809.522h.017a4.078,4.078,0,0,1,1.618.974c.087.1.156.209.244.331a42.608,42.608,0,0,1,2.713,5.183" transform="translate(-991.735 -471.975)" fill="#f1a34f"/>
        <path id="Trazado_754272" data-name="Trazado 754272" d="M1115.883,558.02s-12.019-12.854-4.349-18.542a8.113,8.113,0,0,1,1.583-.939,13.352,13.352,0,0,1,1.809.522,5.8,5.8,0,0,0-2.748,1.687c-1.861,2.07-2.731,6.471,3.6,15.637Z" transform="translate(-977.495 -474.689)" fill="#2b478b"/>
        <path id="Trazado_754273" data-name="Trazado 754273" d="M1093.107,451.792s3.8,0,2.923,2.6c-.55,1.642,1.278,1.9,1.278,1.9l.879-2.632-.551-2.051Z" transform="translate(-963.508 -398.067)" fill="#2b478b"/>
        <path id="Trazado_754274" data-name="Trazado 754274" d="M1117.807,597.869a11.662,11.662,0,0,0-3.483,1.681c.6,1.371.932,2.279.932,2.279a25.954,25.954,0,0,0-3.969-.474c-.136-.01-1.236-.371-1.236-.371a2.11,2.11,0,0,0-2.156-2.025s-.894.005-.711.616.2.345.442,1.212a1.958,1.958,0,0,0,1.527,1.566c3.187,2.68,7.576,2.7,8.9,2.64a.527.527,0,0,0,.491-.406,11.312,11.312,0,0,0-.736-6.719" transform="translate(-975.894 -526.985)" fill="#a05f32"/>
        <path id="Trazado_754275" data-name="Trazado 754275" d="M399.447,989.521H.387a.387.387,0,0,1,0-.774h399.06a.387.387,0,1,1,0,.774" transform="translate(0 -871.521)" fill="#2e3552"/>
      </g>
    </g>
  </g>
</svg>
