<svg xmlns="http://www.w3.org/2000/svg" width="292.194" height="105.766" viewBox="0 0 292.194 105.766">
  <g id="Grupo_1020780" data-name="Grupo 1020780" transform="translate(-180 -2610.649)">
    <path id="Trazado_749792" data-name="Trazado 749792" d="M54.085,3.11A51.174,51.174,0,0,1,89.727,17.5h81.978c8.94,0,14.3,7.314,11.9,16.254L180.28,46.158H288.208a3.886,3.886,0,0,1,3.839,5.244l-5.032,17.742C283.024,83.212,268.939,94.21,254.47,94.21H86.612A51.357,51.357,0,1,1,54.085,3.11" transform="translate(179.949 2610.591)" fill="#e6e6e6" fill-rule="evenodd"/>
    <path id="Trazado_749793" data-name="Trazado 749793" d="M71.1,43.695H286.573c2.884,0,4.612,2.36,3.839,5.244l-5.033,18.782c-3.54,13.214-17.248,24.026-30.463,24.026H58.222Z" transform="translate(178.908 2609.83)" fill="#d76f38" fill-rule="evenodd"/>
    <path id="Trazado_749794" data-name="Trazado 749794" d="M71.1,43.695h35.245A54.936,54.936,0,0,1,107,52.177a54.394,54.394,0,0,1-17,39.57H58.222Z" transform="translate(178.908 2609.83)" fill="#d62e00" fill-rule="evenodd"/>
    <path id="Trazado_749795" data-name="Trazado 749795" d="M55.046,14.277H169.3c8.941,0,14.3,7.314,11.9,16.255l-4.356,16.255H46.335Z" transform="translate(179.131 2610.382)" fill="#2c5b91" fill-rule="evenodd"/>
    <path id="Trazado_749796" data-name="Trazado 749796" d="M55.047,14.277H91.984a54.352,54.352,0,0,1,14.578,32.511H46.334Z" transform="translate(179.131 2610.382)" fill="#1b3e66" fill-rule="evenodd"/>
    <path id="Trazado_749797" data-name="Trazado 749797" d="M51.358,0A51.357,51.357,0,1,1,0,51.357,51.357,51.357,0,0,1,51.358,0" transform="translate(180 2610.649)" fill="#2c5b91" fill-rule="evenodd"/>
    <path id="Trazado_749798" data-name="Trazado 749798" d="M51.506,7.937A43.569,43.569,0,1,1,7.937,51.506,43.57,43.57,0,0,1,51.506,7.937" transform="translate(179.851 2610.5)" fill="#2c5b91" fill-rule="evenodd"/>
    <path id="Trazado_749799" data-name="Trazado 749799" d="M180.049,27.437h25.925a1.575,1.575,0,1,1,0,3.151H180.049a1.575,1.575,0,1,1,0-3.151" transform="translate(176.654 2610.135)" fill="#d76f38" fill-rule="evenodd"/>
    <path id="Trazado_749800" data-name="Trazado 749800" d="M172.543,34.934h16.735a1.575,1.575,0,0,1,0,3.151H172.543a1.575,1.575,0,1,1,0-3.151" transform="translate(176.794 2609.994)" fill="#d76f38" fill-rule="evenodd"/>
    <path id="Trazado_755339" data-name="Trazado 755339" d="M11.754,0H6.275L9.363-17.764,3.735-16.17,4.5-20.6,15.19-24.172l.614-.017Z" transform="translate(306.388 2652.143)" fill="#1b3e66"/>
    <path id="Trazado_755338" data-name="Trazado 755338" d="M11.754,0H6.275L9.363-17.764,3.735-16.17,4.5-20.6,15.19-24.172l.614-.017Z" transform="translate(303.667 2650.588)" fill="#fff"/>
    <path id="Trazado_755340" data-name="Trazado 755340" d="M7.008-5.784H4.874L3.863,0H.022l2.83-16.352,5.772.011a6.342,6.342,0,0,1,4.273,1.3,4.031,4.031,0,0,1,1.342,3.54,5.276,5.276,0,0,1-1.022,2.934A6.016,6.016,0,0,1,10.7-6.737L12.9-.191V0H8.8ZM5.391-8.816l2.246.022a2.83,2.83,0,0,0,1.6-.45,2.479,2.479,0,0,0,.971-1.233,2.9,2.9,0,0,0,.168-1.514,1.508,1.508,0,0,0-1.595-1.317l-2.605-.011ZM21.372,0a3.3,3.3,0,0,1-.157-1.1A3.748,3.748,0,0,1,18.238.225,3.662,3.662,0,0,1,15.61-.831a3.173,3.173,0,0,1-.977-2.5,3.564,3.564,0,0,1,1.651-3.038,7.783,7.783,0,0,1,4.357-1.061l1.235.022.135-.685.045-.6a.965.965,0,0,0-1.022-1.056,1.42,1.42,0,0,0-1.494,1.336L15.835-8.4a3.52,3.52,0,0,1,.8-2.128,4.726,4.726,0,0,1,2.016-1.393,7.044,7.044,0,0,1,2.712-.455,5.431,5.431,0,0,1,2.42.578,3.6,3.6,0,0,1,1.555,1.516,3.873,3.873,0,0,1,.393,2.24l-.91,5.716-.056.7a3.069,3.069,0,0,0,.213,1.415L24.965,0ZM19.26-2.448a2.383,2.383,0,0,0,1.988-1L21.619-5.4l-.955-.011a2.516,2.516,0,0,0-1.527.522,1.981,1.981,0,0,0-.752,1.365,1,1,0,0,0,.174.758A.889.889,0,0,0,19.26-2.448ZM38.476-6.064a10.094,10.094,0,0,1-1,3.4A5.555,5.555,0,0,1,35.584-.455a4.366,4.366,0,0,1-2.521.691,3.3,3.3,0,0,1-2.583-1.258l-1.1,5.694H25.684L28.6-12.151l3.414-.011-.191,1.157a3.572,3.572,0,0,1,2.886-1.37,3.4,3.4,0,0,1,2.768,1.269,5.607,5.607,0,0,1,1.061,3.4A13.128,13.128,0,0,1,38.476-6.064Zm-3.594-1.5q-.056-1.853-1.258-1.887a2.178,2.178,0,0,0-1.943.955l-.865,4.818a1.5,1.5,0,0,0,1.55,1q1.965.034,2.415-3.38Q34.882-7.143,34.882-7.569Zm16.262,1.5a10.094,10.094,0,0,1-1,3.4A5.555,5.555,0,0,1,48.252-.455,4.366,4.366,0,0,1,45.73.236a3.3,3.3,0,0,1-2.583-1.258l-1.1,5.694H38.352l2.92-16.823,3.414-.011L44.5-11.006a3.572,3.572,0,0,1,2.886-1.37,3.4,3.4,0,0,1,2.768,1.269,5.607,5.607,0,0,1,1.061,3.4A13.128,13.128,0,0,1,51.144-6.064Zm-3.594-1.5q-.056-1.853-1.258-1.887a2.178,2.178,0,0,0-1.943.955l-.865,4.818a1.5,1.5,0,0,0,1.55,1Q47-2.65,47.449-6.064,47.55-7.143,47.55-7.569ZM55.7,0H52l2.111-12.151h3.706ZM54.434-15.217a1.713,1.713,0,0,1,.578-1.37,2.076,2.076,0,0,1,1.454-.55,2.144,2.144,0,0,1,1.443.494,1.684,1.684,0,0,1,.6,1.292,1.717,1.717,0,0,1-.573,1.376,2.083,2.083,0,0,1-1.46.545,2.171,2.171,0,0,1-1.432-.489A1.664,1.664,0,0,1,54.434-15.217Z" transform="translate(329.144 2685.696)" fill="#d62e00"/>
    <path id="Trazado_755341" data-name="Trazado 755341" d="M7.008-5.784H4.874L3.863,0H.022l2.83-16.352,5.772.011a6.342,6.342,0,0,1,4.273,1.3,4.031,4.031,0,0,1,1.342,3.54,5.276,5.276,0,0,1-1.022,2.934A6.016,6.016,0,0,1,10.7-6.737L12.9-.191V0H8.8ZM5.391-8.816l2.246.022a2.83,2.83,0,0,0,1.6-.45,2.479,2.479,0,0,0,.971-1.233,2.9,2.9,0,0,0,.168-1.514,1.508,1.508,0,0,0-1.595-1.317l-2.605-.011ZM21.372,0a3.3,3.3,0,0,1-.157-1.1A3.748,3.748,0,0,1,18.238.225,3.662,3.662,0,0,1,15.61-.831a3.173,3.173,0,0,1-.977-2.5,3.564,3.564,0,0,1,1.651-3.038,7.783,7.783,0,0,1,4.357-1.061l1.235.022.135-.685.045-.6a.965.965,0,0,0-1.022-1.056,1.42,1.42,0,0,0-1.494,1.336L15.835-8.4a3.52,3.52,0,0,1,.8-2.128,4.726,4.726,0,0,1,2.016-1.393,7.044,7.044,0,0,1,2.712-.455,5.431,5.431,0,0,1,2.42.578,3.6,3.6,0,0,1,1.555,1.516,3.873,3.873,0,0,1,.393,2.24l-.91,5.716-.056.7a3.069,3.069,0,0,0,.213,1.415L24.965,0ZM19.26-2.448a2.383,2.383,0,0,0,1.988-1L21.619-5.4l-.955-.011a2.516,2.516,0,0,0-1.527.522,1.981,1.981,0,0,0-.752,1.365,1,1,0,0,0,.174.758A.889.889,0,0,0,19.26-2.448ZM38.476-6.064a10.094,10.094,0,0,1-1,3.4A5.555,5.555,0,0,1,35.584-.455a4.366,4.366,0,0,1-2.521.691,3.3,3.3,0,0,1-2.583-1.258l-1.1,5.694H25.684L28.6-12.151l3.414-.011-.191,1.157a3.572,3.572,0,0,1,2.886-1.37,3.4,3.4,0,0,1,2.768,1.269,5.607,5.607,0,0,1,1.061,3.4A13.128,13.128,0,0,1,38.476-6.064Zm-3.594-1.5q-.056-1.853-1.258-1.887a2.178,2.178,0,0,0-1.943.955l-.865,4.818a1.5,1.5,0,0,0,1.55,1q1.965.034,2.415-3.38Q34.882-7.143,34.882-7.569Zm16.262,1.5a10.094,10.094,0,0,1-1,3.4A5.555,5.555,0,0,1,48.252-.455,4.366,4.366,0,0,1,45.73.236a3.3,3.3,0,0,1-2.583-1.258l-1.1,5.694H38.352l2.92-16.823,3.414-.011L44.5-11.006a3.572,3.572,0,0,1,2.886-1.37,3.4,3.4,0,0,1,2.768,1.269,5.607,5.607,0,0,1,1.061,3.4A13.128,13.128,0,0,1,51.144-6.064Zm-3.594-1.5q-.056-1.853-1.258-1.887a2.178,2.178,0,0,0-1.943.955l-.865,4.818a1.5,1.5,0,0,0,1.55,1Q47-2.65,47.449-6.064,47.55-7.143,47.55-7.569ZM55.7,0H52l2.111-12.151h3.706ZM54.434-15.217a1.713,1.713,0,0,1,.578-1.37,2.076,2.076,0,0,1,1.454-.55,2.144,2.144,0,0,1,1.443.494,1.684,1.684,0,0,1,.6,1.292,1.717,1.717,0,0,1-.573,1.376,2.083,2.083,0,0,1-1.46.545,2.171,2.171,0,0,1-1.432-.489A1.664,1.664,0,0,1,54.434-15.217Z" transform="translate(326.507 2684.425)" fill="#fff"/>
    <path id="Trazado_749801" data-name="Trazado 749801" d="M54.194,27.833c15.581,0,28.213,13.021,28.213,29.083q0,1.011-.066,2.006L68.369,53.066l5.81-5.7L38.81,32.535a27.476,27.476,0,0,1,15.384-4.7M77.622,73.121A27.968,27.968,0,0,1,54.194,86C39.657,86,27.688,74.665,26.15,60.1l17.738,3.63L36.8,70.695ZM30.96,34.47,12.685,52.412l41,8.388-5.81,5.7L94.585,69.28,59.867,54.728l5.81-5.7Z" transform="translate(179.762 2610.127)" fill="#1b3e66" fill-rule="evenodd"/>
    <path id="Trazado_749802" data-name="Trazado 749802" d="M51.359,25C66.94,25,79.572,38.019,79.572,54.081q0,1.011-.066,2.006L65.534,50.231l5.81-5.7L35.975,29.7A27.476,27.476,0,0,1,51.359,25M74.787,70.286A27.968,27.968,0,0,1,51.359,83.165c-14.537,0-26.506-11.334-28.044-25.9L41.053,60.9,33.96,67.86ZM28.125,31.635,9.85,49.577l41,8.388-5.81,5.7L91.75,66.445,57.032,51.893l5.81-5.7Z" transform="translate(179.815 2610.181)" fill="#fff" fill-rule="evenodd"/>
  </g>
</svg>
