<svg xmlns="http://www.w3.org/2000/svg" width="292.194" height="105.766" viewBox="0 0 292.194 105.766">
  <g id="Grupo_1020781" data-name="Grupo 1020781" transform="translate(-495.935 -2610.649)">
    <path id="Trazado_749803" data-name="Trazado 749803" d="M376.057,3.11A51.174,51.174,0,0,1,411.7,17.5h81.978c8.94,0,14.3,7.314,11.9,16.254l-3.324,12.406H610.18a3.886,3.886,0,0,1,3.839,5.244l-5.032,17.742C605,83.212,590.911,94.21,576.443,94.21H408.584a51.357,51.357,0,1,1-32.527-91.1" transform="translate(173.912 2610.591)" fill="#e6e6e6" fill-rule="evenodd"/>
    <path id="Trazado_749804" data-name="Trazado 749804" d="M393.07,43.695H608.544c2.884,0,4.612,2.36,3.839,5.244L607.35,67.721c-3.54,13.214-17.248,24.026-30.463,24.026H380.195Z" transform="translate(172.871 2609.83)" fill="#d76f38" fill-rule="evenodd"/>
    <path id="Trazado_749805" data-name="Trazado 749805" d="M393.07,43.695h35.245a54.623,54.623,0,0,1-16.345,48.052H380.195Z" transform="translate(172.871 2609.83)" fill="#d62e00" fill-rule="evenodd"/>
    <path id="Trazado_749806" data-name="Trazado 749806" d="M377.019,14.277H491.276c8.941,0,14.3,7.314,11.9,16.255L498.82,46.788H368.308Z" transform="translate(173.094 2610.382)" fill="#2c5b91" fill-rule="evenodd"/>
    <path id="Trazado_749807" data-name="Trazado 749807" d="M377.019,14.277h36.938a54.351,54.351,0,0,1,14.577,32.511H368.307Z" transform="translate(173.094 2610.382)" fill="#1b3e66" fill-rule="evenodd"/>
    <path id="Trazado_749808" data-name="Trazado 749808" d="M373.33,0a51.357,51.357,0,1,1-51.358,51.357A51.357,51.357,0,0,1,373.33,0" transform="translate(173.963 2610.649)" fill="#2c5b91" fill-rule="evenodd"/>
    <path id="Trazado_749809" data-name="Trazado 749809" d="M373.478,7.937a43.569,43.569,0,1,1-43.569,43.569A43.569,43.569,0,0,1,373.478,7.937" transform="translate(173.814 2610.5)" fill="#2c5b91" fill-rule="evenodd"/>
    <path id="Trazado_749810" data-name="Trazado 749810" d="M502.022,27.437h25.925a1.575,1.575,0,1,1,0,3.151H502.022a1.575,1.575,0,1,1,0-3.151" transform="translate(170.616 2610.135)" fill="#d76f38" fill-rule="evenodd"/>
    <path id="Trazado_749811" data-name="Trazado 749811" d="M494.516,34.934h16.735a1.575,1.575,0,0,1,0,3.151H494.516a1.575,1.575,0,1,1,0-3.151" transform="translate(170.757 2609.994)" fill="#d76f38" fill-rule="evenodd"/>
    <path id="Trazado_755342" data-name="Trazado 755342" d="M16.253,0H-.133l.6-3.852,8.6-7.985,1.179-1.179q2.772-2.789,2.54-5.263a1.9,1.9,0,0,0-1.992-1.976,2.622,2.622,0,0,0-2.167,1.038,5.311,5.311,0,0,0-1.1,2.8l-5.429.033A8.29,8.29,0,0,1,3.47-20.544,8.584,8.584,0,0,1,6.8-23.491a9.489,9.489,0,0,1,4.441-1.046,7.851,7.851,0,0,1,5.479,1.917,5.9,5.9,0,0,1,1.693,5.005A8.168,8.168,0,0,1,17.191-14a18.654,18.654,0,0,1-3.113,3.7L11.555-7.969,7.8-4.35l9.131.033Z" transform="translate(622.323 2652.143)" fill="#1b3e66"/>
    <path id="Trazado_755343" data-name="Trazado 755343" d="M16.253,0H-.133l.6-3.852,8.6-7.985,1.179-1.179q2.772-2.789,2.54-5.263a1.9,1.9,0,0,0-1.992-1.976,2.622,2.622,0,0,0-2.167,1.038,5.311,5.311,0,0,0-1.1,2.8l-5.429.033A8.29,8.29,0,0,1,3.47-20.544,8.584,8.584,0,0,1,6.8-23.491a9.489,9.489,0,0,1,4.441-1.046,7.851,7.851,0,0,1,5.479,1.917,5.9,5.9,0,0,1,1.693,5.005A8.168,8.168,0,0,1,17.191-14a18.654,18.654,0,0,1-3.113,3.7L11.555-7.969,7.8-4.35l9.131.033Z" transform="translate(619.603 2650.588)" fill="#fff"/>
    <path id="Trazado_755344" data-name="Trazado 755344" d="M3.751,0H.045L2.156-12.151H5.862ZM2.482-15.217a1.713,1.713,0,0,1,.578-1.37,2.076,2.076,0,0,1,1.454-.55,2.144,2.144,0,0,1,1.443.494,1.684,1.684,0,0,1,.6,1.292,1.717,1.717,0,0,1-.573,1.376,2.083,2.083,0,0,1-1.46.545,2.171,2.171,0,0,1-1.432-.489A1.664,1.664,0,0,1,2.482-15.217Zm14.925,8.7H11.242L10.107,0H6.267L9.1-16.352H19.732L19.2-13.308H12.421L11.77-9.546h6.166Zm7.643-5.862a5.1,5.1,0,0,1,2.819.814,4.587,4.587,0,0,1,1.746,2.207,6.81,6.81,0,0,1,.4,3.145l-.022.247a7.2,7.2,0,0,1-2.078,4.515A5.846,5.846,0,0,1,23.557.225a5.082,5.082,0,0,1-2.8-.8,4.616,4.616,0,0,1-1.746-2.184,6.618,6.618,0,0,1-.41-3.122,7.491,7.491,0,0,1,2.05-4.762A5.81,5.81,0,0,1,25.05-12.376ZM22.3-5.88l-.034.662q-.157,2.5,1.527,2.545,2.179.067,2.527-3.532l.045-1.02a2.754,2.754,0,0,0-.376-1.609,1.371,1.371,0,0,0-1.174-.622,1.932,1.932,0,0,0-1.679.835A5.466,5.466,0,0,0,22.3-5.88Zm15.4-6.5a5.1,5.1,0,0,1,2.819.814,4.587,4.587,0,0,1,1.746,2.207,6.81,6.81,0,0,1,.4,3.145l-.022.247A7.2,7.2,0,0,1,40.56-1.449,5.846,5.846,0,0,1,36.2.225a5.082,5.082,0,0,1-2.8-.8,4.616,4.616,0,0,1-1.746-2.184,6.618,6.618,0,0,1-.41-3.122,7.491,7.491,0,0,1,2.05-4.762A5.81,5.81,0,0,1,37.7-12.376Zm-2.751,6.5-.034.662q-.157,2.5,1.527,2.545,2.179.067,2.527-3.532l.045-1.02a2.754,2.754,0,0,0-.376-1.609,1.371,1.371,0,0,0-1.174-.622,1.932,1.932,0,0,0-1.679.835A5.466,5.466,0,0,0,34.944-5.88ZM43.861-6.1a8.838,8.838,0,0,1,1.752-4.6,4.342,4.342,0,0,1,3.661-1.673,3.312,3.312,0,0,1,2.572,1.3l1.179-6.177h3.706L53.744,0H50.454l.157-1.314A3.792,3.792,0,0,1,47.59.236a3.347,3.347,0,0,1-2.746-1.3,5.72,5.72,0,0,1-1.061-3.42,10.518,10.518,0,0,1,.045-1.381Zm3.684.258a8.82,8.82,0,0,0-.079,1.258q0,1.864,1.258,1.9a2.356,2.356,0,0,0,1.943-1.044L51.5-8.389a1.5,1.5,0,0,0-1.482-1.067,1.889,1.889,0,0,0-1.668.893A5.759,5.759,0,0,0,47.545-5.84Zm27.908.27a5.9,5.9,0,0,1-1.129,3.055A6.384,6.384,0,0,1,71.741-.46a8,8,0,0,1-3.465.685,5.385,5.385,0,0,1-4.032-1.651A6.636,6.636,0,0,1,62.639-5.75a14.081,14.081,0,0,1,.4-3.964,10.479,10.479,0,0,1,1.628-3.734,7.482,7.482,0,0,1,2.662-2.381,6.91,6.91,0,0,1,3.352-.758,5.849,5.849,0,0,1,4.228,1.606,6.287,6.287,0,0,1,1.69,4.3l-3.83-.011a3.15,3.15,0,0,0-.539-2.134,2.366,2.366,0,0,0-1.774-.685q-3.032-.1-3.695,4.717a25.918,25.918,0,0,0-.3,3.111Q66.4-2.92,68.5-2.841a3,3,0,0,0,2.167-.668A3.342,3.342,0,0,0,71.7-5.525Zm7.974-6.806a5.1,5.1,0,0,1,2.819.814,4.587,4.587,0,0,1,1.746,2.207,6.81,6.81,0,0,1,.4,3.145l-.022.247A7.2,7.2,0,0,1,86.29-1.449,5.846,5.846,0,0,1,81.933.225a5.082,5.082,0,0,1-2.8-.8A4.616,4.616,0,0,1,77.39-2.763a6.618,6.618,0,0,1-.41-3.122,7.491,7.491,0,0,1,2.05-4.762A5.81,5.81,0,0,1,83.426-12.376Zm-2.751,6.5-.034.662q-.157,2.5,1.527,2.545Q84.347-2.605,84.7-6.2l.045-1.02a2.754,2.754,0,0,0-.376-1.609,1.371,1.371,0,0,0-1.174-.622,1.932,1.932,0,0,0-1.679.835A5.466,5.466,0,0,0,80.675-5.88ZM92.882,0H89.176l2.987-17.25H95.87Zm9.434-12.376a5.1,5.1,0,0,1,2.819.814,4.587,4.587,0,0,1,1.746,2.207,6.81,6.81,0,0,1,.4,3.145l-.022.247a7.2,7.2,0,0,1-2.078,4.515A5.846,5.846,0,0,1,100.822.225a5.082,5.082,0,0,1-2.8-.8A4.616,4.616,0,0,1,96.28-2.763a6.618,6.618,0,0,1-.41-3.122,7.491,7.491,0,0,1,2.05-4.762A5.81,5.81,0,0,1,102.316-12.376Zm-2.751,6.5-.034.662q-.157,2.5,1.527,2.545,2.179.067,2.527-3.532l.045-1.02a2.754,2.754,0,0,0-.376-1.609,1.371,1.371,0,0,0-1.174-.622,1.932,1.932,0,0,0-1.679.835A5.466,5.466,0,0,0,99.564-5.88Zm13.881-6.283L113.2-10.7a4.362,4.362,0,0,1,3.549-1.673,3.206,3.206,0,0,1,1.808.517,2.354,2.354,0,0,1,.943,1.314,4.625,4.625,0,0,1,3.695-1.831,2.863,2.863,0,0,1,2.5,1.263,5.261,5.261,0,0,1,.59,3.465L125.013,0h-3.706L122.6-7.65l.045-.662q0-1.11-1.044-1.144a2.392,2.392,0,0,0-1.819,1L118.308,0H114.6l1.28-7.628.045-.673q0-1.155-1.044-1.155a2.376,2.376,0,0,0-1.8,1L111.592,0H107.9l2.111-12.151ZM139.2-6.053A8.805,8.805,0,0,1,137.456-1.4a4.356,4.356,0,0,1-3.661,1.64,3.222,3.222,0,0,1-2.763-1.5L130.572,0h-3.347l3-17.25h3.695l-1.2,6.1a3.667,3.667,0,0,1,2.729-1.224,3.423,3.423,0,0,1,2.785,1.275,5.559,5.559,0,0,1,1.056,3.408,12.36,12.36,0,0,1-.056,1.4Zm-3.672-.219a11.634,11.634,0,0,0,.1-1.3q0-1.805-1.292-1.884a2.213,2.213,0,0,0-1.92.975l-.876,4.843a1.486,1.486,0,0,0,1.527.953q1.808.056,2.28-2.355l.157-1ZM143.768,0h-3.706l2.111-12.151h3.706ZM142.5-15.217a1.713,1.713,0,0,1,.578-1.37,2.076,2.076,0,0,1,1.454-.55,2.144,2.144,0,0,1,1.443.494,1.684,1.684,0,0,1,.6,1.292A1.717,1.717,0,0,1,146-13.976a2.083,2.083,0,0,1-1.46.545,2.171,2.171,0,0,1-1.432-.489A1.664,1.664,0,0,1,142.5-15.217ZM152.965,0a3.3,3.3,0,0,1-.157-1.1A3.748,3.748,0,0,1,149.832.225,3.662,3.662,0,0,1,147.2-.831a3.173,3.173,0,0,1-.977-2.5,3.564,3.564,0,0,1,1.651-3.038,7.783,7.783,0,0,1,4.357-1.061l1.235.022.135-.685.045-.6a.965.965,0,0,0-1.022-1.056,1.42,1.42,0,0,0-1.494,1.336l-3.706.011a3.52,3.52,0,0,1,.8-2.128,4.726,4.726,0,0,1,2.016-1.393,7.044,7.044,0,0,1,2.712-.455,5.431,5.431,0,0,1,2.42.578,3.6,3.6,0,0,1,1.555,1.516,3.873,3.873,0,0,1,.393,2.24l-.91,5.716-.056.7a3.069,3.069,0,0,0,.213,1.415L156.559,0Zm-2.111-2.448a2.383,2.383,0,0,0,1.988-1l.371-1.954-.955-.011a2.516,2.516,0,0,0-1.527.522,1.981,1.981,0,0,0-.752,1.365,1,1,0,0,0,.174.758A.889.889,0,0,0,150.854-2.448Z" transform="translate(609.122 2685.696)" fill="#d62e00"/>
    <path id="Trazado_755345" data-name="Trazado 755345" d="M3.751,0H.045L2.156-12.151H5.862ZM2.482-15.217a1.713,1.713,0,0,1,.578-1.37,2.076,2.076,0,0,1,1.454-.55,2.144,2.144,0,0,1,1.443.494,1.684,1.684,0,0,1,.6,1.292,1.717,1.717,0,0,1-.573,1.376,2.083,2.083,0,0,1-1.46.545,2.171,2.171,0,0,1-1.432-.489A1.664,1.664,0,0,1,2.482-15.217Zm14.925,8.7H11.242L10.107,0H6.267L9.1-16.352H19.732L19.2-13.308H12.421L11.77-9.546h6.166Zm7.643-5.862a5.1,5.1,0,0,1,2.819.814,4.587,4.587,0,0,1,1.746,2.207,6.81,6.81,0,0,1,.4,3.145l-.022.247a7.2,7.2,0,0,1-2.078,4.515A5.846,5.846,0,0,1,23.557.225a5.082,5.082,0,0,1-2.8-.8,4.616,4.616,0,0,1-1.746-2.184,6.618,6.618,0,0,1-.41-3.122,7.491,7.491,0,0,1,2.05-4.762A5.81,5.81,0,0,1,25.05-12.376ZM22.3-5.88l-.034.662q-.157,2.5,1.527,2.545,2.179.067,2.527-3.532l.045-1.02a2.754,2.754,0,0,0-.376-1.609,1.371,1.371,0,0,0-1.174-.622,1.932,1.932,0,0,0-1.679.835A5.466,5.466,0,0,0,22.3-5.88Zm15.4-6.5a5.1,5.1,0,0,1,2.819.814,4.587,4.587,0,0,1,1.746,2.207,6.81,6.81,0,0,1,.4,3.145l-.022.247A7.2,7.2,0,0,1,40.56-1.449,5.846,5.846,0,0,1,36.2.225a5.082,5.082,0,0,1-2.8-.8,4.616,4.616,0,0,1-1.746-2.184,6.618,6.618,0,0,1-.41-3.122,7.491,7.491,0,0,1,2.05-4.762A5.81,5.81,0,0,1,37.7-12.376Zm-2.751,6.5-.034.662q-.157,2.5,1.527,2.545,2.179.067,2.527-3.532l.045-1.02a2.754,2.754,0,0,0-.376-1.609,1.371,1.371,0,0,0-1.174-.622,1.932,1.932,0,0,0-1.679.835A5.466,5.466,0,0,0,34.944-5.88ZM43.861-6.1a8.838,8.838,0,0,1,1.752-4.6,4.342,4.342,0,0,1,3.661-1.673,3.312,3.312,0,0,1,2.572,1.3l1.179-6.177h3.706L53.744,0H50.454l.157-1.314A3.792,3.792,0,0,1,47.59.236a3.347,3.347,0,0,1-2.746-1.3,5.72,5.72,0,0,1-1.061-3.42,10.518,10.518,0,0,1,.045-1.381Zm3.684.258a8.82,8.82,0,0,0-.079,1.258q0,1.864,1.258,1.9a2.356,2.356,0,0,0,1.943-1.044L51.5-8.389a1.5,1.5,0,0,0-1.482-1.067,1.889,1.889,0,0,0-1.668.893A5.759,5.759,0,0,0,47.545-5.84Zm27.908.27a5.9,5.9,0,0,1-1.129,3.055A6.384,6.384,0,0,1,71.741-.46a8,8,0,0,1-3.465.685,5.385,5.385,0,0,1-4.032-1.651A6.636,6.636,0,0,1,62.639-5.75a14.081,14.081,0,0,1,.4-3.964,10.479,10.479,0,0,1,1.628-3.734,7.482,7.482,0,0,1,2.662-2.381,6.91,6.91,0,0,1,3.352-.758,5.849,5.849,0,0,1,4.228,1.606,6.287,6.287,0,0,1,1.69,4.3l-3.83-.011a3.15,3.15,0,0,0-.539-2.134,2.366,2.366,0,0,0-1.774-.685q-3.032-.1-3.695,4.717a25.918,25.918,0,0,0-.3,3.111Q66.4-2.92,68.5-2.841a3,3,0,0,0,2.167-.668A3.342,3.342,0,0,0,71.7-5.525Zm7.974-6.806a5.1,5.1,0,0,1,2.819.814,4.587,4.587,0,0,1,1.746,2.207,6.81,6.81,0,0,1,.4,3.145l-.022.247A7.2,7.2,0,0,1,86.29-1.449,5.846,5.846,0,0,1,81.933.225a5.082,5.082,0,0,1-2.8-.8A4.616,4.616,0,0,1,77.39-2.763a6.618,6.618,0,0,1-.41-3.122,7.491,7.491,0,0,1,2.05-4.762A5.81,5.81,0,0,1,83.426-12.376Zm-2.751,6.5-.034.662q-.157,2.5,1.527,2.545Q84.347-2.605,84.7-6.2l.045-1.02a2.754,2.754,0,0,0-.376-1.609,1.371,1.371,0,0,0-1.174-.622,1.932,1.932,0,0,0-1.679.835A5.466,5.466,0,0,0,80.675-5.88ZM92.882,0H89.176l2.987-17.25H95.87Zm9.434-12.376a5.1,5.1,0,0,1,2.819.814,4.587,4.587,0,0,1,1.746,2.207,6.81,6.81,0,0,1,.4,3.145l-.022.247a7.2,7.2,0,0,1-2.078,4.515A5.846,5.846,0,0,1,100.822.225a5.082,5.082,0,0,1-2.8-.8A4.616,4.616,0,0,1,96.28-2.763a6.618,6.618,0,0,1-.41-3.122,7.491,7.491,0,0,1,2.05-4.762A5.81,5.81,0,0,1,102.316-12.376Zm-2.751,6.5-.034.662q-.157,2.5,1.527,2.545,2.179.067,2.527-3.532l.045-1.02a2.754,2.754,0,0,0-.376-1.609,1.371,1.371,0,0,0-1.174-.622,1.932,1.932,0,0,0-1.679.835A5.466,5.466,0,0,0,99.564-5.88Zm13.881-6.283L113.2-10.7a4.362,4.362,0,0,1,3.549-1.673,3.206,3.206,0,0,1,1.808.517,2.354,2.354,0,0,1,.943,1.314,4.625,4.625,0,0,1,3.695-1.831,2.863,2.863,0,0,1,2.5,1.263,5.261,5.261,0,0,1,.59,3.465L125.013,0h-3.706L122.6-7.65l.045-.662q0-1.11-1.044-1.144a2.392,2.392,0,0,0-1.819,1L118.308,0H114.6l1.28-7.628.045-.673q0-1.155-1.044-1.155a2.376,2.376,0,0,0-1.8,1L111.592,0H107.9l2.111-12.151ZM139.2-6.053A8.805,8.805,0,0,1,137.456-1.4a4.356,4.356,0,0,1-3.661,1.64,3.222,3.222,0,0,1-2.763-1.5L130.572,0h-3.347l3-17.25h3.695l-1.2,6.1a3.667,3.667,0,0,1,2.729-1.224,3.423,3.423,0,0,1,2.785,1.275,5.559,5.559,0,0,1,1.056,3.408,12.36,12.36,0,0,1-.056,1.4Zm-3.672-.219a11.634,11.634,0,0,0,.1-1.3q0-1.805-1.292-1.884a2.213,2.213,0,0,0-1.92.975l-.876,4.843a1.486,1.486,0,0,0,1.527.953q1.808.056,2.28-2.355l.157-1ZM143.768,0h-3.706l2.111-12.151h3.706ZM142.5-15.217a1.713,1.713,0,0,1,.578-1.37,2.076,2.076,0,0,1,1.454-.55,2.144,2.144,0,0,1,1.443.494,1.684,1.684,0,0,1,.6,1.292A1.717,1.717,0,0,1,146-13.976a2.083,2.083,0,0,1-1.46.545,2.171,2.171,0,0,1-1.432-.489A1.664,1.664,0,0,1,142.5-15.217ZM152.965,0a3.3,3.3,0,0,1-.157-1.1A3.748,3.748,0,0,1,149.832.225,3.662,3.662,0,0,1,147.2-.831a3.173,3.173,0,0,1-.977-2.5,3.564,3.564,0,0,1,1.651-3.038,7.783,7.783,0,0,1,4.357-1.061l1.235.022.135-.685.045-.6a.965.965,0,0,0-1.022-1.056,1.42,1.42,0,0,0-1.494,1.336l-3.706.011a3.52,3.52,0,0,1,.8-2.128,4.726,4.726,0,0,1,2.016-1.393,7.044,7.044,0,0,1,2.712-.455,5.431,5.431,0,0,1,2.42.578,3.6,3.6,0,0,1,1.555,1.516,3.873,3.873,0,0,1,.393,2.24l-.91,5.716-.056.7a3.069,3.069,0,0,0,.213,1.415L156.559,0Zm-2.111-2.448a2.383,2.383,0,0,0,1.988-1l.371-1.954-.955-.011a2.516,2.516,0,0,0-1.527.522,1.981,1.981,0,0,0-.752,1.365,1,1,0,0,0,.174.758A.889.889,0,0,0,150.854-2.448Z" transform="translate(606.484 2684.425)" fill="#fff"/>
    <path id="Trazado_749812" data-name="Trazado 749812" d="M376.167,27.833c15.581,0,28.213,13.021,28.213,29.083q0,1.011-.066,2.006l-13.972-5.856,5.81-5.7L360.783,32.535a27.476,27.476,0,0,1,15.384-4.7M399.6,73.121A27.968,27.968,0,0,1,376.167,86c-14.537,0-26.505-11.334-28.044-25.9l17.738,3.63-7.092,6.964ZM352.933,34.47,334.658,52.412l41,8.388-5.81,5.7,46.713,2.776L381.84,54.728l5.81-5.7Z" transform="translate(173.725 2610.127)" fill="#1b3e66" fill-rule="evenodd"/>
    <path id="Trazado_749813" data-name="Trazado 749813" d="M373.332,25c15.581,0,28.213,13.021,28.213,29.083q0,1.011-.067,2.006l-13.971-5.856,5.81-5.7L357.948,29.7A27.476,27.476,0,0,1,373.332,25M396.76,70.286a27.968,27.968,0,0,1-23.428,12.879c-14.537,0-26.505-11.334-28.044-25.9l17.738,3.63-7.092,6.964ZM350.1,31.635,331.823,49.577l41,8.388-5.81,5.7,46.713,2.776L379.005,51.893l5.81-5.7Z" transform="translate(173.778 2610.181)" fill="#fff" fill-rule="evenodd"/>
  </g>
</svg>
