<svg xmlns="http://www.w3.org/2000/svg" width="295" height="343" viewBox="0 0 295 343">
  <g id="Grupo_1020855" data-name="Grupo 1020855" transform="translate(-1125 -2793)">
    <path id="Trazado_755410" data-name="Trazado 755410" d="M20,0H275a20,20,0,0,1,20,20V323a20,20,0,0,1-20,20H20A20,20,0,0,1,0,323V20A20,20,0,0,1,20,0Z" transform="translate(1125 2793)" fill="#b6e1fd"/>
    <path id="Trazado_755411" data-name="Trazado 755411" d="M-81.035-12.8l2.856,8.9,2.848-8.9h4.061V0h-3.094V-2.988l.3-6.117L-77.159,0H-79.2l-3.1-9.114.3,6.126V0h-3.085V-12.8ZM-63.782-1.028a3.054,3.054,0,0,1-2.54,1.2,3,3,0,0,1-2.369-.91,3.826,3.826,0,0,1-.8-2.615V-9.51h2.962v6.179a1.065,1.065,0,0,0,1.187,1.222,1.548,1.548,0,0,0,1.45-.729V-9.51h2.979V0h-2.777ZM-56.171,0h-2.971V-13.5h2.971ZM-50.9-11.874V-9.51h1.564v2.057H-50.9V-3.1a1.111,1.111,0,0,0,.193.747,1.037,1.037,0,0,0,.765.211A4.345,4.345,0,0,0-49.2-2.2V-.079a5.466,5.466,0,0,1-1.67.255A3.1,3.1,0,0,1-53.13-.545a2.954,2.954,0,0,1-.729-2.188v-4.72h-1.213V-9.51h1.213v-2.364ZM-45.044,0h-2.971V-9.51h2.971ZM-48.19-11.971a1.334,1.334,0,0,1,.457-1.043,1.718,1.718,0,0,1,1.187-.407,1.718,1.718,0,0,1,1.187.407,1.334,1.334,0,0,1,.457,1.043,1.334,1.334,0,0,1-.457,1.043,1.718,1.718,0,0,1-1.187.407,1.718,1.718,0,0,1-1.187-.407A1.334,1.334,0,0,1-48.19-11.971Zm7.77,2.461.1,1.116a3.27,3.27,0,0,1,2.716-1.292,2.407,2.407,0,0,1,2.435,1.433,3.165,3.165,0,0,1,2.795-1.433q2.892,0,2.971,3.5V0h-2.971V-6a1.813,1.813,0,0,0-.246-1.063,1.048,1.048,0,0,0-.9-.334,1.4,1.4,0,0,0-1.31.782l.009.123V0h-2.971V-5.985a1.906,1.906,0,0,0-.237-1.081,1.045,1.045,0,0,0-.905-.334,1.42,1.42,0,0,0-1.3.782V0H-43.2V-9.51ZM-23.115.176a4.889,4.889,0,0,1-3.542-1.305,4.507,4.507,0,0,1-1.354-3.4v-.246a5.84,5.84,0,0,1,.541-2.575,3.955,3.955,0,0,1,1.578-1.727,4.763,4.763,0,0,1,2.461-.611,4.117,4.117,0,0,1,3.164,1.244,4.887,4.887,0,0,1,1.16,3.467v1.151H-25A2.135,2.135,0,0,0-24.3-2.566a2.066,2.066,0,0,0,1.389.457,2.662,2.662,0,0,0,2.2-.984l1.354,1.6A3.784,3.784,0,0,1-20.931-.277,5.3,5.3,0,0,1-23.115.176ZM-23.449-7.4q-1.3,0-1.547,1.723h2.988v-.229a1.467,1.467,0,0,0-.36-1.1A1.434,1.434,0,0,0-23.449-7.4Zm5.159,2.575a5.809,5.809,0,0,1,.976-3.56,3.211,3.211,0,0,1,2.725-1.3,2.731,2.731,0,0,1,2.145,1V-13.5h2.971V0h-2.663l-.149-1.02a2.8,2.8,0,0,1-2.32,1.2,3.205,3.205,0,0,1-2.689-1.3A5.993,5.993,0,0,1-18.29-4.825Zm2.962.185q0,2.531,1.477,2.531a1.458,1.458,0,0,0,1.406-.826V-6.557A1.419,1.419,0,0,0-13.834-7.4q-1.371,0-1.485,2.215ZM-4.667,0H-7.638V-9.51h2.971ZM-7.813-11.971a1.334,1.334,0,0,1,.457-1.043,1.718,1.718,0,0,1,1.187-.407,1.718,1.718,0,0,1,1.187.407,1.334,1.334,0,0,1,.457,1.043,1.334,1.334,0,0,1-.457,1.043,1.718,1.718,0,0,1-1.187.407,1.718,1.718,0,0,1-1.187-.407A1.334,1.334,0,0,1-7.813-11.971ZM2.514,0a3.344,3.344,0,0,1-.281-.853A2.754,2.754,0,0,1-.053.176,3.374,3.374,0,0,1-2.338-.637a2.588,2.588,0,0,1-.94-2.043A2.66,2.66,0,0,1-2.136-5.019,5.821,5.821,0,0,1,1.187-5.81H2.1v-.5Q2.1-7.629.967-7.629A.927.927,0,0,0-.088-6.587H-3.05A2.655,2.655,0,0,1-1.876-8.825a4.931,4.931,0,0,1,2.993-.86A4.323,4.323,0,0,1,3.99-8.8,3.086,3.086,0,0,1,5.071-6.363v4.21a4.311,4.311,0,0,0,.4,2V0ZM.659-1.934a1.652,1.652,0,0,0,.918-.237A1.487,1.487,0,0,0,2.1-2.707V-4.228H1.239q-1.547,0-1.547,1.389a.848.848,0,0,0,.272.655A.986.986,0,0,0,.659-1.934ZM15.794.176a4.889,4.889,0,0,1-3.542-1.305,4.507,4.507,0,0,1-1.354-3.4v-.246a5.84,5.84,0,0,1,.541-2.575,3.955,3.955,0,0,1,1.578-1.727,4.763,4.763,0,0,1,2.461-.611,4.117,4.117,0,0,1,3.164,1.244A4.887,4.887,0,0,1,19.8-4.975v1.151H13.913a2.135,2.135,0,0,0,.694,1.257A2.066,2.066,0,0,0,16-2.109a2.662,2.662,0,0,0,2.2-.984l1.354,1.6A3.784,3.784,0,0,1,17.978-.277,5.3,5.3,0,0,1,15.794.176ZM15.46-7.4q-1.3,0-1.547,1.723H16.9v-.229a1.467,1.467,0,0,0-.36-1.1A1.434,1.434,0,0,0,15.46-7.4ZM23.713-9.51l.1,1.116a3.225,3.225,0,0,1,2.716-1.292,2.713,2.713,0,0,1,2.219.888,4.226,4.226,0,0,1,.76,2.672V0H26.534V-6a1.6,1.6,0,0,0-.29-1.059A1.342,1.342,0,0,0,25.189-7.4a1.413,1.413,0,0,0-1.292.686V0H20.936V-9.51ZM38.751,0H35.78V-13.5h2.971Zm7.181,0a3.344,3.344,0,0,1-.281-.853A2.754,2.754,0,0,1,43.365.176,3.374,3.374,0,0,1,41.08-.637a2.588,2.588,0,0,1-.94-2.043,2.66,2.66,0,0,1,1.143-2.338A5.821,5.821,0,0,1,44.6-5.81h.914v-.5q0-1.316-1.134-1.316A.927.927,0,0,0,43.33-6.587H40.368a2.655,2.655,0,0,1,1.173-2.239,4.931,4.931,0,0,1,2.993-.86,4.323,4.323,0,0,1,2.874.888,3.086,3.086,0,0,1,1.081,2.435v4.21a4.311,4.311,0,0,0,.4,2V0ZM44.077-1.934A1.652,1.652,0,0,0,45-2.171a1.487,1.487,0,0,0,.523-.536V-4.228h-.861q-1.547,0-1.547,1.389a.848.848,0,0,0,.272.655A.986.986,0,0,0,44.077-1.934Zm18.2-1.978,1.907-5.6h2.83L63.193,0H60.759l-.545-5.607L57.709,0H55.257l-.527-9.51h2.716l-.088,5.66,2.435-5.66H61.8ZM71.156.176a4.421,4.421,0,0,1-2.272-.6,3.793,3.793,0,0,1-1.507-1.652,4.44,4.44,0,0,1-.4-2.333L67-4.658a5.829,5.829,0,0,1,1.63-3.713,4.51,4.51,0,0,1,3.415-1.314,3.678,3.678,0,0,1,2.092.621A3.468,3.468,0,0,1,75.41-7.4a5.1,5.1,0,0,1,.264,2.381l-.167,1.206h-5.66A1.854,1.854,0,0,0,70.269-2.6a1.549,1.549,0,0,0,1.178.492,2.993,2.993,0,0,0,2.259-.967l1.213,1.6a3.578,3.578,0,0,1-1.5,1.2,5.263,5.263,0,0,1-2.1.451Zm.7-7.576a1.487,1.487,0,0,0-1.068.385A3.229,3.229,0,0,0,70-5.669H72.9l.053-.254a1.929,1.929,0,0,0,.018-.577A1.017,1.017,0,0,0,71.859-7.4ZM85.412-4.737A6.891,6.891,0,0,1,84.05-1.1,3.409,3.409,0,0,1,81.185.185,2.522,2.522,0,0,1,79.022-.993L78.662,0H76.043L78.39-13.5h2.892l-.94,4.772a2.87,2.87,0,0,1,2.136-.958,2.679,2.679,0,0,1,2.18,1,4.351,4.351,0,0,1,.826,2.667,9.674,9.674,0,0,1-.044,1.1Zm-2.874-.171a9.1,9.1,0,0,0,.079-1.018q0-1.413-1.011-1.474a1.732,1.732,0,0,0-1.5.763l-.686,3.791a1.163,1.163,0,0,0,1.2.746q1.415.044,1.784-1.843l.123-.781Z" transform="translate(1273 2851)" fill="#12263f"/>
    <g id="multimedia" transform="translate(1210 2925)">
      <g id="Grupo_881612" data-name="Grupo 881612">
        <g id="Grupo_881611" data-name="Grupo 881611">
          <path id="Trazado_749384" data-name="Trazado 749384" d="M4.032,52.032H60.484V92.355h4.032V48H0v58.468H8.065v-4.032H4.032Z" transform="translate(0 -35.903)" fill="#12263f"/>
          <path id="Trazado_749385" data-name="Trazado 749385" d="M102.436,300.484h-50.4V244.032H92.355V240H48v64.516h58.468v-8.065h-4.032Z" transform="translate(-35.903 -179.516)" fill="#12263f"/>
          <path id="Trazado_749386" data-name="Trazado 749386" d="M296.452,216v4.032h4.032v50.4H244.032V230.113H240v44.355h64.516V216Z" transform="translate(-179.516 -161.565)" fill="#12263f"/>
          <path id="Trazado_749387" data-name="Trazado 749387" d="M220.032,4.032h50.4V60.484H230.113v4.032h44.355V0H216V8.065h4.032Z" transform="translate(-161.565)" fill="#12263f"/>
          <path id="Trazado_749388" data-name="Trazado 749388" d="M272,316.882v6.883h48.387v-21l-10.081-10.081-15.121,15.121-7.056-7.056Zm19.571.244,18.736-18.736,6.048,6.048v15.294H276.032v-1.181l12.1-12.1,4.206,4.206-3.615,3.615Z" transform="translate(-203.452 -218.926)" fill="#12263f"/>
          <path id="Trazado_749389" data-name="Trazado 749389" d="M356.1,278.048a6.048,6.048,0,1,0-6.048,6.048A6.056,6.056,0,0,0,356.1,278.048Zm-8.065,0a2.016,2.016,0,1,1,2.016,2.016A2.017,2.017,0,0,1,348.032,278.048Z" transform="translate(-257.306 -203.452)" fill="#12263f"/>
          <path id="Trazado_749390" data-name="Trazado 749390" d="M116.1,296v21.246a8.062,8.062,0,1,0,4.032,6.98V305a8.014,8.014,0,0,0,4.032,1.085,4.036,4.036,0,0,1,4.032,4.032h4.032a8.073,8.073,0,0,0-8.065-8.065,4.036,4.036,0,0,1-4.032-4.032V296Zm-4.032,32.258a4.032,4.032,0,1,1,4.032-4.032A4.036,4.036,0,0,1,112.065,328.258Z" transform="translate(-77.79 -221.403)" fill="#12263f"/>
          <path id="Trazado_749391" data-name="Trazado 749391" d="M300.569,88H296v20.161h4.569L318.21,98.081Zm-.536,15.823V92.339l10.048,5.742Z" transform="translate(-221.403 -65.823)" fill="#12263f"/>
          <rect id="Rectángulo_361595" data-name="Rectángulo 361595" width="4.757" height="3.568" transform="translate(11.729 26.164)" fill="#12263f"/>
          <rect id="Rectángulo_361596" data-name="Rectángulo 361596" width="3.568" height="3.568" transform="translate(20.054 26.164)" fill="#12263f"/>
          <rect id="Rectángulo_361597" data-name="Rectángulo 361597" width="3.568" height="3.568" transform="translate(28.379 26.164)" fill="#12263f"/>
          <rect id="Rectángulo_361598" data-name="Rectángulo 361598" width="40.434" height="3.568" transform="translate(11.729 34.489)" fill="#12263f"/>
          <rect id="Rectángulo_361599" data-name="Rectángulo 361599" width="40.434" height="3.568" transform="translate(11.729 42.813)" fill="#12263f"/>
          <rect id="Rectángulo_361600" data-name="Rectángulo 361600" width="32.11" height="4.757" transform="translate(11.729 49.949)" fill="#12263f"/>
          <rect id="Rectángulo_361601" data-name="Rectángulo 361601" width="3.568" height="3.568" transform="translate(60.489 60.652)" fill="#12263f"/>
        </g>
      </g>
    </g>
  </g>
</svg>
