<svg xmlns="http://www.w3.org/2000/svg" width="250" height="250" viewBox="0 0 250 250">
  <g id="Grupo_1020781" data-name="Grupo 1020781" transform="translate(-3015 8647)">
    <g id="Rectángulo_361828" data-name="Rectángulo 361828" transform="translate(3015 -8647)" fill="#fff" stroke="#707070" stroke-width="1">
      <rect width="250" height="250" stroke="none"/>
      <rect x="0.5" y="0.5" width="249" height="249" fill="none"/>
    </g>
    <g id="iFood-OdTte1qsu_brandlogos.net" transform="translate(3027 -8583)">
      <path id="Trazado_749845" data-name="Trazado 749845" d="M399.25,520.88h17.17L426,472.69H408.86Z" transform="translate(-399.25 -451.24)" fill="#e9202e"/>
      <path id="Trazado_749846" data-name="Trazado 749846" d="M410.39,465.13h17.17l2.75-13.89H413.14Z" transform="translate(-399.25 -451.24)" fill="#e9202e"/>
      <path id="Trazado_749847" data-name="Trazado 749847" d="M423.23,534.46H440.4l10.4-52.16h12.54l2-9.61H452.68l.44-2.23c.83-4.11,2.14-8.87,8.61-8.87a27.572,27.572,0,0,1,11.09,2l2-10.13a37.16,37.16,0,0,0-12.36-2.14c-13.8,0-23.28,8.39-26.78,21.45H429.7l-1.88,9.61h5.85Z" transform="translate(-399.25 -451.24)" fill="#e9202e"/>
      <path id="Trazado_749848" data-name="Trazado 749848" d="M477.58,522c20.27,0,34.34-18.87,34.34-34.25,0-11.18-10.4-16.12-20.27-16.12-22.24,0-34.34,20.27-34.34,34.25,0,11.23,10.48,16.12,20.27,16.12" transform="translate(-399.25 -451.24)" fill="#e9202e"/>
      <path id="Trazado_749849" data-name="Trazado 749849" d="M531.75,522c20.27,0,34.34-18.87,34.34-34.25,0-11.18-10.4-16.12-20.27-16.12-22.24,0-34.34,20.27-34.34,34.25,0,11.23,10.48,16.12,20.27,16.12" transform="translate(-399.25 -451.24)" fill="#e9202e"/>
      <path id="Trazado_749850" data-name="Trazado 749850" d="M594,519.83h17l13.72-68.59H607.58l-4.11,20.36a36,36,0,0,0-6.94-.79c-16.82,0-32.11,21.8-32.11,37.35,0,6.42,4.11,12.71,11,12.71,9.87,0,16.69-4.94,19.53-9.52h1Z" transform="translate(-399.25 -451.24)" fill="#e9202e"/>
      <path id="Trazado_749851" data-name="Trazado 749851" d="M541.09,557.22a65.63,65.63,0,0,1-47.57,15.33c-23-1.44-38.92-19.57-42.16-38h1.09A42.69,42.69,0,0,0,486,559c15.42,1.75,34.34-5.37,44.73-15.51l-11.62-9,34.55.09-7.43,37.26Z" transform="translate(-399.25 -451.24)" fill="#e9202e"/>
    </g>
  </g>
</svg>
